<svg version="1.1" viewBox="0.000000 0.000000 48.000000 48.000000" xmlns="http://www.w3.org/2000/svg" xmlns:xlink="http://www.w3.org/1999/xlink" overflow="hidden"><defs></defs><g id="icons"><path d=" M 21.000000 16.000000 C 21.000000 14.343145 22.343145 13.000000 24.000000 13.000000 C 25.656855 13.000000 27.000000 14.343145 27.000000 16.000000 L 27.000000 28.000000 L 36.000000 31.000000 C 38.000000 31.639999 38.470001 34.000000 38.000000 36.000000 L 36.000000 47.000000 L 20.000000 47.000000 L 12.000000 35.000000 C 11.090000 33.610001 11.000000 31.000000 13.000000 31.000000 C 15.000000 31.000000 17.000000 31.840000 21.000000 38.000000 Z" stroke="#231F20" stroke-width="2.000000" stroke-linejoin="round" fill="none"/><path d=" M 14.000000 25.000000 L 11.000000 25.000000 C 7.686292 25.000000 5.000000 22.313709 5.000000 19.000000 L 5.000000 7.000000 C 5.000000 3.686291 7.686292 1.000000 11.000000 1.000000 L 37.000000 1.000000 C 40.313709 1.000000 43.000000 3.686291 43.000000 7.000000 L 43.000000 19.000000 C 43.000000 22.313709 40.313709 25.000000 37.000000 25.000000 L 34.000000 25.000000" stroke="#231F20" stroke-width="2.000000" stroke-linecap="round" stroke-linejoin="round" fill="none"/></g></svg>