<svg version="1.1" viewBox="0.000000 0.000000 48.000000 48.000000" xmlns="http://www.w3.org/2000/svg" xmlns:xlink="http://www.w3.org/1999/xlink" overflow="hidden"><defs></defs><g id="icons"><path d=" M 32.119999 47.000000 L 14.120000 47.000000 L 12.120000 35.000000 L 34.119999 35.000000 L 32.119999 47.000000 Z" stroke="#231F20" stroke-width="2.000000" stroke-miterlimit="10.000000" fill="none"/><path d=" M 16.120001 35.000000 L 16.120001 23.000000 L 9.120000 23.000000 C 7.496628 23.033482 6.153482 21.744621 6.120000 20.121250 C 6.119166 20.080837 6.119166 20.040413 6.120000 20.000000 L 6.120000 14.000000 C 6.086517 12.376628 7.375378 11.033483 8.998750 11.000000 C 9.039163 10.999166 9.079588 10.999166 9.120000 11.000000 C 10.743372 10.966517 12.086517 12.255378 12.120000 13.878750 C 12.120833 13.919163 12.120833 13.959588 12.120000 14.000000 L 12.120000 17.000000 C 12.192584 18.073069 13.046932 18.927416 14.120000 19.000000 L 16.120001 19.000000 L 16.120001 13.000000 C 16.120001 12.000000 17.120001 6.000000 23.120001 6.000000 C 29.120001 6.000000 30.120001 12.000000 30.120001 13.000000 L 30.120001 25.000000 L 34.119999 25.000000 C 37.119999 25.000000 35.119999 21.000000 38.119999 21.000000 C 40.119999 21.000000 40.119999 23.000000 40.119999 24.000000 L 40.119999 26.000000 C 40.026276 27.616442 38.736443 28.906277 37.119999 29.000000 L 30.120001 29.000000 L 30.120001 35.000000" stroke="#231F20" stroke-width="2.000000" stroke-miterlimit="10.000000" fill="none"/><line x1="38.120000" y1="18.000000" x2="38.120000" y2="21.000000" stroke="#231F20" stroke-width="2.000000" stroke-linecap="round" stroke-miterlimit="10.000000" fill="none"/><line x1="42.120000" y1="20.000000" x2="39.930000" y2="22.190000" stroke="#231F20" stroke-width="2.000000" stroke-linecap="round" stroke-miterlimit="10.000000" fill="none"/><line x1="43.120000" y1="24.000000" x2="40.120000" y2="24.000000" stroke="#231F20" stroke-width="2.000000" stroke-linecap="round" stroke-miterlimit="10.000000" fill="none"/><line x1="34.120000" y1="20.000000" x2="36.340000" y2="22.220000" stroke="#231F20" stroke-width="2.000000" stroke-linecap="round" stroke-miterlimit="10.000000" fill="none"/><line x1="23.120000" y1="1.000000" x2="23.120000" y2="6.000000" stroke="#231F20" stroke-width="2.000000" stroke-linecap="round" stroke-miterlimit="10.000000" fill="none"/><line x1="31.120000" y1="4.000000" x2="28.120000" y2="8.000000" stroke="#231F20" stroke-width="2.000000" stroke-linecap="round" stroke-miterlimit="10.000000" fill="none"/><line x1="15.120000" y1="4.000000" x2="18.120000" y2="8.000000" stroke="#231F20" stroke-width="2.000000" stroke-linecap="round" stroke-miterlimit="10.000000" fill="none"/><line x1="34.120000" y1="11.000000" x2="29.740000" y2="11.000000" stroke="#231F20" stroke-width="2.000000" stroke-linecap="round" stroke-miterlimit="10.000000" fill="none"/><line x1="9.120000" y1="8.000000" x2="9.120000" y2="11.000000" stroke="#231F20" stroke-width="2.000000" stroke-linecap="round" stroke-miterlimit="10.000000" fill="none"/><line x1="13.120000" y1="9.000000" x2="10.880000" y2="11.480000" stroke="#231F20" stroke-width="2.000000" stroke-linecap="round" stroke-miterlimit="10.000000" fill="none"/><line x1="4.880000" y1="9.000000" x2="7.530000" y2="11.410000" stroke="#231F20" stroke-width="2.000000" stroke-linecap="round" stroke-miterlimit="10.000000" fill="none"/><line x1="12.120000" y1="29.000000" x2="16.120000" y2="29.000000" stroke="#231F20" stroke-width="2.000000" stroke-linecap="round" stroke-miterlimit="10.000000" fill="none"/></g></svg>