<svg version="1.1" viewBox="0.000000 0.000000 48.000000 48.000000" xmlns="http://www.w3.org/2000/svg" xmlns:xlink="http://www.w3.org/1999/xlink" overflow="hidden"><defs></defs><g id="icons"><line x1="1.000000" y1="9.000000" x2="41.000000" y2="9.000000" stroke="#231F20" stroke-width="2.000000" stroke-linecap="round" stroke-linejoin="round" fill="none"/><path d=" M 7.000000 4.000000 C 6.447715 4.000000 6.000000 4.447715 6.000000 5.000000 C 6.000000 5.552285 6.447715 6.000000 7.000000 6.000000 C 7.552285 6.000000 8.000000 5.552285 8.000000 5.000000 C 8.000000 4.447715 7.552285 4.000000 7.000000 4.000000 Z" fill="#231F20"/><path d=" M 11.000000 4.000000 C 10.447715 4.000000 10.000000 4.447715 10.000000 5.000000 C 10.000000 5.552285 10.447715 6.000000 11.000000 6.000000 C 11.552285 6.000000 12.000000 5.552285 12.000000 5.000000 C 12.000000 4.447715 11.552285 4.000000 11.000000 4.000000 Z" fill="#231F20"/><path d=" M 15.000000 4.000000 C 14.447715 4.000000 14.000000 4.447715 14.000000 5.000000 C 14.000000 5.552285 14.447715 6.000000 15.000000 6.000000 C 15.552285 6.000000 16.000000 5.552285 16.000000 5.000000 C 16.000000 4.447715 15.552285 4.000000 15.000000 4.000000 Z" fill="#231F20"/><path d=" M 19.000000 33.000000 L 5.000000 33.000000 C 2.790861 33.000000 1.000000 31.209139 1.000000 29.000000 L 1.000000 5.000000 C 1.000000 2.790861 2.790861 1.000000 5.000000 1.000000 L 37.000000 1.000000 C 39.209141 1.000000 41.000000 2.790861 41.000000 5.000000 L 41.000000 21.000000" stroke="#231F20" stroke-width="2.000000" stroke-linecap="round" stroke-miterlimit="10.000000" fill="none"/><path d=" M 33.000000 27.520000 C 31.961220 27.901936 30.994318 28.456383 30.139999 29.160000 L 28.000000 27.900000 L 25.000000 33.099998 L 27.180000 34.360001 C 26.966795 35.442940 26.966795 36.557060 27.180000 37.639999 L 25.000000 38.900002 L 28.000000 44.099998 L 30.190001 42.840000 C 31.026760 43.542244 31.977013 44.096840 33.000000 44.480000 L 33.000000 47.000000 L 39.000000 47.000000 L 39.000000 44.480000 C 40.031315 44.101612 40.988930 43.546673 41.830002 42.840000 L 44.000000 44.099998 L 47.000000 38.900002 L 44.820000 37.639999 C 45.026752 36.556442 45.026752 35.443558 44.820000 34.360001 L 47.000000 33.099998 L 44.000000 27.900000 L 41.830002 29.160000 C 40.986412 28.456921 40.029449 27.902355 39.000000 27.520000 L 39.000000 25.000000 L 33.000000 25.000000 Z" stroke="#231F20" stroke-width="2.000000" stroke-linejoin="round" fill="none"/><circle cx="35.970000" cy="36.000000" r="4.000000" stroke="#231F20" stroke-width="2.000000" stroke-linejoin="round" fill="none"/></g></svg>