<svg version="1.1" viewBox="0.000000 0.000000 48.000000 48.000000" xmlns="http://www.w3.org/2000/svg" xmlns:xlink="http://www.w3.org/1999/xlink" overflow="hidden"><defs></defs><g id="icons"><path d=" M 18.000000 33.500000 L 18.000000 35.570000 L 5.820000 39.689999 C 2.944777 40.725349 1.020484 43.444111 1.000000 46.500000 L 47.000000 46.500000 C 46.979515 43.444115 45.055222 40.725349 42.180000 39.689999 L 30.000000 35.570000 L 30.000000 28.420000" stroke="#231F20" stroke-width="2.000000" stroke-linecap="round" stroke-miterlimit="10.000000" fill="none"/><path d=" M 13.280000 8.620000 C 15.390000 4.360000 19.280001 1.500000 23.700001 1.500000 C 30.379999 1.500000 35.799999 8.000000 35.799999 16.000000 C 35.799999 22.170000 32.590000 27.440001 28.070000 29.549999" stroke="#231F20" stroke-width="2.000000" stroke-linecap="round" stroke-miterlimit="10.000000" fill="none"/><path d=" M 35.580002 13.220000 C 35.169998 13.220000 35.000000 13.220000 34.580002 13.290000 C 30.459999 14.090000 27.809999 12.590000 25.580000 8.620000 C 24.954826 9.697023 24.067278 10.598332 23.000000 11.240000" stroke="#231F20" stroke-width="2.000000" stroke-linecap="round" stroke-miterlimit="10.000000" fill="none"/><path d=" M 25.000000 27.500000 C 25.000000 28.604570 24.104570 29.500000 23.000000 29.500000 L 3.000000 29.500000 C 1.895430 29.500000 1.000000 28.604570 1.000000 27.500000 L 1.000000 16.500000 C 1.000000 15.395431 1.895430 14.500000 3.000000 14.500000 L 11.000000 14.500000 L 11.450000 13.610000 C 11.787730 12.930342 12.481056 12.500402 13.240000 12.500000 L 17.760000 12.500000 C 18.518944 12.500402 19.212271 12.930343 19.550001 13.610000 L 20.000000 14.500000 L 23.000000 14.500000 C 24.104570 14.500000 25.000000 15.395431 25.000000 16.500000 Z" stroke="#231F20" stroke-width="2.000000" stroke-linejoin="round" fill="none"/><circle cx="15.000000" cy="21.500000" r="4.000000" stroke="#231F20" stroke-width="2.000000" stroke-linejoin="round" fill="none"/><rect x="4.000000" y="12.500000" width="1.000000" height="1.000000" stroke="#231F20" stroke-width="2.000000" stroke-miterlimit="10.000000" fill="none"/></g></svg>