<svg version="1.1" viewBox="0.000000 0.000000 48.000000 48.000000" xmlns="http://www.w3.org/2000/svg" xmlns:xlink="http://www.w3.org/1999/xlink" overflow="hidden"><defs></defs><g id="icons"><path d=" M 35.000000 6.060000 C 33.848114 6.058108 32.713924 6.343374 31.700001 6.890000 C 30.491648 2.640169 26.066916 0.174563 21.817085 1.382915 C 19.151440 2.140837 17.067923 4.224354 16.310001 6.890000 C 12.902404 5.064025 8.659756 6.346184 6.833781 9.753781 C 5.007806 13.161379 6.289965 17.404028 9.697562 19.230001 C 10.713277 19.774277 11.847651 20.059378 13.000001 20.059999 L 13.000000 46.939999 L 35.000000 46.939999 L 35.000000 20.059999 C 38.815960 20.110033 41.949966 17.057146 42.000000 13.241187 C 42.000793 13.180794 42.000793 13.120393 42.000000 13.059999 C 42.000000 9.194006 38.865993 6.059999 35.000000 6.059999 Z" stroke="#231F20" stroke-width="2.000000" stroke-linecap="round" stroke-linejoin="round" fill="none"/><line x1="13.000000" y1="38.940000" x2="35.000000" y2="38.940000" stroke="#231F20" stroke-width="2.000000" stroke-linecap="round" stroke-linejoin="round" fill="none"/><line x1="19.000000" y1="30.940000" x2="19.000000" y2="38.940000" stroke="#231F20" stroke-width="2.000000" stroke-linecap="round" stroke-linejoin="round" fill="none"/><line x1="24.000000" y1="28.940000" x2="24.000000" y2="38.940000" stroke="#231F20" stroke-width="2.000000" stroke-linecap="round" stroke-linejoin="round" fill="none"/><line x1="29.000000" y1="30.940000" x2="29.000000" y2="38.940000" stroke="#231F20" stroke-width="2.000000" stroke-linecap="round" stroke-linejoin="round" fill="none"/></g></svg>