<svg version="1.1" viewBox="0.000000 0.000000 48.000000 48.000000" xmlns="http://www.w3.org/2000/svg" xmlns:xlink="http://www.w3.org/1999/xlink" overflow="hidden"><defs></defs><g id="icons"><path d=" M 18.000000 19.000000 C 18.000000 17.900000 18.900000 18.000000 20.000000 18.000000 C 21.100000 18.000000 22.000000 17.900000 22.000000 19.000000" stroke="#231F20" stroke-width="2.000000" stroke-linecap="round" stroke-miterlimit="10.000000" fill="none"/><path d=" M 26.000000 19.000000 C 26.000000 17.900000 26.900000 18.000000 28.000000 18.000000 C 29.100000 18.000000 30.000000 17.900000 30.000000 19.000000" stroke="#231F20" stroke-width="2.000000" stroke-linecap="round" stroke-miterlimit="10.000000" fill="none"/><path d=" M 18.889999 31.000000 C 10.300000 32.459999 1.000000 32.160000 1.000000 40.490002 L 1.000000 47.000000 L 47.000000 47.000000 L 47.000000 40.490002 C 47.000000 32.150002 38.000000 32.490002 29.139999 31.000000" stroke="#231F20" stroke-width="2.000000" stroke-linecap="round" stroke-miterlimit="10.000000" fill="none"/><path d=" M 24.000000 33.000000 C 27.000000 33.000000 34.000000 29.000000 34.000000 23.000000 C 37.000000 23.000000 37.000000 17.000000 34.000000 17.000000 L 33.000000 12.000000 C 27.000000 12.000000 25.000000 11.000000 24.000000 10.000000 C 23.000000 11.000000 21.000000 12.000000 15.000000 12.000000 L 14.000000 17.000000 C 11.000000 17.000000 11.000000 23.000000 14.000000 23.000000 C 14.000000 29.000000 21.000000 33.000000 24.000000 33.000000 Z" stroke="#231F20" stroke-width="2.000000" stroke-linecap="round" stroke-linejoin="round" fill="none"/><path d=" M 36.000000 18.500000 C 36.481171 15.689271 36.775150 12.849689 36.880001 10.000000 C 37.049572 7.549722 36.463177 5.106419 35.200001 3.000000 L 34.000000 1.000000 L 31.629999 3.370000 C 31.227911 3.799137 30.657331 4.029562 30.070000 4.000000 C 29.495445 3.957795 28.966993 3.669880 28.619999 3.210000 L 27.000000 1.000000 L 25.600000 2.870000 C 24.937258 3.753655 23.683657 3.932742 22.800001 3.270000 C 22.648390 3.156291 22.513710 3.021611 22.400002 2.870000 L 21.000000 1.000000 L 19.379999 3.160000 C 19.042923 3.638748 18.512989 3.945745 17.929998 4.000000 C 17.350430 4.042486 16.781040 3.830790 16.369999 3.420000 L 14.000000 1.000000 L 12.800000 3.000000 C 11.536822 5.106419 10.950430 7.549722 11.120000 10.000000 C 11.208190 12.850833 11.502289 15.691565 12.000000 18.500000" stroke="#231F20" stroke-width="2.000000" stroke-linejoin="round" fill="none"/><path d=" M 14.000000 31.709999 L 17.400000 39.480000 C 18.372458 41.622341 20.507278 42.998634 22.859999 43.000000 L 25.139999 43.000000 C 27.492722 42.998634 29.627541 41.622341 30.599998 39.480000 L 34.000000 31.709999" stroke="#231F20" stroke-width="2.000000" stroke-linecap="round" stroke-miterlimit="10.000000" fill="none"/><line x1="9.000000" y1="32.540000" x2="7.000000" y2="47.000000" stroke="#231F20" stroke-width="2.000000" stroke-linecap="round" stroke-miterlimit="10.000000" fill="none"/><line x1="38.830000" y1="32.490000" x2="41.000000" y2="47.000000" stroke="#231F20" stroke-width="2.000000" stroke-linecap="round" stroke-miterlimit="10.000000" fill="none"/></g></svg>