<svg version="1.1" viewBox="0.000000 0.000000 48.000000 48.000000" xmlns="http://www.w3.org/2000/svg" xmlns:xlink="http://www.w3.org/1999/xlink" overflow="hidden"><defs></defs><g id="icons"><path d=" M 1.440000 20.670000 L 6.990000 28.980000 L 13.420000 21.320000" stroke="#231F20" stroke-width="2.000000" stroke-linecap="round" stroke-linejoin="round" fill="none"/><path d=" M 46.560001 29.360001 L 41.009998 21.049999 L 34.580002 28.709999" stroke="#231F20" stroke-width="2.000000" stroke-linecap="round" stroke-linejoin="round" fill="none"/><path d=" M 41.000000 21.100000 C 42.368866 30.006437 36.667877 38.470879 27.900000 40.549999 C 22.181921 41.905151 16.169456 40.211071 12.000000 36.070000" stroke="#231F20" stroke-width="2.000000" stroke-linecap="round" stroke-linejoin="round" fill="none"/><path d=" M 7.060000 28.930000 C 4.801588 19.402477 10.622005 9.829539 20.120001 7.450000 C 26.221422 6.017358 32.616207 8.058002 36.760002 12.760000" stroke="#231F20" stroke-width="2.000000" stroke-linecap="round" stroke-linejoin="round" fill="none"/><path d=" M 26.820000 26.850000 C 25.257034 28.411228 22.724375 28.409819 21.163147 26.846853 C 19.601919 25.283888 19.603329 22.751228 21.166294 21.190001 C 22.728031 19.630001 25.258265 19.630001 26.820002 21.190001 C 28.382967 22.751228 28.384377 25.283888 26.823149 26.846853 C 26.822100 26.847902 26.821051 26.848951 26.820002 26.850000 Z" stroke="#231F20" stroke-width="2.000000" stroke-linecap="round" stroke-linejoin="round" fill="none"/></g></svg>