<svg version="1.1" viewBox="0.000000 0.000000 48.000000 48.000000" xmlns="http://www.w3.org/2000/svg" xmlns:xlink="http://www.w3.org/1999/xlink" overflow="hidden"><defs></defs><g id="icons"><line x1="23.000000" y1="11.500000" x2="23.000000" y2="42.500000" stroke="#231F20" stroke-width="2.000000" stroke-linecap="round" stroke-linejoin="round" fill="none"/><line x1="17.000000" y1="42.500000" x2="31.000000" y2="42.500000" stroke="#231F20" stroke-width="2.000000" stroke-linecap="round" stroke-linejoin="round" fill="none"/><path d=" M 1.000000 24.500000 L 8.000000 8.500000 L 15.000000 24.500000" stroke="#231F20" stroke-width="2.000000" stroke-linecap="round" stroke-linejoin="round" fill="none"/><circle cx="23.000000" cy="8.500000" r="3.000000" stroke="#231F20" stroke-width="2.000000" stroke-linecap="round" stroke-linejoin="round" fill="none"/><path d=" M 8.000000 31.500000 C 11.865993 31.500000 15.000000 28.365993 15.000000 24.500000 L 1.000000 24.500000 C 1.000000 28.365993 4.134007 31.500000 8.000000 31.500000 Z" stroke="#231F20" stroke-width="2.000000" stroke-linecap="round" stroke-linejoin="round" fill="none"/><path d=" M 47.000000 24.500000 L 40.000000 8.500000 L 33.000000 24.500000" stroke="#231F20" stroke-width="2.000000" stroke-linecap="round" stroke-linejoin="round" fill="none"/><path d=" M 40.000000 31.500000 C 36.134007 31.500000 33.000000 28.365993 33.000000 24.500000 L 47.000000 24.500000 C 47.000000 28.365993 43.865993 31.500000 40.000000 31.500000 Z" stroke="#231F20" stroke-width="2.000000" stroke-linecap="round" stroke-linejoin="round" fill="none"/><line x1="20.000000" y1="8.500000" x2="5.000000" y2="8.500000" stroke="#231F20" stroke-width="2.000000" stroke-linecap="round" stroke-linejoin="round" fill="none"/><line x1="26.000000" y1="8.500000" x2="43.000000" y2="8.500000" stroke="#231F20" stroke-width="2.000000" stroke-linecap="round" stroke-linejoin="round" fill="none"/></g></svg>