<svg version="1.1" viewBox="0.000000 0.000000 48.000000 48.000000" xmlns="http://www.w3.org/2000/svg" xmlns:xlink="http://www.w3.org/1999/xlink" overflow="hidden"><defs></defs><g id="icons"><path d=" M 17.000000 7.500000 L 13.000000 3.500000 L 3.000000 3.500000 L 3.000000 35.500000 L 45.000000 35.500000 L 45.000000 7.500000 L 17.000000 7.500000 Z" stroke="#231F20" stroke-width="2.000000" stroke-linecap="round" stroke-linejoin="round" fill="none"/><line x1="11.000000" y1="43.500000" x2="37.000000" y2="43.500000" stroke="#231F20" stroke-width="2.000000" stroke-linecap="round" stroke-linejoin="round" fill="none"/><line x1="24.000000" y1="35.500000" x2="24.000000" y2="43.500000" stroke="#231F20" stroke-width="2.000000" stroke-linecap="round" stroke-linejoin="round" fill="none"/><path d=" M 3.000000 42.500000 C 2.447715 42.500000 2.000000 42.947716 2.000000 43.500000 C 2.000000 44.052284 2.447715 44.500000 3.000000 44.500000 C 3.552285 44.500000 4.000000 44.052284 4.000000 43.500000 C 4.000000 42.947716 3.552285 42.500000 3.000000 42.500000 Z" fill="#231F20"/><path d=" M 7.000000 42.500000 C 6.447715 42.500000 6.000000 42.947716 6.000000 43.500000 C 6.000000 44.052284 6.447715 44.500000 7.000000 44.500000 C 7.552285 44.500000 8.000000 44.052284 8.000000 43.500000 C 8.000000 42.947716 7.552285 42.500000 7.000000 42.500000 Z" fill="#231F20"/><path d=" M 41.000000 42.500000 C 40.447716 42.500000 40.000000 42.947716 40.000000 43.500000 C 40.000000 44.052284 40.447716 44.500000 41.000000 44.500000 C 41.552284 44.500000 42.000000 44.052284 42.000000 43.500000 C 42.000000 42.947716 41.552284 42.500000 41.000000 42.500000 Z" fill="#231F20"/><path d=" M 45.000000 42.500000 C 44.447716 42.500000 44.000000 42.947716 44.000000 43.500000 C 44.000000 44.052284 44.447716 44.500000 45.000000 44.500000 C 45.552284 44.500000 46.000000 44.052284 46.000000 43.500000 C 46.000000 42.947716 45.552284 42.500000 45.000000 42.500000 Z" fill="#231F20"/></g></svg>