<svg version="1.1" viewBox="0.000000 0.000000 48.000000 48.000000" xmlns="http://www.w3.org/2000/svg" xmlns:xlink="http://www.w3.org/1999/xlink" overflow="hidden"><defs></defs><g id="icons"><line x1="19.000000" y1="25.000000" x2="29.000000" y2="25.000000" stroke="#231F20" stroke-width="2.000000" stroke-linecap="round" stroke-linejoin="round" fill="none"/><rect x="9.000000" y="11.000000" rx="2.000000" ry="2.000000" width="10.000000" height="26.000000" stroke="#231F20" stroke-width="2.000000" stroke-linecap="round" stroke-linejoin="round" fill="none"/><path d=" M 3.000000 29.000000 C 3.000000 30.104570 3.895431 31.000000 5.000000 31.000000 L 9.000000 31.000000 L 9.000000 17.000000 L 5.000000 17.000000 C 3.895431 17.000000 3.000000 17.895430 3.000000 19.000000 Z" stroke="#231F20" stroke-width="2.000000" stroke-linecap="round" stroke-linejoin="round" fill="none"/><line x1="3.000000" y1="24.000000" x2="1.000000" y2="24.000000" stroke="#231F20" stroke-width="2.000000" stroke-linecap="round" stroke-linejoin="round" fill="none"/><rect x="29.000000" y="11.000000" rx="2.000000" ry="2.000000" width="10.000000" height="26.000000" stroke="#231F20" stroke-width="2.000000" stroke-linecap="round" stroke-linejoin="round" fill="none"/><path d=" M 45.000000 29.000000 C 45.000000 30.104570 44.104568 31.000000 43.000000 31.000000 L 39.000000 31.000000 L 39.000000 17.000000 L 43.000000 17.000000 C 44.104568 17.000000 45.000000 17.895430 45.000000 19.000000 Z" stroke="#231F20" stroke-width="2.000000" stroke-linecap="round" stroke-linejoin="round" fill="none"/><line x1="45.000000" y1="24.000000" x2="47.000000" y2="24.000000" stroke="#231F20" stroke-width="2.000000" stroke-linecap="round" stroke-linejoin="round" fill="none"/></g></svg>