<svg version="1.1" viewBox="0.000000 0.000000 48.000000 48.000000" xmlns="http://www.w3.org/2000/svg" xmlns:xlink="http://www.w3.org/1999/xlink" overflow="hidden"><defs></defs><g id="icons"><path d=" M 16.000000 12.500000 L 16.000000 15.500000 C 14.000000 15.500000 15.000000 19.500000 16.000000 19.500000 C 16.000000 21.860680 17.111456 24.083591 19.000000 25.500000 L 19.000000 31.500000 C 11.000000 34.500000 3.810000 36.259998 3.000000 39.500000 C 2.125873 41.769009 1.456538 44.111683 1.000000 46.500000 L 47.000000 46.500000 C 46.838299 44.051064 46.156483 41.664715 45.000000 39.500000 C 44.189999 36.259998 37.000000 34.500000 29.000000 31.500000 L 29.000000 25.500000 C 30.888544 24.083591 32.000000 21.860680 32.000000 19.500000 C 33.000000 19.500000 34.000000 15.500000 32.000000 15.500000 L 32.000000 12.500000" stroke="#231F20" stroke-width="2.000000" stroke-linejoin="round" fill="none"/><line x1="11.000000" y1="12.500000" x2="37.000000" y2="12.500000" stroke="#231F20" stroke-width="2.000000" stroke-linecap="round" stroke-linejoin="round" fill="none"/><path d=" M 15.000000 12.500000 L 19.000000 1.500000 L 21.430000 3.000000 C 23.037951 3.849836 24.962049 3.849836 26.570000 3.000000 L 29.000000 1.500000 L 33.000000 12.500000" stroke="#231F20" stroke-width="2.000000" stroke-linecap="round" stroke-linejoin="round" fill="none"/><rect x="21.880000" y="34.380000" width="4.240000" height="4.240000" stroke="#231F20" stroke-width="2.000000" stroke-linejoin="round" fill="none" transform="matrix(0.707107,-0.707107,0.707107,0.707107,-18.780000,27.660000)"/><path d=" M 24.000000 39.500000 L 21.000000 46.500000 L 27.000000 46.500000 L 24.000000 39.500000 Z" stroke="#231F20" stroke-width="2.000000" stroke-linejoin="round" fill="none"/><line x1="19.000000" y1="46.500000" x2="15.000000" y2="32.940000" stroke="#231F20" stroke-width="2.000000" stroke-linejoin="round" fill="none"/><line x1="29.000000" y1="46.500000" x2="33.170000" y2="32.940000" stroke="#231F20" stroke-width="2.000000" stroke-linejoin="round" fill="none"/><line x1="24.000000" y1="33.500000" x2="19.000000" y2="31.500000" stroke="#231F20" stroke-width="2.000000" stroke-linejoin="round" fill="none"/><line x1="24.000000" y1="33.500000" x2="29.000000" y2="31.500000" stroke="#231F20" stroke-width="2.000000" stroke-linejoin="round" fill="none"/><line x1="36.000000" y1="41.500000" x2="41.000000" y2="41.500000" stroke="#231F20" stroke-width="2.000000" stroke-linejoin="round" fill="none"/><line x1="24.000000" y1="33.610000" x2="17.000000" y2="39.610000" stroke="#231F20" stroke-width="2.000000" stroke-linejoin="round" fill="none"/><line x1="24.000000" y1="33.610000" x2="31.000000" y2="39.610000" stroke="#231F20" stroke-width="2.000000" stroke-linejoin="round" fill="none"/></g></svg>