<svg version="1.1" viewBox="0.000000 0.000000 48.000000 48.000000" xmlns="http://www.w3.org/2000/svg" xmlns:xlink="http://www.w3.org/1999/xlink" overflow="hidden"><defs></defs><g id="icons"><path d=" M 24.000000 12.000000 L 27.000000 20.000000 L 36.000000 20.000000 L 29.000000 26.000000 L 32.000000 36.000000 L 24.000000 30.000000 L 16.000000 36.000000 L 19.000000 26.000000 L 12.000000 20.000000 L 21.000000 20.000000 L 24.000000 12.000000 Z" stroke="#231F20" stroke-width="2.000000" stroke-linejoin="round" fill="none"/><path d=" M 47.000000 24.000000 C 46.994743 22.080359 45.626514 20.435127 43.740002 20.080000 C 45.585121 18.865166 46.096069 16.384581 44.881237 14.539460 C 43.982037 13.173731 42.342106 12.492825 40.740002 12.820001 C 41.970409 10.985227 41.480473 8.500407 39.645699 7.270000 C 38.297962 6.366203 36.537739 6.366203 35.190002 7.270000 C 35.620060 5.103126 34.212093 2.997896 32.045219 2.567837 C 30.458515 2.252925 28.838331 2.924709 27.940002 4.270000 C 27.528522 2.099521 25.435431 0.673571 23.264952 1.085051 C 21.649651 1.391280 20.386230 2.654699 20.080002 4.270000 C 18.853207 2.432811 16.369354 1.937988 14.532165 3.164784 C 13.186872 4.063112 12.515089 5.683296 12.830002 7.270000 C 10.995228 6.039594 8.510408 6.529530 7.280002 8.364304 C 6.376204 9.712040 6.376204 11.472263 7.280002 12.820000 C 5.113127 12.389941 3.007897 13.797909 2.577839 15.964784 C 2.262926 17.551489 2.934710 19.171673 4.280002 20.070000 C 2.109523 20.481480 0.683572 22.574572 1.095052 24.745050 C 1.401281 26.360352 2.664701 27.623772 4.280002 27.930000 C 2.442812 29.156796 1.947989 31.640648 3.174785 33.477837 C 4.073113 34.823128 5.693297 35.494911 7.280002 35.180000 C 6.049595 37.014774 6.539531 39.499592 8.374305 40.730000 C 9.722041 41.633797 11.482265 41.633797 12.830001 40.730000 C 12.399942 42.896873 13.807910 45.002106 15.974785 45.432163 C 17.561489 45.747074 19.181673 45.075291 20.080002 43.730000 C 20.491482 45.900478 22.584574 47.326427 24.755053 46.914948 C 26.370354 46.608719 27.633774 45.345299 27.940002 43.730000 C 29.166798 45.567188 31.650650 46.062012 33.487839 44.835217 C 34.833130 43.936890 35.504913 42.316704 35.190002 40.730000 C 37.024776 41.960407 39.509594 41.470470 40.740002 39.635696 C 41.643799 38.287960 41.643799 36.527737 40.740002 35.180000 C 42.906876 35.610058 45.012108 34.202091 45.442165 32.035217 C 45.757076 30.448513 45.085293 28.828329 43.740002 27.930000 C 45.630211 27.574169 46.999542 25.923410 47.000000 24.000000 Z" stroke="#231F20" stroke-width="2.000000" stroke-linejoin="round" fill="none"/></g></svg>