<svg version="1.1" viewBox="0.000000 0.000000 48.000000 48.000000" xmlns="http://www.w3.org/2000/svg" xmlns:xlink="http://www.w3.org/1999/xlink" overflow="hidden"><defs></defs><g id="icons"><path d=" M 8.000000 13.190000 L 8.000000 16.000000 L 2.920000 17.450001 C 1.814230 17.821135 1.051055 18.834728 1.000000 20.000000 L 1.000000 21.000000 L 12.000000 21.000000" stroke="#231F20" stroke-width="2.000000" stroke-miterlimit="10.000000" fill="none"/><path d=" M 14.000000 13.190000 L 14.000000 16.000000 L 19.080000 17.450001 C 20.185770 17.821135 20.948946 18.834728 21.000000 20.000000 L 21.000000 21.000000 L 10.000000 21.000000" stroke="#231F20" stroke-width="2.000000" stroke-miterlimit="10.000000" fill="none"/><path d=" M 17.000000 7.540000 C 17.146849 11.003756 14.463323 13.933271 11.000000 14.090000 C 7.536678 13.933272 4.853151 11.003756 5.000000 7.540000 C 4.858818 4.080073 7.540744 1.156773 11.000000 1.000000 C 14.459255 1.156773 17.141182 4.080073 17.000000 7.540000 Z" stroke="#231F20" stroke-width="2.000000" stroke-miterlimit="10.000000" fill="none"/><path d=" M 16.940001 6.400000 C 15.394423 7.495310 13.253562 7.130296 12.158252 5.584719 C 12.102058 5.505425 12.049260 5.423778 12.000000 5.340000 C 10.158560 7.127749 7.355300 7.478667 5.130000 6.200000" stroke="#231F20" stroke-width="2.000000" stroke-linejoin="round" fill="none"/><path d=" M 34.000000 13.190000 L 34.000000 16.000000 L 28.920000 17.450001 C 27.814230 17.821135 27.051054 18.834728 27.000000 20.000000 L 27.000000 21.000000 L 38.000000 21.000000" stroke="#231F20" stroke-width="2.000000" stroke-miterlimit="10.000000" fill="none"/><path d=" M 40.000000 13.190000 L 40.000000 16.000000 L 45.080002 17.450001 C 46.185772 17.821135 46.948948 18.834728 47.000000 20.000000 L 47.000000 21.000000 L 36.000000 21.000000" stroke="#231F20" stroke-width="2.000000" stroke-miterlimit="10.000000" fill="none"/><path d=" M 43.000000 7.540000 C 43.146851 11.003756 40.463322 13.933271 37.000000 14.090000 C 33.536678 13.933272 30.853151 11.003756 31.000000 7.540000 C 30.858818 4.080073 33.540745 1.156773 37.000000 1.000000 C 40.459255 1.156773 43.141182 4.080073 43.000000 7.540000 Z" stroke="#231F20" stroke-width="2.000000" stroke-miterlimit="10.000000" fill="none"/><path d=" M 42.910000 6.390000 C 41.389980 7.492524 39.263992 7.154078 38.161469 5.634060 C 38.104168 5.555062 38.050297 5.473633 38.000000 5.390000 C 36.158558 7.177749 33.355301 7.528666 31.129999 6.250000" stroke="#231F20" stroke-width="2.000000" stroke-linejoin="round" fill="none"/><path d=" M 21.000000 39.209999 L 21.000000 42.000000 L 15.920000 43.450001 C 14.814230 43.821136 14.051055 44.834728 14.000000 46.000000 L 14.000000 47.000000 L 25.000000 47.000000" stroke="#231F20" stroke-width="2.000000" stroke-miterlimit="10.000000" fill="none"/><path d=" M 27.000000 39.189999 L 27.000000 42.000000 L 32.080002 43.450001 C 33.185772 43.821136 33.948948 44.834728 34.000000 46.000000 L 34.000000 47.000000 L 23.000000 47.000000" stroke="#231F20" stroke-width="2.000000" stroke-miterlimit="10.000000" fill="none"/><path d=" M 30.000000 33.540001 C 30.146849 37.003757 27.463322 39.933273 24.000000 40.090000 C 20.536678 39.933273 17.853151 37.003754 18.000000 33.540001 C 17.858818 30.080074 20.540745 27.156775 24.000000 27.000000 C 27.459255 27.156773 30.141182 30.080072 30.000000 33.540001 Z" stroke="#231F20" stroke-width="2.000000" stroke-miterlimit="10.000000" fill="none"/><path d=" M 29.910000 32.340000 C 28.406050 33.445797 26.290432 33.123028 25.184635 31.619078 C 25.118521 31.529158 25.056900 31.436018 25.000000 31.340000 C 23.158560 33.127750 20.355301 33.478668 18.129999 32.200001" stroke="#231F20" stroke-width="2.000000" stroke-linejoin="round" fill="none"/><line x1="8.000000" y1="25.000000" x2="13.000000" y2="30.000000" stroke="#231F20" stroke-width="2.000000" stroke-linecap="round" stroke-miterlimit="10.000000" fill="none"/><line x1="40.000000" y1="25.000000" x2="35.000000" y2="30.000000" stroke="#231F20" stroke-width="2.000000" stroke-linecap="round" stroke-miterlimit="10.000000" fill="none"/></g></svg>