<svg version="1.1" viewBox="0.000000 0.000000 48.000000 48.000000" xmlns="http://www.w3.org/2000/svg" xmlns:xlink="http://www.w3.org/1999/xlink" overflow="hidden"><defs></defs><g id="icons"><path d=" M 10.000000 46.980000 L 15.000000 42.020000 L 10.000000 42.020000 L 15.000000 37.000000" stroke="#231F20" stroke-width="2.000000" stroke-linecap="round" stroke-linejoin="round" fill="none"/><path d=" M 20.000000 46.980000 L 25.000000 42.020000 L 20.000000 42.020000 L 25.000000 37.000000" stroke="#231F20" stroke-width="2.000000" stroke-linecap="round" stroke-linejoin="round" fill="none"/><path d=" M 30.000000 46.980000 L 35.000000 42.020000 L 30.000000 42.020000 L 35.000000 37.000000" stroke="#231F20" stroke-width="2.000000" stroke-linecap="round" stroke-linejoin="round" fill="none"/><path d=" M 40.500000 16.400000 C 41.811432 13.356842 40.407593 9.826749 37.364433 8.515317 C 36.387405 8.094272 35.315990 7.940582 34.259998 8.070000 C 32.060757 2.406912 25.687078 -0.401090 20.023991 1.798152 C 16.125944 3.311946 13.423338 6.905033 13.049999 11.070000 C 7.564569 11.711798 3.638031 16.678898 4.279829 22.164328 C 4.860000 27.123026 9.008599 30.894119 13.999999 31.000000 L 36.000000 31.000000 C 40.418262 30.988390 43.990562 27.397268 43.978951 22.979006 C 43.972034 20.347267 42.671200 17.887272 40.500000 16.400000 Z" stroke="#231F20" stroke-width="2.000000" stroke-linecap="round" stroke-linejoin="round" fill="none"/></g></svg>