<svg version="1.1" viewBox="0.000000 0.000000 48.000000 48.000000" xmlns="http://www.w3.org/2000/svg" xmlns:xlink="http://www.w3.org/1999/xlink" overflow="hidden"><defs></defs><g id="icons"><path d=" M 14.000000 23.000000 L 14.000000 11.000000 C 14.000000 5.477152 18.477152 1.000000 24.000000 1.000000 C 29.522848 1.000000 34.000000 5.477152 34.000000 11.000000 L 34.000000 23.000000" stroke="#231F20" stroke-width="2.000000" stroke-linecap="round" stroke-linejoin="round" fill="none"/><path d=" M 47.000000 28.000000 C 47.000000 23.029438 42.970562 19.000000 38.000000 19.000000 L 10.000000 19.000000 C 5.029437 19.000000 1.000000 23.029438 1.000000 28.000000 L 1.000000 41.000000 C 1.000000 44.313709 3.686291 47.000000 7.000000 47.000000 L 41.000000 47.000000 C 44.313709 47.000000 47.000000 44.313709 47.000000 41.000000 Z" stroke="#231F20" stroke-width="2.000000" stroke-linecap="round" stroke-linejoin="round" fill="none"/><path d=" M 11.000000 47.000000 C 11.000000 41.477154 6.522848 37.000000 1.000000 37.000000" stroke="#231F20" stroke-width="2.000000" stroke-linecap="round" stroke-linejoin="round" fill="none"/><path d=" M 37.000000 47.000000 C 37.000000 41.477154 41.477154 37.000000 47.000000 37.000000" stroke="#231F20" stroke-width="2.000000" stroke-linecap="round" stroke-linejoin="round" fill="none"/><line x1="43.000000" y1="29.000000" x2="5.000000" y2="29.000000" stroke="#231F20" stroke-width="2.000000" stroke-linecap="round" stroke-linejoin="round" fill="none"/><line x1="9.000000" y1="32.000000" x2="9.000000" y2="34.000000" stroke="#231F20" stroke-width="2.000000" stroke-linecap="round" stroke-linejoin="round" fill="none"/></g></svg>