<svg version="1.1" viewBox="0.000000 0.000000 48.000000 48.000000" xmlns="http://www.w3.org/2000/svg" xmlns:xlink="http://www.w3.org/1999/xlink" overflow="hidden"><defs></defs><g id="icons"><path d=" M 34.000000 5.790000 C 30.110210 5.803673 26.427294 4.039557 24.000000 1.000000 L 24.000000 1.000000 C 21.572706 4.039557 17.889790 5.803673 14.000000 5.790000 C 10.510000 5.790000 7.320000 4.360000 4.000000 2.000000 L 4.000000 31.670000 C 4.000000 31.670000 6.900000 42.209999 24.000000 47.000000 C 41.099998 42.209999 44.000000 31.670000 44.000000 31.670000 L 44.000000 2.000000 C 40.680000 4.360000 37.490002 5.790000 34.000000 5.790000 Z" stroke="#231F20" stroke-width="2.000000" stroke-linecap="round" stroke-linejoin="round" fill="none"/><line x1="4.000000" y1="23.000000" x2="44.000000" y2="23.000000" stroke="#231F20" stroke-width="2.000000" stroke-linecap="round" stroke-linejoin="round" fill="none"/><line x1="24.000000" y1="1.000000" x2="24.000000" y2="47.000000" stroke="#231F20" stroke-width="2.000000" stroke-linecap="round" stroke-linejoin="round" fill="none"/><line x1="9.000000" y1="4.810000" x2="9.000000" y2="23.000000" stroke="#231F20" stroke-width="2.000000" stroke-linejoin="round" fill="none"/><line x1="14.000000" y1="5.790000" x2="14.000000" y2="23.000000" stroke="#231F20" stroke-width="2.000000" stroke-linejoin="round" fill="none"/><line x1="19.000000" y1="4.770000" x2="19.000000" y2="23.000000" stroke="#231F20" stroke-width="2.000000" stroke-linejoin="round" fill="none"/><line x1="29.000000" y1="23.150000" x2="29.000000" y2="45.270000" stroke="#231F20" stroke-width="2.000000" stroke-linejoin="round" fill="none"/><line x1="34.000000" y1="23.000000" x2="34.000000" y2="42.750000" stroke="#231F20" stroke-width="2.000000" stroke-linejoin="round" fill="none"/><line x1="39.000000" y1="23.000000" x2="39.000000" y2="38.980000" stroke="#231F20" stroke-width="2.000000" stroke-linejoin="round" fill="none"/></g></svg>