<svg version="1.1" viewBox="0.000000 0.000000 48.000000 48.000000" xmlns="http://www.w3.org/2000/svg" xmlns:xlink="http://www.w3.org/1999/xlink" overflow="hidden"><defs></defs><g id="icons"><ellipse cx="20.000000" cy="9.000000" rx="19.000000" ry="8.000000" stroke="#231F20" stroke-width="2.000000" stroke-linecap="round" stroke-miterlimit="10.000000" fill="none"/><path d=" M 23.000000 24.900000 C 22.000000 24.969999 21.000000 25.000000 20.000000 25.000000 C 9.510000 25.000000 1.000000 21.420000 1.000000 17.000000" stroke="#231F20" stroke-width="2.000000" stroke-linecap="round" stroke-miterlimit="10.000000" fill="none"/><path d=" M 20.000000 34.000000 C 9.510000 34.000000 1.000000 30.420000 1.000000 26.000000" stroke="#231F20" stroke-width="2.000000" stroke-linecap="round" stroke-miterlimit="10.000000" fill="none"/><path d=" M 20.000000 43.000000 C 9.510000 43.000000 1.000000 39.419998 1.000000 35.000000 L 1.000000 9.000000" stroke="#231F20" stroke-width="2.000000" stroke-linecap="round" stroke-miterlimit="10.000000" fill="none"/><line x1="39.000000" y1="9.000000" x2="39.000000" y2="20.000000" stroke="#231F20" stroke-width="2.000000" stroke-linecap="round" stroke-miterlimit="10.000000" fill="none"/><path d=" M 47.000000 30.000000 L 47.000000 35.000000 L 42.000000 35.000000" stroke="#231F20" stroke-width="2.000000" stroke-linecap="round" stroke-miterlimit="10.000000" fill="none"/><path d=" M 29.000000 45.000000 L 29.000000 41.000000 L 33.000000 41.000000" stroke="#231F20" stroke-width="2.000000" stroke-linecap="round" stroke-miterlimit="10.000000" fill="none"/><path d=" M 29.510000 35.000000 C 31.143681 30.305580 36.273621 27.824360 40.968040 29.458040 C 43.564957 30.361778 45.606262 32.403084 46.510002 35.000000" stroke="#231F20" stroke-width="2.000000" stroke-linecap="round" stroke-miterlimit="10.000000" fill="none"/><path d=" M 46.490002 41.000000 C 44.856323 45.694420 39.726383 48.175640 35.031963 46.541962 C 32.435047 45.638222 30.393742 43.596916 29.490004 41.000000" stroke="#231F20" stroke-width="2.000000" stroke-linecap="round" stroke-miterlimit="10.000000" fill="none"/></g></svg>