<svg version="1.1" viewBox="0.000000 0.000000 48.000000 48.000000" xmlns="http://www.w3.org/2000/svg" xmlns:xlink="http://www.w3.org/1999/xlink" overflow="hidden"><defs></defs><g id="icons"><line x1="11.000000" y1="46.500000" x2="37.000000" y2="46.500000" stroke="#231F20" stroke-width="2.000000" stroke-linecap="round" stroke-linejoin="round" fill="none"/><line x1="24.000000" y1="38.500000" x2="24.000000" y2="46.500000" stroke="#231F20" stroke-width="2.000000" stroke-linecap="round" stroke-linejoin="round" fill="none"/><path d=" M 3.000000 45.500000 C 2.447715 45.500000 2.000000 45.947716 2.000000 46.500000 C 2.000000 47.052284 2.447715 47.500000 3.000000 47.500000 C 3.552285 47.500000 4.000000 47.052284 4.000000 46.500000 C 4.000000 45.947716 3.552285 45.500000 3.000000 45.500000 Z" fill="#231F20"/><path d=" M 7.000000 45.500000 C 6.447715 45.500000 6.000000 45.947716 6.000000 46.500000 C 6.000000 47.052284 6.447715 47.500000 7.000000 47.500000 C 7.552285 47.500000 8.000000 47.052284 8.000000 46.500000 C 8.000000 45.947716 7.552285 45.500000 7.000000 45.500000 Z" fill="#231F20"/><path d=" M 41.000000 45.500000 C 40.447716 45.500000 40.000000 45.947716 40.000000 46.500000 C 40.000000 47.052284 40.447716 47.500000 41.000000 47.500000 C 41.552284 47.500000 42.000000 47.052284 42.000000 46.500000 C 42.000000 45.947716 41.552284 45.500000 41.000000 45.500000 Z" fill="#231F20"/><path d=" M 45.000000 45.500000 C 44.447716 45.500000 44.000000 45.947716 44.000000 46.500000 C 44.000000 47.052284 44.447716 47.500000 45.000000 47.500000 C 45.552284 47.500000 46.000000 47.052284 46.000000 46.500000 C 46.000000 45.947716 45.552284 45.500000 45.000000 45.500000 Z" fill="#231F20"/><path d=" M 6.000000 38.500000 L 41.000000 38.500000 C 44.313709 38.500000 47.000000 35.813709 47.000000 32.500000 L 47.000000 8.500000 L 11.000000 8.500000 L 11.000000 33.500000 C 11.000000 36.261425 8.761424 38.500000 6.000000 38.500000 C 3.238576 38.500000 1.000000 36.261425 1.000000 33.500000 L 1.000000 0.500000 L 15.000000 0.500000 L 15.000000 4.500000 L 41.000000 4.500000 L 41.000000 8.500000" stroke="#231F20" stroke-width="2.000000" stroke-linecap="round" stroke-linejoin="round" fill="none"/></g></svg>