<svg version="1.1" viewBox="0.000000 0.000000 48.000000 48.000000" xmlns="http://www.w3.org/2000/svg" xmlns:xlink="http://www.w3.org/1999/xlink" overflow="hidden"><defs></defs><g id="icons"><path d=" M 1.000000 41.000000 L 13.000000 41.000000 C 16.313709 41.000000 19.000000 38.313709 19.000000 35.000000 L 19.000000 29.000000" stroke="#231F20" stroke-width="2.000000" stroke-linecap="round" stroke-linejoin="round" fill="none"/><line x1="1.000000" y1="37.000000" x2="1.000000" y2="45.000000" stroke="#231F20" stroke-width="2.000000" stroke-linecap="round" stroke-linejoin="round" fill="none"/><path d=" M 43.000000 10.460000 L 43.000000 20.000000 L 39.000000 20.000000" stroke="#231F20" stroke-width="2.000000" stroke-linecap="round" stroke-linejoin="round" fill="none"/><path d=" M 37.000000 3.000000 L 9.000000 3.000000 C 4.581722 3.000000 1.000000 6.581722 1.000000 11.000000 L 1.000000 17.000000 C 1.000000 21.418278 4.581722 25.000000 9.000000 25.000000 L 36.000000 25.000000 C 37.660000 25.000000 39.000000 23.660000 39.000000 21.000000 L 39.000000 13.000000 L 47.000000 8.000000 L 47.000000 3.000000 Z" stroke="#231F20" stroke-width="2.000000" stroke-linecap="round" stroke-linejoin="round" fill="none"/><circle cx="20.000000" cy="17.000000" r="3.000000" stroke="#231F20" stroke-width="2.000000" stroke-linecap="round" stroke-linejoin="round" fill="none"/><line x1="1.000000" y1="17.000000" x2="11.000000" y2="17.000000" stroke="#231F20" stroke-width="2.000000" stroke-linecap="round" stroke-linejoin="round" fill="none"/><line x1="1.000000" y1="11.000000" x2="9.000000" y2="11.000000" stroke="#231F20" stroke-width="2.000000" stroke-linecap="round" stroke-linejoin="round" fill="none"/></g></svg>