<svg version="1.1" viewBox="0.000000 0.000000 48.000000 48.000000" xmlns="http://www.w3.org/2000/svg" xmlns:xlink="http://www.w3.org/1999/xlink" overflow="hidden"><defs></defs><g id="icons"><path d=" M 10.000000 42.500000 L 10.000000 24.500000 C 10.000000 20.634007 13.134007 17.500000 17.000000 17.500000 C 20.865993 17.500000 24.000000 20.634007 24.000000 24.500000 L 24.000000 42.500000" stroke="#231F20" stroke-width="2.000000" stroke-linecap="round" stroke-linejoin="round" fill="none"/><path d=" M 20.000000 24.500000 C 20.000000 22.843145 18.656855 21.500000 17.000000 21.500000 C 15.343145 21.500000 14.000000 22.843145 14.000000 24.500000 L 14.000000 27.500000 L 20.000000 27.500000 Z" stroke="#231F20" stroke-width="2.000000" stroke-linecap="round" stroke-linejoin="round" fill="none"/><path d=" M 24.000000 42.500000 L 24.000000 22.500000 C 24.000000 18.634007 27.134007 15.500000 31.000000 15.500000 C 34.865993 15.500000 38.000000 18.634007 38.000000 22.500000 L 38.000000 42.500000" stroke="#231F20" stroke-width="2.000000" stroke-linecap="round" stroke-linejoin="round" fill="none"/><path d=" M 34.000000 22.500000 C 34.000000 20.843145 32.656853 19.500000 31.000000 19.500000 C 29.343145 19.500000 28.000000 20.843145 28.000000 22.500000 L 28.000000 25.500000 L 34.000000 25.500000 Z" stroke="#231F20" stroke-width="2.000000" stroke-linecap="round" stroke-linejoin="round" fill="none"/><path d=" M 6.000000 21.540001 C 6.827931 15.794838 12.156477 11.808634 17.901640 12.636565 C 18.940601 12.786289 19.951271 13.090814 20.900000 13.540001" stroke="#231F20" stroke-width="2.000000" stroke-linecap="round" stroke-linejoin="round" fill="none"/><path d=" M 24.920000 12.260000 C 30.011806 8.946281 36.825832 10.387707 40.139553 15.479513 C 41.305294 17.270769 41.923977 19.362822 41.920002 21.500000" stroke="#231F20" stroke-width="2.000000" stroke-linecap="round" stroke-linejoin="round" fill="none"/><path d=" M 25.000000 6.660000 C 33.191708 3.346290 42.518688 7.300688 45.832397 15.492394 C 46.604527 17.401148 47.000977 19.440990 47.000000 21.500000 C 46.997196 22.506392 46.903484 23.510471 46.720001 24.500000" stroke="#231F20" stroke-width="2.000000" stroke-linecap="round" stroke-linejoin="round" fill="none"/><path d=" M 1.120000 25.500000 C 1.039572 24.836376 0.999498 24.168480 1.000000 23.500000 C 0.995545 14.663445 8.155375 7.496390 16.991930 7.491935 C 18.344053 7.491253 19.690811 7.661969 21.000000 8.000000" stroke="#231F20" stroke-width="2.000000" stroke-linecap="round" stroke-linejoin="round" fill="none"/></g></svg>