<svg version="1.1" viewBox="0.000000 0.000000 48.000000 48.000000" xmlns="http://www.w3.org/2000/svg" xmlns:xlink="http://www.w3.org/1999/xlink" overflow="hidden"><defs></defs><g id="icons"><path d=" M 32.599998 32.090000 L 37.389999 32.090000 C 37.389999 32.090000 46.000000 31.000000 46.000000 22.520000 C 45.987183 17.245697 41.701122 12.980421 36.426819 12.993239 C 36.314514 12.993512 36.202225 12.995767 36.090000 13.000000 C 32.940609 6.321267 24.973339 3.460170 18.294605 6.609561 C 13.868604 8.696666 10.936387 13.034973 10.650001 17.920000 C 6.768600 17.108112 2.963938 19.596443 2.152049 23.477842 C 2.052826 23.952198 2.001884 24.435381 2.000000 24.920000 C 2.000000 32.209999 9.650000 32.099998 9.650000 32.099998 L 15.380000 32.099998" stroke="#231F20" stroke-width="2.000000" stroke-linecap="round" stroke-miterlimit="10.000000" fill="none"/><line x1="24.000000" y1="20.700000" x2="24.000000" y2="42.700000" stroke="#231F20" stroke-width="2.000000" stroke-linecap="round" stroke-linejoin="round" fill="none"/><path d=" M 30.000000 26.700001 L 24.000000 20.700001 L 18.000000 26.700001" stroke="#231F20" stroke-width="2.000000" stroke-linecap="round" stroke-linejoin="round" fill="none"/></g></svg>