<svg version="1.1" viewBox="0.000000 0.000000 48.000000 48.000000" xmlns="http://www.w3.org/2000/svg" xmlns:xlink="http://www.w3.org/1999/xlink" overflow="hidden"><defs></defs><g id="icons"><line x1="25.000000" y1="29.000000" x2="25.000000" y2="23.340000" stroke="#231F20" stroke-width="2.000000" stroke-miterlimit="10.000000" fill="none"/><path d=" M 15.000000 23.379999 L 15.000000 29.000000 L 5.000000 32.580002 C 2.605091 33.426727 1.002902 35.689819 1.000000 38.230003 L 1.000000 43.000000 L 23.000000 43.000000" stroke="#231F20" stroke-width="2.000000" stroke-miterlimit="10.000000" fill="none"/><ellipse cx="19.980000" cy="13.000000" rx="10.000000" ry="12.000000" stroke="#231F20" stroke-width="2.000000" stroke-miterlimit="10.000000" fill="none"/><path d=" M 29.910000 11.940000 C 29.570000 11.940000 29.320000 11.940000 28.980000 12.000000 C 25.570000 12.660000 23.379999 11.420000 21.510000 8.140000 C 20.379999 10.300000 16.870001 12.000000 14.000000 12.000000 C 12.652252 12.020976 11.321054 11.701076 10.130000 11.070000" stroke="#231F20" stroke-width="2.000000" stroke-miterlimit="10.000000" fill="none"/><line x1="40.540000" y1="33.460000" x2="33.460000" y2="40.540000" stroke="#231F20" stroke-width="2.000000" stroke-linecap="round" stroke-linejoin="round" fill="none"/><line x1="40.540000" y1="40.540000" x2="33.460000" y2="33.460000" stroke="#231F20" stroke-width="2.000000" stroke-linecap="round" stroke-linejoin="round" fill="none"/><circle cx="37.000000" cy="37.000000" r="10.000000" stroke="#231F20" stroke-width="2.000000" stroke-miterlimit="10.000000" fill="none"/></g></svg>