<svg version="1.1" viewBox="0.000000 0.000000 48.000000 48.000000" xmlns="http://www.w3.org/2000/svg" xmlns:xlink="http://www.w3.org/1999/xlink" overflow="hidden"><defs></defs><g id="icons"><path d=" M 37.000000 14.000000 C 37.000000 16.209139 35.209141 18.000000 33.000000 18.000000 L 17.000000 18.000000 C 14.790861 18.000000 13.000000 16.209139 13.000000 14.000000 L 13.000000 4.000000 L 37.000000 4.000000 Z" stroke="#231F20" stroke-width="2.000000" stroke-miterlimit="10.000000" fill="none"/><rect x="17.000000" y="24.000000" width="16.000000" height="20.000000" stroke="#231F20" stroke-width="2.000000" stroke-miterlimit="10.000000" fill="none"/><circle cx="9.000000" cy="34.000000" r="4.000000" stroke="#231F20" stroke-width="2.000000" stroke-miterlimit="10.000000" fill="none"/><path d=" M 21.000000 37.000000 L 23.000000 31.000000 L 27.000000 31.000000 L 29.000000 37.000000" stroke="#231F20" stroke-width="2.000000" stroke-linecap="round" stroke-linejoin="round" fill="none"/><line x1="17.000000" y1="7.000000" x2="17.000000" y2="15.000000" stroke="#231F20" stroke-width="2.000000" stroke-miterlimit="10.000000" fill="none"/><line x1="21.000000" y1="7.000000" x2="21.000000" y2="15.000000" stroke="#231F20" stroke-width="2.000000" stroke-miterlimit="10.000000" fill="none"/><line x1="25.000000" y1="7.000000" x2="25.000000" y2="15.000000" stroke="#231F20" stroke-width="2.000000" stroke-miterlimit="10.000000" fill="none"/><line x1="29.000000" y1="7.000000" x2="29.000000" y2="15.000000" stroke="#231F20" stroke-width="2.000000" stroke-miterlimit="10.000000" fill="none"/><line x1="33.000000" y1="7.000000" x2="33.000000" y2="15.000000" stroke="#231F20" stroke-width="2.000000" stroke-miterlimit="10.000000" fill="none"/><line x1="19.000000" y1="18.000000" x2="19.000000" y2="24.000000" stroke="#231F20" stroke-width="2.000000" stroke-miterlimit="10.000000" fill="none"/><line x1="31.000000" y1="18.000000" x2="31.000000" y2="24.000000" stroke="#231F20" stroke-width="2.000000" stroke-miterlimit="10.000000" fill="none"/><rect x="37.000000" y="32.000000" width="6.000000" height="4.000000" stroke="#231F20" stroke-width="2.000000" stroke-miterlimit="10.000000" fill="none"/><path d=" M 33.000000 26.000000 L 41.000000 26.000000 C 44.313709 26.000000 47.000000 28.686291 47.000000 32.000000 L 47.000000 36.000000 C 47.000000 39.313709 44.313709 42.000000 41.000000 42.000000 L 33.000000 42.000000" stroke="#231F20" stroke-width="2.000000" stroke-miterlimit="10.000000" fill="none"/><path d=" M 17.000000 42.000000 L 7.000000 42.000000 C 3.686291 42.000000 1.000000 39.313709 1.000000 36.000000 L 1.000000 32.000000 C 1.000000 28.686291 3.686291 26.000000 7.000000 26.000000 L 17.000000 26.000000" stroke="#231F20" stroke-width="2.000000" stroke-miterlimit="10.000000" fill="none"/></g></svg>