<svg version="1.1" viewBox="0.000000 0.000000 48.000000 48.000000" xmlns="http://www.w3.org/2000/svg" xmlns:xlink="http://www.w3.org/1999/xlink" overflow="hidden"><defs></defs><g id="icons"><path d=" M 37.000000 39.000000 L 37.000000 30.000000 C 37.000000 24.751888 33.844410 20.018505 29.000000 18.000000 C 29.000000 15.238576 26.761423 13.000000 24.000000 13.000000 C 21.238577 13.000000 19.000000 15.238576 19.000000 18.000000 C 14.155590 20.018505 11.000000 24.751888 11.000000 30.000000 L 11.000000 39.000000 C 11.000000 41.209141 9.209139 43.000000 7.000000 43.000000 L 41.000000 43.000000 C 38.790859 43.000000 37.000000 41.209141 37.000000 39.000000 Z" stroke="#231F20" stroke-width="2.000000" stroke-linecap="round" stroke-linejoin="round" fill="none"/><path d=" M 28.000000 43.000000 C 28.000000 45.209141 26.209139 47.000000 24.000000 47.000000 C 21.790861 47.000000 20.000000 45.209141 20.000000 43.000000" stroke="#231F20" stroke-width="2.000000" stroke-linecap="round" stroke-linejoin="round" fill="none"/><path d=" M 7.000000 18.000000 C 7.000000 11.924868 11.924868 7.000000 18.000000 7.000000" stroke="#231F20" stroke-width="2.000000" stroke-linecap="round" stroke-linejoin="round" fill="none"/><path d=" M 1.000000 18.000000 C 1.000000 8.611159 8.611159 1.000000 18.000000 1.000000" stroke="#231F20" stroke-width="2.000000" stroke-linecap="round" stroke-linejoin="round" fill="none"/><path d=" M 41.000000 18.000000 C 41.000000 11.924868 36.075130 7.000000 30.000000 7.000000" stroke="#231F20" stroke-width="2.000000" stroke-linecap="round" stroke-linejoin="round" fill="none"/><path d=" M 47.000000 18.000000 C 47.000000 8.611159 39.388840 1.000000 30.000000 1.000000" stroke="#231F20" stroke-width="2.000000" stroke-linecap="round" stroke-linejoin="round" fill="none"/></g></svg>