<svg version="1.1" viewBox="0.000000 0.000000 48.000000 48.000000" xmlns="http://www.w3.org/2000/svg" xmlns:xlink="http://www.w3.org/1999/xlink" overflow="hidden"><defs></defs><g id="icons"><path d=" M 42.000000 4.910000 C 44.841091 5.533828 46.898727 8.002991 47.000000 10.910000 L 47.000000 13.910000 C 47.000000 16.119139 45.209141 17.910000 43.000000 17.910000 L 37.000000 17.910000 C 34.790859 17.910000 33.000000 16.119139 33.000000 13.910000 L 33.000000 11.910000 C 27.014503 11.320022 20.985497 11.320022 15.000000 11.910000 L 15.000000 13.910000 C 15.000000 16.119139 13.209139 17.910000 11.000000 17.910000 L 5.000000 17.910000 C 2.790861 17.910000 1.000000 16.119139 1.000000 13.910000 L 1.000000 10.910000 C 1.101274 8.002991 3.158909 5.533828 6.000000 4.910000 C 17.877539 2.485507 30.122461 2.485507 42.000000 4.910000 Z" stroke="#231F20" stroke-width="2.000000" stroke-linecap="round" stroke-linejoin="round" fill="none"/><rect x="11.000000" y="24.910000" width="6.000000" height="4.000000" stroke="#231F20" stroke-width="2.000000" stroke-linejoin="round" fill="none"/><rect x="21.000000" y="24.910000" width="6.000000" height="4.000000" stroke="#231F20" stroke-width="2.000000" stroke-linejoin="round" fill="none"/><rect x="31.000000" y="24.910000" width="6.000000" height="4.000000" stroke="#231F20" stroke-width="2.000000" stroke-linejoin="round" fill="none"/><rect x="11.000000" y="32.910000" width="6.000000" height="4.000000" stroke="#231F20" stroke-width="2.000000" stroke-linejoin="round" fill="none"/><rect x="21.000000" y="32.910000" width="6.000000" height="4.000000" stroke="#231F20" stroke-width="2.000000" stroke-linejoin="round" fill="none"/><rect x="31.000000" y="32.910000" width="6.000000" height="4.000000" stroke="#231F20" stroke-width="2.000000" stroke-linejoin="round" fill="none"/><rect x="11.000000" y="40.910000" width="6.000000" height="4.000000" stroke="#231F20" stroke-width="2.000000" stroke-linejoin="round" fill="none"/><rect x="21.000000" y="40.910000" width="6.000000" height="4.000000" stroke="#231F20" stroke-width="2.000000" stroke-linejoin="round" fill="none"/><rect x="31.000000" y="40.910000" width="6.000000" height="4.000000" stroke="#231F20" stroke-width="2.000000" stroke-linejoin="round" fill="none"/></g></svg>