<svg version="1.1" viewBox="0.000000 0.000000 48.000000 48.000000" xmlns="http://www.w3.org/2000/svg" xmlns:xlink="http://www.w3.org/1999/xlink" overflow="hidden"><defs></defs><g id="icons"><path d=" M 42.619999 19.490000 L 34.840000 27.270000 C 30.559999 31.549999 23.240000 31.270000 18.580000 26.559999 C 13.920000 21.850000 13.580000 14.560000 17.870001 10.300000 L 25.650000 2.520000" stroke="#231F20" stroke-width="2.000000" stroke-linecap="round" stroke-linejoin="round" fill="none"/><line x1="25.650000" y1="2.520000" x2="42.620000" y2="19.490000" stroke="#231F20" stroke-width="2.000000" stroke-linecap="round" stroke-linejoin="round" fill="none"/><line x1="29.890000" y1="6.760000" x2="35.550000" y2="1.100000" stroke="#231F20" stroke-width="2.000000" stroke-linecap="round" stroke-linejoin="round" fill="none"/><line x1="38.370000" y1="15.250000" x2="44.030000" y2="9.590000" stroke="#231F20" stroke-width="2.000000" stroke-linecap="round" stroke-linejoin="round" fill="none"/><line x1="25.650000" y1="8.170000" x2="36.960000" y2="19.490000" stroke="#231F20" stroke-width="2.000000" stroke-linecap="round" stroke-linejoin="round" fill="none"/><path d=" M 27.059999 22.320000 C 25.889156 23.492302 23.989662 23.493483 22.817360 22.322639 C 21.645058 21.151796 21.643877 19.252302 22.814720 18.080000 C 23.985563 16.907698 25.885057 16.906517 27.057360 18.077360 C 27.058241 18.078239 27.059120 18.079119 27.059999 18.080000 C 28.229813 19.251270 28.229813 21.148729 27.059999 22.320000 Z" stroke="#231F20" stroke-width="2.000000" stroke-linecap="round" stroke-linejoin="round" fill="none"/><path d=" M 20.940001 28.440001 L 16.450001 32.919998 L 12.210000 28.680000 L 16.709999 24.180000" stroke="#231F20" stroke-width="2.000000" stroke-linecap="round" stroke-linejoin="round" fill="none"/><path d=" M 14.330000 30.799999 L 5.140000 40.000000 C 3.539791 41.523033 3.477227 44.054920 5.000259 45.655128 C 6.523291 47.255337 9.055178 47.317902 10.655387 45.794868 C 10.704819 45.747822 10.753039 45.699516 10.800000 45.649998 L 17.160000 39.290001 C 18.289515 38.077827 20.187826 38.010818 21.400000 39.140335 C 22.612173 40.269848 22.679180 42.168163 21.549665 43.380337 C 21.501553 43.431969 21.451633 43.481892 21.400000 43.530003 L 18.000000 46.889999" stroke="#231F20" stroke-width="2.000000" stroke-linecap="round" stroke-linejoin="round" fill="none"/></g></svg>