<svg version="1.1" viewBox="0.000000 0.000000 48.000000 48.000000" xmlns="http://www.w3.org/2000/svg" xmlns:xlink="http://www.w3.org/1999/xlink" overflow="hidden"><defs></defs><g id="icons"><path d=" M 37.000000 37.000000 L 33.000000 37.000000 L 33.000000 15.000000 L 11.000000 15.000000 L 11.000000 11.000000 L 5.000000 11.000000 L 5.000000 15.000000 L 1.000000 15.000000 L 1.000000 21.000000 L 5.000000 21.000000 L 5.000000 43.000000 L 27.000000 43.000000 L 27.000000 47.000000 L 33.000000 47.000000 L 33.000000 43.000000 L 37.000000 43.000000 Z M 11.000000 37.000000 L 11.000000 21.000000 L 27.000000 21.000000 L 27.000000 37.000000 Z" stroke="#202020" stroke-width="2.000000" stroke-linecap="round" stroke-linejoin="round" fill="none"/><line x1="11.030000" y1="37.020000" x2="27.010000" y2="21.010000" stroke="#202020" stroke-width="2.000000" stroke-linecap="round" stroke-linejoin="round" fill="none"/><line x1="33.010000" y1="15.000000" x2="46.990000" y2="0.990000" stroke="#202020" stroke-width="2.000000" stroke-linecap="round" stroke-linejoin="round" fill="none"/><line x1="4.010000" y1="15.030000" x2="14.010000" y2="15.020000" stroke="#202020" stroke-width="2.000000" stroke-linecap="round" stroke-linejoin="round" fill="none"/><line x1="5.010000" y1="21.030000" x2="11.010000" y2="21.020000" stroke="#202020" stroke-width="2.000000" stroke-linecap="round" stroke-linejoin="round" fill="none"/><line x1="27.030000" y1="37.010000" x2="33.030000" y2="37.000000" stroke="#202020" stroke-width="2.000000" stroke-linecap="round" stroke-linejoin="round" fill="none"/><line x1="27.030000" y1="43.010000" x2="33.030000" y2="43.000000" stroke="#202020" stroke-width="2.000000" stroke-linecap="round" stroke-linejoin="round" fill="none"/></g></svg>