<svg version="1.1" viewBox="0.000000 0.000000 48.000000 48.000000" xmlns="http://www.w3.org/2000/svg" xmlns:xlink="http://www.w3.org/1999/xlink" overflow="hidden"><defs></defs><g id="icons"><path d=" M 5.000000 13.000000 L 5.060000 11.000000 C 5.059513 9.918444 5.918931 9.032447 7.000000 9.000000 L 8.890000 9.000000 C 10.007732 9.013281 10.926951 9.884578 11.000000 11.000000 L 11.000000 13.000000" stroke="#231F20" stroke-width="2.000000" stroke-miterlimit="10.000000" fill="none"/><path d=" M 39.000000 13.000000 L 37.000000 9.000000 C 36.389290 7.880969 35.267841 7.133336 34.000000 7.000000 L 24.000000 7.000000 C 22.732161 7.133336 21.610710 7.880969 21.000000 9.000000 L 18.000000 13.000000 L 5.000000 13.000000 C 2.000000 13.000000 1.000000 14.360000 1.000000 16.440001 L 1.000000 37.220001 C 1.000000 39.310001 2.000000 41.000000 5.110000 41.000000 L 42.889999 41.000000 C 46.000000 41.000000 47.000000 39.310001 47.000000 37.220001 L 47.000000 16.440001 C 47.000000 14.360000 46.000000 13.000000 42.889999 13.000000 Z" stroke="#231F20" stroke-width="2.000000" stroke-miterlimit="10.000000" fill="none"/><circle cx="29.000000" cy="26.000000" r="11.000000" stroke="#231F20" stroke-width="2.000000" stroke-miterlimit="10.000000" fill="none"/><circle cx="29.000000" cy="26.000000" r="6.000000" stroke="#231F20" stroke-width="2.000000" stroke-miterlimit="10.000000" fill="none"/><circle cx="8.000000" cy="20.000000" r="3.000000" stroke="#231F20" stroke-width="2.000000" stroke-miterlimit="10.000000" fill="none"/></g></svg>