<svg version="1.1" viewBox="0.000000 0.000000 48.000000 48.000000" xmlns="http://www.w3.org/2000/svg" xmlns:xlink="http://www.w3.org/1999/xlink" overflow="hidden"><defs></defs><g id="icons"><line x1="24.000000" y1="34.000000" x2="24.000000" y2="47.000000" stroke="#231F20" stroke-width="2.000000" stroke-linecap="round" stroke-miterlimit="10.000000" fill="none"/><line x1="12.000000" y1="47.000000" x2="24.000000" y2="35.000000" stroke="#231F20" stroke-width="2.000000" stroke-linecap="round" stroke-miterlimit="10.000000" fill="none"/><line x1="36.000000" y1="47.000000" x2="24.000000" y2="35.000000" stroke="#231F20" stroke-width="2.000000" stroke-linecap="round" stroke-miterlimit="10.000000" fill="none"/><path d=" M 26.000000 22.000000 L 26.000000 33.000000 C 26.000000 33.552284 25.552284 34.000000 25.000000 34.000000 L 23.000000 34.000000 C 22.447716 34.000000 22.000000 33.552284 22.000000 33.000000 L 22.000000 22.000000" stroke="#231F20" stroke-width="2.000000" stroke-linecap="round" stroke-linejoin="round" fill="none"/><line x1="18.000000" y1="22.000000" x2="30.000000" y2="22.000000" stroke="#231F20" stroke-width="2.000000" stroke-linecap="round" stroke-linejoin="round" fill="none"/><path d=" M 36.000000 16.000000 C 36.000000 17.104570 35.104568 18.000000 34.000000 18.000000 L 14.000000 18.000000 C 12.895431 18.000000 12.000000 17.104570 12.000000 16.000000 L 12.000000 5.000000 C 12.000000 3.895431 12.895431 3.000000 14.000000 3.000000 L 22.000000 3.000000 L 22.450001 2.110000 C 22.787731 1.430342 23.481056 1.000403 24.240002 1.000000 L 28.760000 1.000000 C 29.518944 1.000403 30.212271 1.430342 30.550001 2.110000 L 31.000000 3.000000 L 34.000000 3.000000 C 35.104568 3.000000 36.000000 3.895431 36.000000 5.000000 Z" stroke="#231F20" stroke-width="2.000000" stroke-linejoin="round" fill="none"/><circle cx="26.000000" cy="10.000000" r="4.000000" stroke="#231F20" stroke-width="2.000000" stroke-linejoin="round" fill="none"/><rect x="15.000000" y="1.000000" width="1.000000" height="1.000000" stroke="#231F20" stroke-width="2.000000" stroke-miterlimit="10.000000" fill="none"/></g></svg>