<svg version="1.1" viewBox="0.000000 0.000000 48.000000 48.000000" xmlns="http://www.w3.org/2000/svg" xmlns:xlink="http://www.w3.org/1999/xlink" overflow="hidden"><defs></defs><g id="icons"><path d=" M 37.000000 9.000000 L 37.000000 5.000000 L 11.000000 5.000000 L 11.000000 1.000000 L 1.000000 1.000000 L 1.000000 32.000000 C 1.000000 33.656853 2.343146 35.000000 4.000000 35.000000 C 5.656854 35.000000 7.000000 33.656853 7.000000 32.000000 L 7.000000 9.000000 L 41.000000 9.000000 L 41.000000 19.000000" stroke="#231F20" stroke-width="2.000000" stroke-linecap="round" stroke-linejoin="round" fill="none"/><line x1="4.000000" y1="35.000000" x2="19.000000" y2="35.000000" stroke="#231F20" stroke-width="2.000000" stroke-linecap="round" stroke-linejoin="round" fill="none"/><path d=" M 42.220001 34.610001 C 42.220001 38.812889 38.812889 42.220001 34.610001 42.220001 C 30.407114 42.220001 27.000000 38.812889 27.000000 34.610001 C 27.000000 30.407114 30.407112 27.000000 34.610001 27.000000 C 38.812889 27.000000 42.220001 30.407112 42.220001 34.610001 Z" stroke="#231F20" stroke-width="2.000000" stroke-miterlimit="10.000000" fill="none"/><line x1="40.000000" y1="40.000000" x2="47.000000" y2="47.000000" stroke="#231F20" stroke-width="2.000000" stroke-linecap="round" stroke-miterlimit="10.000000" fill="none"/></g></svg>