<svg version="1.1" viewBox="0.000000 0.000000 48.000000 48.000000" xmlns="http://www.w3.org/2000/svg" xmlns:xlink="http://www.w3.org/1999/xlink" overflow="hidden"><defs></defs><g id="icons"><path d=" M 33.000000 47.500000 L 15.000000 47.500000 L 12.000000 44.500000 L 12.000000 17.500000 L 18.000000 11.500000 L 30.000000 11.500000 L 36.000000 17.500000 L 36.000000 44.500000 L 33.000000 47.500000 Z" stroke="#231F20" stroke-width="2.000000" stroke-linecap="round" stroke-linejoin="round" fill="none"/><line x1="15.000000" y1="11.500000" x2="33.000000" y2="11.500000" stroke="#231F20" stroke-width="2.000000" stroke-linecap="round" stroke-linejoin="round" fill="none"/><line x1="21.000000" y1="11.500000" x2="17.000000" y2="7.500000" stroke="#231F20" stroke-width="2.000000" stroke-linecap="round" stroke-linejoin="round" fill="none"/><path d=" M 29.000000 2.500000 C 28.447716 2.500000 28.000000 2.947715 28.000000 3.500000 C 28.000000 4.052285 28.447716 4.500000 29.000000 4.500000 C 29.552284 4.500000 30.000000 4.052285 30.000000 3.500000 C 30.000000 2.947715 29.552284 2.500000 29.000000 2.500000 Z" fill="#231F20"/><path d=" M 27.000000 6.500000 C 26.447716 6.500000 26.000000 6.947715 26.000000 7.500000 C 26.000000 8.052285 26.447716 8.500000 27.000000 8.500000 C 27.552284 8.500000 28.000000 8.052285 28.000000 7.500000 C 28.000000 6.947715 27.552284 6.500000 27.000000 6.500000 Z" fill="#231F20"/><path d=" M 25.000000 0.500000 C 24.447716 0.500000 24.000000 0.947715 24.000000 1.500000 C 24.000000 2.052285 24.447716 2.500000 25.000000 2.500000 C 25.552284 2.500000 26.000000 2.052285 26.000000 1.500000 C 26.000000 0.947715 25.552284 0.500000 25.000000 0.500000 Z" fill="#231F20"/></g></svg>