<svg version="1.1" viewBox="0.000000 0.000000 48.000000 48.000000" xmlns="http://www.w3.org/2000/svg" xmlns:xlink="http://www.w3.org/1999/xlink" overflow="hidden"><defs></defs><g id="icons"><rect x="1.000000" y="28.930000" width="8.000000" height="16.000000" stroke="#231F20" stroke-width="2.000000" stroke-linejoin="round" fill="none"/><path d=" M 9.000000 41.930000 C 30.459999 49.080002 22.540001 49.160000 47.000000 36.930000 C 44.880001 34.810001 43.200001 34.299999 41.000000 34.930000 L 32.130001 37.869999" stroke="#231F20" stroke-width="2.000000" stroke-linecap="round" stroke-linejoin="round" fill="none"/><path d=" M 9.000000 30.930000 L 15.000000 30.930000 C 18.404413 31.049204 21.630211 32.482891 24.000000 34.930000 L 30.000000 34.930000 C 33.189999 34.930000 33.189999 38.930000 30.000000 38.930000 L 19.000000 38.930000" stroke="#231F20" stroke-width="2.000000" stroke-linecap="round" stroke-linejoin="round" fill="none"/><path d=" M 13.700000 24.370001 C 9.730330 16.475290 12.912206 6.857311 20.806915 2.887642 C 28.701626 -1.082027 38.319607 2.099848 42.289272 9.994558 C 46.060741 17.495096 43.393562 26.635061 36.179996 30.930000" stroke="#231F20" stroke-width="2.000000" stroke-linecap="round" stroke-linejoin="round" fill="none"/><path d=" M 39.830002 6.410000 C 39.830002 6.410000 39.130001 10.230000 36.349998 11.620000 C 33.570000 10.920000 30.780001 13.010000 31.480000 13.010000 C 32.180000 13.010000 32.869999 15.790000 32.869999 15.790000 C 33.570000 16.490000 34.959999 15.790000 34.959999 15.790000 C 36.700001 17.530001 32.169998 20.660000 32.169998 21.360001 C 32.169998 22.059999 33.910000 22.360001 32.869999 23.440001 C 32.283142 24.050333 31.569773 24.524775 30.779999 24.830000 C 30.780001 28.309999 27.299999 28.309999 26.610001 28.309999 C 25.920000 28.309999 24.520000 25.530001 24.520000 24.830000 C 24.520000 24.129999 25.219999 23.440001 25.219999 22.750000 C 25.219999 22.059999 23.830000 20.660000 23.830000 20.660000 C 23.830000 17.879999 21.740000 18.570000 19.650000 18.570000 C 17.559999 18.570000 17.570000 15.790000 17.570000 15.790000 C 17.570000 15.790000 17.570000 10.920000 21.040001 10.230000 C 24.510000 9.540000 24.520000 10.920000 24.520000 10.920000 C 25.910000 12.310000 28.700001 10.920000 30.090000 10.920000 C 30.090000 10.920000 30.780001 6.050000 29.389999 6.750000 C 28.000000 7.450000 26.750000 6.900000 26.610001 5.360000 C 26.410000 3.180000 32.680000 1.880000 32.680000 1.880000" stroke="#231F20" stroke-width="2.000000" stroke-linecap="round" stroke-linejoin="round" fill="none"/></g></svg>