<svg version="1.1" viewBox="0.000000 0.000000 48.000000 48.000000" xmlns="http://www.w3.org/2000/svg" xmlns:xlink="http://www.w3.org/1999/xlink" overflow="hidden"><defs></defs><g id="icons"><path d=" M 21.000000 37.000000 C 21.000000 38.656853 22.343145 40.000000 24.000000 40.000000 C 25.656855 40.000000 27.000000 38.656853 27.000000 37.000000 C 27.000000 35.343147 25.656855 34.000000 24.000000 34.000000 C 22.343145 34.000000 21.000000 32.656853 21.000000 31.000000 C 21.000000 29.343145 22.343145 28.000000 24.000000 28.000000 C 25.656855 28.000000 27.000000 29.343145 27.000000 31.000000" stroke="#231F20" stroke-width="2.000000" stroke-linecap="round" stroke-linejoin="round" fill="none"/><line x1="24.000000" y1="40.000000" x2="24.000000" y2="42.000000" stroke="#231F20" stroke-width="2.000000" stroke-linecap="round" stroke-linejoin="round" fill="none"/><line x1="24.000000" y1="26.000000" x2="24.000000" y2="28.000000" stroke="#231F20" stroke-width="2.000000" stroke-linecap="round" stroke-linejoin="round" fill="none"/><path d=" M 29.559999 21.000000 L 18.440001 21.000000 C 14.000000 24.240000 9.000000 30.809999 9.000000 36.000000 C 9.000000 43.180000 13.000000 47.000000 24.000000 47.000000 C 35.000000 47.000000 39.000000 43.180000 39.000000 36.000000 C 39.000000 30.809999 34.000000 24.240000 29.559999 21.000000 Z" stroke="#231F20" stroke-width="2.000000" stroke-linecap="round" stroke-linejoin="round" fill="none"/><line x1="17.000000" y1="17.000000" x2="31.000000" y2="17.000000" stroke="#231F20" stroke-width="2.000000" stroke-linecap="round" stroke-linejoin="round" fill="none"/><path d=" M 33.000000 3.000000 L 26.000000 6.000000 L 24.000000 1.000000 L 22.000000 6.000000 L 15.000000 3.000000 C 15.000000 3.000000 19.000000 9.000000 19.000000 13.000000 L 29.000000 13.000000 C 29.000000 9.000000 33.000000 3.000000 33.000000 3.000000 Z" stroke="#231F20" stroke-width="2.000000" stroke-linecap="round" stroke-linejoin="round" fill="none"/></g></svg>