<svg viewBox="0 0 48 48" xmlns="http://www.w3.org/2000/svg" xmlns:xlink="http://www.w3.org/1999/xlink" overflow="hidden"><style>
.MsftOfcThm_Text1_Stroke {
 stroke:#FFFFFF; 
}
</style>
<defs></defs><g id="icons"><path d="M34 25 36 25C39.3137 25 42 27.6863 42 31 42 34.3137 39.3137 37 36 37L34 37" stroke="#FFFFFF" stroke-width="2" stroke-linecap="butt" stroke-linejoin="round" stroke-opacity="1" fill="none"/><path d="M34 43C34 45.2091 32.2091 47 30 47L12 47C9.79086 47 8 45.2091 8 43L8 21 34 21Z" stroke="#FFFFFF" stroke-width="2" stroke-linecap="butt" stroke-linejoin="round" stroke-opacity="1" fill="none"/><path d="M33.74 1.11C35.81 4.26 32.74 5.99 32.05 7.68 31.3109 9.21208 31.9537 11.0532 33.4858 11.7923 33.5944 11.8447 33.706 11.8907 33.82 11.93 39.62 14.38 41.34 2.94 33.74 1.11Z" stroke="#FFFFFF" stroke-width="2" stroke-linecap="butt" stroke-linejoin="round" stroke-opacity="1" fill="none"/><line x1="28" y1="20.99" x2="33.21" y2="11.61" stroke="#FFFFFF" stroke-width="2" stroke-linecap="butt" stroke-linejoin="round" stroke-opacity="1" fill="none"/><line x1="35.27" y1="12.3" x2="32" y2="20.99" stroke="#FFFFFF" stroke-width="2" stroke-linecap="butt" stroke-linejoin="round" stroke-opacity="1" fill="none"/><path d="M16 21 10 21.01 7 15.01 5.99 9.01 10.99 12.01 16 21Z" stroke="#FFFFFF" stroke-width="2" stroke-linecap="butt" stroke-linejoin="round" stroke-opacity="1" fill="none"/><line x1="7" y1="15.01" x2="10.99" y2="12.01" stroke="#FFFFFF" stroke-width="2" stroke-linecap="butt" stroke-linejoin="round" stroke-opacity="1" fill="none"/><rect x="17.99" y="1" width="8" height="20" stroke="#FFFFFF" stroke-width="2" stroke-linecap="butt" stroke-linejoin="round" stroke-opacity="1" fill="none"/><line x1="25.99" y1="4.99" x2="21.99" y2="5" stroke="#FFFFFF" stroke-width="2" stroke-linecap="butt" stroke-linejoin="round" stroke-opacity="1" fill="none"/><line x1="25.99" y1="8.99" x2="23.99" y2="9" stroke="#FFFFFF" stroke-width="2" stroke-linecap="butt" stroke-linejoin="round" stroke-opacity="1" fill="none"/><line x1="25.99" y1="12.99" x2="21.99" y2="13" stroke="#FFFFFF" stroke-width="2" stroke-linecap="butt" stroke-linejoin="round" stroke-opacity="1" fill="none"/><line x1="26" y1="16.99" x2="24" y2="17" stroke="#FFFFFF" stroke-width="2" stroke-linecap="butt" stroke-linejoin="round" stroke-opacity="1" fill="none"/></g></svg>