<svg version="1.1" viewBox="0.000000 0.000000 48.000000 48.000000" xmlns="http://www.w3.org/2000/svg" xmlns:xlink="http://www.w3.org/1999/xlink" overflow="hidden"><defs></defs><g id="icons"><line x1="44.570000" y1="29.930000" x2="30.430000" y2="44.070000" stroke="#231F20" stroke-width="2.000000" stroke-linejoin="round" fill="none"/><line x1="24.500000" y1="29.000000" x2="24.500000" y2="23.340000" stroke="#231F20" stroke-width="2.000000" stroke-miterlimit="10.000000" fill="none"/><path d=" M 14.500000 23.379999 L 14.500000 29.000000 L 4.500000 32.580002 C 2.105091 33.426727 0.502902 35.689819 0.500000 38.230003 L 0.500000 43.000000 L 22.500000 43.000000" stroke="#231F20" stroke-width="2.000000" stroke-miterlimit="10.000000" fill="none"/><ellipse cx="19.480000" cy="13.000000" rx="10.000000" ry="12.000000" stroke="#231F20" stroke-width="2.000000" stroke-miterlimit="10.000000" fill="none"/><path d=" M 29.440001 11.920000 C 29.100000 11.920000 28.820000 11.920000 28.440001 12.000000 C 25.030001 12.660000 22.840000 11.420000 20.969999 8.140000 C 19.879999 10.300000 16.370001 12.000000 13.480000 12.000000 C 12.132252 12.020976 10.801053 11.701076 9.610000 11.070000" stroke="#231F20" stroke-width="2.000000" stroke-miterlimit="10.000000" fill="none"/><path d=" M 44.570000 29.930000 C 48.475834 33.834652 48.476788 40.166302 44.572136 44.072136 C 40.667484 47.977970 34.335835 47.978924 30.430000 44.074272 C 26.524168 40.169621 26.523212 33.837971 30.427864 29.932137 C 30.428576 29.931425 30.429287 29.930714 30.430000 29.930000 C 34.334999 26.026180 40.665001 26.026180 44.570000 29.930000 Z" stroke="#231F20" stroke-width="2.000000" stroke-miterlimit="10.000000" fill="none"/></g></svg>