<svg version="1.1" viewBox="0.000000 0.000000 48.000000 48.000000" xmlns="http://www.w3.org/2000/svg" xmlns:xlink="http://www.w3.org/1999/xlink" overflow="hidden"><defs></defs><g id="icons"><path d=" M 3.000000 18.709999 C 1.895430 18.709999 1.000000 19.605429 1.000000 20.709999 C 1.000000 21.814569 1.895430 22.709999 3.000000 22.709999 L 5.000000 22.709999 C 5.000000 31.000000 10.260000 39.000000 17.610001 41.590000 C 13.090000 42.840000 10.000000 45.160000 10.000000 46.709999 L 38.000000 46.709999 C 38.000000 45.160000 34.910000 42.840000 30.389999 41.590000 C 37.740002 39.000000 43.000000 31.000000 43.000000 22.709999 L 45.000000 22.709999 C 46.104568 22.709999 47.000000 21.814569 47.000000 20.709999 C 47.000000 19.605429 46.104568 18.709999 45.000000 18.709999 Z" stroke="#000000" stroke-width="2.000000" stroke-linecap="round" stroke-linejoin="round" fill="none"/><path d=" M 36.000000 14.710000 C 43.869999 3.710000 44.419998 2.870000 43.000000 1.710000 C 41.580002 0.550000 40.549999 1.130000 28.000000 14.710000" stroke="#000000" stroke-width="2.000000" stroke-linecap="round" stroke-linejoin="round" fill="none"/><path d=" M 19.000000 35.720001 C 15.839696 34.393864 13.326139 31.880306 12.000000 28.720001" stroke="#000000" stroke-width="2.000000" stroke-linecap="round" stroke-linejoin="round" fill="none"/></g></svg>