<svg version="1.1" viewBox="0.000000 0.000000 48.000000 48.000000" xmlns="http://www.w3.org/2000/svg" xmlns:xlink="http://www.w3.org/1999/xlink" overflow="hidden"><defs></defs><g id="icons"><ellipse cx="23.500000" cy="8.000000" rx="19.000000" ry="7.000000" stroke="#231F20" stroke-width="2.000000" stroke-linecap="round" stroke-linejoin="round" fill="none"/><path d=" M 4.500000 8.000000 L 4.500000 13.000000 C 4.636758 15.532799 5.635309 17.942728 7.330000 19.830000 L 20.500000 33.000000" stroke="#231F20" stroke-width="2.000000" stroke-linecap="round" stroke-linejoin="round" fill="none"/><path d=" M 42.500000 8.000000 L 42.500000 13.000000 C 42.363243 15.532799 41.364693 17.942728 39.669998 19.830000 L 26.500000 33.000000" stroke="#231F20" stroke-width="2.000000" stroke-linecap="round" stroke-linejoin="round" fill="none"/><path d=" M 26.500000 33.000000 L 26.500000 45.000000 C 26.500000 46.104568 25.604570 47.000000 24.500000 47.000000 L 22.500000 47.000000 C 21.395430 47.000000 20.500000 46.104568 20.500000 45.000000 L 20.500000 33.000000" stroke="#231F20" stroke-width="2.000000" stroke-linecap="round" stroke-linejoin="round" fill="none"/><path d=" M 26.500000 37.209999 C 31.637558 40.452335 38.430801 38.915955 41.673138 33.778397 C 44.526993 29.256393 43.715530 23.337141 39.750000 19.750000" stroke="#231F20" stroke-width="2.000000" stroke-linecap="round" stroke-linejoin="round" fill="none"/></g></svg>