<svg version="1.1" viewBox="0.000000 0.000000 48.000000 48.000000" xmlns="http://www.w3.org/2000/svg" xmlns:xlink="http://www.w3.org/1999/xlink" overflow="hidden"><defs></defs><g id="icons"><path d=" M 8.000000 38.000000 L 26.000000 38.000000 C 29.865993 38.000000 33.000000 34.865993 33.000000 31.000000 C 33.000000 27.134007 29.865993 24.000000 26.000000 24.000000 L 8.000000 24.000000" stroke="#231F20" stroke-width="2.000000" stroke-linecap="round" stroke-linejoin="round" fill="none"/><path d=" M 26.000000 28.000000 C 27.656855 28.000000 29.000000 29.343145 29.000000 31.000000 C 29.000000 32.656853 27.656855 34.000000 26.000000 34.000000 L 23.000000 34.000000 L 23.000000 28.000000 Z" stroke="#231F20" stroke-width="2.000000" stroke-linecap="round" stroke-linejoin="round" fill="none"/><path d=" M 8.000000 24.000000 L 26.000000 24.000000 C 29.865993 24.000000 33.000000 20.865993 33.000000 17.000000 C 33.000000 13.134007 29.865993 10.000000 26.000000 10.000000 L 8.000000 10.000000" stroke="#231F20" stroke-width="2.000000" stroke-linecap="round" stroke-linejoin="round" fill="none"/><path d=" M 26.000000 14.000000 C 27.656855 14.000000 29.000000 15.343145 29.000000 17.000000 C 29.000000 18.656855 27.656855 20.000000 26.000000 20.000000 L 23.000000 20.000000 L 23.000000 14.000000 Z" stroke="#231F20" stroke-width="2.000000" stroke-linecap="round" stroke-linejoin="round" fill="none"/><path d=" M 32.000000 5.970000 L 34.000000 1.000000 L 40.000000 1.980000" stroke="#231F20" stroke-width="2.000000" stroke-linecap="round" stroke-linejoin="round" fill="none"/><path d=" M 34.119999 47.000000 C 37.700001 41.700001 40.000000 33.360001 40.000000 24.000000 C 40.000000 14.640000 37.580002 6.300000 34.000000 1.000000" stroke="#231F20" stroke-width="2.000000" stroke-linecap="round" stroke-linejoin="round" fill="none"/></g></svg>