<svg version="1.1" viewBox="0.000000 0.000000 48.000000 48.000000" xmlns="http://www.w3.org/2000/svg" xmlns:xlink="http://www.w3.org/1999/xlink" overflow="hidden"><defs></defs><g id="icons"><circle cx="24.000000" cy="7.000000" r="6.000000" stroke="#231F20" stroke-width="2.000000" stroke-linecap="round" stroke-linejoin="round" fill="none"/><path d=" M 33.000000 17.000000 L 15.000000 17.000000 C 15.000000 21.170000 17.000000 27.000000 21.000000 28.400000 L 21.000000 37.000000 L 27.000000 37.000000 L 27.000000 28.400000 C 31.000000 27.000000 33.000000 21.170000 33.000000 17.000000 Z" stroke="#231F20" stroke-width="2.000000" stroke-linecap="round" stroke-linejoin="round" fill="none"/><path d=" M 32.000000 35.630001 C 35.599998 36.270000 38.000000 37.320000 38.000000 38.500000 C 38.000000 40.430000 31.730000 42.000000 24.000000 42.000000 C 16.270000 42.000000 10.000000 40.430000 10.000000 38.500000 C 10.000000 37.310001 12.370000 36.259998 16.000000 35.630001" stroke="#231F20" stroke-width="2.000000" stroke-linecap="round" stroke-linejoin="round" fill="none"/><path d=" M 32.000000 31.500000 C 40.750000 32.630001 47.000000 35.560001 47.000000 39.000000 C 47.000000 43.419998 36.700001 47.000000 24.000000 47.000000 C 11.300000 47.000000 1.000000 43.419998 1.000000 39.000000 C 1.000000 35.560001 7.240000 32.630001 16.000000 31.500000" stroke="#231F20" stroke-width="2.000000" stroke-linecap="round" stroke-linejoin="round" fill="none"/></g></svg>