<svg version="1.1" viewBox="0.000000 0.000000 48.000000 48.000000" xmlns="http://www.w3.org/2000/svg" xmlns:xlink="http://www.w3.org/1999/xlink" overflow="hidden"><defs></defs><g id="icons"><path d=" M 14.000000 47.000000 L 34.000000 47.000000 L 24.000000 27.000000 L 14.000000 47.000000 Z" stroke="#231F20" stroke-width="2.000000" stroke-linejoin="round" fill="none"/><path d=" M 40.610001 39.900002 C 49.396500 30.726551 49.082817 16.167135 39.909367 7.380636 C 30.735916 -1.405864 16.176500 -1.092179 7.390001 8.081271 C -1.129999 16.976484 -1.129999 31.004787 7.390001 39.900002" stroke="#231F20" stroke-width="2.000000" stroke-linecap="round" stroke-miterlimit="10.000000" fill="none"/><path d=" M 11.820000 32.730000 C 6.984823 26.003172 8.518310 16.630314 15.245138 11.795138 C 21.971966 6.959962 31.344824 8.493448 36.180000 15.220277 C 39.939999 20.451290 39.939999 27.498985 36.180000 32.730000" stroke="#231F20" stroke-width="2.000000" stroke-linecap="round" stroke-miterlimit="10.000000" fill="none"/><path d=" M 17.000000 24.309999 C 17.000000 24.209999 17.000000 24.100000 17.000000 24.000000 C 17.000000 20.134007 20.134007 17.000000 24.000000 17.000000 C 27.865993 17.000000 31.000000 20.134007 31.000000 24.000000 C 31.000000 24.100000 31.000000 24.209999 31.000000 24.309999" stroke="#231F20" stroke-width="2.000000" stroke-linecap="round" stroke-miterlimit="10.000000" fill="none"/><line x1="24.000000" y1="27.000000" x2="24.000000" y2="23.000000" stroke="#231F20" stroke-width="2.000000" stroke-linecap="round" stroke-linejoin="round" fill="none"/><line x1="14.020000" y1="47.000000" x2="29.000000" y2="37.000000" stroke="#231F20" stroke-width="2.000000" stroke-linejoin="round" fill="none"/><line x1="33.970000" y1="46.970000" x2="19.000000" y2="37.000000" stroke="#231F20" stroke-width="2.000000" stroke-linejoin="round" fill="none"/><line x1="20.530000" y1="34.000000" x2="27.500000" y2="34.000000" stroke="#231F20" stroke-width="2.000000" stroke-linejoin="round" fill="none"/></g></svg>