<svg version="1.1" viewBox="0.000000 0.000000 48.000000 48.000000" xmlns="http://www.w3.org/2000/svg" xmlns:xlink="http://www.w3.org/1999/xlink" overflow="hidden"><defs></defs><g id="icons"><path d=" M 18.000000 19.000000 C 18.000000 17.900000 18.900000 18.000000 20.000000 18.000000 C 21.100000 18.000000 22.000000 17.900000 22.000000 19.000000" stroke="#231F20" stroke-width="2.000000" stroke-linecap="round" stroke-miterlimit="10.000000" fill="none"/><path d=" M 26.000000 19.000000 C 26.000000 17.900000 26.900000 18.000000 28.000000 18.000000 C 29.100000 18.000000 30.000000 17.900000 30.000000 19.000000" stroke="#231F20" stroke-width="2.000000" stroke-linecap="round" stroke-miterlimit="10.000000" fill="none"/><path d=" M 18.889999 31.000000 C 10.290000 32.459999 1.000000 32.160000 1.000000 40.490002 L 1.000000 47.000000 L 47.000000 47.000000 L 47.000000 40.490002 C 47.000000 32.150002 38.000000 32.490002 29.139999 31.000000" stroke="#231F20" stroke-width="2.000000" stroke-linecap="round" stroke-miterlimit="10.000000" fill="none"/><line x1="24.020000" y1="33.000000" x2="24.000000" y2="47.000000" stroke="#231F20" stroke-width="2.000000" stroke-linecap="round" stroke-linejoin="round" fill="none"/><line x1="13.000000" y1="37.000000" x2="13.000000" y2="43.000000" stroke="#231F20" stroke-width="2.000000" stroke-linecap="round" stroke-linejoin="round" fill="none"/><line x1="10.000000" y1="40.000000" x2="16.000000" y2="40.000000" stroke="#231F20" stroke-width="2.000000" stroke-linecap="round" stroke-linejoin="round" fill="none"/><path d=" M 28.000000 38.000000 C 27.447716 38.000000 27.000000 38.447716 27.000000 39.000000 C 27.000000 39.552284 27.447716 40.000000 28.000000 40.000000 C 28.552284 40.000000 29.000000 39.552284 29.000000 39.000000 C 29.000000 38.447716 28.552284 38.000000 28.000000 38.000000 Z" fill="#231F20"/><path d=" M 28.000000 42.000000 C 27.447716 42.000000 27.000000 42.447716 27.000000 43.000000 C 27.000000 43.552284 27.447716 44.000000 28.000000 44.000000 C 28.552284 44.000000 29.000000 43.552284 29.000000 43.000000 C 29.000000 42.447716 28.552284 42.000000 28.000000 42.000000 Z" fill="#231F20"/><path d=" M 20.230000 13.900000 L 14.000000 17.000000 C 11.000000 17.000000 11.000000 23.000000 14.000000 23.000000 C 14.000000 29.000000 21.000000 33.000000 24.000000 33.000000 C 27.000000 33.000000 34.000000 29.000000 34.000000 23.000000 C 37.000000 23.000000 37.000000 17.000000 34.000000 17.000000 L 27.760000 13.900000" stroke="#231F20" stroke-width="2.000000" stroke-linecap="round" stroke-linejoin="round" fill="none"/><path d=" M 19.000000 3.000000 C 10.000000 5.000000 11.000000 11.000000 11.000000 11.000000 L 12.000000 18.500000" stroke="#231F20" stroke-width="2.000000" stroke-linecap="round" stroke-miterlimit="10.000000" fill="none"/><path d=" M 29.000000 3.000000 C 38.000000 5.000000 37.000000 11.000000 37.000000 11.000000 L 36.000000 18.500000" stroke="#231F20" stroke-width="2.000000" stroke-linecap="round" stroke-miterlimit="10.000000" fill="none"/><path d=" M 14.250000 24.900000 C 17.371378 23.727642 20.666815 23.085455 24.000000 23.000000 C 27.340311 23.088121 30.642429 23.733673 33.770000 24.910000" stroke="#231F20" stroke-width="2.000000" stroke-linecap="round" stroke-linejoin="round" fill="none"/><circle cx="24.000000" cy="8.000000" r="7.000000" stroke="#231F20" stroke-width="2.000000" stroke-linecap="round" stroke-linejoin="round" fill="none"/><circle cx="24.000000" cy="8.000000" r="3.000000" stroke="#231F20" stroke-width="2.000000" stroke-linecap="round" stroke-linejoin="round" fill="none"/></g></svg>