<svg version="1.1" viewBox="0.000000 0.000000 48.000000 48.000000" xmlns="http://www.w3.org/2000/svg" xmlns:xlink="http://www.w3.org/1999/xlink" overflow="hidden"><defs></defs><g id="icons"><path d=" M 14.440000 27.000000 L 1.000000 27.000000 L 1.000000 21.000000 L 14.410000 21.000000" stroke="#231F20" stroke-width="2.000000" stroke-linecap="round" stroke-linejoin="round" fill="none"/><path d=" M 27.000000 33.529999 L 27.000000 47.000000 L 21.000000 47.000000 L 21.000000 33.560001" stroke="#231F20" stroke-width="2.000000" stroke-linecap="round" stroke-linejoin="round" fill="none"/><path d=" M 33.529999 21.000000 L 47.000000 21.000000 L 47.000000 27.000000 L 33.590000 27.000000" stroke="#231F20" stroke-width="2.000000" stroke-linecap="round" stroke-linejoin="round" fill="none"/><path d=" M 21.000000 14.440000 L 21.000000 1.000000 L 27.000000 1.000000 L 27.000000 14.440000" stroke="#231F20" stroke-width="2.000000" stroke-linecap="round" stroke-linejoin="round" fill="none"/><circle cx="24.000000" cy="24.000000" r="10.000000" stroke="#231F20" stroke-width="2.000000" stroke-linecap="round" stroke-linejoin="round" fill="none"/><path d=" M 27.000000 3.210000 C 36.219067 4.538525 43.461475 11.780933 44.790001 21.000000" stroke="#231F20" stroke-width="2.000000" stroke-linecap="round" stroke-linejoin="round" fill="none"/><path d=" M 3.210000 21.000000 C 4.538525 11.780933 11.780933 4.538525 21.000000 3.210000" stroke="#231F20" stroke-width="2.000000" stroke-linecap="round" stroke-linejoin="round" fill="none"/><path d=" M 21.000000 44.790001 C 11.780933 43.461475 4.538525 36.219067 3.210000 27.000000" stroke="#231F20" stroke-width="2.000000" stroke-linecap="round" stroke-linejoin="round" fill="none"/><path d=" M 44.790001 27.000000 C 43.461475 36.219067 36.219067 43.461475 27.000000 44.790001" stroke="#231F20" stroke-width="2.000000" stroke-linecap="round" stroke-linejoin="round" fill="none"/></g></svg>