<svg version="1.1" viewBox="0.000000 0.000000 48.000000 48.000000" xmlns="http://www.w3.org/2000/svg" xmlns:xlink="http://www.w3.org/1999/xlink" overflow="hidden"><defs></defs><g id="icons"><path d=" M 1.000000 18.000000 L 1.000000 24.000000 C 1.000000 25.650000 1.350000 27.000000 3.000000 27.000000 L 3.000000 35.000000 L 9.000000 35.000000 L 9.000000 27.000000 C 10.650000 27.000000 11.000000 25.650000 11.000000 24.000000 L 11.000000 18.000000 Z" stroke="#231F20" stroke-width="2.000000" stroke-miterlimit="10.000000" fill="none"/><path d=" M 37.000000 18.000000 L 37.000000 24.000000 C 37.000000 25.650000 37.349998 27.000000 39.000000 27.000000 L 39.000000 35.000000 L 45.000000 35.000000 L 45.000000 27.000000 C 46.650002 27.000000 47.000000 25.650000 47.000000 24.000000 L 47.000000 18.000000 Z" stroke="#231F20" stroke-width="2.000000" stroke-miterlimit="10.000000" fill="none"/><path d=" M 17.000000 18.000000 L 31.000000 18.000000 L 31.000000 28.000000 C 31.000000 30.209139 29.209139 32.000000 27.000000 32.000000 L 27.000000 44.000000 L 21.000000 44.000000 L 21.000000 32.000000 C 18.790861 32.000000 17.000000 30.209139 17.000000 28.000000 Z" stroke="#231F20" stroke-width="2.000000" stroke-miterlimit="10.000000" fill="none"/><circle cx="42.000000" cy="11.000000" r="3.000000" stroke="#231F20" stroke-width="2.000000" stroke-miterlimit="10.000000" fill="none"/><circle cx="6.000000" cy="11.000000" r="3.000000" stroke="#231F20" stroke-width="2.000000" stroke-miterlimit="10.000000" fill="none"/><circle cx="24.000000" cy="9.000000" r="5.000000" stroke="#231F20" stroke-width="2.000000" stroke-miterlimit="10.000000" fill="none"/></g></svg>