<svg version="1.1" viewBox="0.000000 0.000000 48.000000 48.000000" xmlns="http://www.w3.org/2000/svg" xmlns:xlink="http://www.w3.org/1999/xlink" overflow="hidden"><defs></defs><g id="icons"><path d=" M 39.000000 17.500000 L 47.000000 23.000000 L 47.000000 44.000000 C 47.000000 45.656853 45.656853 47.000000 44.000000 47.000000 L 4.000000 47.000000 C 2.343146 47.000000 1.000000 45.656853 1.000000 44.000000 L 1.000000 23.000000 L 9.000000 17.500000" stroke="#231F20" stroke-width="2.000000" stroke-linecap="round" stroke-linejoin="round" fill="none"/><path d=" M 7.000000 41.000000 L 17.000000 33.000000 L 31.000000 33.000000 L 41.000000 41.000000" stroke="#231F20" stroke-width="2.000000" stroke-linecap="round" stroke-linejoin="round" fill="none"/><line x1="47.000000" y1="23.000000" x2="35.000000" y2="31.000000" stroke="#231F20" stroke-width="2.000000" stroke-linecap="round" stroke-linejoin="round" fill="none"/><line x1="1.000000" y1="23.000000" x2="13.000000" y2="31.000000" stroke="#231F20" stroke-width="2.000000" stroke-linecap="round" stroke-linejoin="round" fill="none"/><path d=" M 39.000000 28.330000 L 39.000000 1.000000 L 9.000000 1.000000 L 9.000000 28.250000" stroke="#231F20" stroke-width="2.000000" stroke-linecap="round" stroke-linejoin="round" fill="none"/><line x1="15.000000" y1="7.000000" x2="19.000000" y2="7.000000" stroke="#231F20" stroke-width="2.000000" stroke-linecap="round" stroke-linejoin="round" fill="none"/><line x1="19.000000" y1="13.000000" x2="33.000000" y2="13.000000" stroke="#231F20" stroke-width="2.000000" stroke-linecap="round" stroke-linejoin="round" fill="none"/><line x1="15.000000" y1="19.000000" x2="33.000000" y2="19.000000" stroke="#231F20" stroke-width="2.000000" stroke-linecap="round" stroke-linejoin="round" fill="none"/><line x1="15.000000" y1="25.000000" x2="33.000000" y2="25.000000" stroke="#231F20" stroke-width="2.000000" stroke-linecap="round" stroke-linejoin="round" fill="none"/></g></svg>