<svg version="1.1" viewBox="0.000000 0.000000 48.000000 48.000000" xmlns="http://www.w3.org/2000/svg" xmlns:xlink="http://www.w3.org/1999/xlink" overflow="hidden"><defs></defs><g id="icons"><circle cx="11.000000" cy="35.060000" r="10.000000" stroke="#231F20" stroke-width="2.000000" stroke-linecap="round" stroke-linejoin="round" fill="none"/><path d=" M 21.000000 12.060000 L 21.000000 4.060000 C 19.281660 2.558908 16.718340 2.558908 15.000000 4.060000 L 12.000000 12.060000 L 9.000000 15.060000 L 3.000000 29.059999" stroke="#231F20" stroke-width="2.000000" stroke-linecap="round" stroke-linejoin="round" fill="none"/><circle cx="37.000000" cy="35.060000" r="10.000000" stroke="#231F20" stroke-width="2.000000" stroke-linecap="round" stroke-linejoin="round" fill="none"/><path d=" M 27.000000 12.060000 L 27.000000 4.190000 C 28.718340 2.688908 31.281660 2.688908 33.000000 4.190000 L 36.000000 12.060000 L 39.000000 15.060000 L 45.000000 29.059999" stroke="#231F20" stroke-width="2.000000" stroke-linecap="round" stroke-linejoin="round" fill="none"/><path d=" M 16.000000 20.059999 C 16.000000 17.850000 19.580000 16.059999 24.000000 16.059999 C 28.420000 16.059999 32.000000 17.850000 32.000000 20.059999" stroke="#231F20" stroke-width="2.000000" stroke-linecap="round" stroke-linejoin="round" fill="none"/><line x1="21.000000" y1="35.060000" x2="21.000000" y2="16.350000" stroke="#231F20" stroke-width="2.000000" stroke-linecap="round" stroke-linejoin="round" fill="none"/><line x1="27.000000" y1="35.060000" x2="27.000000" y2="16.350000" stroke="#231F20" stroke-width="2.000000" stroke-linecap="round" stroke-linejoin="round" fill="none"/><path d=" M 5.000000 35.060001 C 5.000000 31.746292 7.686292 29.060001 11.000000 29.060001" stroke="#231F20" stroke-width="2.000000" stroke-linecap="round" stroke-linejoin="round" fill="none"/><path d=" M 31.000000 35.060001 C 31.000000 31.746292 33.686291 29.060001 37.000000 29.060001" stroke="#231F20" stroke-width="2.000000" stroke-linecap="round" stroke-linejoin="round" fill="none"/></g></svg>