<svg version="1.1" viewBox="0.000000 0.000000 48.000000 48.000000" xmlns="http://www.w3.org/2000/svg" xmlns:xlink="http://www.w3.org/1999/xlink" overflow="hidden"><defs></defs><g id="icons"><path d=" M 27.000000 41.000000 C 22.997343 40.858837 19.865110 37.502872 20.000000 33.500000 C 19.865110 29.497128 22.997343 26.141163 27.000000 26.000000" stroke="#231F20" stroke-width="2.000000" stroke-linecap="round" stroke-linejoin="round" fill="none"/><line x1="18.000000" y1="31.000000" x2="26.000000" y2="31.000000" stroke="#231F20" stroke-width="2.000000" stroke-linecap="round" stroke-linejoin="round" fill="none"/><line x1="18.000000" y1="35.000000" x2="26.000000" y2="35.000000" stroke="#231F20" stroke-width="2.000000" stroke-linecap="round" stroke-linejoin="round" fill="none"/><line x1="17.000000" y1="17.000000" x2="31.000000" y2="17.000000" stroke="#231F20" stroke-width="2.000000" stroke-linecap="round" stroke-linejoin="round" fill="none"/><path d=" M 33.000000 3.000000 L 26.000000 6.000000 L 24.000000 1.000000 L 22.000000 6.000000 L 15.000000 3.000000 C 15.000000 3.000000 19.000000 9.000000 19.000000 13.000000 L 29.000000 13.000000 C 29.000000 9.000000 33.000000 3.000000 33.000000 3.000000 Z" stroke="#231F20" stroke-width="2.000000" stroke-linecap="round" stroke-linejoin="round" fill="none"/><path d=" M 29.559999 21.000000 L 18.440001 21.000000 C 14.000000 24.240000 9.000000 30.809999 9.000000 36.000000 C 9.000000 43.180000 13.000000 47.000000 24.000000 47.000000 C 35.000000 47.000000 39.000000 43.180000 39.000000 36.000000 C 39.000000 30.809999 34.000000 24.240000 29.559999 21.000000 Z" stroke="#231F20" stroke-width="2.000000" stroke-linecap="round" stroke-linejoin="round" fill="none"/></g></svg>