<svg version="1.1" viewBox="0.000000 0.000000 48.000000 48.000000" xmlns="http://www.w3.org/2000/svg" xmlns:xlink="http://www.w3.org/1999/xlink" overflow="hidden"><defs></defs><g id="icons"><path d=" M 45.450001 1.000000 C 45.450001 1.000000 46.450001 43.000000 39.450001 43.000000 C 32.450001 43.000000 38.450001 35.000000 33.450001 35.000000 C 28.450001 35.000000 34.450001 47.000000 27.450001 47.000000 L 2.500000 47.000000 C 9.500000 47.000000 3.500000 35.000000 8.500000 35.000000 L 18.500000 35.000000 C 20.719999 23.900000 20.500000 1.000000 20.500000 1.000000 Z" stroke="#231F20" stroke-width="2.000000" stroke-miterlimit="10.000000" fill="none"/><line x1="18.500000" y1="35.000000" x2="33.450000" y2="35.000000" stroke="#231F20" stroke-width="2.000000" stroke-miterlimit="10.000000" fill="none"/><line x1="39.450000" y1="43.000000" x2="31.130000" y2="43.000000" stroke="#231F20" stroke-width="2.000000" stroke-miterlimit="10.000000" fill="none"/><line x1="26.500000" y1="7.000000" x2="30.500000" y2="7.000000" stroke="#231F20" stroke-width="2.000000" stroke-linecap="round" stroke-miterlimit="10.000000" fill="none"/><line x1="28.500000" y1="11.000000" x2="39.500000" y2="11.000000" stroke="#231F20" stroke-width="2.000000" stroke-linecap="round" stroke-miterlimit="10.000000" fill="none"/><line x1="25.500000" y1="15.000000" x2="38.500000" y2="15.000000" stroke="#231F20" stroke-width="2.000000" stroke-linecap="round" stroke-miterlimit="10.000000" fill="none"/><line x1="25.500000" y1="19.000000" x2="39.500000" y2="19.000000" stroke="#231F20" stroke-width="2.000000" stroke-linecap="round" stroke-miterlimit="10.000000" fill="none"/><line x1="25.500000" y1="23.000000" x2="37.500000" y2="23.000000" stroke="#231F20" stroke-width="2.000000" stroke-linecap="round" stroke-miterlimit="10.000000" fill="none"/><line x1="24.500000" y1="27.000000" x2="38.500000" y2="27.000000" stroke="#231F20" stroke-width="2.000000" stroke-linecap="round" stroke-miterlimit="10.000000" fill="none"/><line x1="23.500000" y1="31.000000" x2="39.500000" y2="31.000000" stroke="#231F20" stroke-width="2.000000" stroke-linecap="round" stroke-miterlimit="10.000000" fill="none"/></g></svg>