<svg version="1.1" viewBox="0.000000 0.000000 48.000000 48.000000" xmlns="http://www.w3.org/2000/svg" xmlns:xlink="http://www.w3.org/1999/xlink" overflow="hidden"><defs></defs><g id="icons"><path d=" M 33.000000 36.000000 L 15.000000 36.000000 L 15.000000 11.000000 C 15.000000 6.029437 19.029438 2.000000 24.000000 2.000000 C 28.970562 2.000000 33.000000 6.029437 33.000000 11.000000 Z" stroke="#231F20" stroke-width="2.000000" stroke-linejoin="round" fill="none"/><line x1="24.000000" y1="36.000000" x2="24.000000" y2="48.000000" stroke="#231F20" stroke-width="2.000000" stroke-linecap="round" stroke-linejoin="round" fill="none"/><path d=" M 29.000000 25.000000 C 27.895430 25.000000 27.000000 24.104570 27.000000 23.000000 L 27.000000 15.000000" stroke="#231F20" stroke-width="2.000000" stroke-linecap="round" stroke-linejoin="round" fill="none"/><path d=" M 23.000000 15.000000 C 23.000000 16.104570 22.104570 17.000000 21.000000 17.000000 C 19.895430 17.000000 19.000000 16.104570 19.000000 15.000000 L 19.000000 11.000000" stroke="#231F20" stroke-width="2.000000" stroke-linecap="round" stroke-linejoin="round" fill="none"/><path d=" M 23.000000 15.000000 C 23.000000 13.895431 23.895430 13.000000 25.000000 13.000000 C 26.104570 13.000000 27.000000 13.895431 27.000000 15.000000" stroke="#231F20" stroke-width="2.000000" stroke-linecap="round" stroke-linejoin="round" fill="none"/></g></svg>