<svg version="1.1" viewBox="0.000000 0.000000 48.000000 48.000000" xmlns="http://www.w3.org/2000/svg" xmlns:xlink="http://www.w3.org/1999/xlink" overflow="hidden"><defs></defs><g id="icons"><rect x="9.210000" y="4.000000" width="34.780000" height="34.780000" stroke="#231F20" stroke-width="2.000000" stroke-linecap="round" stroke-linejoin="round" fill="none"/><line x1="24.860000" y1="23.130000" x2="38.760000" y2="9.200000" stroke="#231F20" stroke-width="2.000000" stroke-linecap="round" stroke-linejoin="round" fill="none"/><path d=" M 30.070000 9.210000 L 38.759998 9.200000 L 38.770000 17.900000" stroke="#231F20" stroke-width="2.000000" stroke-linecap="round" stroke-linejoin="round" fill="none"/><path d=" M 5.730000 26.629999 L 3.990000 26.629999 L 4.000000 28.370001" stroke="#231F20" stroke-width="2.000000" stroke-linecap="round" stroke-linejoin="round" fill="none"/><line x1="4.000000" y1="31.840000" x2="4.000000" y2="33.580000" stroke="#231F20" stroke-width="2.000000" stroke-linecap="round" stroke-linejoin="round" fill="none"/><line x1="10.950000" y1="26.620000" x2="9.210000" y2="26.620000" stroke="#231F20" stroke-width="2.000000" stroke-linecap="round" stroke-linejoin="round" fill="none"/><line x1="16.170000" y1="26.620000" x2="14.430000" y2="26.620000" stroke="#231F20" stroke-width="2.000000" stroke-linecap="round" stroke-linejoin="round" fill="none"/><line x1="10.970000" y1="44.010000" x2="9.230000" y2="44.010000" stroke="#231F20" stroke-width="2.000000" stroke-linecap="round" stroke-linejoin="round" fill="none"/><line x1="16.180000" y1="44.010000" x2="14.450000" y2="44.010000" stroke="#231F20" stroke-width="2.000000" stroke-linecap="round" stroke-linejoin="round" fill="none"/><path d=" M 5.750000 44.020000 L 4.010000 44.020000 L 4.010000 42.279999" stroke="#231F20" stroke-width="2.000000" stroke-linecap="round" stroke-linejoin="round" fill="none"/><line x1="4.010000" y1="38.800000" x2="4.000000" y2="37.060000" stroke="#231F20" stroke-width="2.000000" stroke-linecap="round" stroke-linejoin="round" fill="none"/><path d=" M 19.650000 26.610001 L 21.389999 26.610001 L 21.389999 28.350000" stroke="#231F20" stroke-width="2.000000" stroke-linecap="round" stroke-linejoin="round" fill="none"/><line x1="21.390000" y1="31.830000" x2="21.390000" y2="33.570000" stroke="#231F20" stroke-width="2.000000" stroke-linecap="round" stroke-linejoin="round" fill="none"/><path d=" M 19.660000 44.000000 L 21.400000 44.000000 L 21.400000 42.259998" stroke="#231F20" stroke-width="2.000000" stroke-linecap="round" stroke-linejoin="round" fill="none"/><line x1="21.400000" y1="38.790000" x2="21.400000" y2="37.050000" stroke="#231F20" stroke-width="2.000000" stroke-linecap="round" stroke-linejoin="round" fill="none"/></g></svg>