<svg version="1.1" viewBox="0.000000 0.000000 48.000000 48.000000" xmlns="http://www.w3.org/2000/svg" xmlns:xlink="http://www.w3.org/1999/xlink" overflow="hidden"><defs></defs><g id="icons"><path d=" M 3.000000 32.000000 L 3.000000 44.000000 L 45.000000 44.000000 L 45.000000 32.000000 L 47.000000 32.000000 L 47.000000 16.000000 C 47.000000 13.790861 45.209141 12.000000 43.000000 12.000000 L 5.000000 12.000000 C 2.790861 12.000000 1.000000 13.790861 1.000000 16.000000 L 1.000000 32.000000 Z" stroke="#231F20" stroke-width="2.000000" stroke-linecap="round" stroke-linejoin="round" fill="none"/><rect x="19.000000" y="28.000000" width="10.000000" height="6.000000" stroke="#231F20" stroke-width="2.000000" stroke-linecap="round" stroke-linejoin="round" fill="none"/><path d=" M 33.000000 12.000000 L 15.000000 12.000000 L 15.000000 10.000000 C 15.000000 6.686292 17.686291 4.000000 21.000000 4.000000 L 27.000000 4.000000 C 30.313709 4.000000 33.000000 6.686292 33.000000 10.000000 Z" stroke="#231F20" stroke-width="2.000000" stroke-linecap="round" stroke-linejoin="round" fill="none"/><line x1="3.000000" y1="32.000000" x2="19.000000" y2="32.000000" stroke="#231F20" stroke-width="2.000000" stroke-linecap="round" stroke-linejoin="round" fill="none"/><line x1="29.000000" y1="32.000000" x2="45.000000" y2="32.000000" stroke="#231F20" stroke-width="2.000000" stroke-linecap="round" stroke-linejoin="round" fill="none"/></g></svg>