<svg version="1.1" viewBox="0.000000 0.000000 48.000000 48.000000" xmlns="http://www.w3.org/2000/svg" xmlns:xlink="http://www.w3.org/1999/xlink" overflow="hidden"><defs></defs><g id="icons"><path d=" M 22.820000 22.320000 C 23.802731 21.332891 23.802731 19.737108 22.820000 18.750000 L 20.150000 16.080000 C 19.162537 15.091411 17.560629 15.090497 16.572041 16.077959 C 16.571360 16.078638 16.570681 16.079319 16.570000 16.080000 L 15.110000 17.540001 C 13.836967 18.813988 13.636320 20.807917 14.630000 22.310001 C 18.943588 28.809395 24.508514 34.384521 31.000000 38.710003 C 32.498962 39.702160 34.489300 39.501453 35.759998 38.230003 L 37.230000 36.759998 C 38.215828 35.777588 38.218597 34.182014 37.236187 33.196186 C 37.234127 33.194118 37.232067 33.192059 37.230000 33.189999 L 34.549999 30.520000 C 33.580490 29.536934 31.997618 29.525942 31.014551 30.495449 C 31.006311 30.503576 30.998127 30.511761 30.990000 30.520000 L 30.090000 31.410000 C 27.101246 28.947952 24.358398 26.201757 21.900000 23.209999 Z" stroke="#231F20" stroke-width="2.000000" stroke-linecap="round" stroke-linejoin="round" fill="none"/><path d=" M 44.000000 1.000000 L 10.000000 1.000000 C 7.790861 1.000000 6.000000 2.790861 6.000000 5.000000 C 6.000000 7.209139 7.790861 9.000000 10.000000 9.000000 L 44.000000 9.000000 L 44.000000 47.000000 L 10.000000 47.000000 C 7.790861 47.000000 6.000000 45.209141 6.000000 43.000000 L 6.000000 6.000000" stroke="#231F20" stroke-width="2.000000" stroke-linecap="round" stroke-miterlimit="10.000000" fill="none"/><line x1="10.000000" y1="5.000000" x2="42.000000" y2="5.000000" stroke="#231F20" stroke-width="2.000000" stroke-linecap="round" stroke-miterlimit="10.000000" fill="none"/><line x1="4.000000" y1="15.000000" x2="8.000000" y2="15.000000" stroke="#231F20" stroke-width="2.000000" stroke-linecap="round" stroke-miterlimit="10.000000" fill="none"/><line x1="4.000000" y1="21.000000" x2="8.000000" y2="21.000000" stroke="#231F20" stroke-width="2.000000" stroke-linecap="round" stroke-miterlimit="10.000000" fill="none"/><line x1="4.000000" y1="27.000000" x2="8.000000" y2="27.000000" stroke="#231F20" stroke-width="2.000000" stroke-linecap="round" stroke-miterlimit="10.000000" fill="none"/><line x1="4.000000" y1="33.000000" x2="8.000000" y2="33.000000" stroke="#231F20" stroke-width="2.000000" stroke-linecap="round" stroke-miterlimit="10.000000" fill="none"/><line x1="4.000000" y1="39.000000" x2="8.000000" y2="39.000000" stroke="#231F20" stroke-width="2.000000" stroke-linecap="round" stroke-miterlimit="10.000000" fill="none"/></g></svg>