<svg version="1.1" viewBox="0.000000 0.000000 48.000000 48.000000" xmlns="http://www.w3.org/2000/svg" xmlns:xlink="http://www.w3.org/1999/xlink" overflow="hidden"><defs></defs><g id="icons"><path d=" M 25.000000 32.080002 L 25.000000 5.000000 C 25.000000 2.790861 23.209139 1.000000 21.000000 1.000000 C 18.790861 1.000000 17.000000 2.790861 17.000000 5.000000 L 17.000000 32.080002 C 13.173659 34.289143 11.862658 39.181866 14.071796 43.008205 C 16.280935 46.834545 21.173658 48.145546 25.000000 45.936409 C 28.826342 43.727268 30.137342 38.834545 27.928204 35.008205 C 27.226057 33.792053 26.216154 32.782150 25.000000 32.080002 Z" stroke="#231F20" stroke-width="2.000000" stroke-linecap="round" stroke-linejoin="round" fill="none"/><circle cx="21.000000" cy="39.000000" r="2.000000" stroke="#231F20" stroke-width="2.000000" stroke-linecap="round" stroke-linejoin="round" fill="none"/><line x1="21.000000" y1="37.000000" x2="21.000000" y2="5.000000" stroke="#231F20" stroke-width="2.000000" stroke-linecap="round" stroke-linejoin="round" fill="none"/><line x1="29.000000" y1="5.000000" x2="35.000000" y2="5.000000" stroke="#231F20" stroke-width="2.000000" stroke-linecap="round" stroke-linejoin="round" fill="none"/><line x1="29.000000" y1="15.000000" x2="31.000000" y2="15.000000" stroke="#231F20" stroke-width="2.000000" stroke-linecap="round" stroke-linejoin="round" fill="none"/><line x1="29.000000" y1="25.000000" x2="31.000000" y2="25.000000" stroke="#231F20" stroke-width="2.000000" stroke-linecap="round" stroke-linejoin="round" fill="none"/></g></svg>