<svg version="1.1" viewBox="0.000000 0.000000 48.000000 48.000000" xmlns="http://www.w3.org/2000/svg" xmlns:xlink="http://www.w3.org/1999/xlink" overflow="hidden"><defs></defs><g id="icons"><path d=" M 33.000000 26.000000 L 42.000000 26.000000 L 47.000000 34.000000 L 47.000000 37.000000 L 47.000000 41.000000 L 42.000000 41.000000" stroke="#231F20" stroke-width="2.000000" stroke-linejoin="round" fill="none"/><path d=" M 22.000000 41.000000 L 33.000000 41.000000 L 33.000000 20.000000 L 22.000000 20.000000" stroke="#231F20" stroke-width="2.000000" stroke-linejoin="round" fill="none"/><path d=" M 11.010000 25.000000 L 11.000000 41.000000 L 16.000000 41.000000" stroke="#231F20" stroke-width="2.000000" stroke-linejoin="round" fill="none"/><path d=" M 42.000000 41.000000 C 42.000000 42.656853 40.656853 44.000000 39.000000 44.000000 C 37.343147 44.000000 36.000000 42.656853 36.000000 41.000000 C 36.000000 39.343147 37.343147 38.000000 39.000000 38.000000 C 40.656853 38.000000 42.000000 39.343147 42.000000 41.000000 Z" stroke="#231F20" stroke-width="2.000000" stroke-linejoin="round" fill="none"/><path d=" M 22.000000 41.000000 C 22.000000 42.656853 20.656855 44.000000 19.000000 44.000000 C 17.343145 44.000000 16.000000 42.656853 16.000000 41.000000 C 16.000000 39.343147 17.343145 38.000000 19.000000 38.000000 C 20.656855 38.000000 22.000000 39.343147 22.000000 41.000000 Z" stroke="#231F20" stroke-width="2.000000" stroke-linejoin="round" fill="none"/><circle cx="10.010000" cy="13.010000" r="8.990000" stroke="#231F20" stroke-width="2.000000" stroke-linejoin="round" fill="none"/><path d=" M 9.010000 8.010000 L 9.010000 14.000000 L 13.010000 14.000000" stroke="#231F20" stroke-width="2.000000" stroke-linecap="round" stroke-linejoin="round" fill="none"/><line x1="1.000000" y1="31.000000" x2="7.010000" y2="31.000000" stroke="#231F20" stroke-width="2.000000" stroke-linecap="round" stroke-linejoin="round" fill="none"/><line x1="4.000000" y1="34.000000" x2="7.000000" y2="34.000000" stroke="#231F20" stroke-width="2.000000" stroke-linecap="round" stroke-linejoin="round" fill="none"/><line x1="6.000000" y1="37.000000" x2="7.000000" y2="37.000000" stroke="#231F20" stroke-width="2.000000" stroke-linecap="round" stroke-linejoin="round" fill="none"/><line x1="33.000000" y1="33.000000" x2="46.000000" y2="33.000000" stroke="#231F20" stroke-width="2.000000" stroke-linejoin="round" fill="none"/><line x1="33.000000" y1="41.000000" x2="36.000000" y2="41.000000" stroke="#231F20" stroke-width="2.000000" stroke-linejoin="round" fill="none"/></g></svg>