<svg version="1.1" viewBox="0.000000 0.000000 48.000000 48.000000" xmlns="http://www.w3.org/2000/svg" xmlns:xlink="http://www.w3.org/1999/xlink" overflow="hidden"><defs></defs><g id="icons"><path d=" M 42.000000 6.820000 C 44.816952 7.361810 46.888908 9.773568 47.000000 12.640000 L 47.000000 15.640000 C 47.007763 17.914104 45.266354 19.812243 43.000000 20.000000 L 37.000000 20.000000 C 34.733646 19.812243 32.992237 17.914103 33.000000 15.640000 L 33.000000 13.640000 C 27.014503 13.050022 20.985497 13.050022 15.000000 13.640000 L 15.000000 15.640000 C 15.007764 17.914104 13.266353 19.812243 11.000000 20.000000 L 5.000000 20.000000 C 2.733648 19.812243 0.992236 17.914103 1.000000 15.640000 L 1.000000 12.640000 C 1.111091 9.773568 3.183048 7.361810 6.000000 6.820000 C 17.877539 4.395508 30.122461 4.395508 42.000000 6.820000 Z" stroke="#231F20" stroke-width="2.000000" stroke-linecap="round" stroke-linejoin="round" fill="none"/><path d=" M 37.000000 23.000000 L 37.000000 39.000000 C 37.000000 41.209141 35.209141 43.000000 33.000000 43.000000 L 13.000000 43.000000 C 10.790861 43.000000 9.000000 41.209141 9.000000 39.000000 L 9.000000 23.000000" stroke="#231F20" stroke-width="2.000000" stroke-linejoin="round" fill="none"/><path d=" M 18.000000 26.000000 L 16.000000 26.000000 L 16.000000 28.000000 L 18.000000 28.000000 L 18.000000 26.000000 L 18.000000 26.000000 Z" fill="#231F20"/><path d=" M 24.000000 26.000000 L 22.000000 26.000000 L 22.000000 28.000000 L 24.000000 28.000000 L 24.000000 26.000000 L 24.000000 26.000000 Z" fill="#231F20"/><path d=" M 30.000000 26.000000 L 28.000000 26.000000 L 28.000000 28.000000 L 30.000000 28.000000 L 30.000000 26.000000 L 30.000000 26.000000 Z" fill="#231F20"/><path d=" M 18.000000 30.000000 L 16.000000 30.000000 L 16.000000 32.000000 L 18.000000 32.000000 L 18.000000 30.000000 L 18.000000 30.000000 Z" fill="#231F20"/><path d=" M 24.000000 30.000000 L 22.000000 30.000000 L 22.000000 32.000000 L 24.000000 32.000000 L 24.000000 30.000000 L 24.000000 30.000000 Z" fill="#231F20"/><path d=" M 30.000000 30.000000 L 28.000000 30.000000 L 28.000000 32.000000 L 30.000000 32.000000 L 30.000000 30.000000 L 30.000000 30.000000 Z" fill="#231F20"/><path d=" M 18.000000 34.000000 L 16.000000 34.000000 L 16.000000 36.000000 L 18.000000 36.000000 L 18.000000 34.000000 L 18.000000 34.000000 Z" fill="#231F20"/><path d=" M 24.000000 34.000000 L 22.000000 34.000000 L 22.000000 36.000000 L 24.000000 36.000000 L 24.000000 34.000000 L 24.000000 34.000000 Z" fill="#231F20"/><path d=" M 30.000000 34.000000 L 28.000000 34.000000 L 28.000000 36.000000 L 30.000000 36.000000 L 30.000000 34.000000 L 30.000000 34.000000 Z" fill="#231F20"/></g></svg>