<svg version="1.1" viewBox="0.000000 0.000000 48.000000 48.000000" xmlns="http://www.w3.org/2000/svg" xmlns:xlink="http://www.w3.org/1999/xlink" overflow="hidden"><defs></defs><g id="icons"><path d=" M 27.000000 28.000000 C 27.000000 30.209139 28.790861 32.000000 31.000000 32.000000 L 41.000000 32.000000 C 44.313709 32.000000 47.000000 29.313709 47.000000 26.000000 L 47.000000 22.000000 C 47.000000 18.686291 44.313709 16.000000 41.000000 16.000000 L 31.000000 16.000000 C 28.790861 16.000000 27.000000 17.790861 27.000000 20.000000" stroke="#231F20" stroke-width="2.000000" stroke-linecap="round" stroke-linejoin="round" fill="none"/><path d=" M 21.000000 28.000000 C 21.000000 30.209139 19.209139 32.000000 17.000000 32.000000 L 7.000000 32.000000 C 3.686291 32.000000 1.000000 29.313709 1.000000 26.000000 L 1.000000 22.000000 C 1.000000 18.686291 3.686291 16.000000 7.000000 16.000000 L 17.000000 16.000000 C 19.209139 16.000000 21.000000 17.790861 21.000000 20.000000" stroke="#231F20" stroke-width="2.000000" stroke-linecap="round" stroke-linejoin="round" fill="none"/><line x1="13.000000" y1="24.000000" x2="35.000000" y2="24.000000" stroke="#231F20" stroke-width="2.000000" stroke-linecap="round" stroke-linejoin="round" fill="none"/></g></svg>