<svg version="1.1" viewBox="0.000000 0.000000 48.000000 48.000000" xmlns="http://www.w3.org/2000/svg" xmlns:xlink="http://www.w3.org/1999/xlink" overflow="hidden"><defs></defs><g id="icons"><line x1="1.000000" y1="47.000000" x2="47.000000" y2="47.000000" stroke="#231F20" stroke-width="2.000000" stroke-linecap="round" stroke-linejoin="round" fill="none"/><path d=" M 3.000000 26.000000 L 3.000000 39.000000 C 3.000000 41.209141 4.790861 43.000000 7.000000 43.000000 L 41.000000 43.000000 C 43.209141 43.000000 45.000000 41.209141 45.000000 39.000000 L 45.000000 26.000000" stroke="#231F20" stroke-width="2.000000" stroke-linecap="round" stroke-linejoin="round" fill="none"/><path d=" M 3.000000 26.000000 C 3.000000 28.760000 6.000000 31.000000 8.000000 31.000000 C 10.000000 31.000000 13.000000 28.760000 13.000000 26.000000 C 13.185668 28.957249 15.542751 31.314331 18.500000 31.500000 C 21.457249 31.314331 23.814331 28.957249 24.000000 26.000000 C 24.185669 28.957249 26.542751 31.314331 29.500000 31.500000 C 32.457249 31.314331 34.814331 28.957249 35.000000 26.000000 C 35.000000 28.760000 38.000000 31.000000 40.000000 31.000000 C 42.000000 31.000000 45.000000 28.760000 45.000000 26.000000 L 45.000000 21.000000 L 3.000000 21.000000 Z" stroke="#231F20" stroke-width="2.000000" stroke-linecap="round" stroke-linejoin="round" fill="none"/><path d=" M 14.000000 6.000000 C 14.000000 7.656854 12.656855 9.000000 11.000000 9.000000 C 9.343145 9.000000 8.000000 7.656854 8.000000 6.000000 C 8.000000 4.340000 11.000000 1.000000 11.000000 1.000000 C 11.000000 1.000000 14.000000 4.340000 14.000000 6.000000 Z" stroke="#231F20" stroke-width="2.000000" stroke-linecap="round" stroke-linejoin="round" fill="none"/><path d=" M 40.000000 6.000000 C 40.000000 7.656854 38.656853 9.000000 37.000000 9.000000 C 35.343147 9.000000 34.000000 7.656854 34.000000 6.000000 C 34.000000 4.340000 37.000000 1.000000 37.000000 1.000000 C 37.000000 1.000000 40.000000 4.340000 40.000000 6.000000 Z" stroke="#231F20" stroke-width="2.000000" stroke-linecap="round" stroke-linejoin="round" fill="none"/><path d=" M 27.000000 6.000000 C 27.000000 7.656854 25.656855 9.000000 24.000000 9.000000 C 22.343145 9.000000 21.000000 7.656854 21.000000 6.000000 C 21.000000 4.340000 24.000000 1.000000 24.000000 1.000000 C 24.000000 1.000000 27.000000 4.340000 27.000000 6.000000 Z" stroke="#231F20" stroke-width="2.000000" stroke-linecap="round" stroke-linejoin="round" fill="none"/><rect x="22.000000" y="13.000000" width="4.000000" height="8.000000" stroke="#231F20" stroke-width="2.000000" stroke-linecap="round" stroke-linejoin="round" fill="none"/><rect x="9.000000" y="13.000000" width="4.000000" height="8.000000" stroke="#231F20" stroke-width="2.000000" stroke-linecap="round" stroke-linejoin="round" fill="none"/><rect x="35.000000" y="13.000000" width="4.000000" height="8.000000" stroke="#231F20" stroke-width="2.000000" stroke-linecap="round" stroke-linejoin="round" fill="none"/></g></svg>