<svg version="1.1" viewBox="0.000000 0.000000 48.000000 48.000000" xmlns="http://www.w3.org/2000/svg" xmlns:xlink="http://www.w3.org/1999/xlink" overflow="hidden"><defs></defs><g id="icons"><path d=" M 41.000000 46.580002 C 39.540001 47.509998 37.000000 46.880001 37.000000 44.880001 C 37.000000 41.880001 32.000000 41.880001 32.000000 44.880001 C 32.000000 47.880001 27.000000 47.880001 27.000000 44.880001 C 27.000000 41.880001 22.000000 41.880001 22.000000 44.880001 C 22.000000 47.880001 17.000000 47.880001 17.000000 44.880001 C 17.000000 41.880001 12.000000 41.880001 12.000000 44.880001 C 12.000000 46.880001 9.450000 47.570000 8.000000 46.650002" stroke="#231F20" stroke-width="2.000000" stroke-linecap="round" stroke-miterlimit="10.000000" fill="none"/><line x1="23.990000" y1="42.880000" x2="23.990000" y2="18.880000" stroke="#231F20" stroke-width="2.000000" stroke-linecap="round" stroke-miterlimit="10.000000" fill="none"/><path d=" M 6.990000 22.879999 L 23.990000 18.879999 L 40.990002 22.879999" stroke="#231F20" stroke-width="2.000000" stroke-linecap="round" stroke-miterlimit="10.000000" fill="none"/><line x1="8.990000" y1="22.400000" x2="13.990000" y2="42.380000" stroke="#231F20" stroke-width="2.000000" stroke-miterlimit="10.000000" fill="none"/><line x1="38.990000" y1="22.400000" x2="33.990000" y2="42.490000" stroke="#231F20" stroke-width="2.000000" stroke-miterlimit="10.000000" fill="none"/><path d=" M 13.000000 21.459999 L 13.000000 14.880000 C 13.000000 12.670861 14.790861 10.880000 17.000000 10.880000 L 31.000000 10.880000 C 33.209141 10.880000 35.000000 12.670861 35.000000 14.880000 L 35.000000 21.459999" stroke="#231F20" stroke-width="2.000000" stroke-linecap="round" stroke-linejoin="round" fill="none"/><line x1="18.990000" y1="14.880000" x2="28.990000" y2="14.880000" stroke="#231F20" stroke-width="2.000000" stroke-linecap="round" stroke-linejoin="round" fill="none"/><path d=" M 20.990000 10.880000 L 20.990000 0.880000 L 26.990000 0.880000 L 26.990000 10.880000" stroke="#231F20" stroke-width="2.000000" stroke-linecap="round" stroke-linejoin="round" fill="none"/><line x1="20.990000" y1="4.880000" x2="26.990000" y2="4.880000" stroke="#231F20" stroke-width="2.000000" stroke-linecap="round" stroke-linejoin="round" fill="none"/><path d=" M 10.710000 29.059999 L 23.990000 24.879999 L 37.299999 29.000000" stroke="#231F20" stroke-width="2.000000" stroke-linecap="round" stroke-linejoin="round" fill="none"/></g></svg>