<svg version="1.1" viewBox="0.000000 0.000000 48.000000 48.000000" xmlns="http://www.w3.org/2000/svg" xmlns:xlink="http://www.w3.org/1999/xlink" overflow="hidden"><defs></defs><g id="icons"><rect x="19.000000" y="9.000000" width="10.000000" height="6.000000" stroke="#231F20" stroke-width="2.000000" stroke-linecap="round" stroke-linejoin="round" fill="none"/><path d=" M 14.000000 23.000000 L 14.000000 20.930000 C 13.999299 19.864092 14.862821 18.999432 15.928730 18.998732 C 15.952493 18.998716 15.976254 18.999140 16.000000 19.000002 L 32.000000 19.000000 C 33.070919 18.966850 33.965942 19.808130 33.999092 20.879049 C 33.999619 20.896029 33.999920 20.913013 34.000000 20.929998 L 34.000000 23.000000" stroke="#231F20" stroke-width="2.000000" stroke-linecap="round" stroke-linejoin="round" fill="none"/><path d=" M 2.000000 38.930000 C 1.999299 37.864090 2.862820 36.999432 3.928730 36.998730 C 3.952492 36.998714 3.976253 36.999138 4.000000 37.000000 L 20.000000 37.000000 C 21.070919 36.966850 21.965944 37.808132 21.999092 38.879051 C 21.999619 38.896030 21.999920 38.913013 22.000000 38.930000 L 22.000000 43.000000 L 2.000000 43.000000 Z" stroke="#231F20" stroke-width="2.000000" stroke-linecap="round" stroke-linejoin="round" fill="none"/><path d=" M 26.000000 38.930000 C 25.999298 37.864090 26.862820 36.999432 27.928730 36.998730 C 27.952492 36.998714 27.976254 36.999138 28.000000 37.000000 L 44.000000 37.000000 C 45.070919 36.966850 45.965942 37.808132 45.999092 38.879051 C 45.999619 38.896030 45.999920 38.913013 46.000000 38.930000 L 46.000000 43.000000 L 26.000000 43.000000 Z" stroke="#231F20" stroke-width="2.000000" stroke-linecap="round" stroke-linejoin="round" fill="none"/><path d=" M 15.000000 19.209999 L 15.000000 7.930000 C 15.005184 6.306291 16.325663 4.994218 17.949373 4.999402 C 17.966251 4.999456 17.983128 4.999655 18.000000 5.000000 L 30.000000 5.000000 C 31.623379 4.966855 32.966255 6.255993 32.999401 7.879373 C 32.999744 7.896246 32.999947 7.913123 33.000000 7.930000 L 33.000000 19.290001" stroke="#231F20" stroke-width="2.000000" stroke-linecap="round" stroke-linejoin="round" fill="none"/><rect x="7.000000" y="27.000000" width="10.000000" height="6.000000" stroke="#231F20" stroke-width="2.000000" stroke-linecap="round" stroke-linejoin="round" fill="none"/><path d=" M 3.000000 37.209999 L 3.000000 25.930000 C 3.005184 24.306292 4.325664 22.994219 5.949372 22.999403 C 5.966249 22.999456 5.983126 22.999657 6.000000 23.000000 L 18.000000 23.000000 C 19.623379 22.966854 20.966257 24.255993 20.999403 25.879372 C 20.999748 25.896246 20.999947 25.913122 21.000000 25.929998 L 21.000000 37.250000" stroke="#231F20" stroke-width="2.000000" stroke-linecap="round" stroke-linejoin="round" fill="none"/><rect x="31.000000" y="27.000000" width="10.000000" height="6.000000" stroke="#231F20" stroke-width="2.000000" stroke-linecap="round" stroke-linejoin="round" fill="none"/><path d=" M 27.000000 37.209999 L 27.000000 25.930000 C 27.005184 24.306292 28.325663 22.994219 29.949373 22.999403 C 29.966251 22.999456 29.983128 22.999657 30.000000 23.000000 L 42.000000 23.000000 C 43.623379 22.966854 44.966255 24.255993 44.999401 25.879372 C 44.999744 25.896246 44.999947 25.913122 45.000000 25.929998 L 45.000000 37.250000" stroke="#231F20" stroke-width="2.000000" stroke-linecap="round" stroke-linejoin="round" fill="none"/><line x1="20.830000" y1="25.000000" x2="27.170000" y2="25.000000" stroke="#231F20" stroke-width="2.000000" stroke-linecap="round" stroke-linejoin="round" fill="none"/></g></svg>