<svg version="1.1" viewBox="0.000000 0.000000 48.000000 48.000000" xmlns="http://www.w3.org/2000/svg" xmlns:xlink="http://www.w3.org/1999/xlink" overflow="hidden"><defs></defs><g id="icons"><path d=" M 21.000000 31.200001 L 21.000000 34.000000 L 15.000000 35.450001 C 13.912384 35.748135 13.140965 36.713417 13.090000 37.840000 L 13.090000 39.000000" stroke="#231F20" stroke-width="2.000000" stroke-miterlimit="10.000000" fill="none"/><path d=" M 27.000000 31.190001 L 27.000000 34.000000 L 33.000000 35.450001 C 34.098866 35.730877 34.878349 36.706245 34.910000 37.840000 L 34.910000 38.939999" stroke="#231F20" stroke-width="2.000000" stroke-miterlimit="10.000000" fill="none"/><path d=" M 30.000000 25.540001 C 30.146767 29.001968 27.461769 31.928617 24.000000 32.080002 C 20.538231 31.928617 17.853233 29.001970 18.000000 25.540001 C 17.858818 22.080074 20.540745 19.156775 24.000000 19.000000 C 27.459255 19.156773 30.141182 22.080072 30.000000 25.540001 Z" stroke="#231F20" stroke-width="2.000000" stroke-miterlimit="10.000000" fill="none"/><path d=" M 29.920000 24.420000 C 28.373663 25.504646 26.240829 25.130371 25.156181 23.584034 C 25.100697 23.504932 25.048590 23.423513 25.000000 23.340000 C 23.158560 25.127750 20.355301 25.478666 18.129999 24.200001" stroke="#231F20" stroke-width="2.000000" stroke-linejoin="round" fill="none"/><path d=" M 29.000000 9.000000 L 41.000000 9.000000 L 41.000000 47.000000 L 7.000000 47.000000 L 7.000000 9.000000 L 19.000000 9.000000" stroke="#231F20" stroke-width="2.000000" stroke-linejoin="round" fill="none"/><path d=" M 29.000000 15.000000 L 19.000000 15.000000 L 19.000000 6.000000 C 19.000000 3.238576 21.238577 1.000000 24.000000 1.000000 C 26.761423 1.000000 29.000000 3.238576 29.000000 6.000000 Z" stroke="#231F20" stroke-width="2.000000" stroke-linejoin="round" fill="none"/><path d=" M 24.000000 4.000000 C 22.895430 4.000000 22.000000 4.895431 22.000000 6.000000 C 22.000000 7.104569 22.895430 8.000000 24.000000 8.000000 C 25.104570 8.000000 26.000000 7.104569 26.000000 6.000000 C 26.000000 4.895431 25.104570 4.000000 24.000000 4.000000 Z" fill="#231F20"/><line x1="7.000000" y1="39.000000" x2="41.000000" y2="39.000000" stroke="#231F20" stroke-width="2.000000" stroke-linejoin="round" fill="none"/><line x1="28.000000" y1="43.000000" x2="36.000000" y2="43.000000" stroke="#231F20" stroke-width="2.000000" stroke-miterlimit="10.000000" fill="none"/></g></svg>