<svg version="1.1" viewBox="0.000000 0.000000 48.000000 48.000000" xmlns="http://www.w3.org/2000/svg" xmlns:xlink="http://www.w3.org/1999/xlink" overflow="hidden"><defs></defs><g id="icons"><line x1="12.960000" y1="9.150000" x2="8.960000" y2="5.150000" stroke="#231F20" stroke-width="2.000000" stroke-linecap="round" stroke-linejoin="round" fill="none"/><line x1="18.910000" y1="7.000000" x2="18.910000" y2="2.000000" stroke="#231F20" stroke-width="2.000000" stroke-linecap="round" stroke-linejoin="round" fill="none"/><line x1="10.910000" y1="15.000000" x2="5.910000" y2="15.000000" stroke="#231F20" stroke-width="2.000000" stroke-linecap="round" stroke-linejoin="round" fill="none"/><path d=" M 22.000000 37.150002 L 15.150000 44.000000 C 12.416469 46.733810 7.984314 46.734035 5.250504 44.000504 C 5.250336 44.000336 5.250168 44.000168 5.250000 44.000000 L 3.130000 41.840000 C 0.396191 39.106468 0.395964 34.674316 3.129495 31.940506 C 3.129663 31.940338 3.129832 31.940168 3.130000 31.940001 L 9.940000 25.129999" stroke="#231F20" stroke-width="2.000000" stroke-linecap="round" stroke-linejoin="round" fill="none"/><path d=" M 30.910000 15.000000 L 39.910000 15.000000 C 43.800137 15.081629 46.910854 18.259008 46.910000 22.150000 L 46.910000 26.150000 C 46.860588 29.971155 43.731327 33.033360 39.910000 33.000000 L 30.910000 33.000000" stroke="#231F20" stroke-width="2.000000" stroke-linecap="round" stroke-linejoin="round" fill="none"/></g></svg>