<svg version="1.1" viewBox="0.000000 0.000000 48.000000 48.000000" xmlns="http://www.w3.org/2000/svg" xmlns:xlink="http://www.w3.org/1999/xlink" overflow="hidden"><defs></defs><g id="icons"><path d=" M 19.780001 4.220000 C 15.483225 -0.076776 8.516776 -0.076775 4.220001 4.220000 C -0.076774 8.516775 -0.076774 15.483224 4.220001 19.779999 L 28.219999 43.779999 C 32.516773 48.076775 39.483223 48.076775 43.779999 43.779999 C 48.076775 39.483223 48.076775 32.516773 43.779999 28.219999 Z" stroke="#000000" stroke-width="2.000000" stroke-linecap="round" stroke-linejoin="round" fill="none"/><rect x="13.000000" y="17.000000" width="22.000000" height="14.000000" stroke="#000000" stroke-width="2.000000" stroke-linecap="round" stroke-linejoin="round" fill="none" transform="matrix(0.707107,-0.707107,0.707107,0.707107,-9.940000,24.000000)"/><path d=" M 8.450000 15.930000 C 7.897720 15.927685 7.448132 16.373518 7.445816 16.925798 C 7.443500 17.478079 7.889334 17.927668 8.441614 17.929983 C 8.706856 17.931095 8.961674 17.826784 9.150000 17.640001 C 9.542122 17.251081 9.544718 16.617922 9.155798 16.225800 C 9.153873 16.223860 9.151940 16.221926 9.150000 16.220001 C 8.963739 16.035257 8.712339 15.931106 8.450000 15.930001 Z"/><path d=" M 12.690000 11.690000 C 12.428282 11.699000 12.180537 11.810307 12.000000 12.000000 C 11.607868 12.388910 11.605257 13.022070 11.994167 13.414202 C 12.183355 13.604957 12.441341 13.711562 12.710000 13.710000 C 13.262280 13.707685 13.708114 13.258096 13.705798 12.705816 C 13.704686 12.440630 13.598286 12.186745 13.410000 12.000000 C 13.223740 11.815256 12.972340 11.711104 12.710000 11.710000 Z"/><path d=" M 7.740000 11.000000 C 7.474197 10.998464 7.218719 11.102814 7.030000 11.290000 C 6.637877 11.678920 6.635282 12.312079 7.024201 12.704202 C 7.026126 12.706142 7.028059 12.708076 7.030000 12.710000 C 7.218719 12.897186 7.474197 13.001536 7.740000 13.000000 C 8.002339 12.998896 8.253739 12.894744 8.440000 12.710000 C 8.832122 12.321080 8.834718 11.687921 8.445798 11.295798 C 8.443873 11.293858 8.441940 11.291924 8.440000 11.290000 C 8.253739 11.105256 8.002339 11.001104 7.740000 11.000000 Z"/><path d=" M 12.000000 6.740000 C 11.734197 6.738463 11.478719 6.842813 11.290000 7.030000 C 10.901080 7.422122 10.903676 8.055282 11.295798 8.444201 C 11.687921 8.833121 12.321080 8.830525 12.710000 8.438403 C 13.096666 8.048553 13.096666 7.419850 12.710000 7.030000 C 12.521281 6.842813 12.265803 6.738463 12.000000 6.740000 Z"/><path d=" M 13.390000 16.629999 C 13.126231 16.633757 12.874631 16.741585 12.690001 16.929998 C 12.302277 17.320036 12.302277 17.949961 12.690001 18.339998 C 13.080038 18.727722 13.709963 18.727722 14.100000 18.339998 C 14.487724 17.949961 14.487724 17.320036 14.100000 16.929998 C 13.912929 16.739143 13.657247 16.631107 13.390000 16.629999 Z"/><path d=" M 17.639999 12.390000 C 17.372753 12.391109 17.117071 12.499145 16.930000 12.690001 C 16.542276 13.080038 16.542276 13.709963 16.930000 14.100000 C 17.320038 14.487724 17.949963 14.487724 18.340000 14.100000 C 18.732126 13.711085 18.734732 13.077926 18.345816 12.685799 C 18.159071 12.497513 17.905186 12.391112 17.639999 12.390000 Z"/><path d=" M 16.930000 7.440000 C 16.377726 7.436788 15.927414 7.881892 15.924202 8.434168 C 15.922640 8.702826 16.029245 8.960813 16.220001 9.150001 C 16.608921 9.542123 17.242081 9.544719 17.634203 9.155799 C 17.636143 9.153874 17.638077 9.151941 17.640001 9.150001 C 18.032133 8.761090 18.034744 8.127931 17.645834 7.735799 C 17.456646 7.545044 17.198660 7.438438 16.930002 7.440001 Z"/><path d=" M 31.070000 38.560001 C 30.517725 38.556789 30.067413 39.001892 30.064201 39.554169 C 30.062639 39.822826 30.169245 40.080814 30.360001 40.270000 C 30.548719 40.457188 30.804197 40.561539 31.070000 40.560001 C 31.335802 40.561539 31.591280 40.457188 31.779999 40.270000 C 32.172119 39.881081 32.174717 39.247921 31.785797 38.855801 C 31.783873 38.853859 31.781939 38.851929 31.779999 38.850002 C 31.591280 38.662815 31.335802 38.558464 31.070000 38.560001 Z"/><path d=" M 35.310001 34.310001 C 35.046230 34.313759 34.794632 34.421589 34.610001 34.610001 C 34.222279 35.000038 34.222279 35.629963 34.610001 36.020000 C 35.002968 36.389130 35.617817 36.380283 36.000000 36.000000 C 36.387722 35.609962 36.387722 34.980038 36.000000 34.590000 C 35.812927 34.399143 35.557247 34.291111 35.290001 34.290001 Z"/><path d=" M 36.000000 39.259998 C 35.732754 39.261108 35.477070 39.369144 35.290001 39.559998 C 34.903397 39.954403 34.909721 40.587536 35.304127 40.974140 C 35.490036 41.156372 35.739677 41.258923 36.000000 41.259998 C 36.265804 41.261536 36.521282 41.157185 36.709999 40.969997 C 37.102131 40.581085 37.104740 39.947926 36.715832 39.555798 C 36.526646 39.365044 36.268658 39.258438 36.000000 39.259998 Z"/><path d=" M 40.270000 35.000000 C 39.717720 34.997673 39.268124 35.443501 39.265800 35.995781 C 39.263474 36.548061 39.709301 36.997658 40.261581 36.999981 C 40.813862 37.002308 41.263458 36.556480 41.265781 36.004200 C 41.266911 35.736111 41.160343 35.478794 40.970001 35.289997 C 40.783741 35.105251 40.532341 35.001102 40.270000 34.999996 Z"/><path d=" M 30.360001 33.610001 C 30.097660 33.611107 29.846262 33.715256 29.660000 33.900002 C 29.272276 34.290039 29.272276 34.919964 29.660000 35.310001 C 30.050037 35.697723 30.679962 35.697723 31.070000 35.310001 C 31.457724 34.919964 31.457724 34.290039 31.070000 33.900002 C 30.881281 33.712814 30.625803 33.608463 30.360001 33.610001 Z"/><path d=" M 34.610001 29.360001 C 34.057724 29.356789 33.607414 29.801893 33.604202 30.354168 C 33.602638 30.622826 33.709248 30.880812 33.900002 31.070000 C 34.088722 31.257187 34.344200 31.361536 34.610001 31.360001 C 34.872341 31.358896 35.123741 31.254745 35.310001 31.070000 C 35.702129 30.681086 35.704731 30.047926 35.315819 29.655798 C 35.129074 29.467512 34.875191 29.361111 34.610004 29.359999 Z"/><path d=" M 39.560001 30.070000 C 39.294197 30.068462 39.038719 30.172813 38.850002 30.360001 C 38.457882 30.748920 38.455284 31.382080 38.844204 31.774202 C 38.846130 31.776142 38.848061 31.778076 38.850002 31.780001 C 39.038723 31.967188 39.294201 32.071537 39.560001 32.070000 C 39.822342 32.068893 40.073742 31.964745 40.260002 31.779999 C 40.652122 31.391079 40.654720 30.757919 40.265800 30.365797 C 40.263874 30.363857 40.261944 30.361923 40.260002 30.359999 C 40.073742 30.175255 39.822342 30.071104 39.560001 30.069998 Z"/></g></svg>