<svg version="1.1" viewBox="0.000000 0.000000 48.000000 48.000000" xmlns="http://www.w3.org/2000/svg" xmlns:xlink="http://www.w3.org/1999/xlink" overflow="hidden"><defs></defs><g id="icons"><rect x="11.000000" y="5.000000" width="26.000000" height="30.000000" stroke="#231F20" stroke-width="2.000000" stroke-miterlimit="10.000000" fill="none"/><path d=" M 17.000000 40.000000 C 16.447716 40.000000 16.000000 40.447716 16.000000 41.000000 C 16.000000 41.552284 16.447716 42.000000 17.000000 42.000000 C 17.552284 42.000000 18.000000 41.552284 18.000000 41.000000 C 18.000000 40.447716 17.552284 40.000000 17.000000 40.000000 Z" fill="#231F20"/><path d=" M 13.000000 40.000000 C 12.447715 40.000000 12.000000 40.447716 12.000000 41.000000 C 12.000000 41.552284 12.447715 42.000000 13.000000 42.000000 C 13.552285 42.000000 14.000000 41.552284 14.000000 41.000000 C 14.000000 40.447716 13.552285 40.000000 13.000000 40.000000 Z" fill="#231F20"/><path d=" M 35.000000 40.000000 C 34.447716 40.000000 34.000000 40.447716 34.000000 41.000000 C 34.000000 41.552284 34.447716 42.000000 35.000000 42.000000 C 35.552284 42.000000 36.000000 41.552284 36.000000 41.000000 C 36.000000 40.447716 35.552284 40.000000 35.000000 40.000000 Z" fill="#231F20"/><path d=" M 31.000000 40.000000 C 30.447716 40.000000 30.000000 40.447716 30.000000 41.000000 C 30.000000 41.552284 30.447716 42.000000 31.000000 42.000000 C 31.552284 42.000000 32.000000 41.552284 32.000000 41.000000 C 32.000000 40.447716 31.552284 40.000000 31.000000 40.000000 Z" fill="#231F20"/><line x1="16.000000" y1="27.000000" x2="32.000000" y2="27.000000" stroke="#231F20" stroke-width="2.000000" stroke-miterlimit="10.000000" fill="none"/><line x1="16.000000" y1="23.000000" x2="32.000000" y2="23.000000" stroke="#231F20" stroke-width="2.000000" stroke-miterlimit="10.000000" fill="none"/><line x1="16.000000" y1="19.000000" x2="32.000000" y2="19.000000" stroke="#231F20" stroke-width="2.000000" stroke-miterlimit="10.000000" fill="none"/><line x1="16.000000" y1="15.000000" x2="32.000000" y2="15.000000" stroke="#231F20" stroke-width="2.000000" stroke-miterlimit="10.000000" fill="none"/><line x1="16.000000" y1="11.000000" x2="26.000000" y2="11.000000" stroke="#231F20" stroke-width="2.000000" stroke-miterlimit="10.000000" fill="none"/><line x1="5.000000" y1="19.000000" x2="11.000000" y2="19.000000" stroke="#231F20" stroke-width="2.000000" stroke-miterlimit="10.000000" fill="none"/><line x1="5.000000" y1="25.000000" x2="11.000000" y2="25.000000" stroke="#231F20" stroke-width="2.000000" stroke-miterlimit="10.000000" fill="none"/><line x1="5.000000" y1="31.000000" x2="11.000000" y2="31.000000" stroke="#231F20" stroke-width="2.000000" stroke-miterlimit="10.000000" fill="none"/><line x1="37.000000" y1="19.000000" x2="43.000000" y2="19.000000" stroke="#231F20" stroke-width="2.000000" stroke-miterlimit="10.000000" fill="none"/><line x1="37.000000" y1="25.000000" x2="43.000000" y2="25.000000" stroke="#231F20" stroke-width="2.000000" stroke-miterlimit="10.000000" fill="none"/><line x1="37.000000" y1="31.000000" x2="43.000000" y2="31.000000" stroke="#231F20" stroke-width="2.000000" stroke-miterlimit="10.000000" fill="none"/><rect x="5.000000" y="1.000000" rx="4.000000" ry="4.000000" width="38.000000" height="46.000000" stroke="#231F20" stroke-width="2.000000" stroke-miterlimit="10.000000" fill="none"/><rect x="21.000000" y="39.000000" rx="1.000000" ry="1.000000" width="6.000000" height="4.000000" stroke="#231F20" stroke-width="2.000000" stroke-miterlimit="10.000000" fill="none"/></g></svg>