<svg version="1.1" viewBox="0.000000 0.000000 48.000000 48.000000" xmlns="http://www.w3.org/2000/svg" xmlns:xlink="http://www.w3.org/1999/xlink" overflow="hidden"><defs></defs><g id="icons"><path d=" M 6.000000 43.000000 L 41.000000 43.000000 C 44.313709 43.000000 47.000000 40.313709 47.000000 37.000000 L 47.000000 13.000000 L 11.000000 13.000000 L 11.000000 38.000000 C 11.000000 40.761425 8.761424 43.000000 6.000000 43.000000 C 3.238576 43.000000 1.000000 40.761425 1.000000 38.000000 L 1.000000 5.000000 L 15.000000 5.000000 L 15.000000 9.000000 L 41.000000 9.000000 L 41.000000 13.000000" stroke="#231F20" stroke-width="2.000000" stroke-linecap="round" stroke-linejoin="round" fill="none"/><path d=" M 35.000000 13.000000 L 35.000000 17.000000 L 37.000000 17.000000 L 37.000000 27.000000 L 31.000000 27.000000 L 31.000000 17.000000" stroke="#231F20" stroke-width="2.000000" stroke-linecap="round" stroke-linejoin="round" fill="none"/><path d=" M 35.000000 23.000000 L 33.000000 23.000000 L 33.000000 25.000000 L 35.000000 25.000000 L 35.000000 23.000000 L 35.000000 23.000000 Z" fill="#231F20"/><line x1="33.000000" y1="31.000000" x2="35.000000" y2="31.000000" stroke="#231F20" stroke-width="2.000000" stroke-linecap="round" stroke-linejoin="round" stroke-dasharray="2.000000 4.000000" fill="none"/><line x1="33.000000" y1="35.000000" x2="35.000000" y2="35.000000" stroke="#231F20" stroke-width="2.000000" stroke-linecap="round" stroke-linejoin="round" stroke-dasharray="2.000000 4.000000" fill="none"/><line x1="33.000000" y1="39.000000" x2="35.000000" y2="39.000000" stroke="#231F20" stroke-width="2.000000" stroke-linecap="round" stroke-linejoin="round" stroke-dasharray="2.000000 4.000000" fill="none"/><line x1="35.000000" y1="33.000000" x2="37.000000" y2="33.000000" stroke="#231F20" stroke-width="2.000000" stroke-linecap="round" stroke-linejoin="round" stroke-dasharray="2.000000 4.000000" fill="none"/><line x1="35.000000" y1="37.000000" x2="37.000000" y2="37.000000" stroke="#231F20" stroke-width="2.000000" stroke-linecap="round" stroke-linejoin="round" stroke-dasharray="2.000000 4.000000" fill="none"/><line x1="35.000000" y1="41.000000" x2="37.000000" y2="41.000000" stroke="#231F20" stroke-width="2.000000" stroke-linecap="round" stroke-linejoin="round" stroke-dasharray="2.000000 4.000000" fill="none"/></g></svg>