<svg version="1.1" viewBox="0.000000 0.000000 48.000000 48.000000" xmlns="http://www.w3.org/2000/svg" xmlns:xlink="http://www.w3.org/1999/xlink" overflow="hidden"><defs></defs><g id="icons"><path d=" M 23.000000 13.000000 L 23.000000 1.000000 L 38.000000 1.000000 L 43.000000 5.000000 L 43.000000 13.000000" stroke="#231F20" stroke-width="2.000000" stroke-miterlimit="10.000000" fill="none"/><line x1="26.000000" y1="5.000000" x2="35.000000" y2="5.000000" stroke="#231F20" stroke-width="2.000000" stroke-miterlimit="10.000000" fill="none"/><line x1="26.000000" y1="9.000000" x2="40.000000" y2="9.000000" stroke="#231F20" stroke-width="2.000000" stroke-miterlimit="10.000000" fill="none"/><rect x="5.000000" y="8.000000" rx="4.000000" ry="4.000000" width="14.000000" height="39.000000" stroke="#231F20" stroke-width="2.000000" stroke-miterlimit="10.000000" fill="none"/><path d=" M 19.000000 13.000000 L 45.000000 13.000000 C 46.104568 13.000000 47.000000 13.895431 47.000000 15.000000 L 47.000000 41.000000 C 47.000000 42.104568 46.104568 43.000000 45.000000 43.000000 L 19.000000 43.000000" stroke="#231F20" stroke-width="2.000000" stroke-miterlimit="10.000000" fill="none"/><path d=" M 5.000000 43.000000 L 3.000000 43.000000 C 1.895430 43.000000 1.000000 42.104568 1.000000 41.000000 L 1.000000 15.000000 C 1.000000 13.895431 1.895430 13.000000 3.000000 13.000000 L 5.000000 13.000000" stroke="#231F20" stroke-width="2.000000" stroke-miterlimit="10.000000" fill="none"/><rect x="27.000000" y="17.000000" width="12.000000" height="4.000000" stroke="#231F20" stroke-width="2.000000" stroke-miterlimit="10.000000" fill="none"/><line x1="9.000000" y1="8.000000" x2="9.000000" y2="1.000000" stroke="#231F20" stroke-width="2.000000" stroke-linecap="round" stroke-miterlimit="10.000000" fill="none"/><path d=" M 28.000000 26.000000 L 26.000000 26.000000 L 26.000000 28.000000 L 28.000000 28.000000 L 28.000000 26.000000 L 28.000000 26.000000 Z" fill="#231F20"/><path d=" M 34.000000 26.000000 L 32.000000 26.000000 L 32.000000 28.000000 L 34.000000 28.000000 L 34.000000 26.000000 L 34.000000 26.000000 Z" fill="#231F20"/><path d=" M 40.000000 26.000000 L 38.000000 26.000000 L 38.000000 28.000000 L 40.000000 28.000000 L 40.000000 26.000000 L 40.000000 26.000000 Z" fill="#231F20"/><path d=" M 28.000000 30.000000 L 26.000000 30.000000 L 26.000000 32.000000 L 28.000000 32.000000 L 28.000000 30.000000 L 28.000000 30.000000 Z" fill="#231F20"/><path d=" M 34.000000 30.000000 L 32.000000 30.000000 L 32.000000 32.000000 L 34.000000 32.000000 L 34.000000 30.000000 L 34.000000 30.000000 Z" fill="#231F20"/><path d=" M 40.000000 30.000000 L 38.000000 30.000000 L 38.000000 32.000000 L 40.000000 32.000000 L 40.000000 30.000000 L 40.000000 30.000000 Z" fill="#231F20"/><path d=" M 28.000000 34.000000 L 26.000000 34.000000 L 26.000000 36.000000 L 28.000000 36.000000 L 28.000000 34.000000 L 28.000000 34.000000 Z" fill="#231F20"/><path d=" M 34.000000 34.000000 L 32.000000 34.000000 L 32.000000 36.000000 L 34.000000 36.000000 L 34.000000 34.000000 L 34.000000 34.000000 Z" fill="#231F20"/><path d=" M 40.000000 34.000000 L 38.000000 34.000000 L 38.000000 36.000000 L 40.000000 36.000000 L 40.000000 34.000000 L 40.000000 34.000000 Z" fill="#231F20"/></g></svg>