<svg version="1.1" viewBox="0.000000 0.000000 48.000000 48.000000" xmlns="http://www.w3.org/2000/svg" xmlns:xlink="http://www.w3.org/1999/xlink" overflow="hidden"><defs></defs><g id="icons"><path d=" M 16.510000 35.730000 L 35.730000 16.510000 C 38.731697 17.782282 42.205170 17.105785 44.509998 14.800000 C 46.807922 12.552732 47.487370 9.123718 46.219997 6.170000 L 42.389999 10.170000 L 38.150002 10.170000 L 38.150002 5.610000 L 42.000000 1.780000 C 37.938755 0.040040 33.235947 1.921815 31.495987 5.983061 C 30.636120 7.990079 30.633957 10.261348 31.490000 12.270000 L 12.270000 31.490000 C 8.205447 29.757778 3.506234 31.648508 1.774013 35.713062 C 0.917971 37.721714 0.920134 39.992985 1.780000 42.000000 L 5.610000 38.169998 L 10.150000 38.169998 L 10.150000 42.410000 L 6.150000 46.240002 C 9.126029 47.510334 12.576159 46.832207 14.850000 44.530003 C 17.147081 42.210163 17.804083 38.727264 16.510000 35.730003 Z" stroke="#231F20" stroke-width="2.000000" stroke-linejoin="round" fill="none"/><path d=" M 24.000000 19.760000 L 16.510000 12.270000 C 17.782282 9.268303 17.105785 5.794830 14.800000 3.490000 C 12.555566 1.186843 9.123093 0.506712 6.170000 1.780000 L 10.170000 5.610000 L 10.170000 10.150000 L 5.610000 10.150000 L 1.780000 6.150000 C 0.068561 10.193378 1.958972 14.858579 6.002349 16.570017 C 8.007522 17.418745 10.273048 17.407894 12.270000 16.539999 L 19.760000 24.000000" stroke="#231F20" stroke-width="2.000000" stroke-linejoin="round" fill="none"/><path d=" M 24.000000 28.240000 L 31.490000 35.740002 C 29.764530 39.807426 31.663059 44.503494 35.730484 46.228962 C 37.734501 47.079098 39.998421 47.075863 42.000000 46.220001 L 38.169998 42.389999 L 38.169998 38.150002 L 42.410000 38.150002 L 46.220001 42.000000 C 47.959961 37.938755 46.078186 33.235947 42.016941 31.495987 C 40.009922 30.636120 37.738655 30.633957 35.730003 31.490000 L 28.240000 24.000000" stroke="#231F20" stroke-width="2.000000" stroke-linejoin="round" fill="none"/></g></svg>