<svg version="1.1" viewBox="0.000000 0.000000 48.000000 48.000000" xmlns="http://www.w3.org/2000/svg" xmlns:xlink="http://www.w3.org/1999/xlink" overflow="hidden"><defs></defs><g id="icons"><path d=" M 6.000000 43.000000 L 41.000000 43.000000 C 44.313709 43.000000 47.000000 40.313709 47.000000 37.000000 L 47.000000 13.000000 L 11.000000 13.000000 L 11.000000 38.000000 C 11.000000 40.761425 8.761424 43.000000 6.000000 43.000000 C 3.238576 43.000000 1.000000 40.761425 1.000000 38.000000 L 1.000000 5.000000 L 15.000000 5.000000 L 15.000000 9.000000 L 41.000000 9.000000 L 41.000000 13.000000" stroke="#231F20" stroke-width="2.000000" stroke-linecap="round" stroke-linejoin="round" fill="none"/><path d=" M 23.000000 25.000000 L 23.000000 35.000000 L 35.000000 35.000000 L 35.000000 25.000000" stroke="#231F20" stroke-width="2.000000" stroke-linecap="round" stroke-linejoin="round" fill="none"/><path d=" M 19.000000 29.000000 L 29.000000 19.000000 L 39.000000 29.000000" stroke="#231F20" stroke-width="2.000000" stroke-linecap="round" stroke-linejoin="round" fill="none"/><path d=" M 31.000000 30.000000 L 27.000000 30.000000 L 27.000000 35.000000 L 31.000000 35.000000 L 31.000000 30.000000 L 31.000000 30.000000 Z" fill="#231F20"/></g></svg>