<svg version="1.1" viewBox="0.000000 0.000000 48.000000 48.000000" xmlns="http://www.w3.org/2000/svg" xmlns:xlink="http://www.w3.org/1999/xlink" overflow="hidden"><defs></defs><g id="icons"><path d=" M 15.000000 22.000000 L 15.000000 15.000000 C 15.000000 13.343145 16.343145 12.000000 18.000000 12.000000 C 19.656855 12.000000 21.000000 13.343145 21.000000 15.000000 L 21.000000 17.000000" stroke="#231F20" stroke-width="2.000000" stroke-linecap="round" stroke-linejoin="round" fill="none"/><path d=" M 39.000000 17.000000 L 39.000000 28.000000 C 39.000000 33.522846 34.522846 38.000000 29.000000 38.000000 L 22.330000 38.000000 C 11.000000 38.000000 9.000000 28.000000 9.000000 24.000000 L 9.000000 22.000000 C 9.000000 20.059999 10.000000 18.000000 12.000000 18.000000 L 15.000000 18.000000" stroke="#231F20" stroke-width="2.000000" stroke-linecap="round" stroke-linejoin="round" fill="none"/><path d=" M 27.000000 17.000000 L 27.000000 15.000000 C 27.000000 13.343145 28.343145 12.000000 30.000000 12.000000 C 31.656855 12.000000 33.000000 13.343145 33.000000 15.000000 L 33.000000 17.000000" stroke="#231F20" stroke-width="2.000000" stroke-linecap="round" stroke-linejoin="round" fill="none"/><path d=" M 27.000000 15.000000 L 27.000000 13.000000 L 27.000000 13.000000 C 27.000000 11.343145 25.656855 10.000000 24.000000 10.000000 C 22.343145 10.000000 21.000000 11.343145 21.000000 13.000000 L 21.000000 13.000000 L 21.000000 15.000000" stroke="#231F20" stroke-width="2.000000" stroke-linecap="round" stroke-linejoin="round" fill="none"/><path d=" M 33.000000 20.000000 L 33.000000 17.000000 C 33.000000 15.343145 34.343147 14.000000 36.000000 14.000000 C 37.656853 14.000000 39.000000 15.343145 39.000000 17.000000 L 39.000000 20.000000" stroke="#231F20" stroke-width="2.000000" stroke-linecap="round" stroke-linejoin="round" fill="none"/></g></svg>