<svg version="1.1" viewBox="0.000000 0.000000 48.000000 48.000000" xmlns="http://www.w3.org/2000/svg" xmlns:xlink="http://www.w3.org/1999/xlink" overflow="hidden"><defs></defs><g id="icons"><path d=" M 41.000000 31.000000 L 24.000000 31.000000 L 7.000000 31.000000 L 7.000000 11.000000 L 41.000000 11.000000 L 41.000000 31.000000 Z" stroke="#231F20" stroke-width="2.000000" stroke-linecap="round" stroke-miterlimit="10.000000" fill="none"/><path d=" M 3.000000 35.000000 L 3.000000 10.000000 C 3.000000 8.343145 4.343146 7.000000 6.000000 7.000000 L 42.000000 7.000000 C 43.656853 7.000000 45.000000 8.343145 45.000000 10.000000 L 45.000000 35.000000" stroke="#231F20" stroke-width="2.000000" stroke-linecap="round" stroke-linejoin="round" fill="none"/><path d=" M 29.000000 35.000000 L 29.000000 37.000000 L 19.000000 37.000000 L 19.000000 35.000000 L 1.000000 35.000000 L 1.000000 39.000000 C 1.000000 40.104568 1.895430 41.000000 3.000000 41.000000 L 45.000000 41.000000 C 46.104568 41.000000 47.000000 40.104568 47.000000 39.000000 L 47.000000 35.000000 Z" stroke="#231F20" stroke-width="2.000000" stroke-linecap="round" stroke-linejoin="round" fill="none"/></g></svg>