<svg version="1.1" viewBox="0.000000 0.000000 48.000000 48.000000" xmlns="http://www.w3.org/2000/svg" xmlns:xlink="http://www.w3.org/1999/xlink" overflow="hidden"><defs></defs><g id="icons"><path d=" M 45.000000 43.830002 L 47.000000 25.940001 C 47.425259 22.074007 44.635994 18.595261 40.770000 18.170000 C 36.904007 17.744741 33.425259 20.534006 33.000000 24.400000 L 31.000000 42.290001" stroke="#231F20" stroke-width="2.000000" stroke-linecap="round" stroke-linejoin="round" fill="none"/><path d=" M 37.000000 24.840000 C 37.182255 23.183146 38.673145 21.987745 40.330002 22.170000 C 41.986855 22.352255 43.182255 23.843145 43.000000 25.500000 L 42.669998 28.500000 L 36.669998 27.840000 Z" stroke="#231F20" stroke-width="2.000000" stroke-linecap="round" stroke-linejoin="round" fill="none"/><path d=" M 3.000000 43.830002 L 1.000000 25.940001 C 0.574741 22.074007 3.364007 18.595261 7.230000 18.170000 C 11.095993 17.744741 14.574740 20.534006 15.000000 24.400000 L 17.000000 42.290001" stroke="#231F20" stroke-width="2.000000" stroke-linecap="round" stroke-linejoin="round" fill="none"/><path d=" M 11.000000 24.840000 C 10.817746 23.183146 9.326855 21.987745 7.670000 22.170000 C 6.013146 22.352255 4.817746 23.843145 5.000000 25.500000 L 5.330000 28.500000 L 11.330000 27.840000 Z" stroke="#231F20" stroke-width="2.000000" stroke-linecap="round" stroke-linejoin="round" fill="none"/><path d=" M 26.000000 7.160000 C 32.730000 7.800000 39.459999 10.590000 42.200001 14.160000" stroke="#231F20" stroke-width="2.000000" stroke-linecap="round" stroke-linejoin="round" fill="none"/><path d=" M 5.800000 14.190000 C 8.560000 10.570000 15.180000 7.820000 21.959999 7.190000" stroke="#231F20" stroke-width="2.000000" stroke-linecap="round" stroke-linejoin="round" fill="none"/><path d=" M 19.000000 4.170000 L 22.000000 7.170000 L 20.000000 11.170000" stroke="#231F20" stroke-width="2.000000" stroke-linecap="round" stroke-linejoin="round" fill="none"/><path d=" M 29.000000 4.170000 L 26.000000 7.170000 L 28.000000 11.170000" stroke="#231F20" stroke-width="2.000000" stroke-linecap="round" stroke-linejoin="round" fill="none"/></g></svg>