<svg version="1.1" viewBox="0.000000 0.000000 48.000000 48.000000" xmlns="http://www.w3.org/2000/svg" xmlns:xlink="http://www.w3.org/1999/xlink" overflow="hidden"><defs></defs><g id="icons"><line x1="24.000000" y1="1.000000" x2="24.000000" y2="10.000000" stroke="#231F20" stroke-width="2.000000" stroke-linecap="round" stroke-linejoin="round" fill="none"/><path d=" M 19.000000 5.000000 L 24.000000 1.000000 L 29.000000 5.000000" stroke="#231F20" stroke-width="2.000000" stroke-linecap="round" stroke-linejoin="round" fill="none"/><line x1="24.000000" y1="47.000000" x2="24.000000" y2="38.000000" stroke="#231F20" stroke-width="2.000000" stroke-linecap="round" stroke-linejoin="round" fill="none"/><path d=" M 19.000000 43.000000 L 24.000000 47.000000 L 29.000000 43.000000" stroke="#231F20" stroke-width="2.000000" stroke-linecap="round" stroke-linejoin="round" fill="none"/><path d=" M 10.000000 33.000000 L 10.000000 24.000000 C 10.000000 20.134007 13.134007 17.000000 17.000000 17.000000 C 20.865993 17.000000 24.000000 20.134007 24.000000 24.000000 L 24.000000 33.000000" stroke="#231F20" stroke-width="2.000000" stroke-linecap="round" stroke-linejoin="round" fill="none"/><path d=" M 20.000000 24.000000 C 20.000000 22.343145 18.656855 21.000000 17.000000 21.000000 C 15.343145 21.000000 14.000000 22.343145 14.000000 24.000000 L 14.000000 27.000000 L 20.000000 27.000000 Z" stroke="#231F20" stroke-width="2.000000" stroke-linecap="round" stroke-linejoin="round" fill="none"/><path d=" M 24.000000 33.000000 L 24.000000 24.000000 C 24.000000 20.134007 27.134007 17.000000 31.000000 17.000000 C 34.865993 17.000000 38.000000 20.134007 38.000000 24.000000 L 38.000000 33.000000" stroke="#231F20" stroke-width="2.000000" stroke-linecap="round" stroke-linejoin="round" fill="none"/><path d=" M 34.000000 24.000000 C 34.000000 22.343145 32.656853 21.000000 31.000000 21.000000 C 29.343145 21.000000 28.000000 22.343145 28.000000 24.000000 L 28.000000 27.000000 L 34.000000 27.000000 Z" stroke="#231F20" stroke-width="2.000000" stroke-linecap="round" stroke-linejoin="round" fill="none"/></g></svg>