<svg version="1.1" viewBox="0.000000 0.000000 48.000000 48.000000" xmlns="http://www.w3.org/2000/svg" xmlns:xlink="http://www.w3.org/1999/xlink" overflow="hidden"><defs></defs><g id="icons"><circle cx="40.000000" cy="21.000000" r="4.000000" stroke="#000000" stroke-width="2.000000" stroke-linecap="round" stroke-linejoin="round" fill="none"/><path d=" M 8.000000 4.000000 C 5.790861 4.000000 4.000000 5.790861 4.000000 8.000000 L 4.000000 18.000000 L 4.000000 18.000000 C 4.000000 23.522848 8.477153 28.000000 14.000000 28.000000 C 19.522848 28.000000 24.000000 23.522848 24.000000 18.000000 L 24.000000 8.000000 C 24.000000 5.790861 22.209139 4.000000 20.000000 4.000000" stroke="#000000" stroke-width="2.000000" stroke-linecap="round" stroke-linejoin="round" fill="none"/><path d=" M 14.000000 28.000000 L 14.000000 43.000000 C 14.000000 45.209141 15.790861 47.000000 18.000000 47.000000 C 20.209139 47.000000 22.000000 45.209141 22.000000 43.000000 L 22.000000 33.000000 C 22.000000 30.238577 24.238577 28.000000 27.000000 28.000000 C 29.761423 28.000000 32.000000 30.238577 32.000000 33.000000 L 32.000000 39.000000 C 32.000000 41.209141 33.790859 43.000000 36.000000 43.000000 C 38.209141 43.000000 40.000000 41.209141 40.000000 39.000000 L 40.000000 25.000000" stroke="#000000" stroke-width="2.000000" stroke-linecap="round" stroke-linejoin="round" fill="none"/><path d=" M 11.000000 4.000000 C 11.033483 5.623372 9.744622 6.966517 8.121250 7.000000 C 8.080837 7.000834 8.040412 7.000834 8.000000 7.000000 L 8.000000 1.000000 C 9.623372 0.966518 10.966517 2.255378 11.000000 3.878750 C 11.000834 3.919162 11.000834 3.959588 11.000000 4.000000 Z" stroke="#000000" stroke-width="2.000000" stroke-linecap="round" stroke-linejoin="round" fill="none"/><path d=" M 17.000000 4.000000 C 16.966518 2.376628 18.255379 1.033482 19.878750 1.000000 C 19.919163 0.999166 19.959587 0.999166 20.000000 1.000000 L 20.000000 7.000000 C 18.376629 7.033483 17.033482 5.744622 17.000000 4.121250 C 16.999166 4.080838 16.999166 4.040412 17.000000 4.000000 Z" stroke="#000000" stroke-width="2.000000" stroke-linecap="round" stroke-linejoin="round" fill="none"/></g></svg>