<svg version="1.1" viewBox="0.000000 0.000000 48.000000 48.000000" xmlns="http://www.w3.org/2000/svg" xmlns:xlink="http://www.w3.org/1999/xlink" overflow="hidden"><defs></defs><g id="icons"><path d=" M 31.500000 24.120001 L 31.500000 13.440000 C 31.500000 12.370000 31.070000 11.500000 30.000000 11.500000 L 27.100000 11.500000 C 26.040001 11.500000 25.500000 12.370000 25.500000 13.440000 L 25.500000 31.879999 L 22.059999 27.770000 C 21.671635 27.288702 21.088413 27.006262 20.469999 27.000000 L 18.469999 27.000000 C 17.784147 27.007641 17.150051 27.366207 16.789999 27.950001 C 16.451097 28.545135 16.451097 29.274866 16.789999 29.870001 L 24.260000 43.419998 C 24.597368 44.037987 25.245924 44.421745 25.950001 44.419998 L 38.680000 44.419998 C 39.462414 44.420044 40.166595 43.945316 40.459999 43.219997 L 43.459999 29.860001 C 43.509262 29.061882 43.053539 28.318336 42.320000 28.000000 Z" stroke="#231F20" stroke-width="2.000000" stroke-linejoin="round" fill="none"/><line x1="4.500000" y1="3.500000" x2="8.500000" y2="3.500000" stroke="#231F20" stroke-width="2.000000" stroke-linecap="round" stroke-linejoin="round" fill="none"/><line x1="4.500000" y1="11.500000" x2="8.500000" y2="11.500000" stroke="#231F20" stroke-width="2.000000" stroke-linecap="round" stroke-linejoin="round" fill="none"/><line x1="4.500000" y1="19.500000" x2="8.500000" y2="19.500000" stroke="#231F20" stroke-width="2.000000" stroke-linecap="round" stroke-linejoin="round" fill="none"/><line x1="14.500000" y1="3.500000" x2="18.500000" y2="3.500000" stroke="#231F20" stroke-width="2.000000" stroke-linecap="round" stroke-linejoin="round" fill="none"/><line x1="14.500000" y1="11.500000" x2="18.500000" y2="11.500000" stroke="#231F20" stroke-width="2.000000" stroke-linecap="round" stroke-linejoin="round" fill="none"/><line x1="14.500000" y1="19.500000" x2="18.500000" y2="19.500000" stroke="#231F20" stroke-width="2.000000" stroke-linecap="round" stroke-linejoin="round" fill="none"/><line x1="24.500000" y1="3.500000" x2="28.500000" y2="3.500000" stroke="#231F20" stroke-width="2.000000" stroke-linecap="round" stroke-linejoin="round" fill="none"/></g></svg>