<svg version="1.1" viewBox="0.000000 0.000000 48.000000 48.000000" xmlns="http://www.w3.org/2000/svg" xmlns:xlink="http://www.w3.org/1999/xlink" overflow="hidden"><defs></defs><g id="icons"><rect x="1.000000" y="34.000000" width="8.000000" height="12.000000" stroke="#231F20" stroke-width="2.000000" stroke-linejoin="round" fill="none"/><path d=" M 9.000000 44.000000 L 39.000000 44.000000 C 39.000000 41.000000 32.000000 40.000000 24.000000 40.000000 L 14.000000 40.000000" stroke="#231F20" stroke-width="2.000000" stroke-linecap="round" stroke-linejoin="round" fill="none"/><path d=" M 9.000000 36.000000 L 14.000000 36.000000 C 18.709999 36.000000 21.000000 39.000000 22.000000 40.000000" stroke="#231F20" stroke-width="2.000000" stroke-linejoin="round" fill="none"/><path d=" M 5.000000 41.000000 C 4.447715 41.000000 4.000000 41.447716 4.000000 42.000000 C 4.000000 42.552284 4.447715 43.000000 5.000000 43.000000 C 5.552285 43.000000 6.000000 42.552284 6.000000 42.000000 C 6.000000 41.447716 5.552285 41.000000 5.000000 41.000000 Z" fill="#231F20"/><path d=" M 45.000000 26.000000 L 3.000000 26.000000 L 7.000000 30.000000 L 41.000000 30.000000 L 45.000000 26.000000 Z" stroke="#231F20" stroke-width="2.000000" stroke-linecap="round" stroke-linejoin="round" fill="none"/><line x1="1.000000" y1="26.000000" x2="47.000000" y2="26.000000" stroke="#231F20" stroke-width="2.000000" stroke-linecap="round" stroke-linejoin="round" fill="none"/><circle cx="24.000000" cy="5.000000" r="3.000000" stroke="#231F20" stroke-width="2.000000" stroke-linecap="round" stroke-linejoin="round" fill="none"/><path d=" M 6.000000 26.000000 C 6.000000 16.058874 14.058874 8.000000 24.000000 8.000000 C 33.941124 8.000000 42.000000 16.058874 42.000000 26.000000" stroke="#231F20" stroke-width="2.000000" stroke-linecap="round" stroke-linejoin="round" fill="none"/><path d=" M 13.000000 19.000000 C 15.397319 15.248323 19.547812 12.984418 24.000000 13.000000" stroke="#231F20" stroke-width="2.000000" stroke-linecap="round" stroke-linejoin="round" fill="none"/></g></svg>