<svg version="1.1" viewBox="0.000000 0.000000 48.000000 48.000000" xmlns="http://www.w3.org/2000/svg" xmlns:xlink="http://www.w3.org/1999/xlink" overflow="hidden"><defs></defs><g id="icons"><path d=" M 14.830000 42.169998 L 1.830000 46.169998 L 5.830000 33.169998 L 29.830000 9.170000 L 38.830002 18.170000 L 14.830000 42.169998 Z" stroke="#231F20" stroke-width="2.000000" stroke-linecap="round" stroke-linejoin="round" fill="none"/><path d=" M 29.830000 9.170000 L 36.000000 3.000000 C 37.561230 1.437034 40.093887 1.435625 41.656853 2.996853 C 41.657902 2.997902 41.658951 2.998950 41.660000 3.000000 L 45.000000 6.340000 C 46.562965 7.901228 46.564373 10.433887 45.003147 11.996854 C 45.002098 11.997903 45.001049 11.998952 45.000000 12.000000 L 38.830002 18.170000" stroke="#231F20" stroke-width="2.000000" stroke-linecap="round" stroke-linejoin="round" fill="none"/><line x1="34.330000" y1="13.670000" x2="12.830000" y2="35.170000" stroke="#231F20" stroke-width="2.000000" stroke-linecap="round" stroke-linejoin="round" fill="none"/><path d=" M 5.830000 33.169998 L 7.830000 35.169998 L 12.830000 35.169998 L 12.830000 40.169998 L 14.830000 42.169998" stroke="#231F20" stroke-width="2.000000" stroke-linecap="round" stroke-linejoin="round" fill="none"/><line x1="3.830000" y1="40.170000" x2="7.830000" y2="44.170000" stroke="#231F20" stroke-width="2.000000" stroke-linecap="round" stroke-linejoin="round" fill="none"/><line x1="32.830000" y1="6.170000" x2="41.830000" y2="15.170000" stroke="#231F20" stroke-width="2.000000" stroke-linecap="round" stroke-linejoin="round" fill="none"/></g></svg>