<svg version="1.1" viewBox="0.000000 0.000000 48.000000 48.000000" xmlns="http://www.w3.org/2000/svg" xmlns:xlink="http://www.w3.org/1999/xlink" overflow="hidden"><defs></defs><g id="icons"><path d=" M 38.000000 10.000000 L 38.000000 43.000000 C 38.000000 45.209141 39.790859 47.000000 42.000000 47.000000 C 44.209141 47.000000 46.000000 45.209141 46.000000 43.000000 L 46.000000 10.000000" stroke="#231F20" stroke-width="2.000000" stroke-linecap="round" stroke-miterlimit="10.000000" fill="none"/><path d=" M 38.000000 1.000000 L 38.000000 11.000000 C 38.000000 13.209139 39.790859 15.000000 42.000000 15.000000 C 44.209141 15.000000 46.000000 13.209139 46.000000 11.000000 L 46.000000 1.000000" stroke="#231F20" stroke-width="2.000000" stroke-linecap="round" stroke-miterlimit="10.000000" fill="none"/><line x1="42.000000" y1="11.000000" x2="42.000000" y2="3.000000" stroke="#231F20" stroke-width="2.000000" stroke-linecap="round" stroke-miterlimit="10.000000" fill="none"/><path d=" M 26.000000 10.000000 L 26.000000 43.000000 C 26.000000 45.209141 27.790861 47.000000 30.000000 47.000000 C 32.209141 47.000000 34.000000 45.209141 34.000000 43.000000 L 34.000000 10.000000" stroke="#231F20" stroke-width="2.000000" stroke-linecap="round" stroke-miterlimit="10.000000" fill="none"/><path d=" M 26.000000 1.000000 L 26.000000 11.000000 C 26.000000 13.209139 27.790861 15.000000 30.000000 15.000000 C 32.209141 15.000000 34.000000 13.209139 34.000000 11.000000 L 34.000000 1.000000" stroke="#231F20" stroke-width="2.000000" stroke-linecap="round" stroke-miterlimit="10.000000" fill="none"/><line x1="30.000000" y1="11.000000" x2="30.000000" y2="3.000000" stroke="#231F20" stroke-width="2.000000" stroke-linecap="round" stroke-miterlimit="10.000000" fill="none"/><path d=" M 14.000000 10.000000 L 14.000000 43.000000 C 14.000000 45.209141 15.790861 47.000000 18.000000 47.000000 C 20.209139 47.000000 22.000000 45.209141 22.000000 43.000000 L 22.000000 10.000000" stroke="#231F20" stroke-width="2.000000" stroke-linecap="round" stroke-miterlimit="10.000000" fill="none"/><path d=" M 14.000000 1.000000 L 14.000000 11.000000 C 14.000000 13.209139 15.790861 15.000000 18.000000 15.000000 C 20.209139 15.000000 22.000000 13.209139 22.000000 11.000000 L 22.000000 1.000000" stroke="#231F20" stroke-width="2.000000" stroke-linecap="round" stroke-miterlimit="10.000000" fill="none"/><line x1="18.000000" y1="11.000000" x2="18.000000" y2="3.000000" stroke="#231F20" stroke-width="2.000000" stroke-linecap="round" stroke-miterlimit="10.000000" fill="none"/><path d=" M 2.000000 10.000000 L 2.000000 43.000000 C 2.000000 45.209141 3.790861 47.000000 6.000000 47.000000 C 8.209139 47.000000 10.000000 45.209141 10.000000 43.000000 L 10.000000 10.000000" stroke="#231F20" stroke-width="2.000000" stroke-linecap="round" stroke-miterlimit="10.000000" fill="none"/><path d=" M 2.000000 1.000000 L 2.000000 11.000000 C 2.000000 13.209139 3.790861 15.000000 6.000000 15.000000 C 8.209139 15.000000 10.000000 13.209139 10.000000 11.000000 L 10.000000 1.000000" stroke="#231F20" stroke-width="2.000000" stroke-linecap="round" stroke-miterlimit="10.000000" fill="none"/><line x1="6.000000" y1="11.000000" x2="6.000000" y2="3.000000" stroke="#231F20" stroke-width="2.000000" stroke-linecap="round" stroke-miterlimit="10.000000" fill="none"/><line x1="34.000000" y1="37.000000" x2="26.000000" y2="37.000000" stroke="#231F20" stroke-width="2.000000" stroke-miterlimit="10.000000" fill="none"/><line x1="34.000000" y1="33.000000" x2="26.000000" y2="33.000000" stroke="#231F20" stroke-width="2.000000" stroke-miterlimit="10.000000" fill="none"/><line x1="46.000000" y1="37.000000" x2="38.000000" y2="37.000000" stroke="#231F20" stroke-width="2.000000" stroke-miterlimit="10.000000" fill="none"/><line x1="46.000000" y1="33.000000" x2="38.000000" y2="33.000000" stroke="#231F20" stroke-width="2.000000" stroke-miterlimit="10.000000" fill="none"/><line x1="22.000000" y1="37.000000" x2="14.000000" y2="37.000000" stroke="#231F20" stroke-width="2.000000" stroke-miterlimit="10.000000" fill="none"/><line x1="22.000000" y1="33.000000" x2="14.000000" y2="33.000000" stroke="#231F20" stroke-width="2.000000" stroke-miterlimit="10.000000" fill="none"/><line x1="10.000000" y1="37.000000" x2="2.000000" y2="37.000000" stroke="#231F20" stroke-width="2.000000" stroke-miterlimit="10.000000" fill="none"/><line x1="10.000000" y1="33.000000" x2="2.000000" y2="33.000000" stroke="#231F20" stroke-width="2.000000" stroke-miterlimit="10.000000" fill="none"/></g></svg>