<svg version="1.1" viewBox="0.000000 0.000000 48.000000 48.000000" xmlns="http://www.w3.org/2000/svg" xmlns:xlink="http://www.w3.org/1999/xlink" overflow="hidden"><defs></defs><g id="icons"><rect x="1.000000" y="3.000000" width="26.000000" height="42.000000" stroke="#231F20" stroke-width="2.000000" stroke-linecap="round" stroke-linejoin="round" fill="none"/><rect x="17.000000" y="27.000000" width="4.000000" height="8.000000" stroke="#231F20" stroke-width="2.000000" stroke-linecap="round" stroke-linejoin="round" fill="none"/><path d=" M 45.000000 33.000000 L 41.000000 35.000000 L 41.000000 29.000000 L 45.000000 29.000000 L 45.000000 33.000000 Z" stroke="#231F20" stroke-width="2.000000" stroke-linecap="round" stroke-linejoin="round" fill="none"/><path d=" M 41.000000 29.000000 L 41.000000 26.000000 C 41.000000 24.340000 47.000000 19.000000 47.000000 19.000000" stroke="#231F20" stroke-width="2.000000" stroke-linecap="round" stroke-linejoin="round" fill="none"/><path d=" M 41.000000 35.000000 L 41.000000 41.000000 C 41.000000 43.209141 39.209141 45.000000 37.000000 45.000000 C 34.790859 45.000000 33.000000 43.209141 33.000000 41.000000 L 33.000000 14.000000 C 33.000000 12.343145 31.656855 11.000000 30.000000 11.000000 L 27.000000 11.000000" stroke="#231F20" stroke-width="2.000000" stroke-linecap="round" stroke-linejoin="round" fill="none"/><line x1="1.000000" y1="19.000000" x2="27.000000" y2="19.000000" stroke="#231F20" stroke-width="2.000000" stroke-linecap="round" stroke-linejoin="round" fill="none"/><rect x="5.000000" y="7.000000" width="18.000000" height="8.000000" stroke="#231F20" stroke-width="2.000000" stroke-linecap="round" stroke-linejoin="round" fill="none"/><line x1="17.000000" y1="39.000000" x2="21.000000" y2="39.000000" stroke="#231F20" stroke-width="2.000000" stroke-linecap="round" stroke-linejoin="round" fill="none"/></g></svg>