<svg version="1.1" viewBox="0.000000 0.000000 48.000000 48.000000" xmlns="http://www.w3.org/2000/svg" xmlns:xlink="http://www.w3.org/1999/xlink" overflow="hidden"><defs></defs><g id="icons"><path d=" M 44.000000 41.000000 C 44.000000 43.209141 42.209141 45.000000 40.000000 45.000000 L 16.000000 45.000000 C 13.790861 45.000000 12.000000 43.209141 12.000000 41.000000 L 12.000000 25.000000 L 44.000000 25.000000 Z" stroke="#231F20" stroke-width="2.000000" stroke-linecap="round" stroke-linejoin="round" fill="none"/><line x1="16.000000" y1="45.000000" x2="16.000000" y2="47.000000" stroke="#231F20" stroke-width="2.000000" stroke-linecap="round" stroke-linejoin="round" fill="none"/><line x1="40.000000" y1="45.000000" x2="40.000000" y2="47.000000" stroke="#231F20" stroke-width="2.000000" stroke-linecap="round" stroke-linejoin="round" fill="none"/><path d=" M 16.000000 9.000000 L 40.000000 9.000000 L 40.000000 17.000000 C 40.000000 19.209139 38.209141 21.000000 36.000000 21.000000 L 20.000000 21.000000 C 17.790861 21.000000 16.000000 19.209139 16.000000 17.000000 Z" stroke="#231F20" stroke-width="2.000000" stroke-linecap="round" stroke-linejoin="round" fill="none"/><path d=" M 16.000000 9.000000 L 16.000000 5.000000 C 16.000000 2.790861 14.209139 1.000000 12.000000 1.000000 L 4.000000 1.000000" stroke="#231F20" stroke-width="2.000000" stroke-linecap="round" stroke-linejoin="round" fill="none"/><path d=" M 22.000000 33.000000 L 22.000000 31.000000 L 34.000000 31.000000 L 34.000000 33.000000" stroke="#231F20" stroke-width="2.000000" stroke-linecap="round" stroke-linejoin="round" fill="none"/><line x1="22.000000" y1="9.000000" x2="22.000000" y2="21.000000" stroke="#231F20" stroke-width="2.000000" stroke-linecap="round" stroke-linejoin="round" fill="none"/><line x1="28.000000" y1="9.000000" x2="28.000000" y2="21.000000" stroke="#231F20" stroke-width="2.000000" stroke-linecap="round" stroke-linejoin="round" fill="none"/><line x1="34.000000" y1="9.000000" x2="34.000000" y2="21.000000" stroke="#231F20" stroke-width="2.000000" stroke-linecap="round" stroke-linejoin="round" fill="none"/></g></svg>