<svg version="1.1" viewBox="0.000000 0.000000 48.000000 48.000000" xmlns="http://www.w3.org/2000/svg" xmlns:xlink="http://www.w3.org/1999/xlink" overflow="hidden"><defs></defs><g id="icons"><path d=" M 18.000000 19.000000 C 18.000000 17.900000 18.900000 18.000000 20.000000 18.000000 C 21.100000 18.000000 22.000000 17.900000 22.000000 19.000000" stroke="#231F20" stroke-width="2.000000" stroke-linecap="round" stroke-miterlimit="10.000000" fill="none"/><path d=" M 26.000000 19.000000 C 26.000000 17.900000 26.900000 18.000000 28.000000 18.000000 C 29.100000 18.000000 30.000000 17.900000 30.000000 19.000000" stroke="#231F20" stroke-width="2.000000" stroke-linecap="round" stroke-miterlimit="10.000000" fill="none"/><path d=" M 18.889999 31.000000 C 10.290000 32.459999 1.000000 32.160000 1.000000 40.490002 L 1.000000 47.000000 L 47.000000 47.000000 L 47.000000 40.490002 C 47.000000 32.150002 38.000000 32.490002 29.139999 31.000000" stroke="#231F20" stroke-width="2.000000" stroke-linecap="round" stroke-miterlimit="10.000000" fill="none"/><path d=" M 13.000000 16.860001 C 10.000000 16.860001 11.000000 23.000000 14.000000 23.000000 C 14.000000 29.000000 21.000000 33.000000 24.000000 33.000000 C 27.000000 33.000000 34.000000 29.000000 34.000000 23.000000 C 37.000000 23.000000 38.000000 17.000000 35.000000 17.000000" stroke="#231F20" stroke-width="2.000000" stroke-linejoin="round" fill="none"/><path d=" M 36.000000 17.280001 L 37.000000 11.000000 C 37.000000 11.000000 38.000000 1.000000 24.000000 1.000000 C 10.000000 1.000000 11.000000 11.000000 11.000000 11.000000 L 12.000000 17.000000" stroke="#231F20" stroke-width="2.000000" stroke-linecap="round" stroke-miterlimit="10.000000" fill="none"/><path d=" M 28.820000 43.790001 L 24.000000 38.000000 L 19.180000 43.790001" stroke="#231F20" stroke-width="2.000000" stroke-linejoin="round" fill="none"/><path d=" M 21.000000 32.209999 L 21.000000 35.000000 C 21.000000 36.656853 22.343145 38.000000 24.000000 38.000000 C 25.656855 38.000000 27.000000 36.656853 27.000000 35.000000 L 27.000000 32.250000" stroke="#231F20" stroke-width="2.000000" stroke-linejoin="round" fill="none"/><path d=" M 12.000000 17.000000 C 16.000000 17.000000 18.000000 10.000000 18.000000 7.000000 C 18.000000 14.000000 21.330000 15.000000 36.330002 15.000000" stroke="#231F20" stroke-width="2.000000" stroke-linejoin="round" fill="none"/><line x1="20.000000" y1="47.000000" x2="16.010000" y2="31.430000" stroke="#231F20" stroke-width="2.000000" stroke-linecap="round" stroke-miterlimit="10.000000" fill="none"/><path d=" M 12.000000 32.000000 L 9.000000 39.000000 L 14.000000 39.000000 L 10.000000 47.000000" stroke="#231F20" stroke-width="2.000000" stroke-linejoin="round" fill="none"/><line x1="28.000000" y1="47.000000" x2="32.000000" y2="31.430000" stroke="#231F20" stroke-width="2.000000" stroke-linecap="round" stroke-miterlimit="10.000000" fill="none"/><path d=" M 36.000000 32.000000 L 39.000000 39.000000 L 34.000000 39.000000 L 38.000000 47.000000" stroke="#231F20" stroke-width="2.000000" stroke-linejoin="round" fill="none"/></g></svg>