<svg version="1.1" viewBox="0.000000 0.000000 48.000000 48.000000" xmlns="http://www.w3.org/2000/svg" xmlns:xlink="http://www.w3.org/1999/xlink" overflow="hidden"><defs></defs><g id="icons"><path d=" M 24.000000 1.000000 C 10.000000 1.000000 11.000000 11.000000 11.000000 11.000000 L 12.000000 17.000000 C 10.000000 18.000000 11.000000 23.000000 14.000000 23.000000 C 14.000000 29.000000 21.000000 33.000000 24.000000 33.000000" stroke="#231F20" stroke-width="2.000000" stroke-linecap="round" stroke-miterlimit="10.000000" fill="none"/><path d=" M 24.000000 1.000000 C 38.000000 1.000000 37.000000 11.000000 37.000000 11.000000 L 36.000000 17.000000 C 38.000000 18.000000 37.000000 23.000000 34.000000 23.000000 C 34.000000 29.000000 27.000000 33.000000 24.000000 33.000000" stroke="#231F20" stroke-width="2.000000" stroke-linecap="round" stroke-miterlimit="10.000000" fill="none"/><path d=" M 15.000000 26.879999 L 15.000000 32.000000 L 6.190000 34.509998 C 3.068186 35.681160 1.000106 38.665730 1.000000 42.000000 L 1.000000 47.000000 L 47.000000 47.000000 L 47.000000 42.000000 C 46.999893 38.665733 44.931812 35.681160 41.810001 34.509998 L 33.000000 32.000000 L 33.000000 26.790001" stroke="#231F20" stroke-width="2.000000" stroke-linecap="round" stroke-miterlimit="10.000000" fill="none"/><path d=" M 37.000000 10.000000 C 26.000000 10.000000 27.000000 12.000000 24.000000 12.000000 C 21.000000 12.000000 23.000000 10.000000 11.000000 10.000000" stroke="#231F20" stroke-width="2.000000" stroke-linejoin="round" fill="none"/><path d=" M 12.000000 17.000000 C 17.000000 21.000000 21.549999 16.000000 24.000000 16.000000 C 26.450001 16.000000 31.000000 21.000000 36.000000 17.000000" stroke="#231F20" stroke-width="2.000000" stroke-linecap="round" stroke-linejoin="round" fill="none"/><line x1="17.000000" y1="14.000000" x2="19.000000" y2="14.000000" stroke="#231F20" stroke-width="2.000000" stroke-linecap="round" stroke-linejoin="round" fill="none"/><line x1="29.000000" y1="14.000000" x2="31.000000" y2="14.000000" stroke="#231F20" stroke-width="2.000000" stroke-linecap="round" stroke-linejoin="round" fill="none"/><path d=" M 20.000000 26.000000 L 20.830000 25.170000 C 21.580788 24.420046 22.598814 23.999166 23.660000 24.000000 L 24.340000 24.000000 C 25.401186 23.999166 26.419212 24.420046 27.170000 25.170000 L 28.000000 26.000000" stroke="#231F20" stroke-width="2.000000" stroke-linecap="round" stroke-linejoin="round" fill="none"/><path d=" M 17.000000 5.000000 C 16.447716 5.000000 16.000000 5.447715 16.000000 6.000000 C 16.000000 6.552285 16.447716 7.000000 17.000000 7.000000 C 17.552284 7.000000 18.000000 6.552285 18.000000 6.000000 C 18.000000 5.447715 17.552284 5.000000 17.000000 5.000000 Z" fill="#231F20"/><path d=" M 31.000000 5.000000 C 30.447716 5.000000 30.000000 5.447715 30.000000 6.000000 C 30.000000 6.552285 30.447716 7.000000 31.000000 7.000000 C 31.552284 7.000000 32.000000 6.552285 32.000000 6.000000 C 32.000000 5.447715 31.552284 5.000000 31.000000 5.000000 Z" fill="#231F20"/><path d=" M 21.000000 4.000000 C 20.447716 4.000000 20.000000 4.447715 20.000000 5.000000 C 20.000000 5.552285 20.447716 6.000000 21.000000 6.000000 C 21.552284 6.000000 22.000000 5.552285 22.000000 5.000000 C 22.000000 4.447715 21.552284 4.000000 21.000000 4.000000 Z" fill="#231F20"/><path d=" M 27.000000 4.000000 C 26.447716 4.000000 26.000000 4.447715 26.000000 5.000000 C 26.000000 5.552285 26.447716 6.000000 27.000000 6.000000 C 27.552284 6.000000 28.000000 5.552285 28.000000 5.000000 C 28.000000 4.447715 27.552284 4.000000 27.000000 4.000000 Z" fill="#231F20"/><path d=" M 24.000000 6.000000 C 23.447716 6.000000 23.000000 6.447715 23.000000 7.000000 C 23.000000 7.552285 23.447716 8.000000 24.000000 8.000000 C 24.552284 8.000000 25.000000 7.552285 25.000000 7.000000 C 25.000000 6.447715 24.552284 6.000000 24.000000 6.000000 Z" fill="#231F20"/><path d=" M 33.000000 31.000000 C 33.000000 34.869999 29.520000 38.000000 24.000000 38.000000 C 18.480000 38.000000 15.000000 34.869999 15.000000 31.000000" stroke="#231F20" stroke-width="2.000000" stroke-linecap="round" stroke-miterlimit="10.000000" fill="none"/></g></svg>