<svg version="1.1" viewBox="0.000000 0.000000 48.000000 48.000000" xmlns="http://www.w3.org/2000/svg" xmlns:xlink="http://www.w3.org/1999/xlink" overflow="hidden"><defs></defs><g id="icons"><path d=" M 21.000000 46.799999 L 1.000000 46.799999 L 1.000000 44.799999 C 1.000000 43.695431 1.895430 42.799999 3.000000 42.799999 L 19.000000 42.799999 C 20.104570 42.799999 21.000000 43.695431 21.000000 44.799999 Z" stroke="#231F20" stroke-width="2.000000" stroke-linecap="round" stroke-linejoin="round" fill="none"/><path d=" M 19.000000 42.799999 L 3.000000 42.799999 L 3.000000 40.799999 C 3.000000 39.695431 3.895431 38.799999 5.000000 38.799999 L 17.000000 38.799999 C 18.104570 38.799999 19.000000 39.695431 19.000000 40.799999 Z" stroke="#231F20" stroke-width="2.000000" stroke-linecap="round" stroke-linejoin="round" fill="none"/><rect x="15.220000" y="9.850000" width="15.560000" height="9.900000" stroke="#231F20" stroke-width="2.000000" stroke-linecap="round" stroke-linejoin="round" fill="none" transform="matrix(0.707107,-0.707107,0.707107,0.707107,-3.730000,20.600000)"/><path d=" M 14.000000 16.799999 L 13.000000 15.800000 C 11.120000 13.920000 8.110000 16.910000 10.000000 18.799999 L 19.000000 27.799999 C 20.889999 29.680000 23.889999 26.690001 22.000000 24.799999 L 21.000000 23.799999" stroke="#231F20" stroke-width="2.000000" stroke-linecap="round" stroke-linejoin="round" fill="none"/><path d=" M 32.000000 12.800000 L 33.000000 13.800000 C 34.889999 15.680000 37.889999 12.690000 36.000000 10.800000 L 27.000000 1.800000 C 25.120001 -0.080000 22.110001 2.910000 24.000000 4.800000 L 25.000000 5.800000" stroke="#231F20" stroke-width="2.000000" stroke-linecap="round" stroke-linejoin="round" fill="none"/><line x1="26.500000" y1="18.300000" x2="47.000000" y2="38.800000" stroke="#231F20" stroke-width="2.000000" stroke-linecap="round" stroke-linejoin="round" fill="none"/></g></svg>