<svg version="1.1" viewBox="0.000000 0.000000 48.000000 48.000000" xmlns="http://www.w3.org/2000/svg" xmlns:xlink="http://www.w3.org/1999/xlink" overflow="hidden"><defs></defs><g id="icons"><circle cx="24.000000" cy="24.000000" r="23.000000" stroke="#231F20" stroke-width="2.000000" stroke-linecap="round" stroke-linejoin="round" fill="none"/><path d=" M 29.000000 25.000000 L 41.000000 25.000000 C 41.000000 19.000000 37.570000 12.230000 32.490002 9.290000 L 26.490000 19.690001 C 28.000000 20.549999 29.000000 23.000000 29.000000 25.000000 Z" stroke="#231F20" stroke-width="2.000000" stroke-miterlimit="10.000000" fill="none"/><path d=" M 21.510000 28.309999 L 15.510000 38.709999 C 20.763100 41.771729 27.256901 41.771729 32.510002 38.709999 L 26.510000 28.309999 C 24.972383 29.237539 23.047617 29.237539 21.510000 28.309999 Z" stroke="#231F20" stroke-width="2.000000" stroke-miterlimit="10.000000" fill="none"/><path d=" M 19.000000 25.000000 C 19.000000 23.000000 20.000000 20.549999 21.510000 19.690001 L 15.510000 9.290000 C 10.430000 12.230000 7.000000 19.000000 7.000000 25.000000 Z" stroke="#231F20" stroke-width="2.000000" stroke-miterlimit="10.000000" fill="none"/><path d=" M 24.000000 22.000000 C 22.895430 22.000000 22.000000 22.895430 22.000000 24.000000 C 22.000000 25.104570 22.895430 26.000000 24.000000 26.000000 C 25.104570 26.000000 26.000000 25.104570 26.000000 24.000000 C 26.000000 22.895430 25.104570 22.000000 24.000000 22.000000 Z" fill="#231F20"/></g></svg>