<svg version="1.1" viewBox="0.000000 0.000000 48.000000 48.000000" xmlns="http://www.w3.org/2000/svg" xmlns:xlink="http://www.w3.org/1999/xlink" overflow="hidden"><defs></defs><g id="icons"><rect x="1.000000" y="1.000000" rx="3.000000" ry="3.000000" width="26.000000" height="46.000000" stroke="#231F20" stroke-width="2.000000" stroke-miterlimit="10.000000" fill="none"/><line x1="1.000000" y1="29.000000" x2="27.000000" y2="29.000000" stroke="#231F20" stroke-width="2.000000" stroke-linejoin="round" fill="none"/><circle cx="14.000000" cy="38.000000" r="5.000000" stroke="#231F20" stroke-width="2.000000" stroke-linejoin="round" fill="none"/><path d=" M 13.000000 36.000000 L 13.000000 40.000000 L 16.000000 38.000000 L 13.000000 36.000000 L 13.000000 36.000000 Z" fill="#231F20"/><path d=" M 27.000000 7.000000 L 32.000000 7.000000 C 33.656853 7.000000 35.000000 8.343145 35.000000 10.000000 L 35.000000 38.000000 C 35.000000 40.761425 37.238575 43.000000 40.000000 43.000000 C 42.761425 43.000000 45.000000 40.761425 45.000000 38.000000 L 45.000000 23.000000" stroke="#231F20" stroke-width="2.000000" stroke-miterlimit="10.000000" fill="none"/><path d=" M 47.000000 21.000000 C 47.000000 22.104570 46.104568 23.000000 45.000000 23.000000 C 43.895432 23.000000 43.000000 22.104570 43.000000 21.000000 L 43.000000 15.000000 C 43.000000 13.895431 43.895432 13.000000 45.000000 13.000000 C 46.104568 13.000000 47.000000 13.895431 47.000000 15.000000 Z" stroke="#231F20" stroke-width="2.000000" stroke-miterlimit="10.000000" fill="none"/><path d=" M 43.000000 21.000000 L 42.000000 21.000000 C 40.343147 21.000000 39.000000 19.656855 39.000000 18.000000 C 39.000000 16.343145 40.343147 15.000000 42.000000 15.000000 L 43.000000 15.000000 Z" stroke="#231F20" stroke-width="2.000000" stroke-miterlimit="10.000000" fill="none"/><line x1="6.000000" y1="11.000000" x2="10.000000" y2="11.000000" stroke="#231F20" stroke-width="2.000000" stroke-miterlimit="10.000000" fill="none"/><line x1="6.000000" y1="15.000000" x2="10.000000" y2="15.000000" stroke="#231F20" stroke-width="2.000000" stroke-miterlimit="10.000000" fill="none"/><line x1="6.000000" y1="19.000000" x2="10.000000" y2="19.000000" stroke="#231F20" stroke-width="2.000000" stroke-miterlimit="10.000000" fill="none"/><line x1="6.000000" y1="23.000000" x2="10.000000" y2="23.000000" stroke="#231F20" stroke-width="2.000000" stroke-miterlimit="10.000000" fill="none"/><line x1="18.000000" y1="15.000000" x2="22.000000" y2="15.000000" stroke="#231F20" stroke-width="2.000000" stroke-miterlimit="10.000000" fill="none"/><line x1="18.000000" y1="19.000000" x2="22.000000" y2="19.000000" stroke="#231F20" stroke-width="2.000000" stroke-miterlimit="10.000000" fill="none"/><line x1="18.000000" y1="23.000000" x2="22.000000" y2="23.000000" stroke="#231F20" stroke-width="2.000000" stroke-miterlimit="10.000000" fill="none"/><line x1="12.000000" y1="19.000000" x2="16.000000" y2="19.000000" stroke="#231F20" stroke-width="2.000000" stroke-miterlimit="10.000000" fill="none"/><line x1="12.000000" y1="23.000000" x2="16.000000" y2="23.000000" stroke="#231F20" stroke-width="2.000000" stroke-miterlimit="10.000000" fill="none"/></g></svg>