<svg version="1.1" viewBox="0.000000 0.000000 48.000000 48.000000" xmlns="http://www.w3.org/2000/svg" xmlns:xlink="http://www.w3.org/1999/xlink" overflow="hidden"><defs></defs><g id="icons"><path d=" M 20.000000 32.000000 L 18.000000 32.000000 L 18.000000 34.000000 L 20.000000 34.000000 L 20.000000 32.000000 L 20.000000 32.000000 Z" fill="#231F20"/><path d=" M 25.000000 32.000000 L 23.000000 32.000000 L 23.000000 34.000000 L 25.000000 34.000000 L 25.000000 32.000000 L 25.000000 32.000000 Z" fill="#231F20"/><path d=" M 30.000000 32.000000 L 28.000000 32.000000 L 28.000000 34.000000 L 30.000000 34.000000 L 30.000000 32.000000 L 30.000000 32.000000 Z" fill="#231F20"/><path d=" M 20.000000 36.000000 L 18.000000 36.000000 L 18.000000 38.000000 L 20.000000 38.000000 L 20.000000 36.000000 L 20.000000 36.000000 Z" fill="#231F20"/><path d=" M 25.000000 36.000000 L 23.000000 36.000000 L 23.000000 38.000000 L 25.000000 38.000000 L 25.000000 36.000000 L 25.000000 36.000000 Z" fill="#231F20"/><path d=" M 30.000000 36.000000 L 28.000000 36.000000 L 28.000000 38.000000 L 30.000000 38.000000 L 30.000000 36.000000 L 30.000000 36.000000 Z" fill="#231F20"/><path d=" M 20.000000 40.000000 L 18.000000 40.000000 L 18.000000 42.000000 L 20.000000 42.000000 L 20.000000 40.000000 L 20.000000 40.000000 Z" fill="#231F20"/><path d=" M 25.000000 40.000000 L 23.000000 40.000000 L 23.000000 42.000000 L 25.000000 42.000000 L 25.000000 40.000000 L 25.000000 40.000000 Z" fill="#231F20"/><path d=" M 30.000000 40.000000 L 28.000000 40.000000 L 28.000000 42.000000 L 30.000000 42.000000 L 30.000000 40.000000 L 30.000000 40.000000 Z" fill="#231F20"/><rect x="15.000000" y="13.000000" width="18.000000" height="14.000000" stroke="#231F20" stroke-width="2.000000" stroke-miterlimit="10.000000" fill="none"/><rect x="11.000000" y="7.000000" rx="4.000000" ry="4.000000" width="26.000000" height="40.000000" stroke="#231F20" stroke-width="2.000000" stroke-miterlimit="10.000000" fill="none"/><line x1="15.000000" y1="1.000000" x2="15.000000" y2="7.000000" stroke="#231F20" stroke-width="2.000000" stroke-linecap="round" stroke-miterlimit="10.000000" fill="none"/></g></svg>