<svg version="1.1" viewBox="0.000000 0.000000 48.000000 48.000000" xmlns="http://www.w3.org/2000/svg" xmlns:xlink="http://www.w3.org/1999/xlink" overflow="hidden"><defs></defs><g id="icons"><path d=" M 28.000000 19.000000 L 32.000000 19.000000 L 32.000000 27.000000 L 40.000000 19.000000 L 47.000000 19.000000 L 47.000000 1.000000 L 17.000000 1.000000 L 17.000000 9.000000" stroke="#231F20" stroke-width="2.000000" stroke-miterlimit="10.000000" fill="none"/><path d=" M 12.000000 32.400002 L 12.000000 36.740002 L 4.120000 39.560001 C 2.248132 40.234467 1.000228 42.010330 1.000000 44.000000 L 1.000000 47.000000 L 31.000000 47.000000 L 31.000000 44.000000 C 31.008226 42.002998 29.758785 40.216938 27.879999 39.540001 L 20.000000 36.740002 L 20.000000 32.099998" stroke="#231F20" stroke-width="2.000000" stroke-miterlimit="10.000000" fill="none"/><path d=" M 23.700001 24.100000 C 23.700001 29.340000 20.160000 33.580002 15.800000 33.580002 C 11.440000 33.580002 7.910000 29.340000 7.910000 24.100000 C 7.910000 18.860001 11.440000 14.630000 15.800000 14.630000 C 20.160000 14.630000 23.700001 18.870001 23.700001 24.100000 Z" stroke="#231F20" stroke-width="2.000000" stroke-miterlimit="10.000000" fill="none"/><path d=" M 23.620001 23.270000 C 23.382519 23.271729 23.145382 23.288429 22.910002 23.320000 C 20.219999 23.830000 18.490000 22.860001 17.010000 20.270000 C 16.120001 21.969999 13.350000 23.320000 11.070000 23.320000 C 10.000389 23.338411 8.943755 23.083717 8.000000 22.580000" stroke="#231F20" stroke-width="2.000000" stroke-miterlimit="10.000000" fill="none"/><path d=" M 38.000000 10.000000 L 36.000000 10.000000 L 36.000000 12.000000 L 38.000000 12.000000 L 38.000000 10.000000 L 38.000000 10.000000 Z" fill="#231F20"/><path d=" M 33.000000 10.000000 L 31.000000 10.000000 L 31.000000 12.000000 L 33.000000 12.000000 L 33.000000 10.000000 L 33.000000 10.000000 Z" fill="#231F20"/><path d=" M 28.000000 10.000000 L 26.000000 10.000000 L 26.000000 12.000000 L 28.000000 12.000000 L 28.000000 10.000000 L 28.000000 10.000000 Z" fill="#231F20"/></g></svg>