<svg version="1.1" viewBox="0.000000 0.000000 48.000000 48.000000" xmlns="http://www.w3.org/2000/svg" xmlns:xlink="http://www.w3.org/1999/xlink" overflow="hidden"><defs></defs><g id="icons"><path d=" M 24.000000 30.000000 L 23.000000 30.000000 L 15.000000 38.000000 L 15.000000 30.000000 L 14.000000 30.000000 C 6.820298 30.000000 1.000000 24.179701 1.000000 17.000000 C 1.000000 9.850000 6.850000 3.000000 14.000000 3.000000 L 30.000000 3.000000 C 37.150002 3.000000 43.000000 9.850000 43.000000 17.000000 C 43.004551 18.716785 42.664501 20.417025 42.000000 22.000000" stroke="#231F20" stroke-width="2.000000" stroke-linecap="round" stroke-linejoin="round" fill="none"/><line x1="44.340000" y1="27.660000" x2="30.250000" y2="41.750000" stroke="#231F20" stroke-width="2.000000" stroke-linejoin="round" fill="none"/><path d=" M 44.070000 27.930000 C 47.975834 31.834654 47.976788 38.166302 44.072136 42.072136 C 40.167484 45.977970 33.835835 45.978924 29.930000 42.074272 C 26.024168 38.169621 26.023212 31.837969 29.927864 27.932137 C 29.928576 27.931425 29.929287 27.930714 29.930000 27.930000 C 33.834999 24.026180 40.165001 24.026180 44.070000 27.930000 Z" stroke="#231F20" stroke-width="2.000000" stroke-miterlimit="10.000000" fill="none"/></g></svg>