<svg version="1.1" viewBox="0.000000 0.000000 48.000000 48.000000" xmlns="http://www.w3.org/2000/svg" xmlns:xlink="http://www.w3.org/1999/xlink" overflow="hidden"><defs></defs><g id="icons"><circle cx="24.000000" cy="24.000000" r="23.000000" stroke="#231F20" stroke-width="2.000000" stroke-linecap="round" stroke-linejoin="round" fill="none"/><path d=" M 41.000000 8.510000 C 41.000000 8.510000 40.000000 14.000000 36.000000 16.000000 C 32.000000 15.000000 28.000000 18.000000 29.000000 18.000000 C 30.000000 18.000000 31.000000 22.000000 31.000000 22.000000 C 32.000000 23.000000 34.000000 22.000000 34.000000 22.000000 C 36.500000 24.500000 30.000000 29.000000 30.000000 30.000000 C 30.000000 31.000000 32.500000 31.500000 31.000000 33.000000 C 30.152945 33.871628 29.130369 34.553345 28.000000 35.000000 C 28.000000 40.000000 23.000000 40.000000 22.000000 40.000000 C 21.000000 40.000000 19.000000 36.000000 19.000000 35.000000 C 19.000000 34.000000 20.000000 33.000000 20.000000 32.000000 C 20.000000 31.000000 18.000000 29.000000 18.000000 29.000000 C 18.000000 25.000000 15.000000 26.000000 12.000000 26.000000 C 9.000000 26.000000 9.000000 22.000000 9.000000 22.000000 C 9.000000 22.000000 9.000000 15.000000 14.000000 14.000000 C 19.000000 13.000000 19.000000 15.000000 19.000000 15.000000 C 21.000000 17.000000 25.000000 15.000000 27.000000 15.000000 C 27.000000 15.000000 28.000000 8.000000 26.000000 9.000000 C 24.000000 10.000000 22.209999 9.230000 22.000000 7.000000 C 21.709999 3.870000 30.730000 2.000000 30.730000 2.000000" stroke="#231F20" stroke-width="2.000000" stroke-linecap="round" stroke-linejoin="round" fill="none"/></g></svg>