<svg version="1.1" viewBox="0.000000 0.000000 48.000000 48.000000" xmlns="http://www.w3.org/2000/svg" xmlns:xlink="http://www.w3.org/1999/xlink" overflow="hidden"><defs></defs><g id="icons"><path d=" M 8.000000 47.000000 L 12.000000 43.000000 L 16.000000 47.000000 L 20.000000 43.000000 L 24.000000 47.000000 L 28.000000 43.000000 L 32.000000 47.000000 L 36.000000 43.000000 L 40.000000 47.000000 L 40.000000 1.000000 L 36.000000 5.000000 L 32.000000 1.000000 L 28.000000 5.000000 L 24.000000 1.000000 L 20.000000 5.000000 L 16.000000 1.000000 L 12.000000 5.000000 L 8.000000 1.000000 L 8.000000 47.000000 Z" stroke="#231F20" stroke-width="2.000000" stroke-linecap="round" stroke-linejoin="round" fill="none"/><line x1="14.000000" y1="13.000000" x2="26.000000" y2="13.000000" stroke="#231F20" stroke-width="2.000000" stroke-linecap="round" stroke-linejoin="round" fill="none"/><line x1="14.000000" y1="19.000000" x2="22.000000" y2="19.000000" stroke="#231F20" stroke-width="2.000000" stroke-linecap="round" stroke-linejoin="round" fill="none"/><line x1="14.000000" y1="25.000000" x2="24.000000" y2="25.000000" stroke="#231F20" stroke-width="2.000000" stroke-linecap="round" stroke-linejoin="round" fill="none"/><line x1="14.000000" y1="31.000000" x2="20.000000" y2="31.000000" stroke="#231F20" stroke-width="2.000000" stroke-linecap="round" stroke-linejoin="round" fill="none"/><line x1="32.000000" y1="13.000000" x2="34.000000" y2="13.000000" stroke="#231F20" stroke-width="2.000000" stroke-linecap="round" stroke-linejoin="round" fill="none"/><line x1="32.000000" y1="19.000000" x2="34.000000" y2="19.000000" stroke="#231F20" stroke-width="2.000000" stroke-linecap="round" stroke-linejoin="round" fill="none"/><line x1="32.000000" y1="25.000000" x2="34.000000" y2="25.000000" stroke="#231F20" stroke-width="2.000000" stroke-linecap="round" stroke-linejoin="round" fill="none"/><line x1="32.000000" y1="31.000000" x2="34.000000" y2="31.000000" stroke="#231F20" stroke-width="2.000000" stroke-linecap="round" stroke-linejoin="round" fill="none"/></g></svg>