<svg version="1.1" viewBox="0.000000 0.000000 48.000000 48.000000" xmlns="http://www.w3.org/2000/svg" xmlns:xlink="http://www.w3.org/1999/xlink" overflow="hidden"><defs></defs><g id="icons"><path d=" M 47.000000 35.000000 L 23.000000 35.000000 L 15.000000 43.000000 L 15.000000 35.000000 L 1.000000 35.000000 L 1.000000 5.000000 L 47.000000 5.000000 L 47.000000 35.000000 Z" stroke="#231F20" stroke-width="2.000000" stroke-linecap="round" stroke-linejoin="round" fill="none"/><path d=" M 13.000000 15.000000 C 13.000000 12.790861 14.790861 11.000000 17.000000 11.000000 C 19.209139 11.000000 21.000000 12.790861 21.000000 15.000000" stroke="#231F20" stroke-width="2.000000" stroke-linecap="round" stroke-linejoin="round" fill="none"/><path d=" M 35.000000 15.000000 C 35.000000 12.790861 33.209141 11.000000 31.000000 11.000000 C 28.790861 11.000000 27.000000 12.790861 27.000000 15.000000" stroke="#231F20" stroke-width="2.000000" stroke-linecap="round" stroke-linejoin="round" fill="none"/><path d=" M 11.000000 20.000000 C 11.000000 24.970562 15.029437 29.000000 20.000000 29.000000 L 28.000000 29.000000 C 32.970562 29.000000 37.000000 24.970562 37.000000 20.000000" stroke="#231F20" stroke-width="2.000000" stroke-linecap="round" stroke-linejoin="round" fill="none"/></g></svg>