<svg version="1.1" viewBox="0.000000 0.000000 48.000000 48.000000" xmlns="http://www.w3.org/2000/svg" xmlns:xlink="http://www.w3.org/1999/xlink" overflow="hidden"><defs></defs><g id="icons"><path d=" M 19.709999 4.130000 C 20.460354 1.760699 22.989336 0.448284 25.358639 1.198639 C 26.754456 1.640693 27.847946 2.734184 28.289999 4.130000 L 28.290001 4.230000 L 28.370001 4.170000 C 29.948641 2.989927 32.106785 2.957655 33.720001 4.090000 C 35.320251 5.204940 35.972347 7.255556 35.310001 9.090000 L 35.310001 9.180000 L 35.410000 9.180000 C 37.371948 9.104234 39.151699 10.323239 39.790001 12.180000 C 40.422710 14.043885 39.715469 16.099810 38.070000 17.180000 L 38.000000 17.200001 L 38.090000 17.250000 C 39.712883 18.324196 40.417122 20.350933 39.810001 22.200001 C 39.171700 24.056761 37.391953 25.275768 35.430000 25.200001 L 35.330002 25.200001 L 35.330002 25.299999 C 35.996025 27.134371 35.343212 29.187243 33.740002 30.299999 C 32.129913 31.438442 29.969755 31.410179 28.390001 30.230000 L 28.309999 30.170000 L 28.309999 30.260000 C 27.559645 32.629303 25.030663 33.941715 22.661360 33.191360 C 21.265543 32.749306 20.172052 31.655815 19.730000 30.260000 L 19.730000 30.170000 L 19.650000 30.230000 C 18.070246 31.410179 15.910089 31.438444 14.299999 30.299999 C 12.696790 29.187243 12.043977 27.134371 12.709999 25.299999 L 12.710000 25.200001 L 12.600000 25.200001 C 10.641683 25.271273 8.867230 24.053114 8.230000 22.200001 C 7.622877 20.350933 8.327117 18.324196 9.950001 17.250000 L 10.000000 17.200001 L 9.910000 17.139999 C 8.264529 16.059809 7.557292 14.003884 8.190000 12.139999 C 8.827229 10.286886 10.601682 9.068727 12.559999 9.139999 L 12.670000 9.140000 L 12.670000 9.050000 C 12.007655 7.215556 12.659752 5.164940 14.260000 4.050000 C 15.873219 2.917655 18.031361 2.949927 19.610001 4.130000 L 19.690001 4.190000 Z" stroke="#231F20" stroke-width="2.000000" stroke-linejoin="round" fill="none"/><path d=" M 32.000000 34.000000 L 32.000000 47.000000 L 24.000000 39.000000 L 16.000000 47.000000 L 16.000000 34.000000" stroke="#231F20" stroke-width="2.000000" stroke-linejoin="round" fill="none"/><path d=" M 24.000000 8.000000 L 27.000000 14.000000 L 33.000000 14.000000 L 28.000000 18.000000 L 30.000000 25.000000 L 24.000000 21.250000 L 18.000000 25.000000 L 20.000000 18.000000 L 15.000000 14.000000 L 21.000000 14.000000 L 24.000000 8.000000 Z" stroke="#231F20" stroke-width="2.000000" stroke-linejoin="round" fill="none"/></g></svg>