<svg version="1.1" viewBox="0.000000 0.000000 48.000000 48.000000" xmlns="http://www.w3.org/2000/svg" xmlns:xlink="http://www.w3.org/1999/xlink" overflow="hidden"><defs></defs><g id="icons"><path d=" M 14.000000 31.000000 L 9.000000 31.000000 L 9.000000 25.000000 L 14.000000 25.000000 L 21.000000 19.000000 L 21.000000 37.000000 L 14.000000 31.000000 Z" stroke="#231F20" stroke-width="2.000000" stroke-linecap="round" stroke-linejoin="round" fill="none"/><path d=" M 29.000000 5.000000 L 5.000000 5.000000 C 2.790861 5.000000 1.000000 6.790861 1.000000 9.000000 C 1.000000 11.209139 2.790861 13.000000 5.000000 13.000000 L 29.000000 13.000000 L 29.000000 43.000000 L 5.000000 43.000000 C 2.790861 43.000000 1.000000 41.209141 1.000000 39.000000 L 1.000000 10.000000" stroke="#231F20" stroke-width="2.000000" stroke-linecap="square" stroke-miterlimit="10.000000" fill="none"/><line x1="5.000000" y1="9.000000" x2="27.000000" y2="9.000000" stroke="#231F20" stroke-width="2.000000" stroke-linecap="round" stroke-miterlimit="10.000000" fill="none"/><path d=" M 38.189999 18.830000 C 43.263630 23.906269 43.263630 32.133732 38.189999 37.209999" stroke="#231F20" stroke-width="2.000000" stroke-linecap="round" stroke-miterlimit="10.000000" fill="none"/><path d=" M 42.000000 40.000000 C 48.611206 33.365875 48.611206 22.634123 42.000000 16.000000" stroke="#231F20" stroke-width="2.000000" stroke-linecap="round" stroke-miterlimit="10.000000" fill="none"/><path d=" M 34.369999 21.660000 C 37.885292 25.174145 37.886223 30.872629 34.372078 34.387920 C 34.371384 34.388615 34.370693 34.389305 34.369999 34.389999" stroke="#231F20" stroke-width="2.000000" stroke-linecap="round" stroke-miterlimit="10.000000" fill="none"/></g></svg>