<svg version="1.1" viewBox="0.000000 0.000000 48.000000 48.000000" xmlns="http://www.w3.org/2000/svg" xmlns:xlink="http://www.w3.org/1999/xlink" overflow="hidden"><defs></defs><g id="icons"><path d=" M 24.000000 22.000000 C 22.895430 22.000000 22.000000 22.895430 22.000000 24.000000 C 22.000000 25.104570 22.895430 26.000000 24.000000 26.000000 C 25.104570 26.000000 26.000000 25.104570 26.000000 24.000000 C 26.000000 22.895430 25.104570 22.000000 24.000000 22.000000 Z" fill="#231F20"/><path d=" M 40.259998 7.740000 C 49.237450 16.721268 49.237450 31.278732 40.259998 40.259998" stroke="#231F20" stroke-width="2.000000" stroke-linecap="round" stroke-miterlimit="10.000000" fill="none"/><path d=" M 34.610001 13.390000 C 40.469742 19.245987 40.472786 28.743462 34.616798 34.603203 C 34.614532 34.605469 34.612267 34.607735 34.610001 34.610001" stroke="#231F20" stroke-width="2.000000" stroke-linecap="round" stroke-miterlimit="10.000000" fill="none"/><path d=" M 29.000000 19.049999 C 31.747616 21.769651 31.770287 26.201748 29.050634 28.949366 C 29.033842 28.966330 29.016964 28.983208 29.000000 29.000000" stroke="#231F20" stroke-width="2.000000" stroke-linecap="round" stroke-miterlimit="10.000000" fill="none"/><path d=" M 7.740000 7.740000 C -1.237452 16.721268 -1.237452 31.278732 7.740000 40.259998" stroke="#231F20" stroke-width="2.000000" stroke-linecap="round" stroke-miterlimit="10.000000" fill="none"/><path d=" M 13.390000 13.390000 C 7.530259 19.245987 7.527216 28.743462 13.383203 34.603203 C 13.385468 34.605469 13.387733 34.607735 13.390000 34.610001" stroke="#231F20" stroke-width="2.000000" stroke-linecap="round" stroke-miterlimit="10.000000" fill="none"/><path d=" M 19.049999 19.049999 C 16.316189 21.783529 16.315964 26.215685 19.049494 28.949493 C 19.049662 28.949661 19.049831 28.949831 19.049999 28.949999" stroke="#231F20" stroke-width="2.000000" stroke-linecap="round" stroke-miterlimit="10.000000" fill="none"/></g></svg>