<svg version="1.1" viewBox="0.000000 0.000000 48.000000 48.000000" xmlns="http://www.w3.org/2000/svg" xmlns:xlink="http://www.w3.org/1999/xlink" overflow="hidden"><defs></defs><g id="icons"><path d=" M 7.000000 22.000000 L 7.000000 21.000000 C 7.000000 19.895430 7.895431 19.000000 9.000000 19.000000 L 11.000000 19.000000 C 12.104569 19.000000 13.000000 19.895430 13.000000 21.000000 L 13.000000 22.000000" stroke="#231F20" stroke-width="2.000000" stroke-miterlimit="10.000000" fill="none" opacity="0.300000"/><path d=" M 45.000000 44.000000 C 45.000000 45.656853 43.656853 47.000000 42.000000 47.000000 L 6.000000 47.000000 C 4.343146 47.000000 3.000000 45.656853 3.000000 44.000000 L 3.000000 26.000000 C 3.000000 24.343145 4.343146 23.000000 6.000000 23.000000 L 18.000000 23.000000 L 22.000000 19.000000 L 34.000000 19.000000 L 38.000000 23.000000 L 42.000000 23.000000 C 43.656853 23.000000 45.000000 24.343145 45.000000 26.000000 Z" stroke="#231F20" stroke-width="2.000000" stroke-linejoin="round" fill="none"/><path d=" M 7.000000 23.000000 L 7.000000 21.000000 C 7.000000 19.895430 7.895431 19.000000 9.000000 19.000000 L 11.000000 19.000000 C 12.104569 19.000000 13.000000 19.895430 13.000000 21.000000 L 13.000000 23.000000" stroke="#231F20" stroke-width="2.000000" stroke-linejoin="round" fill="none"/><circle cx="10.000000" cy="30.000000" r="3.000000" stroke="#231F20" stroke-width="2.000000" stroke-linejoin="round" fill="none"/><circle cx="29.000000" cy="34.000000" r="5.000000" stroke="#231F20" stroke-width="2.000000" stroke-linejoin="round" fill="none"/><circle cx="29.000000" cy="34.000000" r="9.000000" stroke="#231F20" stroke-width="2.000000" stroke-linejoin="round" fill="none"/><rect x="17.000000" y="1.000000" width="22.000000" height="12.000000" stroke="#231F20" stroke-width="2.000000" stroke-linejoin="round" fill="none"/><rect x="21.000000" y="5.000000" width="14.000000" height="4.000000" stroke="#231F20" stroke-width="2.000000" stroke-linejoin="round" fill="none"/><line x1="20.000000" y1="13.000000" x2="22.000000" y2="19.000000" stroke="#231F20" stroke-width="2.000000" stroke-linejoin="round" fill="none"/><line x1="36.000000" y1="13.000000" x2="34.000000" y2="19.000000" stroke="#231F20" stroke-width="2.000000" stroke-linejoin="round" fill="none"/></g></svg>