<svg version="1.1" viewBox="0.000000 0.000000 48.000000 48.000000" xmlns="http://www.w3.org/2000/svg" xmlns:xlink="http://www.w3.org/1999/xlink" overflow="hidden"><defs></defs><g id="icons"><path d=" M 28.799999 30.540001 L 27.400000 23.469999 L 33.389999 19.459999 L 34.790001 26.530001 L 28.799999 30.540001 Z" stroke="#231F20" stroke-width="2.000000" stroke-linejoin="round" fill="none"/><rect x="16.100000" y="14.000000" width="30.000000" height="22.000000" stroke="#231F20" stroke-width="2.000000" stroke-linejoin="round" fill="none" transform="matrix(0.382683,-0.923880,0.923880,0.382683,-3.900000,44.160000)"/><path d=" M 33.730000 36.919998 L 32.430000 37.459999 L 32.970001 38.770000 L 34.279999 38.230000 L 33.730000 36.919998 L 33.730000 36.919998 Z" fill="#231F20"/><path d=" M 29.219999 11.230000 L 27.910000 11.780000 L 28.459999 13.080000 L 29.760000 12.540000 L 29.219999 11.230000 L 29.219999 11.230000 Z" fill="#231F20"/><path d=" M 5.840000 16.180000 L 5.300000 17.480000 L 6.610000 18.020000 L 7.150000 16.719999 L 5.840000 16.180000 L 5.840000 16.180000 Z" fill="#231F20"/><path d=" M 5.840000 16.180000 L 5.300000 17.480000 L 6.610000 18.020000 L 7.150000 16.719999 L 5.840000 16.180000 L 5.840000 16.180000 Z" fill="#231F20"/><path d=" M 16.000000 34.930000 L 13.000000 34.930000 L 13.000000 4.930000 L 35.000000 4.930000 L 35.000000 9.930000" stroke="#231F20" stroke-width="2.000000" stroke-linejoin="round" fill="none"/><path d=" M 23.490000 38.090000 L 12.480000 42.650002 L 1.000000 14.930000 L 13.010000 9.960000" stroke="#231F20" stroke-width="2.000000" stroke-linejoin="round" fill="none"/><path d=" M 18.000000 7.930000 L 16.000000 7.930000 L 16.000000 9.930000 L 18.000000 9.930000 L 18.000000 7.930000 L 18.000000 7.930000 Z" fill="#231F20"/></g></svg>