<svg version="1.1" viewBox="0.000000 0.000000 48.000000 48.000000" xmlns="http://www.w3.org/2000/svg" xmlns:xlink="http://www.w3.org/1999/xlink" overflow="hidden"><defs></defs><g id="icons"><path d=" M 20.000000 34.939999 C 17.971197 34.851460 15.958674 34.536163 14.000000 34.000000 L 3.000000 39.000000 L 7.000000 30.000000 C 3.234012 27.157934 1.014059 22.718029 1.000000 18.000000 C 1.000000 8.610000 10.330000 1.000000 21.830000 1.000000 C 33.330002 1.000000 43.000000 8.610000 43.000000 18.000000 C 42.998383 19.029335 42.884373 20.055416 42.660000 21.059999" stroke="#231F20" stroke-width="2.000000" stroke-linejoin="round" fill="none"/><path d=" M 47.000000 47.000000 L 23.000000 47.000000 L 35.000000 23.000000 L 47.000000 47.000000 Z" stroke="#231F20" stroke-width="2.000000" stroke-linejoin="round" fill="none"/><line x1="35.000000" y1="32.820000" x2="35.000000" y2="39.360000" stroke="#231F20" stroke-width="2.000000" stroke-linejoin="round" fill="none"/><path d=" M 35.000000 41.549999 C 34.398010 41.549999 33.910000 42.038010 33.910000 42.639999 C 33.910000 43.241989 34.398010 43.730000 35.000000 43.730000 C 35.601990 43.730000 36.090000 43.241989 36.090000 42.639999 C 36.090000 42.038010 35.601990 41.549999 35.000000 41.549999 Z" stroke="#231F20" stroke-width="2.000000" stroke-linejoin="round" fill="none"/></g></svg>