<svg version="1.1" viewBox="0.000000 0.000000 48.000000 48.000000" xmlns="http://www.w3.org/2000/svg" xmlns:xlink="http://www.w3.org/1999/xlink" overflow="hidden"><defs></defs><g id="icons"><path d=" M 36.000000 39.000000 C 40.970562 32.372581 39.627419 22.970562 33.000000 18.000000 C 26.372583 13.029437 16.970562 14.372583 12.000000 21.000000 C 8.000000 26.333334 8.000000 33.666668 12.000000 39.000000 Z" stroke="#231F20" stroke-width="2.000000" stroke-linecap="round" stroke-linejoin="round" fill="none"/><path d=" M 9.000000 30.000000 C 5.686292 30.000000 3.000000 27.313709 3.000000 24.000000 L 3.000000 21.000000 C 3.000000 19.895430 2.104569 19.000000 1.000000 19.000000" stroke="#231F20" stroke-width="2.000000" stroke-linecap="round" stroke-linejoin="round" fill="none"/><path d=" M 38.580002 33.490002 C 39.341858 33.828194 40.166458 34.001976 41.000000 34.000000 C 44.313705 34.005329 47.004311 31.323359 47.009640 28.009655 C 47.014969 24.695951 44.332996 22.005344 41.019295 22.000017 C 39.700760 21.997898 38.418240 22.430166 37.370003 23.230001" stroke="#231F20" stroke-width="2.000000" stroke-linecap="round" stroke-linejoin="round" fill="none"/><line x1="12.000000" y1="21.000000" x2="36.000000" y2="21.000000" stroke="#231F20" stroke-width="2.000000" stroke-linecap="round" stroke-linejoin="round" fill="none"/><circle cx="24.000000" cy="12.000000" r="3.000000" stroke="#231F20" stroke-width="2.000000" stroke-linecap="round" stroke-linejoin="round" fill="none"/></g></svg>