<svg version="1.1" viewBox="0.000000 0.000000 48.000000 48.000000" xmlns="http://www.w3.org/2000/svg" xmlns:xlink="http://www.w3.org/1999/xlink" overflow="hidden"><defs></defs><g id="icons"><path d=" M 7.750000 42.000000 C -1.231206 33.017090 -1.229823 18.454294 7.753088 9.473088 C 16.736000 0.491882 31.298794 0.493265 40.279999 9.476176 C 49.259998 18.457882 49.259998 33.018295 40.279999 42.000000 C 35.985241 46.296776 29.020426 46.298409 24.723650 42.003651 C 24.722433 42.002434 24.721216 42.001217 24.719999 42.000000 L 16.230000 33.529999 C 15.448517 32.748516 14.181482 32.748516 13.400000 33.529999 C 12.618517 34.311481 12.618517 35.578514 13.400000 36.360001 C 15.058598 37.819229 15.220220 40.346725 13.760991 42.005325 C 12.301763 43.663925 9.774265 43.825546 8.115667 42.366318 C 7.985998 42.252235 7.863853 42.129875 7.750000 42.000004 Z" stroke="#202020" stroke-width="2.000000" stroke-linecap="round" stroke-linejoin="round" fill="none"/><path d=" M 34.599998 18.000000 C 33.429153 19.172302 31.529661 19.173483 30.357359 18.002640 C 29.185057 16.831797 29.183876 14.932302 30.354719 13.760000 C 31.525562 12.587699 33.425056 12.586516 34.597359 13.757360 C 34.598240 13.758240 34.599117 13.759120 34.599998 13.760000 C 35.769814 14.931271 35.769814 16.828730 34.599998 18.000000 Z" stroke="#202020" stroke-width="2.000000" stroke-linecap="round" stroke-linejoin="round" fill="none"/><path d=" M 36.590000 27.160000 C 35.809387 26.378517 35.810089 25.112186 36.591572 24.331573 C 37.373055 23.550959 38.639385 23.551664 39.419998 24.333147 C 40.199997 25.114016 40.199997 26.379131 39.419998 27.160000 C 38.639385 27.941483 37.373055 27.942186 36.591572 27.161573 C 36.591045 27.161049 36.590523 27.160524 36.590000 27.160000 Z" stroke="#202020" stroke-width="2.000000" stroke-linecap="round" stroke-linejoin="round" fill="none"/><path d=" M 29.670000 38.480000 C 28.108772 36.917034 28.110182 34.384373 29.673147 32.823147 C 31.236113 31.261919 33.768772 31.263329 35.330002 32.826294 C 36.890003 34.388031 36.890003 36.918262 35.330002 38.480000 C 33.768772 40.042965 31.236115 40.044373 29.673149 38.483147 C 29.672100 38.482098 29.671051 38.481049 29.670002 38.480000 Z" stroke="#202020" stroke-width="2.000000" stroke-linecap="round" stroke-linejoin="round" fill="none"/><path d=" M 22.570000 11.620000 C 23.742302 12.790844 23.743483 14.690338 22.572639 15.862639 C 21.401796 17.034941 19.502302 17.036123 18.330000 15.865279 C 17.157698 14.694435 17.156517 12.794941 18.327360 11.622640 C 18.328239 11.621759 18.329119 11.620879 18.330000 11.620000 C 19.501270 10.450187 21.398729 10.450187 22.570000 11.620000 Z" stroke="#202020" stroke-width="2.000000" stroke-linecap="round" stroke-linejoin="round" fill="none"/></g></svg>