<svg version="1.1" viewBox="0.000000 0.000000 48.000000 48.000000" xmlns="http://www.w3.org/2000/svg" xmlns:xlink="http://www.w3.org/1999/xlink" overflow="hidden"><defs></defs><g id="icons"><path d=" M 37.000000 38.000000 L 37.000000 29.000000 C 37.000000 23.751888 33.844410 19.018505 29.000000 17.000000 C 29.000000 14.238576 26.761423 12.000000 24.000000 12.000000 C 21.238577 12.000000 19.000000 14.238576 19.000000 17.000000 C 14.155590 19.018505 11.000000 23.751888 11.000000 29.000000 L 11.000000 38.000000 C 11.000000 40.209141 9.209139 42.000000 7.000000 42.000000 L 41.000000 42.000000 C 38.790859 42.000000 37.000000 40.209141 37.000000 38.000000 Z" stroke="#231F20" stroke-width="2.000000" stroke-linecap="round" stroke-linejoin="round" fill="none"/><path d=" M 28.000000 42.000000 C 28.000000 44.209141 26.209139 46.000000 24.000000 46.000000 C 21.790861 46.000000 20.000000 44.209141 20.000000 42.000000" stroke="#231F20" stroke-width="2.000000" stroke-linecap="round" stroke-linejoin="round" fill="none"/><path d=" M 1.000000 12.000000 L 7.000000 12.000000 L 1.000000 18.000000 L 7.000000 18.000000" stroke="#231F20" stroke-width="2.000000" stroke-linecap="round" stroke-linejoin="round" fill="none"/><path d=" M 19.000000 2.000000 L 23.000000 2.000000 L 19.000000 6.000000 L 23.000000 6.000000" stroke="#231F20" stroke-width="2.000000" stroke-linecap="round" stroke-linejoin="round" fill="none"/><path d=" M 39.000000 6.000000 L 47.000000 6.000000 L 39.000000 14.000000 L 47.000000 14.000000" stroke="#231F20" stroke-width="2.000000" stroke-linecap="round" stroke-linejoin="round" fill="none"/></g></svg>