<svg version="1.1" viewBox="0.000000 0.000000 48.000000 48.000000" xmlns="http://www.w3.org/2000/svg" xmlns:xlink="http://www.w3.org/1999/xlink" overflow="hidden"><defs></defs><g id="icons"><line x1="13.070000" y1="8.430000" x2="47.070000" y2="8.430000" stroke="#231F20" stroke-width="2.000000" stroke-linecap="round" stroke-linejoin="round" fill="none"/><line x1="13.070000" y1="24.430000" x2="47.070000" y2="24.430000" stroke="#231F20" stroke-width="2.000000" stroke-linecap="round" stroke-linejoin="round" fill="none"/><line x1="13.070000" y1="40.430000" x2="47.070000" y2="40.430000" stroke="#231F20" stroke-width="2.000000" stroke-linecap="round" stroke-linejoin="round" fill="none"/><path d=" M 4.070000 12.430000 L 4.070000 4.570000 L 1.070000 7.500000" stroke="#231F20" stroke-width="2.000000" stroke-linecap="round" stroke-linejoin="round" fill="none"/><path d=" M 5.070000 28.430000 L 0.930000 28.430000 C 3.930000 24.430000 4.930000 24.750000 4.930000 22.500000 C 4.930000 21.395430 4.034569 20.500000 2.930000 20.500000 C 1.886441 20.476711 1.021592 21.303804 0.998304 22.347363 C 0.997317 22.391581 0.997883 22.435822 1.000000 22.480000" stroke="#231F20" stroke-width="2.000000" stroke-linecap="round" stroke-linejoin="round" fill="none"/><path d=" M 1.070000 36.430000 L 4.930000 36.430000 L 2.930000 39.500000 C 4.580000 39.500000 4.930000 40.500000 4.930000 41.500000 C 4.930000 42.500000 4.580000 43.500000 2.930000 43.500000 L 1.070000 43.500000" stroke="#231F20" stroke-width="2.000000" stroke-linecap="round" stroke-linejoin="round" fill="none"/></g></svg>