<svg version="1.1" viewBox="0.000000 0.000000 48.000000 48.000000" xmlns="http://www.w3.org/2000/svg" xmlns:xlink="http://www.w3.org/1999/xlink" overflow="hidden"><defs></defs><g id="icons"><path d=" M 5.000000 35.000000 C 2.790861 35.000000 1.000000 33.209141 1.000000 31.000000 C 1.000000 28.790861 2.790861 27.000000 5.000000 27.000000" stroke="#231F20" stroke-width="2.000000" stroke-linecap="round" stroke-linejoin="round" fill="none"/><path d=" M 13.000000 41.000000 L 9.000000 41.000000 C 6.790861 41.000000 5.000000 39.209141 5.000000 37.000000 L 5.000000 25.000000 C 5.000000 22.790861 6.790861 21.000000 9.000000 21.000000 L 13.000000 21.000000 Z" stroke="#231F20" stroke-width="2.000000" stroke-linecap="round" stroke-linejoin="round" fill="none"/><path d=" M 43.000000 35.000000 C 45.209141 35.000000 47.000000 33.209141 47.000000 31.000000 C 47.000000 28.790861 45.209141 27.000000 43.000000 27.000000" stroke="#231F20" stroke-width="2.000000" stroke-linecap="round" stroke-linejoin="round" fill="none"/><path d=" M 35.000000 41.000000 L 39.000000 41.000000 C 41.209141 41.000000 43.000000 39.209141 43.000000 37.000000 L 43.000000 25.000000 C 43.000000 22.790861 41.209141 21.000000 39.000000 21.000000 L 35.000000 21.000000 Z" stroke="#231F20" stroke-width="2.000000" stroke-linecap="round" stroke-linejoin="round" fill="none"/><path d=" M 10.000000 21.000000 C 10.000000 13.268014 16.268013 7.000000 24.000000 7.000000 C 31.731987 7.000000 38.000000 13.268014 38.000000 21.000000" stroke="#231F20" stroke-width="2.000000" stroke-linejoin="round" fill="none"/></g></svg>