<svg version="1.1" viewBox="0.000000 0.000000 48.000000 48.000000" xmlns="http://www.w3.org/2000/svg" xmlns:xlink="http://www.w3.org/1999/xlink" overflow="hidden"><defs></defs><g id="icons"><rect x="8.920000" y="1.630000" width="8.000000" height="16.000000" stroke="#231F20" stroke-width="2.000000" stroke-linecap="round" stroke-linejoin="round" fill="none" transform="matrix(0.707107,-0.707107,0.707107,0.707107,-3.020000,11.950000)"/><rect x="34.370000" y="27.080000" width="8.000000" height="16.000000" stroke="#231F20" stroke-width="2.000000" stroke-linecap="round" stroke-linejoin="round" fill="none" transform="matrix(0.707107,-0.707107,0.707107,0.707107,-13.570000,37.410000)"/><path d=" M 35.549999 12.450000 C 33.208157 10.105551 29.409168 10.103437 27.064718 12.445280 C 27.063145 12.446853 27.061571 12.448426 27.059998 12.450000 L 15.750000 23.770000 L 24.230000 32.250000 L 35.549999 20.940001 C 37.894447 18.598158 37.896561 14.799170 35.554718 12.454720 C 35.553146 12.453146 35.551571 12.451573 35.549999 12.450001 Z" stroke="#231F20" stroke-width="2.000000" stroke-linecap="round" stroke-linejoin="round" fill="none"/><path d=" M 20.000000 28.000000 C 16.877544 24.874069 11.812225 24.871250 8.686294 27.993708 C 8.684195 27.995804 8.682096 27.997902 8.680000 28.000000 L 20.000000 39.330002 C 23.128693 36.210312 23.135992 31.144999 20.016304 28.016306 C 20.010878 28.010864 20.005444 28.005428 20.000000 28.000002 Z" stroke="#231F20" stroke-width="2.000000" stroke-linecap="round" stroke-linejoin="round" fill="none"/><path d=" M 3.190000 34.910000 C 0.456191 37.643810 0.456191 42.076191 3.190000 44.810001 C 5.923810 47.543812 10.356191 47.543812 13.090000 44.810001" stroke="#231F20" stroke-width="2.000000" stroke-linecap="round" stroke-linejoin="round" fill="none"/><path d=" M 7.000000 36.910000 C 5.787827 38.039513 5.720819 39.937828 6.850334 41.150002 C 7.979848 42.362175 9.878160 42.429184 11.090334 41.299667 C 11.141968 41.251556 11.191888 41.201633 11.240000 41.150002" stroke="#231F20" stroke-width="2.000000" stroke-linecap="round" stroke-linejoin="round" fill="none"/><line x1="18.580000" y1="15.280000" x2="21.400000" y2="18.110000" stroke="#231F20" stroke-width="2.000000" stroke-linecap="round" stroke-linejoin="round" fill="none"/><line x1="29.890000" y1="26.600000" x2="32.720000" y2="29.430000" stroke="#231F20" stroke-width="2.000000" stroke-linecap="round" stroke-linejoin="round" fill="none"/><path d=" M 39.790001 6.210000 C 38.685432 6.210000 37.790001 7.105431 37.790001 8.210000 C 37.790001 9.314569 38.685432 10.210000 39.790001 10.210000 C 40.318146 10.210422 40.825020 10.001921 41.200001 9.630000 C 41.984245 8.852160 41.989437 7.585842 41.211597 6.801597 C 40.835674 6.422578 40.323830 6.209574 39.790001 6.210000 Z" fill="#231F20"/><line x1="35.550000" y1="12.450000" x2="38.380000" y2="9.630000" stroke="#231F20" stroke-width="2.000000" stroke-linecap="round" stroke-linejoin="round" fill="none"/></g></svg>