<svg version="1.1" viewBox="0.000000 0.000000 48.000000 48.000000" xmlns="http://www.w3.org/2000/svg" xmlns:xlink="http://www.w3.org/1999/xlink" overflow="hidden"><defs></defs><g id="icons"><path d=" M 39.000000 16.580000 C 41.963871 18.712229 44.651150 21.204678 47.000000 24.000000 C 47.000000 24.000000 36.700001 37.000000 24.000000 37.000000 C 21.965067 36.987766 19.943153 36.674370 18.000000 36.070000" stroke="#231F20" stroke-width="2.000000" stroke-linecap="round" stroke-linejoin="round" fill="none"/><path d=" M 8.940000 31.400000 C 5.997684 29.270948 3.330676 26.785324 1.000000 24.000000 C 1.000000 24.000000 11.300000 11.000000 24.000000 11.000000 C 25.687202 11.008039 27.366821 11.226389 29.000000 11.650000" stroke="#231F20" stroke-width="2.000000" stroke-linecap="round" stroke-linejoin="round" fill="none"/><path d=" M 16.000000 24.000000 C 16.000000 19.581722 19.581722 16.000000 24.000000 16.000000" stroke="#231F20" stroke-width="2.000000" stroke-linecap="round" stroke-linejoin="round" fill="none"/><path d=" M 32.000000 24.000000 C 32.000000 28.418278 28.418278 32.000000 24.000000 32.000000" stroke="#231F20" stroke-width="2.000000" stroke-linecap="round" stroke-linejoin="round" fill="none"/><line x1="43.500000" y1="4.500000" x2="4.500000" y2="43.500000" stroke="#231F20" stroke-width="2.000000" stroke-linecap="round" stroke-linejoin="round" fill="none"/></g></svg>