<svg version="1.1" viewBox="0.000000 0.000000 48.000000 48.000000" xmlns="http://www.w3.org/2000/svg" xmlns:xlink="http://www.w3.org/1999/xlink" overflow="hidden"><defs></defs><g id="icons"><path d=" M 37.500000 32.389999 C 38.817265 29.349361 37.420197 25.816584 34.379559 24.499319 C 33.398327 24.074228 32.321312 23.919104 31.260000 24.049999 C 29.060759 18.386911 22.687080 15.578910 17.023993 17.778152 C 13.125947 19.291946 10.423340 22.885033 10.050001 27.049999 C 4.554705 27.600969 0.546537 32.502438 1.097507 37.997730 C 1.608118 43.090496 5.881758 46.975624 11.000001 46.999996 L 33.000000 47.000000 C 37.418278 46.996452 40.997120 43.411854 40.993572 38.993576 C 40.991451 36.350414 39.683914 33.878902 37.500000 32.389999 Z" stroke="#231F20" stroke-width="2.000000" stroke-linecap="round" stroke-linejoin="round" fill="none"/><path d=" M 44.000000 28.660000 C 45.033531 28.437265 46.039536 28.101931 47.000000 27.660000 C 40.016361 24.341509 37.045170 15.989983 40.363659 9.006342 C 41.746330 6.096562 44.090221 3.752671 47.000000 2.370000 C 40.052219 -0.959515 31.720821 1.973670 28.391306 8.921452 C 27.929811 9.884461 27.580421 10.897278 27.350000 11.940000" stroke="#231F20" stroke-width="2.000000" stroke-linecap="round" stroke-linejoin="round" fill="none"/></g></svg>