<svg version="1.1" viewBox="0.000000 0.000000 48.000000 48.000000" xmlns="http://www.w3.org/2000/svg" xmlns:xlink="http://www.w3.org/1999/xlink" overflow="hidden"><defs></defs><g id="icons"><line x1="6.000000" y1="17.000000" x2="13.000000" y2="17.000000" stroke="#231F20" stroke-width="2.000000" stroke-linecap="round" stroke-linejoin="round" fill="none"/><path d=" M 10.000000 22.000000 L 6.000000 17.000000 L 10.000000 12.000000" stroke="#231F20" stroke-width="2.000000" stroke-linecap="round" stroke-linejoin="round" fill="none"/><line x1="42.000000" y1="17.000000" x2="35.000000" y2="17.000000" stroke="#231F20" stroke-width="2.000000" stroke-linecap="round" stroke-linejoin="round" fill="none"/><path d=" M 38.000000 22.000000 L 42.000000 17.000000 L 38.000000 12.000000" stroke="#231F20" stroke-width="2.000000" stroke-linecap="round" stroke-linejoin="round" fill="none"/><path d=" M 43.000000 12.000000 L 47.000000 17.000000 L 43.000000 22.000000" stroke="#231F20" stroke-width="2.000000" stroke-linecap="round" stroke-linejoin="round" fill="none"/><path d=" M 5.000000 12.000000 L 1.000000 17.000000 L 5.000000 22.000000" stroke="#231F20" stroke-width="2.000000" stroke-linecap="round" stroke-linejoin="round" fill="none"/><path d=" M 17.000000 37.000000 L 17.000000 18.000000 C 17.000000 14.134007 20.134007 11.000000 24.000000 11.000000 C 27.865993 11.000000 31.000000 14.134007 31.000000 18.000000 L 31.000000 37.000000" stroke="#231F20" stroke-width="2.000000" stroke-linecap="round" stroke-linejoin="round" fill="none"/><path d=" M 27.000000 18.000000 C 27.000000 16.343145 25.656855 15.000000 24.000000 15.000000 C 22.343145 15.000000 21.000000 16.343145 21.000000 18.000000 L 21.000000 21.000000 L 27.000000 21.000000 Z" stroke="#231F20" stroke-width="2.000000" stroke-linecap="round" stroke-linejoin="round" fill="none"/></g></svg>