<svg version="1.1" viewBox="0.000000 0.000000 48.000000 48.000000" xmlns="http://www.w3.org/2000/svg" xmlns:xlink="http://www.w3.org/1999/xlink" overflow="hidden"><defs></defs><g id="icons"><path d=" M 24.000000 47.000000 L 1.000000 47.000000 C 1.000000 47.000000 1.120000 40.889999 3.120000 37.889999 C 4.690000 35.529999 10.120000 33.889999 15.120000 31.889999" stroke="#231F20" stroke-width="2.000000" stroke-linejoin="round" fill="none"/><path d=" M 24.000000 47.000000 L 47.000000 47.000000 C 47.000000 47.000000 47.119999 40.889999 45.119999 37.889999 C 43.549999 35.529999 38.250000 33.889999 33.250000 31.889999" stroke="#231F20" stroke-width="2.000000" stroke-linejoin="round" fill="none"/><path d=" M 29.000000 31.000000 L 29.000000 24.889999 C 30.914925 23.489405 32.050671 21.262449 32.060001 18.889999 C 33.060001 18.889999 34.060001 14.890000 32.060001 13.890000 C 32.060001 13.290000 34.759998 8.280000 34.060001 4.890000 C 33.060001 -0.110000 19.059999 -0.110000 18.059999 3.890000 C 12.060000 3.890000 16.059999 13.070000 16.059999 13.890000 C 14.060000 14.890000 15.000000 18.889999 16.000000 18.889999 C 15.990444 21.239103 17.077744 23.458082 18.940001 24.889999 L 18.940001 31.000000" stroke="#231F20" stroke-width="2.000000" stroke-linejoin="round" fill="none"/><path d=" M 24.120001 39.889999 C 21.120001 39.889999 18.870001 47.000000 18.870001 47.000000 L 28.870001 47.000000 C 28.870001 47.000000 27.120001 39.889999 24.120001 39.889999 Z" stroke="#231F20" stroke-width="2.000000" stroke-linejoin="round" fill="none"/><path d=" M 24.190001 32.889999 C 22.300415 32.750671 20.494442 32.054729 19.000000 30.889999 L 19.000000 28.889999 L 17.760000 29.580000 C 16.108898 30.502064 14.829319 31.968983 14.140000 33.730000 L 12.080000 39.889999 Z" stroke="#231F20" stroke-width="2.000000" stroke-linejoin="round" fill="none"/><path d=" M 23.940001 32.889999 C 25.789593 32.748123 27.553236 32.051033 29.000000 30.889999 L 29.000000 28.889999 L 30.360001 29.580000 C 32.014912 30.503035 33.300610 31.968870 34.000000 33.730000 L 36.000000 39.889999 Z" stroke="#231F20" stroke-width="2.000000" stroke-linejoin="round" fill="none"/><path d=" M 21.000000 34.730000 L 21.000000 35.889999 C 21.000000 37.546852 22.343145 38.889999 24.000000 38.889999 C 25.656855 38.889999 27.000000 37.546852 27.000000 35.889999 L 27.000000 34.650002" stroke="#231F20" stroke-width="2.000000" stroke-linejoin="round" fill="none"/></g></svg>