<svg version="1.1" viewBox="0.000000 0.000000 48.000000 48.000000" xmlns="http://www.w3.org/2000/svg" xmlns:xlink="http://www.w3.org/1999/xlink" overflow="hidden"><defs></defs><g id="icons"><path d=" M 17.000000 43.000000 L 17.000000 24.000000 C 17.000000 20.134007 20.134007 17.000000 24.000000 17.000000 C 27.865993 17.000000 31.000000 20.134007 31.000000 24.000000 L 31.000000 43.000000" stroke="#231F20" stroke-width="2.000000" stroke-linecap="round" stroke-linejoin="round" fill="none"/><path d=" M 13.000000 30.889999 C 9.173659 24.814867 10.996664 16.788137 17.071796 12.961796 C 23.146929 9.135455 31.173658 10.958460 35.000000 17.033592 C 37.666668 21.267494 37.666668 26.656097 35.000000 30.889999" stroke="#231F20" stroke-width="2.000000" stroke-linecap="round" stroke-linejoin="round" fill="none"/><path d=" M 10.000000 36.849998 C 2.889241 29.133213 3.380522 17.113115 11.097306 10.002356 C 18.814091 2.891597 30.834190 3.382878 37.944950 11.099662 C 44.627129 18.351339 44.651039 29.509748 38.000000 36.789997" stroke="#231F20" stroke-width="2.000000" stroke-linecap="round" stroke-linejoin="round" fill="none"/><path d=" M 27.000000 24.000000 C 27.000000 22.343145 25.656855 21.000000 24.000000 21.000000 C 22.343145 21.000000 21.000000 22.343145 21.000000 24.000000 L 21.000000 27.000000 L 27.000000 27.000000 Z" stroke="#231F20" stroke-width="2.000000" stroke-linecap="round" stroke-linejoin="round" fill="none"/></g></svg>