<svg version="1.1" viewBox="0.000000 0.000000 48.000000 48.000000" xmlns="http://www.w3.org/2000/svg" xmlns:xlink="http://www.w3.org/1999/xlink" overflow="hidden"><defs></defs><g id="icons"><path d=" M 31.000000 31.000000 L 1.000000 31.000000 L 1.000000 8.000000 C 1.000000 4.134007 4.134007 1.000000 8.000000 1.000000 L 16.000000 1.000000 C 24.284271 1.000000 31.000000 7.715729 31.000000 16.000000 Z" stroke="#231F20" stroke-width="2.000000" stroke-linecap="round" stroke-linejoin="round" fill="none"/><circle cx="16.000000" cy="16.000000" r="7.000000" stroke="#231F20" stroke-width="2.000000" stroke-linecap="round" stroke-linejoin="round" fill="none"/><line x1="7.000000" y1="27.000000" x2="25.000000" y2="27.000000" stroke="#231F20" stroke-width="2.000000" stroke-linecap="round" stroke-linejoin="round" fill="none"/><path d=" M 31.000000 27.000000 L 42.000000 27.000000 C 44.761425 27.000000 47.000000 29.238577 47.000000 32.000000 C 47.000000 34.761425 44.761425 37.000000 42.000000 37.000000 L 7.000000 37.000000 C 4.790861 37.000000 3.000000 38.790859 3.000000 41.000000 C 3.000000 43.209141 4.790861 45.000000 7.000000 45.000000 L 47.000000 45.000000 L 47.000000 47.000000" stroke="#231F20" stroke-width="2.000000" stroke-linecap="round" stroke-linejoin="round" fill="none"/></g></svg>