<svg version="1.1" viewBox="0.000000 0.000000 48.000000 48.000000" xmlns="http://www.w3.org/2000/svg" xmlns:xlink="http://www.w3.org/1999/xlink" overflow="hidden"><defs></defs><g id="icons"><path d=" M 33.599998 43.099998 L 4.500000 43.000000 C 2.843146 43.000000 1.500000 41.656853 1.500000 40.000000 L 1.500000 4.000000 C 1.500000 2.343146 2.843146 1.000000 4.500000 1.000000 L 30.500000 1.000000 C 32.156853 1.000000 33.500000 2.343146 33.500000 4.000000 L 33.500000 31.000000" stroke="#231F20" stroke-width="2.000000" stroke-linecap="round" stroke-miterlimit="10.000000" fill="none"/><path d=" M 30.500000 35.000000 L 5.500000 35.000000 L 5.500000 5.000000 L 29.500000 5.000000 L 29.500000 28.000000" stroke="#231F20" stroke-width="2.000000" stroke-linecap="round" stroke-miterlimit="10.000000" fill="none"/><path d=" M 46.500000 47.000000 L 40.500000 39.000000 L 40.500000 29.879999 C 40.500000 26.490000 37.340000 23.270000 33.500000 20.000000" stroke="#231F20" stroke-width="2.000000" stroke-linecap="round" stroke-miterlimit="10.000000" fill="none"/><path d=" M 35.500000 33.000000 L 31.000000 28.500000 C 30.172604 27.671574 28.830296 27.670736 28.001867 28.498133 C 28.001244 28.498755 28.000622 28.499378 28.000000 28.500000 C 27.329981 29.387768 27.329981 30.612232 28.000000 31.500000 L 32.500000 38.000000 L 32.500000 40.000000 C 32.500000 42.000000 36.500000 47.000000 36.500000 47.000000" stroke="#231F20" stroke-width="2.000000" stroke-linecap="round" stroke-miterlimit="10.000000" fill="none"/><line x1="13.500000" y1="39.000000" x2="19.500000" y2="39.000000" stroke="#231F20" stroke-width="2.000000" stroke-miterlimit="10.000000" fill="none"/><path d=" M 10.500000 38.000000 C 9.947715 38.000000 9.500000 38.447716 9.500000 39.000000 C 9.500000 39.552284 9.947715 40.000000 10.500000 40.000000 C 11.052285 40.000000 11.500000 39.552284 11.500000 39.000000 C 11.500000 38.447716 11.052285 38.000000 10.500000 38.000000 Z" fill="#231F20"/><path d=" M 22.500000 38.000000 C 21.947716 38.000000 21.500000 38.447716 21.500000 39.000000 C 21.500000 39.552284 21.947716 40.000000 22.500000 40.000000 C 23.052284 40.000000 23.500000 39.552284 23.500000 39.000000 C 23.500000 38.447716 23.052284 38.000000 22.500000 38.000000 Z" fill="#231F20"/><line x1="10.500000" y1="27.000000" x2="24.500000" y2="27.000000" stroke="#231F20" stroke-width="2.000000" stroke-miterlimit="10.000000" fill="none"/><line x1="10.500000" y1="23.000000" x2="24.500000" y2="23.000000" stroke="#231F20" stroke-width="2.000000" stroke-miterlimit="10.000000" fill="none"/><line x1="10.500000" y1="19.000000" x2="24.500000" y2="19.000000" stroke="#231F20" stroke-width="2.000000" stroke-miterlimit="10.000000" fill="none"/><line x1="10.500000" y1="15.000000" x2="24.500000" y2="15.000000" stroke="#231F20" stroke-width="2.000000" stroke-miterlimit="10.000000" fill="none"/><line x1="10.500000" y1="11.000000" x2="18.500000" y2="11.000000" stroke="#231F20" stroke-width="2.000000" stroke-miterlimit="10.000000" fill="none"/></g></svg>