<svg version="1.1" viewBox="0.000000 0.000000 48.000000 48.000000" xmlns="http://www.w3.org/2000/svg" xmlns:xlink="http://www.w3.org/1999/xlink" overflow="hidden"><defs></defs><g id="icons"><path d=" M 22.590000 46.630001 L 46.590000 22.629999 C 44.245552 20.288157 44.243439 16.489168 46.585281 14.144719 C 46.586853 14.143145 46.588428 14.141572 46.590000 14.139999 L 33.900002 1.370000 C 31.558159 3.714449 27.759171 3.716562 25.414721 1.374720 C 25.413147 1.373147 25.411573 1.371574 25.410000 1.370000 L 1.410000 25.370001 C 3.754449 27.711843 3.756562 31.510832 1.414720 33.855282 C 1.413147 33.856857 1.411574 33.858429 1.410000 33.860001 L 14.100000 46.630001 C 16.441843 44.285553 20.240831 44.283440 22.585281 46.625282 C 22.586855 46.626854 22.588428 46.628429 22.590002 46.630001 Z" stroke="#231F20" stroke-width="2.000000" stroke-linecap="round" stroke-linejoin="round" fill="none"/><rect x="9.000000" y="15.000000" rx="4.000000" ry="4.000000" width="30.000000" height="18.000000" stroke="#231F20" stroke-width="2.000000" stroke-linecap="round" stroke-linejoin="round" fill="none" transform="matrix(0.707107,-0.707107,0.707107,0.707107,-9.940000,24.000000)"/><line x1="28.240000" y1="15.520000" x2="15.520000" y2="28.240000" stroke="#231F20" stroke-width="2.000000" stroke-linecap="round" stroke-linejoin="round" fill="none"/><line x1="28.950000" y1="23.290000" x2="23.290000" y2="28.950000" stroke="#231F20" stroke-width="2.000000" stroke-linecap="round" stroke-linejoin="round" fill="none"/></g></svg>