<svg version="1.1" viewBox="0.000000 0.000000 48.000000 48.000000" xmlns="http://www.w3.org/2000/svg" xmlns:xlink="http://www.w3.org/1999/xlink" overflow="hidden"><defs></defs><g id="icons"><rect x="1.000000" y="5.500000" width="46.000000" height="12.000000" stroke="#231F20" stroke-width="2.000000" stroke-linecap="round" stroke-linejoin="round" fill="none"/><circle cx="28.000000" cy="11.500000" r="1.000000" stroke="#231F20" stroke-width="2.000000" stroke-linecap="round" stroke-linejoin="round" fill="none"/><circle cx="34.000000" cy="11.500000" r="1.000000" stroke="#231F20" stroke-width="2.000000" stroke-linecap="round" stroke-linejoin="round" fill="none"/><circle cx="40.000000" cy="11.500000" r="1.000000" stroke="#231F20" stroke-width="2.000000" stroke-linecap="round" stroke-linejoin="round" fill="none"/><circle cx="7.000000" cy="11.500000" r="2.000000" stroke="#231F20" stroke-width="2.000000" stroke-linecap="round" stroke-linejoin="round" fill="none"/><path d=" M 1.000000 17.500000 L 1.000000 29.500000 L 47.000000 29.500000 L 47.000000 17.500000" stroke="#231F20" stroke-width="2.000000" stroke-linecap="round" stroke-linejoin="round" fill="none"/><circle cx="28.000000" cy="23.500000" r="1.000000" stroke="#231F20" stroke-width="2.000000" stroke-linecap="round" stroke-linejoin="round" fill="none"/><circle cx="34.000000" cy="23.500000" r="1.000000" stroke="#231F20" stroke-width="2.000000" stroke-linecap="round" stroke-linejoin="round" fill="none"/><circle cx="40.000000" cy="23.500000" r="1.000000" stroke="#231F20" stroke-width="2.000000" stroke-linecap="round" stroke-linejoin="round" fill="none"/><circle cx="7.000000" cy="23.500000" r="2.000000" stroke="#231F20" stroke-width="2.000000" stroke-linecap="round" stroke-linejoin="round" fill="none"/><line x1="11.000000" y1="41.500000" x2="37.000000" y2="41.500000" stroke="#231F20" stroke-width="2.000000" stroke-linecap="round" stroke-linejoin="round" fill="none"/><line x1="25.000000" y1="29.500000" x2="25.000000" y2="41.500000" stroke="#231F20" stroke-width="2.000000" stroke-linecap="round" stroke-linejoin="round" fill="none"/><path d=" M 3.000000 40.500000 C 2.447715 40.500000 2.000000 40.947716 2.000000 41.500000 C 2.000000 42.052284 2.447715 42.500000 3.000000 42.500000 C 3.552285 42.500000 4.000000 42.052284 4.000000 41.500000 C 4.000000 40.947716 3.552285 40.500000 3.000000 40.500000 Z" fill="#231F20"/><path d=" M 7.000000 40.500000 C 6.447715 40.500000 6.000000 40.947716 6.000000 41.500000 C 6.000000 42.052284 6.447715 42.500000 7.000000 42.500000 C 7.552285 42.500000 8.000000 42.052284 8.000000 41.500000 C 8.000000 40.947716 7.552285 40.500000 7.000000 40.500000 Z" fill="#231F20"/><path d=" M 41.000000 40.500000 C 40.447716 40.500000 40.000000 40.947716 40.000000 41.500000 C 40.000000 42.052284 40.447716 42.500000 41.000000 42.500000 C 41.552284 42.500000 42.000000 42.052284 42.000000 41.500000 C 42.000000 40.947716 41.552284 40.500000 41.000000 40.500000 Z" fill="#231F20"/><path d=" M 45.000000 40.500000 C 44.447716 40.500000 44.000000 40.947716 44.000000 41.500000 C 44.000000 42.052284 44.447716 42.500000 45.000000 42.500000 C 45.552284 42.500000 46.000000 42.052284 46.000000 41.500000 C 46.000000 40.947716 45.552284 40.500000 45.000000 40.500000 Z" fill="#231F20"/></g></svg>