<svg version="1.1" viewBox="0.000000 0.000000 48.000000 48.000000" xmlns="http://www.w3.org/2000/svg" xmlns:xlink="http://www.w3.org/1999/xlink" overflow="hidden"><defs></defs><g id="icons"><path d=" M 5.000000 31.000000 L 5.000000 38.000000 C 5.000000 40.000000 7.000000 42.000000 16.000000 42.000000 L 22.000000 42.000000 C 31.000000 42.000000 33.000000 40.000000 33.000000 38.000000 L 33.000000 22.000000 C 33.000000 20.000000 31.000000 18.000000 22.000000 18.000000 L 16.000000 18.000000 C 7.000000 18.000000 5.000000 20.000000 5.000000 22.000000 Z" stroke="#231F20" stroke-width="2.000000" stroke-miterlimit="10.000000" fill="none"/><path d=" M 15.930000 13.000000 C 18.136084 8.545823 23.535292 6.723384 27.989468 8.929468 C 29.755358 9.804086 31.185383 11.234111 32.060001 13.000000" stroke="#231F20" stroke-width="2.000000" stroke-linecap="round" stroke-miterlimit="10.000000" fill="none"/><line x1="28.040000" y1="8.960000" x2="35.000000" y2="2.000000" stroke="#231F20" stroke-width="2.000000" stroke-linecap="round" stroke-miterlimit="10.000000" fill="none"/><line x1="19.950000" y1="8.960000" x2="13.000000" y2="2.000000" stroke="#231F20" stroke-width="2.000000" stroke-linecap="round" stroke-miterlimit="10.000000" fill="none"/><rect x="1.000000" y="14.000000" rx="5.000000" ry="5.000000" width="46.000000" height="32.000000" stroke="#231F20" stroke-width="2.000000" stroke-miterlimit="10.000000" fill="none"/><circle cx="40.000000" cy="23.000000" r="3.000000" stroke="#231F20" stroke-width="2.000000" stroke-miterlimit="10.000000" fill="none"/><circle cx="40.000000" cy="33.000000" r="3.000000" stroke="#231F20" stroke-width="2.000000" stroke-miterlimit="10.000000" fill="none"/></g></svg>