<svg version="1.1" viewBox="0.000000 0.000000 48.000000 48.000000" xmlns="http://www.w3.org/2000/svg" xmlns:xlink="http://www.w3.org/1999/xlink" overflow="hidden"><defs></defs><g id="icons"><path d=" M 22.139999 20.379999 C 21.510000 19.670000 20.889999 18.940001 20.309999 18.200001 L 21.459999 17.059999 C 22.718910 15.909950 22.817043 13.960669 21.679998 12.690000 L 18.580000 9.600000 C 17.312668 8.464090 15.366552 8.562288 14.220000 9.820001 L 12.330000 11.710000 C 10.716866 13.220673 10.352692 15.641603 11.450000 17.559999 C 13.167089 20.289482 15.103481 22.874681 17.240000 25.289999" stroke="#231F20" stroke-width="2.000000" stroke-linecap="round" stroke-linejoin="round" fill="none"/><path d=" M 22.709999 30.760000 C 25.127697 32.896595 27.712626 34.836128 30.439999 36.560001 C 32.362030 37.647255 34.778267 37.279659 36.289997 35.670002 L 38.180000 33.779999 C 39.440674 32.636284 39.543346 30.690004 38.410000 29.419998 L 35.310001 26.320000 C 34.041965 25.181067 32.091171 25.283976 30.950001 26.549999 L 29.799999 27.690001 C 29.059999 27.110001 28.340000 26.490000 27.620001 25.860001" stroke="#231F20" stroke-width="2.000000" stroke-linecap="round" stroke-linejoin="round" fill="none"/><circle cx="24.000000" cy="24.000000" r="23.000000" stroke="#231F20" stroke-width="2.000000" stroke-linecap="round" stroke-linejoin="round" fill="none"/><line x1="40.260000" y1="7.740000" x2="7.740000" y2="40.260000" stroke="#231F20" stroke-width="2.000000" stroke-linecap="round" stroke-linejoin="round" fill="none"/></g></svg>