<svg version="1.1" viewBox="0.000000 0.000000 48.000000 48.000000" xmlns="http://www.w3.org/2000/svg" xmlns:xlink="http://www.w3.org/1999/xlink" overflow="hidden"><defs></defs><g id="icons"><path d=" M 36.000000 23.000000 C 36.004944 16.372585 30.636368 10.995996 24.008953 10.991055 C 17.381538 10.986112 12.004950 16.354687 12.000008 22.982101 C 11.995924 28.457411 15.698555 33.241169 21.000002 34.610001 L 21.000000 37.000000 L 27.000000 37.000000 L 27.000000 34.610001 C 32.294998 33.242840 35.995922 28.468647 36.000000 23.000000 Z" stroke="#231F20" stroke-width="2.000000" stroke-linecap="round" stroke-linejoin="round" fill="none"/><line x1="25.000000" y1="45.000000" x2="23.000000" y2="45.000000" stroke="#231F20" stroke-width="2.000000" stroke-linecap="round" stroke-linejoin="round" fill="none"/><line x1="27.000000" y1="41.000000" x2="21.000000" y2="41.000000" stroke="#231F20" stroke-width="2.000000" stroke-linecap="round" stroke-linejoin="round" fill="none"/><line x1="24.000000" y1="3.000000" x2="24.000000" y2="7.000000" stroke="#231F20" stroke-width="2.000000" stroke-linecap="round" stroke-linejoin="round" fill="none"/><line x1="44.000000" y1="23.000000" x2="40.000000" y2="23.000000" stroke="#231F20" stroke-width="2.000000" stroke-linecap="round" stroke-linejoin="round" fill="none"/><line x1="4.000000" y1="23.000000" x2="8.000000" y2="23.000000" stroke="#231F20" stroke-width="2.000000" stroke-linecap="round" stroke-linejoin="round" fill="none"/><line x1="8.440000" y1="7.440000" x2="12.680000" y2="11.690000" stroke="#231F20" stroke-width="2.000000" stroke-linecap="round" stroke-linejoin="round" fill="none"/><line x1="39.550000" y1="7.440000" x2="35.310000" y2="11.690000" stroke="#231F20" stroke-width="2.000000" stroke-linecap="round" stroke-linejoin="round" fill="none"/></g></svg>