<svg version="1.1" viewBox="0.000000 0.000000 48.000000 48.000000" xmlns="http://www.w3.org/2000/svg" xmlns:xlink="http://www.w3.org/1999/xlink" overflow="hidden"><defs></defs><g id="icons"><rect x="7.000000" y="3.000000" rx="4.000000" ry="4.000000" width="34.000000" height="42.000000" stroke="#231F20" stroke-width="2.000000" stroke-linecap="round" stroke-linejoin="round" fill="none"/><circle cx="24.000000" cy="20.000000" r="13.000000" stroke="#231F20" stroke-width="2.000000" stroke-linecap="round" stroke-linejoin="round" fill="none"/><path d=" M 24.000000 18.000000 C 22.895430 18.000000 22.000000 18.895430 22.000000 20.000000 C 22.000000 21.104570 22.895430 22.000000 24.000000 22.000000 C 25.104570 22.000000 26.000000 21.104570 26.000000 20.000000 C 26.000000 18.895430 25.104570 18.000000 24.000000 18.000000 Z" fill="#231F20"/><line x1="18.000000" y1="26.000000" x2="11.000000" y2="33.000000" stroke="#231F20" stroke-width="2.000000" stroke-linecap="round" stroke-linejoin="round" fill="none"/><path d=" M 23.000000 41.000000 L 11.000000 41.000000 L 11.000000 33.000000 L 23.000000 39.000000 L 23.000000 41.000000 Z" stroke="#231F20" stroke-width="2.000000" stroke-linecap="round" stroke-linejoin="round" fill="none"/><path d=" M 35.000000 38.000000 C 34.447716 38.000000 34.000000 38.447716 34.000000 39.000000 C 34.000000 39.552284 34.447716 40.000000 35.000000 40.000000 C 35.552284 40.000000 36.000000 39.552284 36.000000 39.000000 C 36.000000 38.447716 35.552284 38.000000 35.000000 38.000000 Z" fill="#231F20"/></g></svg>