<svg version="1.1" viewBox="0.000000 0.000000 48.000000 48.000000" xmlns="http://www.w3.org/2000/svg" xmlns:xlink="http://www.w3.org/1999/xlink" overflow="hidden"><defs></defs><g id="icons"><path d=" M 39.000000 43.000000 C 39.000000 44.104568 38.104568 45.000000 37.000000 45.000000 L 11.000000 45.000000 C 9.895431 45.000000 9.000000 44.104568 9.000000 43.000000 L 9.000000 8.000000 C 9.000000 4.134007 12.134007 1.000000 16.000000 1.000000 L 32.000000 1.000000 C 35.865993 1.000000 39.000000 4.134007 39.000000 8.000000 Z" stroke="#231F20" stroke-width="2.000000" stroke-linecap="round" stroke-linejoin="round" fill="none"/><rect x="11.000000" y="45.000000" width="4.000000" height="2.000000" stroke="#231F20" stroke-width="2.000000" stroke-linecap="round" stroke-linejoin="round" fill="none"/><rect x="33.000000" y="45.000000" width="4.000000" height="2.000000" stroke="#231F20" stroke-width="2.000000" stroke-linecap="round" stroke-linejoin="round" fill="none"/><rect x="9.000000" y="13.000000" width="30.000000" height="18.000000" stroke="#231F20" stroke-width="2.000000" stroke-linecap="round" stroke-linejoin="round" fill="none"/><rect x="18.000000" y="5.000000" width="12.000000" height="4.000000" stroke="#231F20" stroke-width="2.000000" stroke-linecap="round" stroke-linejoin="round" fill="none"/><line x1="13.000000" y1="39.000000" x2="19.000000" y2="39.000000" stroke="#231F20" stroke-width="2.000000" stroke-linecap="round" stroke-linejoin="round" fill="none"/><line x1="29.000000" y1="39.000000" x2="35.000000" y2="39.000000" stroke="#231F20" stroke-width="2.000000" stroke-linecap="round" stroke-linejoin="round" fill="none"/><rect x="1.000000" y="15.000000" width="4.000000" height="14.000000" stroke="#231F20" stroke-width="2.000000" stroke-linecap="round" stroke-linejoin="round" fill="none"/><rect x="43.000000" y="15.000000" width="4.000000" height="14.000000" stroke="#231F20" stroke-width="2.000000" stroke-linecap="round" stroke-linejoin="round" fill="none"/><line x1="5.000000" y1="15.000000" x2="9.000000" y2="15.000000" stroke="#231F20" stroke-width="2.000000" stroke-linecap="round" stroke-linejoin="round" fill="none"/><line x1="39.000000" y1="15.000000" x2="43.000000" y2="15.000000" stroke="#231F20" stroke-width="2.000000" stroke-linecap="round" stroke-linejoin="round" fill="none"/></g></svg>