<svg version="1.1" viewBox="0.000000 0.000000 48.000000 48.000000" xmlns="http://www.w3.org/2000/svg" xmlns:xlink="http://www.w3.org/1999/xlink" overflow="hidden"><defs></defs><g id="icons"><path d=" M 2.000000 1.000000 L 2.000000 11.000000 C 2.000000 13.209139 3.790861 15.000000 6.000000 15.000000 L 10.000000 15.000000 C 12.209139 15.000000 14.000000 13.209139 14.000000 11.000000 L 14.000000 1.000000" stroke="#231F20" stroke-width="2.000000" stroke-linecap="round" stroke-miterlimit="10.000000" fill="none"/><path d=" M 2.000000 8.000000 L 2.000000 44.000000 C 2.000000 46.209999 3.790000 47.000000 6.000000 47.000000 L 10.000000 47.000000 C 12.210000 47.000000 14.000000 46.209999 14.000000 44.000000 L 14.000000 8.000000" stroke="#231F20" stroke-width="2.000000" stroke-miterlimit="10.000000" fill="none"/><path d=" M 18.000000 1.000000 L 18.000000 11.000000 C 18.000000 13.209139 19.790861 15.000000 22.000000 15.000000 L 26.000000 15.000000 C 28.209139 15.000000 30.000000 13.209139 30.000000 11.000000 L 30.000000 1.000000" stroke="#231F20" stroke-width="2.000000" stroke-linecap="round" stroke-miterlimit="10.000000" fill="none"/><path d=" M 18.000000 8.000000 L 18.000000 44.000000 C 18.000000 46.209999 19.790001 47.000000 22.000000 47.000000 L 26.000000 47.000000 C 28.209999 47.000000 30.000000 46.209999 30.000000 44.000000 L 30.000000 8.000000" stroke="#231F20" stroke-width="2.000000" stroke-miterlimit="10.000000" fill="none"/><path d=" M 34.000000 1.000000 L 34.000000 11.000000 C 34.000000 13.209139 35.790859 15.000000 38.000000 15.000000 L 42.000000 15.000000 C 44.209141 15.000000 46.000000 13.209139 46.000000 11.000000 L 46.000000 1.000000" stroke="#231F20" stroke-width="2.000000" stroke-linecap="round" stroke-miterlimit="10.000000" fill="none"/><path d=" M 34.000000 8.000000 L 34.000000 44.000000 C 34.000000 46.209999 35.790001 47.000000 38.000000 47.000000 L 42.000000 47.000000 C 44.209999 47.000000 46.000000 46.209999 46.000000 44.000000 L 46.000000 8.000000" stroke="#231F20" stroke-width="2.000000" stroke-miterlimit="10.000000" fill="none"/><line x1="14.000000" y1="39.000000" x2="2.000000" y2="39.000000" stroke="#231F20" stroke-width="2.000000" stroke-miterlimit="10.000000" fill="none"/><line x1="14.000000" y1="35.000000" x2="2.000000" y2="35.000000" stroke="#231F20" stroke-width="2.000000" stroke-miterlimit="10.000000" fill="none"/><line x1="30.000000" y1="39.000000" x2="18.000000" y2="39.000000" stroke="#231F20" stroke-width="2.000000" stroke-miterlimit="10.000000" fill="none"/><line x1="30.000000" y1="35.000000" x2="18.000000" y2="35.000000" stroke="#231F20" stroke-width="2.000000" stroke-miterlimit="10.000000" fill="none"/><line x1="46.000000" y1="39.000000" x2="34.000000" y2="39.000000" stroke="#231F20" stroke-width="2.000000" stroke-miterlimit="10.000000" fill="none"/><line x1="46.000000" y1="35.000000" x2="34.000000" y2="35.000000" stroke="#231F20" stroke-width="2.000000" stroke-miterlimit="10.000000" fill="none"/><line x1="14.000000" y1="27.000000" x2="2.000000" y2="27.000000" stroke="#231F20" stroke-width="2.000000" stroke-miterlimit="10.000000" fill="none"/><line x1="14.000000" y1="23.000000" x2="2.000000" y2="23.000000" stroke="#231F20" stroke-width="2.000000" stroke-miterlimit="10.000000" fill="none"/><line x1="30.000000" y1="27.000000" x2="18.000000" y2="27.000000" stroke="#231F20" stroke-width="2.000000" stroke-miterlimit="10.000000" fill="none"/><line x1="30.000000" y1="23.000000" x2="18.000000" y2="23.000000" stroke="#231F20" stroke-width="2.000000" stroke-miterlimit="10.000000" fill="none"/><line x1="46.000000" y1="27.000000" x2="34.000000" y2="27.000000" stroke="#231F20" stroke-width="2.000000" stroke-miterlimit="10.000000" fill="none"/><line x1="46.000000" y1="23.000000" x2="34.000000" y2="23.000000" stroke="#231F20" stroke-width="2.000000" stroke-miterlimit="10.000000" fill="none"/><line x1="6.000000" y1="11.000000" x2="6.000000" y2="3.000000" stroke="#231F20" stroke-width="2.000000" stroke-linecap="round" stroke-miterlimit="10.000000" fill="none"/><line x1="10.000000" y1="11.000000" x2="10.000000" y2="3.000000" stroke="#231F20" stroke-width="2.000000" stroke-linecap="round" stroke-miterlimit="10.000000" fill="none"/><line x1="22.000000" y1="11.000000" x2="22.000000" y2="3.000000" stroke="#231F20" stroke-width="2.000000" stroke-linecap="round" stroke-miterlimit="10.000000" fill="none"/><line x1="26.000000" y1="11.000000" x2="26.000000" y2="3.000000" stroke="#231F20" stroke-width="2.000000" stroke-linecap="round" stroke-miterlimit="10.000000" fill="none"/><line x1="38.000000" y1="11.000000" x2="38.000000" y2="3.000000" stroke="#231F20" stroke-width="2.000000" stroke-linecap="round" stroke-miterlimit="10.000000" fill="none"/><line x1="42.000000" y1="11.000000" x2="42.000000" y2="3.000000" stroke="#231F20" stroke-width="2.000000" stroke-linecap="round" stroke-miterlimit="10.000000" fill="none"/></g></svg>