<svg version="1.1" viewBox="0.000000 0.000000 48.000000 48.000000" xmlns="http://www.w3.org/2000/svg" xmlns:xlink="http://www.w3.org/1999/xlink" overflow="hidden"><defs></defs><g id="icons"><path d=" M 28.000000 1.000000 C 32.719280 1.016169 37.261200 2.800113 40.730000 6.000000 L 40.730000 6.000000 L 28.000000 19.000000 Z" stroke="#231F20" stroke-width="2.000000" stroke-linecap="round" stroke-linejoin="round" fill="none"/><path d=" M 36.730000 16.270000 L 24.000000 29.000000 L 24.000000 11.000000 C 14.058875 11.002295 6.001861 19.063030 6.004156 29.004156 C 6.006451 38.945282 14.067186 47.002296 24.008312 47.000000 C 33.949436 46.997704 42.006451 38.936970 42.004154 28.995844 C 42.003052 24.222368 40.105907 19.644806 36.730000 16.270000 Z" stroke="#231F20" stroke-width="2.000000" stroke-linecap="round" stroke-linejoin="round" fill="none"/><path d=" M 33.900002 19.100000 L 24.000000 29.000000 L 24.000000 15.000000 C 16.268013 15.000558 10.000452 21.269024 10.001010 29.001011 C 10.001568 36.732998 16.270033 43.000557 24.002020 43.000000 C 31.734007 42.999443 38.001568 36.730976 38.001011 28.998989 C 38.000744 25.286060 36.525570 21.725302 33.900002 19.099998 Z" stroke="#231F20" stroke-width="2.000000" stroke-linecap="round" stroke-linejoin="round" fill="none"/><path d=" M 28.000000 5.000000 C 31.713133 4.999732 35.274284 6.474552 37.900002 9.100000" stroke="#231F20" stroke-width="2.000000" stroke-linecap="round" stroke-linejoin="round" fill="none"/><circle cx="19.000000" cy="22.000000" r="2.000000" stroke="#231F20" stroke-width="2.000000" stroke-linecap="round" stroke-linejoin="round" fill="none"/><circle cx="17.000000" cy="31.000000" r="2.000000" stroke="#231F20" stroke-width="2.000000" stroke-linecap="round" stroke-linejoin="round" fill="none"/><circle cx="25.000000" cy="37.000000" r="2.000000" stroke="#231F20" stroke-width="2.000000" stroke-linecap="round" stroke-linejoin="round" fill="none"/><circle cx="32.000000" cy="31.000000" r="2.000000" stroke="#231F20" stroke-width="2.000000" stroke-linecap="round" stroke-linejoin="round" fill="none"/><path d=" M 31.450001 21.549999 L 32.000000 22.000000 C 32.828426 22.828426 32.828426 24.171574 32.000000 25.000000 C 31.171574 25.828426 29.828426 25.828426 29.000000 25.000000 L 28.450001 24.549999" stroke="#231F20" stroke-width="2.000000" stroke-linejoin="round" fill="none"/><path d=" M 35.529999 11.470000 L 35.000000 11.000000 C 34.151279 10.222109 32.848721 10.222109 32.000000 11.000000 C 31.222109 11.848722 31.222109 13.151278 32.000000 14.000000 L 32.520000 14.490000" stroke="#231F20" stroke-width="2.000000" stroke-linecap="round" stroke-linejoin="round" fill="none"/></g></svg>