<svg version="1.1" viewBox="0.000000 0.000000 48.000000 48.000000" xmlns="http://www.w3.org/2000/svg" xmlns:xlink="http://www.w3.org/1999/xlink" overflow="hidden"><defs></defs><g id="icons"><path d=" M 11.000000 35.000000 L 5.000000 35.000000 C 2.790861 35.000000 1.000000 33.209141 1.000000 31.000000 L 1.000000 19.000000 C 1.000000 16.790861 2.790861 15.000000 5.000000 15.000000 L 43.000000 15.000000 C 45.209141 15.000000 47.000000 16.790861 47.000000 19.000000 L 47.000000 31.000000 C 47.000000 33.209141 45.209141 35.000000 43.000000 35.000000 L 37.000000 35.000000" stroke="#231F20" stroke-width="2.000000" stroke-linecap="round" stroke-linejoin="round" fill="none"/><path d=" M 11.000000 11.000000 L 11.000000 3.000000 L 31.000000 3.000000 L 37.000000 9.000000 L 37.000000 11.000000" stroke="#231F20" stroke-width="2.000000" stroke-linecap="round" stroke-linejoin="round" fill="none"/><rect x="11.000000" y="29.000000" width="26.000000" height="16.000000" stroke="#231F20" stroke-width="2.000000" stroke-linecap="round" stroke-linejoin="round" fill="none"/><circle cx="7.000000" cy="21.000000" r="2.000000" stroke="#231F20" stroke-width="2.000000" stroke-linecap="round" stroke-linejoin="round" fill="none"/><line x1="15.000000" y1="33.000000" x2="33.000000" y2="33.000000" stroke="#231F20" stroke-width="2.000000" stroke-linecap="round" stroke-linejoin="round" fill="none"/><line x1="15.000000" y1="37.000000" x2="33.000000" y2="37.000000" stroke="#231F20" stroke-width="2.000000" stroke-linecap="round" stroke-linejoin="round" fill="none"/><line x1="15.000000" y1="41.000000" x2="33.000000" y2="41.000000" stroke="#231F20" stroke-width="2.000000" stroke-linecap="round" stroke-linejoin="round" fill="none"/><path d=" M 31.000000 3.000000 L 31.000000 9.000000 L 37.000000 9.000000" stroke="#231F20" stroke-width="2.000000" stroke-linecap="round" stroke-linejoin="round" fill="none"/></g></svg>