<svg version="1.1" viewBox="0.000000 0.000000 48.000000 48.000000" xmlns="http://www.w3.org/2000/svg" xmlns:xlink="http://www.w3.org/1999/xlink" overflow="hidden"><defs></defs><g id="icons"><rect x="7.000000" y="3.000000" width="38.000000" height="22.000000" stroke="#231F20" stroke-width="2.000000" stroke-linecap="round" stroke-linejoin="round" fill="none"/><line x1="3.000000" y1="1.000000" x2="3.000000" y2="47.000000" stroke="#231F20" stroke-width="2.000000" stroke-linecap="round" stroke-linejoin="round" fill="none"/><rect x="8.000000" y="4.000000" width="4.000000" height="4.000000" fill="#231F20"/><rect x="16.000000" y="4.000000" width="4.000000" height="4.000000" fill="#231F20"/><rect x="24.000000" y="4.000000" width="4.000000" height="4.000000" fill="#231F20"/><rect x="32.000000" y="4.000000" width="4.000000" height="4.000000" fill="#231F20"/><rect x="40.000000" y="4.000000" width="4.000000" height="4.000000" fill="#231F20"/><rect x="12.000000" y="8.000000" width="4.000000" height="4.000000" fill="#231F20"/><rect x="20.000000" y="8.000000" width="4.000000" height="4.000000" fill="#231F20"/><rect x="28.000000" y="8.000000" width="4.000000" height="4.000000" fill="#231F20"/><rect x="36.000000" y="8.000000" width="4.000000" height="4.000000" fill="#231F20"/><rect x="8.000000" y="12.000000" width="4.000000" height="4.000000" fill="#231F20"/><rect x="16.000000" y="12.000000" width="4.000000" height="4.000000" fill="#231F20"/><rect x="24.000000" y="12.000000" width="4.000000" height="4.000000" fill="#231F20"/><rect x="32.000000" y="12.000000" width="4.000000" height="4.000000" fill="#231F20"/><rect x="40.000000" y="12.000000" width="4.000000" height="4.000000" fill="#231F20"/><rect x="12.000000" y="16.000000" width="4.000000" height="4.000000" fill="#231F20"/><rect x="20.000000" y="16.000000" width="4.000000" height="4.000000" fill="#231F20"/><rect x="28.000000" y="16.000000" width="4.000000" height="4.000000" fill="#231F20"/><rect x="36.000000" y="16.000000" width="4.000000" height="4.000000" fill="#231F20"/><rect x="8.000000" y="20.000000" width="4.000000" height="4.000000" fill="#231F20"/><rect x="16.000000" y="20.000000" width="4.000000" height="4.000000" fill="#231F20"/><rect x="24.000000" y="20.000000" width="4.000000" height="4.000000" fill="#231F20"/><rect x="32.000000" y="20.000000" width="4.000000" height="4.000000" fill="#231F20"/><rect x="40.000000" y="20.000000" width="4.000000" height="4.000000" fill="#231F20"/></g></svg>