<svg version="1.1" viewBox="0.000000 0.000000 48.000000 48.000000" xmlns="http://www.w3.org/2000/svg" xmlns:xlink="http://www.w3.org/1999/xlink" overflow="hidden"><defs></defs><g id="icons"><path d=" M 14.880000 29.129999 C 13.904924 28.996077 12.941936 28.785423 12.000000 28.500000 L 2.000000 32.500000 L 6.000000 25.500000 C 2.883612 23.056105 1.044526 19.330116 1.000000 15.370000 C 1.000000 7.710000 8.610000 1.500000 18.000000 1.500000 C 27.389999 1.500000 35.000000 7.710000 35.000000 15.370000" stroke="#231F20" stroke-width="2.000000" stroke-linejoin="round" fill="none"/><path d=" M 19.000000 32.500000 C 19.000000 41.080002 29.000000 47.500000 38.000000 43.500000 L 46.000000 46.500000 L 43.000000 40.500000 C 45.518059 38.611458 47.000000 35.647572 47.000000 32.500000 C 47.000000 26.190001 40.730000 20.500000 33.000000 20.500000 C 25.270000 20.500000 19.000000 26.190001 19.000000 32.500000 Z" stroke="#231F20" stroke-width="2.000000" stroke-linejoin="round" fill="none"/></g></svg>