<svg version="1.1" viewBox="0.000000 0.000000 48.000000 48.000000" xmlns="http://www.w3.org/2000/svg" xmlns:xlink="http://www.w3.org/1999/xlink" overflow="hidden"><defs></defs><g id="icons"><path d=" M 5.000000 5.750000 C 14.000000 -6.250000 23.070000 9.750000 32.099998 1.750000 C 21.080000 16.790001 13.050000 0.730000 5.000000 5.750000 Z" stroke="#231F20" stroke-width="2.000000" stroke-linecap="round" stroke-linejoin="round" fill="none"/><line x1="15.050000" y1="36.870000" x2="18.070000" y2="36.870000" stroke="#231F20" stroke-width="2.000000" stroke-linecap="round" stroke-linejoin="round" fill="none"/><line x1="15.050000" y1="41.890000" x2="18.070000" y2="41.890000" stroke="#231F20" stroke-width="2.000000" stroke-linecap="round" stroke-linejoin="round" fill="none"/><line x1="27.100000" y1="36.870000" x2="30.110000" y2="36.870000" stroke="#231F20" stroke-width="2.000000" stroke-linecap="round" stroke-linejoin="round" fill="none"/><line x1="27.100000" y1="41.890000" x2="30.110000" y2="41.890000" stroke="#231F20" stroke-width="2.000000" stroke-linecap="round" stroke-linejoin="round" fill="none"/><line x1="39.150000" y1="36.870000" x2="42.160000" y2="36.870000" stroke="#231F20" stroke-width="2.000000" stroke-linecap="round" stroke-linejoin="round" fill="none"/><line x1="39.150000" y1="41.890000" x2="42.160000" y2="41.890000" stroke="#231F20" stroke-width="2.000000" stroke-linecap="round" stroke-linejoin="round" fill="none"/><path d=" M 1.000000 46.910000 L 1.000000 31.260000 L 3.890000 10.910000 L 8.700000 10.910000 L 12.540000 29.299999 L 23.000000 22.459999 L 23.000000 29.299999 L 35.000000 22.500000 L 35.000000 29.350000 L 47.000000 22.459999 L 47.000000 46.910000 L 1.000000 46.910000 Z" stroke="#231F20" stroke-width="2.000000" stroke-miterlimit="10.000000" fill="none"/></g></svg>