<svg version="1.1" viewBox="0.000000 0.000000 48.000000 48.000000" xmlns="http://www.w3.org/2000/svg" xmlns:xlink="http://www.w3.org/1999/xlink" overflow="hidden"><defs></defs><g id="icons"><line x1="31.000000" y1="6.000000" x2="31.000000" y2="13.000000" stroke="#231F20" stroke-width="2.000000" stroke-linecap="round" stroke-linejoin="round" fill="none"/><path d=" M 26.000000 10.000000 L 31.000000 6.000000 L 36.000000 10.000000" stroke="#231F20" stroke-width="2.000000" stroke-linecap="round" stroke-linejoin="round" fill="none"/><line x1="31.000000" y1="42.000000" x2="31.000000" y2="35.000000" stroke="#231F20" stroke-width="2.000000" stroke-linecap="round" stroke-linejoin="round" fill="none"/><path d=" M 26.000000 38.000000 L 31.000000 42.000000 L 36.000000 38.000000" stroke="#231F20" stroke-width="2.000000" stroke-linecap="round" stroke-linejoin="round" fill="none"/><path d=" M 36.000000 43.000000 L 31.000000 47.000000 L 26.000000 43.000000" stroke="#231F20" stroke-width="2.000000" stroke-linecap="round" stroke-linejoin="round" fill="none"/><path d=" M 36.000000 5.000000 L 31.000000 1.000000 L 26.000000 5.000000" stroke="#231F20" stroke-width="2.000000" stroke-linecap="round" stroke-linejoin="round" fill="none"/><path d=" M 11.000000 17.000000 L 30.000000 17.000000 C 33.865993 17.000000 37.000000 20.134007 37.000000 24.000000 C 37.000000 27.865993 33.865993 31.000000 30.000000 31.000000 L 11.000000 31.000000" stroke="#231F20" stroke-width="2.000000" stroke-linecap="round" stroke-linejoin="round" fill="none"/><path d=" M 30.000000 27.000000 C 31.656855 27.000000 33.000000 25.656855 33.000000 24.000000 C 33.000000 22.343145 31.656855 21.000000 30.000000 21.000000 L 27.000000 21.000000 L 27.000000 27.000000 Z" stroke="#231F20" stroke-width="2.000000" stroke-linecap="round" stroke-linejoin="round" fill="none"/></g></svg>