<svg version="1.1" viewBox="0.000000 0.000000 48.000000 48.000000" xmlns="http://www.w3.org/2000/svg" xmlns:xlink="http://www.w3.org/1999/xlink" overflow="hidden"><defs></defs><g id="icons"><rect x="2.000000" y="32.000000" width="8.000000" height="15.000000" stroke="#231F20" stroke-width="2.000000" stroke-linejoin="round" fill="none"/><path d=" M 10.000000 45.000000 L 44.000000 45.000000 C 44.000000 42.000000 37.000000 39.000000 29.000000 39.000000 L 15.000000 39.000000" stroke="#231F20" stroke-width="2.000000" stroke-linecap="round" stroke-linejoin="round" fill="none"/><path d=" M 10.000000 34.000000 L 17.000000 34.000000 C 21.709999 34.000000 24.000000 38.000000 25.000000 39.000000" stroke="#231F20" stroke-width="2.000000" stroke-linejoin="round" fill="none"/><path d=" M 6.000000 42.000000 C 5.447715 42.000000 5.000000 42.447716 5.000000 43.000000 C 5.000000 43.552284 5.447715 44.000000 6.000000 44.000000 C 6.552285 44.000000 7.000000 43.552284 7.000000 43.000000 C 7.000000 42.447716 6.552285 42.000000 6.000000 42.000000 Z" fill="#231F20"/><path d=" M 6.000000 22.000000 L 6.000000 5.000000 C 6.000000 2.790861 7.790861 1.000000 10.000000 1.000000 L 42.000000 1.000000 C 44.209141 1.000000 46.000000 2.790861 46.000000 5.000000 L 46.000000 29.000000 C 46.000000 31.209139 44.209141 33.000000 42.000000 33.000000 L 36.000000 33.000000" stroke="#231F20" stroke-width="2.000000" stroke-linecap="round" stroke-linejoin="round" fill="none"/><line x1="6.000000" y1="9.000000" x2="46.000000" y2="9.000000" stroke="#231F20" stroke-width="2.000000" stroke-linecap="round" stroke-linejoin="round" fill="none"/><path d=" M 12.000000 4.000000 C 11.447715 4.000000 11.000000 4.447715 11.000000 5.000000 C 11.000000 5.552285 11.447715 6.000000 12.000000 6.000000 C 12.552285 6.000000 13.000000 5.552285 13.000000 5.000000 C 13.000000 4.447715 12.552285 4.000000 12.000000 4.000000 Z" fill="#231F20"/><path d=" M 16.000000 4.000000 C 15.447715 4.000000 15.000000 4.447715 15.000000 5.000000 C 15.000000 5.552285 15.447715 6.000000 16.000000 6.000000 C 16.552284 6.000000 17.000000 5.552285 17.000000 5.000000 C 17.000000 4.447715 16.552284 4.000000 16.000000 4.000000 Z" fill="#231F20"/><path d=" M 20.000000 4.000000 C 19.447716 4.000000 19.000000 4.447715 19.000000 5.000000 C 19.000000 5.552285 19.447716 6.000000 20.000000 6.000000 C 20.552284 6.000000 21.000000 5.552285 21.000000 5.000000 C 21.000000 4.447715 20.552284 4.000000 20.000000 4.000000 Z" fill="#231F20"/></g></svg>