<svg version="1.1" viewBox="0.000000 0.000000 48.000000 48.000000" xmlns="http://www.w3.org/2000/svg" xmlns:xlink="http://www.w3.org/1999/xlink" overflow="hidden"><defs></defs><g id="icons"><path d=" M 21.000000 18.000000 C 21.000000 16.895430 20.104570 16.000000 19.000000 16.000000 C 17.895430 16.000000 17.000000 16.895430 17.000000 18.000000 C 17.000000 19.656855 15.656855 21.000000 14.000000 21.000000 C 12.343145 21.000000 11.000000 19.656855 11.000000 18.000000 L 11.000000 14.000000 C 11.000000 6.820298 16.820299 1.000000 24.000000 1.000000 C 31.179701 1.000000 37.000000 6.820298 37.000000 14.000000 L 37.000000 18.000000 C 37.000000 19.656855 35.656853 21.000000 34.000000 21.000000 C 32.343147 21.000000 31.000000 19.656855 31.000000 18.000000 C 31.000000 16.895430 30.104570 16.000000 29.000000 16.000000 C 27.895430 16.000000 27.000000 16.895430 27.000000 18.000000 L 27.000000 20.000000 C 27.000000 21.656855 25.656855 23.000000 24.000000 23.000000 C 22.343145 23.000000 21.000000 21.656855 21.000000 20.000000 Z" stroke="#231F20" stroke-width="2.000000" stroke-linecap="round" stroke-linejoin="round" fill="none"/><path d=" M 33.000000 21.000000 L 24.000000 47.000000 L 15.000000 21.000000" stroke="#231F20" stroke-width="2.000000" stroke-linecap="round" stroke-linejoin="round" fill="none"/></g></svg>