<svg version="1.1" viewBox="0.000000 0.000000 48.000000 48.000000" xmlns="http://www.w3.org/2000/svg" xmlns:xlink="http://www.w3.org/1999/xlink" overflow="hidden"><defs></defs><g id="icons"><circle cx="24.000000" cy="32.000000" r="15.000000" stroke="#231F20" stroke-width="2.000000" stroke-miterlimit="10.000000" fill="none"/><path d=" M 34.000000 20.820000 L 34.000000 11.000000 C 34.000000 5.477152 29.522848 1.000000 24.000000 1.000000 C 18.477152 1.000000 14.000000 5.477152 14.000000 11.000000 L 14.000000 20.820000" stroke="#231F20" stroke-width="2.000000" stroke-miterlimit="10.000000" fill="none"/><circle cx="24.000000" cy="32.000000" r="8.000000" stroke="#231F20" stroke-width="2.000000" stroke-miterlimit="10.000000" fill="none"/><line x1="24.000000" y1="22.000000" x2="24.000000" y2="26.000000" stroke="#231F20" stroke-width="2.000000" stroke-linecap="round" stroke-miterlimit="10.000000" fill="none"/><line x1="24.000000" y1="38.000000" x2="24.000000" y2="42.000000" stroke="#231F20" stroke-width="2.000000" stroke-linecap="round" stroke-miterlimit="10.000000" fill="none"/><line x1="34.000000" y1="32.000000" x2="30.000000" y2="32.000000" stroke="#231F20" stroke-width="2.000000" stroke-linecap="round" stroke-miterlimit="10.000000" fill="none"/><line x1="18.000000" y1="32.000000" x2="14.000000" y2="32.000000" stroke="#231F20" stroke-width="2.000000" stroke-linecap="round" stroke-miterlimit="10.000000" fill="none"/><path d=" M 24.000000 30.000000 C 22.895430 30.000000 22.000000 30.895430 22.000000 32.000000 C 22.000000 33.104568 22.895430 34.000000 24.000000 34.000000 C 25.104570 34.000000 26.000000 33.104568 26.000000 32.000000 C 26.000000 30.895430 25.104570 30.000000 24.000000 30.000000 Z" fill="#231F20"/></g></svg>