<svg version="1.1" viewBox="0.000000 0.000000 48.000000 48.000000" xmlns="http://www.w3.org/2000/svg" xmlns:xlink="http://www.w3.org/1999/xlink" overflow="hidden"><defs></defs><g id="icons"><path d=" M 43.310001 23.000000 C 44.988396 21.889877 45.998528 20.012306 46.000000 18.000000 C 46.000000 14.690000 42.000000 12.000000 38.000000 12.000000 C 36.000000 12.000000 32.500000 14.750000 29.500000 17.500000 C 32.250000 14.500000 35.000000 11.000000 35.000000 9.000000 C 35.000000 5.000000 32.310001 1.000000 29.000000 1.000000 C 26.987694 1.001472 25.110123 2.011606 24.000000 3.690000 C 22.889877 2.011606 21.012306 1.001472 19.000000 1.000000 C 15.690000 1.000000 13.000000 5.000000 13.000000 9.000000 C 13.000000 11.000000 15.750000 14.500000 18.500000 17.500000 C 15.500000 14.750000 12.000000 12.000000 10.000000 12.000000 C 6.000000 12.000000 2.000000 14.690000 2.000000 18.000000 C 2.001472 20.012306 3.011606 21.889877 4.690000 23.000000 C 3.011606 24.110123 2.001472 25.987694 2.000000 28.000000 C 2.000000 31.309999 6.000000 34.000000 10.000000 34.000000 C 14.000000 34.000000 24.000000 29.000000 24.000000 29.000000 C 24.000000 29.000000 34.000000 34.000000 38.000000 34.000000 C 42.000000 34.000000 46.000000 31.309999 46.000000 28.000000 C 45.998528 25.987694 44.988396 24.110123 43.310001 23.000000 Z" stroke="#231F20" stroke-width="2.000000" stroke-linecap="round" stroke-linejoin="round" fill="none"/><path d=" M 24.000000 29.000000 L 24.000000 43.000000 C 24.000000 45.200001 25.350000 47.000000 27.000000 47.000000 L 30.000000 47.000000" stroke="#231F20" stroke-width="2.000000" stroke-linecap="round" stroke-linejoin="round" fill="none"/></g></svg>