<svg version="1.1" viewBox="0.000000 0.000000 48.000000 48.000000" xmlns="http://www.w3.org/2000/svg" xmlns:xlink="http://www.w3.org/1999/xlink" overflow="hidden"><defs></defs><g id="icons"><path d=" M 46.000000 23.620001 C 46.209999 35.770000 36.150002 45.790001 24.000000 46.000000 C 12.027772 46.176773 2.179060 36.614666 2.002286 24.642439 C 2.000995 24.554964 2.000232 24.467484 2.000000 24.379999 C 1.790000 12.230000 11.850000 2.210000 24.000000 2.000000 C 35.972229 1.823227 45.820942 11.385332 45.997715 23.357561 C 45.999008 23.445036 45.999767 23.532516 46.000000 23.620001 Z" stroke="#231F20" stroke-width="2.000000" stroke-linecap="round" stroke-linejoin="round" fill="none"/><line x1="24.000000" y1="27.000000" x2="24.000000" y2="13.000000" stroke="#231F20" stroke-width="2.000000" stroke-linecap="round" stroke-linejoin="round" fill="none"/><path d=" M 24.000000 32.000000 L 24.000000 32.000000 C 22.895430 32.000000 22.000000 32.895432 22.000000 34.000000 C 22.000000 35.104568 22.895430 36.000000 24.000000 36.000000 L 24.000000 36.000000 C 25.104570 36.000000 26.000000 35.104568 26.000000 34.000000 C 26.000000 32.895432 25.104570 32.000000 24.000000 32.000000 Z" fill="#231F20"/></g></svg>