<svg version="1.1" viewBox="0.000000 0.000000 48.000000 48.000000" xmlns="http://www.w3.org/2000/svg" xmlns:xlink="http://www.w3.org/1999/xlink" overflow="hidden"><defs></defs><g id="icons"><circle cx="41.000000" cy="38.000000" r="4.000000" stroke="#231F20" stroke-width="2.000000" stroke-linecap="round" stroke-linejoin="round" fill="none"/><path d=" M 9.000000 42.000000 L 9.000000 8.000000 C 9.000000 6.895431 9.895431 6.000000 11.000000 6.000000 C 12.104569 6.000000 13.000000 6.895431 13.000000 8.000000 L 13.000000 42.000000 Z" stroke="#231F20" stroke-width="2.000000" stroke-linecap="round" stroke-linejoin="round" fill="none"/><circle cx="27.000000" cy="36.000000" r="6.000000" stroke="#231F20" stroke-width="2.000000" stroke-linecap="round" stroke-linejoin="round" fill="none"/><line x1="38.000000" y1="17.000000" x2="36.000000" y2="25.000000" stroke="#231F20" stroke-width="2.000000" stroke-linecap="round" stroke-linejoin="round" fill="none"/><line x1="25.000000" y1="21.000000" x2="27.000000" y2="23.000000" stroke="#231F20" stroke-width="2.000000" stroke-linecap="round" stroke-linejoin="round" fill="none"/><line x1="26.000000" y1="22.000000" x2="17.000000" y2="31.000000" stroke="#231F20" stroke-width="2.000000" stroke-linecap="round" stroke-linejoin="round" fill="none"/><path d=" M 43.000000 25.000000 L 32.000000 25.000000 L 27.000000 30.000000" stroke="#231F20" stroke-width="2.000000" stroke-linecap="round" stroke-linejoin="round" fill="none"/><line x1="13.000000" y1="42.000000" x2="1.000000" y2="42.000000" stroke="#231F20" stroke-width="2.000000" stroke-linecap="round" stroke-linejoin="round" fill="none"/><line x1="9.000000" y1="32.000000" x2="3.000000" y2="32.000000" stroke="#231F20" stroke-width="2.000000" stroke-linecap="round" stroke-linejoin="round" fill="none"/><path d=" M 44.860001 39.000000 L 47.000000 39.000000 L 47.000000 28.000000 L 43.000000 25.000000 L 43.000000 14.000000 C 43.000000 11.790861 41.209141 10.000000 39.000000 10.000000 L 35.000000 10.000000 C 25.058874 10.000000 17.000000 18.058874 17.000000 28.000000 L 17.000000 39.000000 L 21.799999 39.000000" stroke="#231F20" stroke-width="2.000000" stroke-linecap="round" stroke-linejoin="round" fill="none"/><line x1="32.190000" y1="39.000000" x2="37.130000" y2="39.000000" stroke="#231F20" stroke-width="2.000000" stroke-linecap="round" stroke-linejoin="round" fill="none"/></g></svg>