<svg version="1.1" viewBox="0.000000 0.000000 48.000000 48.000000" xmlns="http://www.w3.org/2000/svg" xmlns:xlink="http://www.w3.org/1999/xlink" overflow="hidden"><defs></defs><g id="icons"><path d=" M 30.090000 7.480000 C 30.090000 9.400000 24.250000 11.000000 17.000000 11.000000 C 9.750000 11.000000 4.000000 9.400000 4.000000 7.480000 C 4.000000 5.560000 9.840000 4.000000 17.000000 4.000000 C 24.160000 4.000000 30.090000 5.560000 30.090000 7.480000 Z" stroke="#231F20" stroke-width="2.000000" stroke-linecap="round" stroke-linejoin="round" fill="none"/><path d=" M 30.090000 7.480000 L 30.090000 12.700000 C 30.090000 14.620000 24.250000 16.170000 17.090000 16.170000 C 9.930000 16.170000 4.000000 14.620000 4.000000 12.700000 L 4.000000 7.480000" stroke="#231F20" stroke-width="2.000000" stroke-linecap="round" stroke-linejoin="round" fill="none"/><path d=" M 30.090000 12.700000 L 30.090000 17.910000 C 30.090000 19.830000 24.250000 21.389999 17.090000 21.389999 C 9.930000 21.389999 4.000000 19.830000 4.000000 17.910000 L 4.000000 12.700000" stroke="#231F20" stroke-width="2.000000" stroke-linecap="round" stroke-linejoin="round" fill="none"/><path d=" M 44.000000 30.090000 C 44.000000 32.009998 38.160000 33.570000 31.000000 33.570000 C 23.840000 33.570000 18.000000 32.009998 18.000000 30.090000 C 18.000000 28.170000 23.750000 26.610001 31.000000 26.610001 C 38.250000 26.610001 44.000000 28.170000 44.000000 30.090000 Z" stroke="#231F20" stroke-width="2.000000" stroke-linecap="round" stroke-linejoin="round" fill="none"/><path d=" M 44.000000 30.090000 L 44.000000 35.299999 C 44.000000 37.230000 38.160000 38.779999 31.000000 38.779999 C 23.840000 38.779999 18.000000 37.230000 18.000000 35.299999 L 18.000000 30.090000" stroke="#231F20" stroke-width="2.000000" stroke-linecap="round" stroke-linejoin="round" fill="none"/><path d=" M 44.000000 35.299999 L 44.000000 40.520000 C 44.000000 42.439999 38.160000 44.000000 31.000000 44.000000 C 23.840000 44.000000 18.000000 42.439999 18.000000 40.520000 L 18.000000 35.299999" stroke="#231F20" stroke-width="2.000000" stroke-linecap="round" stroke-linejoin="round" fill="none"/><path d=" M 30.090000 17.910000 L 30.090000 23.129999 C 30.090000 25.049999 24.250000 26.610001 17.090000 26.610001 C 9.930000 26.610001 4.000000 25.049999 4.000000 23.129999 L 4.000000 17.910000" stroke="#231F20" stroke-width="2.000000" stroke-linecap="round" stroke-linejoin="round" fill="none"/><path d=" M 4.000000 23.129999 L 4.000000 28.350000 C 4.000000 30.270000 9.840000 31.830000 17.000000 31.830000 L 17.870001 31.830000" stroke="#231F20" stroke-width="2.000000" stroke-linecap="round" stroke-linejoin="round" fill="none"/><path d=" M 4.000000 28.350000 L 4.000000 33.570000 C 4.000000 35.490002 9.840000 37.000000 17.000000 37.000000 L 17.870001 37.000000" stroke="#231F20" stroke-width="2.000000" stroke-linecap="round" stroke-linejoin="round" fill="none"/><line x1="30.090000" y1="23.130000" x2="30.090000" y2="26.610000" stroke="#231F20" stroke-width="2.000000" stroke-linecap="round" stroke-linejoin="round" fill="none"/></g></svg>