<svg version="1.1" viewBox="0.000000 0.000000 48.000000 48.000000" xmlns="http://www.w3.org/2000/svg" xmlns:xlink="http://www.w3.org/1999/xlink" overflow="hidden"><defs></defs><g id="icons"><path d=" M 47.000000 27.000000 L 47.000000 10.000000 C 42.000000 15.000000 18.000000 15.000000 13.000000 10.000000 L 13.000000 27.000000 C 13.000000 38.000000 26.000000 47.000000 30.000000 47.000000 C 34.000000 47.000000 47.000000 38.000000 47.000000 27.000000 Z" stroke="#231F20" stroke-width="2.000000" stroke-linecap="round" stroke-linejoin="round" fill="none"/><path d=" M 35.000000 8.000000 L 35.000000 1.000000 C 30.000000 6.000000 6.000000 6.000000 1.000000 1.000000 L 1.000000 18.000000 C 1.000000 23.000000 3.630000 27.500000 6.900000 31.000000" stroke="#231F20" stroke-width="2.000000" stroke-linecap="round" stroke-linejoin="round" fill="none"/><path d=" M 36.000000 33.000000 C 36.000000 36.313709 33.313709 39.000000 30.000000 39.000000 C 26.686291 39.000000 24.000000 36.313709 24.000000 33.000000" stroke="#231F20" stroke-width="2.000000" stroke-linecap="round" stroke-linejoin="round" fill="none"/><path d=" M 34.000000 24.000000 C 34.000000 22.343145 35.343147 21.000000 37.000000 21.000000 C 38.656853 21.000000 40.000000 22.343145 40.000000 24.000000" stroke="#231F20" stroke-width="2.000000" stroke-linecap="round" stroke-linejoin="round" fill="none"/><path d=" M 20.000000 24.000000 C 20.000000 22.343145 21.343145 21.000000 23.000000 21.000000 C 24.656855 21.000000 26.000000 22.343145 26.000000 24.000000" stroke="#231F20" stroke-width="2.000000" stroke-linecap="round" stroke-linejoin="round" fill="none"/></g></svg>