<svg version="1.1" viewBox="0.000000 0.000000 48.000000 48.000000" xmlns="http://www.w3.org/2000/svg" xmlns:xlink="http://www.w3.org/1999/xlink" overflow="hidden"><defs></defs><g id="icons"><path d=" M 20.660000 22.600000 C 21.590599 21.671705 21.592468 20.164774 20.664175 19.234175 C 20.662785 19.232782 20.661394 19.231390 20.660000 19.230000 L 18.129999 16.700001 C 17.201704 15.769401 15.694774 15.767532 14.764174 16.695826 C 14.762780 16.697216 14.761389 16.698606 14.759999 16.700001 L 13.370000 18.090000 C 12.169469 19.288330 11.981157 21.167255 12.920000 22.580000 C 16.999804 28.729858 22.270142 34.000198 28.420000 38.080002 C 29.833736 39.014839 31.709902 38.826801 32.910000 37.630001 L 34.299999 36.240002 C 35.230598 35.311707 35.232468 33.804775 34.304173 32.874176 C 34.302784 32.872784 34.301392 32.871391 34.299999 32.870003 L 31.770000 30.340000 C 30.841705 29.409401 29.334774 29.407532 28.404175 30.335825 C 28.402782 30.337215 28.401390 30.338606 28.400000 30.340000 L 27.559999 31.180000 C 24.735273 28.853575 22.140070 26.261719 19.809999 23.440001 Z" stroke="#231F20" stroke-width="2.000000" stroke-linecap="round" stroke-linejoin="round" fill="none"/><path d=" M 43.000000 1.000000 L 9.000000 1.000000 C 6.790861 1.000000 5.000000 2.790861 5.000000 5.000000 C 5.000000 7.209139 6.790861 9.000000 9.000000 9.000000 L 43.000000 9.000000 L 43.000000 47.000000 L 9.000000 47.000000 C 6.790861 47.000000 5.000000 45.209141 5.000000 43.000000 L 5.000000 6.000000" stroke="#231F20" stroke-width="2.000000" stroke-linecap="round" stroke-linejoin="round" fill="none"/><line x1="9.000000" y1="5.000000" x2="41.000000" y2="5.000000" stroke="#231F20" stroke-width="2.000000" stroke-linecap="round" stroke-linejoin="round" fill="none"/></g></svg>