<svg version="1.1" viewBox="0.000000 0.000000 48.000000 48.000000" xmlns="http://www.w3.org/2000/svg" xmlns:xlink="http://www.w3.org/1999/xlink" overflow="hidden"><defs></defs><g id="icons"><rect x="1.000000" y="11.000000" width="46.000000" height="14.000000" stroke="#231F20" stroke-width="2.000000" stroke-linejoin="round" fill="none"/><line x1="5.000000" y1="25.000000" x2="5.000000" y2="47.000000" stroke="#231F20" stroke-width="2.000000" stroke-linecap="round" stroke-linejoin="round" fill="none"/><line x1="43.000000" y1="25.000000" x2="43.000000" y2="47.000000" stroke="#231F20" stroke-width="2.000000" stroke-linecap="round" stroke-linejoin="round" fill="none"/><path d=" M 15.000000 4.000000 C 15.000000 5.656854 13.656855 7.000000 12.000000 7.000000 C 10.343145 7.000000 9.000000 5.656854 9.000000 4.000000 C 9.000000 2.343146 10.343145 1.000000 12.000000 1.000000 C 13.656855 1.000000 15.000000 2.343146 15.000000 4.000000 Z" stroke="#231F20" stroke-width="2.000000" stroke-linecap="round" stroke-linejoin="round" fill="none"/><path d=" M 39.000000 4.000000 C 39.000000 5.656854 37.656853 7.000000 36.000000 7.000000 C 34.343147 7.000000 33.000000 5.656854 33.000000 4.000000 C 33.000000 2.343146 34.343147 1.000000 36.000000 1.000000 C 37.656853 1.000000 39.000000 2.343146 39.000000 4.000000 Z" stroke="#231F20" stroke-width="2.000000" stroke-linecap="round" stroke-linejoin="round" fill="none"/><line x1="12.000000" y1="7.000000" x2="12.000000" y2="11.000000" stroke="#231F20" stroke-width="2.000000" stroke-linejoin="round" fill="none"/><line x1="36.000000" y1="7.000000" x2="36.000000" y2="11.000000" stroke="#231F20" stroke-width="2.000000" stroke-linejoin="round" fill="none"/><line x1="1.000000" y1="25.000000" x2="15.000000" y2="11.000000" stroke="#231F20" stroke-width="2.000000" stroke-linejoin="round" fill="none"/><line x1="25.000000" y1="11.000000" x2="11.000000" y2="25.000000" stroke="#231F20" stroke-width="2.000000" stroke-linejoin="round" fill="none"/><line x1="37.000000" y1="11.000000" x2="23.000000" y2="25.000000" stroke="#231F20" stroke-width="2.000000" stroke-linejoin="round" fill="none"/><line x1="47.000000" y1="11.000000" x2="33.000000" y2="25.000000" stroke="#231F20" stroke-width="2.000000" stroke-linejoin="round" fill="none"/></g></svg>