<svg version="1.1" viewBox="0.000000 0.000000 48.000000 48.000000" xmlns="http://www.w3.org/2000/svg" xmlns:xlink="http://www.w3.org/1999/xlink" overflow="hidden"><defs></defs><g id="icons"><path d=" M 15.000000 41.169998 C 12.467201 41.033241 10.057272 40.034691 8.170000 38.339996 L 3.830000 34.000000 C 2.267034 32.438770 2.265625 29.906113 3.826853 28.343147 C 3.827902 28.342098 3.828950 28.341049 3.830000 28.340000 L 28.170000 4.000000 C 29.731228 2.437034 32.263889 2.435625 33.826855 3.996853 C 33.827904 3.997902 33.828953 3.998950 33.830002 4.000000 L 44.169998 14.340000 C 45.732964 15.901228 45.734371 18.433887 44.173145 19.996853 C 44.172096 19.997902 44.171047 19.998951 44.169998 20.000000 L 25.830000 38.340000 C 23.942728 40.034691 21.532799 41.033241 19.000000 41.170002 Z" stroke="#231F20" stroke-width="2.000000" stroke-linecap="round" stroke-linejoin="round" fill="none"/><line x1="19.000000" y1="13.170000" x2="35.000000" y2="29.170000" stroke="#231F20" stroke-width="2.000000" stroke-linecap="round" stroke-linejoin="round" fill="none"/><line x1="1.000000" y1="45.170000" x2="47.000000" y2="45.170000" stroke="#231F20" stroke-width="2.000000" stroke-linecap="round" stroke-linejoin="round" fill="none"/></g></svg>