<svg version="1.1" viewBox="0.000000 0.000000 48.000000 48.000000" xmlns="http://www.w3.org/2000/svg" xmlns:xlink="http://www.w3.org/1999/xlink" overflow="hidden"><defs></defs><g id="icons"><path d=" M 47.000000 5.000000 L 41.869999 5.000000 C 41.368069 4.995060 40.940250 5.362984 40.869999 5.860000 L 37.119999 32.139999 C 37.049747 32.637016 36.621929 33.004940 36.119999 33.000000 L 7.000000 33.000000 C 5.895431 33.000000 5.000000 32.104568 5.000000 31.000000 C 5.000000 29.895430 5.895431 29.000000 7.000000 29.000000 L 31.000000 29.000000 C 32.104568 29.000000 33.000000 28.104570 33.000000 27.000000 C 33.000000 25.895430 32.104568 25.000000 31.000000 25.000000 L 5.000000 25.000000 C 3.895431 25.000000 3.000000 24.104570 3.000000 23.000000 C 3.000000 21.895430 3.895431 21.000000 5.000000 21.000000 L 32.000000 21.000000 C 33.104568 21.000000 34.000000 20.104570 34.000000 19.000000 C 34.000000 17.895430 33.104568 17.000000 32.000000 17.000000 L 3.000000 17.000000 C 1.895430 17.000000 1.000000 16.104570 1.000000 15.000000 C 1.000000 13.895431 1.895430 13.000000 3.000000 13.000000 L 35.000000 13.000000" stroke="#231F20" stroke-width="2.000000" stroke-linecap="round" stroke-miterlimit="10.000000" fill="none"/><circle cx="12.000000" cy="40.000000" r="3.000000" stroke="#231F20" stroke-width="2.000000" stroke-miterlimit="10.000000" fill="none"/><circle cx="34.000000" cy="40.000000" r="3.000000" stroke="#231F20" stroke-width="2.000000" stroke-miterlimit="10.000000" fill="none"/></g></svg>