<svg version="1.1" viewBox="0.000000 0.000000 48.000000 48.000000" xmlns="http://www.w3.org/2000/svg" xmlns:xlink="http://www.w3.org/1999/xlink" overflow="hidden"><defs></defs><g id="icons"><ellipse cx="19.000000" cy="25.000000" rx="10.000000" ry="2.000000" stroke="#231F20" stroke-width="2.000000" stroke-linecap="round" stroke-linejoin="round" fill="none"/><path d=" M 9.000000 25.000000 L 9.000000 29.000000 C 9.000000 30.100000 13.480000 31.000000 19.000000 31.000000 C 24.520000 31.000000 29.000000 30.100000 29.000000 29.000000 L 29.000000 25.000000" stroke="#231F20" stroke-width="2.000000" stroke-linecap="round" stroke-linejoin="round" fill="none"/><path d=" M 29.000000 29.000000 L 29.000000 33.000000 C 29.000000 34.099998 24.520000 35.000000 19.000000 35.000000 C 13.480000 35.000000 9.000000 34.099998 9.000000 33.000000 L 9.000000 29.000000" stroke="#231F20" stroke-width="2.000000" stroke-linecap="round" stroke-linejoin="round" fill="none"/><path d=" M 29.000000 33.000000 L 29.000000 37.000000 C 29.000000 38.099998 24.520000 39.000000 19.000000 39.000000 C 13.480000 39.000000 9.000000 38.099998 9.000000 37.000000 L 9.000000 33.000000" stroke="#231F20" stroke-width="2.000000" stroke-linecap="round" stroke-linejoin="round" fill="none"/><path d=" M 29.000000 37.000000 L 29.000000 41.000000 C 29.000000 42.099998 24.520000 43.000000 19.000000 43.000000 C 13.480000 43.000000 9.000000 42.099998 9.000000 41.000000 L 9.000000 37.000000" stroke="#231F20" stroke-width="2.000000" stroke-linecap="round" stroke-linejoin="round" fill="none"/><path d=" M 29.000000 41.000000 L 29.000000 45.000000 C 29.000000 46.099998 24.520000 47.000000 19.000000 47.000000 C 13.480000 47.000000 9.000000 46.099998 9.000000 45.000000 L 9.000000 41.000000" stroke="#231F20" stroke-width="2.000000" stroke-linecap="round" stroke-linejoin="round" fill="none"/><path d=" M 9.000000 29.000000 L 1.000000 29.000000 L 1.000000 1.000000 L 47.000000 1.000000 L 47.000000 29.000000 L 29.000000 29.000000" stroke="#231F20" stroke-width="2.000000" stroke-linecap="round" stroke-miterlimit="10.000000" fill="none"/><circle cx="24.000000" cy="15.000000" r="6.000000" stroke="#231F20" stroke-width="2.000000" stroke-linecap="round" stroke-linejoin="round" fill="none"/><circle cx="10.000000" cy="10.000000" r="1.000000" stroke="#231F20" stroke-width="2.000000" stroke-linecap="round" stroke-linejoin="round" fill="none"/><circle cx="38.000000" cy="20.000000" r="1.000000" stroke="#231F20" stroke-width="2.000000" stroke-linecap="round" stroke-linejoin="round" fill="none"/><path d=" M 9.000000 25.000000 C 6.790861 25.000000 5.000000 23.209139 5.000000 21.000000 L 5.000000 9.000000 C 5.000000 6.790861 6.790861 5.000000 9.000000 5.000000 L 39.000000 5.000000 C 41.209141 5.000000 43.000000 6.790861 43.000000 9.000000 L 43.000000 21.000000 C 43.000000 23.209139 41.209141 25.000000 39.000000 25.000000 L 29.000000 25.000000" stroke="#231F20" stroke-width="2.000000" stroke-linecap="round" stroke-miterlimit="10.000000" fill="none"/></g></svg>