<svg version="1.1" viewBox="0.000000 0.000000 48.000000 48.000000" xmlns="http://www.w3.org/2000/svg" xmlns:xlink="http://www.w3.org/1999/xlink" overflow="hidden"><defs></defs><g id="icons"><path d=" M 47.000000 24.000000 C 47.000000 36.702549 36.702549 47.000000 24.000000 47.000000 C 11.297451 47.000000 1.000000 36.702549 1.000000 24.000000 C 1.000000 11.297451 11.297451 1.000000 24.000000 1.000000 C 36.702549 1.000000 47.000000 11.297451 47.000000 24.000000 Z" stroke="#231F20" stroke-width="2.000000" stroke-linecap="round" stroke-linejoin="round" fill="none"/><path d=" M 21.000000 29.000000 C 19.674311 30.318342 17.869183 31.040394 16.000000 31.000000 C 12.134007 31.000000 9.000000 27.865993 9.000000 24.000000 C 9.000000 20.134007 12.134007 17.000000 16.000000 17.000000 C 17.869183 16.959606 19.674311 17.681658 21.000000 19.000000" stroke="#231F20" stroke-width="2.000000" stroke-linecap="round" stroke-linejoin="round" fill="none"/><path d=" M 37.000000 29.000000 C 35.674313 30.318342 33.869183 31.040394 32.000000 31.000000 C 28.134007 31.000000 25.000000 27.865993 25.000000 24.000000 C 25.000000 20.134007 28.134007 17.000000 32.000000 17.000000 C 33.869183 16.959606 35.674313 17.681658 37.000000 19.000000" stroke="#231F20" stroke-width="2.000000" stroke-linecap="round" stroke-linejoin="round" fill="none"/></g></svg>