<svg version="1.1" viewBox="0.000000 0.000000 48.000000 48.000000" xmlns="http://www.w3.org/2000/svg" xmlns:xlink="http://www.w3.org/1999/xlink" overflow="hidden"><defs></defs><g id="icons"><circle cx="24.000000" cy="24.000000" r="5.000000" stroke="#231F20" stroke-width="2.000000" stroke-miterlimit="10.000000" fill="none"/><path d=" M 31.000000 17.000000 L 36.000000 17.000000 C 37.656853 17.000000 39.000000 18.343145 39.000000 20.000000 L 39.000000 30.000000 C 39.000000 31.656855 37.656853 33.000000 36.000000 33.000000 L 12.000000 33.000000 C 10.343145 33.000000 9.000000 31.656855 9.000000 30.000000 L 9.000000 20.000000 C 9.000000 18.343145 10.343145 17.000000 12.000000 17.000000 L 17.000000 17.000000" stroke="#231F20" stroke-width="2.000000" stroke-linecap="round" stroke-linejoin="round" fill="none"/><path d=" M 17.000000 17.000000 L 21.000000 13.000000 L 27.000000 13.000000 L 31.000000 17.000000" stroke="#231F20" stroke-width="2.000000" stroke-linecap="round" stroke-linejoin="round" fill="none"/><path d=" M 35.000000 19.000000 C 34.447716 19.000000 34.000000 19.447716 34.000000 20.000000 C 34.000000 20.552284 34.447716 21.000000 35.000000 21.000000 C 35.552284 21.000000 36.000000 20.552284 36.000000 20.000000 C 36.000000 19.447716 35.552284 19.000000 35.000000 19.000000 Z" fill="#231F20"/><circle cx="24.000000" cy="24.000000" r="23.000000" stroke="#231F20" stroke-width="2.000000" stroke-miterlimit="10.000000" fill="none"/></g></svg>