<svg version="1.1" viewBox="0.000000 0.000000 48.000000 48.000000" xmlns="http://www.w3.org/2000/svg" xmlns:xlink="http://www.w3.org/1999/xlink" overflow="hidden"><defs></defs><g id="icons"><path d=" M 45.000000 24.000000 L 45.000000 1.000000 C 40.000000 6.000000 8.000000 6.000000 3.000000 1.000000 L 3.000000 24.000000 C 3.000000 36.700001 20.000000 47.000000 24.000000 47.000000 C 28.000000 47.000000 45.000000 36.700001 45.000000 24.000000 Z" stroke="#231F20" stroke-width="2.000000" stroke-linecap="round" stroke-linejoin="round" fill="none"/><path d=" M 19.000000 14.000000 C 19.000000 16.209139 17.209139 18.000000 15.000000 18.000000 C 12.790861 18.000000 11.000000 16.209139 11.000000 14.000000" stroke="#231F20" stroke-width="2.000000" stroke-linecap="round" stroke-linejoin="round" fill="none"/><path d=" M 37.000000 14.000000 C 37.000000 16.209139 35.209141 18.000000 33.000000 18.000000 C 30.790861 18.000000 29.000000 16.209139 29.000000 14.000000" stroke="#231F20" stroke-width="2.000000" stroke-linecap="round" stroke-linejoin="round" fill="none"/><path d=" M 32.000000 36.000000 C 32.000000 31.581722 28.418278 28.000000 24.000000 28.000000 C 19.581722 28.000000 16.000000 31.581722 16.000000 36.000000" stroke="#231F20" stroke-width="2.000000" stroke-linecap="round" stroke-linejoin="round" fill="none"/></g></svg>