<svg version="1.1" viewBox="0.000000 0.000000 48.000000 48.000000" xmlns="http://www.w3.org/2000/svg" xmlns:xlink="http://www.w3.org/1999/xlink" overflow="hidden"><defs></defs><g id="icons"><line x1="5.000000" y1="33.000000" x2="5.000000" y2="35.000000" stroke="#231F20" stroke-width="2.000000" stroke-linecap="round" stroke-linejoin="round" fill="none"/><line x1="43.000000" y1="33.000000" x2="43.000000" y2="35.000000" stroke="#231F20" stroke-width="2.000000" stroke-linecap="round" stroke-linejoin="round" fill="none"/><circle cx="15.000000" cy="21.000000" r="8.000000" stroke="#231F20" stroke-width="2.000000" stroke-linecap="round" stroke-linejoin="round" fill="none"/><path d=" M 22.750000 19.000000 L 43.000000 19.000000 C 45.209141 19.000000 47.000000 20.790861 47.000000 23.000000 L 47.000000 29.000000 C 47.000000 31.209139 45.209141 33.000000 43.000000 33.000000 L 5.000000 33.000000 C 2.790861 33.000000 1.000000 31.209139 1.000000 29.000000 L 1.000000 23.000000 C 1.000000 20.799999 2.410000 19.000000 4.130000 19.000000 L 7.250000 19.000000" stroke="#231F20" stroke-width="2.000000" stroke-linecap="round" stroke-linejoin="round" fill="none"/><circle cx="15.000000" cy="21.000000" r="4.000000" stroke="#231F20" stroke-width="2.000000" stroke-linecap="round" stroke-linejoin="round" fill="none"/><line x1="41.000000" y1="23.000000" x2="41.000000" y2="29.000000" stroke="#231F20" stroke-width="2.000000" stroke-linecap="round" stroke-linejoin="round" fill="none"/><line x1="37.000000" y1="23.000000" x2="37.000000" y2="29.000000" stroke="#231F20" stroke-width="2.000000" stroke-linecap="round" stroke-linejoin="round" fill="none"/><line x1="33.000000" y1="23.000000" x2="33.000000" y2="29.000000" stroke="#231F20" stroke-width="2.000000" stroke-linecap="round" stroke-linejoin="round" fill="none"/><line x1="29.000000" y1="23.000000" x2="29.000000" y2="29.000000" stroke="#231F20" stroke-width="2.000000" stroke-linecap="round" stroke-linejoin="round" fill="none"/></g></svg>