<svg version="1.1" viewBox="0.000000 0.000000 48.000000 48.000000" xmlns="http://www.w3.org/2000/svg" xmlns:xlink="http://www.w3.org/1999/xlink" overflow="hidden"><defs></defs><g id="icons"><path d=" M 26.000000 26.920000 C 24.340000 26.920000 22.000000 28.270000 22.000000 29.920000 L 22.000000 44.919998 C 22.000000 46.000000 24.250000 47.000000 25.360001 47.000000 L 27.360001 47.000000 C 28.459999 47.000000 30.040001 46.000000 30.030001 44.910000 L 30.030001 29.910000 C 30.000000 28.260000 27.670000 26.920000 26.000000 26.920000 Z" stroke="#202020" stroke-width="2.000000" stroke-linecap="round" stroke-linejoin="round" fill="none"/><path d=" M 10.000000 7.000000 L 8.000000 7.000000 C 6.895431 7.000000 6.000000 7.895431 6.000000 9.000000 L 6.000000 17.000000 C 6.000000 18.104570 6.895431 19.000000 8.000000 19.000000 L 24.000000 19.000000 C 25.104570 19.000000 26.000000 19.895430 26.000000 21.000000 L 26.000000 26.910000" stroke="#202020" stroke-width="2.000000" stroke-linecap="round" stroke-linejoin="round" fill="none"/><rect x="10.000000" y="1.010000" width="30.000000" height="12.000000" stroke="#202020" stroke-width="2.000000" stroke-linecap="round" stroke-linejoin="round" fill="none"/><line x1="40.080000" y1="6.990000" x2="42.000000" y2="6.990000" stroke="#202020" stroke-width="2.000000" stroke-linecap="round" stroke-linejoin="round" fill="none"/></g></svg>