<svg version="1.1" viewBox="0.000000 0.000000 48.000000 48.000000" xmlns="http://www.w3.org/2000/svg" xmlns:xlink="http://www.w3.org/1999/xlink" overflow="hidden"><defs></defs><g id="icons"><path d=" M 38.000000 6.000000 C 36.542835 5.999374 35.113743 6.400766 33.869999 7.160000 C 31.187969 1.708949 24.594807 -0.535786 19.143755 2.146243 C 16.964911 3.218279 15.202034 4.981156 14.129998 7.160000 C 10.352358 4.868577 5.432411 6.073395 3.140989 9.851035 C 0.849567 13.628675 2.054384 18.548622 5.832025 20.840044 C 7.088447 21.602158 8.530508 22.003487 9.999998 21.999998 C 10.378252 21.995266 10.755764 21.965199 11.129998 21.909998 C 11.045554 22.267241 11.001942 22.632915 10.999998 22.999998 C 10.999998 25.761421 13.238574 27.999998 15.999998 27.999998 C 18.761421 27.999998 20.999998 25.761421 20.999998 22.999998 C 21.000000 22.850000 21.000000 22.709999 21.000000 22.559999 C 21.974447 22.846489 22.984325 22.994604 24.000000 23.000000 C 27.090830 22.997276 30.037905 21.694319 32.119999 19.410000 C 35.107864 22.664816 40.168560 22.881224 43.423378 19.893356 C 46.678196 16.905489 46.894600 11.844794 43.906734 8.589978 C 42.388474 6.936069 40.245110 5.996249 38.000000 6.000000 Z" stroke="#231F20" stroke-width="2.000000" stroke-linejoin="round" fill="none"/><path d=" M 37.580002 37.000000 L 41.290001 37.000000 C 43.416012 36.913292 45.073246 35.126514 45.000000 33.000000 L 45.000000 27.000000 C 45.000000 24.790861 43.209141 23.000000 41.000000 23.000000 L 36.119999 23.000000" stroke="#231F20" stroke-width="2.000000" stroke-linejoin="round" fill="none"/><path d=" M 42.000000 44.000000 C 42.000000 45.656853 40.656853 47.000000 39.000000 47.000000 L 9.000000 47.000000 C 7.343146 47.000000 6.000000 45.656853 6.000000 44.000000 L 6.000000 44.000000 C 6.000000 42.343147 7.343146 41.000000 9.000000 41.000000 L 39.000000 41.000000 C 40.656853 41.000000 42.000000 42.343147 42.000000 44.000000 Z" stroke="#231F20" stroke-width="2.000000" stroke-linecap="round" stroke-linejoin="round" fill="none"/><line x1="12.000000" y1="26.000000" x2="10.000000" y2="41.000000" stroke="#231F20" stroke-width="2.000000" stroke-linecap="round" stroke-linejoin="round" fill="none"/><line x1="36.000000" y1="21.740000" x2="38.000000" y2="41.000000" stroke="#231F20" stroke-width="2.000000" stroke-linecap="round" stroke-linejoin="round" fill="none"/><line x1="30.000000" y1="27.000000" x2="31.000000" y2="37.000000" stroke="#231F20" stroke-width="2.000000" stroke-linecap="round" stroke-linejoin="round" fill="none"/><line x1="24.000000" y1="27.000000" x2="24.000000" y2="37.000000" stroke="#231F20" stroke-width="2.000000" stroke-linecap="round" stroke-linejoin="round" fill="none"/><line x1="18.000000" y1="28.000000" x2="17.000000" y2="37.000000" stroke="#231F20" stroke-width="2.000000" stroke-linecap="round" stroke-linejoin="round" fill="none"/></g></svg>