<svg version="1.1" viewBox="0.000000 0.000000 48.000000 48.000000" xmlns="http://www.w3.org/2000/svg" xmlns:xlink="http://www.w3.org/1999/xlink" overflow="hidden"><defs></defs><g id="icons"><path d=" M 45.000000 24.000000 L 45.000000 1.000000 C 40.000000 6.000000 8.000000 6.000000 3.000000 1.000000 L 3.000000 24.000000 C 3.000000 36.700001 20.000000 47.000000 24.000000 47.000000 C 28.000000 47.000000 45.000000 36.700001 45.000000 24.000000 Z" stroke="#231F20" stroke-width="2.000000" stroke-linecap="round" stroke-linejoin="round" fill="none"/><path d=" M 29.000000 18.000000 C 29.000000 15.790861 30.790861 14.000000 33.000000 14.000000 C 35.209141 14.000000 37.000000 15.790861 37.000000 18.000000" stroke="#231F20" stroke-width="2.000000" stroke-linecap="round" stroke-linejoin="round" fill="none"/><path d=" M 11.000000 18.000000 C 11.000000 15.790861 12.790861 14.000000 15.000000 14.000000 C 17.209139 14.000000 19.000000 15.790861 19.000000 18.000000" stroke="#231F20" stroke-width="2.000000" stroke-linecap="round" stroke-linejoin="round" fill="none"/><path d=" M 16.000000 28.000000 C 16.000000 32.418278 19.581722 36.000000 24.000000 36.000000 C 28.418278 36.000000 32.000000 32.418278 32.000000 28.000000" stroke="#231F20" stroke-width="2.000000" stroke-linecap="round" stroke-linejoin="round" fill="none"/></g></svg>