<svg version="1.1" viewBox="0.000000 0.000000 48.000000 48.000000" xmlns="http://www.w3.org/2000/svg" xmlns:xlink="http://www.w3.org/1999/xlink" overflow="hidden"><defs></defs><g id="icons"><rect x="10.000000" y="9.000000" width="28.000000" height="18.000000" stroke="#231F20" stroke-width="2.000000" stroke-linecap="round" stroke-miterlimit="10.000000" fill="none"/><line x1="19.000000" y1="5.000000" x2="29.000000" y2="5.000000" stroke="#231F20" stroke-width="2.000000" stroke-linecap="round" stroke-miterlimit="10.000000" fill="none"/><path d=" M 15.000000 32.000000 L 13.000000 32.000000 L 13.000000 34.000000 L 15.000000 34.000000 L 15.000000 32.000000 L 15.000000 32.000000 Z" fill="#231F20"/><path d=" M 19.000000 32.000000 L 17.000000 32.000000 L 17.000000 34.000000 L 19.000000 34.000000 L 19.000000 32.000000 L 19.000000 32.000000 Z" fill="#231F20"/><path d=" M 23.000000 32.000000 L 21.000000 32.000000 L 21.000000 34.000000 L 23.000000 34.000000 L 23.000000 32.000000 L 23.000000 32.000000 Z" fill="#231F20"/><path d=" M 15.000000 36.000000 L 13.000000 36.000000 L 13.000000 38.000000 L 15.000000 38.000000 L 15.000000 36.000000 L 15.000000 36.000000 Z" fill="#231F20"/><path d=" M 19.000000 36.000000 L 17.000000 36.000000 L 17.000000 38.000000 L 19.000000 38.000000 L 19.000000 36.000000 L 19.000000 36.000000 Z" fill="#231F20"/><path d=" M 23.000000 36.000000 L 21.000000 36.000000 L 21.000000 38.000000 L 23.000000 38.000000 L 23.000000 36.000000 L 23.000000 36.000000 Z" fill="#231F20"/><path d=" M 15.000000 40.000000 L 13.000000 40.000000 L 13.000000 42.000000 L 15.000000 42.000000 L 15.000000 40.000000 L 15.000000 40.000000 Z" fill="#231F20"/><path d=" M 19.000000 40.000000 L 17.000000 40.000000 L 17.000000 42.000000 L 19.000000 42.000000 L 19.000000 40.000000 L 19.000000 40.000000 Z" fill="#231F20"/><path d=" M 23.000000 40.000000 L 21.000000 40.000000 L 21.000000 42.000000 L 23.000000 42.000000 L 23.000000 40.000000 L 23.000000 40.000000 Z" fill="#231F20"/><path d=" M 27.000000 32.000000 L 25.000000 32.000000 L 25.000000 34.000000 L 27.000000 34.000000 L 27.000000 32.000000 L 27.000000 32.000000 Z" fill="#231F20"/><path d=" M 27.000000 36.000000 L 25.000000 36.000000 L 25.000000 38.000000 L 27.000000 38.000000 L 27.000000 36.000000 L 27.000000 36.000000 Z" fill="#231F20"/><path d=" M 27.000000 40.000000 L 25.000000 40.000000 L 25.000000 42.000000 L 27.000000 42.000000 L 27.000000 40.000000 L 27.000000 40.000000 Z" fill="#231F20"/><path d=" M 31.000000 32.000000 L 29.000000 32.000000 L 29.000000 34.000000 L 31.000000 34.000000 L 31.000000 32.000000 L 31.000000 32.000000 Z" fill="#231F20"/><path d=" M 31.000000 36.000000 L 29.000000 36.000000 L 29.000000 38.000000 L 31.000000 38.000000 L 31.000000 36.000000 L 31.000000 36.000000 Z" fill="#231F20"/><path d=" M 31.000000 40.000000 L 29.000000 40.000000 L 29.000000 42.000000 L 31.000000 42.000000 L 31.000000 40.000000 L 31.000000 40.000000 Z" fill="#231F20"/><path d=" M 35.000000 32.000000 L 33.000000 32.000000 L 33.000000 34.000000 L 35.000000 34.000000 L 35.000000 32.000000 L 35.000000 32.000000 Z" fill="#231F20"/><path d=" M 35.000000 36.000000 L 33.000000 36.000000 L 33.000000 38.000000 L 35.000000 38.000000 L 35.000000 36.000000 L 35.000000 36.000000 Z" fill="#231F20"/><path d=" M 35.000000 40.000000 L 33.000000 40.000000 L 33.000000 42.000000 L 35.000000 42.000000 L 35.000000 40.000000 L 35.000000 40.000000 Z" fill="#231F20"/><path d=" M 42.000000 41.000000 C 42.000000 44.313709 39.313709 47.000000 36.000000 47.000000 L 12.000000 47.000000 C 8.686292 47.000000 6.000000 44.313709 6.000000 41.000000 L 6.000000 4.000000 C 6.000000 2.343146 7.343146 1.000000 9.000000 1.000000 L 39.000000 1.000000 C 40.656853 1.000000 42.000000 2.343146 42.000000 4.000000 Z" stroke="#231F20" stroke-width="2.000000" stroke-linecap="round" stroke-miterlimit="10.000000" fill="none"/></g></svg>