<svg version="1.1" viewBox="0.000000 0.000000 48.000000 48.000000" xmlns="http://www.w3.org/2000/svg" xmlns:xlink="http://www.w3.org/1999/xlink" overflow="hidden"><defs></defs><g id="icons"><path d=" M 37.830002 44.169998 C 35.942730 45.864689 33.532803 46.863239 31.000002 47.000000 L 11.000000 47.000000 C 8.790861 47.000000 7.000000 45.209141 7.000000 43.000000 L 7.000000 5.000000 C 7.000000 2.790861 8.790861 1.000000 11.000000 1.000000 L 37.000000 1.000000 C 39.209141 1.000000 41.000000 2.790861 41.000000 5.000000 L 41.000000 37.000000 C 40.863243 39.532799 39.864693 41.942730 38.169998 43.830002 Z" stroke="#231F20" stroke-width="2.000000" stroke-linecap="round" stroke-linejoin="round" fill="none"/><rect x="13.000000" y="7.000000" rx="2.000000" ry="2.000000" width="22.000000" height="16.000000" stroke="#231F20" stroke-width="2.000000" stroke-linecap="round" stroke-linejoin="round" fill="none"/><circle cx="36.000000" cy="30.000000" r="1.000000" stroke="#231F20" stroke-width="2.000000" stroke-linecap="round" stroke-linejoin="round" fill="none"/><circle cx="30.000000" cy="33.000000" r="1.000000" stroke="#231F20" stroke-width="2.000000" stroke-linecap="round" stroke-linejoin="round" fill="none"/><line x1="19.000000" y1="33.000000" x2="11.000000" y2="33.000000" stroke="#231F20" stroke-width="2.000000" stroke-linecap="round" stroke-linejoin="round" fill="none"/><line x1="15.000000" y1="29.000000" x2="15.000000" y2="37.000000" stroke="#231F20" stroke-width="2.000000" stroke-linecap="round" stroke-linejoin="round" fill="none"/><line x1="25.000000" y1="42.000000" x2="27.000000" y2="41.000000" stroke="#231F20" stroke-width="2.000000" stroke-linecap="round" stroke-linejoin="round" fill="none"/><line x1="19.000000" y1="42.000000" x2="21.000000" y2="41.000000" stroke="#231F20" stroke-width="2.000000" stroke-linecap="round" stroke-linejoin="round" fill="none"/></g></svg>