<svg version="1.1" viewBox="0.000000 0.000000 48.000000 48.000000" xmlns="http://www.w3.org/2000/svg" xmlns:xlink="http://www.w3.org/1999/xlink" overflow="hidden"><defs></defs><g id="icons"><path d=" M 41.000000 6.000000 C 39.895432 6.000000 39.000000 6.895431 39.000000 8.000000 C 39.000000 10.209139 37.209141 12.000000 35.000000 12.000000 C 32.790859 12.000000 31.000000 10.209139 31.000000 8.000000 C 31.000000 5.238576 28.761423 3.000000 26.000000 3.000000 C 23.238577 3.000000 21.000000 5.238576 21.000000 8.000000 L 21.000000 13.000000" stroke="#231F20" stroke-width="2.000000" stroke-linecap="round" stroke-linejoin="round" fill="none"/><path d=" M 13.000000 36.290001 C 9.537668 31.316896 10.749400 24.480225 15.710000 21.000000" stroke="#231F20" stroke-width="2.000000" stroke-linecap="round" stroke-linejoin="round" fill="none"/><path d=" M 27.000000 15.870000 L 27.000000 13.000000 L 17.000000 13.000000 L 17.000000 15.870000 C 9.189514 18.631424 5.096441 27.201651 7.857864 35.012135 C 10.619288 42.822620 19.189514 46.915695 27.000000 44.154270 C 34.810486 41.392845 38.903561 32.822620 36.142136 25.012135 C 34.631863 20.740438 31.271696 17.380272 27.000000 15.869999 Z" stroke="#231F20" stroke-width="2.000000" stroke-linecap="round" stroke-linejoin="round" fill="none"/></g></svg>