<svg version="1.1" viewBox="0.000000 0.000000 48.000000 48.000000" xmlns="http://www.w3.org/2000/svg" xmlns:xlink="http://www.w3.org/1999/xlink" overflow="hidden"><defs></defs><g id="icons"><path d=" M 17.000000 34.000000 C 17.000000 37.313709 14.313708 40.000000 11.000000 40.000000 C 7.686292 40.000000 5.000000 37.313709 5.000000 34.000000" stroke="#231F20" stroke-width="2.000000" stroke-linecap="round" stroke-linejoin="round" fill="none"/><path d=" M 34.619999 25.000000 L 39.000000 25.000000 C 43.419998 25.000000 47.000000 28.129999 47.000000 32.000000 L 29.580000 32.000000" stroke="#231F20" stroke-width="2.000000" stroke-linecap="round" stroke-linejoin="round" fill="none"/><path d=" M 23.000000 22.000000 C 23.000000 23.104570 22.104570 24.000000 21.000000 24.000000 L 7.000000 24.000000 L 3.000000 20.000000 L 3.000000 18.000000 L 23.000000 18.000000 Z" stroke="#231F20" stroke-width="2.000000" stroke-linecap="round" stroke-linejoin="round" fill="none"/><path d=" M 39.000000 19.000000 C 36.790859 19.000000 35.000000 17.209139 35.000000 15.000000 C 35.000000 12.790861 36.790859 11.000000 39.000000 11.000000 Z" stroke="#231F20" stroke-width="2.000000" stroke-linecap="round" stroke-linejoin="round" fill="none"/><path d=" M 29.000000 8.000000 L 32.000000 8.000000 C 33.656853 8.000000 35.000000 9.343145 35.000000 11.000000 L 35.000000 22.000000 C 35.000000 28.627417 29.627417 34.000000 23.000000 34.000000 L 1.000000 34.000000 C 1.000000 28.477152 5.477152 24.000000 11.000000 24.000000 L 16.000000 24.000000 C 21.111128 24.001871 25.398220 27.857666 25.940001 32.939999 L 25.940001 33.619999" stroke="#231F20" stroke-width="2.000000" stroke-linecap="round" stroke-linejoin="round" fill="none"/><path d=" M 33.349998 32.000000 C 32.234829 35.120426 33.860409 38.554054 36.980835 39.669228 C 40.101261 40.784397 43.534889 39.158817 44.650063 36.038391 C 44.883820 35.384304 45.002224 34.694595 45.000000 34.000000 C 45.001839 33.317940 44.883358 32.640900 44.650002 32.000000" stroke="#231F20" stroke-width="2.000000" stroke-linecap="round" stroke-linejoin="round" fill="none"/></g></svg>