<svg version="1.1" viewBox="0.000000 0.000000 48.000000 48.000000" xmlns="http://www.w3.org/2000/svg" xmlns:xlink="http://www.w3.org/1999/xlink" overflow="hidden"><defs></defs><g id="icons"><path d=" M 20.000000 32.000000 L 4.000000 32.000000 C 2.343146 32.000000 1.000000 30.656855 1.000000 29.000000 L 1.000000 7.000000 C 1.000000 5.343146 2.343146 4.000000 4.000000 4.000000 L 40.000000 4.000000 C 41.656853 4.000000 43.000000 5.343146 43.000000 7.000000 L 43.000000 18.000000" stroke="#231F20" stroke-width="2.000000" stroke-linecap="round" stroke-linejoin="round" fill="none"/><path d=" M 42.150002 4.940000 L 22.000000 21.000000 L 1.850000 4.900000" stroke="#231F20" stroke-width="2.000000" stroke-linecap="round" stroke-linejoin="round" fill="none"/><path d=" M 42.220001 31.610001 C 42.220001 35.812889 38.812889 39.220001 34.610001 39.220001 C 30.407114 39.220001 27.000000 35.812889 27.000000 31.610001 C 27.000000 27.407114 30.407112 24.000000 34.610001 24.000000 C 38.812889 24.000000 42.220001 27.407112 42.220001 31.610001 Z" stroke="#231F20" stroke-width="2.000000" stroke-miterlimit="10.000000" fill="none"/><line x1="40.000000" y1="37.000000" x2="47.000000" y2="44.000000" stroke="#231F20" stroke-width="2.000000" stroke-linecap="round" stroke-miterlimit="10.000000" fill="none"/></g></svg>