<svg version="1.1" viewBox="0.000000 0.000000 48.000000 48.000000" xmlns="http://www.w3.org/2000/svg" xmlns:xlink="http://www.w3.org/1999/xlink" overflow="hidden"><defs></defs><g id="icons"><path d=" M 34.000000 45.000000 L 27.000000 47.000000 L 29.000000 40.000000 L 42.000000 27.000000 L 47.000000 32.000000 L 34.000000 45.000000 Z" stroke="#231F20" stroke-width="2.000000" stroke-linecap="round" stroke-linejoin="round" fill="none"/><line x1="38.000000" y1="31.000000" x2="43.000000" y2="36.000000" stroke="#231F20" stroke-width="2.000000" stroke-linejoin="round" fill="none"/><line x1="29.000000" y1="40.000000" x2="34.000000" y2="45.000000" stroke="#231F20" stroke-width="2.000000" stroke-linecap="round" stroke-linejoin="round" fill="none"/><path d=" M 31.000000 31.040001 L 25.000000 29.000000 L 25.000000 23.160000" stroke="#231F20" stroke-width="2.000000" stroke-miterlimit="10.000000" fill="none"/><path d=" M 15.000000 23.530001 L 15.000000 29.000000 L 5.000000 32.580002 C 2.605091 33.426727 1.002902 35.689819 1.000000 38.230003 L 1.000000 43.000000 L 22.000000 43.000000" stroke="#231F20" stroke-width="2.000000" stroke-miterlimit="10.000000" fill="none"/><ellipse cx="19.750000" cy="13.000000" rx="10.000000" ry="12.000000" stroke="#231F20" stroke-width="2.000000" stroke-miterlimit="10.000000" fill="none"/><path d=" M 29.670000 11.920000 C 29.330000 11.920000 29.090000 11.920000 28.750000 12.000000 C 25.340000 12.650000 23.160000 11.420000 21.280001 8.140000 C 20.160000 10.300000 16.639999 12.000000 13.750000 12.000000 C 12.402252 12.020976 11.071054 11.701076 9.880000 11.070000" stroke="#231F20" stroke-width="2.000000" stroke-miterlimit="10.000000" fill="none"/></g></svg>