<svg version="1.1" viewBox="0.000000 0.000000 48.000000 48.000000" xmlns="http://www.w3.org/2000/svg" xmlns:xlink="http://www.w3.org/1999/xlink" overflow="hidden"><defs></defs><g id="icons"><circle cx="34.000000" cy="28.000000" r="1.000000" stroke="#231F20" stroke-width="2.000000" stroke-linecap="round" stroke-miterlimit="10.000000" fill="none"/><line x1="9.000000" y1="15.000000" x2="11.000000" y2="15.000000" stroke="#231F20" stroke-width="2.000000" stroke-linecap="round" stroke-miterlimit="10.000000" fill="none"/><line x1="15.000000" y1="15.000000" x2="17.000000" y2="15.000000" stroke="#231F20" stroke-width="2.000000" stroke-linecap="round" stroke-miterlimit="10.000000" fill="none"/><line x1="21.000000" y1="15.000000" x2="23.000000" y2="15.000000" stroke="#231F20" stroke-width="2.000000" stroke-linecap="round" stroke-miterlimit="10.000000" fill="none"/><line x1="27.000000" y1="15.000000" x2="29.000000" y2="15.000000" stroke="#231F20" stroke-width="2.000000" stroke-linecap="round" stroke-miterlimit="10.000000" fill="none"/><line x1="33.000000" y1="15.000000" x2="35.000000" y2="15.000000" stroke="#231F20" stroke-width="2.000000" stroke-linecap="round" stroke-miterlimit="10.000000" fill="none"/><line x1="9.000000" y1="41.000000" x2="11.000000" y2="41.000000" stroke="#231F20" stroke-width="2.000000" stroke-linecap="round" stroke-miterlimit="10.000000" fill="none"/><line x1="15.000000" y1="41.000000" x2="17.000000" y2="41.000000" stroke="#231F20" stroke-width="2.000000" stroke-linecap="round" stroke-miterlimit="10.000000" fill="none"/><line x1="21.000000" y1="41.000000" x2="23.000000" y2="41.000000" stroke="#231F20" stroke-width="2.000000" stroke-linecap="round" stroke-miterlimit="10.000000" fill="none"/><line x1="27.000000" y1="41.000000" x2="29.000000" y2="41.000000" stroke="#231F20" stroke-width="2.000000" stroke-linecap="round" stroke-miterlimit="10.000000" fill="none"/><line x1="33.000000" y1="41.000000" x2="35.000000" y2="41.000000" stroke="#231F20" stroke-width="2.000000" stroke-linecap="round" stroke-miterlimit="10.000000" fill="none"/><rect x="29.000000" y="23.000000" rx="4.000000" ry="4.000000" width="18.000000" height="10.000000" stroke="#231F20" stroke-width="2.000000" stroke-linecap="round" stroke-miterlimit="10.000000" fill="none"/><path d=" M 41.000000 23.000000 L 41.000000 17.000000 C 41.000000 13.686292 38.313709 11.000000 35.000000 11.000000 L 7.000000 11.000000" stroke="#231F20" stroke-width="2.000000" stroke-linecap="round" stroke-linejoin="round" fill="none"/><path d=" M 31.000000 7.000000 L 7.000000 7.000000 C 5.895431 7.000000 5.000000 7.895431 5.000000 9.000000 C 5.000000 10.104569 5.895431 11.000000 7.000000 11.000000" stroke="#231F20" stroke-width="2.000000" stroke-linecap="round" stroke-linejoin="round" fill="none"/><path d=" M 41.000000 33.000000 L 41.000000 39.000000 C 41.000000 42.313709 38.313709 45.000000 35.000000 45.000000 L 7.000000 45.000000 C 3.686291 45.000000 1.000000 42.313709 1.000000 39.000000 L 1.000000 9.000000 C 1.000000 5.686292 3.686291 3.000000 7.000000 3.000000 L 31.000000 3.000000 C 34.299999 3.000000 37.000000 4.800000 37.000000 7.000000 L 37.000000 11.000000" stroke="#231F20" stroke-width="2.000000" stroke-linecap="round" stroke-linejoin="round" fill="none"/></g></svg>