<svg version="1.1" viewBox="0.000000 0.000000 48.000000 48.000000" xmlns="http://www.w3.org/2000/svg" xmlns:xlink="http://www.w3.org/1999/xlink" overflow="hidden"><defs></defs><g id="icons"><path d=" M 9.250000 10.000000 C 11.390000 17.000000 17.850000 24.000000 25.500000 24.000000 C 33.150002 24.000000 39.619999 17.000000 41.750000 10.000000 Z" stroke="#231F20" stroke-width="2.000000" stroke-linecap="round" stroke-miterlimit="10.000000" fill="none"/><line x1="25.500000" y1="24.000000" x2="25.500000" y2="46.000000" stroke="#231F20" stroke-width="2.000000" stroke-linecap="round" stroke-miterlimit="10.000000" fill="none"/><line x1="17.500000" y1="46.000000" x2="33.500000" y2="46.000000" stroke="#231F20" stroke-width="2.000000" stroke-linecap="round" stroke-miterlimit="10.000000" fill="none"/><path d=" M 0.500000 2.000000 L 7.600000 2.000000 C 9.894853 2.000634 11.894646 3.563359 12.450000 5.790000 L 13.500000 10.000000" stroke="#231F20" stroke-width="2.000000" stroke-miterlimit="10.000000" fill="none"/><path d=" M 35.849998 10.000000 C 34.745430 6.875805 36.382664 3.447716 39.506859 2.343148 C 42.631054 1.238581 46.059143 2.875813 47.163712 6.000008 C 48.268280 9.124203 46.631046 12.552292 43.506851 13.656859 C 42.862331 13.884730 42.183613 14.000781 41.500000 14.000000 C 41.041779 14.003426 40.584915 13.949677 40.139999 13.840000" stroke="#231F20" stroke-width="2.000000" stroke-miterlimit="10.000000" fill="none"/></g></svg>