<svg version="1.1" viewBox="0.000000 0.000000 48.000000 48.000000" xmlns="http://www.w3.org/2000/svg" xmlns:xlink="http://www.w3.org/1999/xlink" overflow="hidden"><defs></defs><g id="icons"><path d=" M 15.500000 43.500000 L 15.500000 24.500000 C 15.500000 20.634007 18.634007 17.500000 22.500000 17.500000 C 26.365993 17.500000 29.500000 20.634007 29.500000 24.500000 L 29.500000 43.500000" stroke="#231F20" stroke-width="2.000000" stroke-linecap="round" stroke-linejoin="round" fill="none"/><path d=" M 34.849998 20.440001 C 36.066704 24.122965 35.575302 28.156845 33.509998 31.440001" stroke="#231F20" stroke-width="2.000000" stroke-linecap="round" stroke-linejoin="round" fill="none"/><path d=" M 11.470000 31.389999 C 7.664746 25.301638 9.515572 17.281277 15.603933 13.476022 C 17.663147 12.189004 20.041676 11.504474 22.469999 11.499999" stroke="#231F20" stroke-width="2.000000" stroke-linecap="round" stroke-linejoin="round" fill="none"/><path d=" M 32.500000 7.500000 L 32.500000 11.500000 L 34.500000 11.500000" stroke="#231F20" stroke-width="2.000000" stroke-linecap="round" stroke-linejoin="round" fill="none"/><path d=" M 25.500000 24.500000 C 25.500000 22.843145 24.156855 21.500000 22.500000 21.500000 C 20.843145 21.500000 19.500000 22.843145 19.500000 24.500000 L 19.500000 27.500000 L 25.500000 27.500000 Z" stroke="#231F20" stroke-width="2.000000" stroke-linecap="round" stroke-linejoin="round" fill="none"/><circle cx="32.500000" cy="10.500000" r="6.000000" stroke="#231F20" stroke-width="2.000000" stroke-linecap="round" stroke-linejoin="round" fill="none"/></g></svg>