<svg version="1.1" viewBox="0.000000 0.000000 48.000000 48.000000" xmlns="http://www.w3.org/2000/svg" xmlns:xlink="http://www.w3.org/1999/xlink" overflow="hidden"><defs></defs><g id="icons"><path d=" M 30.000000 21.000000 C 28.895435 21.003288 27.997343 20.110527 27.994055 19.005962 C 27.993284 18.746901 28.042850 18.490156 28.139999 18.250000 C 28.731937 16.760567 29.037289 15.172747 29.039999 13.570000 L 29.040001 6.000000 C 29.040001 3.227530 26.792471 0.980000 24.020000 0.980000 C 21.247532 0.980000 19.000000 3.227530 19.000000 6.000000 L 19.000000 13.570000 C 19.002712 15.172747 19.308062 16.760567 19.900000 18.250000 C 20.314508 19.273844 19.820543 20.439859 18.796698 20.854366 C 18.543842 20.956736 18.272718 21.006296 17.999998 21.000000 L 8.000000 21.000000 C 6.343146 21.000000 5.000000 22.343145 5.000000 24.000000 L 5.000000 31.000000 L 43.000000 31.000000 L 43.000000 24.000000 C 43.000000 22.343145 41.656853 21.000000 40.000000 21.000000 Z" stroke="#202020" stroke-width="2.000000" stroke-linecap="round" stroke-miterlimit="10.000000" fill="none"/><path d=" M 41.020000 46.980000 L 16.020000 47.000000 L 16.010000 39.000000 L 12.020000 47.000000 L 7.020000 47.009998 L 7.000000 31.010000 L 41.000000 30.980000 L 41.020000 46.980000 Z" stroke="#202020" stroke-width="2.000000" stroke-linecap="round" stroke-linejoin="round" fill="none"/><line x1="37.010000" y1="36.980000" x2="37.020000" y2="46.980000" stroke="#202020" stroke-width="2.000000" stroke-linecap="round" stroke-miterlimit="10.000000" fill="none"/><line x1="33.010000" y1="38.980000" x2="33.020000" y2="46.980000" stroke="#202020" stroke-width="2.000000" stroke-linecap="round" stroke-miterlimit="10.000000" fill="none"/><line x1="29.010000" y1="41.990000" x2="29.020000" y2="46.990000" stroke="#202020" stroke-width="2.000000" stroke-linecap="round" stroke-miterlimit="10.000000" fill="none"/><circle cx="23.980000" cy="5.990000" r="1.000000" stroke="#202020" stroke-width="2.000000" stroke-linecap="round" stroke-miterlimit="10.000000" fill="none"/></g></svg>