<svg version="1.1" viewBox="0.000000 0.000000 48.000000 48.000000" xmlns="http://www.w3.org/2000/svg" xmlns:xlink="http://www.w3.org/1999/xlink" overflow="hidden"><defs></defs><g id="icons"><rect x="1.000000" y="27.000000" width="46.000000" height="6.000000" stroke="#231F20" stroke-width="2.000000" stroke-linecap="round" stroke-linejoin="round" fill="none"/><line x1="5.000000" y1="33.000000" x2="5.000000" y2="41.000000" stroke="#231F20" stroke-width="2.000000" stroke-linecap="round" stroke-linejoin="round" fill="none"/><line x1="43.000000" y1="33.000000" x2="43.000000" y2="41.000000" stroke="#231F20" stroke-width="2.000000" stroke-linecap="round" stroke-linejoin="round" fill="none"/><path d=" M 45.000000 20.000000 C 45.000000 18.343145 43.656853 17.000000 42.000000 17.000000 L 6.000000 17.000000 C 4.343146 17.000000 3.000000 18.343145 3.000000 20.000000 C 3.000000 21.656855 4.343146 23.000000 6.000000 23.000000 L 42.000000 23.000000 C 43.656853 23.000000 45.000000 21.656855 45.000000 20.000000 Z" stroke="#231F20" stroke-width="2.000000" stroke-linecap="round" stroke-linejoin="round" fill="none"/><path d=" M 45.000000 10.000000 C 45.000000 8.343145 43.656853 7.000000 42.000000 7.000000 L 6.000000 7.000000 C 4.343146 7.000000 3.000000 8.343145 3.000000 10.000000 C 3.000000 11.656855 4.343146 13.000000 6.000000 13.000000 L 42.000000 13.000000 C 43.656853 13.000000 45.000000 11.656855 45.000000 10.000000 Z" stroke="#231F20" stroke-width="2.000000" stroke-linecap="round" stroke-linejoin="round" fill="none"/><line x1="9.000000" y1="23.000000" x2="9.000000" y2="27.000000" stroke="#231F20" stroke-width="2.000000" stroke-linecap="round" stroke-linejoin="round" fill="none"/><line x1="39.000000" y1="23.000000" x2="39.000000" y2="27.000000" stroke="#231F20" stroke-width="2.000000" stroke-linecap="round" stroke-linejoin="round" fill="none"/><line x1="9.000000" y1="13.000000" x2="9.000000" y2="17.000000" stroke="#231F20" stroke-width="2.000000" stroke-linecap="round" stroke-linejoin="round" fill="none"/><line x1="39.000000" y1="13.000000" x2="39.000000" y2="17.000000" stroke="#231F20" stroke-width="2.000000" stroke-linecap="round" stroke-linejoin="round" fill="none"/><line x1="5.000000" y1="39.000000" x2="43.000000" y2="39.000000" stroke="#231F20" stroke-width="2.000000" stroke-linecap="round" stroke-linejoin="round" fill="none"/></g></svg>