<svg version="1.1" viewBox="0.000000 0.000000 48.000000 48.000000" xmlns="http://www.w3.org/2000/svg" xmlns:xlink="http://www.w3.org/1999/xlink" overflow="hidden"><defs></defs><g id="icons"><path d=" M 20.000000 30.000000 C 20.000000 30.000000 17.000000 29.000000 17.000000 24.000000 C 15.350000 24.000000 15.350000 20.000000 17.000000 20.000000 C 17.000000 19.330000 14.000000 12.000000 19.000000 13.000000 C 20.000000 9.000000 31.000000 9.000000 32.000000 13.000000 C 32.689999 15.780000 31.000000 19.510000 31.000000 20.000000 C 32.650002 20.000000 32.650002 24.000000 31.000000 24.000000 C 31.000000 29.000000 28.000000 30.000000 28.000000 30.000000 L 28.000000 35.000000 C 33.000000 36.860001 37.860001 38.400002 40.369999 40.150002 C 49.298420 31.114622 49.211712 16.552086 40.176334 7.623666 C 31.140955 -1.304754 16.578419 -1.218048 7.649999 7.817331 C -1.203334 16.776722 -1.203334 31.190609 7.649999 40.150002 C 10.310000 38.330002 15.550000 36.680000 20.000000 35.000000 Z" stroke="#231F20" stroke-width="2.000000" stroke-linejoin="round" fill="none"/><path d=" M 7.650000 40.169998 C 16.578421 49.205376 31.140957 49.292084 40.176334 40.363663 C 40.241272 40.299492 40.305828 40.234936 40.369999 40.169998" stroke="#231F20" stroke-width="2.000000" stroke-linejoin="round" fill="none"/></g></svg>