<svg version="1.1" viewBox="0.000000 0.000000 48.000000 48.000000" xmlns="http://www.w3.org/2000/svg" xmlns:xlink="http://www.w3.org/1999/xlink" overflow="hidden"><defs></defs><g id="icons"><path d=" M 29.000000 11.500000 L 47.000000 11.500000 L 47.000000 45.500000 L 1.000000 45.500000 L 1.000000 11.500000 L 19.000000 11.500000" stroke="#231F20" stroke-width="2.000000" stroke-linejoin="round" fill="none"/><circle cx="14.000000" cy="29.500000" r="4.000000" stroke="#231F20" stroke-width="2.000000" stroke-miterlimit="10.000000" fill="none"/><path d=" M 14.000000 33.500000 C 9.000000 33.500000 7.000000 36.500000 7.000000 39.500000 L 21.000000 39.500000 C 21.000000 36.500000 19.000000 33.500000 14.000000 33.500000 Z" stroke="#231F20" stroke-width="2.000000" stroke-miterlimit="10.000000" fill="none"/><path d=" M 29.000000 15.500000 L 19.000000 15.500000 L 19.000000 7.500000 C 19.000000 4.738576 21.238577 2.500000 24.000000 2.500000 C 26.761423 2.500000 29.000000 4.738576 29.000000 7.500000 Z" stroke="#231F20" stroke-width="2.000000" stroke-linejoin="round" fill="none"/><path d=" M 24.000000 5.500000 C 22.895430 5.500000 22.000000 6.395431 22.000000 7.500000 C 22.000000 8.604569 22.895430 9.500000 24.000000 9.500000 C 25.104570 9.500000 26.000000 8.604569 26.000000 7.500000 C 26.000000 6.395431 25.104570 5.500000 24.000000 5.500000 Z" fill="#231F20"/><line x1="1.000000" y1="19.500000" x2="47.000000" y2="19.500000" stroke="#231F20" stroke-width="2.000000" stroke-miterlimit="10.000000" fill="none"/><line x1="26.000000" y1="37.500000" x2="42.000000" y2="37.500000" stroke="#231F20" stroke-width="2.000000" stroke-miterlimit="10.000000" fill="none"/><line x1="26.000000" y1="33.500000" x2="42.000000" y2="33.500000" stroke="#231F20" stroke-width="2.000000" stroke-miterlimit="10.000000" fill="none"/><line x1="26.000000" y1="29.500000" x2="42.000000" y2="29.500000" stroke="#231F20" stroke-width="2.000000" stroke-miterlimit="10.000000" fill="none"/><line x1="26.000000" y1="25.500000" x2="34.000000" y2="25.500000" stroke="#231F20" stroke-width="2.000000" stroke-miterlimit="10.000000" fill="none"/></g></svg>