<svg version="1.1" viewBox="0.000000 0.000000 48.000000 48.000000" xmlns="http://www.w3.org/2000/svg" xmlns:xlink="http://www.w3.org/1999/xlink" overflow="hidden"><defs></defs><g id="icons"><line x1="20.000000" y1="33.000000" x2="20.000000" y2="46.000000" stroke="#231F20" stroke-width="2.000000" stroke-linecap="round" stroke-miterlimit="10.000000" fill="none"/><line x1="8.000000" y1="46.000000" x2="20.000000" y2="34.000000" stroke="#231F20" stroke-width="2.000000" stroke-linecap="round" stroke-miterlimit="10.000000" fill="none"/><line x1="32.000000" y1="46.000000" x2="20.000000" y2="34.000000" stroke="#231F20" stroke-width="2.000000" stroke-linecap="round" stroke-miterlimit="10.000000" fill="none"/><path d=" M 22.000000 26.000000 L 22.000000 32.000000 C 22.000000 32.552284 21.552284 33.000000 21.000000 33.000000 L 19.000000 33.000000 C 18.447716 33.000000 18.000000 32.552284 18.000000 32.000000 L 18.000000 25.000000" stroke="#231F20" stroke-width="2.000000" stroke-linecap="round" stroke-linejoin="round" fill="none"/><path d=" M 7.000000 10.080000 L 7.000000 18.900000 L 23.000000 21.840000 C 23.000000 21.840000 25.139999 23.559999 27.000000 24.780001 C 30.000000 26.730000 38.000000 25.780001 38.000000 25.780001 C 38.000000 25.780001 41.000000 23.780001 41.000000 14.020000 C 41.000000 4.260000 38.000000 2.240000 38.000000 2.240000 C 38.000000 2.240000 30.000000 1.240000 27.000000 3.240000 C 25.139999 4.460000 23.000000 6.180000 23.000000 6.180000 Z" stroke="#231F20" stroke-width="2.000000" stroke-linecap="round" stroke-miterlimit="10.000000" fill="none"/></g></svg>