<svg version="1.1" viewBox="0.000000 0.000000 48.000000 48.000000" xmlns="http://www.w3.org/2000/svg" xmlns:xlink="http://www.w3.org/1999/xlink" overflow="hidden"><defs></defs><g id="icons"><path d=" M 23.000000 34.000000 C 23.000000 36.000000 21.000000 36.000000 19.000000 36.000000 C 16.988304 36.197441 15.197443 34.726700 15.000000 32.715004 C 14.976665 32.477242 14.976665 32.237762 15.000000 32.000000 C 14.802557 29.988304 16.273300 28.197443 18.284996 28.000000 C 18.522758 27.976664 18.762236 27.976664 19.000000 28.000000 L 23.000000 28.000000 Z" stroke="#231F20" stroke-width="2.000000" stroke-linecap="round" stroke-linejoin="round" fill="none"/><path d=" M 23.000000 30.000000 L 23.000000 18.000000 L 35.000000 10.000000 L 35.000000 25.000000" stroke="#231F20" stroke-width="2.000000" stroke-linecap="round" stroke-linejoin="round" fill="none"/><rect x="1.000000" y="4.000000" width="46.000000" height="40.000000" stroke="#231F20" stroke-width="2.000000" stroke-linecap="round" stroke-linejoin="round" fill="none"/><line x1="7.000000" y1="4.000000" x2="7.000000" y2="44.000000" stroke="#231F20" stroke-width="2.000000" stroke-linecap="round" stroke-linejoin="round" fill="none"/><path d=" M 35.000000 30.000000 C 35.000000 32.000000 33.000000 32.000000 31.000000 32.000000 C 28.988304 32.197441 27.197443 30.726700 27.000000 28.715004 C 26.976664 28.477242 26.976664 28.237764 27.000000 28.000000 C 26.802557 25.988304 28.273300 24.197443 30.284996 24.000000 C 30.522758 23.976664 30.762236 23.976664 31.000000 24.000000 L 35.000000 24.000000 Z" stroke="#231F20" stroke-width="2.000000" stroke-linecap="round" stroke-linejoin="round" fill="none"/></g></svg>