<svg version="1.1" viewBox="0.000000 0.000000 48.000000 48.000000" xmlns="http://www.w3.org/2000/svg" xmlns:xlink="http://www.w3.org/1999/xlink" overflow="hidden"><defs></defs><g id="icons"><path d=" M 11.000000 35.000000 L 11.000000 7.000000 C 11.000000 3.686291 13.686292 1.000000 17.000000 1.000000 L 41.000000 1.000000" stroke="#000000" stroke-width="2.000000" stroke-linecap="round" stroke-linejoin="round" fill="none"/><line x1="18.000000" y1="11.000000" x2="29.000000" y2="11.000000" stroke="#000000" stroke-width="2.000000" stroke-linecap="round" stroke-linejoin="round" fill="none"/><line x1="18.000000" y1="17.000000" x2="29.000000" y2="17.000000" stroke="#000000" stroke-width="2.000000" stroke-linecap="round" stroke-linejoin="round" fill="none"/><line x1="18.000000" y1="23.000000" x2="29.000000" y2="23.000000" stroke="#000000" stroke-width="2.000000" stroke-linecap="round" stroke-linejoin="round" fill="none"/><line x1="18.000000" y1="29.000000" x2="29.000000" y2="29.000000" stroke="#000000" stroke-width="2.000000" stroke-linecap="round" stroke-linejoin="round" fill="none"/><path d=" M 31.000000 47.000000 L 7.000000 47.000000 C 3.686291 47.000000 1.000000 44.313709 1.000000 41.000000 C 1.000000 37.686291 3.686291 35.000000 7.000000 35.000000 L 31.000000 35.000000 C 27.686291 35.000000 25.000000 37.686291 25.000000 41.000000 C 25.000000 44.313709 27.686291 47.000000 31.000000 47.000000 C 34.313709 47.000000 37.000000 44.313709 37.000000 41.000000 L 37.000000 6.000000 C 37.000000 3.238576 39.238575 1.000000 42.000000 1.000000 C 44.759998 1.000000 47.000000 3.240000 47.000000 7.000000 L 37.000000 7.000000" stroke="#000000" stroke-width="2.000000" stroke-linecap="round" stroke-linejoin="round" fill="none"/></g></svg>