<svg version="1.1" viewBox="0.000000 0.000000 48.000000 48.000000" xmlns="http://www.w3.org/2000/svg" xmlns:xlink="http://www.w3.org/1999/xlink" overflow="hidden"><defs></defs><g id="icons"><path d=" M 21.059999 16.000000 C 21.059999 14.343145 22.403145 13.000000 24.059999 13.000000 C 25.716854 13.000000 27.059999 14.343145 27.059999 16.000000 L 27.059999 28.000000 L 36.000000 31.000000 C 38.000000 31.639999 38.419998 34.000000 38.000000 36.000000 L 36.000000 47.000000 L 20.000000 47.000000 L 12.000000 35.000000 C 11.000000 33.610001 11.000000 31.000000 13.000000 31.000000 C 15.000000 31.000000 17.100000 31.840000 21.100000 38.000000 Z" stroke="#231F20" stroke-width="2.000000" stroke-linecap="round" stroke-linejoin="round" fill="none"/><path d=" M 14.000000 24.900000 C 8.530179 19.435143 8.526155 10.570833 13.991013 5.101012 C 19.455870 -0.368810 28.320179 -0.372834 33.790001 5.092024 C 39.259823 10.556882 39.263847 19.421190 33.798988 24.891012 C 33.795994 24.894009 33.792999 24.897005 33.790001 24.900000" stroke="#231F20" stroke-width="2.000000" stroke-linecap="round" stroke-linejoin="round" fill="none"/></g></svg>