<svg version="1.1" viewBox="0.000000 0.000000 48.000000 48.000000" xmlns="http://www.w3.org/2000/svg" xmlns:xlink="http://www.w3.org/1999/xlink" overflow="hidden"><defs></defs><g id="icons"><path d=" M 38.000000 16.000000 C 38.000000 7.000000 32.000000 1.000000 24.000000 1.000000 C 16.000000 1.000000 10.000000 7.000000 10.000000 16.000000 C 10.000000 24.000000 20.570000 30.510000 23.000000 32.000000 L 20.000000 37.000000 L 28.000000 37.000000 L 25.000000 32.000000 C 27.430000 30.510000 38.000000 24.000000 38.000000 16.000000 Z" stroke="#231F20" stroke-width="2.000000" stroke-linecap="round" stroke-linejoin="round" fill="none"/><path d=" M 24.000000 37.000000 L 24.000000 43.000000 C 24.000000 44.104568 24.895430 45.000000 26.000000 45.000000 C 27.104570 45.000000 28.000000 44.104568 28.000000 43.000000 C 28.000000 41.895432 28.895430 41.000000 30.000000 41.000000 C 31.104570 41.000000 32.000000 41.895432 32.000000 43.000000 L 32.000000 47.000000" stroke="#231F20" stroke-width="2.000000" stroke-linecap="round" stroke-linejoin="round" fill="none"/><path d=" M 14.000000 15.000000 C 14.000000 9.477153 18.477152 5.000000 24.000000 5.000000" stroke="#231F20" stroke-width="2.000000" stroke-linecap="round" stroke-linejoin="round" fill="none"/></g></svg>