<svg version="1.1" viewBox="0.000000 0.000000 48.000000 48.000000" xmlns="http://www.w3.org/2000/svg" xmlns:xlink="http://www.w3.org/1999/xlink" overflow="hidden"><defs></defs><g id="icons"><line x1="47.000000" y1="47.000000" x2="36.000000" y2="36.000000" stroke="#231F20" stroke-width="2.000000" stroke-linecap="round" stroke-linejoin="round" fill="none"/><path d=" M 33.000000 43.000000 L 36.000000 36.000000 L 43.000000 33.000000 L 26.000000 26.000000 L 33.000000 43.000000 Z" stroke="#231F20" stroke-width="2.000000" stroke-linecap="round" stroke-linejoin="round" fill="none"/><line x1="1.000000" y1="7.000000" x2="1.000000" y2="11.000000" stroke="#231F20" stroke-width="2.000000" stroke-linecap="round" stroke-linejoin="round" fill="none"/><line x1="1.000000" y1="15.000000" x2="1.000000" y2="19.000000" stroke="#231F20" stroke-width="2.000000" stroke-linecap="round" stroke-linejoin="round" fill="none"/><line x1="1.000000" y1="23.000000" x2="1.000000" y2="27.000000" stroke="#231F20" stroke-width="2.000000" stroke-linecap="round" stroke-linejoin="round" fill="none"/><line x1="33.000000" y1="7.000000" x2="33.000000" y2="11.000000" stroke="#231F20" stroke-width="2.000000" stroke-linecap="round" stroke-linejoin="round" fill="none"/><line x1="33.000000" y1="15.000000" x2="33.000000" y2="19.000000" stroke="#231F20" stroke-width="2.000000" stroke-linecap="round" stroke-linejoin="round" fill="none"/><path d=" M 1.000000 31.000000 L 1.000000 33.000000 L 3.000000 33.000000" stroke="#231F20" stroke-width="2.000000" stroke-linecap="round" stroke-linejoin="round" fill="none"/><path d=" M 3.000000 1.000000 L 1.000000 1.000000 L 1.000000 3.000000" stroke="#231F20" stroke-width="2.000000" stroke-linecap="round" stroke-linejoin="round" fill="none"/><line x1="7.000000" y1="1.000000" x2="11.000000" y2="1.000000" stroke="#231F20" stroke-width="2.000000" stroke-linecap="round" stroke-linejoin="round" fill="none"/><line x1="15.000000" y1="1.000000" x2="19.000000" y2="1.000000" stroke="#231F20" stroke-width="2.000000" stroke-linecap="round" stroke-linejoin="round" fill="none"/><line x1="7.000000" y1="33.000000" x2="11.000000" y2="33.000000" stroke="#231F20" stroke-width="2.000000" stroke-linecap="round" stroke-linejoin="round" fill="none"/><line x1="15.000000" y1="33.000000" x2="19.000000" y2="33.000000" stroke="#231F20" stroke-width="2.000000" stroke-linecap="round" stroke-linejoin="round" fill="none"/><line x1="23.000000" y1="1.000000" x2="27.000000" y2="1.000000" stroke="#231F20" stroke-width="2.000000" stroke-linecap="round" stroke-linejoin="round" fill="none"/><path d=" M 31.000000 1.000000 L 33.000000 1.000000 L 33.000000 3.000000" stroke="#231F20" stroke-width="2.000000" stroke-linecap="round" stroke-linejoin="round" fill="none"/></g></svg>