<svg version="1.1" viewBox="0.000000 0.000000 48.000000 48.000000" xmlns="http://www.w3.org/2000/svg" xmlns:xlink="http://www.w3.org/1999/xlink" overflow="hidden"><defs></defs><g id="icons"><path d=" M 43.650002 28.000000 L 44.799999 25.000000 C 45.660000 22.549999 50.130001 13.470000 40.430000 7.000000 C 38.691910 5.905112 37.578152 4.048852 37.430000 2.000000" stroke="#231F20" stroke-width="2.000000" stroke-linecap="round" stroke-linejoin="round" fill="none"/><path d=" M 37.430000 41.000000 C 37.321251 44.267601 34.697601 46.891251 31.430000 47.000000 C 28.116291 47.000000 25.430000 44.313709 25.430000 41.000000 C 25.430000 37.686291 28.116291 35.000000 31.430000 35.000000 L 37.430000 35.000000 Z" stroke="#231F20" stroke-width="2.000000" stroke-linecap="round" stroke-linejoin="round" fill="none"/><line x1="37.430000" y1="37.000000" x2="37.430000" y2="1.000000" stroke="#231F20" stroke-width="2.000000" stroke-linecap="round" stroke-linejoin="round" fill="none"/><line x1="1.430000" y1="7.000000" x2="25.430000" y2="7.000000" stroke="#231F20" stroke-width="2.000000" stroke-linecap="round" stroke-linejoin="round" fill="none"/><line x1="1.430000" y1="13.000000" x2="25.430000" y2="13.000000" stroke="#231F20" stroke-width="2.000000" stroke-linecap="round" stroke-linejoin="round" fill="none"/><line x1="1.430000" y1="19.000000" x2="25.430000" y2="19.000000" stroke="#231F20" stroke-width="2.000000" stroke-linecap="round" stroke-linejoin="round" fill="none"/><line x1="1.430000" y1="25.000000" x2="25.430000" y2="25.000000" stroke="#231F20" stroke-width="2.000000" stroke-linecap="round" stroke-linejoin="round" fill="none"/><line x1="1.430000" y1="31.000000" x2="21.430000" y2="31.000000" stroke="#231F20" stroke-width="2.000000" stroke-linecap="round" stroke-linejoin="round" fill="none"/><line x1="1.430000" y1="37.000000" x2="15.430000" y2="37.000000" stroke="#231F20" stroke-width="2.000000" stroke-linecap="round" stroke-linejoin="round" fill="none"/></g></svg>