<svg version="1.1" viewBox="0.000000 0.000000 48.000000 48.000000" xmlns="http://www.w3.org/2000/svg" xmlns:xlink="http://www.w3.org/1999/xlink" overflow="hidden"><defs></defs><g id="icons"><path d=" M 10.000000 4.000000 L 6.000000 4.000000 L 6.000000 8.000000 L 10.000000 8.000000 L 10.000000 4.000000 L 10.000000 4.000000 Z" fill="#231F20"/><path d=" M 18.000000 4.000000 L 14.000000 4.000000 L 14.000000 8.000000 L 18.000000 8.000000 L 18.000000 4.000000 L 18.000000 4.000000 Z" fill="#231F20"/><path d=" M 34.000000 4.000000 L 30.000000 4.000000 L 30.000000 8.000000 L 34.000000 8.000000 L 34.000000 4.000000 L 34.000000 4.000000 Z" fill="#231F20"/><path d=" M 26.000000 4.000000 L 22.000000 4.000000 L 22.000000 8.000000 L 26.000000 8.000000 L 26.000000 4.000000 L 26.000000 4.000000 Z" fill="#231F20"/><line x1="32.000000" y1="4.000000" x2="32.000000" y2="1.000000" stroke="#231F20" stroke-width="2.000000" stroke-linecap="round" stroke-miterlimit="10.000000" fill="none"/><line x1="24.000000" y1="4.000000" x2="24.000000" y2="1.000000" stroke="#231F20" stroke-width="2.000000" stroke-linecap="round" stroke-miterlimit="10.000000" fill="none"/><line x1="16.000000" y1="4.000000" x2="16.000000" y2="1.000000" stroke="#231F20" stroke-width="2.000000" stroke-linecap="round" stroke-miterlimit="10.000000" fill="none"/><line x1="8.000000" y1="4.000000" x2="8.000000" y2="1.000000" stroke="#231F20" stroke-width="2.000000" stroke-linecap="round" stroke-miterlimit="10.000000" fill="none"/><path d=" M 19.000000 41.000000 L 1.000000 41.000000 L 1.000000 1.000000 L 39.000000 1.000000 L 39.000000 20.000000" stroke="#231F20" stroke-width="2.000000" stroke-linecap="round" stroke-linejoin="round" fill="none"/><path d=" M 36.020000 25.000000 L 40.000000 33.000000 L 47.000000 33.000000 L 41.000000 38.000000 L 44.000000 47.000000 L 36.000000 41.509998 L 28.000000 47.000000 L 31.000000 38.000000 L 25.000000 33.000000 L 32.000000 33.000000 L 36.020000 25.000000 Z" stroke="#231F20" stroke-width="2.000000" stroke-linejoin="round" fill="none"/></g></svg>