<svg version="1.1" viewBox="0.000000 0.000000 48.000000 48.000000" xmlns="http://www.w3.org/2000/svg" xmlns:xlink="http://www.w3.org/1999/xlink" overflow="hidden"><defs></defs><g id="icons"><line x1="32.000000" y1="4.000000" x2="32.000000" y2="1.000000" stroke="#231F20" stroke-width="2.000000" stroke-linecap="round" stroke-miterlimit="10.000000" fill="none"/><line x1="24.000000" y1="4.000000" x2="24.000000" y2="1.000000" stroke="#231F20" stroke-width="2.000000" stroke-linecap="round" stroke-miterlimit="10.000000" fill="none"/><line x1="16.000000" y1="4.000000" x2="16.000000" y2="1.000000" stroke="#231F20" stroke-width="2.000000" stroke-linecap="round" stroke-miterlimit="10.000000" fill="none"/><line x1="8.000000" y1="4.000000" x2="8.000000" y2="1.000000" stroke="#231F20" stroke-width="2.000000" stroke-linecap="round" stroke-miterlimit="10.000000" fill="none"/><path d=" M 10.000000 4.000000 L 6.000000 4.000000 L 6.000000 8.000000 L 10.000000 8.000000 L 10.000000 4.000000 L 10.000000 4.000000 Z" fill="#231F20"/><path d=" M 18.000000 4.000000 L 14.000000 4.000000 L 14.000000 8.000000 L 18.000000 8.000000 L 18.000000 4.000000 L 18.000000 4.000000 Z" fill="#231F20"/><path d=" M 34.000000 4.000000 L 30.000000 4.000000 L 30.000000 8.000000 L 34.000000 8.000000 L 34.000000 4.000000 L 34.000000 4.000000 Z" fill="#231F20"/><path d=" M 26.000000 4.000000 L 22.000000 4.000000 L 22.000000 8.000000 L 26.000000 8.000000 L 26.000000 4.000000 L 26.000000 4.000000 Z" fill="#231F20"/><path d=" M 19.000000 41.000000 L 1.000000 41.000000 L 1.000000 1.000000 L 39.000000 1.000000 L 39.000000 20.000000" stroke="#231F20" stroke-width="2.000000" stroke-linecap="round" stroke-linejoin="round" fill="none"/><path d=" M 46.000000 29.000000 L 46.000000 34.000000 L 41.000000 34.000000" stroke="#231F20" stroke-width="2.000000" stroke-linecap="round" stroke-miterlimit="10.000000" fill="none"/><path d=" M 29.000000 38.000000 C 29.002510 33.029438 33.033981 29.002035 38.004543 29.004547 C 41.420055 29.006271 44.540268 30.941217 46.059998 34.000000" stroke="#231F20" stroke-width="2.000000" stroke-linecap="round" stroke-miterlimit="10.000000" fill="none"/><path d=" M 30.000000 46.000000 L 30.000000 42.000000 L 34.000000 42.000000" stroke="#231F20" stroke-width="2.000000" stroke-linecap="round" stroke-miterlimit="10.000000" fill="none"/><path d=" M 47.000000 38.000000 C 46.997490 42.970562 42.966019 46.997963 37.995457 46.995453 C 34.579945 46.993729 31.459732 45.058781 29.940001 42.000000" stroke="#231F20" stroke-width="2.000000" stroke-linecap="round" stroke-miterlimit="10.000000" fill="none"/></g></svg>