<svg version="1.1" viewBox="0.000000 0.000000 48.000000 48.000000" xmlns="http://www.w3.org/2000/svg" xmlns:xlink="http://www.w3.org/1999/xlink" overflow="hidden"><defs></defs><g id="icons"><rect x="5.000000" y="19.000000" width="38.000000" height="22.000000" stroke="#231F20" stroke-width="2.000000" stroke-linecap="round" stroke-linejoin="round" fill="none"/><path d=" M 9.000000 37.000000 L 9.000000 23.000000 L 20.000000 23.000000 L 20.000000 29.000000 L 28.000000 29.000000 L 28.000000 23.000000 L 39.000000 23.000000 L 39.000000 37.000000 L 9.000000 37.000000 Z" stroke="#231F20" stroke-width="2.000000" stroke-linecap="round" stroke-linejoin="round" fill="none"/><line x1="24.000000" y1="23.000000" x2="24.000000" y2="25.000000" stroke="#231F20" stroke-width="2.000000" stroke-linecap="round" stroke-linejoin="round" fill="none"/><path d=" M 43.000000 15.000000 C 43.000000 10.581722 39.418278 7.000000 35.000000 7.000000 L 13.000000 7.000000 C 8.581722 7.000000 5.000000 10.581722 5.000000 15.000000 L 5.000000 19.000000 L 43.000000 19.000000 L 43.000000 15.000000 Z" stroke="#231F20" stroke-width="2.000000" stroke-linecap="round" stroke-linejoin="round" fill="none"/><path d=" M 19.000000 7.000000 C 13.000000 7.000000 13.000000 15.000000 13.000000 15.000000 L 13.000000 19.000000" stroke="#231F20" stroke-width="2.000000" stroke-linecap="round" stroke-linejoin="round" fill="none"/><path d=" M 29.000000 7.000000 C 35.000000 7.000000 35.000000 15.000000 35.000000 15.000000 L 35.000000 19.000000" stroke="#231F20" stroke-width="2.000000" stroke-linecap="round" stroke-linejoin="round" fill="none"/></g></svg>