<svg version="1.1" viewBox="0.000000 0.000000 48.000000 48.000000" xmlns="http://www.w3.org/2000/svg" xmlns:xlink="http://www.w3.org/1999/xlink" overflow="hidden"><defs></defs><g id="icons"><path d=" M 24.000000 45.000000 C 27.000000 45.000000 25.000000 47.000000 31.000000 47.000000 C 37.000000 47.000000 43.000000 35.000000 43.000000 27.000000 C 43.000000 19.000000 38.000000 13.000000 32.000000 13.000000 C 26.000000 13.000000 26.000000 15.000000 24.000000 15.000000 C 22.000000 15.000000 22.000000 13.000000 16.000000 13.000000 C 10.000000 13.000000 5.000000 19.000000 5.000000 27.000000 C 5.000000 35.000000 11.000000 47.000000 17.000000 47.000000 C 23.000000 47.000000 21.000000 45.000000 24.000000 45.000000 Z" stroke="#231F20" stroke-width="2.000000" stroke-miterlimit="10.000000" fill="none"/><path d=" M 24.000000 15.000000 L 24.000000 11.000000 C 24.000000 8.790861 22.209139 7.000000 20.000000 7.000000 L 16.000000 7.000000" stroke="#231F20" stroke-width="2.000000" stroke-linecap="round" stroke-linejoin="round" fill="none"/><path d=" M 28.000000 10.000000 C 32.970562 10.000000 37.000000 5.970563 37.000000 1.000000 C 32.029438 1.000000 28.000000 5.029437 28.000000 10.000000 Z" stroke="#231F20" stroke-width="2.000000" stroke-linejoin="round" fill="none"/></g></svg>