<svg version="1.1" viewBox="0.000000 0.000000 48.000000 48.000000" xmlns="http://www.w3.org/2000/svg" xmlns:xlink="http://www.w3.org/1999/xlink" overflow="hidden"><defs></defs><g id="icons"><path d=" M 40.000000 20.570000 C 43.230000 21.070000 45.000000 23.980000 45.000000 27.500000 L 45.000000 41.500000 C 45.000000 43.709999 44.209999 45.500000 42.000000 45.500000 C 39.790001 45.500000 39.000000 43.709999 39.000000 41.500000 L 39.000000 36.500000 C 39.000000 38.156853 37.656853 39.500000 36.000000 39.500000 C 34.343147 39.500000 33.000000 38.156853 33.000000 36.500000 L 33.000000 34.500000" stroke="#231F20" stroke-width="2.000000" stroke-linecap="round" stroke-linejoin="round" fill="none"/><path d=" M 8.000000 20.570000 C 4.770000 21.070000 3.000000 23.980000 3.000000 27.500000 L 3.000000 41.500000 C 3.000000 43.709999 3.790000 45.500000 6.000000 45.500000 C 8.210000 45.500000 9.000000 43.709999 9.000000 41.500000 L 9.000000 36.500000 C 9.000000 38.156853 10.343145 39.500000 12.000000 39.500000 C 13.656855 39.500000 15.000000 38.156853 15.000000 36.500000 L 15.000000 34.500000" stroke="#231F20" stroke-width="2.000000" stroke-linecap="round" stroke-linejoin="round" fill="none"/><path d=" M 24.000000 37.500000 C 24.000000 37.500000 36.000000 29.549999 36.000000 21.110001 C 36.000000 12.670000 25.360001 11.570000 24.000000 20.000000 C 22.639999 11.560000 12.000000 12.000000 12.000000 21.100000 C 12.000000 30.200001 24.000000 37.500000 24.000000 37.500000 Z" stroke="#231F20" stroke-width="2.000000" stroke-linecap="round" stroke-linejoin="round" fill="none"/><ellipse cx="24.000000" cy="5.500000" rx="11.000000" ry="3.000000" stroke="#231F20" stroke-width="2.000000" stroke-linecap="round" stroke-linejoin="round" fill="none"/><path d=" M 24.000000 37.500000 C 24.000000 37.500000 36.000000 29.549999 36.000000 21.110001 C 36.000000 12.670000 25.360001 11.570000 24.000000 20.000000 C 22.639999 11.560000 12.000000 12.000000 12.000000 21.100000 C 12.000000 30.200001 24.000000 37.500000 24.000000 37.500000 Z" stroke="#231F20" stroke-width="2.000000" stroke-linecap="round" stroke-linejoin="round" fill="none"/></g></svg>