<svg version="1.1" viewBox="0.000000 0.000000 48.000000 48.000000" xmlns="http://www.w3.org/2000/svg" xmlns:xlink="http://www.w3.org/1999/xlink" overflow="hidden"><defs></defs><g id="icons"><path d=" M 37.000000 13.000000 C 37.000000 -3.000000 11.000000 -3.000000 11.000000 13.000000" stroke="#231F20" stroke-width="2.000000" stroke-linecap="round" stroke-linejoin="round" fill="none"/><path d=" M 11.000000 17.000000 L 37.000000 17.000000 C 39.209141 17.000000 41.000000 15.209139 41.000000 13.000000 L 44.930000 35.259998 C 45.890976 40.698597 42.261143 45.886478 36.822544 46.847454 C 36.247269 46.949104 35.664188 47.000145 35.080002 46.999996 L 12.920000 47.000000 C 7.397152 46.999466 2.920434 42.521877 2.920970 36.999031 C 2.921026 36.422798 2.970888 35.847645 3.070000 35.279999 L 7.000000 13.000000 C 7.000000 15.209139 8.790861 17.000000 11.000000 17.000000 Z" stroke="#231F20" stroke-width="2.000000" stroke-linecap="round" stroke-linejoin="round" fill="none"/><line x1="13.000000" y1="21.020000" x2="13.000000" y2="25.020000" stroke="#231F20" stroke-width="2.000000" stroke-linecap="round" stroke-linejoin="round" fill="none"/><line x1="11.000000" y1="21.020000" x2="38.000000" y2="21.020000" stroke="#231F20" stroke-width="2.000000" stroke-linecap="round" stroke-linejoin="round" fill="none"/></g></svg>