<svg version="1.1" viewBox="0.000000 0.000000 48.000000 48.000000" xmlns="http://www.w3.org/2000/svg" xmlns:xlink="http://www.w3.org/1999/xlink" overflow="hidden"><defs></defs><g id="icons"><circle cx="31.000000" cy="17.000000" r="16.000000" stroke="#231F20" stroke-width="2.000000" stroke-linecap="round" stroke-linejoin="round" fill="none"/><path d=" M 20.000000 29.000000 L 6.000000 29.000000 C 3.238576 29.000000 1.000000 31.238577 1.000000 34.000000 C 1.000000 36.761425 3.238576 39.000000 6.000000 39.000000 L 41.000000 39.000000 C 43.209141 39.000000 45.000000 40.790859 45.000000 43.000000 C 45.000000 45.209141 43.209141 47.000000 41.000000 47.000000 L 21.000000 47.000000" stroke="#231F20" stroke-width="2.000000" stroke-linecap="round" stroke-linejoin="round" fill="none"/><circle cx="31.000000" cy="17.000000" r="3.000000" stroke="#231F20" stroke-width="2.000000" stroke-linecap="round" stroke-linejoin="round" fill="none"/><path d=" M 33.680000 10.580000 L 35.590000 6.000000 L 35.590000 6.000000 C 32.635429 4.864009 29.364569 4.864009 26.410000 6.000000 L 26.410000 6.000000 L 28.320000 10.600000 C 30.035906 9.888871 31.964094 9.888871 33.680000 10.600000 Z" stroke="#231F20" stroke-width="2.000000" stroke-linecap="round" stroke-linejoin="round" fill="none"/><path d=" M 25.000000 14.320000 L 20.000000 12.410000 L 20.000000 12.410000 C 18.864008 15.364569 18.864008 18.635431 20.000000 21.590000 L 20.000000 21.590000 L 24.850000 19.680000 C 24.026649 17.974979 24.082582 15.976306 25.000000 14.320001 Z" stroke="#231F20" stroke-width="2.000000" stroke-linecap="round" stroke-linejoin="round" fill="none"/><path d=" M 28.320000 23.000000 L 26.410000 28.000000 L 26.410000 28.000000 C 29.364569 29.135992 32.635429 29.135992 35.590000 28.000000 L 35.590000 28.000000 L 33.680000 23.150000 C 31.974979 23.973351 29.976307 23.917418 28.320000 23.000000 Z" stroke="#231F20" stroke-width="2.000000" stroke-linecap="round" stroke-linejoin="round" fill="none"/><path d=" M 37.000000 19.680000 L 42.000000 21.590000 L 42.000000 21.590000 C 43.135990 18.635431 43.135990 15.364569 42.000000 12.410000 L 42.000000 12.410000 L 37.160000 14.320000 C 37.980267 16.026634 37.920605 18.025331 37.000000 19.680000 Z" stroke="#231F20" stroke-width="2.000000" stroke-linecap="round" stroke-linejoin="round" fill="none"/></g></svg>