<svg version="1.1" viewBox="0.000000 0.000000 48.000000 48.000000" xmlns="http://www.w3.org/2000/svg" xmlns:xlink="http://www.w3.org/1999/xlink" overflow="hidden"><defs></defs><g id="icons"><path d=" M 29.000000 25.000000 L 29.170000 25.170000 C 30.731228 26.732965 33.263889 26.734375 34.826855 25.173147 C 34.827904 25.172098 34.828953 25.171049 34.830002 25.170000 L 42.759998 17.240000 C 45.099625 14.897459 45.099625 11.102540 42.759998 8.760000 L 39.240002 5.240000 C 36.897461 2.900373 33.102543 2.900373 30.760002 5.240000 L 22.830000 13.170000 C 21.267035 14.731228 21.265625 17.263887 22.826853 18.826853 C 22.827902 18.827902 22.828951 18.828951 22.830000 18.830000 L 23.000000 19.000000" stroke="#231F20" stroke-width="2.000000" stroke-linecap="round" stroke-linejoin="round" fill="none"/><path d=" M 19.000000 23.000000 L 18.830000 22.830000 C 17.268772 21.267035 14.736113 21.265625 13.173146 22.826853 C 13.172097 22.827902 13.171048 22.828951 13.170000 22.830000 L 5.240000 30.760000 C 2.900373 33.102539 2.900373 36.897461 5.240000 39.240002 L 8.760000 42.759998 C 11.102541 45.099625 14.897460 45.099625 17.240000 42.759998 L 25.170000 34.830002 C 26.732965 33.268772 26.734375 30.736115 25.173147 29.173149 C 25.172098 29.172100 25.171049 29.171051 25.170000 29.170002 L 25.000000 29.000000" stroke="#231F20" stroke-width="2.000000" stroke-linecap="round" stroke-linejoin="round" fill="none"/><line x1="16.220000" y1="31.780000" x2="31.780000" y2="16.220000" stroke="#231F20" stroke-width="2.000000" stroke-linecap="round" stroke-linejoin="round" fill="none"/></g></svg>