<svg version="1.1" viewBox="0.000000 0.000000 48.000000 48.000000" xmlns="http://www.w3.org/2000/svg" xmlns:xlink="http://www.w3.org/1999/xlink" overflow="hidden"><defs></defs><g id="icons"><path d=" M 24.000000 47.000000 L 47.000000 47.000000 C 46.903896 44.187092 46.222755 41.425064 45.000000 38.889999 C 43.509998 35.889999 37.000000 33.889999 29.000000 30.889999 L 29.000000 24.889999 C 30.888544 23.473591 32.000000 21.250679 32.000000 18.889999 C 33.000000 18.889999 34.000000 14.890000 32.000000 13.890000 C 32.000000 13.290000 34.680000 8.280000 34.000000 4.890000 C 33.000000 -0.110000 19.000000 -0.110000 18.000000 3.890000 C 12.000000 3.890000 16.000000 13.070000 16.000000 13.890000 C 14.000000 14.890000 15.000000 18.889999 16.000000 18.889999 C 16.000000 21.250679 17.111456 23.473591 19.000000 24.889999 L 19.000000 30.889999 C 11.000000 33.889999 4.490000 35.889999 3.000000 38.889999 C 1.777244 41.425064 1.096103 44.187092 1.000000 47.000000 Z" stroke="#231F20" stroke-width="2.000000" stroke-linejoin="round" fill="none"/></g></svg>