<svg version="1.1" viewBox="0.000000 0.000000 48.000000 48.000000" xmlns="http://www.w3.org/2000/svg" xmlns:xlink="http://www.w3.org/1999/xlink" overflow="hidden"><defs></defs><g id="icons"><path d=" M 28.240000 19.760000 C 30.584602 22.101688 30.586967 25.900677 28.245279 28.245279 C 25.903591 30.589882 22.104603 30.592247 19.760000 28.250559 C 17.415398 25.908871 17.413033 22.109882 19.754721 19.765280 C 19.756479 19.763519 19.758240 19.761759 19.760000 19.760000 C 22.102541 17.420374 25.897459 17.420374 28.240000 19.760000 Z" stroke="#231F20" stroke-width="2.000000" stroke-linecap="round" stroke-linejoin="round" fill="none"/><path d=" M 23.670000 18.000000 L 35.310001 1.370000 C 38.849998 1.370000 46.630001 9.150000 46.630001 12.690000 L 30.000000 24.330000" stroke="#231F20" stroke-width="2.000000" stroke-linecap="round" stroke-linejoin="round" fill="none"/><path d=" M 18.000000 23.670000 L 1.370000 35.310001 C 1.370000 38.849998 9.150000 46.630001 12.690000 46.630001 L 24.330000 30.000000" stroke="#231F20" stroke-width="2.000000" stroke-linecap="round" stroke-linejoin="round" fill="none"/><path d=" M 29.990000 24.330000 L 42.380001 36.730000 L 36.730000 36.730000 L 36.730000 42.380001 L 24.330000 29.990000" stroke="#231F20" stroke-width="2.000000" stroke-linecap="round" stroke-linejoin="round" fill="none"/><line x1="19.760000" y1="28.240000" x2="16.930000" y2="31.070000" stroke="#231F20" stroke-width="2.000000" stroke-linecap="round" stroke-linejoin="round" fill="none"/><line x1="28.240000" y1="19.760000" x2="31.070000" y2="16.930000" stroke="#231F20" stroke-width="2.000000" stroke-linecap="round" stroke-linejoin="round" fill="none"/></g></svg>