<svg version="1.1" viewBox="0.000000 0.000000 48.000000 48.000000" xmlns="http://www.w3.org/2000/svg" xmlns:xlink="http://www.w3.org/1999/xlink" overflow="hidden"><defs></defs><g id="icons"><rect x="1.000000" y="17.000000" rx="2.000000" ry="2.000000" width="28.000000" height="28.000000" stroke="#231F20" stroke-width="2.000000" stroke-linecap="round" stroke-linejoin="round" fill="none"/><path d=" M 29.000000 31.000000 L 45.000000 31.000000 C 46.104568 31.000000 47.000000 30.104570 47.000000 29.000000 L 47.000000 5.000000 C 47.000000 3.895431 46.104568 3.000000 45.000000 3.000000 L 21.000000 3.000000 C 19.895430 3.000000 19.000000 3.895431 19.000000 5.000000 L 19.000000 17.000000" stroke="#231F20" stroke-width="2.000000" stroke-linecap="round" stroke-linejoin="round" fill="none"/><path d=" M 8.000000 24.000000 C 6.895431 24.000000 6.000000 24.895430 6.000000 26.000000 C 6.000000 27.104570 6.895431 28.000000 8.000000 28.000000 C 9.104569 28.000000 10.000000 27.104570 10.000000 26.000000 C 10.000000 24.895430 9.104569 24.000000 8.000000 24.000000 Z" fill="#231F20"/><path d=" M 22.000000 24.000000 C 20.895430 24.000000 20.000000 24.895430 20.000000 26.000000 C 20.000000 27.104570 20.895430 28.000000 22.000000 28.000000 C 23.104570 28.000000 24.000000 27.104570 24.000000 26.000000 C 24.000000 24.895430 23.104570 24.000000 22.000000 24.000000 Z" fill="#231F20"/><path d=" M 15.000000 24.000000 C 13.895431 24.000000 13.000000 24.895430 13.000000 26.000000 C 13.000000 27.104570 13.895431 28.000000 15.000000 28.000000 C 16.104570 28.000000 17.000000 27.104570 17.000000 26.000000 C 17.000000 24.895430 16.104570 24.000000 15.000000 24.000000 Z" fill="#231F20"/><path d=" M 8.000000 34.000000 C 6.895431 34.000000 6.000000 34.895432 6.000000 36.000000 C 6.000000 37.104568 6.895431 38.000000 8.000000 38.000000 C 9.104569 38.000000 10.000000 37.104568 10.000000 36.000000 C 10.000000 34.895432 9.104569 34.000000 8.000000 34.000000 Z" fill="#231F20"/><path d=" M 22.000000 34.000000 C 20.895430 34.000000 20.000000 34.895432 20.000000 36.000000 C 20.000000 37.104568 20.895430 38.000000 22.000000 38.000000 C 23.104570 38.000000 24.000000 37.104568 24.000000 36.000000 C 24.000000 34.895432 23.104570 34.000000 22.000000 34.000000 Z" fill="#231F20"/><path d=" M 15.000000 34.000000 C 13.895431 34.000000 13.000000 34.895432 13.000000 36.000000 C 13.000000 37.104568 13.895431 38.000000 15.000000 38.000000 C 16.104570 38.000000 17.000000 37.104568 17.000000 36.000000 C 17.000000 34.895432 16.104570 34.000000 15.000000 34.000000 Z" fill="#231F20"/><path d=" M 28.000000 8.000000 C 26.895430 8.000000 26.000000 8.895431 26.000000 10.000000 C 26.000000 11.104569 26.895430 12.000000 28.000000 12.000000 C 29.104570 12.000000 30.000000 11.104569 30.000000 10.000000 C 30.000000 8.895431 29.104570 8.000000 28.000000 8.000000 Z" fill="#231F20"/><path d=" M 38.000000 22.000000 C 36.895432 22.000000 36.000000 22.895430 36.000000 24.000000 C 36.000000 25.104570 36.895432 26.000000 38.000000 26.000000 C 39.104568 26.000000 40.000000 25.104570 40.000000 24.000000 C 40.000000 22.895430 39.104568 22.000000 38.000000 22.000000 Z" fill="#231F20"/><path d=" M 38.000000 8.000000 C 36.895432 8.000000 36.000000 8.895431 36.000000 10.000000 C 36.000000 11.104569 36.895432 12.000000 38.000000 12.000000 C 39.104568 12.000000 40.000000 11.104569 40.000000 10.000000 C 40.000000 8.895431 39.104568 8.000000 38.000000 8.000000 Z" fill="#231F20"/></g></svg>