<svg version="1.1" viewBox="0.000000 0.000000 48.000000 48.000000" xmlns="http://www.w3.org/2000/svg" xmlns:xlink="http://www.w3.org/1999/xlink" overflow="hidden"><defs></defs><g id="icons"><path d=" M 17.260000 17.320000 C 18.822966 15.758772 18.824375 13.226112 17.263147 11.663146 C 17.262098 11.662097 17.261049 11.661048 17.260000 11.660000 L 13.000000 7.420000 C 11.438690 5.862467 8.911310 5.862467 7.350000 7.420000 L 5.000000 9.740000 C 2.985380 11.756618 2.667721 14.912316 4.240000 17.289999 C 11.089948 27.600647 19.929352 36.440052 30.240000 43.290001 C 32.615387 44.864876 35.770866 44.551418 37.790001 42.540001 L 40.119999 40.209999 C 41.682964 38.648769 41.684372 36.116112 40.123146 34.553146 C 40.122097 34.552097 40.121048 34.551048 40.119999 34.549999 L 35.880001 30.309999 C 34.318771 28.747034 31.786114 28.745625 30.223148 30.306852 C 30.222099 30.307901 30.221050 30.308950 30.220001 30.309999 L 28.809999 31.719999 C 24.066568 27.817144 19.712854 23.463430 15.809999 18.719999 Z" stroke="#231F20" stroke-width="2.000000" stroke-linecap="round" stroke-linejoin="round" fill="none"/><path d=" M 28.080000 15.750000 L 34.080002 15.750000 L 33.860001 17.290001 L 26.000000 17.290001 L 26.000000 15.830000 C 30.719999 11.110000 31.889999 9.630000 31.889999 7.550000 C 32.013458 6.396792 31.178682 5.361848 30.025475 5.238389 C 29.910742 5.226106 29.795193 5.223300 29.680000 5.230000 C 28.587114 5.234684 27.567892 5.781767 26.960001 6.690000 L 25.719999 5.690000 C 26.676872 4.413931 28.185133 3.670946 29.779999 3.690000 C 31.816673 3.523679 33.602554 5.039899 33.768875 7.076573 C 33.779560 7.207426 33.783276 7.338753 33.779999 7.470000 C 33.790001 9.870000 32.189999 11.850000 28.080000 15.750000 Z" fill="#231F20"/><path d=" M 43.000000 14.000000 L 43.000000 17.299999 L 41.209999 17.299999 L 41.209999 14.000000 L 35.639999 14.000000 L 35.639999 12.670000 L 39.500000 3.670000 L 41.000000 4.350000 L 37.540001 12.530000 L 41.169998 12.530000 L 41.349998 8.930000 L 43.000000 8.930000 L 43.000000 12.530000 L 44.740002 12.530000 L 44.740002 14.000000 Z" fill="#231F20"/></g></svg>