<svg version="1.1" viewBox="0.000000 0.000000 48.000000 48.000000" xmlns="http://www.w3.org/2000/svg" xmlns:xlink="http://www.w3.org/1999/xlink" overflow="hidden"><defs></defs><g id="icons"><path d=" M 17.000000 23.330000 C 16.814985 21.673145 15.321855 20.479984 13.665000 20.665001 C 12.008145 20.850016 10.814984 22.343147 11.000000 24.000000 L 11.340000 27.000000 L 17.340000 26.330000 Z" stroke="#231F20" stroke-width="2.000000" stroke-linecap="round" stroke-linejoin="round" fill="none"/><path d=" M 39.000000 42.320000 L 41.000000 24.430000 C 41.422497 20.564007 38.630993 17.087498 34.764999 16.665001 C 30.899006 16.242502 27.422497 19.034008 27.000000 22.900002 L 25.000000 40.790001 L 22.930000 40.790001 L 21.000000 22.879999 C 20.566456 19.033337 17.096663 16.266455 13.250000 16.699999 C 9.403337 17.133543 6.636456 20.603336 7.070000 24.449999 L 9.070000 42.340000" stroke="#231F20" stroke-width="2.000000" stroke-linecap="round" stroke-linejoin="round" fill="none"/><path d=" M 31.000000 23.340000 C 31.182255 21.683146 32.673145 20.487745 34.330002 20.670000 C 35.986855 20.852255 37.182255 22.343145 37.000000 24.000000 L 36.669998 27.000000 L 30.670000 26.350000 Z" stroke="#231F20" stroke-width="2.000000" stroke-linecap="round" stroke-linejoin="round" fill="none"/><path d=" M 32.000000 5.660000 C 38.730000 6.290000 44.259998 9.060000 47.000000 12.660000" stroke="#231F20" stroke-width="2.000000" stroke-linecap="round" stroke-linejoin="round" fill="none"/><path d=" M 1.000000 12.680000 C 3.760000 9.060000 9.220000 6.280000 16.000000 5.680000" stroke="#231F20" stroke-width="2.000000" stroke-linecap="round" stroke-linejoin="round" fill="none"/><path d=" M 42.000000 12.660000 L 47.000000 12.660000 L 47.000000 7.660000" stroke="#231F20" stroke-width="2.000000" stroke-linecap="round" stroke-linejoin="round" fill="none"/><path d=" M 6.000000 12.660000 L 1.000000 12.660000 L 1.000000 7.660000" stroke="#231F20" stroke-width="2.000000" stroke-linecap="round" stroke-linejoin="round" fill="none"/></g></svg>