<svg version="1.1" viewBox="0.000000 0.000000 48.000000 48.000000" xmlns="http://www.w3.org/2000/svg" xmlns:xlink="http://www.w3.org/1999/xlink" overflow="hidden"><defs></defs><g id="icons"><path d=" M 47.000000 36.820000 C 47.050407 38.525814 45.708435 39.949516 44.002621 39.999924 C 44.001747 39.999950 44.000874 39.999973 44.000000 40.000000 L 4.000000 40.000000 C 2.294143 39.951038 0.950963 38.528477 0.999924 36.822620 C 0.999949 36.821747 0.999974 36.820873 1.000000 36.820000 L 1.000000 7.180000 C 0.949592 5.474185 2.291564 4.050484 3.997380 4.000076 C 3.998253 4.000051 3.999127 4.000025 4.000000 4.000000 L 44.000000 4.000000 C 45.705856 4.048961 47.049038 5.471522 47.000076 7.177380 C 47.000050 7.178253 47.000027 7.179126 47.000000 7.180000 Z" stroke="#231F20" stroke-width="2.000000" stroke-linecap="round" stroke-linejoin="round" fill="none"/><line x1="10.000000" y1="44.000000" x2="38.000000" y2="44.000000" stroke="#231F20" stroke-width="2.000000" stroke-linecap="round" stroke-linejoin="round" fill="none"/><line x1="24.000000" y1="40.000000" x2="24.000000" y2="44.000000" stroke="#231F20" stroke-width="2.000000" stroke-linecap="round" stroke-linejoin="round" fill="none"/><circle cx="24.000000" cy="36.000000" r="1.000000" stroke="#231F20" stroke-width="2.000000" stroke-miterlimit="10.000000" fill="none"/><line x1="1.000000" y1="32.000000" x2="47.000000" y2="32.000000" stroke="#231F20" stroke-width="2.000000" stroke-miterlimit="10.000000" fill="none"/></g></svg>