<svg version="1.1" viewBox="0.000000 0.000000 48.000000 48.000000" xmlns="http://www.w3.org/2000/svg" xmlns:xlink="http://www.w3.org/1999/xlink" overflow="hidden"><defs></defs><g id="icons"><path d=" M 23.000000 25.000000 L 5.000000 25.000000 C 2.790861 25.000000 1.000000 23.209139 1.000000 21.000000 L 1.000000 5.000000 C 1.000000 2.790861 2.790861 1.000000 5.000000 1.000000 L 31.000000 1.000000 C 33.209141 1.000000 35.000000 2.790861 35.000000 5.000000 L 35.000000 13.000000" stroke="#231F20" stroke-width="2.000000" stroke-linecap="round" stroke-linejoin="round" fill="none"/><line x1="1.000000" y1="7.000000" x2="35.000000" y2="7.000000" stroke="#231F20" stroke-width="2.000000" stroke-linecap="round" stroke-linejoin="round" fill="none"/><line x1="17.000000" y1="11.000000" x2="7.000000" y2="11.000000" stroke="#231F20" stroke-width="2.000000" stroke-linecap="round" stroke-linejoin="round" fill="none"/><line x1="31.000000" y1="11.000000" x2="27.000000" y2="11.000000" stroke="#231F20" stroke-width="2.000000" stroke-linecap="round" stroke-linejoin="round" fill="none"/><line x1="13.000000" y1="15.000000" x2="7.000000" y2="15.000000" stroke="#231F20" stroke-width="2.000000" stroke-linecap="round" stroke-linejoin="round" fill="none"/><rect x="27.000000" y="31.000000" width="20.000000" height="16.000000" stroke="#231F20" stroke-width="2.000000" stroke-linecap="round" stroke-linejoin="round" fill="none"/><line x1="37.000000" y1="43.000000" x2="37.000000" y2="40.000000" stroke="#231F20" stroke-width="2.000000" stroke-linecap="round" stroke-linejoin="round" fill="none"/><path d=" M 37.000000 36.000000 C 35.895432 36.000000 35.000000 36.895432 35.000000 38.000000 C 35.000000 39.104568 35.895432 40.000000 37.000000 40.000000 C 38.104568 40.000000 39.000000 39.104568 39.000000 38.000000 C 39.000000 36.895432 38.104568 36.000000 37.000000 36.000000 Z" fill="#231F20"/><path d=" M 31.000000 31.000000 L 31.000000 27.000000 C 31.000000 23.686291 33.686291 21.000000 37.000000 21.000000 C 40.313709 21.000000 43.000000 23.686291 43.000000 27.000000 L 43.000000 31.000000" stroke="#231F20" stroke-width="2.000000" stroke-linecap="round" stroke-linejoin="round" fill="none"/></g></svg>