<svg version="1.1" viewBox="0.000000 0.000000 48.000000 48.000000" xmlns="http://www.w3.org/2000/svg" xmlns:xlink="http://www.w3.org/1999/xlink" overflow="hidden"><defs></defs><g id="icons"><path d=" M 47.000000 24.000000 C 46.993835 22.077232 45.620487 20.430897 43.730000 20.080000 C 45.575119 18.865166 46.086067 16.384581 44.871235 14.539460 C 43.972034 13.173731 42.332104 12.492825 40.730000 12.820001 C 41.960407 10.985227 41.470470 8.500407 39.635696 7.270000 C 38.287960 6.366203 36.527737 6.366203 35.180000 7.270000 C 35.622021 5.105534 34.225700 2.992560 32.061234 2.550540 C 30.459129 2.223364 28.819201 2.904271 27.919998 4.270000 C 27.494211 2.102283 25.391758 0.690170 23.224041 1.115958 C 21.629677 1.429126 20.383167 2.675636 20.069998 4.270000 C 18.843203 2.432811 16.359350 1.937988 14.522161 3.164784 C 13.176868 4.063112 12.505085 5.683296 12.819998 7.270000 C 10.985224 6.039594 8.500404 6.529530 7.269998 8.364304 C 6.366200 9.712040 6.366200 11.472263 7.269998 12.820000 C 5.103123 12.389941 2.997893 13.797909 2.567835 15.964784 C 2.252922 17.551489 2.924706 19.171673 4.269998 20.070000 C 2.099519 20.481480 0.673568 22.574572 1.085048 24.745050 C 1.391277 26.360352 2.654696 27.623772 4.269998 27.930000 C 2.432808 29.156796 1.937985 31.640648 3.164781 33.477837 C 4.063109 34.823128 5.683293 35.494911 7.269998 35.180000 C 6.039591 37.014774 6.529527 39.499592 8.364301 40.730000 C 9.712037 41.633797 11.472260 41.633797 12.819997 40.730000 C 12.389938 42.896873 13.797906 45.002106 15.964781 45.432163 C 17.551485 45.747074 19.171669 45.075291 20.069998 43.730000 C 20.495785 45.897717 22.598238 47.309830 24.765955 46.884041 C 26.360319 46.570873 27.606829 45.324364 27.919998 43.730000 C 29.134832 45.575119 31.615417 46.086067 33.460537 44.871235 C 34.826267 43.972034 35.507172 42.332104 35.179996 40.730000 C 37.014771 41.960407 39.499588 41.470470 40.729996 39.635696 C 41.633793 38.287960 41.633793 36.527737 40.729996 35.180000 C 42.896870 35.610058 45.002102 34.202091 45.432159 32.035217 C 45.747070 30.448513 45.075287 28.828329 43.729996 27.930000 C 45.624180 27.578407 46.998634 25.926538 46.999996 24.000000 Z" stroke="#231F20" stroke-width="2.000000" stroke-linejoin="round" fill="none"/><line x1="15.000000" y1="15.000000" x2="33.000000" y2="33.000000" stroke="#231F20" stroke-width="2.000000" stroke-linecap="round" stroke-linejoin="round" fill="none"/><line x1="33.000000" y1="15.000000" x2="15.000000" y2="33.000000" stroke="#231F20" stroke-width="2.000000" stroke-linecap="round" stroke-linejoin="round" fill="none"/></g></svg>