<svg version="1.1" viewBox="0.000000 0.000000 48.000000 48.000000" xmlns="http://www.w3.org/2000/svg" xmlns:xlink="http://www.w3.org/1999/xlink" overflow="hidden"><defs></defs><g id="icons"><path d=" M 1.000000 7.000000 L 1.000000 41.000000 L 9.000000 41.000000 L 9.000000 38.000000 C 9.000000 36.067005 10.567003 34.500000 12.500000 34.500000 C 14.432997 34.500000 16.000000 36.067005 16.000000 38.000000 L 16.000000 41.000000 L 32.000000 41.000000 L 32.000000 38.000000 C 32.000000 36.067005 33.567005 34.500000 35.500000 34.500000 C 37.432995 34.500000 39.000000 36.067005 39.000000 38.000000 L 39.000000 41.000000 L 47.000000 41.000000 L 47.000000 7.000000 Z" stroke="#231F20" stroke-width="2.000000" stroke-linejoin="round" fill="none"/><line x1="26.000000" y1="27.000000" x2="42.000000" y2="27.000000" stroke="#231F20" stroke-width="2.000000" stroke-miterlimit="10.000000" fill="none"/><line x1="26.000000" y1="23.000000" x2="42.000000" y2="23.000000" stroke="#231F20" stroke-width="2.000000" stroke-miterlimit="10.000000" fill="none"/><line x1="26.000000" y1="19.000000" x2="42.000000" y2="19.000000" stroke="#231F20" stroke-width="2.000000" stroke-miterlimit="10.000000" fill="none"/><line x1="26.000000" y1="15.000000" x2="34.000000" y2="15.000000" stroke="#231F20" stroke-width="2.000000" stroke-miterlimit="10.000000" fill="none"/><path d=" M 14.000000 29.000000 L 6.000000 29.000000 L 6.000000 25.000000 C 7.416408 23.111456 9.639320 22.000000 12.000000 22.000000 L 12.000000 20.000000 C 10.643089 19.140770 9.873238 17.601067 10.000000 16.000000 C 10.000000 14.000000 10.000000 12.000000 14.000000 12.000000 C 18.000000 12.000000 18.000000 14.000000 18.000000 16.000000 C 18.126762 17.601067 17.356911 19.140770 16.000000 20.000000 L 16.000000 22.000000 C 18.360680 22.000000 20.583591 23.111456 22.000000 25.000000 L 22.000000 29.000000 Z" stroke="#231F20" stroke-width="2.000000" stroke-linecap="round" stroke-linejoin="round" fill="none"/></g></svg>