<svg version="1.1" viewBox="0.000000 0.000000 48.000000 48.000000" xmlns="http://www.w3.org/2000/svg" xmlns:xlink="http://www.w3.org/1999/xlink" overflow="hidden"><defs></defs><g id="icons"><path d=" M 47.000000 5.000000 L 41.880001 5.000000 C 41.371376 4.996326 40.941025 5.375035 40.880001 5.880000 L 40.209999 11.250000 C 40.083290 12.255958 39.223873 13.007949 38.209999 13.000000 L 4.000000 13.000000 C 2.343148 13.002729 1.002217 14.348086 1.004946 16.004938 C 1.005440 16.305054 1.050965 16.603395 1.140000 16.889999 L 4.260000 26.889999 C 4.650379 28.146650 5.814112 29.002216 7.130000 29.000000 L 36.000000 29.000000 C 37.104568 29.000000 38.000000 29.895430 38.000000 31.000000 C 38.000000 32.104568 37.104568 33.000000 36.000000 33.000000 L 8.000000 33.000000" stroke="#231F20" stroke-width="2.000000" stroke-linecap="round" stroke-miterlimit="10.000000" fill="none"/><line x1="39.000000" y1="17.000000" x2="38.000000" y2="26.000000" stroke="#231F20" stroke-width="2.000000" stroke-linecap="round" stroke-miterlimit="10.000000" fill="none"/><circle cx="12.000000" cy="40.000000" r="3.000000" stroke="#231F20" stroke-width="2.000000" stroke-miterlimit="10.000000" fill="none"/><circle cx="34.000000" cy="40.000000" r="3.000000" stroke="#231F20" stroke-width="2.000000" stroke-miterlimit="10.000000" fill="none"/></g></svg>