<svg version="1.1" viewBox="0.000000 0.000000 48.000000 48.000000" xmlns="http://www.w3.org/2000/svg" xmlns:xlink="http://www.w3.org/1999/xlink" overflow="hidden"><defs></defs><g id="icons"><rect x="1.000000" y="17.000000" rx="4.000000" ry="4.000000" width="46.000000" height="28.000000" stroke="#231F20" stroke-width="2.000000" stroke-linecap="round" stroke-linejoin="round" fill="none"/><rect x="5.000000" y="21.000000" rx="3.000000" ry="3.000000" width="38.000000" height="12.000000" stroke="#231F20" stroke-width="2.000000" stroke-linecap="round" stroke-linejoin="round" fill="none"/><circle cx="9.000000" cy="39.000000" r="2.000000" stroke="#231F20" stroke-width="2.000000" stroke-linecap="round" stroke-linejoin="round" fill="none"/><circle cx="39.000000" cy="39.000000" r="2.000000" stroke="#231F20" stroke-width="2.000000" stroke-linecap="round" stroke-linejoin="round" fill="none"/><path d=" M 33.000000 39.000000 C 33.000000 40.104568 32.104568 41.000000 31.000000 41.000000 L 17.000000 41.000000 C 15.895431 41.000000 15.000000 40.104568 15.000000 39.000000 C 15.000000 37.895432 15.895431 37.000000 17.000000 37.000000 L 31.000000 37.000000 C 32.104568 37.000000 33.000000 37.895432 33.000000 39.000000 Z" stroke="#231F20" stroke-width="2.000000" stroke-linecap="round" stroke-linejoin="round" fill="none"/><line x1="5.000000" y1="25.000000" x2="43.000000" y2="25.000000" stroke="#231F20" stroke-width="2.000000" stroke-linecap="round" stroke-linejoin="round" fill="none"/><line x1="5.000000" y1="29.000000" x2="43.000000" y2="29.000000" stroke="#231F20" stroke-width="2.000000" stroke-linecap="round" stroke-linejoin="round" fill="none"/><line x1="27.000000" y1="37.000000" x2="27.000000" y2="41.000000" stroke="#231F20" stroke-width="2.000000" stroke-linecap="round" stroke-linejoin="round" fill="none"/><line x1="5.000000" y1="17.000000" x2="37.000000" y2="1.000000" stroke="#231F20" stroke-width="2.000000" stroke-linecap="round" stroke-linejoin="round" fill="none"/><line x1="11.000000" y1="45.000000" x2="11.000000" y2="47.000000" stroke="#231F20" stroke-width="2.000000" stroke-linecap="round" stroke-linejoin="round" fill="none"/><line x1="37.000000" y1="45.000000" x2="37.000000" y2="47.000000" stroke="#231F20" stroke-width="2.000000" stroke-linecap="round" stroke-linejoin="round" fill="none"/></g></svg>