<svg version="1.1" viewBox="0.000000 0.000000 48.000000 48.000000" xmlns="http://www.w3.org/2000/svg" xmlns:xlink="http://www.w3.org/1999/xlink" overflow="hidden"><defs></defs><g id="icons"><path d=" M 41.000000 24.000000 C 28.299999 24.000000 24.000000 13.700000 24.000000 1.000000" stroke="#231F20" stroke-width="2.000000" stroke-linecap="round" stroke-linejoin="round" fill="none"/><path d=" M 7.000000 24.000000 C 19.700001 24.000000 24.000000 13.700000 24.000000 1.000000" stroke="#231F20" stroke-width="2.000000" stroke-linecap="round" stroke-linejoin="round" fill="none"/><rect x="1.000000" y="24.000000" width="6.000000" height="4.000000" stroke="#231F20" stroke-width="2.000000" stroke-linecap="round" stroke-linejoin="round" fill="none"/><rect x="41.000000" y="24.000000" width="6.000000" height="4.000000" stroke="#231F20" stroke-width="2.000000" stroke-linecap="round" stroke-linejoin="round" fill="none"/><path d=" M 41.000000 28.000000 C 35.480000 28.000000 31.000000 36.509998 31.000000 47.000000 L 47.000000 47.000000 L 47.000000 1.000000 L 1.000000 1.000000 L 1.000000 47.000000 L 17.000000 47.000000 C 17.000000 36.509998 12.520000 28.000000 7.000000 28.000000" stroke="#231F20" stroke-width="2.000000" stroke-linecap="round" stroke-linejoin="round" fill="none"/><path d=" M 17.000000 6.000000 C 15.813970 11.084379 12.548915 15.437785 8.000000 18.000000" stroke="#231F20" stroke-width="2.000000" stroke-linecap="round" stroke-linejoin="round" fill="none"/><path d=" M 7.000000 32.000000 C 8.000000 32.000000 10.000000 36.000000 10.000000 38.000000" stroke="#231F20" stroke-width="2.000000" stroke-linecap="round" stroke-linejoin="round" fill="none"/><path d=" M 31.000000 6.000000 C 32.186031 11.084379 35.451084 15.437785 40.000000 18.000000" stroke="#231F20" stroke-width="2.000000" stroke-linecap="round" stroke-linejoin="round" fill="none"/><path d=" M 41.000000 32.000000 C 40.000000 32.000000 38.000000 36.000000 38.000000 38.000000" stroke="#231F20" stroke-width="2.000000" stroke-linecap="round" stroke-linejoin="round" fill="none"/><line x1="15.500000" y1="37.000000" x2="32.500000" y2="37.000000" stroke="#231F20" stroke-width="2.000000" stroke-linecap="round" stroke-linejoin="round" fill="none"/></g></svg>