<svg version="1.1" viewBox="0.000000 0.000000 48.000000 48.000000" xmlns="http://www.w3.org/2000/svg" xmlns:xlink="http://www.w3.org/1999/xlink" overflow="hidden"><defs></defs><g id="icons"><line x1="25.940000" y1="29.000000" x2="25.940000" y2="23.310000" stroke="#231F20" stroke-width="2.000000" stroke-miterlimit="10.000000" fill="none"/><path d=" M 15.940000 23.410000 L 15.940000 29.000000 L 5.940000 32.580002 C 3.545091 33.426727 1.942902 35.689819 1.940000 38.230003 L 1.940000 43.000000 L 23.940001 43.000000" stroke="#231F20" stroke-width="2.000000" stroke-miterlimit="10.000000" fill="none"/><ellipse cx="20.910000" cy="13.000000" rx="10.000000" ry="12.000000" stroke="#231F20" stroke-width="2.000000" stroke-miterlimit="10.000000" fill="none"/><path d=" M 30.870001 11.940000 C 30.540001 11.940000 30.250000 11.940000 29.870001 12.000000 C 26.469999 12.660000 24.280001 11.420000 22.400000 8.140000 C 21.320000 10.300000 17.799999 12.000000 14.910000 12.000000 C 13.548763 12.027772 12.202960 11.707671 11.000000 11.070000" stroke="#231F20" stroke-width="2.000000" stroke-miterlimit="10.000000" fill="none"/><circle cx="37.270000" cy="38.000000" r="3.000000" stroke="#231F20" stroke-width="2.000000" stroke-linejoin="round" fill="none"/><path d=" M 44.270000 38.000000 C 44.270012 37.453842 44.202839 36.909756 44.070000 36.380001 L 46.070000 35.230000 L 44.070000 31.770000 L 41.919998 32.919998 C 41.047340 32.169434 40.024567 31.613728 38.919998 31.289999 L 38.919998 29.000000 L 34.919998 29.000000 L 34.919998 31.290001 C 33.925369 31.620972 33.021492 32.179047 32.279999 32.920002 L 30.370001 31.770000 L 28.370001 35.230000 L 30.370001 36.380001 C 30.116619 37.445141 30.116619 38.554863 30.370001 39.620003 L 28.370001 40.770000 L 30.370001 44.230000 L 32.200001 43.080002 C 32.941498 43.820957 33.845371 44.379032 34.840000 44.710003 L 34.840000 47.000000 L 38.840000 47.000000 L 38.840000 44.709999 C 39.944569 44.386269 40.967342 43.830563 41.840000 43.079998 L 44.000000 44.230000 L 46.000000 40.770000 L 44.000000 39.619999 C 44.151581 39.092083 44.242172 38.548538 44.270000 38.000000 Z" stroke="#231F20" stroke-width="2.000000" stroke-linejoin="round" fill="none"/></g></svg>