<svg version="1.1" viewBox="0.000000 0.000000 48.000000 48.000000" xmlns="http://www.w3.org/2000/svg" xmlns:xlink="http://www.w3.org/1999/xlink" overflow="hidden"><defs></defs><g id="icons"><path d=" M 37.000000 9.000000 L 37.000000 5.000000 L 11.000000 5.000000 L 11.000000 1.000000 L 1.000000 1.000000 L 1.000000 32.000000 C 1.000000 33.656853 2.343146 35.000000 4.000000 35.000000 C 5.656854 35.000000 7.000000 33.656853 7.000000 32.000000 L 7.000000 9.000000 L 41.000000 9.000000 L 41.000000 19.000000" stroke="#231F20" stroke-width="2.000000" stroke-linecap="round" stroke-linejoin="round" fill="none"/><line x1="4.000000" y1="35.000000" x2="19.000000" y2="35.000000" stroke="#231F20" stroke-width="2.000000" stroke-linecap="round" stroke-linejoin="round" fill="none"/><rect x="29.000000" y="33.000000" width="18.000000" height="14.000000" stroke="#231F20" stroke-width="2.000000" stroke-linecap="round" stroke-linejoin="round" fill="none"/><line x1="38.000000" y1="43.000000" x2="38.000000" y2="40.000000" stroke="#231F20" stroke-width="2.000000" stroke-linecap="round" stroke-linejoin="round" fill="none"/><path d=" M 38.000000 36.000000 C 36.895432 36.000000 36.000000 36.895432 36.000000 38.000000 C 36.000000 39.104568 36.895432 40.000000 38.000000 40.000000 C 39.104568 40.000000 40.000000 39.104568 40.000000 38.000000 C 40.000000 36.895432 39.104568 36.000000 38.000000 36.000000 Z" fill="#231F20"/><path d=" M 32.000000 33.000000 L 32.000000 31.000000 C 32.000000 27.686291 34.686291 25.000000 38.000000 25.000000 C 41.313709 25.000000 44.000000 27.686291 44.000000 31.000000 L 44.000000 33.000000" stroke="#231F20" stroke-width="2.000000" stroke-linecap="round" stroke-linejoin="round" fill="none"/></g></svg>