<svg version="1.1" viewBox="0.000000 0.000000 48.000000 48.000000" xmlns="http://www.w3.org/2000/svg" xmlns:xlink="http://www.w3.org/1999/xlink" overflow="hidden"><defs></defs><g id="icons"><path d=" M 33.799999 23.490000 C 33.799999 28.490000 43.000000 31.490000 46.000000 24.490000 C 37.000000 24.490000 44.000000 -6.510000 24.000000 3.490000 C 4.000000 -6.510000 11.000000 24.490000 2.000000 24.490000 C 5.000000 31.490000 14.220000 28.490000 14.220000 23.490000" stroke="#231F20" stroke-width="2.000000" stroke-linecap="round" stroke-linejoin="round" fill="none"/><path d=" M 24.000000 32.490002 C 27.000000 31.490000 33.000000 28.490000 34.000000 22.490000 C 37.000000 22.490000 37.000000 16.490000 34.000000 16.490000 L 33.000000 12.490000 C 25.000000 12.490000 25.000000 9.490000 24.000000 8.490000 C 23.000000 9.490000 23.000000 12.490000 15.000000 12.490000 L 14.000000 16.490000 C 11.000000 16.490000 11.000000 22.490000 14.000000 22.490000 C 15.000000 28.490000 21.000000 31.490000 24.000000 32.490002 Z" stroke="#231F20" stroke-width="2.000000" stroke-linecap="round" stroke-linejoin="round" fill="none"/><path d=" M 28.940001 30.000000 C 37.939999 34.000000 47.000000 36.490002 47.000000 43.490002 L 47.000000 46.490002 L 1.000000 46.490002 L 1.000000 43.490002 C 1.000000 36.490002 10.060000 34.000000 19.059999 30.000000" stroke="#231F20" stroke-width="2.000000" stroke-linecap="round" stroke-miterlimit="10.000000" fill="none"/><path d=" M 11.000000 33.490002 C 11.000000 39.490002 24.000000 40.490002 24.000000 46.490002" stroke="#231F20" stroke-width="2.000000" stroke-linecap="round" stroke-linejoin="round" fill="none"/><path d=" M 37.000000 33.490002 C 37.000000 39.490002 24.000000 40.490002 24.000000 46.490002" stroke="#231F20" stroke-width="2.000000" stroke-linecap="round" stroke-linejoin="round" fill="none"/><path d=" M 18.000000 17.490000 C 18.000000 16.389999 18.900000 16.490000 20.000000 16.490000 C 21.100000 16.490000 22.000000 16.389999 22.000000 17.490000" stroke="#231F20" stroke-width="2.000000" stroke-linecap="round" stroke-miterlimit="10.000000" fill="none"/><path d=" M 26.000000 17.490000 C 26.000000 16.389999 26.900000 16.490000 28.000000 16.490000 C 29.100000 16.490000 30.000000 16.389999 30.000000 17.490000" stroke="#231F20" stroke-width="2.000000" stroke-linecap="round" stroke-miterlimit="10.000000" fill="none"/></g></svg>