<svg version="1.1" viewBox="0.000000 0.000000 48.000000 48.000000" xmlns="http://www.w3.org/2000/svg" xmlns:xlink="http://www.w3.org/1999/xlink" overflow="hidden"><defs></defs><g id="icons"><path d=" M 10.000000 29.000000 L 14.000000 29.000000 L 17.000000 25.000000 L 21.000000 31.000000 L 26.000000 21.000000 L 30.000000 35.000000 L 33.000000 29.000000 L 38.000000 29.000000" stroke="#000000" stroke-width="2.000000" stroke-linecap="round" stroke-linejoin="round" fill="none"/><path d=" M 32.000000 7.000000 L 42.000000 7.000000 L 42.000000 47.000000 L 6.000000 47.000000 L 6.000000 7.000000 L 16.000000 7.000000" stroke="#000000" stroke-width="2.000000" stroke-linecap="round" stroke-linejoin="round" fill="none"/><path d=" M 28.000000 5.000000 C 28.000000 2.790861 26.209139 1.000000 24.000000 1.000000 C 21.790861 1.000000 20.000000 2.790861 20.000000 5.000000 L 16.000000 5.000000 L 16.000000 13.000000 L 32.000000 13.000000 L 32.000000 5.000000 Z" stroke="#000000" stroke-width="2.000000" stroke-linecap="round" stroke-linejoin="round" fill="none"/><path d=" M 16.000000 11.000000 L 10.000000 11.000000 L 10.000000 41.000000 L 38.000000 41.000000 L 38.000000 11.000000 L 32.000000 11.000000" stroke="#000000" stroke-width="2.000000" stroke-linecap="round" stroke-linejoin="round" fill="none"/></g></svg>