<svg version="1.1" viewBox="0.000000 0.000000 48.000000 48.000000" xmlns="http://www.w3.org/2000/svg" xmlns:xlink="http://www.w3.org/1999/xlink" overflow="hidden"><defs></defs><g id="icons"><path d=" M 34.000000 9.000000 L 38.000000 9.000000 L 47.000000 33.000000 L 1.000000 33.000000 L 10.000000 9.000000 L 14.000000 9.000000" stroke="#231F20" stroke-width="2.000000" stroke-linecap="round" stroke-linejoin="round" fill="none"/><path d=" M 47.000000 42.000000 C 47.000000 43.656853 45.656853 45.000000 44.000000 45.000000 L 4.000000 45.000000 C 2.343146 45.000000 1.000000 43.656853 1.000000 42.000000 L 1.000000 33.000000 L 47.000000 33.000000 Z" stroke="#231F20" stroke-width="2.000000" stroke-linecap="round" stroke-linejoin="round" fill="none"/><line x1="7.000000" y1="17.000000" x2="41.000000" y2="17.000000" stroke="#231F20" stroke-width="2.000000" stroke-linecap="round" stroke-linejoin="round" fill="none"/><path d=" M 35.000000 13.000000 L 13.000000 13.000000 L 15.000000 7.000000 L 33.000000 7.000000 L 35.000000 13.000000 Z" stroke="#231F20" stroke-width="2.000000" stroke-linecap="round" stroke-linejoin="round" fill="none"/><path d=" M 10.000000 9.000000 L 10.000000 4.000000 C 10.000000 2.343146 11.343145 1.000000 13.000000 1.000000 L 35.000000 1.000000 C 36.656853 1.000000 38.000000 2.343146 38.000000 4.000000 L 38.000000 9.000000" stroke="#231F20" stroke-width="2.000000" stroke-linecap="round" stroke-linejoin="round" fill="none"/><line x1="7.000000" y1="45.000000" x2="7.000000" y2="47.000000" stroke="#231F20" stroke-width="2.000000" stroke-linecap="round" stroke-linejoin="round" fill="none"/><line x1="41.000000" y1="45.000000" x2="41.000000" y2="47.000000" stroke="#231F20" stroke-width="2.000000" stroke-linecap="round" stroke-linejoin="round" fill="none"/></g></svg>