<svg version="1.1" viewBox="0.000000 0.000000 48.000000 48.000000" xmlns="http://www.w3.org/2000/svg" xmlns:xlink="http://www.w3.org/1999/xlink" overflow="hidden"><defs></defs><g id="icons"><path d=" M 12.000000 43.000000 C 10.000000 45.000000 1.490000 46.509998 1.490000 46.509998 C 1.490000 46.509998 3.050000 38.000000 5.000000 36.000000 C 6.932997 34.067005 10.067003 34.067005 12.000000 36.000000 C 13.932997 37.932995 13.932997 41.067005 12.000000 43.000000 Z" stroke="#231F20" stroke-width="2.000000" stroke-linecap="round" stroke-miterlimit="10.000000" fill="none"/><line x1="7.150000" y1="40.860000" x2="2.900000" y2="45.100000" stroke="#231F20" stroke-width="2.000000" stroke-linecap="round" stroke-miterlimit="10.000000" fill="none"/><rect x="8.470000" y="21.530000" width="28.000000" height="8.000000" stroke="#231F20" stroke-width="2.000000" stroke-linecap="round" stroke-linejoin="round" fill="none" transform="matrix(0.707230,-0.706983,0.706983,0.707230,-11.470000,23.360000)"/><path d=" M 39.439999 2.900000 C 37.878769 1.337034 35.346111 1.335625 33.783146 2.896853 C 33.782097 2.897902 33.781048 2.898951 33.779999 2.900000 L 22.469999 14.220000" stroke="#231F20" stroke-width="2.000000" stroke-linecap="round" stroke-miterlimit="10.000000" fill="none"/><rect x="30.030000" y="5.970000" width="16.000000" height="8.000000" stroke="#231F20" stroke-width="2.000000" stroke-linecap="round" stroke-linejoin="round" fill="none" transform="matrix(0.706983,-0.707230,0.707230,0.706983,4.090000,29.810000)"/></g></svg>