<svg version="1.1" viewBox="0.000000 0.000000 48.000000 48.000000" xmlns="http://www.w3.org/2000/svg" xmlns:xlink="http://www.w3.org/1999/xlink" overflow="hidden"><defs></defs><g id="icons"><path d=" M 29.389999 32.709999 C 38.389999 36.709999 47.000000 39.000000 47.000000 46.000000 L 47.000000 47.000000 L 1.000000 47.000000 L 1.000000 46.000000 C 1.000000 39.000000 9.610000 36.709999 18.610001 32.709999" stroke="#231F20" stroke-width="2.000000" stroke-linecap="round" stroke-miterlimit="10.000000" fill="none"/><path d=" M 16.000000 15.000000 L 32.000000 15.000000 L 33.349998 5.570000 C 33.514496 4.420636 33.171459 3.256511 32.410000 2.380000 C 31.655399 1.509431 30.562073 1.006501 29.410000 1.000000 L 18.610001 1.000000 C 17.457928 1.006501 16.364601 1.509431 15.610001 2.380000 C 14.848538 3.256511 14.505505 4.420636 14.670001 5.570000 Z" stroke="#231F20" stroke-width="2.000000" stroke-linecap="round" stroke-linejoin="round" fill="none"/><line x1="24.000000" y1="5.000000" x2="24.000000" y2="11.000000" stroke="#231F20" stroke-width="2.000000" stroke-linecap="round" stroke-linejoin="round" fill="none"/><line x1="21.000000" y1="8.000000" x2="27.000000" y2="8.000000" stroke="#231F20" stroke-width="2.000000" stroke-linecap="round" stroke-linejoin="round" fill="none"/><path d=" M 14.860000 7.000000 C 3.860000 11.000000 8.000000 27.000000 4.000000 30.000000 C 4.000000 30.000000 12.450000 31.889999 15.450000 28.889999" stroke="#231F20" stroke-width="2.000000" stroke-linejoin="round" fill="none"/><path d=" M 33.139999 7.050000 C 44.139999 11.050000 40.000000 27.049999 44.000000 30.049999 C 44.000000 30.049999 35.570000 31.959999 32.570000 28.959999" stroke="#231F20" stroke-width="2.000000" stroke-linejoin="round" fill="none"/><path d=" M 18.000000 15.000000 C 18.000000 17.000000 15.000000 22.000000 11.000000 22.000000" stroke="#231F20" stroke-width="2.000000" stroke-linecap="round" stroke-linejoin="round" fill="none"/><path d=" M 34.000000 21.000000 C 34.000000 33.000000 27.000000 34.000000 24.000000 35.000000 C 21.000000 34.000000 14.000000 33.000000 14.000000 21.000000" stroke="#231F20" stroke-width="2.000000" stroke-linecap="round" stroke-linejoin="round" fill="none"/><path d=" M 30.000000 15.000000 C 30.000000 17.000000 33.000000 22.000000 37.000000 22.000000" stroke="#231F20" stroke-width="2.000000" stroke-linecap="round" stroke-linejoin="round" fill="none"/><line x1="15.900000" y1="33.910000" x2="24.000000" y2="43.000000" stroke="#231F20" stroke-width="2.000000" stroke-linecap="round" stroke-miterlimit="10.000000" fill="none"/><line x1="24.000000" y1="43.000000" x2="32.100000" y2="33.910000" stroke="#231F20" stroke-width="2.000000" stroke-linecap="round" stroke-miterlimit="10.000000" fill="none"/><line x1="24.000000" y1="43.000000" x2="24.000000" y2="47.000000" stroke="#231F20" stroke-width="2.000000" stroke-linecap="round" stroke-miterlimit="10.000000" fill="none"/><path d=" M 13.040000 35.110001 L 16.000000 43.000000 L 23.100000 41.980000" stroke="#231F20" stroke-width="2.000000" stroke-miterlimit="10.000000" fill="none"/><path d=" M 34.959999 35.110001 L 32.000000 43.000000 L 24.900000 41.980000" stroke="#231F20" stroke-width="2.000000" stroke-miterlimit="10.000000" fill="none"/><path d=" M 18.000000 22.000000 C 18.000000 20.900000 18.900000 21.000000 20.000000 21.000000 C 21.100000 21.000000 22.000000 20.900000 22.000000 22.000000" stroke="#231F20" stroke-width="2.000000" stroke-linecap="round" stroke-miterlimit="10.000000" fill="none"/><path d=" M 26.000000 22.000000 C 26.000000 20.900000 26.900000 21.000000 28.000000 21.000000 C 29.100000 21.000000 30.000000 20.900000 30.000000 22.000000" stroke="#231F20" stroke-width="2.000000" stroke-linecap="round" stroke-miterlimit="10.000000" fill="none"/></g></svg>