<svg version="1.1" viewBox="0.000000 0.000000 48.000000 48.000000" xmlns="http://www.w3.org/2000/svg" xmlns:xlink="http://www.w3.org/1999/xlink" overflow="hidden"><defs></defs><g id="icons"><path d=" M 47.000000 24.000000 C 47.000000 36.702549 36.702549 47.000000 24.000000 47.000000 C 11.297451 47.000000 1.000000 36.702549 1.000000 24.000000 C 1.000000 11.297451 11.297451 1.000000 24.000000 1.000000 C 36.702549 1.000000 47.000000 11.297451 47.000000 24.000000 Z" stroke="#000000" stroke-width="2.000000" stroke-linecap="round" stroke-linejoin="round" fill="none"/><circle cx="13.000000" cy="22.000000" r="4.000000" stroke="#000000" stroke-width="2.000000" stroke-linecap="round" stroke-linejoin="round" fill="none"/><path d=" M 39.000000 26.000000 C 39.000000 28.209139 37.209141 30.000000 35.000000 30.000000 C 32.790859 30.000000 31.000000 28.209139 31.000000 26.000000 C 31.000000 23.790861 32.790859 22.000000 35.000000 22.000000 C 37.209141 22.000000 39.000000 23.790861 39.000000 26.000000 Z" stroke="#000000" stroke-width="2.000000" stroke-linecap="round" stroke-linejoin="round" fill="none"/><path d=" M 47.000000 24.000000 C 47.000000 30.070000 42.070000 36.000000 36.000000 36.000000 C 16.000000 36.000000 32.000000 12.000000 12.000000 12.000000 C 5.924868 12.000000 1.000000 16.924868 1.000000 23.000000" stroke="#000000" stroke-width="2.000000" stroke-linecap="round" stroke-linejoin="round" fill="none"/></g></svg>