<svg version="1.1" viewBox="0.000000 0.000000 48.000000 48.000000" xmlns="http://www.w3.org/2000/svg" xmlns:xlink="http://www.w3.org/1999/xlink" overflow="hidden"><defs></defs><g id="icons"><path d=" M 47.000000 23.910000 C 47.005527 36.652828 36.682827 46.988960 23.940001 47.000000 C 11.200000 47.000000 1.000000 36.250000 1.000000 23.500000 C 1.000000 11.080000 10.740000 1.520000 23.000000 1.000000 L 24.000000 1.000000 C 36.624992 0.922649 46.922276 11.094522 46.999626 23.719515 C 47.000015 23.783009 47.000141 23.846504 47.000000 23.910000 Z" stroke="#231F20" stroke-width="2.000000" stroke-miterlimit="10.000000" fill="none"/><path d=" M 23.000000 1.000000 C 11.000000 14.000000 11.000000 31.000000 23.000000 47.000000" stroke="#231F20" stroke-width="2.000000" stroke-miterlimit="10.000000" fill="none"/><path d=" M 25.000000 1.000000 C 37.000000 14.000000 37.000000 31.000000 25.000000 47.000000" stroke="#231F20" stroke-width="2.000000" stroke-miterlimit="10.000000" fill="none"/><line x1="4.540000" y1="35.910000" x2="43.580000" y2="35.910000" stroke="#231F20" stroke-width="2.000000" stroke-miterlimit="10.000000" fill="none"/><line x1="4.210000" y1="11.910000" x2="43.580000" y2="11.910000" stroke="#231F20" stroke-width="2.000000" stroke-miterlimit="10.000000" fill="none"/><line x1="1.000000" y1="23.910000" x2="47.000000" y2="23.910000" stroke="#231F20" stroke-width="2.000000" stroke-miterlimit="10.000000" fill="none"/></g></svg>