<svg version="1.1" viewBox="0.000000 0.000000 48.000000 48.000000" xmlns="http://www.w3.org/2000/svg" xmlns:xlink="http://www.w3.org/1999/xlink" overflow="hidden"><defs></defs><g id="icons"><path d=" M 40.500000 16.389999 C 41.817265 13.349362 40.420197 9.816584 37.379559 8.499318 C 36.398327 8.074228 35.321312 7.919103 34.259998 8.049999 C 32.060757 2.386911 25.687078 -0.421090 20.023991 1.778152 C 16.125944 3.291946 13.423338 6.885032 13.049999 11.049999 C 7.554703 11.600969 3.546535 16.502436 4.097505 21.997732 C 4.608117 27.090500 8.881757 30.975626 13.999999 31.000000 L 36.000000 31.000000 C 40.418278 30.996452 43.997120 27.411854 43.993572 22.993578 C 43.991451 20.350416 42.683914 17.878902 40.500000 16.389999 Z" stroke="#231F20" stroke-width="2.000000" stroke-linecap="round" stroke-linejoin="round" fill="none"/><path d=" M 24.000000 36.000000 C 23.447716 36.000000 23.000000 36.447716 23.000000 37.000000 C 23.000000 37.552284 23.447716 38.000000 24.000000 38.000000 C 24.552284 38.000000 25.000000 37.552284 25.000000 37.000000 C 25.000000 36.447716 24.552284 36.000000 24.000000 36.000000 Z" fill="#231F20"/><path d=" M 36.000000 39.000000 C 35.447716 39.000000 35.000000 39.447716 35.000000 40.000000 C 35.000000 40.552284 35.447716 41.000000 36.000000 41.000000 C 36.552284 41.000000 37.000000 40.552284 37.000000 40.000000 C 37.000000 39.447716 36.552284 39.000000 36.000000 39.000000 Z" fill="#231F20"/><path d=" M 36.000000 45.000000 C 35.447716 45.000000 35.000000 45.447716 35.000000 46.000000 C 35.000000 46.552284 35.447716 47.000000 36.000000 47.000000 C 36.552284 47.000000 37.000000 46.552284 37.000000 46.000000 C 37.000000 45.447716 36.552284 45.000000 36.000000 45.000000 Z" fill="#231F20"/><path d=" M 24.000000 42.000000 C 23.447716 42.000000 23.000000 42.447716 23.000000 43.000000 C 23.000000 43.552284 23.447716 44.000000 24.000000 44.000000 C 24.552284 44.000000 25.000000 43.552284 25.000000 43.000000 C 25.000000 42.447716 24.552284 42.000000 24.000000 42.000000 Z" fill="#231F20"/><path d=" M 32.000000 42.000000 C 31.447716 42.000000 31.000000 42.447716 31.000000 43.000000 C 31.000000 43.552284 31.447716 44.000000 32.000000 44.000000 C 32.552284 44.000000 33.000000 43.552284 33.000000 43.000000 C 33.000000 42.447716 32.552284 42.000000 32.000000 42.000000 Z" fill="#231F20"/><path d=" M 28.000000 45.000000 C 27.447716 45.000000 27.000000 45.447716 27.000000 46.000000 C 27.000000 46.552284 27.447716 47.000000 28.000000 47.000000 C 28.552284 47.000000 29.000000 46.552284 29.000000 46.000000 C 29.000000 45.447716 28.552284 45.000000 28.000000 45.000000 Z" fill="#231F20"/><path d=" M 32.000000 36.000000 C 31.447716 36.000000 31.000000 36.447716 31.000000 37.000000 C 31.000000 37.552284 31.447716 38.000000 32.000000 38.000000 C 32.552284 38.000000 33.000000 37.552284 33.000000 37.000000 C 33.000000 36.447716 32.552284 36.000000 32.000000 36.000000 Z" fill="#231F20"/><path d=" M 28.000000 39.000000 C 27.447716 39.000000 27.000000 39.447716 27.000000 40.000000 C 27.000000 40.552284 27.447716 41.000000 28.000000 41.000000 C 28.552284 41.000000 29.000000 40.552284 29.000000 40.000000 C 29.000000 39.447716 28.552284 39.000000 28.000000 39.000000 Z" fill="#231F20"/><path d=" M 20.000000 39.000000 C 19.447716 39.000000 19.000000 39.447716 19.000000 40.000000 C 19.000000 40.552284 19.447716 41.000000 20.000000 41.000000 C 20.552284 41.000000 21.000000 40.552284 21.000000 40.000000 C 21.000000 39.447716 20.552284 39.000000 20.000000 39.000000 Z" fill="#231F20"/><path d=" M 20.000000 45.000000 C 19.447716 45.000000 19.000000 45.447716 19.000000 46.000000 C 19.000000 46.552284 19.447716 47.000000 20.000000 47.000000 C 20.552284 47.000000 21.000000 46.552284 21.000000 46.000000 C 21.000000 45.447716 20.552284 45.000000 20.000000 45.000000 Z" fill="#231F20"/><path d=" M 16.000000 42.000000 C 15.447715 42.000000 15.000000 42.447716 15.000000 43.000000 C 15.000000 43.552284 15.447715 44.000000 16.000000 44.000000 C 16.552284 44.000000 17.000000 43.552284 17.000000 43.000000 C 17.000000 42.447716 16.552284 42.000000 16.000000 42.000000 Z" fill="#231F20"/><path d=" M 12.000000 45.000000 C 11.447715 45.000000 11.000000 45.447716 11.000000 46.000000 C 11.000000 46.552284 11.447715 47.000000 12.000000 47.000000 C 12.552285 47.000000 13.000000 46.552284 13.000000 46.000000 C 13.000000 45.447716 12.552285 45.000000 12.000000 45.000000 Z" fill="#231F20"/><path d=" M 16.000000 36.000000 C 15.447715 36.000000 15.000000 36.447716 15.000000 37.000000 C 15.000000 37.552284 15.447715 38.000000 16.000000 38.000000 C 16.552284 38.000000 17.000000 37.552284 17.000000 37.000000 C 17.000000 36.447716 16.552284 36.000000 16.000000 36.000000 Z" fill="#231F20"/><path d=" M 12.000000 39.000000 C 11.447715 39.000000 11.000000 39.447716 11.000000 40.000000 C 11.000000 40.552284 11.447715 41.000000 12.000000 41.000000 C 12.552285 41.000000 13.000000 40.552284 13.000000 40.000000 C 13.000000 39.447716 12.552285 39.000000 12.000000 39.000000 Z" fill="#231F20"/></g></svg>