<svg version="1.1" viewBox="0.000000 0.000000 48.000000 48.000000" xmlns="http://www.w3.org/2000/svg" xmlns:xlink="http://www.w3.org/1999/xlink" overflow="hidden"><defs></defs><g id="icons"><path d=" M 41.500000 16.389999 C 42.817265 13.349362 41.420197 9.816584 38.379559 8.499318 C 37.398327 8.074228 36.321312 7.919103 35.259998 8.049999 C 33.060757 2.386911 26.687078 -0.421090 21.023991 1.778152 C 17.125944 3.291946 14.423338 6.885032 14.049999 11.049999 C 8.554704 11.600969 4.546535 16.502436 5.097505 21.997732 C 5.608117 27.090500 9.881757 30.975626 14.999999 31.000000 L 37.000000 31.000000 C 41.418278 30.996452 44.997120 27.411854 44.993572 22.993578 C 44.991451 20.350416 43.683914 17.878902 41.500000 16.389999 Z" stroke="#231F20" stroke-width="2.000000" stroke-linecap="round" stroke-linejoin="round" fill="none"/><circle cx="24.000000" cy="46.000000" r="1.000000" stroke="#231F20" stroke-width="2.000000" stroke-linecap="round" stroke-linejoin="round" fill="none"/><line x1="24.710000" y1="45.290000" x2="33.000000" y2="37.000000" stroke="#231F20" stroke-width="2.000000" stroke-linecap="round" stroke-linejoin="round" fill="none"/><circle cx="16.000000" cy="44.000000" r="1.000000" stroke="#231F20" stroke-width="2.000000" stroke-linecap="round" stroke-linejoin="round" fill="none"/><line x1="16.710000" y1="43.290000" x2="23.000000" y2="37.000000" stroke="#231F20" stroke-width="2.000000" stroke-linecap="round" stroke-linejoin="round" fill="none"/><circle cx="4.000000" cy="46.000000" r="1.000000" stroke="#231F20" stroke-width="2.000000" stroke-linecap="round" stroke-linejoin="round" fill="none"/><line x1="4.710000" y1="45.290000" x2="13.000000" y2="37.000000" stroke="#231F20" stroke-width="2.000000" stroke-linecap="round" stroke-linejoin="round" fill="none"/></g></svg>