<svg version="1.1" viewBox="0.000000 0.000000 48.000000 48.000000" xmlns="http://www.w3.org/2000/svg" xmlns:xlink="http://www.w3.org/1999/xlink" overflow="hidden"><defs></defs><g id="icons"><rect x="3.000000" y="9.000000" width="18.000000" height="30.000000" stroke="#231F20" stroke-width="2.000000" stroke-miterlimit="10.000000" fill="none"/><path d=" M 43.000000 26.000000 C 40.238575 26.000000 38.000000 28.238577 38.000000 31.000000 L 38.000000 35.000000 L 21.000000 35.000000 L 21.000000 13.000000 L 47.000000 13.000000 L 47.000000 26.000000 Z" stroke="#231F20" stroke-width="2.000000" stroke-miterlimit="10.000000" fill="none"/><line x1="25.000000" y1="16.000000" x2="25.000000" y2="18.000000" stroke="#231F20" stroke-width="2.000000" stroke-linecap="square" stroke-miterlimit="10.000000" fill="none"/><line x1="29.000000" y1="16.000000" x2="29.000000" y2="18.000000" stroke="#231F20" stroke-width="2.000000" stroke-linecap="square" stroke-miterlimit="10.000000" fill="none"/><line x1="33.000000" y1="16.000000" x2="33.000000" y2="18.000000" stroke="#231F20" stroke-width="2.000000" stroke-linecap="square" stroke-miterlimit="10.000000" fill="none"/><line x1="25.000000" y1="30.000000" x2="25.000000" y2="32.000000" stroke="#231F20" stroke-width="2.000000" stroke-linecap="square" stroke-miterlimit="10.000000" fill="none"/><line x1="29.000000" y1="30.000000" x2="29.000000" y2="32.000000" stroke="#231F20" stroke-width="2.000000" stroke-linecap="square" stroke-miterlimit="10.000000" fill="none"/><line x1="33.000000" y1="30.000000" x2="33.000000" y2="32.000000" stroke="#231F20" stroke-width="2.000000" stroke-linecap="square" stroke-miterlimit="10.000000" fill="none"/><line x1="37.000000" y1="16.000000" x2="37.000000" y2="18.000000" stroke="#231F20" stroke-width="2.000000" stroke-linecap="square" stroke-miterlimit="10.000000" fill="none"/><line x1="41.000000" y1="16.000000" x2="41.000000" y2="18.000000" stroke="#231F20" stroke-width="2.000000" stroke-linecap="square" stroke-miterlimit="10.000000" fill="none"/><path d=" M 24.000000 9.000000 L 1.000000 9.000000 L 1.000000 6.000000 C 1.000000 5.447715 1.447715 5.000000 2.000000 5.000000 L 23.000000 5.000000 C 23.552284 5.000000 24.000000 5.447715 24.000000 6.000000 Z" stroke="#231F20" stroke-width="2.000000" stroke-linecap="square" stroke-miterlimit="10.000000" fill="none"/><path d=" M 24.000000 42.000000 C 24.000000 42.552284 23.552284 43.000000 23.000000 43.000000 L 2.000000 43.000000 C 1.447715 43.000000 1.000000 42.552284 1.000000 42.000000 L 1.000000 39.000000 L 24.000000 39.000000 Z" stroke="#231F20" stroke-width="2.000000" stroke-linecap="square" stroke-miterlimit="10.000000" fill="none"/></g></svg>