<svg version="1.1" viewBox="0.000000 0.000000 48.000000 48.000000" xmlns="http://www.w3.org/2000/svg" xmlns:xlink="http://www.w3.org/1999/xlink" overflow="hidden"><defs></defs><g id="icons"><line x1="1.000000" y1="20.000000" x2="7.000000" y2="20.000000" stroke="#231F20" stroke-width="2.000000" stroke-linecap="round" stroke-linejoin="round" fill="none"/><path d=" M 5.000000 25.000000 L 1.000000 20.000000 L 5.000000 15.000000" stroke="#231F20" stroke-width="2.000000" stroke-linecap="round" stroke-linejoin="round" fill="none"/><line x1="47.000000" y1="20.000000" x2="41.000000" y2="20.000000" stroke="#231F20" stroke-width="2.000000" stroke-linecap="round" stroke-linejoin="round" fill="none"/><path d=" M 43.000000 25.000000 L 47.000000 20.000000 L 43.000000 15.000000" stroke="#231F20" stroke-width="2.000000" stroke-linecap="round" stroke-linejoin="round" fill="none"/><path d=" M 13.000000 27.889999 C 9.173659 21.814867 10.996664 13.788137 17.071796 9.961796 C 23.146929 6.135455 31.173658 7.958460 35.000000 14.033592 C 37.666668 18.267494 37.666668 23.656097 35.000000 27.889999" stroke="#231F20" stroke-width="2.000000" stroke-linecap="round" stroke-linejoin="round" fill="none"/><path d=" M 17.000000 40.000000 L 17.000000 21.000000 C 17.000000 17.134007 20.134007 14.000000 24.000000 14.000000 C 27.865993 14.000000 31.000000 17.134007 31.000000 21.000000 L 31.000000 40.000000" stroke="#231F20" stroke-width="2.000000" stroke-linecap="round" stroke-linejoin="round" fill="none"/><path d=" M 27.000000 21.000000 C 27.000000 19.343145 25.656855 18.000000 24.000000 18.000000 C 22.343145 18.000000 21.000000 19.343145 21.000000 21.000000 L 21.000000 24.000000 L 27.000000 24.000000 Z" stroke="#231F20" stroke-width="2.000000" stroke-linecap="round" stroke-linejoin="round" fill="none"/></g></svg>