<svg version="1.1" viewBox="0.000000 0.000000 48.000000 48.000000" xmlns="http://www.w3.org/2000/svg" xmlns:xlink="http://www.w3.org/1999/xlink" overflow="hidden"><defs></defs><g id="icons"><path d=" M 24.000000 11.000000 C 24.000000 7.130000 34.299999 4.000000 46.000000 4.000000 L 46.000000 37.000000 C 34.299999 37.000000 24.000000 40.130001 24.000000 44.000000 C 24.000000 40.130001 13.700000 37.000000 2.000000 37.000000 L 2.000000 4.000000 C 13.700000 4.000000 24.000000 7.130000 24.000000 11.000000 Z" stroke="#231F20" stroke-width="2.000000" stroke-linecap="round" stroke-linejoin="round" fill="none"/><line x1="24.000000" y1="11.000000" x2="24.000000" y2="43.000000" stroke="#231F20" stroke-width="2.000000" stroke-linecap="round" stroke-linejoin="round" fill="none"/><path d=" M 19.000000 15.480000 C 14.806054 14.041576 10.428947 13.206559 6.000000 13.000000" stroke="#231F20" stroke-width="2.000000" stroke-linecap="round" stroke-linejoin="round" fill="none"/><path d=" M 19.000000 21.480000 C 14.806054 20.041576 10.428947 19.206558 6.000000 19.000000" stroke="#231F20" stroke-width="2.000000" stroke-linecap="round" stroke-linejoin="round" fill="none"/><path d=" M 19.000000 27.480000 C 14.806054 26.041576 10.428947 25.206558 6.000000 25.000000" stroke="#231F20" stroke-width="2.000000" stroke-linecap="round" stroke-linejoin="round" fill="none"/><path d=" M 19.000000 33.480000 C 14.806054 32.041576 10.428947 31.206558 6.000000 31.000000" stroke="#231F20" stroke-width="2.000000" stroke-linecap="round" stroke-linejoin="round" fill="none"/><path d=" M 29.000000 27.480000 C 33.193947 26.041576 37.571053 25.206558 42.000000 25.000000" stroke="#231F20" stroke-width="2.000000" stroke-linecap="round" stroke-linejoin="round" fill="none"/><path d=" M 29.000000 33.480000 C 33.193947 32.041576 37.571053 31.206558 42.000000 31.000000" stroke="#231F20" stroke-width="2.000000" stroke-linecap="round" stroke-linejoin="round" fill="none"/><path d=" M 42.000000 4.000000 L 42.000000 21.000000 L 38.000000 17.000000 L 34.000000 21.000000 L 34.000000 5.000000" stroke="#231F20" stroke-width="2.000000" stroke-miterlimit="10.000000" fill="none"/></g></svg>