<svg version="1.1" viewBox="0.000000 0.000000 48.000000 48.000000" xmlns="http://www.w3.org/2000/svg" xmlns:xlink="http://www.w3.org/1999/xlink" overflow="hidden"><defs></defs><g id="icons"><path d=" M 43.000000 1.000000 L 11.000000 1.000000 C 8.790861 1.000000 7.000000 2.790861 7.000000 5.000000 C 7.000000 7.209139 8.790861 9.000000 11.000000 9.000000 L 43.000000 9.000000 L 43.000000 47.000000 L 11.000000 47.000000 C 8.790861 47.000000 7.000000 45.209141 7.000000 43.000000 L 7.000000 5.000000" stroke="#231F20" stroke-width="2.000000" stroke-linecap="round" stroke-miterlimit="10.000000" fill="none"/><line x1="11.000000" y1="5.000000" x2="41.000000" y2="5.000000" stroke="#231F20" stroke-width="2.000000" stroke-linecap="round" stroke-miterlimit="10.000000" fill="none"/><line x1="5.000000" y1="15.000000" x2="9.000000" y2="15.000000" stroke="#231F20" stroke-width="2.000000" stroke-linecap="round" stroke-miterlimit="10.000000" fill="none"/><line x1="5.000000" y1="21.000000" x2="9.000000" y2="21.000000" stroke="#231F20" stroke-width="2.000000" stroke-linecap="round" stroke-miterlimit="10.000000" fill="none"/><line x1="5.000000" y1="27.000000" x2="9.000000" y2="27.000000" stroke="#231F20" stroke-width="2.000000" stroke-linecap="round" stroke-miterlimit="10.000000" fill="none"/><line x1="5.000000" y1="33.000000" x2="9.000000" y2="33.000000" stroke="#231F20" stroke-width="2.000000" stroke-linecap="round" stroke-miterlimit="10.000000" fill="none"/><line x1="5.000000" y1="39.000000" x2="9.000000" y2="39.000000" stroke="#231F20" stroke-width="2.000000" stroke-linecap="round" stroke-miterlimit="10.000000" fill="none"/><path d=" M 29.000000 29.160000 L 29.000000 32.000000 L 34.080002 33.450001 C 35.185772 33.821136 35.948948 34.834728 36.000000 36.000000 L 36.000000 39.000000 L 16.000000 39.000000 L 16.000000 36.000000 C 16.051054 34.834728 16.814230 33.821136 17.920000 33.450001 L 23.000000 32.000000 L 23.000000 29.160000" stroke="#231F20" stroke-width="2.000000" stroke-miterlimit="10.000000" fill="none"/><path d=" M 32.000000 23.540001 C 32.146767 27.001968 29.461769 29.928617 26.000000 30.080002 C 22.538231 29.928617 19.853233 27.001970 20.000000 23.540001 C 19.858818 20.080074 22.540745 17.156775 26.000000 17.000000 C 29.459255 17.156773 32.141182 20.080072 32.000000 23.540001 Z" stroke="#231F20" stroke-width="2.000000" stroke-miterlimit="10.000000" fill="none"/><path d=" M 31.920000 22.420000 C 30.373663 23.504646 28.240829 23.130371 27.156181 21.584034 C 27.100697 21.504932 27.048590 21.423513 27.000000 21.340000 C 25.158560 23.127750 22.355301 23.478666 20.129999 22.200001" stroke="#231F20" stroke-width="2.000000" stroke-linejoin="round" fill="none"/></g></svg>