<svg version="1.1" viewBox="0.000000 0.000000 48.000000 48.000000" xmlns="http://www.w3.org/2000/svg" xmlns:xlink="http://www.w3.org/1999/xlink" overflow="hidden"><defs></defs><g id="icons"><line x1="24.000000" y1="40.000000" x2="24.000000" y2="47.000000" stroke="#231F20" stroke-width="2.000000" stroke-linejoin="round" fill="none"/><line x1="18.000000" y1="47.000000" x2="30.000000" y2="47.000000" stroke="#231F20" stroke-width="2.000000" stroke-linecap="round" stroke-linejoin="round" fill="none"/><path d=" M 11.000000 24.000000 C 11.000000 20.686291 13.686292 18.000000 17.000000 18.000000 C 20.313709 18.000000 23.000000 20.686291 23.000000 24.000000" stroke="#231F20" stroke-width="2.000000" stroke-linecap="round" stroke-linejoin="round" fill="none"/><path d=" M 25.000000 24.000000 C 25.000000 20.686291 27.686291 18.000000 31.000000 18.000000 C 34.313709 18.000000 37.000000 20.686291 37.000000 24.000000" stroke="#231F20" stroke-width="2.000000" stroke-linecap="round" stroke-linejoin="round" fill="none"/><path d=" M 18.000000 18.000000 C 18.000000 14.686292 20.686291 12.000000 24.000000 12.000000 C 27.313709 12.000000 30.000000 14.686292 30.000000 18.000000" stroke="#231F20" stroke-width="2.000000" stroke-linecap="round" stroke-linejoin="round" fill="none"/><path d=" M 24.000000 40.000000 C 32.836555 40.000000 40.000000 32.836555 40.000000 24.000000 L 8.000000 24.000000 C 8.000000 32.836555 15.163444 40.000000 24.000000 40.000000 Z" stroke="#231F20" stroke-width="2.000000" stroke-linecap="round" stroke-linejoin="round" fill="none"/><line x1="14.210000" y1="18.690000" x2="10.000000" y2="1.000000" stroke="#231F20" stroke-width="2.000000" stroke-linecap="round" stroke-linejoin="round" fill="none"/><circle cx="24.000000" cy="10.000000" r="2.000000" stroke="#231F20" stroke-width="2.000000" stroke-linecap="round" stroke-linejoin="round" fill="none"/><line x1="24.000000" y1="8.000000" x2="26.000000" y2="5.000000" stroke="#231F20" stroke-width="2.000000" stroke-linecap="round" stroke-linejoin="round" fill="none"/></g></svg>