<svg version="1.1" viewBox="0.000000 0.000000 48.000000 48.000000" xmlns="http://www.w3.org/2000/svg" xmlns:xlink="http://www.w3.org/1999/xlink" overflow="hidden"><defs></defs><g id="icons"><path d=" M 32.000000 45.000000 L 25.000000 47.000000 L 27.000000 40.000000 L 42.000000 25.000000 L 47.000000 30.000000 L 32.000000 45.000000 Z" stroke="#231F20" stroke-width="2.000000" stroke-linecap="round" stroke-linejoin="round" fill="none"/><line x1="38.000000" y1="29.000000" x2="43.000000" y2="34.000000" stroke="#231F20" stroke-width="2.000000" stroke-linejoin="round" fill="none"/><line x1="27.000000" y1="40.000000" x2="32.000000" y2="45.000000" stroke="#231F20" stroke-width="2.000000" stroke-linecap="round" stroke-linejoin="round" fill="none"/><path d=" M 20.000000 43.000000 L 5.000000 43.000000 C 2.790861 43.000000 1.000000 41.209141 1.000000 39.000000 L 1.000000 7.000000 L 9.000000 7.000000" stroke="#231F20" stroke-width="2.000000" stroke-linecap="round" stroke-linejoin="round" fill="none"/><path d=" M 19.000000 39.000000 L 5.000000 39.000000 L 5.000000 11.000000 L 9.000000 11.000000" stroke="#231F20" stroke-width="2.000000" stroke-linecap="round" stroke-linejoin="round" fill="none"/><path d=" M 33.000000 20.000000 L 33.000000 7.000000 L 25.000000 7.000000" stroke="#231F20" stroke-width="2.000000" stroke-linecap="round" stroke-linejoin="round" fill="none"/><path d=" M 21.000000 5.000000 C 21.101871 2.892733 19.476179 1.101872 17.368912 1.000000 C 17.246014 0.994059 17.122898 0.994059 17.000000 1.000000 C 14.892734 0.898128 13.101872 2.523821 13.000000 4.631088 C 12.994059 4.753987 12.994059 4.877101 13.000000 5.000000 L 9.000000 5.000000 L 9.000000 13.000000 L 25.000000 13.000000 L 25.000000 5.000000 Z" stroke="#231F20" stroke-width="2.000000" stroke-linecap="round" stroke-linejoin="round" fill="none"/><path d=" M 25.000000 11.000000 L 29.000000 11.000000 L 29.000000 20.000000" stroke="#231F20" stroke-width="2.000000" stroke-linecap="round" stroke-linejoin="round" fill="none"/><line x1="11.000000" y1="19.000000" x2="21.000000" y2="19.000000" stroke="#231F20" stroke-width="2.000000" stroke-linecap="round" stroke-linejoin="round" fill="none"/><line x1="11.000000" y1="23.000000" x2="21.000000" y2="23.000000" stroke="#231F20" stroke-width="2.000000" stroke-linecap="round" stroke-linejoin="round" fill="none"/><line x1="11.000000" y1="27.000000" x2="21.000000" y2="27.000000" stroke="#231F20" stroke-width="2.000000" stroke-linecap="round" stroke-linejoin="round" fill="none"/><line x1="11.000000" y1="31.000000" x2="17.000000" y2="31.000000" stroke="#231F20" stroke-width="2.000000" stroke-linecap="round" stroke-linejoin="round" fill="none"/></g></svg>