<svg version="1.1" viewBox="0.000000 0.000000 48.000000 48.000000" xmlns="http://www.w3.org/2000/svg" xmlns:xlink="http://www.w3.org/1999/xlink" overflow="hidden"><defs></defs><g id="icons"><rect x="1.000000" y="1.000000" width="46.000000" height="46.000000" stroke="#231F20" stroke-width="2.000000" stroke-linecap="round" stroke-linejoin="round" fill="none"/><path d=" M 15.000000 7.000000 C 15.000000 8.104569 14.104569 9.000000 13.000000 9.000000 L 9.000000 9.000000 C 7.895431 9.000000 7.000000 8.104569 7.000000 7.000000 L 7.000000 7.000000 C 7.000000 5.895431 7.895431 5.000000 9.000000 5.000000 L 13.000000 5.000000 C 14.104569 5.000000 15.000000 5.895431 15.000000 7.000000 Z" stroke="#231F20" stroke-width="2.000000" stroke-linecap="round" stroke-linejoin="round" fill="none"/><path d=" M 15.000000 15.000000 C 15.000000 16.104570 14.104569 17.000000 13.000000 17.000000 L 9.000000 17.000000 C 7.895431 17.000000 7.000000 16.104570 7.000000 15.000000 L 7.000000 15.000000 C 7.000000 13.895431 7.895431 13.000000 9.000000 13.000000 L 13.000000 13.000000 C 14.104569 13.000000 15.000000 13.895431 15.000000 15.000000 Z" stroke="#231F20" stroke-width="2.000000" stroke-linecap="round" stroke-linejoin="round" fill="none"/><path d=" M 15.000000 41.000000 C 15.000000 42.104568 14.104569 43.000000 13.000000 43.000000 L 9.000000 43.000000 C 7.895431 43.000000 7.000000 42.104568 7.000000 41.000000 L 7.000000 41.000000 C 7.000000 39.895432 7.895431 39.000000 9.000000 39.000000 L 13.000000 39.000000 C 14.104569 39.000000 15.000000 39.895432 15.000000 41.000000 Z" stroke="#231F20" stroke-width="2.000000" stroke-linecap="round" stroke-linejoin="round" fill="none"/><path d=" M 28.000000 7.000000 C 28.000000 8.104569 27.104570 9.000000 26.000000 9.000000 L 22.000000 9.000000 C 20.895430 9.000000 20.000000 8.104569 20.000000 7.000000 L 20.000000 7.000000 C 20.000000 5.895431 20.895430 5.000000 22.000000 5.000000 L 26.000000 5.000000 C 27.104570 5.000000 28.000000 5.895431 28.000000 7.000000 Z" stroke="#231F20" stroke-width="2.000000" stroke-linecap="round" stroke-linejoin="round" fill="none"/><path d=" M 41.000000 23.000000 C 41.000000 24.104570 40.104568 25.000000 39.000000 25.000000 L 35.000000 25.000000 C 33.895432 25.000000 33.000000 24.104570 33.000000 23.000000 L 33.000000 23.000000 C 33.000000 21.895430 33.895432 21.000000 35.000000 21.000000 L 39.000000 21.000000 C 40.104568 21.000000 41.000000 21.895430 41.000000 23.000000 Z" stroke="#231F20" stroke-width="2.000000" stroke-linecap="round" stroke-linejoin="round" fill="none"/><path d=" M 41.000000 7.000000 C 41.000000 8.104569 40.104568 9.000000 39.000000 9.000000 L 35.000000 9.000000 C 33.895432 9.000000 33.000000 8.104569 33.000000 7.000000 L 33.000000 7.000000 C 33.000000 5.895431 33.895432 5.000000 35.000000 5.000000 L 39.000000 5.000000 C 40.104568 5.000000 41.000000 5.895431 41.000000 7.000000 Z" stroke="#231F20" stroke-width="2.000000" stroke-linecap="round" stroke-linejoin="round" fill="none"/><path d=" M 41.000000 15.000000 C 41.000000 16.104570 40.104568 17.000000 39.000000 17.000000 L 35.000000 17.000000 C 33.895432 17.000000 33.000000 16.104570 33.000000 15.000000 L 33.000000 15.000000 C 33.000000 13.895431 33.895432 13.000000 35.000000 13.000000 L 39.000000 13.000000 C 40.104568 13.000000 41.000000 13.895431 41.000000 15.000000 Z" stroke="#231F20" stroke-width="2.000000" stroke-linecap="round" stroke-linejoin="round" fill="none"/><path d=" M 28.000000 33.000000 C 28.000000 34.104568 27.104570 35.000000 26.000000 35.000000 L 22.000000 35.000000 C 20.895430 35.000000 20.000000 34.104568 20.000000 33.000000 L 20.000000 33.000000 C 20.000000 31.895430 20.895430 31.000000 22.000000 31.000000 L 26.000000 31.000000 C 27.104570 31.000000 28.000000 31.895430 28.000000 33.000000 Z" stroke="#231F20" stroke-width="2.000000" stroke-linecap="round" stroke-linejoin="round" fill="none"/><path d=" M 28.000000 41.000000 C 28.000000 42.104568 27.104570 43.000000 26.000000 43.000000 L 22.000000 43.000000 C 20.895430 43.000000 20.000000 42.104568 20.000000 41.000000 L 20.000000 41.000000 C 20.000000 39.895432 20.895430 39.000000 22.000000 39.000000 L 26.000000 39.000000 C 27.104570 39.000000 28.000000 39.895432 28.000000 41.000000 Z" stroke="#231F20" stroke-width="2.000000" stroke-linecap="round" stroke-linejoin="round" fill="none"/><line x1="24.000000" y1="43.000000" x2="24.000000" y2="47.000000" stroke="#231F20" stroke-width="2.000000" stroke-linecap="round" stroke-linejoin="round" fill="none"/><line x1="11.000000" y1="43.000000" x2="11.000000" y2="47.000000" stroke="#231F20" stroke-width="2.000000" stroke-linecap="round" stroke-linejoin="round" fill="none"/><line x1="24.000000" y1="35.000000" x2="24.000000" y2="39.000000" stroke="#231F20" stroke-width="2.000000" stroke-linecap="round" stroke-linejoin="round" fill="none"/><line x1="24.000000" y1="9.000000" x2="24.000000" y2="31.000000" stroke="#231F20" stroke-width="2.000000" stroke-linecap="round" stroke-linejoin="round" fill="none"/><line x1="11.000000" y1="17.000000" x2="11.000000" y2="39.000000" stroke="#231F20" stroke-width="2.000000" stroke-linecap="round" stroke-linejoin="round" fill="none"/><line x1="11.000000" y1="9.000000" x2="11.000000" y2="13.000000" stroke="#231F20" stroke-width="2.000000" stroke-linecap="round" stroke-linejoin="round" fill="none"/><line x1="11.000000" y1="1.000000" x2="11.000000" y2="5.000000" stroke="#231F20" stroke-width="2.000000" stroke-linecap="round" stroke-linejoin="round" fill="none"/><line x1="24.000000" y1="1.000000" x2="24.000000" y2="5.000000" stroke="#231F20" stroke-width="2.000000" stroke-linecap="round" stroke-linejoin="round" fill="none"/><line x1="37.000000" y1="17.000000" x2="37.000000" y2="21.000000" stroke="#231F20" stroke-width="2.000000" stroke-linecap="round" stroke-linejoin="round" fill="none"/><line x1="37.000000" y1="25.000000" x2="37.000000" y2="47.000000" stroke="#231F20" stroke-width="2.000000" stroke-linecap="round" stroke-linejoin="round" fill="none"/><line x1="37.000000" y1="9.000000" x2="37.000000" y2="13.000000" stroke="#231F20" stroke-width="2.000000" stroke-linecap="round" stroke-linejoin="round" fill="none"/><line x1="37.000000" y1="1.000000" x2="37.000000" y2="5.000000" stroke="#231F20" stroke-width="2.000000" stroke-linecap="round" stroke-linejoin="round" fill="none"/></g></svg>