<svg version="1.1" viewBox="0.000000 0.000000 48.000000 48.000000" xmlns="http://www.w3.org/2000/svg" xmlns:xlink="http://www.w3.org/1999/xlink" overflow="hidden"><defs></defs><g id="icons"><path d=" M 47.000000 21.520000 C 47.000000 31.879999 36.700001 40.279999 24.000000 40.279999 C 21.270020 40.283829 18.554312 39.886246 15.940000 39.099998 L 2.720000 45.250000 L 7.900000 34.919998 C 3.663561 31.750528 1.119295 26.809490 1.000000 21.519999 C 1.000000 11.150000 11.300000 2.750000 24.000000 2.750000 C 36.700001 2.750000 47.000000 11.150000 47.000000 21.520000 Z" stroke="#231F20" stroke-width="2.000000" stroke-linejoin="round" fill="none"/><path d=" M 25.000000 28.750000 C 23.895430 28.750000 23.000000 29.645430 23.000000 30.750000 C 23.000000 31.854570 23.895430 32.750000 25.000000 32.750000 C 26.104570 32.750000 27.000000 31.854570 27.000000 30.750000 C 27.000000 29.645430 26.104570 28.750000 25.000000 28.750000 Z" stroke="#231F20" stroke-width="2.000000" stroke-linejoin="round" fill="none"/><path d=" M 19.000000 18.000000 C 18.993999 14.664145 21.664680 11.940051 25.000000 11.880000 C 28.277809 11.745425 31.044094 14.293520 31.178669 17.571331 C 31.313244 20.849140 28.765148 23.615425 25.487339 23.750000 C 25.324961 23.756666 25.162378 23.756666 25.000000 23.750000 L 25.000000 26.250000" stroke="#231F20" stroke-width="2.000000" stroke-linejoin="round" fill="none"/></g></svg>