<svg version="1.1" viewBox="0.000000 0.000000 48.000000 48.000000" xmlns="http://www.w3.org/2000/svg" xmlns:xlink="http://www.w3.org/1999/xlink" overflow="hidden"><defs></defs><g id="icons"><line x1="1.500000" y1="9.000000" x2="41.500000" y2="9.000000" stroke="#231F20" stroke-width="2.000000" stroke-linecap="round" stroke-linejoin="round" fill="none"/><path d=" M 7.500000 4.000000 C 6.947715 4.000000 6.500000 4.447715 6.500000 5.000000 C 6.500000 5.552285 6.947715 6.000000 7.500000 6.000000 C 8.052285 6.000000 8.500000 5.552285 8.500000 5.000000 C 8.500000 4.447715 8.052285 4.000000 7.500000 4.000000 Z" fill="#231F20"/><path d=" M 11.500000 4.000000 C 10.947715 4.000000 10.500000 4.447715 10.500000 5.000000 C 10.500000 5.552285 10.947715 6.000000 11.500000 6.000000 C 12.052285 6.000000 12.500000 5.552285 12.500000 5.000000 C 12.500000 4.447715 12.052285 4.000000 11.500000 4.000000 Z" fill="#231F20"/><path d=" M 15.500000 4.000000 C 14.947715 4.000000 14.500000 4.447715 14.500000 5.000000 C 14.500000 5.552285 14.947715 6.000000 15.500000 6.000000 C 16.052284 6.000000 16.500000 5.552285 16.500000 5.000000 C 16.500000 4.447715 16.052284 4.000000 15.500000 4.000000 Z" fill="#231F20"/><path d=" M 19.500000 33.000000 L 5.500000 33.000000 C 3.290861 33.000000 1.500000 31.209139 1.500000 29.000000 L 1.500000 5.000000 C 1.500000 2.790861 3.290861 1.000000 5.500000 1.000000 L 37.500000 1.000000 C 39.709141 1.000000 41.500000 2.790861 41.500000 5.000000 L 41.500000 21.000000" stroke="#231F20" stroke-width="2.000000" stroke-linecap="round" stroke-miterlimit="10.000000" fill="none"/><path d=" M 38.299999 46.599998 C 32.998066 48.146397 27.446396 45.101933 25.900000 39.799999 C 24.353601 34.498066 27.398066 28.946396 32.700001 27.400000 C 38.001934 25.853601 43.553604 28.898066 45.100002 34.200001" stroke="#231F20" stroke-width="2.000000" stroke-linecap="round" stroke-miterlimit="10.000000" fill="none"/><path d=" M 46.500000 28.719999 L 45.099998 34.200001 L 39.619999 32.799999" stroke="#231F20" stroke-width="2.000000" stroke-linecap="round" stroke-linejoin="round" fill="none"/></g></svg>