<svg version="1.1" viewBox="0.000000 0.000000 48.000000 48.000000" xmlns="http://www.w3.org/2000/svg" xmlns:xlink="http://www.w3.org/1999/xlink" overflow="hidden"><defs></defs><g id="icons"><path d=" M 37.389999 33.279999 C 37.389999 33.279999 46.000000 32.160000 46.000000 23.719999 C 46.003750 18.445681 41.731110 14.166963 36.456791 14.163214 C 36.334496 14.163127 36.212208 14.165389 36.090000 14.169999 C 32.940609 7.491266 24.973339 4.630169 18.294605 7.779561 C 13.868604 9.866665 10.936387 14.204972 10.650001 19.089998 C 6.775399 18.272608 2.971788 20.750967 2.154397 24.625568 C 2.052809 25.107119 2.001070 25.597851 2.000001 26.089998 C 2.000000 33.380001 9.650000 33.259998 9.650000 33.259998" stroke="#231F20" stroke-width="2.000000" stroke-linecap="round" stroke-miterlimit="10.000000" fill="none"/><path d=" M 30.930000 29.500000 C 33.139141 33.326340 31.828138 38.219063 28.001797 40.428204 C 24.175455 42.637344 19.282732 41.326340 17.073593 37.500000 C 14.864454 33.673660 16.175455 28.780935 20.001797 26.571796 C 21.217422 25.869955 22.596315 25.500315 24.000000 25.500000 L 26.000000 25.500000" stroke="#231F20" stroke-width="2.000000" stroke-linecap="round" stroke-miterlimit="10.000000" fill="none"/><path d=" M 23.000000 22.500000 L 26.000000 25.500000 L 23.000000 28.500000" stroke="#231F20" stroke-width="2.000000" stroke-linecap="round" stroke-miterlimit="10.000000" fill="none"/></g></svg>