<svg version="1.1" viewBox="0.000000 0.000000 48.000000 48.000000" xmlns="http://www.w3.org/2000/svg" xmlns:xlink="http://www.w3.org/1999/xlink" overflow="hidden"><defs></defs><g id="icons"><circle cx="24.000000" cy="26.670000" r="19.000000" stroke="#231F20" stroke-width="2.000000" stroke-linecap="round" stroke-linejoin="round" fill="none"/><line x1="13.310000" y1="42.370000" x2="10.000000" y2="45.670000" stroke="#231F20" stroke-width="2.000000" stroke-linecap="round" stroke-linejoin="round" fill="none"/><line x1="34.690000" y1="42.360000" x2="38.000000" y2="45.670000" stroke="#231F20" stroke-width="2.000000" stroke-linecap="round" stroke-linejoin="round" fill="none"/><path d=" M 17.000000 27.670000 L 25.000000 27.670000 L 25.000000 15.670000" stroke="#231F20" stroke-width="2.000000" stroke-linecap="round" stroke-linejoin="round" fill="none"/><path d=" M 4.000000 15.670000 C 0.962434 12.749311 0.867686 7.919192 3.788374 4.881626 C 3.857526 4.809707 3.928081 4.739152 4.000000 4.670000 C 6.920688 1.632434 11.750808 1.537686 14.788374 4.458374 C 14.860292 4.527525 14.930848 4.598081 15.000000 4.670000" stroke="#231F20" stroke-width="2.000000" stroke-linecap="round" stroke-linejoin="round" fill="none"/><path d=" M 44.000000 15.670000 C 47.037567 12.749311 47.132313 7.919192 44.211624 4.881626 C 44.142471 4.809707 44.071918 4.739152 44.000000 4.670000 C 41.079311 1.632434 36.249191 1.537686 33.211624 4.458374 C 33.139706 4.527525 33.069149 4.598081 33.000000 4.670000" stroke="#231F20" stroke-width="2.000000" stroke-linecap="round" stroke-linejoin="round" fill="none"/></g></svg>