<svg version="1.1" viewBox="0.000000 0.000000 48.000000 48.000000" xmlns="http://www.w3.org/2000/svg" xmlns:xlink="http://www.w3.org/1999/xlink" overflow="hidden"><defs></defs><g id="icons"><path d=" M 33.000000 47.000000 L 15.000000 47.000000 C 15.000000 42.000000 19.000000 35.000000 24.000000 35.000000 C 29.000000 35.000000 33.000000 42.000000 33.000000 47.000000 Z" stroke="#231F20" stroke-width="2.000000" stroke-linecap="round" stroke-linejoin="round" fill="none"/><circle cx="24.000000" cy="25.000000" r="6.000000" stroke="#231F20" stroke-width="2.000000" stroke-linecap="round" stroke-linejoin="round" fill="none"/><path d=" M 13.390000 34.610001 C 7.534013 28.750259 7.537057 19.252785 13.396798 13.396798 C 19.256538 7.540811 28.754013 7.543855 34.610001 13.403596 C 40.463333 19.260681 40.463333 28.752914 34.610001 34.610001" stroke="#231F20" stroke-width="2.000000" stroke-linecap="round" stroke-linejoin="round" fill="none"/><path d=" M 7.740000 40.259998 C -1.243967 31.279848 -1.247061 16.717054 7.733088 7.733087 C 16.713238 -1.250880 31.276033 -1.253974 40.259998 7.726176 C 49.243965 16.706326 49.247059 31.269119 40.266911 40.253086 C 40.264606 40.255390 40.262302 40.257694 40.259998 40.259998" stroke="#231F20" stroke-width="2.000000" stroke-linecap="round" stroke-linejoin="round" fill="none"/></g></svg>