<svg version="1.1" viewBox="0.000000 0.000000 48.000000 48.000000" xmlns="http://www.w3.org/2000/svg" xmlns:xlink="http://www.w3.org/1999/xlink" overflow="hidden"><defs></defs><g id="icons"><path d=" M 24.000000 17.070000 C 22.895430 17.070000 22.000000 17.965429 22.000000 19.070000 C 22.000000 20.174570 22.895430 21.070000 24.000000 21.070000 C 25.104570 21.070000 26.000000 20.174570 26.000000 19.070000 C 26.000000 17.965429 25.104570 17.070000 24.000000 17.070000 Z" fill="#231F20"/><line x1="21.000000" y1="16.070000" x2="22.590000" y2="17.660000" stroke="#231F20" stroke-width="2.000000" stroke-linecap="round" stroke-miterlimit="10.000000" fill="none"/><line x1="21.000000" y1="22.070000" x2="22.590000" y2="20.490000" stroke="#231F20" stroke-width="2.000000" stroke-linecap="round" stroke-miterlimit="10.000000" fill="none"/><line x1="10.000000" y1="43.000000" x2="10.000000" y2="47.000000" stroke="#231F20" stroke-width="2.000000" stroke-linecap="round" stroke-miterlimit="10.000000" fill="none"/><line x1="38.000000" y1="43.000000" x2="38.000000" y2="47.000000" stroke="#231F20" stroke-width="2.000000" stroke-linecap="round" stroke-miterlimit="10.000000" fill="none"/><path d=" M 43.000000 39.070000 C 42.994728 41.245995 41.226463 43.005714 39.050468 43.000446 C 39.033646 43.000404 39.016823 43.000256 39.000000 43.000000 L 9.000000 43.000000 C 6.824251 43.033142 5.033589 41.296219 5.000445 39.120468 C 5.000189 39.103645 5.000041 39.086823 5.000000 39.070000 L 5.000000 36.000000 C 4.999513 34.248852 6.138139 32.700966 7.810000 32.180000 C 11.600000 31.000000 18.510000 29.070000 24.000000 29.070000 C 29.490000 29.070000 36.400002 31.000000 40.189999 32.139999 C 41.876057 32.665287 43.018120 34.234100 43.000000 36.000000 Z" stroke="#231F20" stroke-width="2.000000" stroke-miterlimit="10.000000" fill="none"/><path d=" M 42.820000 34.790001 C 45.977581 33.784843 47.722466 30.410275 46.717304 27.252693 C 45.712147 24.095112 42.337578 22.350229 39.179996 23.355387 C 36.691471 24.147564 35.001171 26.458429 34.999996 29.070000 C 35.001846 29.638409 35.082619 30.203808 35.239998 30.750000" stroke="#231F20" stroke-width="2.000000" stroke-miterlimit="10.000000" fill="none"/><path d=" M 12.760000 30.750000 C 12.917377 30.203808 12.998149 29.638409 13.000000 29.070000 C 12.998512 25.756292 10.311016 23.071205 6.997307 23.072693 C 3.683599 23.074181 0.998514 25.761677 1.000001 29.075386 C 1.001173 31.686958 2.691474 33.997822 5.180000 34.790001" stroke="#231F20" stroke-width="2.000000" stroke-miterlimit="10.000000" fill="none"/><path d=" M 41.509998 23.000000 C 43.762409 13.357103 37.771240 3.714049 28.128344 1.461637 C 18.485447 -0.790776 8.842393 5.200395 6.589980 14.843292 C 6.276290 16.186243 6.118587 17.560902 6.119999 18.940001 C 6.127178 20.307056 6.288192 21.668961 6.599999 23.000000" stroke="#231F20" stroke-width="2.000000" stroke-miterlimit="10.000000" fill="none"/><line x1="25.410000" y1="20.490000" x2="27.000000" y2="22.070000" stroke="#231F20" stroke-width="2.000000" stroke-linecap="round" stroke-miterlimit="10.000000" fill="none"/><line x1="25.410000" y1="17.660000" x2="27.000000" y2="16.070000" stroke="#231F20" stroke-width="2.000000" stroke-linecap="round" stroke-miterlimit="10.000000" fill="none"/></g></svg>