<svg version="1.1" viewBox="0.000000 0.000000 48.000000 48.000000" xmlns="http://www.w3.org/2000/svg" xmlns:xlink="http://www.w3.org/1999/xlink" overflow="hidden"><defs></defs><g id="icons"><path d=" M 11.000000 47.000000 L 7.000000 47.000000 C 5.895431 47.000000 5.000000 46.104568 5.000000 45.000000 L 5.000000 36.000000 C 5.000000 34.343147 6.343146 33.000000 8.000000 33.000000 L 11.000000 33.000000 Z" stroke="#231F20" stroke-width="2.000000" stroke-linecap="round" stroke-linejoin="round" fill="none"/><path d=" M 37.000000 47.000000 L 41.000000 47.000000 C 42.104568 47.000000 43.000000 46.104568 43.000000 45.000000 L 43.000000 36.000000 C 43.000000 34.343147 41.656853 33.000000 40.000000 33.000000 L 37.000000 33.000000 Z" stroke="#231F20" stroke-width="2.000000" stroke-linecap="round" stroke-linejoin="round" fill="none"/><path d=" M 33.000000 47.000000 L 15.000000 47.000000 L 15.000000 36.000000 C 15.000000 34.343147 16.343145 33.000000 18.000000 33.000000 L 30.000000 33.000000 C 31.656855 33.000000 33.000000 34.343147 33.000000 36.000000 Z" stroke="#231F20" stroke-width="2.000000" stroke-linecap="round" stroke-linejoin="round" fill="none"/><path d=" M 37.000000 21.000000 L 37.000000 47.000000 L 11.000000 47.000000 L 11.000000 21.000000" stroke="#231F20" stroke-width="2.000000" stroke-linecap="round" stroke-linejoin="round" fill="none"/><line x1="19.000000" y1="21.000000" x2="29.000000" y2="21.000000" stroke="#231F20" stroke-width="2.000000" stroke-linecap="round" stroke-linejoin="round" fill="none"/><rect x="15.000000" y="15.000000" width="4.000000" height="10.000000" stroke="#231F20" stroke-width="2.000000" stroke-linecap="round" stroke-linejoin="round" fill="none"/><rect x="29.000000" y="15.000000" width="4.000000" height="10.000000" stroke="#231F20" stroke-width="2.000000" stroke-linecap="round" stroke-linejoin="round" fill="none"/><line x1="15.000000" y1="39.000000" x2="33.000000" y2="39.000000" stroke="#231F20" stroke-width="2.000000" stroke-linecap="round" stroke-linejoin="round" fill="none"/><line x1="5.000000" y1="39.000000" x2="11.000000" y2="39.000000" stroke="#231F20" stroke-width="2.000000" stroke-linecap="round" stroke-linejoin="round" fill="none"/><line x1="37.000000" y1="39.000000" x2="43.000000" y2="39.000000" stroke="#231F20" stroke-width="2.000000" stroke-linecap="round" stroke-linejoin="round" fill="none"/><path d=" M 15.000000 21.000000 L 11.000000 21.000000 C 9.895431 21.000000 9.000000 20.104570 9.000000 19.000000 L 9.000000 7.000000 C 9.000000 3.686291 11.686292 1.000000 15.000000 1.000000 L 33.000000 1.000000 C 36.313709 1.000000 39.000000 3.686291 39.000000 7.000000 L 39.000000 19.000000 C 39.000000 20.104570 38.104568 21.000000 37.000000 21.000000 L 33.000000 21.000000" stroke="#231F20" stroke-width="2.000000" stroke-linecap="round" stroke-linejoin="round" fill="none"/></g></svg>