<svg version="1.1" viewBox="0.000000 0.000000 48.000000 48.000000" xmlns="http://www.w3.org/2000/svg" xmlns:xlink="http://www.w3.org/1999/xlink" overflow="hidden"><defs></defs><g id="icons"><path d=" M 12.000000 40.000000 C 10.895431 40.000000 10.000000 40.895432 10.000000 42.000000 C 10.000000 43.104568 10.895431 44.000000 12.000000 44.000000 C 13.104569 44.000000 14.000000 43.104568 14.000000 42.000000 C 14.000000 40.895432 13.104569 40.000000 12.000000 40.000000 Z" fill="#231F20"/><path d=" M 36.000000 40.000000 C 34.895432 40.000000 34.000000 40.895432 34.000000 42.000000 C 34.000000 43.104568 34.895432 44.000000 36.000000 44.000000 C 37.104568 44.000000 38.000000 43.104568 38.000000 42.000000 C 38.000000 40.895432 37.104568 40.000000 36.000000 40.000000 Z" fill="#231F20"/><path d=" M 12.000000 4.000000 C 10.895431 4.000000 10.000000 4.895431 10.000000 6.000000 C 10.000000 7.104569 10.895431 8.000000 12.000000 8.000000 C 13.104569 8.000000 14.000000 7.104569 14.000000 6.000000 C 14.000000 4.895431 13.104569 4.000000 12.000000 4.000000 Z" fill="#231F20"/><path d=" M 36.000000 4.000000 C 34.895432 4.000000 34.000000 4.895431 34.000000 6.000000 C 34.000000 7.104569 34.895432 8.000000 36.000000 8.000000 C 37.104568 8.000000 38.000000 7.104569 38.000000 6.000000 C 38.000000 4.895431 37.104568 4.000000 36.000000 4.000000 Z" fill="#231F20"/><rect x="7.000000" y="1.000000" rx="4.000000" ry="4.000000" width="34.000000" height="46.000000" stroke="#231F20" stroke-width="2.000000" stroke-miterlimit="10.000000" fill="none"/><circle cx="24.000000" cy="11.000000" r="4.000000" stroke="#231F20" stroke-width="2.000000" stroke-miterlimit="10.000000" fill="none"/><circle cx="24.000000" cy="30.000000" r="4.000000" stroke="#231F20" stroke-width="2.000000" stroke-miterlimit="10.000000" fill="none"/><circle cx="24.000000" cy="30.000000" r="11.000000" stroke="#231F20" stroke-width="2.000000" stroke-miterlimit="10.000000" fill="none"/></g></svg>