<svg version="1.1" viewBox="0.000000 0.000000 48.000000 48.000000" xmlns="http://www.w3.org/2000/svg" xmlns:xlink="http://www.w3.org/1999/xlink" overflow="hidden"><defs></defs><g id="icons"><rect x="1.000000" y="10.500000" width="46.000000" height="12.000000" stroke="#231F20" stroke-width="2.000000" stroke-linecap="round" stroke-linejoin="round" fill="none"/><path d=" M 1.000000 10.500000 L 13.000000 0.500000 L 35.000000 0.500000 L 47.000000 10.500000" stroke="#231F20" stroke-width="2.000000" stroke-linecap="round" stroke-linejoin="round" fill="none"/><circle cx="28.000000" cy="16.500000" r="1.000000" stroke="#231F20" stroke-width="2.000000" stroke-linecap="round" stroke-linejoin="round" fill="none"/><circle cx="34.000000" cy="16.500000" r="1.000000" stroke="#231F20" stroke-width="2.000000" stroke-linecap="round" stroke-linejoin="round" fill="none"/><circle cx="40.000000" cy="16.500000" r="1.000000" stroke="#231F20" stroke-width="2.000000" stroke-linecap="round" stroke-linejoin="round" fill="none"/><circle cx="7.000000" cy="16.500000" r="2.000000" stroke="#231F20" stroke-width="2.000000" stroke-linecap="round" stroke-linejoin="round" fill="none"/><path d=" M 47.000000 22.500000 L 47.000000 30.500000 C 47.000000 32.709141 45.209141 34.500000 43.000000 34.500000 L 5.000000 34.500000 C 2.790861 34.500000 1.000000 32.709141 1.000000 30.500000 L 1.000000 22.500000" stroke="#231F20" stroke-width="2.000000" stroke-linecap="round" stroke-linejoin="round" fill="none"/><circle cx="28.000000" cy="28.500000" r="1.000000" stroke="#231F20" stroke-width="2.000000" stroke-linecap="round" stroke-linejoin="round" fill="none"/><circle cx="34.000000" cy="28.500000" r="1.000000" stroke="#231F20" stroke-width="2.000000" stroke-linecap="round" stroke-linejoin="round" fill="none"/><circle cx="40.000000" cy="28.500000" r="1.000000" stroke="#231F20" stroke-width="2.000000" stroke-linecap="round" stroke-linejoin="round" fill="none"/><circle cx="7.000000" cy="28.500000" r="2.000000" stroke="#231F20" stroke-width="2.000000" stroke-linecap="round" stroke-linejoin="round" fill="none"/><line x1="11.000000" y1="46.500000" x2="37.000000" y2="46.500000" stroke="#231F20" stroke-width="2.000000" stroke-linecap="round" stroke-linejoin="round" fill="none"/><line x1="25.000000" y1="34.500000" x2="25.000000" y2="46.500000" stroke="#231F20" stroke-width="2.000000" stroke-linecap="round" stroke-linejoin="round" fill="none"/><path d=" M 3.000000 45.500000 C 2.447715 45.500000 2.000000 45.947716 2.000000 46.500000 C 2.000000 47.052284 2.447715 47.500000 3.000000 47.500000 C 3.552285 47.500000 4.000000 47.052284 4.000000 46.500000 C 4.000000 45.947716 3.552285 45.500000 3.000000 45.500000 Z" fill="#231F20"/><path d=" M 7.000000 45.500000 C 6.447715 45.500000 6.000000 45.947716 6.000000 46.500000 C 6.000000 47.052284 6.447715 47.500000 7.000000 47.500000 C 7.552285 47.500000 8.000000 47.052284 8.000000 46.500000 C 8.000000 45.947716 7.552285 45.500000 7.000000 45.500000 Z" fill="#231F20"/><path d=" M 41.000000 45.500000 C 40.447716 45.500000 40.000000 45.947716 40.000000 46.500000 C 40.000000 47.052284 40.447716 47.500000 41.000000 47.500000 C 41.552284 47.500000 42.000000 47.052284 42.000000 46.500000 C 42.000000 45.947716 41.552284 45.500000 41.000000 45.500000 Z" fill="#231F20"/><path d=" M 45.000000 45.500000 C 44.447716 45.500000 44.000000 45.947716 44.000000 46.500000 C 44.000000 47.052284 44.447716 47.500000 45.000000 47.500000 C 45.552284 47.500000 46.000000 47.052284 46.000000 46.500000 C 46.000000 45.947716 45.552284 45.500000 45.000000 45.500000 Z" fill="#231F20"/></g></svg>