<svg version="1.1" viewBox="0.000000 0.000000 48.000000 48.000000" xmlns="http://www.w3.org/2000/svg" xmlns:xlink="http://www.w3.org/1999/xlink" overflow="hidden"><defs></defs><g id="icons"><rect x="1.000000" y="11.000000" rx="4.000000" ry="4.000000" width="46.000000" height="32.000000" stroke="#231F20" stroke-width="2.000000" stroke-linecap="round" stroke-linejoin="round" fill="none"/><path d=" M 17.000000 11.000000 L 17.000000 8.000000 C 17.000000 6.343146 18.343145 5.000000 20.000000 5.000000 L 28.000000 5.000000 C 29.656855 5.000000 31.000000 6.343146 31.000000 8.000000 L 31.000000 11.000000" stroke="#231F20" stroke-width="2.000000" stroke-linecap="round" stroke-linejoin="round" fill="none"/><path d=" M 30.000000 26.000000 C 28.895430 26.000000 28.000000 26.895430 28.000000 28.000000 C 28.000000 29.104570 28.895430 30.000000 30.000000 30.000000 C 31.104570 30.000000 32.000000 29.104570 32.000000 28.000000 C 32.000000 26.895430 31.104570 26.000000 30.000000 26.000000 Z" fill="#231F20"/><path d=" M 30.000000 22.000000 C 27.858604 22.002197 25.880697 23.145496 24.809999 25.000000 L 13.000000 25.000000 L 10.000000 28.000000 L 13.000000 31.000000 L 24.809999 31.000000 C 26.466856 33.869755 30.136398 34.853004 33.006153 33.196148 C 35.875908 31.539291 36.859158 27.869749 35.202301 24.999994 C 34.129406 23.141687 32.145790 21.997801 30.000000 22.000000 Z" stroke="#231F20" stroke-width="2.000000" stroke-linecap="round" stroke-linejoin="round" fill="none"/></g></svg>