<svg version="1.1" viewBox="0.000000 0.000000 48.000000 48.000000" xmlns="http://www.w3.org/2000/svg" xmlns:xlink="http://www.w3.org/1999/xlink" overflow="hidden"><defs></defs><g id="icons"><ellipse cx="20.000000" cy="9.000000" rx="19.000000" ry="8.000000" stroke="#231F20" stroke-width="2.000000" stroke-linecap="round" stroke-miterlimit="10.000000" fill="none"/><path d=" M 23.000000 24.900000 C 22.000000 24.969999 21.000000 25.000000 20.000000 25.000000 C 9.510000 25.000000 1.000000 21.420000 1.000000 17.000000" stroke="#231F20" stroke-width="2.000000" stroke-linecap="round" stroke-miterlimit="10.000000" fill="none"/><path d=" M 20.000000 34.000000 C 9.510000 34.000000 1.000000 30.420000 1.000000 26.000000" stroke="#231F20" stroke-width="2.000000" stroke-linecap="round" stroke-miterlimit="10.000000" fill="none"/><path d=" M 20.000000 43.000000 C 9.510000 43.000000 1.000000 39.419998 1.000000 35.000000 L 1.000000 9.000000" stroke="#231F20" stroke-width="2.000000" stroke-linecap="round" stroke-miterlimit="10.000000" fill="none"/><line x1="39.000000" y1="9.000000" x2="39.000000" y2="20.000000" stroke="#231F20" stroke-width="2.000000" stroke-linecap="round" stroke-miterlimit="10.000000" fill="none"/><path d=" M 38.799999 46.599998 C 33.498066 48.146397 27.946396 45.101933 26.400000 39.799999 C 24.853601 34.498066 27.898066 28.946396 33.200001 27.400000 C 38.501934 25.853601 44.053604 28.898066 45.600002 34.200001" stroke="#231F20" stroke-width="2.000000" stroke-linecap="round" stroke-miterlimit="10.000000" fill="none"/><path d=" M 47.000000 28.719999 L 45.599998 34.200001 L 40.130001 32.799999" stroke="#231F20" stroke-width="2.000000" stroke-linecap="round" stroke-linejoin="round" fill="none"/></g></svg>