<svg version="1.1" viewBox="0.000000 0.000000 48.000000 48.000000" xmlns="http://www.w3.org/2000/svg" xmlns:xlink="http://www.w3.org/1999/xlink" overflow="hidden"><defs></defs><g id="icons"><path d=" M 29.000000 47.000000 L 19.000000 47.000000 L 15.000000 35.000000 L 33.000000 35.000000 L 29.000000 47.000000 Z" stroke="#231F20" stroke-width="2.000000" stroke-miterlimit="10.000000" fill="none"/><path d=" M 42.000000 21.000000 C 44.601898 21.159525 46.840473 19.179590 47.000000 16.577692 C 47.011795 16.385309 47.011795 16.192383 47.000000 15.999999 C 47.000000 13.000000 44.000000 11.000000 42.000000 11.000000 L 39.000000 11.000000 C 39.000000 11.000000 37.000000 7.000000 33.000000 7.000000 C 33.000000 7.000000 30.000000 1.000000 24.000000 1.000000 C 18.000000 1.000000 15.000000 7.000000 15.000000 7.000000 C 11.000000 7.000000 9.000000 11.000000 9.000000 11.000000 L 6.000000 11.000000 C 4.000000 11.000000 1.000000 13.000000 1.000000 16.000000 C 0.840474 18.601898 2.820409 20.840475 5.422307 21.000000 C 5.614691 21.011795 5.807616 21.011795 6.000000 21.000000 Z" stroke="#231F20" stroke-width="2.000000" stroke-miterlimit="10.000000" fill="none"/><line x1="24.000000" y1="21.000000" x2="24.000000" y2="35.000000" stroke="#231F20" stroke-width="2.000000" stroke-miterlimit="10.000000" fill="none"/><line x1="32.000000" y1="21.000000" x2="24.000000" y2="29.000000" stroke="#231F20" stroke-width="2.000000" stroke-miterlimit="10.000000" fill="none"/><line x1="16.000000" y1="21.000000" x2="24.000000" y2="29.000000" stroke="#231F20" stroke-width="2.000000" stroke-miterlimit="10.000000" fill="none"/></g></svg>