<svg version="1.1" viewBox="0.000000 0.000000 48.000000 48.000000" xmlns="http://www.w3.org/2000/svg" xmlns:xlink="http://www.w3.org/1999/xlink" overflow="hidden"><defs></defs><g id="icons"><path d=" M 47.000000 16.000000 L 35.000000 24.000000 L 25.000000 24.000000" stroke="#231F20" stroke-width="2.000000" stroke-linecap="round" stroke-linejoin="round" fill="none"/><path d=" M 47.000000 20.000000 L 35.000000 28.000000 L 25.000000 28.000000" stroke="#231F20" stroke-width="2.000000" stroke-linecap="round" stroke-linejoin="round" fill="none"/><path d=" M 47.000000 24.000000 L 35.000000 32.000000 L 25.000000 32.000000" stroke="#231F20" stroke-width="2.000000" stroke-linecap="round" stroke-linejoin="round" fill="none"/><path d=" M 47.000000 28.000000 L 35.000000 36.000000 L 25.000000 36.000000" stroke="#231F20" stroke-width="2.000000" stroke-linecap="round" stroke-linejoin="round" fill="none"/><path d=" M 25.000000 38.000000 L 11.000000 38.000000 L 11.000000 19.000000 L 23.000000 10.000000 L 37.000000 10.000000 L 25.000000 19.000000 L 25.000000 38.000000 Z" stroke="#231F20" stroke-width="2.000000" stroke-linecap="round" stroke-linejoin="round" fill="none"/><line x1="11.000000" y1="24.000000" x2="1.000000" y2="24.000000" stroke="#231F20" stroke-width="2.000000" stroke-linecap="round" stroke-linejoin="round" fill="none"/><line x1="11.000000" y1="28.000000" x2="1.000000" y2="28.000000" stroke="#231F20" stroke-width="2.000000" stroke-linecap="round" stroke-linejoin="round" fill="none"/><line x1="11.000000" y1="32.000000" x2="1.000000" y2="32.000000" stroke="#231F20" stroke-width="2.000000" stroke-linecap="round" stroke-linejoin="round" fill="none"/><line x1="11.000000" y1="36.000000" x2="1.000000" y2="36.000000" stroke="#231F20" stroke-width="2.000000" stroke-linecap="round" stroke-linejoin="round" fill="none"/><path d=" M 34.000000 12.000000 L 47.000000 12.000000 L 35.000000 20.000000 L 25.000000 20.000000" stroke="#231F20" stroke-width="2.000000" stroke-linejoin="round" fill="none"/><path d=" M 11.000000 20.000000 L 1.000000 20.000000 L 13.000000 12.000000 L 20.000000 12.000000" stroke="#231F20" stroke-width="2.000000" stroke-linejoin="round" fill="none"/><line x1="18.000000" y1="33.000000" x2="18.000000" y2="35.000000" stroke="#231F20" stroke-width="2.000000" stroke-linecap="round" stroke-linejoin="round" fill="none"/><line x1="18.000000" y1="19.000000" x2="18.000000" y2="21.000000" stroke="#231F20" stroke-width="2.000000" stroke-linecap="round" stroke-linejoin="round" fill="none"/><path d=" M 15.000000 30.000000 C 15.000000 31.656855 16.343145 33.000000 18.000000 33.000000 C 19.656855 33.000000 21.000000 31.656855 21.000000 30.000000 C 21.000000 28.343145 19.656855 27.000000 18.000000 27.000000 C 16.343145 27.000000 15.000000 25.656855 15.000000 24.000000 C 15.000000 22.343145 16.343145 21.000000 18.000000 21.000000 C 19.656855 21.000000 21.000000 22.343145 21.000000 24.000000" stroke="#231F20" stroke-width="2.000000" stroke-linecap="round" stroke-linejoin="round" fill="none"/></g></svg>