<svg version="1.1" viewBox="0.000000 0.000000 48.000000 48.000000" xmlns="http://www.w3.org/2000/svg" xmlns:xlink="http://www.w3.org/1999/xlink" overflow="hidden"><defs></defs><g id="icons"><path d=" M 1.000000 23.000000 L 26.000000 1.000000 C 35.000000 1.000000 47.000000 7.000000 47.000000 17.000000" stroke="#231F20" stroke-width="2.000000" stroke-linecap="round" stroke-linejoin="round" fill="none"/><circle cx="40.000000" cy="25.000000" r="3.000000" stroke="#231F20" stroke-width="2.000000" stroke-linecap="round" stroke-linejoin="round" fill="none"/><circle cx="12.000000" cy="28.000000" r="2.000000" stroke="#231F20" stroke-width="2.000000" stroke-linecap="round" stroke-linejoin="round" fill="none"/><circle cx="36.000000" cy="34.000000" r="1.000000" stroke="#231F20" stroke-width="2.000000" stroke-linecap="round" stroke-linejoin="round" fill="none"/><path d=" M 28.000000 26.000000 C 27.447716 26.000000 27.000000 26.447716 27.000000 27.000000 C 27.000000 27.552284 27.447716 28.000000 28.000000 28.000000 C 28.552284 28.000000 29.000000 27.552284 29.000000 27.000000 C 29.000000 26.447716 28.552284 26.000000 28.000000 26.000000 Z" stroke="#231F20" stroke-width="2.000000" stroke-miterlimit="10.000000" fill="none"/><circle cx="22.000000" cy="36.000000" r="4.000000" stroke="#231F20" stroke-width="2.000000" stroke-linecap="round" stroke-linejoin="round" fill="none"/><path d=" M 1.000000 23.000000 L 1.000000 35.000000 C 3.209139 35.000000 5.000000 36.790859 5.000000 39.000000 C 5.000000 41.209141 3.209139 43.000000 1.000000 43.000000 L 1.000000 47.000000 L 47.000000 41.000000 L 47.000000 17.000000 Z" stroke="#231F20" stroke-width="2.000000" stroke-linecap="round" stroke-linejoin="round" fill="none"/></g></svg>