<svg version="1.1" viewBox="0.000000 0.000000 48.000000 48.000000" xmlns="http://www.w3.org/2000/svg" xmlns:xlink="http://www.w3.org/1999/xlink" overflow="hidden"><defs></defs><g id="icons"><path d=" M 20.450001 18.059999 C 21.711876 16.912783 21.814478 14.963339 20.680000 13.690000 L 17.580000 10.600000 C 16.312668 9.464090 14.366552 9.562288 13.220000 10.820001 L 11.330000 12.710000 C 9.716866 14.220673 9.352692 16.641602 10.450000 18.559999 C 15.296844 26.223265 21.786736 32.713154 29.450001 37.560001 C 31.372030 38.647255 33.788269 38.279659 35.299999 36.670002 L 37.189999 34.779999 C 38.453064 33.635979 38.551491 31.685350 37.410000 30.419998 L 34.320000 27.320000 C 33.051964 26.181067 31.101170 26.283976 29.959999 27.549999 L 28.799999 28.690001 C 25.303440 25.878435 22.121565 22.696560 19.309999 19.200001 Z" stroke="#231F20" stroke-width="2.000000" stroke-linecap="round" stroke-linejoin="round" fill="none"/><path d=" M 36.000000 36.000000 C 37.000000 37.000000 39.119999 47.000000 24.000000 47.000000 C 11.297459 46.985462 1.011801 36.676231 1.026339 23.973692 C 1.040877 11.271151 11.350106 0.985493 24.052647 1.000031 C 36.755188 1.014569 47.040848 11.323798 47.026306 24.026339 C 47.021004 28.657631 45.617683 33.179447 42.999996 37.000000" stroke="#231F20" stroke-width="2.000000" stroke-linecap="round" stroke-linejoin="round" fill="none"/></g></svg>