<svg version="1.1" viewBox="0.000000 0.000000 48.000000 48.000000" xmlns="http://www.w3.org/2000/svg" xmlns:xlink="http://www.w3.org/1999/xlink" overflow="hidden"><defs></defs><g id="icons"><path d=" M 16.150000 20.430000 C 14.178343 16.476046 9.374687 14.869077 5.420733 16.840734 C 1.466779 18.812391 -0.140190 23.616047 1.831466 27.570002 C 3.803123 31.523956 8.606779 33.130924 12.560733 31.159267 C 14.115062 30.384195 15.374927 29.124329 16.150000 27.570002" stroke="#231F20" stroke-width="2.000000" stroke-miterlimit="10.000000" fill="none"/><path d=" M 39.000000 17.000000 C 43.418278 17.000000 47.000000 13.418278 47.000000 9.000000 C 47.000000 4.581722 43.418278 1.000000 39.000000 1.000000 C 34.581722 1.000000 31.000000 4.581722 31.000000 9.000000 C 30.999178 10.240224 31.290367 11.463219 31.850000 12.570000" stroke="#231F20" stroke-width="2.000000" stroke-miterlimit="10.000000" fill="none"/><path d=" M 31.850000 35.430000 C 29.878347 39.383957 31.485319 44.187611 35.439274 46.159264 C 39.393230 48.130917 44.196884 46.523945 46.168537 42.569988 C 48.140190 38.616032 46.533218 33.812378 42.579262 31.840725 C 41.467625 31.286404 40.242176 30.998560 38.999996 31.000000" stroke="#231F20" stroke-width="2.000000" stroke-miterlimit="10.000000" fill="none"/><path d=" M 39.000000 17.000000 C 35.970058 16.996489 33.202110 15.281523 31.850000 12.570000 L 16.150000 20.430000 C 17.283653 22.675003 17.283653 25.324997 16.150000 27.570000 L 31.850000 35.430000 C 33.202110 32.718479 35.970058 31.003511 39.000000 31.000000" stroke="#231F20" stroke-width="2.000000" stroke-miterlimit="10.000000" fill="none"/></g></svg>