<svg version="1.1" viewBox="0.000000 0.000000 48.000000 48.000000" xmlns="http://www.w3.org/2000/svg" xmlns:xlink="http://www.w3.org/1999/xlink" overflow="hidden"><defs></defs><g id="icons"><path d=" M 47.000000 21.520000 C 47.000000 31.879999 36.700001 40.279999 24.000000 40.279999 C 21.270020 40.283829 18.554312 39.886246 15.940000 39.099998 L 2.720000 45.250000 L 7.900000 34.919998 C 3.663561 31.750528 1.119295 26.809490 1.000000 21.519999 C 1.000000 11.150000 11.300000 2.750000 24.000000 2.750000 C 36.700001 2.750000 47.000000 11.150000 47.000000 21.520000 Z" stroke="#231F20" stroke-width="2.000000" stroke-linejoin="round" fill="none"/><path d=" M 25.000000 30.750000 L 25.000000 18.750000 L 21.000000 18.750000" stroke="#231F20" stroke-width="2.000000" stroke-linejoin="round" fill="none"/><line x1="21.000000" y1="30.750000" x2="29.000000" y2="30.750000" stroke="#231F20" stroke-width="2.000000" stroke-linejoin="round" fill="none"/><path d=" M 24.000000 10.750000 C 22.895430 10.750000 22.000000 11.645431 22.000000 12.750000 C 22.000000 13.854569 22.895430 14.750000 24.000000 14.750000 C 25.104570 14.750000 26.000000 13.854569 26.000000 12.750000 C 26.000000 11.645431 25.104570 10.750000 24.000000 10.750000 Z" stroke="#231F20" stroke-width="2.000000" stroke-linejoin="round" fill="none"/></g></svg>