<svg version="1.1" viewBox="0.000000 0.000000 48.000000 48.000000" xmlns="http://www.w3.org/2000/svg" xmlns:xlink="http://www.w3.org/1999/xlink" overflow="hidden"><defs></defs><g id="icons"><path d=" M 28.000000 2.000000 C 28.000000 4.209139 26.209139 6.000000 24.000000 6.000000 C 21.790861 6.000000 20.000000 4.209139 20.000000 2.000000 L 13.000000 2.000000 C 10.790861 2.000000 9.000000 3.790861 9.000000 6.000000 L 9.000000 44.000000 C 9.000000 46.209141 10.790861 48.000000 13.000000 48.000000 L 20.000000 48.000000 C 20.000000 45.790859 21.790861 44.000000 24.000000 44.000000 C 26.209139 44.000000 28.000000 45.790859 28.000000 48.000000 L 35.000000 48.000000 C 37.209141 48.000000 39.000000 46.209141 39.000000 44.000000 L 39.000000 6.000000 C 39.000000 3.790861 37.209141 2.000000 35.000000 2.000000 Z" stroke="#231F20" stroke-width="2.000000" stroke-linecap="round" stroke-linejoin="round" fill="none"/><rect x="13.000000" y="10.000000" width="22.000000" height="30.000000" stroke="#231F20" stroke-width="2.000000" stroke-linecap="round" stroke-linejoin="round" fill="none"/><line x1="13.000000" y1="16.000000" x2="35.000000" y2="16.000000" stroke="#231F20" stroke-width="2.000000" stroke-linecap="round" stroke-linejoin="round" fill="none"/><line x1="13.000000" y1="34.000000" x2="35.000000" y2="34.000000" stroke="#231F20" stroke-width="2.000000" stroke-linecap="round" stroke-linejoin="round" fill="none"/><line x1="19.000000" y1="20.000000" x2="19.000000" y2="30.000000" stroke="#231F20" stroke-width="2.000000" stroke-linecap="round" stroke-linejoin="round" fill="none"/></g></svg>