<svg version="1.1" viewBox="0.000000 0.000000 48.000000 48.000000" xmlns="http://www.w3.org/2000/svg" xmlns:xlink="http://www.w3.org/1999/xlink" overflow="hidden"><defs></defs><g id="icons"><path d=" M 9.000000 14.000000 L 9.000000 42.000000 L 17.000000 42.000000 L 17.000000 40.500000 C 17.000000 38.567005 18.567003 37.000000 20.500000 37.000000 C 22.432997 37.000000 24.000000 38.567005 24.000000 40.500000 L 24.000000 42.000000 L 32.000000 42.000000 L 32.000000 40.500000 C 32.000000 38.567005 33.567005 37.000000 35.500000 37.000000 C 37.432995 37.000000 39.000000 38.567005 39.000000 40.500000 L 39.000000 42.000000 L 47.000000 42.000000 L 47.000000 14.000000 Z" stroke="#231F20" stroke-width="2.000000" stroke-linejoin="round" fill="none"/><path d=" M 39.000000 10.000000 L 39.000000 6.000000 L 1.000000 6.000000 L 1.000000 34.000000 L 6.000000 34.000000" stroke="#231F20" stroke-width="2.000000" stroke-linejoin="round" fill="none"/><circle cx="21.000000" cy="24.000000" r="3.000000" stroke="#231F20" stroke-width="2.000000" stroke-miterlimit="10.000000" fill="none"/><path d=" M 21.000000 27.000000 C 16.709999 27.000000 15.000000 29.430000 15.000000 32.000000 L 27.000000 32.000000 C 27.000000 29.430000 25.290001 27.000000 21.000000 27.000000 Z" stroke="#231F20" stroke-width="2.000000" stroke-miterlimit="10.000000" fill="none"/><line x1="32.000000" y1="30.000000" x2="42.000000" y2="30.000000" stroke="#231F20" stroke-width="2.000000" stroke-miterlimit="10.000000" fill="none"/><line x1="32.000000" y1="26.000000" x2="42.000000" y2="26.000000" stroke="#231F20" stroke-width="2.000000" stroke-miterlimit="10.000000" fill="none"/><line x1="32.000000" y1="22.000000" x2="37.000000" y2="22.000000" stroke="#231F20" stroke-width="2.000000" stroke-miterlimit="10.000000" fill="none"/></g></svg>