<svg version="1.1" viewBox="0.000000 0.000000 48.000000 48.000000" xmlns="http://www.w3.org/2000/svg" xmlns:xlink="http://www.w3.org/1999/xlink" overflow="hidden"><defs></defs><g id="icons"><path d=" M 16.090000 19.240000 C 15.160000 23.129999 16.410000 26.510000 22.940001 24.990000 C 28.080000 29.309999 30.629999 27.260000 31.650000 22.990000 C 32.669998 18.719999 29.590000 10.130000 25.190001 7.000000 C 22.820000 12.620000 17.260000 14.380000 16.090000 19.240000 Z" stroke="#231F20" stroke-width="2.000000" stroke-linecap="round" stroke-linejoin="round" fill="none"/><line x1="19.000000" y1="41.000000" x2="29.000000" y2="41.000000" stroke="#231F20" stroke-width="2.000000" stroke-linecap="round" stroke-linejoin="round" fill="none"/><line x1="19.000000" y1="45.000000" x2="29.000000" y2="45.000000" stroke="#231F20" stroke-width="2.000000" stroke-linecap="round" stroke-linejoin="round" fill="none"/><line x1="24.000000" y1="45.000000" x2="24.000000" y2="47.000000" stroke="#231F20" stroke-width="2.000000" stroke-linecap="round" stroke-linejoin="round" fill="none"/><path d=" M 24.000000 37.000000 C 24.000000 37.000000 20.889999 21.270000 25.049999 14.660000" stroke="#231F20" stroke-width="2.000000" stroke-linecap="round" stroke-linejoin="round" fill="none"/><path d=" M 42.000000 18.000000 C 42.000000 8.610000 33.939999 1.000000 24.000000 1.000000 C 14.060000 1.000000 6.000000 8.610000 6.000000 18.000000 C 6.000000 25.750000 11.490000 32.270000 19.000000 34.320000 L 19.000000 37.000000 L 29.000000 37.000000 L 29.000000 34.320000 C 36.509998 32.270000 42.000000 25.750000 42.000000 18.000000 Z" stroke="#231F20" stroke-width="2.000000" stroke-linecap="round" stroke-linejoin="round" fill="none"/></g></svg>