<svg version="1.1" viewBox="0.000000 0.000000 48.000000 48.000000" xmlns="http://www.w3.org/2000/svg" xmlns:xlink="http://www.w3.org/1999/xlink" overflow="hidden"><defs></defs><g id="icons"><circle cx="13.000000" cy="13.000000" r="12.000000" stroke="#231F20" stroke-width="2.000000" stroke-linecap="round" stroke-linejoin="round" fill="none"/><path d=" M 29.000000 11.000000 C 28.447716 11.000000 28.000000 11.447715 28.000000 12.000000 C 28.000000 12.552285 28.447716 13.000000 29.000000 13.000000 C 29.552284 13.000000 30.000000 12.552285 30.000000 12.000000 C 30.000000 11.447715 29.552284 11.000000 29.000000 11.000000 Z" fill="#231F20"/><path d=" M 21.000000 13.000000 C 21.000000 17.418278 17.418278 21.000000 13.000000 21.000000" stroke="#231F20" stroke-width="2.000000" stroke-linecap="round" stroke-linejoin="round" fill="none"/><path d=" M 47.000000 20.879999 L 47.000000 18.000000 C 47.000000 16.343145 45.656853 15.000000 44.000000 15.000000 C 42.343147 15.000000 41.000000 16.343145 41.000000 18.000000 L 41.000000 41.000000 C 41.000000 44.313709 38.313709 47.000000 35.000000 47.000000 C 31.686291 47.000000 29.000000 44.313709 29.000000 41.000000 L 29.000000 14.880000" stroke="#231F20" stroke-width="2.000000" stroke-linecap="round" stroke-linejoin="round" fill="none"/></g></svg>