<svg version="1.1" viewBox="0.000000 0.000000 48.000000 48.000000" xmlns="http://www.w3.org/2000/svg" xmlns:xlink="http://www.w3.org/1999/xlink" overflow="hidden"><defs></defs><g id="icons"><path d=" M 47.000000 36.000000 L 23.000000 36.000000 L 15.000000 44.000000 L 15.000000 36.000000 L 1.000000 36.000000 L 1.000000 4.000000 L 47.000000 4.000000 L 47.000000 36.000000 Z" stroke="#231F20" stroke-width="2.000000" stroke-linecap="round" stroke-linejoin="round" fill="none"/><path d=" M 25.000000 27.000000 C 23.895430 27.000000 23.000000 27.895430 23.000000 29.000000 C 23.000000 30.104570 23.895430 31.000000 25.000000 31.000000 C 26.104570 31.000000 27.000000 30.104570 27.000000 29.000000 C 27.000000 27.895430 26.104570 27.000000 25.000000 27.000000 Z" fill="#231F20"/><path d=" M 19.000000 16.000000 C 19.000000 12.686292 21.686291 10.000000 25.000000 10.000000 C 28.313709 10.000000 31.000000 12.686292 31.000000 16.000000 C 31.000000 19.313709 28.313709 22.000000 25.000000 22.000000 L 25.000000 24.000000" stroke="#231F20" stroke-width="2.000000" stroke-linecap="round" stroke-linejoin="round" fill="none"/></g></svg>