<svg version="1.1" viewBox="0.000000 0.000000 48.000000 48.000000" xmlns="http://www.w3.org/2000/svg" xmlns:xlink="http://www.w3.org/1999/xlink" overflow="hidden"><defs></defs><g id="icons"><path d=" M 16.639999 29.000000 L 16.639999 6.000000 C 16.639999 4.343146 17.983145 3.000000 19.639999 3.000000 C 21.296854 3.000000 22.639999 4.343146 22.639999 6.000000 L 22.639999 15.000000 L 26.639999 15.000000 C 27.744570 15.000000 28.639999 15.895431 28.639999 17.000000 L 32.639999 17.000000 C 33.744568 17.000000 34.639999 17.895430 34.639999 19.000000 L 37.639999 19.000000 C 39.296852 19.000000 40.639999 20.343145 40.639999 22.000000 L 40.639999 28.200001 C 40.640213 30.056927 40.381042 31.904781 39.869999 33.690002 L 36.639999 45.000000 L 18.639999 45.000000 C 15.640000 41.000000 7.800000 27.650000 7.800000 27.650000 C 7.047115 26.559095 7.321133 25.064411 8.412036 24.311525 C 9.301890 23.697393 10.492528 23.754091 11.320000 24.450001 Z" stroke="#231F20" stroke-width="2.000000" stroke-linejoin="round" fill="none"/><line x1="28.640000" y1="17.000000" x2="28.640000" y2="21.000000" stroke="#231F20" stroke-width="2.000000" stroke-linecap="round" stroke-linejoin="round" fill="none"/><line x1="22.640000" y1="14.000000" x2="22.640000" y2="21.000000" stroke="#231F20" stroke-width="2.000000" stroke-linecap="round" stroke-linejoin="round" fill="none"/><line x1="34.640000" y1="19.000000" x2="34.640000" y2="23.000000" stroke="#231F20" stroke-width="2.000000" stroke-linecap="round" stroke-linejoin="round" fill="none"/></g></svg>