<svg version="1.1" viewBox="0.000000 0.000000 48.000000 48.000000" xmlns="http://www.w3.org/2000/svg" xmlns:xlink="http://www.w3.org/1999/xlink" overflow="hidden"><defs></defs><g id="icons"><path d=" M 23.000000 1.000000 L 7.000000 1.000000 L 7.000000 21.000000 L 21.000000 21.000000 L 21.000000 41.000000 L 1.000000 41.000000 L 1.000000 47.000000 L 47.000000 47.000000 L 47.000000 4.000000 C 47.000000 2.343146 45.656853 1.000000 44.000000 1.000000 Z" stroke="#231F20" stroke-width="2.000000" stroke-linejoin="round" fill="none"/><path d=" M 37.000000 47.000000 L 37.000000 25.000000 L 47.000000 25.000000" stroke="#231F20" stroke-width="2.000000" stroke-linejoin="round" fill="none"/><line x1="35.000000" y1="11.000000" x2="47.000000" y2="11.000000" stroke="#231F20" stroke-width="2.000000" stroke-linecap="round" stroke-linejoin="round" fill="none"/><line x1="35.000000" y1="15.000000" x2="47.000000" y2="15.000000" stroke="#231F20" stroke-width="2.000000" stroke-linecap="round" stroke-linejoin="round" fill="none"/><line x1="35.000000" y1="19.000000" x2="47.000000" y2="19.000000" stroke="#231F20" stroke-width="2.000000" stroke-linecap="round" stroke-linejoin="round" fill="none"/><rect x="9.000000" y="28.000000" width="8.000000" height="4.000000" stroke="#231F20" stroke-width="2.000000" stroke-linejoin="round" fill="none"/><line x1="9.000000" y1="30.000000" x2="1.000000" y2="30.000000" stroke="#231F20" stroke-width="2.000000" stroke-linecap="round" stroke-linejoin="round" fill="none"/><line x1="15.000000" y1="28.000000" x2="15.000000" y2="21.000000" stroke="#231F20" stroke-width="2.000000" stroke-linejoin="round" fill="none"/><line x1="11.000000" y1="28.000000" x2="11.000000" y2="21.000000" stroke="#231F20" stroke-width="2.000000" stroke-linejoin="round" fill="none"/><circle cx="14.000000" cy="8.000000" r="3.000000" stroke="#231F20" stroke-width="2.000000" stroke-linecap="round" stroke-linejoin="round" fill="none"/><line x1="13.000000" y1="32.000000" x2="13.000000" y2="34.000000" stroke="#231F20" stroke-width="2.000000" stroke-linecap="round" stroke-linejoin="round" fill="none"/></g></svg>