<svg version="1.1" viewBox="0.000000 0.000000 48.000000 48.000000" xmlns="http://www.w3.org/2000/svg" xmlns:xlink="http://www.w3.org/1999/xlink" overflow="hidden"><defs></defs><g id="icons"><path d=" M 18.000000 34.900002 L 6.190000 38.000000 C 3.070000 39.169998 1.000000 43.669998 1.000000 47.000000 L 47.000000 47.000000 C 47.000000 43.669998 44.930000 39.169998 41.810001 38.000000 L 30.000000 34.900002" stroke="#231F20" stroke-width="2.000000" stroke-linecap="round" stroke-miterlimit="10.000000" fill="none"/><line x1="24.000000" y1="47.000000" x2="24.000000" y2="38.000000" stroke="#231F20" stroke-width="2.000000" stroke-linecap="round" stroke-linejoin="round" fill="none"/><path d=" M 13.000000 21.000000 C 11.000000 21.000000 12.000000 28.000000 14.770000 28.000000 C 14.770000 34.000000 21.230000 38.000000 24.000000 38.000000" stroke="#231F20" stroke-width="2.000000" stroke-linecap="round" stroke-miterlimit="10.000000" fill="none"/><path d=" M 35.000000 21.000000 C 36.000000 21.000000 36.000000 28.000000 33.230000 28.000000 C 33.230000 34.000000 26.770000 38.000000 24.000000 38.000000" stroke="#231F20" stroke-width="2.000000" stroke-linecap="round" stroke-miterlimit="10.000000" fill="none"/><path d=" M 12.000000 13.240000 L 13.000000 21.000000 C 13.000000 21.000000 16.000000 19.000000 24.000000 19.000000 C 32.000000 19.000000 35.000000 21.000000 35.000000 21.000000 L 36.000000 13.240000" stroke="#231F20" stroke-width="2.000000" stroke-linecap="round" stroke-miterlimit="10.000000" fill="none"/><path d=" M 17.000000 8.000000 C 17.003084 7.323083 17.100693 6.649914 17.290001 6.000000 C 16.503628 5.354052 15.517660 5.000659 14.500001 5.000000 C 12.014720 5.001369 10.001111 7.017196 10.002480 9.502477 C 10.003306 11.003493 10.752489 12.405275 12.000001 13.240000" stroke="#231F20" stroke-width="2.000000" stroke-linecap="round" stroke-miterlimit="10.000000" fill="none"/><path d=" M 36.000000 13.240000 C 38.065544 11.857920 38.619602 9.063066 37.237522 6.997521 C 36.402798 5.750010 35.001015 5.000826 33.500000 5.000000 C 32.482342 5.000659 31.496372 5.354052 30.709999 6.000000 C 30.899305 6.649914 30.996916 7.323083 31.000000 8.000000" stroke="#231F20" stroke-width="2.000000" stroke-linecap="round" stroke-miterlimit="10.000000" fill="none"/><path d=" M 30.709999 6.000000 C 29.608763 2.294169 25.711864 0.182729 22.006033 1.283966 C 19.738026 1.957934 17.963968 3.731993 17.289999 6.000000" stroke="#231F20" stroke-width="2.000000" stroke-linecap="round" stroke-miterlimit="10.000000" fill="none"/><path d=" M 17.290001 6.000000 C 17.100695 6.649914 17.003084 7.323083 17.000000 8.000000" stroke="#231F20" stroke-width="2.000000" stroke-linecap="round" stroke-miterlimit="10.000000" fill="none"/><path d=" M 31.000000 8.000000 C 30.996916 7.323083 30.899307 6.649914 30.709999 6.000000" stroke="#231F20" stroke-width="2.000000" stroke-linecap="round" stroke-miterlimit="10.000000" fill="none"/><path d=" M 21.000000 28.000000 C 19.000000 28.000000 18.000000 30.000000 18.000000 32.000000 L 24.000000 32.000000 C 24.000000 30.379999 23.000000 28.000000 21.000000 28.000000 Z" fill="#231F20"/><path d=" M 27.000000 28.000000 C 25.000000 28.000000 24.000000 30.379999 24.000000 32.000000 L 30.000000 32.000000 C 30.000000 30.000000 29.000000 28.000000 27.000000 28.000000 Z" fill="#231F20"/><path d=" M 18.000000 24.000000 C 18.000000 22.900000 18.900000 23.000000 20.000000 23.000000 C 21.100000 23.000000 22.000000 22.900000 22.000000 24.000000" stroke="#231F20" stroke-width="2.000000" stroke-linecap="round" stroke-miterlimit="10.000000" fill="none"/><path d=" M 26.000000 24.000000 C 26.000000 22.900000 26.900000 23.000000 28.000000 23.000000 C 29.100000 23.000000 30.000000 22.900000 30.000000 24.000000" stroke="#231F20" stroke-width="2.000000" stroke-linecap="round" stroke-miterlimit="10.000000" fill="none"/></g></svg>