<svg version="1.1" viewBox="0.000000 0.000000 48.000000 48.000000" xmlns="http://www.w3.org/2000/svg" xmlns:xlink="http://www.w3.org/1999/xlink" overflow="hidden"><defs></defs><g id="icons"><rect x="15.000000" y="17.000000" rx="2.000000" ry="2.000000" width="22.000000" height="30.000000" stroke="#231F20" stroke-width="2.000000" stroke-linecap="round" stroke-linejoin="round" fill="none"/><rect x="11.000000" y="21.000000" width="4.000000" height="12.000000" stroke="#231F20" stroke-width="2.000000" stroke-linecap="round" stroke-linejoin="round" fill="none"/><line x1="11.000000" y1="27.000000" x2="15.000000" y2="27.000000" stroke="#231F20" stroke-width="2.000000" stroke-linecap="round" stroke-linejoin="round" fill="none"/><line x1="19.000000" y1="43.000000" x2="33.000000" y2="43.000000" stroke="#231F20" stroke-width="2.000000" stroke-linecap="round" stroke-linejoin="round" fill="none"/><rect x="19.000000" y="21.000000" width="14.000000" height="18.000000" stroke="#231F20" stroke-width="2.000000" stroke-linecap="round" stroke-linejoin="round" fill="none"/><path d=" M 27.000000 26.000000 C 26.447716 26.000000 26.000000 26.447716 26.000000 27.000000 C 26.000000 27.552284 26.447716 28.000000 27.000000 28.000000 C 27.552284 28.000000 28.000000 27.552284 28.000000 27.000000 C 28.000000 26.447716 27.552284 26.000000 27.000000 26.000000 Z" fill="#231F20"/><path d=" M 27.000000 32.000000 C 26.447716 32.000000 26.000000 32.447716 26.000000 33.000000 C 26.000000 33.552284 26.447716 34.000000 27.000000 34.000000 C 27.552284 34.000000 28.000000 33.552284 28.000000 33.000000 C 28.000000 32.447716 27.552284 32.000000 27.000000 32.000000 Z" fill="#231F20"/><path d=" M 7.000000 33.000000 C 7.000000 34.104568 6.104569 35.000000 5.000000 35.000000 L 5.000000 35.000000 C 3.895431 35.000000 3.000000 34.104568 3.000000 33.000000 L 3.000000 27.000000 C 3.000000 25.895430 3.895431 25.000000 5.000000 25.000000 L 5.000000 25.000000 C 6.104569 25.000000 7.000000 25.895430 7.000000 27.000000 Z" stroke="#231F20" stroke-width="2.000000" stroke-linecap="round" stroke-linejoin="round" fill="none"/><path d=" M 45.000000 33.000000 C 45.000000 34.104568 44.104568 35.000000 43.000000 35.000000 L 43.000000 35.000000 C 41.895432 35.000000 41.000000 34.104568 41.000000 33.000000 L 41.000000 27.000000 C 41.000000 25.895430 41.895432 25.000000 43.000000 25.000000 L 43.000000 25.000000 C 44.104568 25.000000 45.000000 25.895430 45.000000 27.000000 Z" stroke="#231F20" stroke-width="2.000000" stroke-linecap="round" stroke-linejoin="round" fill="none"/><path d=" M 45.000000 30.000000 L 47.000000 30.000000 L 47.000000 24.000000 C 47.000000 11.297451 36.702549 1.000000 24.000000 1.000000 C 11.297451 1.000000 1.000000 11.297451 1.000000 24.000000 L 1.000000 30.000000 L 3.000000 30.000000" stroke="#231F20" stroke-width="2.000000" stroke-linecap="round" stroke-linejoin="round" fill="none"/></g></svg>