<svg version="1.1" viewBox="0.000000 0.000000 48.000000 48.000000" xmlns="http://www.w3.org/2000/svg" xmlns:xlink="http://www.w3.org/1999/xlink" overflow="hidden"><defs></defs><g id="icons"><path d=" M 17.000000 37.000000 L 17.000000 33.000000 L 19.000000 33.000000 L 19.000000 29.000000 L 9.000000 29.000000 L 9.000000 33.000000 L 11.000000 33.000000 L 11.000000 37.000000 C 4.890000 37.799999 1.470000 40.790001 1.000000 47.000000 L 27.170000 47.000000 C 26.700001 40.790001 23.129999 37.799999 17.000000 37.000000 Z" stroke="#231F20" stroke-width="2.000000" stroke-linejoin="round" fill="none"/><line x1="45.850000" y1="1.560000" x2="21.570000" y2="25.830000" stroke="#231F20" stroke-width="2.000000" stroke-linecap="round" stroke-linejoin="round" fill="none"/><path d=" M 24.730000 22.660000 C 21.990000 19.920000 24.860001 13.040000 30.730000 7.180000 C 33.163673 4.719825 35.951077 2.636856 39.000000 1.000000 L 39.000000 8.400000" stroke="#231F20" stroke-width="2.000000" stroke-linecap="round" stroke-linejoin="round" fill="none"/><line x1="32.420000" y1="15.000000" x2="42.020000" y2="15.000000" stroke="#231F20" stroke-width="2.000000" stroke-linecap="round" stroke-linejoin="round" fill="none"/><path d=" M 28.420000 19.000000 L 39.000000 19.000000 C 33.400002 24.090000 27.250000 25.219999 24.690001 22.660000" stroke="#231F20" stroke-width="2.000000" stroke-linecap="round" stroke-linejoin="round" fill="none"/><path d=" M 45.849998 1.580000 C 47.680000 3.400000 47.220001 7.000000 44.930000 11.000000 L 36.400002 11.000000" stroke="#231F20" stroke-width="2.000000" stroke-linecap="round" stroke-linejoin="round" fill="none"/></g></svg>