<svg version="1.1" viewBox="0.000000 0.000000 48.000000 48.000000" xmlns="http://www.w3.org/2000/svg" xmlns:xlink="http://www.w3.org/1999/xlink" overflow="hidden"><defs></defs><g id="icons"><line x1="25.000000" y1="29.000000" x2="25.000000" y2="23.190000" stroke="#231F20" stroke-width="2.000000" stroke-miterlimit="10.000000" fill="none"/><path d=" M 15.000000 23.530001 L 15.000000 29.000000 L 5.000000 32.580002 C 2.605091 33.426727 1.002902 35.689819 1.000000 38.230003 L 1.000000 43.000000 L 22.000000 43.000000" stroke="#231F20" stroke-width="2.000000" stroke-miterlimit="10.000000" fill="none"/><ellipse cx="19.750000" cy="13.000000" rx="10.000000" ry="12.000000" stroke="#231F20" stroke-width="2.000000" stroke-miterlimit="10.000000" fill="none"/><path d=" M 29.690001 11.920000 C 29.350000 11.920000 29.090000 11.920000 28.750000 12.000000 C 25.340000 12.660000 23.160000 11.420000 21.280001 8.140000 C 20.160000 10.300000 16.639999 12.000000 13.750000 12.000000 C 12.401386 12.017900 11.070137 11.694549 9.880000 11.060000" stroke="#231F20" stroke-width="2.000000" stroke-miterlimit="10.000000" fill="none"/><path d=" M 37.009998 27.000000 L 40.000000 34.000000 L 47.000000 34.000000 L 41.000000 39.000000 L 44.000000 47.000000 L 37.000000 42.009998 L 30.000000 47.000000 L 33.000000 39.000000 L 27.000000 34.000000 L 34.000000 34.000000 L 37.009998 27.000000 Z" stroke="#231F20" stroke-width="2.000000" stroke-linejoin="round" fill="none"/></g></svg>