<svg version="1.1" viewBox="0.000000 0.000000 48.000000 48.000000" xmlns="http://www.w3.org/2000/svg" xmlns:xlink="http://www.w3.org/1999/xlink" overflow="hidden"><defs></defs><g id="icons"><circle cx="24.000000" cy="7.000000" r="6.000000" stroke="#231F20" stroke-width="2.000000" stroke-linecap="round" stroke-linejoin="round" fill="none"/><path d=" M 47.000000 41.000000 L 47.000000 47.000000 L 1.000000 47.000000 L 1.000000 41.000000 L 7.740000 17.410000 C 8.482096 14.799877 10.866433 12.999376 13.580000 13.000000 L 34.419998 13.000000 C 37.132435 13.002746 39.514973 14.801887 40.259998 17.410000 Z" stroke="#231F20" stroke-width="2.000000" stroke-linecap="round" stroke-linejoin="round" fill="none"/><path d=" M 23.549999 34.000000 L 22.049999 34.000000 L 18.280001 29.450001 C 18.177731 29.305750 18.084229 29.155479 18.000000 29.000000 L 18.000000 29.000000 L 18.000000 34.000000 L 17.000000 34.000000 L 17.000000 24.000000 L 18.000000 24.000000 L 18.000000 29.000000 L 18.000000 29.000000 C 18.059999 29.000000 18.150000 28.559999 18.250000 28.450001 L 21.940001 24.000000 L 23.260000 24.000000 L 19.090000 28.799999 Z" fill="#231F20"/><path d=" M 31.000000 33.340000 C 30.094307 33.884846 29.056946 34.171852 28.000000 34.170002 C 26.785892 34.212242 25.613728 33.722927 24.790001 32.830002 C 23.930820 31.869371 23.488382 30.606810 23.560001 29.320002 C 23.527956 27.955936 24.047066 26.636532 25.000002 25.660002 C 25.904434 24.703806 27.174446 24.179790 28.490002 24.220001 C 29.366171 24.221567 30.233179 24.398369 31.040001 24.740002 L 31.040001 25.940001 C 30.232710 25.457788 29.310343 25.202152 28.370001 25.200001 C 27.368160 25.167171 26.402615 25.576796 25.730001 26.320002 C 25.027164 27.124836 24.668112 28.173273 24.730001 29.240002 C 24.682209 30.301722 25.039671 31.341932 25.730001 32.150002 C 26.362841 32.864353 27.287012 33.250957 28.240002 33.200001 C 29.030001 33.200001 30.090000 33.040001 30.090000 32.730000 L 30.090000 30.000000 L 28.000000 30.000000 L 28.000000 29.000000 L 31.000000 29.000000 Z" fill="#231F20"/></g></svg>