<svg version="1.1" viewBox="0.000000 0.000000 48.000000 48.000000" xmlns="http://www.w3.org/2000/svg" xmlns:xlink="http://www.w3.org/1999/xlink" overflow="hidden"><defs></defs><g id="icons"><path d=" M 8.000000 33.000000 L 8.000000 24.000000 C 8.000000 20.134007 11.134007 17.000000 15.000000 17.000000 C 18.865993 17.000000 22.000000 20.134007 22.000000 24.000000 L 22.000000 33.000000" stroke="#231F20" stroke-width="2.000000" stroke-linecap="round" stroke-linejoin="round" fill="none"/><path d=" M 18.000000 24.000000 C 18.000000 22.343145 16.656855 21.000000 15.000000 21.000000 C 13.343145 21.000000 12.000000 22.343145 12.000000 24.000000 L 12.000000 27.000000 L 18.000000 27.000000 Z" stroke="#231F20" stroke-width="2.000000" stroke-linecap="round" stroke-linejoin="round" fill="none"/><path d=" M 26.000000 33.000000 L 26.000000 24.000000 C 26.000000 20.134007 29.134007 17.000000 33.000000 17.000000 C 36.865993 17.000000 40.000000 20.134007 40.000000 24.000000 L 40.000000 33.000000" stroke="#231F20" stroke-width="2.000000" stroke-linecap="round" stroke-linejoin="round" fill="none"/><path d=" M 36.000000 24.000000 C 36.000000 22.343145 34.656853 21.000000 33.000000 21.000000 C 31.343145 21.000000 30.000000 22.343145 30.000000 24.000000 L 30.000000 27.000000 L 36.000000 27.000000 Z" stroke="#231F20" stroke-width="2.000000" stroke-linecap="round" stroke-linejoin="round" fill="none"/><path d=" M 30.000000 1.000000 L 24.000000 3.000000 L 26.000000 8.000000" stroke="#231F20" stroke-width="2.000000" stroke-linecap="round" stroke-linejoin="round" fill="none"/><path d=" M 18.000000 47.000000 L 24.000000 45.000000 L 22.000000 40.000000" stroke="#231F20" stroke-width="2.000000" stroke-linecap="round" stroke-linejoin="round" fill="none"/><path d=" M 15.000000 36.000000 C 17.000000 41.439999 20.290001 45.000000 24.000000 45.000000" stroke="#231F20" stroke-width="2.000000" stroke-linecap="round" stroke-linejoin="round" fill="none"/><path d=" M 33.369999 13.000000 C 31.430000 7.000000 28.000000 3.000000 24.000000 3.000000" stroke="#231F20" stroke-width="2.000000" stroke-linecap="round" stroke-linejoin="round" fill="none"/></g></svg>