<svg version="1.1" viewBox="0.000000 0.000000 48.000000 48.000000" xmlns="http://www.w3.org/2000/svg" xmlns:xlink="http://www.w3.org/1999/xlink" overflow="hidden"><defs></defs><g id="icons"><path d=" M 21.180000 11.000000 C 22.219999 5.320000 27.559999 1.000000 34.000000 1.000000 C 41.180000 1.000000 47.000000 6.370000 47.000000 13.000000 C 46.902279 17.999388 43.714706 22.414175 39.000000 24.080000 C 38.000000 25.000000 33.000000 30.000000 32.000000 31.000000 C 32.000000 30.000000 32.000000 26.000000 32.000000 24.860001 C 30.973587 24.709764 29.967285 24.444771 29.000000 24.070000" stroke="#231F20" stroke-width="2.000000" stroke-miterlimit="10.000000" fill="none"/><path d=" M 40.000000 13.000000 L 38.000000 13.000000 L 38.000000 15.000000 L 40.000000 15.000000 L 40.000000 13.000000 L 40.000000 13.000000 Z" fill="#231F20"/><path d=" M 35.000000 13.000000 L 33.000000 13.000000 L 33.000000 15.000000 L 35.000000 15.000000 L 35.000000 13.000000 L 35.000000 13.000000 Z" fill="#231F20"/><path d=" M 30.000000 13.000000 L 28.000000 13.000000 L 28.000000 15.000000 L 30.000000 15.000000 L 30.000000 13.000000 L 30.000000 13.000000 Z" fill="#231F20"/><path d=" M 15.840000 47.000000 L 31.000000 47.000000 L 31.000000 42.000000 C 31.000000 41.000000 25.000000 38.000000 20.000000 36.000000 L 20.000000 32.000000 C 20.000000 32.000000 22.000000 31.299999 22.000000 27.000000 C 23.389999 27.000000 24.000000 23.000000 22.059999 23.000000 C 22.059999 22.580000 23.600000 20.379999 23.000000 18.000000 C 22.000000 14.000000 12.000000 14.000000 11.000000 18.000000 C 6.790000 17.139999 10.000000 22.420000 10.000000 23.000000 C 8.000000 23.000000 8.610000 27.000000 10.000000 27.000000 C 10.000000 31.299999 12.000000 32.000000 12.000000 32.000000 L 12.000000 36.000000 C 7.000000 38.000000 1.000000 41.000000 1.000000 42.000000 L 1.000000 47.000000 Z" stroke="#231F20" stroke-width="2.000000" stroke-linejoin="round" fill="none"/></g></svg>