<svg version="1.1" viewBox="0.000000 0.000000 48.000000 48.000000" xmlns="http://www.w3.org/2000/svg" xmlns:xlink="http://www.w3.org/1999/xlink" overflow="hidden"><defs></defs><g id="icons"><path d=" M 28.000000 26.639999 C 26.440001 26.120001 24.730000 25.570000 23.000000 24.930000 L 23.000000 19.930000 C 23.000000 19.930000 26.000000 18.690001 26.000000 13.930000 C 27.559999 13.930000 27.559999 9.790000 26.000000 9.790000 C 26.000000 9.320000 27.660000 6.570000 27.000000 3.930000 C 26.049999 0.120000 15.000000 0.120000 14.000000 3.930000 C 9.260000 2.930000 12.000000 9.290000 12.000000 9.930000 C 10.430000 9.930000 10.430000 13.930000 12.000000 13.930000 C 12.000000 18.690001 15.000000 19.930000 15.000000 19.930000 L 15.000000 24.930000 C 9.440000 27.000000 2.820000 28.440001 2.000000 30.930000 C 1.352323 33.547897 1.016657 36.233227 1.000000 38.930000 L 25.000000 38.930000" stroke="#231F20" stroke-width="2.000000" stroke-linejoin="round" fill="none"/><rect x="31.000000" y="33.930000" width="16.000000" height="13.000000" stroke="#231F20" stroke-width="2.000000" stroke-linecap="round" stroke-linejoin="round" fill="none"/><line x1="39.000000" y1="42.930000" x2="39.000000" y2="40.930000" stroke="#231F20" stroke-width="2.000000" stroke-linecap="round" stroke-linejoin="round" fill="none"/><path d=" M 38.930000 36.930000 C 37.825432 36.930000 36.930000 37.825432 36.930000 38.930000 C 36.930000 40.034569 37.825432 40.930000 38.930000 40.930000 C 40.034569 40.930000 40.930000 40.034569 40.930000 38.930000 C 40.930000 37.825432 40.034569 36.930000 38.930000 36.930000 Z" fill="#231F20"/><path d=" M 33.000000 33.930000 L 33.000000 31.930000 C 33.000000 28.616291 35.686291 25.930000 39.000000 25.930000 C 42.313709 25.930000 45.000000 28.616291 45.000000 31.930000 L 45.000000 33.930000" stroke="#231F20" stroke-width="2.000000" stroke-linecap="round" stroke-linejoin="round" fill="none"/></g></svg>