<svg version="1.1" viewBox="0.000000 0.000000 48.000000 48.000000" xmlns="http://www.w3.org/2000/svg" xmlns:xlink="http://www.w3.org/1999/xlink" overflow="hidden"><defs></defs><g id="icons"><path d=" M 39.209999 32.630001 C 41.740002 31.780001 46.000000 29.459999 46.000000 23.520000 C 45.987183 18.245697 41.701122 13.980421 36.426819 13.993239 C 36.314514 13.993512 36.202225 13.995767 36.090000 14.000000 C 32.940609 7.321267 24.973339 4.460170 18.294605 7.609561 C 13.868604 9.696666 10.936387 14.034973 10.650001 18.920000 C 6.768600 18.108112 2.963938 20.596443 2.152049 24.477842 C 2.052826 24.952198 2.001884 25.435381 2.000000 25.920000 C 2.000000 31.580000 6.640000 32.770000 8.690000 33.000000" stroke="#231F20" stroke-width="2.000000" stroke-linecap="round" stroke-miterlimit="10.000000" fill="none"/><path d=" M 17.600000 28.900000 C 20.250967 25.365377 25.265377 24.649033 28.800001 27.299999 C 30.814447 28.810835 32.000000 31.181940 32.000000 33.700001 L 32.000000 35.700001" stroke="#231F20" stroke-width="2.000000" stroke-linecap="round" stroke-miterlimit="10.000000" fill="none"/><path d=" M 30.400000 38.500000 C 27.749033 42.034622 22.734623 42.750965 19.199999 40.099998 C 17.185553 38.589165 15.999999 36.218056 15.999999 33.699997 L 16.000000 31.700001" stroke="#231F20" stroke-width="2.000000" stroke-linecap="round" stroke-miterlimit="10.000000" fill="none"/><path d=" M 13.000000 34.700001 L 16.000000 31.700001 L 19.000000 34.700001" stroke="#231F20" stroke-width="2.000000" stroke-linecap="round" stroke-miterlimit="10.000000" fill="none"/><path d=" M 35.000000 32.700001 L 32.000000 35.700001 L 29.000000 32.700001" stroke="#231F20" stroke-width="2.000000" stroke-linecap="round" stroke-miterlimit="10.000000" fill="none"/></g></svg>