<svg version="1.1" viewBox="0.000000 0.000000 48.000000 48.000000" xmlns="http://www.w3.org/2000/svg" xmlns:xlink="http://www.w3.org/1999/xlink" overflow="hidden"><defs></defs><g id="icons"><rect x="1.000000" y="1.000000" width="46.000000" height="46.000000" stroke="#231F20" stroke-width="2.000000" stroke-miterlimit="10.000000" fill="none"/><line x1="47.000000" y1="35.000000" x2="1.000000" y2="35.000000" stroke="#231F20" stroke-width="2.000000" stroke-miterlimit="10.000000" fill="none"/><path d=" M 19.000000 7.000000 C 16.550051 7.008428 14.467080 8.790808 14.080000 11.210000 C 12.539079 10.601125 10.796325 11.356697 10.187450 12.897618 C 9.578575 14.438540 10.334147 16.181293 11.875069 16.790169 C 12.233109 16.931644 12.615033 17.002884 13.000000 17.000000 L 19.000000 17.000000 C 21.761423 17.000000 24.000000 14.761424 24.000000 12.000000 C 24.000000 9.238576 21.761423 7.000000 19.000000 7.000000 Z" stroke="#231F20" stroke-width="2.000000" stroke-miterlimit="10.000000" fill="none"/><path d=" M 7.000000 35.000000 C 7.000000 35.000000 11.000000 25.000000 16.000000 25.000000 C 21.000000 25.000000 25.000000 31.000000 25.000000 31.000000 L 31.000000 20.660000 C 31.938778 19.059301 33.997429 18.522709 35.598125 19.461487 C 36.156845 19.789165 36.608948 20.271353 36.899998 20.850000 L 44.000000 35.000000" stroke="#231F20" stroke-width="2.000000" stroke-linejoin="round" fill="none"/></g></svg>