<svg version="1.1" viewBox="0.000000 0.000000 48.000000 48.000000" xmlns="http://www.w3.org/2000/svg" xmlns:xlink="http://www.w3.org/1999/xlink" overflow="hidden"><defs></defs><g id="icons"><circle cx="24.000000" cy="24.000000" r="11.000000" stroke="#231F20" stroke-width="2.000000" stroke-linecap="round" stroke-linejoin="round" fill="none"/><path d=" M 9.000000 16.000000 C 9.000000 7.715729 15.715729 1.000000 24.000000 1.000000 C 32.284271 1.000000 39.000000 7.715729 39.000000 16.000000" stroke="#231F20" stroke-width="2.000000" stroke-linecap="round" stroke-linejoin="round" fill="none"/><path d=" M 9.000000 16.000000 C 4.581722 16.000000 1.000000 19.581722 1.000000 24.000000 C 1.000000 28.418278 4.581722 32.000000 9.000000 32.000000 Z" stroke="#231F20" stroke-width="2.000000" stroke-linecap="round" stroke-linejoin="round" fill="none"/><path d=" M 39.000000 16.000000 C 43.418278 16.000000 47.000000 19.581722 47.000000 24.000000 C 47.000000 28.418278 43.418278 32.000000 39.000000 32.000000 Z" stroke="#231F20" stroke-width="2.000000" stroke-linecap="round" stroke-linejoin="round" fill="none"/><path d=" M 40.000000 47.000000 C 40.000000 43.686291 37.313709 41.000000 34.000000 41.000000 L 14.000000 41.000000 C 10.686292 41.000000 8.000000 43.686291 8.000000 47.000000 Z" stroke="#231F20" stroke-width="2.000000" stroke-linecap="round" stroke-linejoin="round" fill="none"/></g></svg>