<svg version="1.1" viewBox="0.000000 0.000000 48.000000 48.000000" xmlns="http://www.w3.org/2000/svg" xmlns:xlink="http://www.w3.org/1999/xlink" overflow="hidden"><defs></defs><g id="icons"><path d=" M 21.000000 27.000000 C 21.000000 28.656855 22.343145 30.000000 24.000000 30.000000 C 25.656855 30.000000 27.000000 28.656855 27.000000 27.000000 C 27.000000 25.343145 25.656855 24.000000 24.000000 24.000000 C 22.343145 24.000000 21.000000 22.656855 21.000000 21.000000 C 21.000000 19.343145 22.343145 18.000000 24.000000 18.000000 C 25.656855 18.000000 27.000000 19.343145 27.000000 21.000000" stroke="#231F20" stroke-width="2.000000" stroke-linecap="round" stroke-linejoin="round" fill="none"/><line x1="24.000000" y1="30.000000" x2="24.000000" y2="32.000000" stroke="#231F20" stroke-width="2.000000" stroke-linecap="round" stroke-linejoin="round" fill="none"/><line x1="24.000000" y1="16.000000" x2="24.000000" y2="18.000000" stroke="#231F20" stroke-width="2.000000" stroke-linecap="round" stroke-linejoin="round" fill="none"/><path d=" M 47.000000 24.000000 C 46.997765 20.187891 44.594090 16.790703 41.000000 15.520000 L 41.000000 11.000000 L 7.000000 11.000000 L 7.000000 15.520000 C 2.305580 17.153681 -0.175640 22.283621 1.458040 26.978041 C 2.361778 29.574955 4.403085 31.616262 7.000000 32.520000 L 7.000000 37.000000 L 41.000000 37.000000 L 41.000000 32.480000 C 44.594090 31.209297 46.997765 27.812107 47.000000 24.000000 Z" stroke="#231F20" stroke-width="2.000000" stroke-linejoin="round" fill="none"/></g></svg>