<svg version="1.1" viewBox="0.000000 0.000000 48.000000 48.000000" xmlns="http://www.w3.org/2000/svg" xmlns:xlink="http://www.w3.org/1999/xlink" overflow="hidden"><defs></defs><g id="icons"><path d=" M 33.730000 6.840000 C 31.660147 3.463601 27.959778 1.432772 24.000000 1.500000 C 20.040222 1.432772 16.339853 3.463601 14.270000 6.840000" stroke="#231F20" stroke-width="2.000000" stroke-linecap="round" stroke-linejoin="round" fill="none"/><path d=" M 19.000000 20.500000 C 22.194498 21.860567 25.805502 21.860567 29.000000 20.500000" stroke="#231F20" stroke-width="2.000000" stroke-linecap="round" stroke-linejoin="round" fill="none"/><path d=" M 18.000000 7.710000 C 13.660000 5.610000 7.670000 7.480000 7.000000 11.080000 C 7.863092 11.605252 8.495440 12.437665 8.770000 13.410000" stroke="#231F20" stroke-width="2.000000" stroke-linecap="round" stroke-linejoin="round" fill="none"/><path d=" M 7.060000 11.080000 C 5.169712 9.936712 2.710513 10.542275 1.567225 12.432564 C 0.423938 14.322852 1.029501 16.782051 2.919789 17.925339 C 4.247331 18.728266 5.919436 18.691107 7.210000 17.830000 C 8.700000 22.000000 16.209999 22.240000 19.000000 20.500000" stroke="#231F20" stroke-width="2.000000" stroke-linecap="round" stroke-linejoin="round" fill="none"/><path d=" M 39.470001 13.660000 C 39.820835 12.997031 40.351009 12.446065 41.000000 12.070000 C 41.500000 7.920000 34.770000 5.410000 30.000000 7.710000" stroke="#231F20" stroke-width="2.000000" stroke-linecap="round" stroke-linejoin="round" fill="none"/><path d=" M 29.000000 20.500000 C 31.430000 22.020000 38.230000 22.160000 40.450001 18.549999 C 42.130596 19.983839 44.655342 19.783806 46.089184 18.103212 C 47.523026 16.422619 47.322990 13.897870 45.642399 12.464029 C 44.339016 11.352015 42.472160 11.193563 41.000004 12.069999" stroke="#231F20" stroke-width="2.000000" stroke-linecap="round" stroke-linejoin="round" fill="none"/><path d=" M 25.940001 34.919998 C 27.830288 36.063286 30.289488 35.457722 31.432775 33.567436 C 32.576065 31.677149 31.970499 29.217949 30.080212 28.074661 C 28.752668 27.271734 27.080564 27.308893 25.790001 28.170000" stroke="#231F20" stroke-width="2.000000" stroke-linecap="round" stroke-linejoin="round" fill="none"/><path d=" M 22.059999 34.919998 C 20.169712 36.063286 17.710512 35.457722 16.567225 33.567436 C 15.423937 31.677149 16.029501 29.217949 17.919788 28.074661 C 19.247332 27.271734 20.919436 27.308893 22.209999 28.170000" stroke="#231F20" stroke-width="2.000000" stroke-linecap="round" stroke-linejoin="round" fill="none"/><path d=" M 19.000000 20.500000 C 21.000000 22.500000 21.000000 23.500000 21.000000 27.500000" stroke="#231F20" stroke-width="2.000000" stroke-linecap="round" stroke-linejoin="round" fill="none"/><path d=" M 29.000000 20.500000 C 27.000000 22.500000 27.000000 23.500000 27.000000 27.500000" stroke="#231F20" stroke-width="2.000000" stroke-linecap="round" stroke-linejoin="round" fill="none"/><path d=" M 21.000000 35.500000 C 21.000000 46.500000 5.000000 39.889999 5.000000 46.500000 L 24.000000 46.500000" stroke="#231F20" stroke-width="2.000000" stroke-linecap="round" stroke-linejoin="round" fill="none"/><path d=" M 27.000000 35.500000 C 27.000000 46.500000 43.000000 39.889999 43.000000 46.500000 L 24.000000 46.500000" stroke="#231F20" stroke-width="2.000000" stroke-linecap="round" stroke-linejoin="round" fill="none"/></g></svg>