<svg version="1.1" viewBox="0.000000 0.000000 48.000000 48.000000" xmlns="http://www.w3.org/2000/svg" xmlns:xlink="http://www.w3.org/1999/xlink" overflow="hidden"><defs></defs><g id="icons"><path d=" M 31.000000 14.900000 C 28.590000 16.510000 27.350000 19.440001 31.000000 21.900000 C 33.000000 26.900000 36.720001 25.559999 38.919998 23.240000 C 41.119999 20.920000 42.279999 14.450000 40.650002 10.900000 C 37.130001 13.560000 34.000000 12.900000 31.000000 14.900000 Z" stroke="#231F20" stroke-width="2.000000" stroke-linecap="round" stroke-linejoin="round" fill="none"/><path d=" M 24.000000 7.850000 C 26.590000 10.900000 28.000000 14.900000 21.790001 17.600000 C 18.959999 23.900000 14.660000 21.600000 11.790000 18.200001 C 8.920000 14.800000 7.890000 5.820000 10.410000 1.060000 C 15.050000 5.000000 20.809999 4.000000 24.000000 7.850000 Z" stroke="#231F20" stroke-width="2.000000" stroke-linecap="round" stroke-linejoin="round" fill="none"/><path d=" M 36.000000 17.900000 C 30.000000 20.900000 27.000000 28.900000 27.000000 28.900000 C 24.886530 20.938986 20.538651 13.749198 14.470000 8.179999" stroke="#231F20" stroke-width="2.000000" stroke-linecap="round" stroke-linejoin="round" fill="none"/><rect x="1.000000" y="29.060000" width="8.000000" height="16.000000" stroke="#231F20" stroke-width="2.000000" stroke-linejoin="round" fill="none"/><path d=" M 9.000000 42.060001 C 30.459999 49.209999 22.540001 49.279999 47.000000 37.060001 C 44.880001 34.930000 43.200001 34.430000 41.000000 35.060001 L 32.130001 38.000000" stroke="#231F20" stroke-width="2.000000" stroke-linecap="round" stroke-linejoin="round" fill="none"/><path d=" M 9.000000 31.059999 L 15.000000 31.059999 C 18.404413 31.179203 21.630211 32.612892 24.000000 35.060001 L 30.000000 35.060001 C 33.189999 35.060001 33.189999 39.060001 30.000000 39.060001 L 19.000000 39.060001" stroke="#231F20" stroke-width="2.000000" stroke-linecap="round" stroke-linejoin="round" fill="none"/></g></svg>