<svg version="1.1" viewBox="0.000000 0.000000 48.000000 48.000000" xmlns="http://www.w3.org/2000/svg" xmlns:xlink="http://www.w3.org/1999/xlink" overflow="hidden"><defs></defs><g id="icons"><path d=" M 19.000000 28.490000 C 14.334067 24.599459 13.705489 17.663067 17.596029 12.997135 C 21.486570 8.331203 28.422962 7.702624 33.088894 11.593164 C 37.754826 15.483706 38.383404 22.420097 34.492863 27.086029 C 32.616268 29.336632 29.919247 30.745447 26.999998 31.000000" stroke="#231F20" stroke-width="2.000000" stroke-linecap="round" stroke-linejoin="round" fill="none"/><path d=" M 21.000000 15.530000 C 25.655918 19.432518 26.266670 26.370502 22.364153 31.026421 C 18.461634 35.682339 11.523650 36.293091 6.867731 32.390572 C 2.211812 28.488052 1.601060 21.550070 5.503579 16.894150 C 7.384502 14.650105 10.082498 13.248581 13.000000 12.999997" stroke="#231F20" stroke-width="2.000000" stroke-linecap="round" stroke-linejoin="round" fill="none"/><line x1="33.770000" y1="12.230000" x2="45.000000" y2="1.000000" stroke="#231F20" stroke-width="2.000000" stroke-linecap="round" stroke-linejoin="round" fill="none"/><path d=" M 45.000000 9.000000 L 45.000000 1.000000 L 37.000000 1.000000" stroke="#231F20" stroke-width="2.000000" stroke-linecap="round" stroke-linejoin="round" fill="none"/><line x1="13.000000" y1="35.000000" x2="13.000000" y2="47.000000" stroke="#231F20" stroke-width="2.000000" stroke-linecap="round" stroke-linejoin="round" fill="none"/><line x1="9.000000" y1="43.000000" x2="17.000000" y2="43.000000" stroke="#231F20" stroke-width="2.000000" stroke-linecap="round" stroke-linejoin="round" fill="none"/></g></svg>