<svg version="1.1" viewBox="0.000000 0.000000 48.000000 48.000000" xmlns="http://www.w3.org/2000/svg" xmlns:xlink="http://www.w3.org/1999/xlink" overflow="hidden"><defs></defs><g id="icons"><path d=" M 47.000000 34.000000 L 35.000000 34.000000 C 30.100000 34.000000 25.760000 35.570000 23.000000 38.000000" stroke="#231F20" stroke-width="2.000000" stroke-linecap="round" stroke-linejoin="round" fill="none"/><line x1="35.000000" y1="34.020000" x2="28.370000" y2="17.280000" stroke="#231F20" stroke-width="2.000000" stroke-linecap="round" stroke-linejoin="round" fill="none"/><line x1="23.210000" y1="4.270000" x2="22.470000" y2="2.410000" stroke="#231F20" stroke-width="2.000000" stroke-linecap="round" stroke-linejoin="round" fill="none"/><path d=" M 23.209999 4.270000 C 13.460000 8.130000 7.120000 15.240000 10.000000 22.420000 L 10.740000 24.280001 L 15.380000 22.440001 L 16.510000 19.840000 L 19.070000 21.000000 L 37.669998 13.630000 L 38.790001 11.000000 L 41.380001 12.120000 L 46.000000 10.280000 L 45.259998 8.420000 C 42.450001 1.230000 33.000000 0.400000 23.209999 4.270000 Z" stroke="#231F20" stroke-width="2.000000" stroke-linecap="round" stroke-linejoin="round" fill="none"/><path d=" M 47.000000 46.000000 C 44.821598 45.927498 43.072502 44.178402 43.000000 42.000000 C 43.000000 44.209141 41.209141 46.000000 39.000000 46.000000 C 36.790859 46.000000 35.000000 44.209141 35.000000 42.000000 C 35.000000 44.209141 33.209141 46.000000 31.000000 46.000000 C 28.790861 46.000000 27.000000 44.209141 27.000000 42.000000 C 26.927500 44.178402 25.178402 45.927498 23.000000 46.000000 C 20.821598 45.927498 19.072500 44.178402 19.000000 42.000000 C 18.927500 44.178402 17.178402 45.927498 15.000000 46.000000 C 12.821598 45.927498 11.072500 44.178402 11.000000 42.000000 C 10.927500 44.178402 9.178402 45.927498 7.000000 46.000000 C 4.821598 45.927498 3.072500 44.178402 3.000000 42.000000 C 2.911171 43.362892 2.165195 44.597481 1.000000 45.310001" stroke="#231F20" stroke-width="2.000000" stroke-linecap="round" stroke-linejoin="round" fill="none"/></g></svg>