<svg version="1.1" viewBox="0.000000 0.000000 48.000000 48.000000" xmlns="http://www.w3.org/2000/svg" xmlns:xlink="http://www.w3.org/1999/xlink" overflow="hidden"><defs></defs><g id="icons"><path d=" M 33.000000 13.000000 L 47.000000 13.000000 L 47.000000 45.000000 L 1.000000 45.000000 L 1.000000 13.000000 L 15.000000 13.000000" stroke="#231F20" stroke-width="2.000000" stroke-linecap="round" stroke-linejoin="round" fill="none"/><line x1="1.000000" y1="21.000000" x2="47.000000" y2="21.000000" stroke="#231F20" stroke-width="2.000000" stroke-linecap="round" stroke-linejoin="round" fill="none"/><line x1="25.000000" y1="29.000000" x2="33.000000" y2="29.000000" stroke="#231F20" stroke-width="2.000000" stroke-linecap="round" stroke-linejoin="round" fill="none"/><line x1="25.000000" y1="33.000000" x2="37.000000" y2="33.000000" stroke="#231F20" stroke-width="2.000000" stroke-linecap="round" stroke-linejoin="round" fill="none"/><line x1="25.000000" y1="37.000000" x2="35.000000" y2="37.000000" stroke="#231F20" stroke-width="2.000000" stroke-linecap="round" stroke-linejoin="round" fill="none"/><path d=" M 24.000000 3.000000 C 21.238577 3.000000 19.000000 5.238576 19.000000 8.000000 L 19.000000 17.000000 L 29.000000 17.000000 L 29.000000 8.000000 C 29.000000 5.238576 26.761423 3.000000 24.000000 3.000000 Z" stroke="#231F20" stroke-width="2.000000" stroke-linecap="round" stroke-linejoin="round" fill="none"/><circle cx="14.000000" cy="30.000000" r="3.000000" stroke="#231F20" stroke-width="2.000000" stroke-linecap="round" stroke-linejoin="round" fill="none"/><path d=" M 19.000000 39.000000 L 9.000000 39.000000 C 9.000000 35.689999 11.240000 33.000000 14.000000 33.000000 C 16.760000 33.000000 19.000000 35.689999 19.000000 39.000000 Z" stroke="#231F20" stroke-width="2.000000" stroke-linecap="round" stroke-linejoin="round" fill="none"/></g></svg>