<svg version="1.1" viewBox="0.000000 0.000000 48.000000 48.000000" xmlns="http://www.w3.org/2000/svg" xmlns:xlink="http://www.w3.org/1999/xlink" overflow="hidden"><defs></defs><g id="icons"><circle cx="19.000000" cy="19.000000" r="18.000000" stroke="#231F20" stroke-width="2.000000" stroke-linecap="round" stroke-miterlimit="10.000000" fill="none"/><line x1="31.730000" y1="31.730000" x2="47.000000" y2="47.000000" stroke="#231F20" stroke-width="2.000000" stroke-linecap="round" stroke-miterlimit="10.000000" fill="none"/><path d=" M 29.950001 27.950001 L 22.000000 24.639999 L 22.000000 21.139999" stroke="#231F20" stroke-width="2.000000" stroke-miterlimit="10.000000" fill="none"/><path d=" M 16.000000 21.240000 L 16.000000 24.639999 L 8.000000 27.860001" stroke="#231F20" stroke-width="2.000000" stroke-miterlimit="10.000000" fill="none"/><path d=" M 25.309999 14.410000 C 25.309999 18.650000 22.450001 22.080000 18.920000 22.080000 C 15.390000 22.080000 12.520000 18.650000 12.520000 14.410000 C 12.520000 10.170000 15.380000 6.740000 18.920000 6.740000 C 22.459999 6.740000 25.309999 10.180000 25.309999 14.410000 Z" stroke="#231F20" stroke-width="2.000000" stroke-miterlimit="10.000000" fill="none"/><path d=" M 25.250000 13.410000 C 25.040001 13.410000 24.760000 13.410000 24.549999 13.470000 C 22.469999 13.870000 21.129999 13.110000 19.980000 11.110000 C 19.290001 12.430000 17.139999 13.470000 15.380000 13.470000 C 14.446094 13.467689 13.524193 13.259407 12.680000 12.860001" stroke="#231F20" stroke-width="2.000000" stroke-miterlimit="10.000000" fill="none"/></g></svg>