<svg version="1.1" viewBox="0.000000 0.000000 48.000000 48.000000" xmlns="http://www.w3.org/2000/svg" xmlns:xlink="http://www.w3.org/1999/xlink" overflow="hidden"><defs></defs><g id="icons"><path d=" M 22.000000 39.000000 L 4.000000 39.000000 C 2.343146 39.000000 1.000000 37.656853 1.000000 36.000000 L 1.000000 17.000000 L 21.000000 1.000000 L 41.000000 17.000000 L 41.000000 25.000000" stroke="#231F20" stroke-width="2.000000" stroke-linecap="round" stroke-linejoin="round" fill="none"/><path d=" M 7.000000 33.000000 L 17.000000 25.000000 L 25.000000 25.000000" stroke="#231F20" stroke-width="2.000000" stroke-linecap="round" stroke-linejoin="round" fill="none"/><line x1="41.000000" y1="17.000000" x2="29.000000" y2="23.000000" stroke="#231F20" stroke-width="2.000000" stroke-linecap="round" stroke-linejoin="round" fill="none"/><line x1="1.000000" y1="17.000000" x2="13.000000" y2="23.000000" stroke="#231F20" stroke-width="2.000000" stroke-linecap="round" stroke-linejoin="round" fill="none"/><path d=" M 43.220001 35.610001 C 43.220001 39.812889 39.812889 43.220001 35.610001 43.220001 C 31.407114 43.220001 28.000000 39.812889 28.000000 35.610001 C 28.000000 31.407114 31.407112 28.000000 35.610001 28.000000 C 39.812889 28.000000 43.220001 31.407112 43.220001 35.610001 Z" stroke="#231F20" stroke-width="2.000000" stroke-miterlimit="10.000000" fill="none"/><line x1="41.000000" y1="41.000000" x2="47.000000" y2="47.000000" stroke="#231F20" stroke-width="2.000000" stroke-linecap="round" stroke-miterlimit="10.000000" fill="none"/></g></svg>