<svg version="1.1" viewBox="0.000000 0.000000 48.000000 48.000000" xmlns="http://www.w3.org/2000/svg" xmlns:xlink="http://www.w3.org/1999/xlink" overflow="hidden"><defs></defs><g id="icons"><path d=" M 31.000000 15.000000 L 39.000000 15.000000 C 43.418278 15.000000 47.000000 18.581722 47.000000 23.000000 L 47.000000 25.000000 C 47.000000 29.418278 43.418278 33.000000 39.000000 33.000000 L 31.000000 33.000000" stroke="#231F20" stroke-width="2.000000" stroke-linecap="round" stroke-linejoin="round" fill="none"/><path d=" M 17.000000 15.000000 L 9.000000 15.000000 C 4.581722 15.000000 1.000000 18.581722 1.000000 23.000000 L 1.000000 25.000000 C 1.000000 29.418278 4.581722 33.000000 9.000000 33.000000 L 17.000000 33.000000" stroke="#231F20" stroke-width="2.000000" stroke-linecap="round" stroke-linejoin="round" fill="none"/><line x1="24.000000" y1="11.000000" x2="24.000000" y2="5.000000" stroke="#231F20" stroke-width="2.000000" stroke-linecap="round" stroke-linejoin="round" fill="none"/><line x1="30.000000" y1="10.000000" x2="33.000000" y2="7.000000" stroke="#231F20" stroke-width="2.000000" stroke-linecap="round" stroke-linejoin="round" fill="none"/><line x1="18.000000" y1="10.000000" x2="15.000000" y2="7.000000" stroke="#231F20" stroke-width="2.000000" stroke-linecap="round" stroke-linejoin="round" fill="none"/><line x1="24.000000" y1="37.000000" x2="24.000000" y2="43.000000" stroke="#231F20" stroke-width="2.000000" stroke-linecap="round" stroke-linejoin="round" fill="none"/><line x1="30.000000" y1="38.000000" x2="33.000000" y2="41.000000" stroke="#231F20" stroke-width="2.000000" stroke-linecap="round" stroke-linejoin="round" fill="none"/><line x1="18.000000" y1="38.000000" x2="15.000000" y2="41.000000" stroke="#231F20" stroke-width="2.000000" stroke-linecap="round" stroke-linejoin="round" fill="none"/></g></svg>