<svg version="1.1" viewBox="0.000000 0.000000 48.000000 48.000000" xmlns="http://www.w3.org/2000/svg" xmlns:xlink="http://www.w3.org/1999/xlink" overflow="hidden"><defs></defs><g id="icons"><line x1="7.000000" y1="7.000000" x2="29.000000" y2="7.000000" stroke="#231F20" stroke-width="2.000000" stroke-linecap="round" stroke-linejoin="round" fill="none"/><rect x="7.000000" y="13.000000" width="10.000000" height="12.000000" stroke="#231F20" stroke-width="2.000000" stroke-linecap="round" stroke-linejoin="round" fill="none"/><line x1="23.000000" y1="17.000000" x2="29.000000" y2="17.000000" stroke="#231F20" stroke-width="2.000000" stroke-linecap="round" stroke-linejoin="round" fill="none"/><line x1="21.000000" y1="21.000000" x2="29.000000" y2="21.000000" stroke="#231F20" stroke-width="2.000000" stroke-linecap="round" stroke-linejoin="round" fill="none"/><line x1="21.000000" y1="25.000000" x2="29.000000" y2="25.000000" stroke="#231F20" stroke-width="2.000000" stroke-linecap="round" stroke-linejoin="round" fill="none"/><line x1="7.000000" y1="29.000000" x2="29.000000" y2="29.000000" stroke="#231F20" stroke-width="2.000000" stroke-linecap="round" stroke-linejoin="round" fill="none"/><line x1="7.000000" y1="33.000000" x2="29.000000" y2="33.000000" stroke="#231F20" stroke-width="2.000000" stroke-linecap="round" stroke-linejoin="round" fill="none"/><line x1="7.000000" y1="37.000000" x2="29.000000" y2="37.000000" stroke="#231F20" stroke-width="2.000000" stroke-linecap="round" stroke-linejoin="round" fill="none"/><path d=" M 39.000000 11.000000 L 43.000000 11.000000 L 43.000000 41.000000 C 43.000000 42.104568 42.104568 43.000000 41.000000 43.000000 C 39.895432 43.000000 39.000000 42.104568 39.000000 41.000000 L 39.000000 4.000000 L 35.000000 4.000000 L 35.000000 8.000000" stroke="#231F20" stroke-width="2.000000" stroke-linecap="round" stroke-linejoin="round" fill="none"/><path d=" M 41.000000 47.000000 L 7.000000 47.000000 C 3.686291 47.000000 1.000000 44.313709 1.000000 41.000000 L 1.000000 1.000000 L 35.000000 1.000000 L 35.000000 41.000000 C 35.000000 44.313709 37.686291 47.000000 41.000000 47.000000 C 44.313709 47.000000 47.000000 44.313709 47.000000 41.000000 L 47.000000 7.000000 L 39.000000 7.000000" stroke="#231F20" stroke-width="2.000000" stroke-linecap="round" stroke-linejoin="round" fill="none"/></g></svg>