<svg version="1.1" viewBox="0.000000 0.000000 48.000000 48.000000" xmlns="http://www.w3.org/2000/svg" xmlns:xlink="http://www.w3.org/1999/xlink" overflow="hidden"><defs></defs><g id="icons"><circle cx="15.000000" cy="9.000000" r="8.000000" stroke="#000000" stroke-width="2.000000" stroke-linecap="round" stroke-linejoin="round" fill="none"/><path d=" M 29.000000 31.000000 L 29.000000 23.000000 C 29.000000 21.895430 28.104570 21.000000 27.000000 21.000000 L 3.000000 21.000000 C 1.895430 21.000000 1.000000 21.895430 1.000000 23.000000 L 1.000000 47.000000" stroke="#000000" stroke-width="2.000000" stroke-linecap="round" stroke-linejoin="round" fill="none"/><path d=" M 47.000000 47.000000 L 47.000000 33.000000 C 47.000000 31.895430 46.104568 31.000000 45.000000 31.000000 L 21.000000 31.000000 C 19.895430 31.000000 19.000000 31.895430 19.000000 33.000000 L 19.000000 47.000000" stroke="#000000" stroke-width="2.000000" stroke-linecap="round" stroke-linejoin="round" fill="none"/><line x1="7.000000" y1="27.000000" x2="23.000000" y2="27.000000" stroke="#000000" stroke-width="2.000000" stroke-linecap="round" stroke-linejoin="round" fill="none"/><line x1="7.000000" y1="33.000000" x2="19.000000" y2="33.000000" stroke="#000000" stroke-width="2.000000" stroke-linecap="round" stroke-linejoin="round" fill="none"/><line x1="7.000000" y1="39.000000" x2="19.000000" y2="39.000000" stroke="#000000" stroke-width="2.000000" stroke-linecap="round" stroke-linejoin="round" fill="none"/><line x1="15.000000" y1="5.000000" x2="15.000000" y2="13.000000" stroke="#000000" stroke-width="2.000000" stroke-linecap="round" stroke-linejoin="round" fill="none"/><line x1="19.000000" y1="9.000000" x2="11.000000" y2="9.000000" stroke="#000000" stroke-width="2.000000" stroke-linecap="round" stroke-linejoin="round" fill="none"/><line x1="15.000000" y1="17.000000" x2="15.000000" y2="21.000000" stroke="#000000" stroke-width="2.000000" stroke-linecap="round" stroke-linejoin="round" fill="none"/><line x1="1.000000" y1="47.000000" x2="47.000000" y2="47.000000" stroke="#000000" stroke-width="2.000000" stroke-linecap="round" stroke-linejoin="round" fill="none"/><rect x="30.000000" y="43.000000" width="6.000000" height="4.000000" stroke="#000000" stroke-width="2.000000" stroke-linecap="round" stroke-linejoin="round" fill="none"/><line x1="23.000000" y1="39.000000" x2="25.000000" y2="39.000000" stroke="#000000" stroke-width="2.000000" stroke-linecap="round" stroke-linejoin="round" fill="none"/><line x1="25.000000" y1="35.000000" x2="23.000000" y2="35.000000" stroke="#000000" stroke-width="2.000000" stroke-linecap="round" stroke-linejoin="round" fill="none"/><line x1="29.000000" y1="39.000000" x2="31.000000" y2="39.000000" stroke="#000000" stroke-width="2.000000" stroke-linecap="round" stroke-linejoin="round" fill="none"/><line x1="31.000000" y1="35.000000" x2="29.000000" y2="35.000000" stroke="#000000" stroke-width="2.000000" stroke-linecap="round" stroke-linejoin="round" fill="none"/><line x1="35.000000" y1="39.000000" x2="37.000000" y2="39.000000" stroke="#000000" stroke-width="2.000000" stroke-linecap="round" stroke-linejoin="round" fill="none"/><line x1="37.000000" y1="35.000000" x2="35.000000" y2="35.000000" stroke="#000000" stroke-width="2.000000" stroke-linecap="round" stroke-linejoin="round" fill="none"/><line x1="41.000000" y1="39.000000" x2="43.000000" y2="39.000000" stroke="#000000" stroke-width="2.000000" stroke-linecap="round" stroke-linejoin="round" fill="none"/><line x1="43.000000" y1="35.000000" x2="41.000000" y2="35.000000" stroke="#000000" stroke-width="2.000000" stroke-linecap="round" stroke-linejoin="round" fill="none"/></g></svg>