<svg version="1.1" viewBox="0.000000 0.000000 48.000000 48.000000" xmlns="http://www.w3.org/2000/svg" xmlns:xlink="http://www.w3.org/1999/xlink" overflow="hidden"><defs></defs><g id="icons"><path d=" M 38.000000 27.000000 L 39.869999 14.820000 C 40.875160 8.269251 36.379570 2.143977 29.828823 1.138817 C 29.223650 1.045958 28.612257 0.999550 28.000000 1.000000 L 20.000000 1.000000 C 13.372591 0.989605 7.991588 6.353755 7.981193 12.981163 C 7.980227 13.596762 8.026633 14.211522 8.120000 14.820000 L 10.000000 27.000000" stroke="#231F20" stroke-width="2.000000" stroke-linecap="round" stroke-miterlimit="10.000000" fill="none"/><line x1="12.000000" y1="45.000000" x2="12.000000" y2="47.000000" stroke="#231F20" stroke-width="2.000000" stroke-linecap="round" stroke-miterlimit="10.000000" fill="none"/><line x1="36.000000" y1="45.000000" x2="36.000000" y2="47.000000" stroke="#231F20" stroke-width="2.000000" stroke-linecap="round" stroke-miterlimit="10.000000" fill="none"/><path d=" M 43.000000 25.000000 C 39.134007 25.000000 36.000000 28.134007 36.000000 32.000000 L 36.000000 35.000000 C 36.000000 35.000000 33.000000 33.000000 24.000000 33.000000 C 15.000000 33.000000 12.000000 35.000000 12.000000 35.000000 L 12.000000 32.000000 C 12.000000 28.134007 8.865993 25.000000 5.000000 25.000000 C 2.790889 24.988813 0.990982 26.770582 0.979795 28.979692 C 0.971543 30.609228 1.952639 32.080872 3.460000 32.700001 C 4.393225 33.082241 5.002052 33.991531 5.000000 35.000000 L 5.000000 39.000000 C 5.000000 42.313709 7.686292 45.000000 11.000000 45.000000 L 37.000000 45.000000 C 40.313709 45.000000 43.000000 42.313709 43.000000 39.000000 L 43.000000 35.000000 C 42.996284 33.993969 43.600700 33.085369 44.529999 32.700001 C 46.573460 31.860619 47.549557 29.523611 46.710175 27.480150 C 46.092422 25.976240 44.625835 24.995869 43.000000 25.000000 Z" stroke="#231F20" stroke-width="2.000000" stroke-miterlimit="10.000000" fill="none"/><path d=" M 30.000000 20.000000 L 28.000000 18.000000 L 30.000000 16.000000" stroke="#231F20" stroke-width="2.000000" stroke-linecap="round" stroke-linejoin="round" fill="none"/><path d=" M 18.000000 20.000000 L 20.000000 18.000000 L 18.000000 16.000000" stroke="#231F20" stroke-width="2.000000" stroke-linecap="round" stroke-linejoin="round" fill="none"/><circle cx="24.000000" cy="18.000000" r="3.000000" stroke="#231F20" stroke-width="2.000000" stroke-linecap="round" stroke-linejoin="round" fill="none"/></g></svg>