<svg version="1.1" viewBox="0.000000 0.000000 48.000000 48.000000" xmlns="http://www.w3.org/2000/svg" xmlns:xlink="http://www.w3.org/1999/xlink" overflow="hidden"><defs></defs><g id="icons"><line x1="4.000000" y1="46.970000" x2="14.000000" y2="36.970000" stroke="#231F20" stroke-width="2.000000" stroke-linecap="round" stroke-linejoin="round" fill="none"/><line x1="14.000000" y1="46.970000" x2="24.000000" y2="36.970000" stroke="#231F20" stroke-width="2.000000" stroke-linecap="round" stroke-linejoin="round" fill="none"/><line x1="24.000000" y1="46.970000" x2="34.000000" y2="36.970000" stroke="#231F20" stroke-width="2.000000" stroke-linecap="round" stroke-linejoin="round" fill="none"/><path d=" M 40.500000 16.420000 C 41.817265 13.379363 40.420197 9.846584 37.379559 8.529319 C 36.398327 8.104229 35.321312 7.949104 34.259998 8.080000 C 32.060757 2.416912 25.687078 -0.391090 20.023991 1.808153 C 16.125944 3.321946 13.423338 6.915033 13.049999 11.080000 C 7.569154 11.759840 3.677171 16.754063 4.357011 22.234907 C 4.965110 27.137371 9.061914 30.861204 13.999999 31.000000 L 36.000000 31.000000 C 40.418278 30.996452 43.997120 27.411854 43.993572 22.993578 C 43.991451 20.350416 42.683914 17.878902 40.500000 16.389999 Z" stroke="#231F20" stroke-width="2.000000" stroke-linecap="round" stroke-linejoin="round" fill="none"/></g></svg>