<svg version="1.1" viewBox="0.000000 0.000000 48.000000 48.000000" xmlns="http://www.w3.org/2000/svg" xmlns:xlink="http://www.w3.org/1999/xlink" overflow="hidden"><defs></defs><g id="icons"><path d=" M 8.000000 16.000000 L 8.000000 16.000000 C 6.343146 16.000000 5.000000 14.656855 5.000000 13.000000 C 5.000000 11.343145 6.343146 10.000000 8.000000 10.000000 L 10.000000 10.000000 C 8.343145 10.000000 7.000000 8.656855 7.000000 7.000000 C 7.000000 5.343146 8.343145 4.000000 10.000000 4.000000 L 23.000000 4.000000 C 28.700001 4.000000 30.000000 6.370000 37.000000 7.370000 L 37.000000 24.370001 C 32.000000 24.370001 24.000000 33.369999 24.000000 41.369999 C 24.000000 44.529999 19.620001 45.529999 18.000000 39.750000 C 17.000000 36.230000 20.000000 28.000000 20.000000 28.000000 L 4.000000 28.000000 C 2.343146 28.000000 1.000000 26.656855 1.000000 25.000000 C 1.000000 23.343145 2.343146 22.000000 4.000000 22.000000 L 6.000000 22.000000 C 4.343146 22.000000 3.000000 20.656855 3.000000 19.000000 C 3.000000 17.343145 4.343146 16.000000 6.000000 16.000000 L 8.000000 16.000000" stroke="#231F20" stroke-width="2.000000" stroke-linecap="round" stroke-linejoin="round" fill="none"/><rect x="37.000000" y="4.040000" width="10.000000" height="22.000000" stroke="#231F20" stroke-width="2.000000" stroke-linecap="round" stroke-linejoin="round" fill="none"/><path d=" M 41.000000 6.410000 C 40.447716 6.410000 40.000000 6.857715 40.000000 7.410000 C 40.000000 7.962285 40.447716 8.410000 41.000000 8.410000 C 41.552284 8.410000 42.000000 7.962285 42.000000 7.410000 C 42.000000 6.857715 41.552284 6.410000 41.000000 6.410000 Z" fill="#231F20"/></g></svg>