<svg version="1.1" viewBox="0.000000 0.000000 48.000000 48.000000" xmlns="http://www.w3.org/2000/svg" xmlns:xlink="http://www.w3.org/1999/xlink" overflow="hidden"><defs></defs><g id="icons"><path d=" M 20.000000 33.000000 L 4.000000 33.000000 C 2.343146 33.000000 1.000000 31.656855 1.000000 30.000000 L 1.000000 8.000000 C 1.000000 6.343146 2.343146 5.000000 4.000000 5.000000 L 40.000000 5.000000 C 41.656853 5.000000 43.000000 6.343146 43.000000 8.000000 L 43.000000 19.000000" stroke="#231F20" stroke-width="2.000000" stroke-linecap="round" stroke-linejoin="round" fill="none"/><path d=" M 42.160000 5.940000 L 22.000000 22.000000 L 1.840000 5.940000" stroke="#231F20" stroke-width="2.000000" stroke-linecap="round" stroke-linejoin="round" fill="none"/><path d=" M 47.000000 43.000000 L 23.000000 43.000000 L 35.000000 19.000000 L 47.000000 43.000000 Z" stroke="#231F20" stroke-width="2.000000" stroke-linecap="round" stroke-linejoin="round" fill="none"/><line x1="35.000000" y1="28.820000" x2="35.000000" y2="35.360000" stroke="#231F20" stroke-width="2.000000" stroke-linecap="round" stroke-linejoin="round" fill="none"/><path d=" M 35.000000 37.549999 C 34.398010 37.549999 33.910000 38.038010 33.910000 38.639999 C 33.910000 39.241989 34.398010 39.730000 35.000000 39.730000 C 35.601990 39.730000 36.090000 39.241989 36.090000 38.639999 C 36.090000 38.038010 35.601990 37.549999 35.000000 37.549999 Z" fill="#231F20"/></g></svg>