<svg version="1.1" viewBox="0.000000 0.000000 48.000000 48.000000" xmlns="http://www.w3.org/2000/svg" xmlns:xlink="http://www.w3.org/1999/xlink" overflow="hidden"><defs></defs><g id="icons"><path d=" M 40.509998 27.000000 L 47.000000 27.000000 L 47.000000 21.000000 L 40.509998 21.000000 C 40.099133 18.974913 39.426838 17.011808 38.509998 15.160000 L 43.099998 10.560000 L 37.430000 4.910000 L 32.840000 9.500000 C 30.988192 8.583161 29.025087 7.910865 27.000000 7.500000 L 27.000000 1.000000 L 21.000000 1.000000 L 21.000000 7.490000 C 18.974913 7.900865 17.011808 8.573161 15.160000 9.490000 L 10.560000 4.900000 L 4.910000 10.560000 L 9.500000 15.160000 C 8.583161 17.011808 7.910865 18.974913 7.500000 21.000000 L 1.000000 21.000000 L 1.000000 27.000000 L 7.490000 27.000000 C 7.900865 29.025087 8.573161 30.988192 9.490000 32.840000 L 4.900000 37.439999 L 10.550000 43.090000 L 15.150000 38.500000 C 17.001808 39.416840 18.964912 40.089134 20.990000 40.500000 L 20.990000 47.000000 L 26.990000 47.000000 L 26.990000 40.509998 C 29.015087 40.099133 30.978191 39.426838 32.829998 38.509998 L 37.430000 43.099998 L 43.080002 37.450001 L 38.490002 32.849998 C 39.414558 30.996008 40.093605 29.029455 40.510002 26.999998 Z" stroke="#231F20" stroke-width="2.000000" stroke-linecap="round" stroke-linejoin="round" fill="none"/><circle cx="24.000000" cy="24.000000" r="9.000000" stroke="#231F20" stroke-width="2.000000" stroke-linecap="round" stroke-linejoin="round" fill="none"/></g></svg>