<svg version="1.1" viewBox="0.000000 0.000000 48.000000 48.000000" xmlns="http://www.w3.org/2000/svg" xmlns:xlink="http://www.w3.org/1999/xlink" overflow="hidden"><defs></defs><g id="icons"><path d=" M 43.000000 19.629999 L 43.000000 44.000000 L 5.000000 44.000000 L 5.000000 19.629999" stroke="#231F20" stroke-width="2.000000" stroke-linecap="round" stroke-linejoin="round" fill="none"/><rect x="9.000000" y="26.000000" width="16.000000" height="12.000000" stroke="#231F20" stroke-width="2.000000" stroke-linecap="round" stroke-linejoin="round" fill="none"/><rect x="29.000000" y="26.000000" width="10.000000" height="18.000000" stroke="#231F20" stroke-width="2.000000" stroke-linecap="round" stroke-linejoin="round" fill="none"/><path d=" M 43.000000 4.000000 L 5.000000 4.000000 L 1.000000 12.000000 L 47.000000 12.000000 L 43.000000 4.000000 Z" stroke="#231F20" stroke-width="2.000000" stroke-linecap="round" stroke-linejoin="round" fill="none"/><path d=" M 47.000000 14.000000 C 47.000000 17.313709 44.313709 20.000000 41.000000 20.000000 C 39.450195 19.904922 38.005943 19.182796 37.000000 18.000000 C 35.471153 20.408289 32.851017 21.905510 30.000000 22.000000 C 27.702183 21.997089 25.516560 21.006273 24.000000 19.280001 C 22.483440 21.006275 20.297817 21.997091 18.000000 22.000000 C 15.148983 21.905510 12.528847 20.408289 11.000000 18.000000 C 9.995520 19.184662 8.550418 19.907213 7.000000 20.000000 C 3.686291 20.000000 1.000000 17.313709 1.000000 14.000000 L 1.000000 12.000000 L 47.000000 12.000000 Z" stroke="#231F20" stroke-width="2.000000" stroke-linecap="round" stroke-linejoin="round" fill="none"/><path d=" M 11.000000 18.000000 L 11.000000 12.000000 L 13.000000 4.000000" stroke="#231F20" stroke-width="2.000000" stroke-linecap="round" stroke-linejoin="round" fill="none"/><path d=" M 24.000000 19.280001 L 24.000000 12.000000 L 24.000000 4.000000" stroke="#231F20" stroke-width="2.000000" stroke-linecap="round" stroke-linejoin="round" fill="none"/><path d=" M 37.000000 18.000000 L 37.000000 12.000000 L 35.000000 4.000000" stroke="#231F20" stroke-width="2.000000" stroke-linecap="round" stroke-linejoin="round" fill="none"/><path d=" M 35.000000 35.000000 C 34.447716 35.000000 34.000000 35.447716 34.000000 36.000000 C 34.000000 36.552284 34.447716 37.000000 35.000000 37.000000 C 35.552284 37.000000 36.000000 36.552284 36.000000 36.000000 C 36.000000 35.447716 35.552284 35.000000 35.000000 35.000000 Z" fill="#231F20"/></g></svg>