<svg version="1.1" viewBox="0.000000 0.000000 48.000000 48.000000" xmlns="http://www.w3.org/2000/svg" xmlns:xlink="http://www.w3.org/1999/xlink" overflow="hidden"><defs></defs><g id="icons"><path d=" M 37.000000 9.000000 L 37.000000 5.000000 L 11.000000 5.000000 L 11.000000 1.000000 L 1.000000 1.000000 L 1.000000 32.000000 C 1.000000 33.656853 2.343146 35.000000 4.000000 35.000000 C 5.656854 35.000000 7.000000 33.656853 7.000000 32.000000 L 7.000000 9.000000 L 41.000000 9.000000 L 41.000000 19.000000" stroke="#231F20" stroke-width="2.000000" stroke-linecap="round" stroke-linejoin="round" fill="none"/><line x1="4.000000" y1="35.000000" x2="19.000000" y2="35.000000" stroke="#231F20" stroke-width="2.000000" stroke-linecap="round" stroke-linejoin="round" fill="none"/><path d=" M 46.000000 29.000000 L 46.000000 34.000000 L 41.000000 34.000000" stroke="#231F20" stroke-width="2.000000" stroke-linecap="round" stroke-miterlimit="10.000000" fill="none"/><path d=" M 29.000000 38.000000 C 29.000000 33.029438 33.029438 29.000000 38.000000 29.000000 C 41.402630 29.002386 44.506813 30.942501 46.000000 34.000000" stroke="#231F20" stroke-width="2.000000" stroke-miterlimit="10.000000" fill="none"/><path d=" M 30.000000 46.000000 L 30.000000 42.000000 L 34.000000 42.000000" stroke="#231F20" stroke-width="2.000000" stroke-linecap="round" stroke-miterlimit="10.000000" fill="none"/><path d=" M 47.000000 38.000000 C 47.000000 42.970562 42.970562 47.000000 38.000000 47.000000 C 34.596684 47.000000 31.491341 45.059158 30.000000 42.000000" stroke="#231F20" stroke-width="2.000000" stroke-miterlimit="10.000000" fill="none"/></g></svg>