<svg version="1.1" viewBox="0.000000 0.000000 48.000000 48.000000" xmlns="http://www.w3.org/2000/svg" xmlns:xlink="http://www.w3.org/1999/xlink" overflow="hidden"><defs></defs><g id="icons"><circle cx="19.000000" cy="19.000000" r="18.000000" stroke="#231F20" stroke-width="2.000000" stroke-linecap="round" stroke-miterlimit="10.000000" fill="none"/><line x1="31.730000" y1="31.730000" x2="47.000000" y2="47.000000" stroke="#231F20" stroke-width="2.000000" stroke-linecap="round" stroke-miterlimit="10.000000" fill="none"/><path d=" M 28.000000 30.190001 C 26.389999 29.420000 24.639999 28.660000 23.000000 28.000000 L 23.000000 24.000000 C 23.000000 24.000000 25.000000 23.299999 25.000000 19.000000 C 26.389999 19.000000 27.000000 15.000000 25.059999 15.000000 C 25.059999 14.580000 26.600000 12.380000 26.000000 10.000000 C 25.000000 6.000000 15.000000 6.000000 14.000000 10.000000 C 9.790000 9.140000 13.000000 14.420000 13.000000 15.000000 C 11.000000 15.000000 11.610000 19.000000 13.000000 19.000000 C 13.000000 23.299999 15.000000 24.000000 15.000000 24.000000 L 15.000000 28.000000 C 13.360000 28.660000 11.610000 29.420000 10.000000 30.190001" stroke="#231F20" stroke-width="2.000000" stroke-linejoin="round" fill="none"/></g></svg>