<svg version="1.1" viewBox="0.000000 0.000000 48.000000 48.000000" xmlns="http://www.w3.org/2000/svg" xmlns:xlink="http://www.w3.org/1999/xlink" overflow="hidden"><defs></defs><g id="icons"><path d=" M 21.000000 33.209999 L 21.000000 36.000000 L 15.000000 37.900002" stroke="#231F20" stroke-width="2.000000" stroke-miterlimit="10.000000" fill="none"/><path d=" M 27.000000 33.189999 L 27.000000 36.000000 L 33.000000 37.900002" stroke="#231F20" stroke-width="2.000000" stroke-miterlimit="10.000000" fill="none"/><path d=" M 30.000000 27.540001 C 30.146767 31.001968 27.461769 33.928616 24.000000 34.080002 C 20.538231 33.928619 17.853233 31.001970 18.000000 27.540001 C 17.858818 24.080074 20.540745 21.156775 24.000000 21.000000 C 27.459255 21.156773 30.141182 24.080072 30.000000 27.540001 Z" stroke="#231F20" stroke-width="2.000000" stroke-miterlimit="10.000000" fill="none"/><path d=" M 29.900000 26.340000 C 28.401285 27.443594 26.291697 27.123283 25.188105 25.624569 C 25.120640 25.532949 25.057858 25.437971 25.000000 25.340000 C 23.158560 27.127750 20.355301 27.478666 18.129999 26.200001" stroke="#231F20" stroke-width="2.000000" stroke-linejoin="round" fill="none"/><path d=" M 29.000000 9.000000 L 41.000000 9.000000 L 41.000000 47.000000 L 7.000000 47.000000 L 7.000000 9.000000 L 19.000000 9.000000" stroke="#231F20" stroke-width="2.000000" stroke-linejoin="round" fill="none"/><path d=" M 29.000000 13.000000 L 37.000000 13.000000 L 37.000000 43.000000 L 11.000000 43.000000 L 11.000000 13.000000 L 19.000000 13.000000" stroke="#231F20" stroke-width="2.000000" stroke-linejoin="round" fill="none"/><path d=" M 29.000000 16.000000 L 19.000000 16.000000 L 19.000000 6.000000 C 19.000000 3.238576 21.238577 1.000000 24.000000 1.000000 C 26.761423 1.000000 29.000000 3.238576 29.000000 6.000000 Z" stroke="#231F20" stroke-width="2.000000" stroke-linejoin="round" fill="none"/><path d=" M 24.000000 4.000000 C 22.895430 4.000000 22.000000 4.895431 22.000000 6.000000 C 22.000000 7.104569 22.895430 8.000000 24.000000 8.000000 C 25.104570 8.000000 26.000000 7.104569 26.000000 6.000000 C 26.000000 4.895431 25.104570 4.000000 24.000000 4.000000 Z" fill="#231F20"/></g></svg>