<svg version="1.1" viewBox="0.000000 0.000000 48.000000 48.000000" xmlns="http://www.w3.org/2000/svg" xmlns:xlink="http://www.w3.org/1999/xlink" overflow="hidden"><defs></defs><g id="icons"><path d=" M 47.000000 9.000000 L 39.000000 1.000000 L 25.000000 1.000000 L 25.000000 31.000000 L 47.000000 31.000000 L 47.000000 9.000000 Z" stroke="#231F20" stroke-width="2.000000" stroke-linejoin="round" fill="none"/><path d=" M 39.000000 1.000000 L 39.000000 9.000000 L 47.000000 9.000000" stroke="#231F20" stroke-width="2.000000" stroke-linecap="round" stroke-linejoin="round" fill="none"/><rect x="1.000000" y="33.000000" width="8.000000" height="14.000000" stroke="#231F20" stroke-width="2.000000" stroke-linejoin="round" fill="none"/><path d=" M 9.000000 45.000000 L 43.000000 45.000000 C 43.000000 42.000000 36.000000 39.000000 28.000000 39.000000 L 14.000000 39.000000" stroke="#231F20" stroke-width="2.000000" stroke-linecap="round" stroke-linejoin="round" fill="none"/><path d=" M 9.000000 35.000000 L 16.000000 35.000000 C 20.709999 35.000000 23.000000 38.000000 24.000000 39.000000" stroke="#231F20" stroke-width="2.000000" stroke-linejoin="round" fill="none"/><path d=" M 5.000000 42.000000 C 4.447715 42.000000 4.000000 42.447716 4.000000 43.000000 C 4.000000 43.552284 4.447715 44.000000 5.000000 44.000000 C 5.552285 44.000000 6.000000 43.552284 6.000000 43.000000 C 6.000000 42.447716 5.552285 42.000000 5.000000 42.000000 Z" fill="#231F20"/></g></svg>