<svg version="1.1" viewBox="0.000000 0.000000 48.000000 48.000000" xmlns="http://www.w3.org/2000/svg" xmlns:xlink="http://www.w3.org/1999/xlink" overflow="hidden"><defs></defs><g id="icons"><path d=" M 14.000000 8.000000 C 13.447715 8.000000 13.000000 8.447715 13.000000 9.000000 C 13.000000 9.552285 13.447715 10.000000 14.000000 10.000000 C 14.552285 10.000000 15.000000 9.552285 15.000000 9.000000 C 15.000000 8.447715 14.552285 8.000000 14.000000 8.000000 Z" fill="#231F20"/><path d=" M 19.000000 6.000000 C 18.447716 6.000000 18.000000 6.447715 18.000000 7.000000 C 18.000000 7.552285 18.447716 8.000000 19.000000 8.000000 C 19.552284 8.000000 20.000000 7.552285 20.000000 7.000000 C 20.000000 6.447715 19.552284 6.000000 19.000000 6.000000 Z" fill="#231F20"/><path d=" M 29.000000 6.000000 C 28.447716 6.000000 28.000000 6.447715 28.000000 7.000000 C 28.000000 7.552285 28.447716 8.000000 29.000000 8.000000 C 29.552284 8.000000 30.000000 7.552285 30.000000 7.000000 C 30.000000 6.447715 29.552284 6.000000 29.000000 6.000000 Z" fill="#231F20"/><path d=" M 24.000000 8.000000 C 23.447716 8.000000 23.000000 8.447715 23.000000 9.000000 C 23.000000 9.552285 23.447716 10.000000 24.000000 10.000000 C 24.552284 10.000000 25.000000 9.552285 25.000000 9.000000 C 25.000000 8.447715 24.552284 8.000000 24.000000 8.000000 Z" fill="#231F20"/><path d=" M 34.000000 8.000000 C 33.447716 8.000000 33.000000 8.447715 33.000000 9.000000 C 33.000000 9.552285 33.447716 10.000000 34.000000 10.000000 C 34.552284 10.000000 35.000000 9.552285 35.000000 9.000000 C 35.000000 8.447715 34.552284 8.000000 34.000000 8.000000 Z" fill="#231F20"/><path d=" M 24.000000 33.000000 L 36.000000 39.000000 L 42.000000 33.000000" stroke="#231F20" stroke-width="2.000000" stroke-linecap="round" stroke-linejoin="round" fill="none"/><path d=" M 47.000000 37.000000 C 47.000000 39.209141 45.209141 41.000000 43.000000 41.000000 L 5.000000 41.000000 C 2.790861 41.000000 1.000000 39.209141 1.000000 37.000000 C 1.000000 34.790859 2.790861 33.000000 5.000000 33.000000 L 43.000000 33.000000 C 45.209141 33.000000 47.000000 34.790859 47.000000 37.000000 Z" stroke="#231F20" stroke-width="2.000000" stroke-linecap="round" stroke-linejoin="round" fill="none"/><path d=" M 43.000000 25.000000 C 45.209141 25.000000 47.000000 26.790861 47.000000 29.000000 C 47.000000 31.209139 45.209141 33.000000 43.000000 33.000000 L 5.000000 33.000000 C 2.790861 33.000000 1.000000 31.209139 1.000000 29.000000 C 1.000000 26.790861 2.790861 25.000000 5.000000 25.000000" stroke="#231F20" stroke-width="2.000000" stroke-linecap="round" stroke-linejoin="round" fill="none"/><path d=" M 5.000000 41.000000 L 5.000000 43.000000 C 5.000000 45.209141 6.790861 47.000000 9.000000 47.000000 L 39.000000 47.000000 C 41.209141 47.000000 43.000000 45.209141 43.000000 43.000000 L 43.000000 41.000000 Z" stroke="#231F20" stroke-width="2.000000" stroke-linecap="round" stroke-linejoin="round" fill="none"/><path d=" M 43.000000 19.000000 C 43.000000 8.510000 34.490002 1.000000 24.000000 1.000000 C 13.510000 1.000000 5.000000 8.510000 5.000000 19.000000 Z" stroke="#231F20" stroke-width="2.000000" stroke-linecap="round" stroke-linejoin="round" fill="none"/><path d=" M 5.000000 19.000000 C 5.000000 19.000000 1.000000 19.790001 1.000000 22.000000 C 1.000000 24.209999 2.790000 25.000000 5.000000 25.000000 C 6.087397 25.036068 7.151723 24.681292 8.000000 24.000000 C 8.957636 25.872196 10.897410 27.036060 13.000000 27.000000 C 15.460000 27.000000 17.070000 26.120001 18.000000 24.000000 C 18.920000 26.120001 21.540001 27.000000 24.000000 27.000000 C 26.459999 27.000000 29.070000 26.120001 30.000000 24.000000 C 30.920000 26.120001 32.540001 27.000000 35.000000 27.000000 C 37.102589 27.036060 39.042366 25.872196 40.000000 24.000000 C 40.848278 24.681292 41.912601 25.036068 43.000000 25.000000 C 45.209999 25.000000 47.000000 24.209999 47.000000 22.000000 C 47.000000 19.790001 43.000000 19.000000 43.000000 19.000000" stroke="#231F20" stroke-width="2.000000" stroke-linecap="round" stroke-linejoin="round" fill="none"/></g></svg>