<svg version="1.1" viewBox="0.000000 0.000000 48.000000 48.000000" xmlns="http://www.w3.org/2000/svg" xmlns:xlink="http://www.w3.org/1999/xlink" overflow="hidden"><defs></defs><g id="icons"><path d=" M 47.000000 47.000000 L 21.000000 47.000000 L 21.000000 13.000000 L 39.000000 13.000000 L 47.000000 21.000000 L 47.000000 47.000000 Z" stroke="#231F20" stroke-width="2.000000" stroke-linecap="round" stroke-linejoin="round" fill="none"/><path d=" M 39.000000 13.000000 L 39.000000 21.000000 L 47.000000 21.000000" stroke="#231F20" stroke-width="2.000000" stroke-linecap="round" stroke-linejoin="round" fill="none"/><path d=" M 21.000000 35.000000 L 1.000000 35.000000 L 1.000000 1.000000 L 19.000000 1.000000 L 27.000000 9.000000 L 27.000000 13.000000" stroke="#231F20" stroke-width="2.000000" stroke-linecap="round" stroke-linejoin="round" fill="none"/><path d=" M 19.000000 1.000000 L 19.000000 9.000000 L 27.000000 9.000000" stroke="#231F20" stroke-width="2.000000" stroke-linecap="round" stroke-linejoin="round" fill="none"/><path d=" M 45.000000 11.000000 L 45.000000 8.000000 C 45.000000 6.343146 43.656853 5.000000 42.000000 5.000000 L 32.000000 5.000000" stroke="#231F20" stroke-width="2.000000" stroke-linecap="round" stroke-linejoin="round" fill="none"/><path d=" M 36.000000 1.000000 L 32.000000 5.000000 L 36.000000 9.000000" stroke="#231F20" stroke-width="2.000000" stroke-linecap="round" stroke-linejoin="round" fill="none"/><path d=" M 3.000000 39.000000 L 3.000000 40.000000 C 3.000000 41.656853 4.343146 43.000000 6.000000 43.000000 L 16.000000 43.000000" stroke="#231F20" stroke-width="2.000000" stroke-linecap="round" stroke-linejoin="round" fill="none"/><path d=" M 12.000000 47.000000 L 16.000000 43.000000 L 12.000000 39.000000" stroke="#231F20" stroke-width="2.000000" stroke-linecap="round" stroke-linejoin="round" fill="none"/></g></svg>