<svg version="1.1" viewBox="0.000000 0.000000 48.000000 48.000000" xmlns="http://www.w3.org/2000/svg" xmlns:xlink="http://www.w3.org/1999/xlink" overflow="hidden"><defs></defs><g id="icons"><path d=" M 7.000000 45.000000 L 41.000000 45.000000 L 41.000000 33.000000 L 39.000000 33.000000 L 39.000000 19.000000 L 41.000000 19.000000 L 41.000000 7.000000 C 41.000000 3.686291 38.313709 1.000000 35.000000 1.000000 L 13.000000 1.000000 C 9.686292 1.000000 7.000000 3.686291 7.000000 7.000000 Z" stroke="#231F20" stroke-width="2.000000" stroke-linecap="round" stroke-linejoin="round" fill="none"/><rect x="9.000000" y="45.000000" width="4.000000" height="2.000000" stroke="#231F20" stroke-width="2.000000" stroke-linecap="round" stroke-linejoin="round" fill="none"/><rect x="35.000000" y="45.000000" width="4.000000" height="2.000000" stroke="#231F20" stroke-width="2.000000" stroke-linecap="round" stroke-linejoin="round" fill="none"/><path d=" M 30.000000 39.000000 L 18.000000 39.000000 L 15.000000 45.000000 L 33.000000 45.000000 L 30.000000 39.000000 Z" stroke="#231F20" stroke-width="2.000000" stroke-linecap="round" stroke-linejoin="round" fill="none"/><rect x="7.000000" y="37.000000" width="6.000000" height="4.000000" stroke="#231F20" stroke-width="2.000000" stroke-linecap="round" stroke-linejoin="round" fill="none"/><rect x="35.000000" y="37.000000" width="6.000000" height="4.000000" stroke="#231F20" stroke-width="2.000000" stroke-linecap="round" stroke-linejoin="round" fill="none"/><rect x="33.000000" y="19.000000" width="6.000000" height="14.000000" stroke="#231F20" stroke-width="2.000000" stroke-linecap="round" stroke-linejoin="round" fill="none"/><rect x="7.000000" y="19.000000" width="20.000000" height="14.000000" stroke="#231F20" stroke-width="2.000000" stroke-linecap="round" stroke-linejoin="round" fill="none"/><rect x="11.000000" y="9.000000" width="26.000000" height="6.000000" stroke="#231F20" stroke-width="2.000000" stroke-linecap="round" stroke-linejoin="round" fill="none"/></g></svg>