<svg version="1.1" viewBox="0.000000 0.000000 48.000000 48.000000" xmlns="http://www.w3.org/2000/svg" xmlns:xlink="http://www.w3.org/1999/xlink" overflow="hidden"><defs></defs><g id="icons"><ellipse cx="20.000000" cy="9.000000" rx="19.000000" ry="8.000000" stroke="#231F20" stroke-width="2.000000" stroke-linecap="round" stroke-miterlimit="10.000000" fill="none"/><path d=" M 23.000000 24.900000 C 22.000000 24.969999 21.000000 25.000000 20.000000 25.000000 C 9.510000 25.000000 1.000000 21.420000 1.000000 17.000000" stroke="#231F20" stroke-width="2.000000" stroke-linecap="round" stroke-miterlimit="10.000000" fill="none"/><path d=" M 20.000000 34.000000 C 9.510000 34.000000 1.000000 30.420000 1.000000 26.000000" stroke="#231F20" stroke-width="2.000000" stroke-linecap="round" stroke-miterlimit="10.000000" fill="none"/><path d=" M 20.000000 43.000000 C 9.510000 43.000000 1.000000 39.419998 1.000000 35.000000 L 1.000000 9.000000" stroke="#231F20" stroke-width="2.000000" stroke-linecap="round" stroke-miterlimit="10.000000" fill="none"/><line x1="39.000000" y1="9.000000" x2="39.000000" y2="20.000000" stroke="#231F20" stroke-width="2.000000" stroke-linecap="round" stroke-miterlimit="10.000000" fill="none"/><path d=" M 33.000000 27.520000 C 31.961220 27.901936 30.994318 28.456383 30.139999 29.160000 L 28.000000 27.900000 L 25.000000 33.099998 L 27.180000 34.360001 C 26.966795 35.442940 26.966795 36.557060 27.180000 37.639999 L 25.000000 38.900002 L 28.000000 44.099998 L 30.190001 42.840000 C 31.026760 43.542244 31.977013 44.096840 33.000000 44.480000 L 33.000000 47.000000 L 39.000000 47.000000 L 39.000000 44.480000 C 40.031315 44.101612 40.988930 43.546673 41.830002 42.840000 L 44.000000 44.099998 L 47.000000 38.900002 L 44.820000 37.639999 C 44.930935 37.100132 44.991196 36.551079 45.000000 36.000000 C 44.996101 35.450092 44.945927 34.901489 44.849998 34.360001 L 47.000000 33.099998 L 44.000000 27.900000 L 41.830002 29.160000 C 40.986412 28.456921 40.029449 27.902355 39.000000 27.520000 L 39.000000 25.000000 L 33.000000 25.000000 Z" stroke="#231F20" stroke-width="2.000000" stroke-linejoin="round" fill="none"/><circle cx="35.970000" cy="36.000000" r="4.000000" stroke="#231F20" stroke-width="2.000000" stroke-linejoin="round" fill="none"/></g></svg>