<svg version="1.1" viewBox="0.000000 0.000000 48.000000 48.000000" xmlns="http://www.w3.org/2000/svg" xmlns:xlink="http://www.w3.org/1999/xlink" overflow="hidden"><defs></defs><g id="icons"><path d=" M 1.000000 8.000000 L 1.000000 40.000000 L 9.000000 40.000000 L 9.000000 38.500000 C 9.000000 36.567005 10.567003 35.000000 12.500000 35.000000 C 14.432997 35.000000 16.000000 36.567005 16.000000 38.500000 L 16.000000 40.000000 L 32.000000 40.000000 L 32.000000 38.500000 C 32.000000 36.567005 33.567005 35.000000 35.500000 35.000000 C 37.432995 35.000000 39.000000 36.567005 39.000000 38.500000 L 39.000000 40.000000 L 47.000000 40.000000 L 47.000000 8.000000 Z" stroke="#231F20" stroke-width="2.000000" stroke-linejoin="round" fill="none"/><circle cx="14.000000" cy="18.000000" r="4.000000" stroke="#231F20" stroke-width="2.000000" stroke-miterlimit="10.000000" fill="none"/><path d=" M 14.000000 22.000000 C 9.000000 22.000000 7.000000 25.000000 7.000000 28.000000 L 21.000000 28.000000 C 21.000000 25.000000 19.000000 22.000000 14.000000 22.000000 Z" stroke="#231F20" stroke-width="2.000000" stroke-miterlimit="10.000000" fill="none"/><line x1="26.000000" y1="28.000000" x2="42.000000" y2="28.000000" stroke="#231F20" stroke-width="2.000000" stroke-miterlimit="10.000000" fill="none"/><line x1="26.000000" y1="24.000000" x2="42.000000" y2="24.000000" stroke="#231F20" stroke-width="2.000000" stroke-miterlimit="10.000000" fill="none"/><line x1="26.000000" y1="20.000000" x2="42.000000" y2="20.000000" stroke="#231F20" stroke-width="2.000000" stroke-miterlimit="10.000000" fill="none"/><line x1="26.000000" y1="16.000000" x2="34.000000" y2="16.000000" stroke="#231F20" stroke-width="2.000000" stroke-miterlimit="10.000000" fill="none"/></g></svg>