<svg version="1.1" viewBox="0.000000 0.000000 48.000000 48.000000" xmlns="http://www.w3.org/2000/svg" xmlns:xlink="http://www.w3.org/1999/xlink" overflow="hidden"><defs></defs><g id="icons"><rect x="1.000000" y="5.000000" width="46.000000" height="38.000000" stroke="#231F20" stroke-width="2.000000" stroke-miterlimit="10.000000" fill="none"/><path d=" M 11.000000 9.000000 L 5.000000 9.000000 L 5.000000 15.000000" stroke="#231F20" stroke-width="2.000000" stroke-linecap="square" stroke-miterlimit="10.000000" fill="none"/><path d=" M 37.000000 9.000000 L 43.000000 9.000000 L 43.000000 15.000000" stroke="#231F20" stroke-width="2.000000" stroke-linecap="square" stroke-miterlimit="10.000000" fill="none"/><path d=" M 11.000000 39.000000 L 5.000000 39.000000 L 5.000000 33.000000" stroke="#231F20" stroke-width="2.000000" stroke-linecap="square" stroke-miterlimit="10.000000" fill="none"/><path d=" M 37.000000 39.000000 L 43.000000 39.000000 L 43.000000 33.000000" stroke="#231F20" stroke-width="2.000000" stroke-linecap="square" stroke-miterlimit="10.000000" fill="none"/><path d=" M 39.000000 24.000000 C 39.000000 24.000000 31.000000 33.000000 24.000000 33.000000 C 17.000000 33.000000 9.000000 24.000000 9.000000 24.000000 C 9.000000 24.000000 17.000000 15.000000 24.000000 15.000000 C 31.000000 15.000000 39.000000 24.000000 39.000000 24.000000 Z" stroke="#231F20" stroke-width="2.000000" stroke-linecap="square" stroke-miterlimit="10.000000" fill="none"/><circle cx="24.000000" cy="24.000000" r="5.000000" stroke="#231F20" stroke-width="2.000000" stroke-linecap="square" stroke-miterlimit="10.000000" fill="none"/><circle cx="24.000000" cy="24.000000" r="1.000000" stroke="#231F20" stroke-width="2.000000" stroke-linecap="square" stroke-miterlimit="10.000000" fill="none"/></g></svg>