<svg version="1.1" viewBox="0.000000 0.000000 48.000000 48.000000" xmlns="http://www.w3.org/2000/svg" xmlns:xlink="http://www.w3.org/1999/xlink" overflow="hidden"><defs></defs><g id="icons"><line x1="3.000000" y1="12.000000" x2="45.000000" y2="12.000000" stroke="#231F20" stroke-width="2.000000" stroke-linecap="round" stroke-linejoin="round" fill="none"/><path d=" M 9.050000 7.000000 C 8.497715 7.000000 8.050000 7.447715 8.050000 8.000000 C 8.050000 8.552285 8.497715 9.000000 9.050000 9.000000 C 9.602285 9.000000 10.050000 8.552285 10.050000 8.000000 C 10.050000 7.447715 9.602285 7.000000 9.050000 7.000000 Z" fill="#231F20"/><path d=" M 13.050000 7.000000 C 12.497715 7.000000 12.050000 7.447715 12.050000 8.000000 C 12.050000 8.552285 12.497715 9.000000 13.050000 9.000000 C 13.602285 9.000000 14.050000 8.552285 14.050000 8.000000 C 14.050000 7.447715 13.602285 7.000000 13.050000 7.000000 Z" fill="#231F20"/><path d=" M 17.049999 7.000000 C 16.497715 7.000000 16.049999 7.447715 16.049999 8.000000 C 16.049999 8.552285 16.497715 9.000000 17.049999 9.000000 C 17.602283 9.000000 18.049999 8.552285 18.049999 8.000000 C 18.049999 7.447715 17.602283 7.000000 17.049999 7.000000 Z" fill="#231F20"/><path d=" M 13.000000 34.000000 L 7.050000 34.000000 C 4.840861 34.000000 3.050000 32.209141 3.050000 30.000000 L 3.050000 8.000000 C 3.050000 5.790861 4.840861 4.000000 7.050000 4.000000 L 41.049999 4.000000 C 43.259140 4.000000 45.049999 5.790861 45.049999 8.000000 L 45.049999 30.000000 C 45.049999 32.209141 43.259140 34.000000 41.049999 34.000000 L 36.000000 34.000000" stroke="#231F20" stroke-width="2.000000" stroke-linecap="round" stroke-miterlimit="10.000000" fill="none"/><line x1="25.000000" y1="21.000000" x2="25.000000" y2="44.000000" stroke="#231F20" stroke-width="2.000000" stroke-linecap="round" stroke-linejoin="round" fill="none"/><path d=" M 17.049999 29.000000 L 25.049999 21.000000 L 33.049999 29.000000" stroke="#231F20" stroke-width="2.000000" stroke-linecap="round" stroke-linejoin="round" fill="none"/></g></svg>