<svg version="1.1" viewBox="0.000000 0.000000 48.000000 48.000000" xmlns="http://www.w3.org/2000/svg" xmlns:xlink="http://www.w3.org/1999/xlink" overflow="hidden"><defs></defs><g id="icons"><path d=" M 47.000000 15.000000 C 47.000000 19.970562 42.970562 24.000000 38.000000 24.000000 L 20.900000 24.000000 C 18.746090 24.000000 17.000000 22.253910 17.000000 20.100000 L 17.000000 9.000000 C 17.000000 7.343146 18.343145 6.000000 20.000000 6.000000 L 38.000000 6.000000 C 42.970562 6.000000 47.000000 10.029437 47.000000 15.000000 Z" stroke="#231F20" stroke-width="2.000000" stroke-linecap="round" stroke-linejoin="round" fill="none"/><rect x="11.000000" y="10.000000" width="6.000000" height="10.000000" stroke="#231F20" stroke-width="2.000000" stroke-linecap="round" stroke-linejoin="round" fill="none"/><line x1="1.000000" y1="15.000000" x2="11.000000" y2="15.000000" stroke="#231F20" stroke-width="2.000000" stroke-linecap="round" stroke-linejoin="round" fill="none"/><path d=" M 27.000000 24.000000 L 27.000000 28.000000 L 32.000000 28.000000" stroke="#231F20" stroke-width="2.000000" stroke-linecap="round" stroke-linejoin="round" fill="none"/><line x1="27.000000" y1="6.000000" x2="27.000000" y2="24.000000" stroke="#231F20" stroke-width="2.000000" stroke-linecap="round" stroke-linejoin="round" fill="none"/><line x1="29.000000" y1="42.000000" x2="37.000000" y2="42.000000" stroke="#231F20" stroke-width="2.000000" stroke-linecap="round" stroke-linejoin="round" fill="none"/><path d=" M 41.000000 42.000000 L 35.000000 42.000000 L 31.000000 24.000000 L 37.000000 24.000000 L 41.000000 42.000000 Z" stroke="#231F20" stroke-width="2.000000" stroke-linecap="round" stroke-linejoin="round" fill="none"/></g></svg>