<svg version="1.1" viewBox="0.000000 0.000000 48.000000 48.000000" xmlns="http://www.w3.org/2000/svg" xmlns:xlink="http://www.w3.org/1999/xlink" overflow="hidden"><defs></defs><g id="icons"><line x1="1.000000" y1="41.000000" x2="47.000000" y2="41.000000" stroke="#000000" stroke-width="2.000000" stroke-linecap="round" stroke-linejoin="round" fill="none"/><line x1="1.000000" y1="35.000000" x2="47.000000" y2="35.000000" stroke="#000000" stroke-width="2.000000" stroke-linecap="round" stroke-linejoin="round" fill="none"/><line x1="1.000000" y1="29.000000" x2="47.000000" y2="29.000000" stroke="#000000" stroke-width="2.000000" stroke-linecap="round" stroke-linejoin="round" fill="none"/><line x1="17.000000" y1="23.000000" x2="17.000000" y2="29.000000" stroke="#000000" stroke-width="2.000000" stroke-linecap="round" stroke-linejoin="round" fill="none"/><line x1="37.000000" y1="23.000000" x2="37.000000" y2="29.000000" stroke="#000000" stroke-width="2.000000" stroke-linecap="round" stroke-linejoin="round" fill="none"/><line x1="17.000000" y1="35.000000" x2="17.000000" y2="41.000000" stroke="#000000" stroke-width="2.000000" stroke-linecap="round" stroke-linejoin="round" fill="none"/><line x1="37.000000" y1="35.000000" x2="37.000000" y2="41.000000" stroke="#000000" stroke-width="2.000000" stroke-linecap="round" stroke-linejoin="round" fill="none"/><line x1="9.000000" y1="41.000000" x2="9.000000" y2="47.000000" stroke="#000000" stroke-width="2.000000" stroke-linecap="round" stroke-linejoin="round" fill="none"/><line x1="29.000000" y1="41.000000" x2="29.000000" y2="47.000000" stroke="#000000" stroke-width="2.000000" stroke-linecap="round" stroke-linejoin="round" fill="none"/><line x1="9.000000" y1="29.000000" x2="9.000000" y2="35.000000" stroke="#000000" stroke-width="2.000000" stroke-linecap="round" stroke-linejoin="round" fill="none"/><line x1="29.000000" y1="29.000000" x2="29.000000" y2="35.000000" stroke="#000000" stroke-width="2.000000" stroke-linecap="round" stroke-linejoin="round" fill="none"/><rect x="1.000000" y="23.000000" width="46.000000" height="24.000000" stroke="#000000" stroke-width="2.000000" stroke-linecap="round" stroke-linejoin="round" fill="none"/><path d=" M 35.000000 10.000000 C 36.000000 13.000000 33.000000 13.000000 32.000000 16.000000 C 33.000000 6.000000 24.000000 8.000000 28.000000 1.000000 C 19.559999 2.410000 16.000000 9.000000 17.940001 16.840000 C 16.000000 13.000000 11.000000 13.000000 12.000000 9.000000 C 7.000000 11.330000 5.000000 19.000000 9.000000 23.000000 L 39.000000 23.000000 C 43.000000 18.000000 41.000000 12.000000 35.000000 10.000000 Z" stroke="#000000" stroke-width="2.000000" stroke-linecap="round" stroke-linejoin="round" fill="none"/><path d=" M 22.000000 23.000000 C 20.000000 19.000000 25.000000 14.000000 25.000000 14.000000 C 24.000000 19.000000 30.000000 19.000000 28.000000 23.000000" stroke="#000000" stroke-width="2.000000" stroke-linecap="round" stroke-linejoin="round" fill="none"/><path d=" M 35.000000 19.000000 C 36.500000 20.500000 33.000000 23.000000 33.000000 23.000000" stroke="#000000" stroke-width="2.000000" stroke-linecap="round" stroke-linejoin="round" fill="none"/><path d=" M 13.370000 19.000000 C 11.870000 20.500000 15.370000 23.000000 15.370000 23.000000" stroke="#000000" stroke-width="2.000000" stroke-linecap="round" stroke-linejoin="round" fill="none"/></g></svg>