<svg version="1.1" viewBox="0.000000 0.000000 48.000000 48.000000" xmlns="http://www.w3.org/2000/svg" xmlns:xlink="http://www.w3.org/1999/xlink" overflow="hidden"><defs></defs><g id="icons"><path d=" M 41.000000 18.000000 C 41.000000 8.611159 33.388840 1.000000 24.000000 1.000000 C 14.611159 1.000000 7.000000 8.611159 7.000000 18.000000 L 7.000000 34.000000 C 7.000000 36.759998 8.240000 39.000000 11.000000 39.000000 L 11.000000 43.000000 C 11.000000 45.209141 12.790861 47.000000 15.000000 47.000000 L 33.000000 47.000000 C 35.209141 47.000000 37.000000 45.209141 37.000000 43.000000 L 37.000000 39.000000 C 39.759998 39.000000 41.000000 36.759998 41.000000 34.000000 Z" stroke="#231F20" stroke-width="2.000000" stroke-linecap="round" stroke-linejoin="round" fill="none"/><line x1="24.000000" y1="47.000000" x2="24.000000" y2="39.000000" stroke="#231F20" stroke-width="2.000000" stroke-linecap="round" stroke-linejoin="round" fill="none"/><line x1="31.000000" y1="47.000000" x2="31.000000" y2="39.000000" stroke="#231F20" stroke-width="2.000000" stroke-linecap="round" stroke-linejoin="round" fill="none"/><line x1="17.000000" y1="47.000000" x2="17.000000" y2="39.000000" stroke="#231F20" stroke-width="2.000000" stroke-linecap="round" stroke-linejoin="round" fill="none"/><circle cx="32.000000" cy="28.000000" r="5.000000" stroke="#231F20" stroke-width="2.000000" stroke-linecap="round" stroke-linejoin="round" fill="none"/><circle cx="16.000000" cy="28.000000" r="5.000000" stroke="#231F20" stroke-width="2.000000" stroke-linecap="round" stroke-linejoin="round" fill="none"/><path d=" M 7.000000 21.000000 C 10.313708 21.000000 13.000000 18.313709 13.000000 15.000000 L 13.000000 13.000000" stroke="#231F20" stroke-width="2.000000" stroke-linecap="round" stroke-linejoin="round" fill="none"/><path d=" M 41.000000 21.000000 C 37.686291 21.000000 35.000000 18.313709 35.000000 15.000000 L 35.000000 13.000000" stroke="#231F20" stroke-width="2.000000" stroke-linecap="round" stroke-linejoin="round" fill="none"/><path d=" M 24.000000 34.000000 C 23.447716 34.000000 23.000000 34.447716 23.000000 35.000000 L 25.000000 35.000000 C 25.000000 34.447716 24.552284 34.000000 24.000000 34.000000 Z" stroke="#231F20" stroke-width="2.000000" stroke-linecap="round" stroke-linejoin="round" fill="none"/></g></svg>