<svg version="1.1" viewBox="0.000000 0.000000 48.000000 48.000000" xmlns="http://www.w3.org/2000/svg" xmlns:xlink="http://www.w3.org/1999/xlink" overflow="hidden"><defs></defs><g id="icons"><line x1="10.000000" y1="47.000000" x2="22.000000" y2="47.000000" stroke="#231F20" stroke-width="2.000000" stroke-linecap="round" stroke-linejoin="round" fill="none"/><line x1="16.000000" y1="43.000000" x2="16.000000" y2="47.000000" stroke="#231F20" stroke-width="2.000000" stroke-linejoin="round" fill="none"/><line x1="1.000000" y1="39.000000" x2="31.000000" y2="39.000000" stroke="#231F20" stroke-width="2.000000" stroke-miterlimit="10.000000" fill="none"/><path d=" M 16.000000 21.000000 L 16.000000 18.000000 C 16.000000 12.480000 17.469999 8.000000 23.000000 8.000000" stroke="#231F20" stroke-width="2.000000" stroke-linecap="round" stroke-linejoin="round" fill="none"/><path d=" M 20.000000 17.000000 L 16.000000 21.000000 L 12.000000 17.000000" stroke="#231F20" stroke-width="2.000000" stroke-linecap="round" stroke-linejoin="round" fill="none"/><path d=" M 25.000000 23.000000 L 28.000000 23.000000 C 29.656855 23.000000 31.000000 24.343145 31.000000 26.000000 L 31.000000 40.000000 C 31.000000 41.656853 29.656855 43.000000 28.000000 43.000000 L 4.000000 43.000000 C 2.343146 43.000000 1.000000 41.656853 1.000000 40.000000 L 1.000000 26.000000 C 1.000000 24.343145 2.343146 23.000000 4.000000 23.000000 L 8.000000 23.000000" stroke="#231F20" stroke-width="2.000000" stroke-linecap="round" stroke-linejoin="round" fill="none"/><path d=" M 29.000000 17.000000 L 44.000000 17.000000 C 45.656853 17.000000 47.000000 15.656855 47.000000 14.000000 L 47.000000 7.000000 L 31.000000 7.000000 L 31.000000 15.000000 C 31.000000 16.104570 30.104570 17.000000 29.000000 17.000000 C 27.895430 17.000000 27.000000 16.104570 27.000000 15.000000 L 27.000000 1.000000 L 31.000000 1.000000 L 31.000000 3.000000 L 45.000000 3.000000 L 45.000000 7.000000" stroke="#231F20" stroke-width="2.000000" stroke-linecap="round" stroke-linejoin="round" fill="none"/></g></svg>