<svg version="1.1" viewBox="0.000000 0.000000 48.000000 48.000000" xmlns="http://www.w3.org/2000/svg" xmlns:xlink="http://www.w3.org/1999/xlink" overflow="hidden"><defs></defs><g id="icons"><circle cx="23.000000" cy="25.000000" r="14.000000" stroke="#231F20" stroke-width="2.000000" stroke-linecap="round" stroke-linejoin="round" fill="none"/><path d=" M 23.000000 20.000000 L 23.000000 25.000000 L 29.000000 31.000000" stroke="#231F20" stroke-width="2.000000" stroke-linecap="round" stroke-linejoin="round" fill="none"/><path d=" M 28.000000 12.000000 L 35.000000 5.000000 L 43.000000 13.000000 L 36.000000 20.000000" stroke="#231F20" stroke-width="2.000000" stroke-linejoin="round" fill="none"/><path d=" M 10.000000 30.000000 L 1.000000 39.000000 L 1.000000 47.000000 L 9.000000 47.000000 L 18.000000 38.000000" stroke="#231F20" stroke-width="2.000000" stroke-linejoin="round" fill="none"/><path d=" M 35.000000 5.000000 L 39.000000 1.000000 L 47.000000 9.000000 L 43.000000 13.000000" stroke="#231F20" stroke-width="2.000000" stroke-linecap="round" stroke-linejoin="round" fill="none"/><line x1="39.000000" y1="9.000000" x2="43.000000" y2="5.000000" stroke="#231F20" stroke-width="2.000000" stroke-linecap="round" stroke-linejoin="round" fill="none"/><path d=" M 7.000000 40.000000 C 6.447715 40.000000 6.000000 40.447716 6.000000 41.000000 C 6.000000 41.552284 6.447715 42.000000 7.000000 42.000000 C 7.552285 42.000000 8.000000 41.552284 8.000000 41.000000 C 8.000000 40.447716 7.552285 40.000000 7.000000 40.000000 Z" fill="#231F20"/><path d=" M 10.000000 37.000000 C 9.447715 37.000000 9.000000 37.447716 9.000000 38.000000 C 9.000000 38.552284 9.447715 39.000000 10.000000 39.000000 C 10.552285 39.000000 11.000000 38.552284 11.000000 38.000000 C 11.000000 37.447716 10.552285 37.000000 10.000000 37.000000 Z" fill="#231F20"/></g></svg>