<svg version="1.1" viewBox="0.000000 0.000000 48.000000 48.000000" xmlns="http://www.w3.org/2000/svg" xmlns:xlink="http://www.w3.org/1999/xlink" overflow="hidden"><defs></defs><g id="icons"><path d=" M 8.000000 47.000000 L 12.000000 43.000000 L 16.000000 47.000000 L 20.000000 43.000000 L 24.000000 47.000000 L 28.000000 43.000000 L 32.000000 47.000000 L 36.000000 43.000000 L 40.000000 47.000000 L 40.000000 1.000000 L 36.000000 5.000000 L 32.000000 1.000000 L 28.000000 5.000000 L 24.000000 1.000000 L 20.000000 5.000000 L 16.000000 1.000000 L 12.000000 5.000000 L 8.000000 1.000000 L 8.000000 47.000000 Z" stroke="#231F20" stroke-width="2.000000" stroke-linecap="round" stroke-linejoin="round" fill="none"/><line x1="14.000000" y1="13.000000" x2="30.000000" y2="13.000000" stroke="#231F20" stroke-width="2.000000" stroke-linecap="round" stroke-linejoin="round" fill="none"/><line x1="14.000000" y1="19.000000" x2="22.000000" y2="19.000000" stroke="#231F20" stroke-width="2.000000" stroke-linecap="round" stroke-linejoin="round" fill="none"/><line x1="14.000000" y1="25.000000" x2="22.000000" y2="25.000000" stroke="#231F20" stroke-width="2.000000" stroke-linecap="round" stroke-linejoin="round" fill="none"/><line x1="14.000000" y1="31.000000" x2="20.000000" y2="31.000000" stroke="#231F20" stroke-width="2.000000" stroke-linecap="round" stroke-linejoin="round" fill="none"/><line x1="31.000000" y1="35.000000" x2="31.000000" y2="37.000000" stroke="#231F20" stroke-width="2.000000" stroke-linecap="round" stroke-linejoin="round" fill="none"/><line x1="31.000000" y1="21.000000" x2="31.000000" y2="23.000000" stroke="#231F20" stroke-width="2.000000" stroke-linecap="round" stroke-linejoin="round" fill="none"/><path d=" M 28.000000 32.000000 C 28.000000 33.656853 29.343145 35.000000 31.000000 35.000000 C 32.656853 35.000000 34.000000 33.656853 34.000000 32.000000 C 34.000000 30.343145 32.656853 29.000000 31.000000 29.000000 C 29.343145 29.000000 28.000000 27.656855 28.000000 26.000000 C 28.000000 24.343145 29.343145 23.000000 31.000000 23.000000 C 32.656853 23.000000 34.000000 24.343145 34.000000 26.000000" stroke="#231F20" stroke-width="2.000000" stroke-linecap="round" stroke-linejoin="round" fill="none"/></g></svg>