<svg version="1.1" viewBox="0.000000 0.000000 48.000000 48.000000" xmlns="http://www.w3.org/2000/svg" xmlns:xlink="http://www.w3.org/1999/xlink" overflow="hidden"><defs></defs><g id="icons"><line x1="5.000000" y1="34.000000" x2="5.000000" y2="38.000000" stroke="#231F20" stroke-width="2.000000" stroke-linecap="round" stroke-linejoin="round" fill="none"/><line x1="43.000000" y1="34.000000" x2="43.000000" y2="38.000000" stroke="#231F20" stroke-width="2.000000" stroke-linecap="round" stroke-linejoin="round" fill="none"/><path d=" M 1.000000 22.000000 L 1.000000 30.000000 C 1.000000 32.209141 2.790861 34.000000 5.000000 34.000000 L 43.000000 34.000000 C 45.209141 34.000000 47.000000 32.209141 47.000000 30.000000 L 47.000000 22.000000" stroke="#231F20" stroke-width="2.000000" stroke-linecap="round" stroke-linejoin="round" fill="none"/><path d=" M 41.000000 22.000000 L 41.000000 24.000000 C 41.000000 25.104570 40.104568 26.000000 39.000000 26.000000 L 9.000000 26.000000 C 7.895431 26.000000 7.000000 25.104570 7.000000 24.000000 L 7.000000 22.000000" stroke="#231F20" stroke-width="2.000000" stroke-linecap="round" stroke-linejoin="round" fill="none"/><path d=" M 43.000000 19.000000 L 43.000000 18.000000 C 43.000000 13.581722 39.418278 10.000000 35.000000 10.000000 L 13.000000 10.000000 C 8.581722 10.000000 5.000000 13.581722 5.000000 18.000000 L 5.000000 19.000000" stroke="#231F20" stroke-width="2.000000" stroke-linecap="round" stroke-linejoin="round" fill="none"/><path d=" M 1.000000 22.000000 C 1.000000 20.343145 2.343146 19.000000 4.000000 19.000000 C 5.656854 19.000000 7.000000 20.343145 7.000000 22.000000" stroke="#231F20" stroke-width="2.000000" stroke-linecap="round" stroke-linejoin="round" fill="none"/><path d=" M 47.000000 22.000000 C 47.000000 20.343145 45.656853 19.000000 44.000000 19.000000 C 42.343147 19.000000 41.000000 20.343145 41.000000 22.000000" stroke="#231F20" stroke-width="2.000000" stroke-linecap="round" stroke-linejoin="round" fill="none"/><line x1="24.000000" y1="10.000000" x2="24.000000" y2="26.000000" stroke="#231F20" stroke-width="2.000000" stroke-linecap="round" stroke-linejoin="round" fill="none"/></g></svg>