<svg version="1.1" viewBox="0.000000 0.000000 48.000000 48.000000" xmlns="http://www.w3.org/2000/svg" xmlns:xlink="http://www.w3.org/1999/xlink" overflow="hidden"><defs></defs><g id="icons"><path d=" M 29.000000 36.000000 L 39.000000 36.000000 C 43.418278 36.000000 47.000000 32.418278 47.000000 28.000000 L 47.000000 28.000000 C 46.971661 24.012606 43.716267 20.803154 39.728870 20.831493 C 38.411716 20.840855 37.122219 21.210360 36.000000 21.900000 L 27.750000 26.980000 C 25.484936 28.390371 22.615065 28.390371 20.350000 26.980000 L 12.000000 21.850000 C 8.592810 19.767872 4.142839 20.842049 2.060711 24.249237 C 1.370432 25.378809 1.003527 26.676216 1.000000 28.000000 L 1.000000 28.000000 C 1.000000 32.418278 4.581722 36.000000 9.000000 36.000000 L 19.000000 36.000000" stroke="#231F20" stroke-width="2.000000" stroke-linecap="round" stroke-linejoin="round" fill="none"/><path d=" M 36.799999 21.420000 C 33.889999 18.740000 29.240000 17.000000 24.000000 17.000000 C 18.760000 17.000000 14.110000 18.740000 11.200000 21.420000" stroke="#231F20" stroke-width="2.000000" stroke-linecap="round" stroke-linejoin="round" fill="none"/><circle cx="8.000000" cy="28.000000" r="3.000000" stroke="#231F20" stroke-width="2.000000" stroke-linecap="round" stroke-linejoin="round" fill="none"/><circle cx="40.000000" cy="28.000000" r="3.000000" stroke="#231F20" stroke-width="2.000000" stroke-linecap="round" stroke-linejoin="round" fill="none"/><rect x="19.000000" y="32.000000" width="10.000000" height="6.000000" stroke="#231F20" stroke-width="2.000000" stroke-linecap="round" stroke-linejoin="round" fill="none"/><path d=" M 24.000000 23.000000 C 23.447716 23.000000 23.000000 23.447716 23.000000 24.000000 C 23.000000 24.552284 23.447716 25.000000 24.000000 25.000000 C 24.552284 25.000000 25.000000 24.552284 25.000000 24.000000 C 25.000000 23.447716 24.552284 23.000000 24.000000 23.000000 Z" fill="#231F20"/><path d=" M 10.000000 21.000000 L 11.730000 10.000000 C 11.869500 8.958663 12.688663 8.139501 13.730000 8.000000 L 34.290001 8.000000 C 35.329735 8.142737 36.147263 8.960267 36.290001 10.000000 L 38.000000 21.000000" stroke="#231F20" stroke-width="2.000000" stroke-linecap="round" stroke-linejoin="round" fill="none"/><path d=" M 7.000000 35.750000 L 7.000000 40.000000 L 13.000000 40.000000 L 13.000000 36.000000" stroke="#231F20" stroke-width="2.000000" stroke-linejoin="round" fill="none"/><path d=" M 35.000000 36.000000 L 35.000000 40.000000 L 41.000000 40.000000 L 41.000000 35.750000" stroke="#231F20" stroke-width="2.000000" stroke-linejoin="round" fill="none"/></g></svg>