<svg version="1.1" viewBox="0.000000 0.000000 48.000000 48.000000" xmlns="http://www.w3.org/2000/svg" xmlns:xlink="http://www.w3.org/1999/xlink" overflow="hidden"><defs></defs><g id="icons"><path d=" M 15.000000 20.000000 C 16.557533 18.438690 16.557533 15.911310 15.000000 14.350000 L 10.760000 10.110000 C 9.198772 8.547034 6.666113 8.545625 5.103147 10.106853 C 5.102098 10.107902 5.101048 10.108951 5.100000 10.110000 L 2.760000 12.450000 C 0.745380 14.466618 0.427721 17.622316 2.000000 20.000000 C 8.849948 30.310648 17.689352 39.150051 28.000000 46.000000 C 30.377684 47.572281 33.533382 47.254620 35.549999 45.240002 L 37.880001 42.919998 C 39.442966 41.358768 39.444374 38.826111 37.883148 37.263145 C 37.882099 37.262096 37.881050 37.261047 37.880001 37.259998 L 33.630001 33.000000 C 32.071026 31.455721 29.558977 31.455721 28.000002 33.000000 L 26.580000 34.410000 C 21.836231 30.507519 17.482481 26.153769 13.580000 21.410000 Z" stroke="#231F20" stroke-width="2.000000" stroke-linecap="round" stroke-linejoin="round" fill="none"/><path d=" M 24.000000 1.000000 C 36.702549 1.000000 47.000000 11.297451 47.000000 24.000000" stroke="#231F20" stroke-width="2.000000" stroke-linecap="round" stroke-linejoin="round" fill="none"/><path d=" M 24.000000 9.000000 C 32.284271 9.000000 39.000000 15.715729 39.000000 24.000000" stroke="#231F20" stroke-width="2.000000" stroke-linecap="round" stroke-linejoin="round" fill="none"/><path d=" M 24.000000 17.000000 C 27.865993 17.000000 31.000000 20.134007 31.000000 24.000000" stroke="#231F20" stroke-width="2.000000" stroke-linecap="round" stroke-linejoin="round" fill="none"/></g></svg>