<svg version="1.1" viewBox="0.000000 0.000000 48.000000 48.000000" xmlns="http://www.w3.org/2000/svg" xmlns:xlink="http://www.w3.org/1999/xlink" overflow="hidden"><defs></defs><g id="icons"><rect x="7.000000" y="13.000000" width="24.000000" height="34.000000" stroke="#202020" stroke-width="2.000000" stroke-linecap="round" stroke-linejoin="round" fill="none"/><path d=" M 7.000000 33.000000 L 1.000000 33.000000 L 1.000000 7.000000 C 1.000000 3.686291 3.686291 1.000000 7.000000 1.000000 C 10.313708 1.000000 13.000000 3.686291 13.000000 7.000000 C 13.000000 10.313708 10.313708 13.000000 7.000000 13.000000 L 7.000000 9.000000 L 12.500000 9.000000" stroke="#202020" stroke-width="2.000000" stroke-linecap="round" stroke-linejoin="round" fill="none"/><path d=" M 31.000000 13.000000 C 34.313709 13.000000 37.000000 10.313708 37.000000 7.000000 C 37.000000 3.686291 34.313709 1.000000 31.000000 1.000000 L 7.000000 1.000000" stroke="#202020" stroke-width="2.000000" stroke-linecap="round" stroke-linejoin="round" fill="none"/><line x1="19.000000" y1="21.000000" x2="27.000000" y2="20.990000" stroke="#202020" stroke-width="2.000000" stroke-linecap="round" stroke-linejoin="round" fill="none"/><line x1="19.000000" y1="29.000000" x2="27.000000" y2="28.990000" stroke="#202020" stroke-width="2.000000" stroke-linecap="round" stroke-linejoin="round" fill="none"/><line x1="19.010000" y1="37.000000" x2="27.010000" y2="36.990000" stroke="#202020" stroke-width="2.000000" stroke-linecap="round" stroke-linejoin="round" fill="none"/><path d=" M 10.990000 20.010000 L 12.000000 21.010000 L 15.990000 17.000000" stroke="#202020" stroke-width="2.000000" stroke-linecap="round" stroke-linejoin="round" fill="none"/><path d=" M 11.000000 28.010000 L 12.000000 29.010000 L 16.000000 25.000000" stroke="#202020" stroke-width="2.000000" stroke-linecap="round" stroke-linejoin="round" fill="none"/><path d=" M 47.000000 44.000000 C 47.000000 45.656853 45.656853 47.000000 44.000000 47.000000 C 42.343147 47.000000 41.000000 45.656853 41.000000 44.000000 L 41.000000 15.000000 C 41.000000 13.343145 42.343147 12.000000 44.000000 12.000000 C 45.656853 12.000000 47.000000 13.343145 47.000000 15.000000 Z" stroke="#202020" stroke-width="2.000000" stroke-linecap="round" stroke-linejoin="round" fill="none"/><line x1="41.020000" y1="42.980000" x2="47.020000" y2="42.970000" stroke="#202020" stroke-width="2.000000" stroke-linecap="round" stroke-linejoin="round" fill="none"/><line x1="41.000000" y1="28.980000" x2="47.000000" y2="28.970000" stroke="#202020" stroke-width="2.000000" stroke-linecap="round" stroke-linejoin="round" fill="none"/><path d=" M 37.000000 32.000000 L 37.000000 17.000000 C 37.000000 15.343145 38.343147 14.000000 40.000000 14.000000 L 41.000000 14.000000" stroke="#202020" stroke-width="2.000000" stroke-linecap="round" stroke-linejoin="round" fill="none"/></g></svg>