<svg version="1.1" viewBox="0.000000 0.000000 48.000000 48.000000" xmlns="http://www.w3.org/2000/svg" xmlns:xlink="http://www.w3.org/1999/xlink" overflow="hidden"><defs></defs><g id="icons"><circle cx="10.000000" cy="39.000000" r="4.000000" stroke="#000000" stroke-width="2.000000" stroke-linecap="round" stroke-linejoin="round" fill="none"/><circle cx="38.000000" cy="39.000000" r="4.000000" stroke="#000000" stroke-width="2.000000" stroke-linecap="round" stroke-linejoin="round" fill="none"/><path d=" M 6.000000 39.000000 L 1.000000 39.000000 L 1.000000 28.000000 L 5.000000 24.000000 L 10.000000 15.000000 L 19.000000 15.000000 L 19.000000 11.000000 L 47.000000 11.000000 L 47.000000 39.000000 L 42.000000 39.000000" stroke="#000000" stroke-width="2.000000" stroke-linecap="round" stroke-linejoin="round" fill="none"/><line x1="14.000000" y1="39.000000" x2="34.000000" y2="39.000000" stroke="#000000" stroke-width="2.000000" stroke-linecap="round" stroke-linejoin="round" fill="none"/><path d=" M 15.000000 19.000000 L 12.000000 19.000000 L 9.000000 25.000000" stroke="#000000" stroke-width="2.000000" stroke-linecap="round" stroke-linejoin="round" fill="none"/><line x1="19.000000" y1="15.000000" x2="19.000000" y2="35.000000" stroke="#000000" stroke-width="2.000000" stroke-linecap="round" stroke-linejoin="round" fill="none"/><line x1="1.000000" y1="35.000000" x2="47.000000" y2="35.000000" stroke="#000000" stroke-width="2.000000" stroke-linecap="round" stroke-linejoin="round" fill="none"/><path d=" M 27.000000 9.000000 C 27.000000 6.790861 25.209139 5.000000 23.000000 5.000000 C 20.790861 5.000000 19.000000 6.790861 19.000000 9.000000 L 19.000000 11.000000 L 27.000000 11.000000 Z" stroke="#000000" stroke-width="2.000000" stroke-linecap="round" stroke-linejoin="round" fill="none"/><path d=" M 39.000000 21.000000 L 35.000000 21.000000 L 35.000000 17.000000 L 31.000000 17.000000 L 31.000000 21.000000 L 27.000000 21.000000 L 27.000000 25.000000 L 31.000000 25.000000 L 31.000000 29.000000 L 35.000000 29.000000 L 35.000000 25.000000 L 39.000000 25.000000 L 39.000000 21.000000 Z" stroke="#000000" stroke-width="2.000000" stroke-linecap="round" stroke-linejoin="round" fill="none"/></g></svg>