<svg version="1.1" viewBox="0.000000 0.000000 48.000000 48.000000" xmlns="http://www.w3.org/2000/svg" xmlns:xlink="http://www.w3.org/1999/xlink" overflow="hidden"><defs></defs><g id="icons"><path d=" M 24.500000 31.000000 L 23.500000 31.000000 L 15.500000 39.000000 L 15.500000 31.000000 L 14.500000 31.000000 C 7.320298 31.000000 1.500000 25.179701 1.500000 18.000000 C 1.500000 10.820298 7.320298 5.000000 14.500000 5.000000 L 30.500000 5.000000 C 37.679703 5.000000 43.500000 10.820298 43.500000 18.000000 C 43.504551 19.716785 43.164501 21.417025 42.500000 23.000000" stroke="#231F20" stroke-width="2.000000" stroke-linejoin="round" fill="none"/><path d=" M 46.500000 43.000000 L 26.500000 43.000000 L 36.500000 23.000000 L 46.500000 43.000000 Z" stroke="#231F20" stroke-width="2.000000" stroke-linejoin="round" fill="none"/><line x1="36.500000" y1="32.000000" x2="36.500000" y2="36.000000" stroke="#231F20" stroke-width="2.000000" stroke-linejoin="round" fill="none"/><path d=" M 36.500000 38.000000 C 35.947716 38.000000 35.500000 38.447716 35.500000 39.000000 C 35.500000 39.552284 35.947716 40.000000 36.500000 40.000000 C 37.052284 40.000000 37.500000 39.552284 37.500000 39.000000 C 37.500000 38.447716 37.052284 38.000000 36.500000 38.000000 Z" stroke="#231F20" stroke-width="2.000000" stroke-linejoin="round" fill="none"/></g></svg>