<svg version="1.1" viewBox="0.000000 0.000000 48.000000 48.000000" xmlns="http://www.w3.org/2000/svg" xmlns:xlink="http://www.w3.org/1999/xlink" overflow="hidden"><defs></defs><g id="icons"><path d=" M 45.270000 2.730000 C 43.360310 0.797003 40.245193 0.778111 38.312199 2.687803 C 38.298046 2.701783 38.283981 2.715849 38.270000 2.730000 L 32.270000 8.730000 C 8.270000 8.730000 1.270000 7.730000 1.270000 13.730000 C 1.270000 19.280001 8.670000 16.790001 22.270000 18.730000 L 10.270000 30.730000 L 5.270000 30.730000 C 3.060861 30.730000 1.270000 32.520859 1.270000 34.730000 C 1.270000 38.400002 4.410000 38.450001 8.270000 39.730000 C 9.500000 43.419998 9.600000 46.730000 13.270000 46.730000 C 15.479139 46.730000 17.270000 44.939140 17.270000 42.730000 L 17.270000 37.730000 L 29.270000 25.730000 C 31.219999 39.369999 28.730000 46.730000 34.270000 46.730000 C 40.990002 46.730000 39.270000 40.560001 39.270000 15.730000 L 45.270000 9.730000 C 47.202995 7.820308 47.221889 4.705194 45.312199 2.772197 C 45.298218 2.758046 45.284153 2.743980 45.270000 2.730000 Z" stroke="#231F20" stroke-width="2.000000" stroke-linecap="round" stroke-linejoin="round" fill="none"/></g></svg>