<svg version="1.1" viewBox="0.000000 0.000000 48.000000 48.000000" xmlns="http://www.w3.org/2000/svg" xmlns:xlink="http://www.w3.org/1999/xlink" overflow="hidden"><defs></defs><g id="icons"><rect x="1.000000" y="31.000000" rx="4.000000" ry="4.000000" width="46.000000" height="16.000000" stroke="#231F20" stroke-width="2.000000" stroke-linecap="round" stroke-linejoin="round" fill="none"/><line x1="7.000000" y1="41.000000" x2="41.000000" y2="41.000000" stroke="#231F20" stroke-width="2.000000" stroke-linecap="round" stroke-linejoin="round" fill="none"/><path d=" M 37.000000 36.000000 C 36.447716 36.000000 36.000000 36.447716 36.000000 37.000000 C 36.000000 37.552284 36.447716 38.000000 37.000000 38.000000 C 37.552284 38.000000 38.000000 37.552284 38.000000 37.000000 C 38.000000 36.447716 37.552284 36.000000 37.000000 36.000000 Z" fill="#231F20"/><path d=" M 41.000000 36.000000 C 40.447716 36.000000 40.000000 36.447716 40.000000 37.000000 C 40.000000 37.552284 40.447716 38.000000 41.000000 38.000000 C 41.552284 38.000000 42.000000 37.552284 42.000000 37.000000 C 42.000000 36.447716 41.552284 36.000000 41.000000 36.000000 Z" fill="#231F20"/><line x1="23.000000" y1="1.000000" x2="23.000000" y2="25.000000" stroke="#231F20" stroke-width="2.000000" stroke-linecap="round" stroke-linejoin="round" fill="none"/><path d=" M 12.000000 12.000000 L 23.000000 1.000000 L 34.000000 12.000000" stroke="#231F20" stroke-width="2.000000" stroke-linecap="round" stroke-linejoin="round" fill="none"/></g></svg>