<svg version="1.1" viewBox="0.000000 0.000000 48.000000 48.000000" xmlns="http://www.w3.org/2000/svg" xmlns:xlink="http://www.w3.org/1999/xlink" overflow="hidden"><defs></defs><g id="icons"><path d=" M 43.000000 32.500000 L 43.000000 37.500000 C 43.000000 41.365993 39.865993 44.500000 36.000000 44.500000 L 5.000000 44.500000 C 2.790861 44.500000 1.000000 42.709141 1.000000 40.500000 L 1.000000 14.500000 C 1.000000 12.290861 2.790861 10.500000 5.000000 10.500000 L 36.000000 10.500000 C 39.865993 10.500000 43.000000 13.634007 43.000000 17.500000 L 43.000000 22.500000" stroke="#231F20" stroke-width="2.000000" stroke-linecap="round" stroke-miterlimit="10.000000" fill="none"/><path d=" M 47.000000 28.750000 C 47.073345 30.738503 45.527969 32.413403 43.540001 32.500000 L 35.459999 32.500000 C 33.472031 32.413403 31.926655 30.738503 32.000000 28.750000 L 32.000000 26.250000 C 31.926657 24.261497 33.472031 22.586597 35.459999 22.500000 L 43.540001 22.500000 C 45.527969 22.586597 47.073345 24.261497 47.000000 26.250000 Z" stroke="#231F20" stroke-width="2.000000" stroke-linecap="round" stroke-miterlimit="10.000000" fill="none"/><circle cx="37.000000" cy="27.500000" r="1.000000" stroke="#231F20" stroke-width="2.000000" stroke-linecap="round" stroke-miterlimit="10.000000" fill="none"/><path d=" M 36.759998 10.540000 L 35.000000 3.500000 L 9.000000 10.500000" stroke="#231F20" stroke-width="2.000000" stroke-linecap="round" stroke-miterlimit="10.000000" fill="none"/><line x1="5.000000" y1="14.500000" x2="7.000000" y2="14.500000" stroke="#231F20" stroke-width="2.000000" stroke-linecap="round" stroke-miterlimit="10.000000" fill="none"/><line x1="11.000000" y1="14.500000" x2="13.000000" y2="14.500000" stroke="#231F20" stroke-width="2.000000" stroke-linecap="round" stroke-miterlimit="10.000000" fill="none"/><line x1="17.000000" y1="14.500000" x2="19.000000" y2="14.500000" stroke="#231F20" stroke-width="2.000000" stroke-linecap="round" stroke-miterlimit="10.000000" fill="none"/><line x1="23.000000" y1="14.500000" x2="25.000000" y2="14.500000" stroke="#231F20" stroke-width="2.000000" stroke-linecap="round" stroke-miterlimit="10.000000" fill="none"/><line x1="29.000000" y1="14.500000" x2="31.000000" y2="14.500000" stroke="#231F20" stroke-width="2.000000" stroke-linecap="round" stroke-miterlimit="10.000000" fill="none"/><line x1="35.000000" y1="14.500000" x2="37.000000" y2="14.500000" stroke="#231F20" stroke-width="2.000000" stroke-linecap="round" stroke-miterlimit="10.000000" fill="none"/><line x1="5.000000" y1="40.500000" x2="7.000000" y2="40.500000" stroke="#231F20" stroke-width="2.000000" stroke-linecap="round" stroke-miterlimit="10.000000" fill="none"/><line x1="11.000000" y1="40.500000" x2="13.000000" y2="40.500000" stroke="#231F20" stroke-width="2.000000" stroke-linecap="round" stroke-miterlimit="10.000000" fill="none"/><line x1="17.000000" y1="40.500000" x2="19.000000" y2="40.500000" stroke="#231F20" stroke-width="2.000000" stroke-linecap="round" stroke-miterlimit="10.000000" fill="none"/><line x1="23.000000" y1="40.500000" x2="25.000000" y2="40.500000" stroke="#231F20" stroke-width="2.000000" stroke-linecap="round" stroke-miterlimit="10.000000" fill="none"/><line x1="29.000000" y1="40.500000" x2="31.000000" y2="40.500000" stroke="#231F20" stroke-width="2.000000" stroke-linecap="round" stroke-miterlimit="10.000000" fill="none"/><line x1="35.000000" y1="40.500000" x2="37.000000" y2="40.500000" stroke="#231F20" stroke-width="2.000000" stroke-linecap="round" stroke-miterlimit="10.000000" fill="none"/></g></svg>