<svg version="1.1" viewBox="0.000000 0.000000 48.000000 48.000000" xmlns="http://www.w3.org/2000/svg" xmlns:xlink="http://www.w3.org/1999/xlink" overflow="hidden"><defs></defs><g id="icons"><rect x="1.000000" y="7.000000" rx="4.000000" ry="4.000000" width="46.000000" height="34.000000" stroke="#231F20" stroke-width="2.000000" stroke-linecap="round" stroke-linejoin="round" fill="none"/><path d=" M 24.559999 18.530001 C 26.412144 16.257645 29.188440 14.939271 32.119999 14.940001 C 37.573811 14.766426 42.135708 19.046904 42.309284 24.500715 C 42.482861 29.954527 38.202381 34.516426 32.748569 34.689999 C 32.539101 34.696667 32.329472 34.696667 32.119999 34.689999 C 29.251717 34.783844 26.503935 33.533844 24.689999 31.309999" stroke="#231F20" stroke-width="2.000000" stroke-linejoin="round" fill="none"/><path d=" M 14.030000 17.000000 L 12.030000 17.000000 L 12.030000 19.000000 L 14.030000 19.000000 L 14.030000 17.000000 L 14.030000 17.000000 Z" fill="#231F20"/><path d=" M 22.030001 17.000000 L 20.030001 17.000000 L 20.030001 19.000000 L 22.030001 19.000000 L 22.030001 17.000000 L 22.030001 17.000000 Z" fill="#231F20"/><path d=" M 22.030001 21.000000 L 20.030001 21.000000 L 20.030001 23.000000 L 22.030001 23.000000 L 22.030001 21.000000 L 22.030001 21.000000 Z" fill="#231F20"/><path d=" M 22.030001 25.000000 L 20.030001 25.000000 L 20.030001 27.000000 L 22.030001 27.000000 L 22.030001 25.000000 L 22.030001 25.000000 Z" fill="#231F20"/><path d=" M 22.030001 29.000000 L 20.030001 29.000000 L 20.030001 31.000000 L 22.030001 31.000000 L 22.030001 29.000000 L 22.030001 29.000000 Z" fill="#231F20"/><path d=" M 14.030000 21.000000 L 12.030000 21.000000 L 12.030000 23.000000 L 14.030000 23.000000 L 14.030000 21.000000 L 14.030000 21.000000 Z" fill="#231F20"/><path d=" M 14.030000 25.000000 L 12.030000 25.000000 L 12.030000 27.000000 L 14.030000 27.000000 L 14.030000 25.000000 L 14.030000 25.000000 Z" fill="#231F20"/><path d=" M 14.030000 29.000000 L 12.030000 29.000000 L 12.030000 31.000000 L 14.030000 31.000000 L 14.030000 29.000000 L 14.030000 29.000000 Z" fill="#231F20"/><path d=" M 18.030001 19.000000 L 16.030001 19.000000 L 16.030001 21.000000 L 18.030001 21.000000 L 18.030001 19.000000 L 18.030001 19.000000 Z" fill="#231F20"/><path d=" M 18.030001 15.000000 L 16.030001 15.000000 L 16.030001 17.000000 L 18.030001 17.000000 L 18.030001 15.000000 L 18.030001 15.000000 Z" fill="#231F20"/><path d=" M 18.030001 23.000000 L 16.030001 23.000000 L 16.030001 25.000000 L 18.030001 25.000000 L 18.030001 23.000000 L 18.030001 23.000000 Z" fill="#231F20"/><path d=" M 26.030001 23.000000 L 24.030001 23.000000 L 24.030001 25.000000 L 26.030001 25.000000 L 26.030001 23.000000 L 26.030001 23.000000 Z" fill="#231F20"/><path d=" M 18.030001 27.000000 L 16.030001 27.000000 L 16.030001 29.000000 L 18.030001 29.000000 L 18.030001 27.000000 L 18.030001 27.000000 Z" fill="#231F20"/><path d=" M 18.030001 31.000000 L 16.030001 31.000000 L 16.030001 33.000000 L 18.030001 33.000000 L 18.030001 31.000000 L 18.030001 31.000000 Z" fill="#231F20"/><path d=" M 10.030000 23.000000 L 8.030000 23.000000 L 8.030000 25.000000 L 10.030000 25.000000 L 10.030000 23.000000 L 10.030000 23.000000 Z" fill="#231F20"/><path d=" M 10.030000 27.000000 L 8.030000 27.000000 L 8.030000 29.000000 L 10.030000 29.000000 L 10.030000 27.000000 L 10.030000 27.000000 Z" fill="#231F20"/><path d=" M 26.030001 27.000000 L 24.030001 27.000000 L 24.030001 29.000000 L 26.030001 29.000000 L 26.030001 27.000000 L 26.030001 27.000000 Z" fill="#231F20"/><path d=" M 25.000000 19.000000 L 24.000000 19.000000 L 24.000000 21.000000 L 26.000000 21.000000 L 26.000000 20.770000 C 25.727659 20.147562 25.392595 19.554499 25.000000 19.000000 Z" fill="#231F20"/><path d=" M 22.000000 32.000000 L 20.000000 32.000000 L 20.000000 34.000000 L 21.260000 34.000000 C 21.510000 33.880001 21.760000 33.740002 22.000000 33.599998 L 22.000000 32.000000 Z" fill="#231F20"/><path d=" M 14.000000 32.000000 L 12.000000 32.000000 L 12.000000 33.630001 C 12.220000 33.759998 12.450000 33.889999 12.680000 34.000000 L 14.000000 34.000000 L 14.000000 32.000000 Z" fill="#231F20"/><path d=" M 10.000000 19.000000 L 9.000000 19.000000 C 8.608782 19.516333 8.273564 20.072792 8.000000 20.660000 L 8.000000 21.000000 L 10.000000 21.000000 L 10.000000 19.000000 Z" fill="#231F20"/><path d=" M 27.000000 25.000000 C 27.000000 30.522848 22.522848 35.000000 17.000000 35.000000 C 11.477153 35.000000 7.000000 30.522848 7.000000 25.000000 C 7.000000 19.477152 11.477153 15.000000 17.000000 15.000000 C 22.522848 15.000000 27.000000 19.477152 27.000000 25.000000 Z" stroke="#231F20" stroke-width="2.000000" stroke-linecap="round" stroke-linejoin="round" fill="none"/></g></svg>