<svg version="1.1" viewBox="0.000000 0.000000 48.000000 48.000000" xmlns="http://www.w3.org/2000/svg" xmlns:xlink="http://www.w3.org/1999/xlink" overflow="hidden"><defs></defs><g id="icons"><path d=" M 40.000000 47.000000 L 35.000000 40.000000 L 35.000000 30.870001 C 35.000000 27.480000 31.840000 25.790001 28.000000 22.510000" stroke="#231F20" stroke-width="2.000000" stroke-linecap="round" stroke-linejoin="round" fill="none"/><path d=" M 31.000000 35.000000 L 25.500000 29.500000 C 24.671574 28.671574 23.328426 28.671574 22.500000 29.500000 C 21.671574 30.328426 21.671574 31.671574 22.500000 32.500000 L 27.000000 39.000000 L 27.000000 42.080002 C 27.000164 43.331680 27.391775 44.551971 28.120001 45.570004 L 29.170000 47.000000" stroke="#231F20" stroke-width="2.000000" stroke-linecap="round" stroke-miterlimit="10.000000" fill="none"/><path d=" M 22.000000 43.000000 L 11.000000 43.000000 C 9.343145 43.000000 8.000000 41.656853 8.000000 40.000000 L 8.000000 18.000000 C 8.000000 16.343145 9.343145 15.000000 11.000000 15.000000 L 25.000000 15.000000 C 26.656855 15.000000 28.000000 16.343145 28.000000 18.000000 L 28.000000 28.000000" stroke="#231F20" stroke-width="2.000000" stroke-linecap="round" stroke-miterlimit="10.000000" fill="none"/><path d=" M 14.000000 20.000000 C 13.447715 20.000000 13.000000 20.447716 13.000000 21.000000 C 13.000000 21.552284 13.447715 22.000000 14.000000 22.000000 C 14.552285 22.000000 15.000000 21.552284 15.000000 21.000000 C 15.000000 20.447716 14.552285 20.000000 14.000000 20.000000 Z" fill="#231F20"/><path d=" M 18.000000 20.000000 C 17.447716 20.000000 17.000000 20.447716 17.000000 21.000000 C 17.000000 21.552284 17.447716 22.000000 18.000000 22.000000 C 18.552284 22.000000 19.000000 21.552284 19.000000 21.000000 C 19.000000 20.447716 18.552284 20.000000 18.000000 20.000000 Z" fill="#231F20"/><path d=" M 22.000000 20.000000 C 21.447716 20.000000 21.000000 20.447716 21.000000 21.000000 C 21.000000 21.552284 21.447716 22.000000 22.000000 22.000000 C 22.552284 22.000000 23.000000 21.552284 23.000000 21.000000 C 23.000000 20.447716 22.552284 20.000000 22.000000 20.000000 Z" fill="#231F20"/><path d=" M 14.000000 24.000000 C 13.447715 24.000000 13.000000 24.447716 13.000000 25.000000 C 13.000000 25.552284 13.447715 26.000000 14.000000 26.000000 C 14.552285 26.000000 15.000000 25.552284 15.000000 25.000000 C 15.000000 24.447716 14.552285 24.000000 14.000000 24.000000 Z" fill="#231F20"/><path d=" M 14.000000 28.000000 C 13.447715 28.000000 13.000000 28.447716 13.000000 29.000000 C 13.000000 29.552284 13.447715 30.000000 14.000000 30.000000 C 14.552285 30.000000 15.000000 29.552284 15.000000 29.000000 C 15.000000 28.447716 14.552285 28.000000 14.000000 28.000000 Z" fill="#231F20"/><path d=" M 14.000000 32.000000 C 13.447715 32.000000 13.000000 32.447716 13.000000 33.000000 C 13.000000 33.552284 13.447715 34.000000 14.000000 34.000000 C 14.552285 34.000000 15.000000 33.552284 15.000000 33.000000 C 15.000000 32.447716 14.552285 32.000000 14.000000 32.000000 Z" fill="#231F20"/><path d=" M 14.000000 36.000000 C 13.447715 36.000000 13.000000 36.447716 13.000000 37.000000 C 13.000000 37.552284 13.447715 38.000000 14.000000 38.000000 C 14.552285 38.000000 15.000000 37.552284 15.000000 37.000000 C 15.000000 36.447716 14.552285 36.000000 14.000000 36.000000 Z" fill="#231F20"/><path d=" M 18.000000 24.000000 C 17.447716 24.000000 17.000000 24.447716 17.000000 25.000000 C 17.000000 25.552284 17.447716 26.000000 18.000000 26.000000 C 18.552284 26.000000 19.000000 25.552284 19.000000 25.000000 C 19.000000 24.447716 18.552284 24.000000 18.000000 24.000000 Z" fill="#231F20"/><path d=" M 18.000000 28.000000 C 17.447716 28.000000 17.000000 28.447716 17.000000 29.000000 C 17.000000 29.552284 17.447716 30.000000 18.000000 30.000000 C 18.552284 30.000000 19.000000 29.552284 19.000000 29.000000 C 19.000000 28.447716 18.552284 28.000000 18.000000 28.000000 Z" fill="#231F20"/><path d=" M 18.000000 32.000000 C 17.447716 32.000000 17.000000 32.447716 17.000000 33.000000 C 17.000000 33.552284 17.447716 34.000000 18.000000 34.000000 C 18.552284 34.000000 19.000000 33.552284 19.000000 33.000000 C 19.000000 32.447716 18.552284 32.000000 18.000000 32.000000 Z" fill="#231F20"/><path d=" M 18.000000 36.000000 C 17.447716 36.000000 17.000000 36.447716 17.000000 37.000000 C 17.000000 37.552284 17.447716 38.000000 18.000000 38.000000 C 18.552284 38.000000 19.000000 37.552284 19.000000 37.000000 C 19.000000 36.447716 18.552284 36.000000 18.000000 36.000000 Z" fill="#231F20"/><path d=" M 22.000000 24.000000 C 21.447716 24.000000 21.000000 24.447716 21.000000 25.000000 C 21.000000 25.552284 21.447716 26.000000 22.000000 26.000000 C 22.552284 26.000000 23.000000 25.552284 23.000000 25.000000 C 23.000000 24.447716 22.552284 24.000000 22.000000 24.000000 Z" fill="#231F20"/><path d=" M 27.549999 3.840000 C 21.841959 0.037497 14.408040 0.037497 8.699999 3.840000" stroke="#231F20" stroke-width="2.000000" stroke-linecap="round" stroke-linejoin="round" fill="none"/><path d=" M 25.330000 7.170000 C 20.963814 4.259852 15.276187 4.259852 10.910000 7.170000" stroke="#231F20" stroke-width="2.000000" stroke-linecap="round" stroke-linejoin="round" fill="none"/><path d=" M 23.120001 10.490000 C 20.093378 8.467752 16.146624 8.467752 13.120001 10.490000" stroke="#231F20" stroke-width="2.000000" stroke-linecap="round" stroke-linejoin="round" fill="none"/></g></svg>