<svg version="1.1" viewBox="0.000000 0.000000 48.000000 48.000000" xmlns="http://www.w3.org/2000/svg" xmlns:xlink="http://www.w3.org/1999/xlink" overflow="hidden"><defs></defs><g id="icons"><path d=" M 23.000000 43.000000 C 18.098097 40.549606 15.001118 35.540245 15.000000 30.059999 L 15.000000 12.830000" stroke="#231F20" stroke-width="2.000000" stroke-linecap="round" stroke-linejoin="round" fill="none"/><path d=" M 47.000000 22.000000 C 47.000000 23.656855 45.656853 25.000000 44.000000 25.000000 L 43.000000 25.000000 L 43.000000 17.000000 L 44.000000 17.000000 C 45.656853 17.000000 47.000000 18.343145 47.000000 20.000000 Z" stroke="#231F20" stroke-width="2.000000" stroke-linecap="round" stroke-linejoin="round" fill="none"/><path d=" M 9.000000 13.000000 L 7.000000 13.000000 C 3.686291 13.000000 1.000000 15.686292 1.000000 19.000000 L 1.000000 23.000000 C 1.000000 26.313709 3.686291 29.000000 7.000000 29.000000 L 9.000000 29.000000 C 26.850000 29.000000 34.180000 33.000000 43.000000 37.000000 L 43.000000 5.000000 C 34.200001 9.000000 26.860001 13.000000 9.000000 13.000000 Z" stroke="#231F20" stroke-width="2.000000" stroke-linecap="round" stroke-linejoin="round" fill="none"/></g></svg>