<svg version="1.1" viewBox="0.000000 0.000000 48.000000 48.000000" xmlns="http://www.w3.org/2000/svg" xmlns:xlink="http://www.w3.org/1999/xlink" overflow="hidden"><defs></defs><g id="icons"><line x1="15.000000" y1="13.010000" x2="33.000000" y2="12.990000" stroke="#202020" stroke-width="2.000000" stroke-linecap="round" stroke-linejoin="round" fill="none"/><path d=" M 24.000000 1.000000 C 21.238577 1.000000 19.000000 3.238576 19.000000 6.000000 L 19.000000 28.000000 C 19.001024 29.987175 20.178722 31.785130 22.000000 32.580002 L 22.000000 37.000000 L 26.000000 37.000000 L 26.000000 32.580002 C 27.821278 31.785131 28.998976 29.987177 29.000000 28.000002 L 29.000000 6.000000 C 29.000000 3.238576 26.761423 1.000000 24.000000 1.000000 Z" stroke="#202020" stroke-width="2.000000" stroke-linecap="round" stroke-linejoin="round" fill="none"/><path d=" M 25.000000 28.000000 C 25.000000 28.552284 24.552284 29.000000 24.000000 29.000000 C 23.447716 29.000000 23.000000 28.552284 23.000000 28.000000 L 23.000000 17.000000 L 25.000000 17.000000 Z" stroke="#202020" stroke-width="2.000000" stroke-linecap="round" stroke-linejoin="round" fill="none"/><path d=" M 26.000000 45.000000 C 26.000000 46.104568 25.104570 47.000000 24.000000 47.000000 C 22.895430 47.000000 22.000000 46.104568 22.000000 45.000000 C 22.000000 43.900002 24.000000 41.000000 24.000000 41.000000 C 24.000000 41.000000 26.000000 43.889999 26.000000 45.000000 Z" stroke="#202020" stroke-width="2.000000" stroke-linecap="round" stroke-linejoin="round" fill="none"/></g></svg>