<svg version="1.1" viewBox="0.000000 0.000000 48.000000 48.000000" xmlns="http://www.w3.org/2000/svg" xmlns:xlink="http://www.w3.org/1999/xlink" overflow="hidden"><defs></defs><g id="icons"><path d=" M 22.840000 43.000000 L 4.840000 43.000000 L 4.840000 1.000000 L 26.840000 1.000000 L 36.840000 11.000000 L 36.840000 13.000000" stroke="#231F20" stroke-width="2.000000" stroke-linecap="round" stroke-linejoin="round" fill="none"/><path d=" M 26.840000 1.000000 L 26.840000 11.000000 L 36.840000 11.000000" stroke="#231F20" stroke-width="2.000000" stroke-linecap="round" stroke-linejoin="round" fill="none"/><path d=" M 40.840000 34.000000 L 40.840000 47.000000 L 34.840000 42.000000 L 28.840000 47.000000 L 28.840000 34.000000" stroke="#231F20" stroke-width="2.000000" stroke-linejoin="round" fill="none"/><circle cx="34.840000" cy="28.000000" r="3.000000" stroke="#231F20" stroke-width="2.000000" stroke-linecap="round" stroke-linejoin="round" fill="none"/><path d=" M 42.279999 28.000000 C 43.657494 26.272923 43.374104 23.756166 41.647026 22.378670 C 40.777885 21.685455 39.659454 21.385227 38.560001 21.549999 C 37.748013 19.495501 35.424263 18.488247 33.369762 19.300238 C 32.341022 19.706821 31.526585 20.521261 31.120001 21.549999 C 28.936211 21.216297 26.895380 22.716089 26.561678 24.899879 C 26.393024 26.003569 26.693333 27.127518 27.390001 28.000000 C 26.011555 29.726320 26.293562 32.243229 28.019880 33.621677 C 28.892363 34.318344 30.016312 34.618652 31.120001 34.450001 C 31.931992 36.504501 34.255741 37.511753 36.310238 36.699764 C 37.338978 36.293182 38.153416 35.478741 38.560001 34.450001 C 40.744743 34.777420 42.781250 33.271767 43.108673 31.087027 C 43.273445 29.987572 42.973217 28.869141 42.280003 28.000000 Z" stroke="#231F20" stroke-width="2.000000" stroke-linecap="round" stroke-linejoin="round" fill="none"/></g></svg>