<svg version="1.1" viewBox="0.000000 0.000000 48.000000 48.000000" xmlns="http://www.w3.org/2000/svg" xmlns:xlink="http://www.w3.org/1999/xlink" overflow="hidden"><defs></defs><g id="icons"><path d=" M 20.000000 33.000000 L 4.000000 33.000000 C 2.343146 33.000000 1.000000 31.656855 1.000000 30.000000 L 1.000000 8.000000 C 1.000000 6.343146 2.343146 5.000000 4.000000 5.000000 L 40.000000 5.000000 C 41.656853 5.000000 43.000000 6.343146 43.000000 8.000000 L 43.000000 19.000000" stroke="#231F20" stroke-width="2.000000" stroke-linecap="round" stroke-linejoin="round" fill="none"/><path d=" M 42.139999 5.910000 L 22.000000 22.000000 L 1.860000 5.880000" stroke="#231F20" stroke-width="2.000000" stroke-linecap="round" stroke-linejoin="round" fill="none"/><path d=" M 46.000000 25.000000 L 46.000000 30.000000 L 41.000000 30.000000" stroke="#231F20" stroke-width="2.000000" stroke-linecap="round" stroke-miterlimit="10.000000" fill="none"/><path d=" M 29.000000 34.000000 C 29.002510 29.029438 33.033981 25.002035 38.004543 25.004547 C 41.420055 25.006271 44.540268 26.941217 46.059998 30.000000" stroke="#231F20" stroke-width="2.000000" stroke-miterlimit="10.000000" fill="none"/><path d=" M 30.000000 42.000000 L 30.000000 38.000000 L 34.000000 38.000000" stroke="#231F20" stroke-width="2.000000" stroke-linecap="round" stroke-miterlimit="10.000000" fill="none"/><path d=" M 47.000000 34.000000 C 46.997490 38.970562 42.966019 42.997963 37.995457 42.995453 C 34.579945 42.993729 31.459732 41.058781 29.940001 38.000000" stroke="#231F20" stroke-width="2.000000" stroke-miterlimit="10.000000" fill="none"/></g></svg>