<svg version="1.1" viewBox="0.000000 0.000000 48.000000 48.000000" xmlns="http://www.w3.org/2000/svg" xmlns:xlink="http://www.w3.org/1999/xlink" overflow="hidden"><defs></defs><g id="icons"><path d=" M 11.000000 18.000000 L 4.000000 18.000000 C 2.343146 18.000000 1.000000 19.343145 1.000000 21.000000 L 1.000000 27.000000 C 1.000000 28.656855 2.343146 30.000000 4.000000 30.000000 L 11.000000 30.000000 L 25.000000 44.000000 L 25.000000 4.000000 Z" stroke="#231F20" stroke-width="2.000000" stroke-linecap="round" stroke-linejoin="round" fill="none"/><path d=" M 40.000000 8.000000 C 44.523750 12.079905 47.073830 17.908653 47.000000 24.000000 C 47.073830 30.091347 44.523750 35.920094 40.000000 40.000000" stroke="#231F20" stroke-width="2.000000" stroke-linecap="round" stroke-linejoin="round" fill="none"/><path d=" M 35.000000 12.000000 C 38.622574 14.959085 40.806278 19.326490 41.000000 24.000000 C 41.000000 28.650000 38.320000 33.250000 35.000000 36.000000" stroke="#231F20" stroke-width="2.000000" stroke-linecap="round" stroke-linejoin="round" fill="none"/><path d=" M 31.000000 17.000000 C 33.394173 18.542276 34.886772 21.154325 35.000000 24.000000 C 34.886772 26.845675 33.394173 29.457724 31.000000 31.000000" stroke="#231F20" stroke-width="2.000000" stroke-linecap="round" stroke-linejoin="round" fill="none"/></g></svg>