<svg version="1.1" viewBox="0.000000 0.000000 48.000000 48.000000" xmlns="http://www.w3.org/2000/svg" xmlns:xlink="http://www.w3.org/1999/xlink" overflow="hidden"><defs></defs><g id="icons"><path d=" M 24.000000 46.500000 L 1.000000 46.500000 C 1.000000 46.500000 2.000000 38.500000 6.000000 35.500000 C 10.000000 32.500000 19.000000 35.500000 19.000000 28.500000 L 19.000000 23.650000 C 18.000000 26.650000 12.000000 28.540001 8.000000 23.540001 C 14.000000 23.540001 8.000000 -6.460000 24.000000 3.540000 C 40.000000 -6.460000 34.000000 23.540001 40.000000 23.540001 C 37.000000 28.540001 30.000000 27.540001 29.000000 23.540001 L 29.000000 28.540001 C 29.000000 35.540001 38.000000 32.540001 42.000000 35.540001 C 46.000000 38.540001 47.000000 46.540001 47.000000 46.540001 L 24.000000 46.540001" stroke="#231F20" stroke-width="2.000000" stroke-linejoin="round" fill="none"/><line x1="12.190000" y1="33.810000" x2="21.000000" y2="46.500000" stroke="#231F20" stroke-width="2.000000" stroke-linejoin="round" fill="none"/><line x1="36.730000" y1="33.930000" x2="28.000000" y2="46.500000" stroke="#231F20" stroke-width="2.000000" stroke-linejoin="round" fill="none"/><path d=" M 20.000000 33.540001 C 19.447716 33.540001 19.000000 33.987717 19.000000 34.540001 C 19.000000 35.092285 19.447716 35.540001 20.000000 35.540001 C 20.552284 35.540001 21.000000 35.092285 21.000000 34.540001 C 21.000000 33.987717 20.552284 33.540001 20.000000 33.540001 Z" fill="#231F20"/><path d=" M 24.000000 34.540001 C 23.447716 34.540001 23.000000 34.987717 23.000000 35.540001 C 23.000000 36.092285 23.447716 36.540001 24.000000 36.540001 C 24.552284 36.540001 25.000000 36.092285 25.000000 35.540001 C 25.000000 34.987717 24.552284 34.540001 24.000000 34.540001 Z" fill="#231F20"/><path d=" M 28.000000 33.540001 C 27.447716 33.540001 27.000000 33.987717 27.000000 34.540001 C 27.000000 35.092285 27.447716 35.540001 28.000000 35.540001 C 28.552284 35.540001 29.000000 35.092285 29.000000 34.540001 C 29.000000 33.987717 28.552284 33.540001 28.000000 33.540001 Z" fill="#231F20"/><path d=" M 19.000000 23.650000 C 19.000000 23.650000 16.000000 22.420000 17.000000 15.310000" stroke="#231F20" stroke-width="2.000000" stroke-linecap="round" stroke-linejoin="round" fill="none"/><path d=" M 18.000000 12.540000 C 18.000000 13.540000 17.000000 16.540001 15.000000 16.540001" stroke="#231F20" stroke-width="2.000000" stroke-linecap="round" stroke-linejoin="round" fill="none"/><path d=" M 29.000000 23.500000 C 29.000000 23.500000 32.000000 22.420000 31.000000 15.310000" stroke="#231F20" stroke-width="2.000000" stroke-linecap="round" stroke-linejoin="round" fill="none"/><path d=" M 30.000000 12.540000 C 30.000000 13.540000 31.000000 16.540001 33.000000 16.540001" stroke="#231F20" stroke-width="2.000000" stroke-linecap="round" stroke-linejoin="round" fill="none"/></g></svg>