<svg version="1.1" viewBox="0.000000 0.000000 48.000000 48.000000" xmlns="http://www.w3.org/2000/svg" xmlns:xlink="http://www.w3.org/1999/xlink" overflow="hidden"><defs></defs><g id="icons"><path d=" M 11.000000 19.000000 L 2.840000 19.000000 C 1.781698 18.951336 0.960457 18.058681 1.000000 17.000000 L 1.000000 3.000000 C 0.960457 1.941318 1.781698 1.048665 2.840000 1.000000 L 23.150000 1.000000 C 24.212265 1.043336 25.039444 1.937583 25.000000 3.000000 L 25.000000 15.000000" stroke="#231F20" stroke-width="2.000000" stroke-linecap="round" stroke-linejoin="round" fill="none"/><line x1="5.000000" y1="23.000000" x2="11.000000" y2="23.000000" stroke="#231F20" stroke-width="2.000000" stroke-linecap="round" stroke-linejoin="round" fill="none"/><line x1="1.000000" y1="15.000000" x2="25.000000" y2="15.000000" stroke="#231F20" stroke-width="2.000000" stroke-linecap="round" stroke-linejoin="round" fill="none"/><line x1="31.000000" y1="43.000000" x2="31.000000" y2="47.000000" stroke="#231F20" stroke-width="2.000000" stroke-linecap="round" stroke-linejoin="round" fill="none"/><line x1="23.000000" y1="47.000000" x2="39.000000" y2="47.000000" stroke="#231F20" stroke-width="2.000000" stroke-linecap="round" stroke-linejoin="round" fill="none"/><path d=" M 47.000000 39.400002 C 47.108135 41.276962 45.676693 42.887333 43.799999 43.000000 L 18.200001 43.000000 C 16.323307 42.887329 14.891867 41.276962 15.000001 39.400002 L 15.000000 22.600000 C 14.891866 20.723040 16.323305 19.112669 18.200001 19.000000 L 43.799999 19.000000 C 45.676693 19.112669 47.108131 20.723038 47.000000 22.600000 Z" stroke="#231F20" stroke-width="2.000000" stroke-linecap="round" stroke-linejoin="round" fill="none"/><line x1="16.000000" y1="37.000000" x2="47.000000" y2="37.000000" stroke="#231F20" stroke-width="2.000000" stroke-linecap="round" stroke-linejoin="round" fill="none"/><path d=" M 31.000000 39.000000 C 30.447716 39.000000 30.000000 39.447716 30.000000 40.000000 C 30.000000 40.552284 30.447716 41.000000 31.000000 41.000000 C 31.552284 41.000000 32.000000 40.552284 32.000000 40.000000 C 32.000000 39.447716 31.552284 39.000000 31.000000 39.000000 Z" fill="#231F20"/></g></svg>