<svg version="1.1" viewBox="0.000000 0.000000 48.000000 48.000000" xmlns="http://www.w3.org/2000/svg" xmlns:xlink="http://www.w3.org/1999/xlink" overflow="hidden"><defs></defs><g id="icons"><line x1="42.000000" y1="20.000000" x2="47.000000" y2="20.000000" stroke="#231F20" stroke-width="2.000000" stroke-linecap="round" stroke-linejoin="round" fill="none"/><line x1="42.000000" y1="20.000000" x2="39.500000" y2="15.670000" stroke="#231F20" stroke-width="2.000000" stroke-linecap="round" stroke-linejoin="round" fill="none"/><line x1="42.000000" y1="20.000000" x2="39.500000" y2="24.330000" stroke="#231F20" stroke-width="2.000000" stroke-linecap="round" stroke-linejoin="round" fill="none"/><path d=" M 36.000000 18.000000 L 16.000000 18.000000 C 8.820000 18.000000 3.000000 24.000000 3.000000 29.000000 C 3.000000 32.500000 4.000000 36.000000 6.630000 36.000000 L 20.000000 36.000000 C 26.000000 34.000000 27.000000 24.000000 27.000000 24.000000 L 36.000000 22.000000" stroke="#231F20" stroke-width="2.000000" stroke-linecap="round" stroke-linejoin="round" fill="none"/><line x1="21.000000" y1="24.000000" x2="23.000000" y2="24.000000" stroke="#231F20" stroke-width="2.000000" stroke-linecap="round" stroke-linejoin="round" fill="none"/><rect x="17.000000" y="14.000000" width="4.000000" height="4.000000" stroke="#231F20" stroke-width="2.000000" stroke-linecap="round" stroke-linejoin="round" fill="none"/><line x1="19.000000" y1="14.000000" x2="19.000000" y2="8.000000" stroke="#231F20" stroke-width="2.000000" stroke-linecap="round" stroke-linejoin="round" fill="none"/><line x1="1.000000" y1="10.000000" x2="37.000000" y2="10.000000" stroke="#231F20" stroke-width="2.000000" stroke-linecap="round" stroke-linejoin="round" fill="none"/><line x1="7.000000" y1="36.000000" x2="6.000000" y2="40.000000" stroke="#231F20" stroke-width="2.000000" stroke-linecap="round" stroke-linejoin="round" fill="none"/><line x1="20.010000" y1="36.000000" x2="21.000000" y2="40.000000" stroke="#231F20" stroke-width="2.000000" stroke-linecap="round" stroke-linejoin="round" fill="none"/><path d=" M 1.000000 39.000000 C 1.000000 39.552284 1.447715 40.000000 2.000000 40.000000 L 25.000000 40.000000" stroke="#231F20" stroke-width="2.000000" stroke-linecap="round" stroke-linejoin="round" fill="none"/><path d=" M 14.000000 29.000000 L 8.000000 29.000000 C 8.000000 25.686291 10.686292 23.000000 14.000000 23.000000 Z" stroke="#231F20" stroke-width="2.000000" stroke-linecap="round" stroke-linejoin="round" fill="none"/></g></svg>