<svg version="1.1" viewBox="0.000000 0.000000 48.000000 48.000000" xmlns="http://www.w3.org/2000/svg" xmlns:xlink="http://www.w3.org/1999/xlink" overflow="hidden"><defs></defs><g id="icons"><path d=" M 45.000000 17.000000 L 45.000000 8.000000 C 45.000000 6.343146 43.656853 5.000000 42.000000 5.000000 L 37.000000 5.000000" stroke="#231F20" stroke-width="2.000000" stroke-linecap="round" stroke-linejoin="round" fill="none"/><path d=" M 41.000000 1.000000 L 37.000000 5.000000 L 41.000000 9.000000" stroke="#231F20" stroke-width="2.000000" stroke-linecap="round" stroke-linejoin="round" fill="none"/><path d=" M 18.000000 47.000000 L 41.000000 47.000000 C 44.313709 47.000000 47.000000 44.313709 47.000000 41.000000 L 47.000000 29.000000 L 21.000000 29.000000 L 21.000000 44.000000 C 21.000000 45.656853 19.656855 47.000000 18.000000 47.000000 C 16.343145 47.000000 15.000000 45.656853 15.000000 44.000000 L 15.000000 23.000000 L 23.000000 23.000000 L 23.000000 25.000000 L 43.000000 25.000000 L 43.000000 29.000000" stroke="#231F20" stroke-width="2.000000" stroke-linecap="round" stroke-linejoin="round" fill="none"/><path d=" M 3.000000 33.000000 L 3.000000 40.000000 C 3.000000 41.656853 4.343146 43.000000 6.000000 43.000000 L 11.000000 43.000000" stroke="#231F20" stroke-width="2.000000" stroke-linecap="round" stroke-linejoin="round" fill="none"/><path d=" M 7.000000 47.000000 L 11.000000 43.000000 L 7.000000 39.000000" stroke="#231F20" stroke-width="2.000000" stroke-linecap="round" stroke-linejoin="round" fill="none"/><line x1="15.000000" y1="25.000000" x2="4.000000" y2="25.000000" stroke="#231F20" stroke-width="2.000000" stroke-linecap="round" stroke-linejoin="round" fill="none"/><path d=" M 29.000000 9.000000 L 29.000000 5.000000 L 11.000000 5.000000 L 11.000000 1.000000 L 1.000000 1.000000 L 1.000000 22.000000 C 1.000000 23.656855 2.343146 25.000000 4.000000 25.000000 C 5.656854 25.000000 7.000000 23.656855 7.000000 22.000000 L 7.000000 9.000000 L 33.000000 9.000000 L 33.000000 20.000000 C 33.000000 23.309999 30.309999 25.000000 27.000000 25.000000 L 23.000000 25.000000" stroke="#231F20" stroke-width="2.000000" stroke-linecap="round" stroke-linejoin="round" fill="none"/></g></svg>