<svg version="1.1" viewBox="0.000000 0.000000 48.000000 48.000000" xmlns="http://www.w3.org/2000/svg" xmlns:xlink="http://www.w3.org/1999/xlink" overflow="hidden"><defs></defs><g id="icons"><path d=" M 11.000000 5.000000 L 35.000000 5.000000 L 35.000000 9.000000" stroke="#231F20" stroke-width="2.000000" stroke-linecap="round" stroke-linejoin="round" fill="none"/><path d=" M 39.000000 9.000000 L 39.000000 1.000000 L 11.000000 1.000000 C 8.790861 1.000000 7.000000 2.790861 7.000000 5.000000 C 7.000000 7.209139 8.790861 9.000000 11.000000 9.000000 L 41.000000 9.000000 L 41.000000 47.000000 L 11.000000 47.000000 C 8.790861 47.000000 7.000000 45.209141 7.000000 43.000000 L 7.000000 5.000000" stroke="#231F20" stroke-width="2.000000" stroke-linecap="round" stroke-linejoin="round" fill="none"/><path d=" M 24.000000 15.970000 L 27.000000 25.000000 L 36.000000 25.000000 L 29.000000 30.000000 L 32.000000 39.000000 L 24.000000 34.000000 L 16.000000 39.000000 L 19.000000 30.000000 L 12.000000 25.000000 L 21.000000 25.000000 L 24.000000 15.970000 Z" stroke="#231F20" stroke-width="2.000000" stroke-linecap="round" stroke-linejoin="round" fill="none"/></g></svg>