<svg version="1.1" viewBox="0.000000 0.000000 48.000000 48.000000" xmlns="http://www.w3.org/2000/svg" xmlns:xlink="http://www.w3.org/1999/xlink" overflow="hidden"><defs></defs><g id="icons"><path d=" M 11.000000 5.000000 L 35.000000 5.000000 L 35.000000 9.000000" stroke="#231F20" stroke-width="2.000000" stroke-linecap="round" stroke-linejoin="round" fill="none"/><path d=" M 39.000000 9.000000 L 39.000000 1.000000 L 11.000000 1.000000 C 8.790861 1.000000 7.000000 2.790861 7.000000 5.000000 C 7.000000 7.209139 8.790861 9.000000 11.000000 9.000000 L 41.000000 9.000000 L 41.000000 47.000000 L 11.000000 47.000000 C 8.790861 47.000000 7.000000 45.209141 7.000000 43.000000 L 7.000000 5.000000" stroke="#231F20" stroke-width="2.000000" stroke-linecap="round" stroke-linejoin="round" fill="none"/><path d=" M 20.900000 22.900000 C 21.830599 21.971704 21.832468 20.464773 20.904175 19.534174 C 20.902784 19.532782 20.901394 19.531389 20.900000 19.529999 L 18.370001 17.000000 C 17.441706 16.069401 15.934775 16.067532 15.004175 16.995825 C 15.002782 16.997215 15.001390 16.998606 15.000001 17.000000 L 13.610000 18.389999 C 12.409469 19.588329 12.221157 21.467255 13.160000 22.879999 C 17.239803 29.029858 22.510141 34.300198 28.660000 38.379997 C 30.075867 39.320358 31.958380 39.132107 33.160000 37.929996 L 34.540001 36.540001 C 35.470600 35.611706 35.472469 34.104774 34.544174 33.174175 C 34.542786 33.172783 34.541393 33.171391 34.540001 33.170002 L 32.000000 30.639999 C 31.071705 29.709400 29.564774 29.707531 28.634174 30.635824 C 28.632782 30.637215 28.631390 30.638605 28.629999 30.639999 L 27.790001 31.480000 C 24.966040 29.156075 22.373926 26.563961 20.050001 23.740000 Z" stroke="#231F20" stroke-width="2.000000" stroke-linecap="round" stroke-linejoin="round" fill="none"/></g></svg>