<svg version="1.1" viewBox="0.000000 0.000000 48.000000 48.000000" xmlns="http://www.w3.org/2000/svg" xmlns:xlink="http://www.w3.org/1999/xlink" overflow="hidden"><defs></defs><g id="icons"><line x1="3.000000" y1="46.970000" x2="13.000000" y2="36.970000" stroke="#231F20" stroke-width="2.000000" stroke-linecap="round" stroke-linejoin="round" fill="none"/><line x1="11.000000" y1="44.970000" x2="19.000000" y2="36.970000" stroke="#231F20" stroke-width="2.000000" stroke-linecap="round" stroke-linejoin="round" fill="none"/><line x1="15.000000" y1="46.970000" x2="25.000000" y2="36.970000" stroke="#231F20" stroke-width="2.000000" stroke-linecap="round" stroke-linejoin="round" fill="none"/><line x1="23.000000" y1="44.970000" x2="31.000000" y2="36.970000" stroke="#231F20" stroke-width="2.000000" stroke-linecap="round" stroke-linejoin="round" fill="none"/><line x1="27.000000" y1="46.970000" x2="37.000000" y2="36.970000" stroke="#231F20" stroke-width="2.000000" stroke-linecap="round" stroke-linejoin="round" fill="none"/><path d=" M 41.500000 16.420000 C 42.817265 13.379363 41.420197 9.846584 38.379559 8.529319 C 37.398327 8.104229 36.321312 7.949104 35.259998 8.080000 C 33.060757 2.416912 26.687078 -0.391090 21.023991 1.808153 C 17.125944 3.321946 14.423338 6.915033 14.049999 11.080000 C 8.569155 11.759840 4.677171 16.754063 5.357011 22.234907 C 5.965110 27.137371 10.061914 30.861204 14.999999 31.000000 L 37.000000 31.000000 C 41.418278 30.996452 44.997120 27.411854 44.993572 22.993578 C 44.991451 20.350416 43.683914 17.878902 41.500000 16.389999 Z" stroke="#231F20" stroke-width="2.000000" stroke-linecap="round" stroke-linejoin="round" fill="none"/></g></svg>