<svg version="1.1" viewBox="0.000000 0.000000 48.000000 48.000000" xmlns="http://www.w3.org/2000/svg" xmlns:xlink="http://www.w3.org/1999/xlink" overflow="hidden"><defs></defs><g id="icons"><rect x="5.000000" y="1.000000" width="38.000000" height="46.000000" stroke="#231F20" stroke-width="2.000000" stroke-linecap="round" stroke-linejoin="round" fill="none"/><line x1="13.000000" y1="15.000000" x2="35.000000" y2="15.000000" stroke="#231F20" stroke-width="2.000000" stroke-linecap="round" stroke-miterlimit="10.000000" fill="none"/><line x1="13.000000" y1="21.000000" x2="35.000000" y2="21.000000" stroke="#231F20" stroke-width="2.000000" stroke-linecap="round" stroke-miterlimit="10.000000" fill="none"/><line x1="13.000000" y1="27.000000" x2="35.000000" y2="27.000000" stroke="#231F20" stroke-width="2.000000" stroke-linecap="round" stroke-miterlimit="10.000000" fill="none"/><line x1="13.000000" y1="33.000000" x2="35.000000" y2="33.000000" stroke="#231F20" stroke-width="2.000000" stroke-linecap="round" stroke-miterlimit="10.000000" fill="none"/><line x1="13.000000" y1="39.000000" x2="35.000000" y2="39.000000" stroke="#231F20" stroke-width="2.000000" stroke-linecap="round" stroke-miterlimit="10.000000" fill="none"/><path d=" M 14.000000 4.000000 L 10.000000 4.000000 L 10.000000 8.000000 L 14.000000 8.000000 L 14.000000 4.000000 L 14.000000 4.000000 Z" fill="#231F20"/><path d=" M 22.000000 4.000000 L 18.000000 4.000000 L 18.000000 8.000000 L 22.000000 8.000000 L 22.000000 4.000000 L 22.000000 4.000000 Z" fill="#231F20"/><path d=" M 38.000000 4.000000 L 34.000000 4.000000 L 34.000000 8.000000 L 38.000000 8.000000 L 38.000000 4.000000 L 38.000000 4.000000 Z" fill="#231F20"/><path d=" M 30.000000 4.000000 L 26.000000 4.000000 L 26.000000 8.000000 L 30.000000 8.000000 L 30.000000 4.000000 L 30.000000 4.000000 Z" fill="#231F20"/><line x1="36.000000" y1="4.000000" x2="36.000000" y2="1.000000" stroke="#231F20" stroke-width="2.000000" stroke-linecap="round" stroke-miterlimit="10.000000" fill="none"/><line x1="28.000000" y1="4.000000" x2="28.000000" y2="1.000000" stroke="#231F20" stroke-width="2.000000" stroke-linecap="round" stroke-miterlimit="10.000000" fill="none"/><line x1="20.000000" y1="4.000000" x2="20.000000" y2="1.000000" stroke="#231F20" stroke-width="2.000000" stroke-linecap="round" stroke-miterlimit="10.000000" fill="none"/><line x1="12.000000" y1="4.000000" x2="12.000000" y2="1.000000" stroke="#231F20" stroke-width="2.000000" stroke-linecap="round" stroke-miterlimit="10.000000" fill="none"/></g></svg>