<svg version="1.1" viewBox="0.000000 0.000000 48.000000 48.000000" xmlns="http://www.w3.org/2000/svg" xmlns:xlink="http://www.w3.org/1999/xlink" overflow="hidden"><defs></defs><g id="icons"><path d=" M 41.000000 7.000000 L 41.000000 41.000000 C 41.000000 44.313709 38.313709 47.000000 35.000000 47.000000 L 13.000000 47.000000 C 9.686292 47.000000 7.000000 44.313709 7.000000 41.000000 L 7.000000 7.000000" stroke="#000000" stroke-width="2.000000" stroke-linecap="round" stroke-linejoin="round" fill="none"/><path d=" M 43.000000 7.000000 L 5.000000 7.000000 L 5.000000 4.000000 C 5.000000 2.343146 6.343146 1.000000 8.000000 1.000000 L 40.000000 1.000000 C 41.656853 1.000000 43.000000 2.343146 43.000000 4.000000 Z" stroke="#000000" stroke-width="2.000000" stroke-linecap="round" stroke-linejoin="round" fill="none"/><rect x="11.000000" y="13.000000" width="26.000000" height="26.000000" stroke="#000000" stroke-width="2.000000" stroke-linecap="round" stroke-linejoin="round" fill="none"/><path d=" M 33.000000 23.000000 L 27.000000 23.000000 L 27.000000 17.000000 L 21.000000 17.000000 L 21.000000 23.000000 L 15.000000 23.000000 L 15.000000 29.000000 L 21.000000 29.000000 L 21.000000 35.000000 L 27.000000 35.000000 L 27.000000 29.000000 L 33.000000 29.000000 L 33.000000 23.000000 Z" stroke="#000000" stroke-width="2.000000" stroke-linecap="round" stroke-linejoin="round" fill="none"/></g></svg>