<svg version="1.1" viewBox="0.000000 0.000000 48.000000 48.000000" xmlns="http://www.w3.org/2000/svg" xmlns:xlink="http://www.w3.org/1999/xlink" overflow="hidden"><defs></defs><g id="icons"><path d=" M 17.000000 34.000000 L 4.000000 34.000000 C 2.343146 34.000000 1.000000 32.656853 1.000000 31.000000 L 1.000000 5.000000 C 1.000000 3.343146 2.343146 2.000000 4.000000 2.000000 L 44.000000 2.000000 C 45.656853 2.000000 47.000000 3.343146 47.000000 5.000000 L 47.000000 31.000000 C 47.000000 32.656853 45.656853 34.000000 44.000000 34.000000 L 41.000000 34.000000" stroke="#231F20" stroke-width="2.000000" stroke-linecap="round" stroke-miterlimit="10.000000" fill="none"/><path d=" M 17.000000 30.000000 L 5.000000 30.000000 L 5.000000 6.000000 L 43.000000 6.000000 L 43.000000 30.000000 L 41.000000 30.000000" stroke="#231F20" stroke-width="2.000000" stroke-linecap="round" stroke-miterlimit="10.000000" fill="none"/><rect x="23.000000" y="26.000000" width="12.000000" height="20.000000" stroke="#231F20" stroke-width="2.000000" stroke-miterlimit="10.000000" fill="none"/><path d=" M 27.000000 30.000000 C 26.447716 30.000000 26.000000 30.447716 26.000000 31.000000 C 26.000000 31.552284 26.447716 32.000000 27.000000 32.000000 C 27.552284 32.000000 28.000000 31.552284 28.000000 31.000000 C 28.000000 30.447716 27.552284 30.000000 27.000000 30.000000 Z" fill="#231F20"/><path d=" M 31.000000 30.000000 C 30.447716 30.000000 30.000000 30.447716 30.000000 31.000000 C 30.000000 31.552284 30.447716 32.000000 31.000000 32.000000 C 31.552284 32.000000 32.000000 31.552284 32.000000 31.000000 C 32.000000 30.447716 31.552284 30.000000 31.000000 30.000000 Z" fill="#231F20"/><path d=" M 27.000000 34.000000 C 26.447716 34.000000 26.000000 34.447716 26.000000 35.000000 C 26.000000 35.552284 26.447716 36.000000 27.000000 36.000000 C 27.552284 36.000000 28.000000 35.552284 28.000000 35.000000 C 28.000000 34.447716 27.552284 34.000000 27.000000 34.000000 Z" fill="#231F20"/><path d=" M 31.000000 34.000000 C 30.447716 34.000000 30.000000 34.447716 30.000000 35.000000 C 30.000000 35.552284 30.447716 36.000000 31.000000 36.000000 C 31.552284 36.000000 32.000000 35.552284 32.000000 35.000000 C 32.000000 34.447716 31.552284 34.000000 31.000000 34.000000 Z" fill="#231F20"/><path d=" M 27.000000 38.000000 C 26.447716 38.000000 26.000000 38.447716 26.000000 39.000000 C 26.000000 39.552284 26.447716 40.000000 27.000000 40.000000 C 27.552284 40.000000 28.000000 39.552284 28.000000 39.000000 C 28.000000 38.447716 27.552284 38.000000 27.000000 38.000000 Z" fill="#231F20"/><path d=" M 31.000000 38.000000 C 30.447716 38.000000 30.000000 38.447716 30.000000 39.000000 C 30.000000 39.552284 30.447716 40.000000 31.000000 40.000000 C 31.552284 40.000000 32.000000 39.552284 32.000000 39.000000 C 32.000000 38.447716 31.552284 38.000000 31.000000 38.000000 Z" fill="#231F20"/><path d=" M 35.790001 14.930000 C 31.794912 12.478818 26.789648 12.368014 22.690001 14.640000" stroke="#231F20" stroke-width="2.000000" stroke-linecap="round" stroke-linejoin="round" fill="none"/><path d=" M 33.700001 18.330000 C 30.932024 16.636105 27.466486 16.563509 24.630001 18.139999" stroke="#231F20" stroke-width="2.000000" stroke-linecap="round" stroke-linejoin="round" fill="none"/><path d=" M 31.610001 21.750000 C 30.080917 20.825691 28.174818 20.787569 26.610001 21.650000" stroke="#231F20" stroke-width="2.000000" stroke-linecap="round" stroke-linejoin="round" fill="none"/></g></svg>