<svg version="1.1" viewBox="0.000000 0.000000 48.000000 48.000000" xmlns="http://www.w3.org/2000/svg" xmlns:xlink="http://www.w3.org/1999/xlink" overflow="hidden"><defs></defs><g id="icons"><path d=" M 14.000000 12.000000 L 17.000000 35.000000 C 17.000000 35.000000 32.000000 32.000000 34.000000 32.000000 C 36.000000 32.000000 37.000000 43.000000 38.000000 43.000000 C 39.360920 42.788750 40.699780 42.454037 42.000000 42.000000" stroke="#231F20" stroke-width="2.000000" stroke-linecap="round" stroke-linejoin="round" fill="none"/><path d=" M 15.690000 24.830000 C 15.465058 24.905519 15.234278 24.962379 15.000000 25.000000 C 9.805855 26.125711 6.074877 30.685795 6.000000 36.000000 C 5.999009 41.997875 10.803115 46.890949 16.799999 47.000000 C 22.884495 46.943100 27.833487 42.082481 28.000000 36.000000 L 28.000000 33.000000" stroke="#231F20" stroke-width="2.000000" stroke-linecap="round" stroke-linejoin="round" fill="none"/><path d=" M 18.910000 6.460000 C 18.909994 9.475474 16.465466 11.919996 13.449990 11.919991 C 10.434516 11.919986 7.989995 9.475456 7.989999 6.459981 C 7.990005 3.444507 10.434534 0.999986 13.450008 0.999991 C 13.453339 0.999991 13.456669 0.999994 13.459999 1.000000 C 16.469952 0.999995 18.910004 3.440039 18.910007 6.449991 C 18.910007 6.453327 18.910004 6.456664 18.909998 6.460000 Z" stroke="#231F20" stroke-width="2.000000" stroke-linecap="round" stroke-linejoin="round" fill="none"/><line x1="15.000000" y1="25.000000" x2="27.000000" y2="22.000000" stroke="#231F20" stroke-width="2.000000" stroke-linecap="round" stroke-linejoin="round" fill="none"/></g></svg>