<svg version="1.1" viewBox="0.000000 0.000000 48.000000 48.000000" xmlns="http://www.w3.org/2000/svg" xmlns:xlink="http://www.w3.org/1999/xlink" overflow="hidden"><defs></defs><g id="icons"><path d=" M 27.000000 10.000000 C 25.895430 10.000000 25.000000 10.895431 25.000000 12.000000 C 25.000000 13.104569 25.895430 14.000000 27.000000 14.000000 C 28.104570 14.000000 29.000000 13.104569 29.000000 12.000000 C 29.000000 10.895431 28.104570 10.000000 27.000000 10.000000 Z" fill="#231F20"/><path d=" M 27.000000 31.000000 C 25.895430 31.000000 25.000000 31.895430 25.000000 33.000000 C 25.000000 34.104568 25.895430 35.000000 27.000000 35.000000 C 28.104570 35.000000 29.000000 34.104568 29.000000 33.000000 C 29.000000 31.895430 28.104570 31.000000 27.000000 31.000000 Z" fill="#231F20"/><path d=" M 33.000000 10.000000 C 31.895430 10.000000 31.000000 10.895431 31.000000 12.000000 C 31.000000 13.104569 31.895430 14.000000 33.000000 14.000000 C 34.104568 14.000000 35.000000 13.104569 35.000000 12.000000 C 35.000000 10.895431 34.104568 10.000000 33.000000 10.000000 Z" fill="#231F20"/><path d=" M 39.000000 10.000000 C 37.895432 10.000000 37.000000 10.895431 37.000000 12.000000 C 37.000000 13.104569 37.895432 14.000000 39.000000 14.000000 C 40.104568 14.000000 41.000000 13.104569 41.000000 12.000000 C 41.000000 10.895431 40.104568 10.000000 39.000000 10.000000 Z" fill="#231F20"/><path d=" M 27.000000 21.000000 C 27.955822 22.873890 29.896769 24.038458 32.000000 24.000000 C 34.051865 23.861418 35.912136 22.745255 37.000000 21.000000 C 51.000000 21.000000 49.750000 1.000000 36.799999 1.000000 C 34.205097 0.964421 31.723072 2.059432 30.000000 4.000000 C 25.505781 1.800224 20.079227 3.660236 17.879452 8.154454 C 17.601639 8.722034 17.383970 9.317122 17.230001 9.930000" stroke="#231F20" stroke-width="2.000000" stroke-miterlimit="10.000000" fill="none"/><path d=" M 15.840000 47.000000 L 31.000000 47.000000 L 31.000000 42.000000 C 31.000000 41.000000 25.000000 38.000000 20.000000 36.000000 L 20.000000 32.000000 C 20.000000 32.000000 22.000000 31.299999 22.000000 27.000000 C 23.389999 27.000000 24.000000 23.000000 22.059999 23.000000 C 22.059999 22.580000 23.600000 20.379999 23.000000 18.000000 C 22.000000 14.000000 12.000000 14.000000 11.000000 18.000000 C 6.790000 17.139999 10.000000 22.420000 10.000000 23.000000 C 8.000000 23.000000 8.610000 27.000000 10.000000 27.000000 C 10.000000 31.299999 12.000000 32.000000 12.000000 32.000000 L 12.000000 36.000000 C 7.000000 38.000000 1.000000 41.000000 1.000000 42.000000 L 1.000000 47.000000 Z" stroke="#231F20" stroke-width="2.000000" stroke-linejoin="round" fill="none"/><circle cx="34.500000" cy="30.500000" r="2.500000" stroke="#231F20" stroke-width="2.000000" stroke-miterlimit="10.000000" fill="none"/></g></svg>