<svg version="1.1" viewBox="0.000000 0.000000 48.000000 48.000000" xmlns="http://www.w3.org/2000/svg" xmlns:xlink="http://www.w3.org/1999/xlink" overflow="hidden"><defs></defs><g id="icons"><path d=" M 8.000000 37.000000 L 20.000000 33.000000 L 20.000000 29.000000 C 20.000000 29.000000 18.000000 28.299999 18.000000 24.000000 C 16.610001 24.000000 16.000000 20.000000 18.000000 20.000000 C 18.000000 19.420000 14.790000 14.140000 19.000000 15.000000 C 20.000000 11.000000 30.000000 11.000000 31.000000 15.000000 C 31.600000 17.379999 30.059999 19.580000 30.059999 20.000000 C 32.000000 20.000000 31.389999 24.000000 30.000000 24.000000 C 30.000000 28.299999 28.000000 29.000000 28.000000 29.000000 L 28.000000 33.000000 L 40.000000 37.000000" stroke="#231F20" stroke-width="2.000000" stroke-linejoin="round" fill="none"/><rect x="4.000000" y="1.000000" width="40.000000" height="46.000000" stroke="#231F20" stroke-width="2.000000" stroke-linejoin="round" fill="none"/><rect x="8.000000" y="5.000000" width="32.000000" height="38.000000" stroke="#231F20" stroke-width="2.000000" stroke-linejoin="round" fill="none"/></g></svg>