<svg version="1.1" viewBox="0.000000 0.000000 48.000000 48.000000" xmlns="http://www.w3.org/2000/svg" xmlns:xlink="http://www.w3.org/1999/xlink" overflow="hidden"><defs></defs><g id="icons"><circle cx="36.970000" cy="36.930000" r="10.000000" stroke="#231F20" stroke-width="2.000000" stroke-miterlimit="10.000000" fill="none"/><line x1="42.030000" y1="36.930000" x2="32.030000" y2="36.930000" stroke="#231F20" stroke-width="2.000000" stroke-linecap="round" stroke-linejoin="round" fill="none"/><path d=" M 28.000000 26.639999 C 26.440001 26.120001 24.770000 25.570000 23.059999 24.930000 L 23.059999 19.930000 C 23.059999 19.930000 26.059999 18.690001 26.059999 13.930000 C 27.629999 13.930000 27.629999 9.790000 26.059999 9.790000 C 26.059999 9.320000 27.719999 6.570000 27.059999 3.930000 C 26.120001 0.120000 15.060000 0.120000 14.060000 3.930000 C 9.330000 2.930000 12.060000 9.290000 12.060000 9.930000 C 10.500000 9.930000 10.500000 13.930000 12.060000 13.930000 C 12.060000 18.690001 15.060000 19.930000 15.060000 19.930000 L 15.060000 24.930000 C 9.480000 27.000000 2.860000 28.440001 2.000000 30.930000 C 1.357672 33.548885 1.022085 36.233585 1.000000 38.930000 L 22.000000 38.930000" stroke="#231F20" stroke-width="2.000000" stroke-linejoin="round" fill="none"/></g></svg>