<svg version="1.1" viewBox="0.000000 0.000000 48.000000 48.000000" xmlns="http://www.w3.org/2000/svg" xmlns:xlink="http://www.w3.org/1999/xlink" overflow="hidden"><defs></defs><g id="icons"><line x1="1.000000" y1="13.000000" x2="41.000000" y2="13.000000" stroke="#231F20" stroke-width="2.000000" stroke-linecap="round" stroke-linejoin="round" fill="none"/><path d=" M 7.000000 8.000000 C 6.447715 8.000000 6.000000 8.447715 6.000000 9.000000 C 6.000000 9.552285 6.447715 10.000000 7.000000 10.000000 C 7.552285 10.000000 8.000000 9.552285 8.000000 9.000000 C 8.000000 8.447715 7.552285 8.000000 7.000000 8.000000 Z" fill="#231F20"/><path d=" M 11.000000 8.000000 C 10.447715 8.000000 10.000000 8.447715 10.000000 9.000000 C 10.000000 9.552285 10.447715 10.000000 11.000000 10.000000 C 11.552285 10.000000 12.000000 9.552285 12.000000 9.000000 C 12.000000 8.447715 11.552285 8.000000 11.000000 8.000000 Z" fill="#231F20"/><path d=" M 15.000000 8.000000 C 14.447715 8.000000 14.000000 8.447715 14.000000 9.000000 C 14.000000 9.552285 14.447715 10.000000 15.000000 10.000000 C 15.552285 10.000000 16.000000 9.552285 16.000000 9.000000 C 16.000000 8.447715 15.552285 8.000000 15.000000 8.000000 Z" fill="#231F20"/><rect x="1.000000" y="5.000000" rx="4.000000" ry="4.000000" width="40.000000" height="30.000000" stroke="#231F20" stroke-width="2.000000" stroke-linecap="round" stroke-miterlimit="10.000000" fill="none"/><line x1="41.000000" y1="21.000000" x2="47.000000" y2="21.000000" stroke="#231F20" stroke-width="2.000000" stroke-linecap="round" stroke-linejoin="round" fill="none"/><path d=" M 41.000000 13.000000 L 43.000000 13.000000 C 45.209141 13.000000 47.000000 14.790861 47.000000 17.000000 L 47.000000 39.000000 C 47.000000 41.209141 45.209141 43.000000 43.000000 43.000000 L 11.000000 43.000000 C 8.790861 43.000000 7.000000 41.209141 7.000000 39.000000 L 7.000000 35.000000" stroke="#231F20" stroke-width="2.000000" stroke-linecap="round" stroke-miterlimit="10.000000" fill="none"/></g></svg>