<svg version="1.1" viewBox="0.000000 0.000000 48.000000 48.000000" xmlns="http://www.w3.org/2000/svg" xmlns:xlink="http://www.w3.org/1999/xlink" overflow="hidden"><defs></defs><g id="icons"><rect x="5.000000" y="24.000000" width="38.000000" height="22.000000" stroke="#231F20" stroke-width="2.000000" stroke-linecap="round" stroke-linejoin="round" fill="none"/><path d=" M 9.000000 42.000000 L 9.000000 28.000000 L 20.000000 28.000000 L 20.000000 34.000000 L 28.000000 34.000000 L 28.000000 28.000000 L 39.000000 28.000000 L 39.000000 42.000000 L 9.000000 42.000000 Z" stroke="#231F20" stroke-width="2.000000" stroke-linecap="round" stroke-linejoin="round" fill="none"/><line x1="24.000000" y1="28.000000" x2="24.000000" y2="30.000000" stroke="#231F20" stroke-width="2.000000" stroke-linecap="round" stroke-linejoin="round" fill="none"/><path d=" M 41.000000 24.000000 C 41.000000 19.559999 37.590000 18.870001 33.000000 19.000000 C 32.090000 15.000000 28.290001 14.000000 24.000000 14.000000 C 19.709999 14.000000 15.910000 15.000000 15.000000 19.000000 C 10.410000 18.870001 7.000000 19.559999 7.000000 24.000000" stroke="#231F20" stroke-width="2.000000" stroke-linecap="round" stroke-linejoin="round" fill="none"/><line x1="1.000000" y1="20.000000" x2="3.000000" y2="20.000000" stroke="#231F20" stroke-width="2.000000" stroke-linecap="round" stroke-linejoin="round" fill="none"/><line x1="9.000000" y1="5.000000" x2="11.000000" y2="7.000000" stroke="#231F20" stroke-width="2.000000" stroke-linecap="round" stroke-linejoin="round" fill="none"/><line x1="24.000000" y1="2.000000" x2="24.000000" y2="5.000000" stroke="#231F20" stroke-width="2.000000" stroke-linecap="round" stroke-linejoin="round" fill="none"/><line x1="39.000000" y1="5.000000" x2="37.000000" y2="7.000000" stroke="#231F20" stroke-width="2.000000" stroke-linecap="round" stroke-linejoin="round" fill="none"/><line x1="47.000000" y1="20.000000" x2="45.000000" y2="20.000000" stroke="#231F20" stroke-width="2.000000" stroke-linecap="round" stroke-linejoin="round" fill="none"/></g></svg>