<svg version="1.1" viewBox="0.000000 0.000000 48.000000 48.000000" xmlns="http://www.w3.org/2000/svg" xmlns:xlink="http://www.w3.org/1999/xlink" overflow="hidden"><defs></defs><g id="icons"><rect x="1.000000" y="0.000000" rx="4.000000" ry="4.000000" width="46.000000" height="34.000000" stroke="#231F20" stroke-width="2.000000" stroke-linecap="round" stroke-linejoin="round" fill="none"/><path d=" M 17.770000 12.000000 L 15.500000 16.840000 C 15.000000 17.889999 14.530000 19.000000 14.160000 20.000000 L 14.160000 20.000000 C 14.100000 19.000000 14.030000 17.920000 13.920000 16.850000 L 13.430000 12.000000 L 9.830000 12.000000 C 9.277715 12.000000 8.830000 12.447715 8.830000 13.000000 C 8.830000 13.552285 9.277715 14.000000 9.830000 14.000000 L 11.450000 14.000000 L 12.450000 22.000000 L 15.000000 22.000000 L 20.219999 12.000000 Z" fill="#231F20"/><path d=" M 21.320000 12.000000 L 19.410000 22.000000 L 21.570000 22.000000 L 23.480000 12.000000 L 21.320000 12.000000 Z" fill="#231F20"/><path d=" M 28.270000 16.080000 C 27.410000 15.600000 26.799999 15.240000 26.799999 14.650000 C 26.799999 14.060000 27.320000 13.590000 28.330000 13.590000 C 28.987408 13.582397 29.636555 13.736957 30.219999 14.040000 L 30.889999 12.240000 C 30.154583 11.865734 29.334200 11.689938 28.510000 11.730000 C 26.299999 11.730000 24.510000 12.970000 24.510000 15.010000 C 24.510000 16.330000 25.510000 17.110001 26.610001 17.700001 C 27.540001 18.180000 27.969999 18.549999 27.969999 19.120001 C 27.969999 19.910000 27.209999 20.309999 26.370001 20.309999 C 25.536789 20.304050 24.719669 20.079945 24.000000 19.660000 L 23.280001 21.430000 C 24.152866 21.954721 25.163071 22.205532 26.180000 22.150000 C 28.430000 22.150000 30.290001 20.990000 30.290001 18.750000 C 30.206440 17.537903 29.413687 16.490055 28.270000 16.080000 Z" fill="#231F20"/><path d=" M 38.110001 12.000000 L 35.330002 12.000000 L 30.420000 22.000000 L 32.709999 22.000000 L 33.910000 19.000000 L 36.820000 19.000000 L 37.000000 22.000000 L 39.259998 22.000000 Z M 34.540001 18.000000 L 35.540001 15.900000 C 35.810001 15.320000 36.099998 14.000000 36.349998 14.000000 L 36.349998 14.000000 C 36.349998 14.000000 36.459999 15.350000 36.509998 15.900000 L 36.700001 18.000000 Z" fill="#231F20"/></g></svg>