<svg version="1.1" viewBox="0.000000 0.000000 48.000000 48.000000" xmlns="http://www.w3.org/2000/svg" xmlns:xlink="http://www.w3.org/1999/xlink" overflow="hidden"><defs></defs><g id="icons"><path d=" M 42.000000 45.000000 L 6.000000 45.000000 C 2.000000 45.000000 2.000000 39.000000 6.000000 39.000000 L 42.000000 39.000000 C 46.000000 39.000000 46.000000 45.000000 42.000000 45.000000 Z" stroke="#231F20" stroke-width="2.000000" stroke-linecap="round" stroke-linejoin="round" fill="none"/><path d=" M 35.290001 33.060001 C 37.529194 26.822321 34.287781 19.950455 28.050100 17.711260 C 21.812420 15.472065 14.940554 18.713478 12.701360 24.951160 C 11.767842 27.551643 11.760298 30.394602 12.680000 33.000000" stroke="#231F20" stroke-width="2.000000" stroke-linecap="round" stroke-linejoin="round" fill="none"/><circle cx="24.000000" cy="8.000000" r="5.000000" stroke="#231F20" stroke-width="2.000000" stroke-linecap="round" stroke-linejoin="round" fill="none"/><line x1="19.000000" y1="8.000000" x2="29.000000" y2="8.000000" stroke="#231F20" stroke-width="2.000000" stroke-linecap="round" stroke-linejoin="round" fill="none"/><line x1="24.000000" y1="13.000000" x2="24.000000" y2="17.000000" stroke="#231F20" stroke-width="2.000000" stroke-linecap="round" stroke-linejoin="round" fill="none"/><path d=" M 18.500000 18.330000 C 12.614567 15.282980 5.373383 17.583969 2.326363 23.469402 C -0.494858 28.918695 1.249530 35.618454 6.370000 39.000000 L 41.630001 39.000000 C 47.160294 35.347805 48.682793 27.903931 45.030598 22.373638 C 41.649052 17.253168 34.949291 15.508780 29.500000 18.330000" stroke="#231F20" stroke-width="2.000000" stroke-linecap="round" stroke-linejoin="round" fill="none"/></g></svg>