<svg version="1.1" viewBox="0.000000 0.000000 48.000000 48.000000" xmlns="http://www.w3.org/2000/svg" xmlns:xlink="http://www.w3.org/1999/xlink" overflow="hidden"><defs></defs><g id="icons"><path d=" M 47.000000 30.000000 C 43.686291 30.000000 41.000000 27.313709 41.000000 24.000000 C 41.000000 20.686291 43.686291 18.000000 47.000000 18.000000 L 47.000000 9.000000 L 1.000000 9.000000 L 1.000000 18.000000 C 4.313708 18.000000 7.000000 20.686291 7.000000 24.000000 C 7.000000 27.313709 4.313708 30.000000 1.000000 30.000000 L 1.000000 39.000000 L 47.000000 39.000000 Z" stroke="#231F20" stroke-width="2.000000" stroke-linecap="round" stroke-linejoin="round" fill="none"/><path d=" M 38.000000 11.000000 L 36.000000 11.000000 L 36.000000 13.000000 L 38.000000 13.000000 L 38.000000 11.000000 L 38.000000 11.000000 Z" fill="#231F20"/><path d=" M 38.000000 15.000000 L 36.000000 15.000000 L 36.000000 17.000000 L 38.000000 17.000000 L 38.000000 15.000000 L 38.000000 15.000000 Z" fill="#231F20"/><path d=" M 38.000000 19.000000 L 36.000000 19.000000 L 36.000000 21.000000 L 38.000000 21.000000 L 38.000000 19.000000 L 38.000000 19.000000 Z" fill="#231F20"/><path d=" M 38.000000 23.000000 L 36.000000 23.000000 L 36.000000 25.000000 L 38.000000 25.000000 L 38.000000 23.000000 L 38.000000 23.000000 Z" fill="#231F20"/><path d=" M 38.000000 27.000000 L 36.000000 27.000000 L 36.000000 29.000000 L 38.000000 29.000000 L 38.000000 27.000000 L 38.000000 27.000000 Z" fill="#231F20"/><path d=" M 38.000000 31.000000 L 36.000000 31.000000 L 36.000000 33.000000 L 38.000000 33.000000 L 38.000000 31.000000 L 38.000000 31.000000 Z" fill="#231F20"/><path d=" M 38.000000 35.000000 L 36.000000 35.000000 L 36.000000 37.000000 L 38.000000 37.000000 L 38.000000 35.000000 L 38.000000 35.000000 Z" fill="#231F20"/><rect x="13.000000" y="15.000000" width="18.000000" height="18.000000" stroke="#231F20" stroke-width="2.000000" stroke-linecap="round" stroke-linejoin="round" fill="none"/><line x1="19.000000" y1="21.000000" x2="25.000000" y2="21.000000" stroke="#231F20" stroke-width="2.000000" stroke-linecap="round" stroke-linejoin="round" fill="none"/><line x1="19.000000" y1="27.000000" x2="25.000000" y2="27.000000" stroke="#231F20" stroke-width="2.000000" stroke-linecap="round" stroke-linejoin="round" fill="none"/></g></svg>