<svg version="1.1" viewBox="0.000000 0.000000 48.000000 48.000000" xmlns="http://www.w3.org/2000/svg" xmlns:xlink="http://www.w3.org/1999/xlink" overflow="hidden"><defs></defs><g id="icons"><circle cx="24.000000" cy="25.340000" r="7.000000" stroke="#231F20" stroke-width="2.000000" stroke-linecap="round" stroke-linejoin="round" fill="none"/><path d=" M 45.880001 18.230000 C 44.346352 13.501954 39.270245 10.912384 34.542202 12.446033 C 34.538136 12.447351 34.534069 12.448674 34.530003 12.449999 C 33.926647 12.646214 33.346539 12.907766 32.800003 13.229999 C 33.842052 8.369893 30.746904 3.585251 25.886799 2.543202 C 21.026693 1.501154 16.242052 4.596301 15.200003 9.456407 C 14.933336 10.700137 14.933336 11.986268 15.200003 13.229999 C 14.654414 12.905939 14.074098 12.644294 13.470003 12.449999 C 8.742446 10.911886 3.663116 13.497441 2.125003 18.224998 C 0.586890 22.952557 3.172446 28.031885 7.900003 29.569998 C 8.502597 29.780281 9.126258 29.924461 9.760003 29.999998 C 9.290767 30.426529 8.865320 30.898874 8.490003 31.409998 C 5.565655 35.430630 6.454370 41.060650 10.475002 43.984997 C 14.495635 46.909344 20.125654 46.020630 23.050003 41.999996 C 23.428520 41.470177 23.747131 40.900028 24.000004 40.299995 C 24.268656 40.902306 24.604092 41.472546 25.000004 41.999996 C 27.857857 46.066833 33.471428 47.046909 37.538265 44.189056 C 41.605103 41.331203 42.585178 35.717632 39.727325 31.650795 C 39.298542 31.040619 38.795578 30.486103 38.230003 29.999998 C 38.862408 29.938467 39.486145 29.807684 40.090004 29.609999 C 44.821251 28.086250 47.421440 23.015577 45.897694 18.284330 C 45.891853 18.266201 45.885960 18.248091 45.880005 18.229998 Z" stroke="#231F20" stroke-width="2.000000" stroke-linecap="round" stroke-linejoin="round" fill="none"/></g></svg>