<svg version="1.1" viewBox="0.000000 0.000000 48.000000 48.000000" xmlns="http://www.w3.org/2000/svg" xmlns:xlink="http://www.w3.org/1999/xlink" overflow="hidden"><defs></defs><g id="icons"><circle cx="37.000000" cy="37.000000" r="10.000000" stroke="#231F20" stroke-width="2.000000" stroke-miterlimit="10.000000" fill="none"/><line x1="37.000000" y1="32.000000" x2="37.000000" y2="42.000000" stroke="#231F20" stroke-width="2.000000" stroke-linecap="round" stroke-linejoin="round" fill="none"/><line x1="42.000000" y1="37.000000" x2="32.000000" y2="37.000000" stroke="#231F20" stroke-width="2.000000" stroke-linecap="round" stroke-linejoin="round" fill="none"/><path d=" M 27.930000 26.559999 C 26.379999 26.049999 24.700001 25.500000 23.000000 24.860001 L 23.000000 19.860001 C 23.000000 19.860001 26.000000 18.620001 26.000000 13.860000 C 27.559999 13.860000 27.559999 9.710000 26.000000 9.710000 C 26.000000 9.250000 27.660000 6.500000 27.000000 3.860000 C 26.049999 0.050000 15.000000 0.050000 14.000000 3.860000 C 9.260000 2.860000 12.000000 9.220000 12.000000 9.860000 C 10.430000 9.860000 10.430000 13.860000 12.000000 13.860000 C 12.000000 18.620001 15.000000 19.860001 15.000000 19.860001 L 15.000000 24.860001 C 9.440000 27.000000 2.820000 28.370001 2.000000 30.860001 C 1.050000 33.709999 1.000000 39.000000 1.000000 39.000000 L 22.000000 39.000000" stroke="#231F20" stroke-width="2.000000" stroke-linejoin="round" fill="none"/></g></svg>