<svg version="1.1" viewBox="0.000000 0.000000 48.000000 48.000000" xmlns="http://www.w3.org/2000/svg" xmlns:xlink="http://www.w3.org/1999/xlink" overflow="hidden"><defs></defs><g id="icons"><circle cx="9.000000" cy="30.000000" r="8.000000" stroke="#231F20" stroke-width="2.000000" stroke-linecap="round" stroke-linejoin="round" fill="none"/><circle cx="39.000000" cy="30.000000" r="8.000000" stroke="#231F20" stroke-width="2.000000" stroke-linecap="round" stroke-linejoin="round" fill="none"/><line x1="21.000000" y1="28.000000" x2="27.000000" y2="28.000000" stroke="#231F20" stroke-width="2.000000" stroke-linecap="round" stroke-linejoin="round" fill="none"/><path d=" M 5.000000 23.000000 L 5.000000 20.500000 C 5.000000 19.120001 6.800000 18.000000 9.000000 18.000000 L 39.000000 18.000000 C 41.200001 18.000000 43.000000 19.120001 43.000000 20.500000 L 43.000000 23.000000" stroke="#231F20" stroke-width="2.000000" stroke-linecap="round" stroke-linejoin="round" fill="none"/><line x1="39.000000" y1="38.000000" x2="9.000000" y2="38.000000" stroke="#231F20" stroke-width="2.000000" stroke-linecap="round" stroke-linejoin="round" fill="none"/><path d=" M 9.000000 18.000000 L 9.000000 12.000000 C 9.000000 10.895431 9.895431 10.000000 11.000000 10.000000 L 37.000000 10.000000 C 38.104568 10.000000 39.000000 10.895431 39.000000 12.000000 L 39.000000 18.000000" stroke="#231F20" stroke-width="2.000000" stroke-linejoin="round" fill="none"/><circle cx="39.000000" cy="30.000000" r="2.000000" stroke="#231F20" stroke-width="2.000000" stroke-linejoin="round" fill="none"/><circle cx="9.000000" cy="30.000000" r="2.000000" stroke="#231F20" stroke-width="2.000000" stroke-linejoin="round" fill="none"/><path d=" M 28.000000 22.000000 L 20.000000 22.000000 L 16.000000 18.000000 L 32.000000 18.000000 L 28.000000 22.000000 Z" stroke="#231F20" stroke-width="2.000000" stroke-linejoin="round" fill="none"/></g></svg>