<svg version="1.1" viewBox="0.000000 0.000000 48.000000 48.000000" xmlns="http://www.w3.org/2000/svg" xmlns:xlink="http://www.w3.org/1999/xlink" overflow="hidden"><defs></defs><g id="icons"><path d=" M 10.000000 40.000000 L 10.000000 22.000000 C 10.000000 18.134007 13.134007 15.000000 17.000000 15.000000 C 20.865993 15.000000 24.000000 18.134007 24.000000 22.000000 L 24.000000 40.000000" stroke="#231F20" stroke-width="2.000000" stroke-linecap="round" stroke-linejoin="round" fill="none"/><path d=" M 20.000000 22.000000 C 20.000000 20.343145 18.656855 19.000000 17.000000 19.000000 C 15.343145 19.000000 14.000000 20.343145 14.000000 22.000000 L 14.000000 25.000000 L 20.000000 25.000000 Z" stroke="#231F20" stroke-width="2.000000" stroke-linecap="round" stroke-linejoin="round" fill="none"/><path d=" M 24.000000 40.000000 L 24.000000 22.000000 C 24.000000 18.134007 27.134007 15.000000 31.000000 15.000000 C 34.865993 15.000000 38.000000 18.134007 38.000000 22.000000 L 38.000000 40.000000" stroke="#231F20" stroke-width="2.000000" stroke-linecap="round" stroke-linejoin="round" fill="none"/><path d=" M 34.000000 22.000000 C 34.000000 20.343145 32.656853 19.000000 31.000000 19.000000 C 29.343145 19.000000 28.000000 20.343145 28.000000 22.000000 L 28.000000 25.000000 L 34.000000 25.000000 Z" stroke="#231F20" stroke-width="2.000000" stroke-linecap="round" stroke-linejoin="round" fill="none"/><path d=" M 42.020000 16.000000 L 47.000000 14.000000 L 46.020000 8.000000" stroke="#231F20" stroke-width="2.000000" stroke-linecap="round" stroke-linejoin="round" fill="none"/><path d=" M 1.000000 13.880000 C 6.300000 10.300000 14.640000 8.000000 24.000000 8.000000 C 33.360001 8.000000 41.669998 10.410000 47.000000 14.000000" stroke="#231F20" stroke-width="2.000000" stroke-linecap="round" stroke-linejoin="round" fill="none"/></g></svg>