<svg version="1.1" viewBox="0.000000 0.000000 48.000000 48.000000" xmlns="http://www.w3.org/2000/svg" xmlns:xlink="http://www.w3.org/1999/xlink" overflow="hidden"><defs></defs><g id="icons"><path d=" M 18.629999 28.709999 L 6.190000 32.380001 C 3.064757 33.552444 0.995934 36.542076 1.000000 39.880001 L 1.000000 46.880001 L 47.000000 46.880001 L 47.000000 40.060001 C 47.002022 36.679935 44.946903 33.638840 41.810001 32.380001 L 29.370001 28.709999" stroke="#231F20" stroke-width="2.000000" stroke-linecap="round" stroke-miterlimit="10.000000" fill="none"/><path d=" M 24.000000 30.879999 C 21.000000 30.879999 14.000000 26.879999 14.000000 20.879999 C 11.000000 20.879999 11.000000 14.880000 14.000000 14.880000 L 14.000000 4.880000 C 14.000000 -0.120000 34.000000 -0.120000 34.000000 4.880000 L 34.000000 14.880000 C 37.000000 14.880000 37.000000 20.879999 34.000000 20.879999 C 34.000000 26.879999 27.000000 30.879999 24.000000 30.879999" stroke="#231F20" stroke-width="2.000000" stroke-linecap="round" stroke-linejoin="round" fill="none"/><path d=" M 45.000000 34.880001 L 3.000000 34.880001" stroke="#231F20" stroke-width="2.000000" stroke-miterlimit="10.000000" fill="none"/><path d=" M 47.000000 40.880001 L 1.000000 40.880001" stroke="#231F20" stroke-width="2.000000" stroke-miterlimit="10.000000" fill="none"/><path d=" M 34.000000 6.880000 C 34.000000 6.880000 31.000000 8.880000 24.000000 8.880000 C 17.000000 8.880000 14.000000 6.880000 14.000000 6.880000" stroke="#231F20" stroke-width="2.000000" stroke-miterlimit="10.000000" fill="none"/><path d=" M 34.000000 11.880000 C 34.000000 11.880000 31.000000 13.880000 24.000000 13.880000 C 17.000000 13.880000 14.000000 11.880000 14.000000 11.880000" stroke="#231F20" stroke-width="2.000000" stroke-miterlimit="10.000000" fill="none"/><line x1="20.000000" y1="17.880000" x2="20.000000" y2="17.880000" stroke="#231F20" stroke-width="2.000000" stroke-linecap="round" stroke-miterlimit="10.000000" fill="none"/><line x1="28.000000" y1="17.880000" x2="28.000000" y2="17.880000" stroke="#231F20" stroke-width="2.000000" stroke-linecap="round" stroke-miterlimit="10.000000" fill="none"/><path d=" M 19.000000 28.879999 L 19.000000 26.879999 C 19.000000 24.670860 20.790861 22.879999 23.000000 22.879999 L 25.000000 22.879999 C 27.209139 22.879999 29.000000 24.670860 29.000000 26.879999 L 29.000000 28.879999" stroke="#231F20" stroke-width="2.000000" stroke-miterlimit="10.000000" fill="none"/><line x1="24.000000" y1="30.880000" x2="24.000000" y2="26.880000" stroke="#231F20" stroke-width="2.000000" stroke-miterlimit="10.000000" fill="none"/></g></svg>