<svg version="1.1" viewBox="0.000000 0.000000 48.000000 48.000000" xmlns="http://www.w3.org/2000/svg" xmlns:xlink="http://www.w3.org/1999/xlink" overflow="hidden"><defs></defs><g id="icons"><path d=" M 39.000000 32.130001 L 39.000000 32.130001 C 40.656853 32.130001 42.000000 33.473148 42.000000 35.130001 C 42.000000 36.786854 40.656853 38.130001 39.000000 38.130001 L 37.000000 38.130001 C 38.656853 38.130001 40.000000 39.473148 40.000000 41.130001 C 40.000000 42.786854 38.656853 44.130001 37.000000 44.130001 L 24.000000 44.130001 C 16.000000 44.130001 18.000000 40.130001 2.000000 40.130001 L 2.000000 22.129999 L 8.000000 22.129999 C 15.000000 22.129999 23.000000 15.690000 23.000000 6.130000 C 23.000000 3.000000 29.000000 2.570000 29.000000 8.570000 C 29.000000 12.570000 27.000000 20.129999 27.000000 20.129999 L 43.000000 20.129999 C 44.656853 20.129999 46.000000 21.473145 46.000000 23.129999 C 46.000000 24.786854 44.656853 26.129999 43.000000 26.129999 L 41.000000 26.129999 C 42.656853 26.129999 44.000000 27.473145 44.000000 29.129999 C 44.000000 30.786854 42.656853 32.129997 41.000000 32.129997 L 39.000000 32.130001" stroke="#231F20" stroke-width="2.000000" stroke-linecap="round" stroke-linejoin="round" fill="none"/></g></svg>