<svg version="1.1" viewBox="0.000000 0.000000 48.000000 48.000000" xmlns="http://www.w3.org/2000/svg" xmlns:xlink="http://www.w3.org/1999/xlink" overflow="hidden"><defs></defs><g id="icons"><path d=" M 23.940001 7.000000 L 25.940001 11.000000 L 29.940001 11.000000 L 26.700001 13.470000 L 27.940001 18.000000 L 23.940001 15.000000 L 19.940001 18.000000 L 21.520000 13.470000 L 17.940001 11.000000 L 21.940001 11.000000 L 23.940001 7.000000 Z" stroke="#231F20" stroke-width="2.000000" stroke-linecap="round" stroke-linejoin="round" fill="none"/><path d=" M 10.250000 21.000000 C 0.250000 21.000000 1.000000 7.760000 1.000000 5.000000 L 6.070000 5.000000" stroke="#231F20" stroke-width="2.000000" stroke-linecap="round" stroke-linejoin="round" fill="none"/><path d=" M 37.689999 21.000000 C 47.689999 21.000000 47.000000 7.760000 47.000000 5.000000 L 41.900002 5.000000" stroke="#231F20" stroke-width="2.000000" stroke-linecap="round" stroke-linejoin="round" fill="none"/><path d=" M 42.000000 1.000000 L 6.000000 1.000000 C 6.000000 31.870001 21.940001 23.110001 21.940001 34.000000 C 21.809999 41.000000 18.530001 43.000000 13.010000 43.000000 L 13.010000 47.000000 L 35.000000 47.000000 L 35.000000 43.000000 C 29.469999 43.000000 25.930000 41.000000 25.930000 34.000000 C 25.940001 23.090000 42.000000 31.740000 42.000000 1.000000 Z" stroke="#231F20" stroke-width="2.000000" stroke-linecap="round" stroke-linejoin="round" fill="none"/></g></svg>