<svg version="1.1" viewBox="0.000000 0.000000 48.000000 48.000000" xmlns="http://www.w3.org/2000/svg" xmlns:xlink="http://www.w3.org/1999/xlink" overflow="hidden"><defs></defs><g id="icons"><path d=" M 47.000000 29.379999 C 47.000000 16.677450 36.702549 6.379999 24.000000 6.379999 C 11.297451 6.379999 1.000000 16.677450 1.000000 29.379999 C 1.000000 29.379999 1.000000 25.379999 6.000000 25.379999 C 11.000000 25.379999 12.000000 29.379999 12.000000 29.379999 C 12.000000 29.379999 13.000000 25.379999 18.000000 25.379999 C 23.000000 25.379999 24.000000 29.379999 24.000000 29.379999 C 24.000000 29.379999 26.000000 25.379999 30.000000 25.379999 C 34.000000 25.379999 36.000000 29.379999 36.000000 29.379999 C 36.000000 29.379999 38.000000 25.379999 42.000000 25.379999 C 46.000000 25.379999 47.000000 29.379999 47.000000 29.379999 Z" stroke="#231F20" stroke-width="2.000000" stroke-linejoin="round" fill="none"/><line x1="24.000000" y1="5.380000" x2="24.000000" y2="1.380000" stroke="#231F20" stroke-width="2.000000" stroke-linecap="round" stroke-linejoin="round" fill="none"/><path d=" M 29.000000 44.380001 C 29.000000 47.380001 24.000000 47.380001 24.000000 44.380001 L 24.000000 29.379999" stroke="#231F20" stroke-width="2.000000" stroke-linecap="round" stroke-linejoin="round" fill="none"/></g></svg>