<svg version="1.1" viewBox="0.000000 0.000000 48.000000 48.000000" xmlns="http://www.w3.org/2000/svg" xmlns:xlink="http://www.w3.org/1999/xlink" overflow="hidden"><defs></defs><g id="icons"><path d=" M 38.000000 39.000000 L 44.000000 39.000000 C 45.656853 39.000000 47.000000 37.656853 47.000000 36.000000 L 47.000000 29.000000 L 43.000000 25.000000 L 43.000000 7.000000 C 43.000000 3.686291 40.313709 1.000000 37.000000 1.000000 L 11.000000 1.000000 C 7.686292 1.000000 5.000000 3.686291 5.000000 7.000000 L 5.000000 25.000000 L 1.000000 29.000000 L 1.000000 36.000000 C 1.000000 37.656853 2.343146 39.000000 4.000000 39.000000 L 9.790000 39.000000" stroke="#231F20" stroke-width="2.000000" stroke-miterlimit="10.000000" fill="none"/><path d=" M 43.000000 47.000000 L 5.000000 47.000000 C 8.630524 43.214657 10.762699 38.239582 11.000000 33.000000 L 37.000000 33.000000 C 37.000000 33.000000 37.000000 42.000000 43.000000 47.000000 Z" stroke="#231F20" stroke-width="2.000000" stroke-miterlimit="10.000000" fill="none"/><circle cx="24.000000" cy="12.000000" r="6.000000" stroke="#231F20" stroke-width="2.000000" stroke-miterlimit="10.000000" fill="none"/><circle cx="11.500000" cy="18.560000" r="0.500000" stroke="#231F20" stroke-width="2.000000" stroke-miterlimit="10.000000" fill="none"/><rect x="34.000000" y="6.000000" width="5.000000" height="4.000000" stroke="#231F20" stroke-width="2.000000" stroke-miterlimit="10.000000" fill="none"/><line x1="22.000000" y1="6.290000" x2="22.000000" y2="1.000000" stroke="#231F20" stroke-width="2.000000" stroke-miterlimit="10.000000" fill="none"/><line x1="26.000000" y1="6.330000" x2="26.000000" y2="1.000000" stroke="#231F20" stroke-width="2.000000" stroke-miterlimit="10.000000" fill="none"/><line x1="22.000000" y1="25.000000" x2="22.000000" y2="17.670000" stroke="#231F20" stroke-width="2.000000" stroke-miterlimit="10.000000" fill="none"/><line x1="26.000000" y1="25.000000" x2="26.000000" y2="17.670000" stroke="#231F20" stroke-width="2.000000" stroke-miterlimit="10.000000" fill="none"/><line x1="5.000000" y1="25.000000" x2="43.000000" y2="25.000000" stroke="#231F20" stroke-width="2.000000" stroke-miterlimit="10.000000" fill="none"/><line x1="1.000000" y1="29.000000" x2="47.000000" y2="29.000000" stroke="#231F20" stroke-width="2.000000" stroke-miterlimit="10.000000" fill="none"/><line x1="4.000000" y1="33.000000" x2="44.000000" y2="33.000000" stroke="#231F20" stroke-width="2.000000" stroke-miterlimit="10.000000" fill="none"/><line x1="8.000000" y1="43.000000" x2="39.710000" y2="43.000000" stroke="#231F20" stroke-width="2.000000" stroke-miterlimit="10.000000" fill="none"/></g></svg>