<svg version="1.1" viewBox="0.000000 0.000000 48.000000 48.000000" xmlns="http://www.w3.org/2000/svg" xmlns:xlink="http://www.w3.org/1999/xlink" overflow="hidden"><defs></defs><g id="icons"><path d=" M 35.000000 27.000000 C 35.000000 29.209139 33.209141 31.000000 31.000000 31.000000 L 17.000000 31.000000 C 14.790861 31.000000 13.000000 29.209139 13.000000 27.000000 L 13.000000 5.000000 L 35.000000 5.000000 Z" stroke="#231F20" stroke-width="2.000000" stroke-linecap="round" stroke-linejoin="round" fill="none"/><line x1="13.000000" y1="11.000000" x2="9.000000" y2="11.000000" stroke="#231F20" stroke-width="2.000000" stroke-linecap="round" stroke-linejoin="round" fill="none"/><line x1="35.000000" y1="11.000000" x2="39.000000" y2="11.000000" stroke="#231F20" stroke-width="2.000000" stroke-linecap="round" stroke-linejoin="round" fill="none"/><line x1="13.000000" y1="21.000000" x2="9.000000" y2="21.000000" stroke="#231F20" stroke-width="2.000000" stroke-linecap="round" stroke-linejoin="round" fill="none"/><line x1="35.000000" y1="21.000000" x2="39.000000" y2="21.000000" stroke="#231F20" stroke-width="2.000000" stroke-linecap="round" stroke-linejoin="round" fill="none"/><line x1="11.000000" y1="5.000000" x2="37.000000" y2="5.000000" stroke="#231F20" stroke-width="2.000000" stroke-linecap="round" stroke-linejoin="round" fill="none"/><path d=" M 20.000000 5.000000 C 20.000000 2.790861 21.790861 1.000000 24.000000 1.000000 C 26.209139 1.000000 28.000000 2.790861 28.000000 5.000000" stroke="#231F20" stroke-width="2.000000" stroke-linecap="round" stroke-linejoin="round" fill="none"/><line x1="13.000000" y1="17.000000" x2="35.000000" y2="17.000000" stroke="#231F20" stroke-width="2.000000" stroke-linecap="round" stroke-linejoin="round" fill="none"/><path d=" M 29.000000 47.000000 C 30.656855 47.000000 32.000000 45.656853 32.000000 44.000000 C 32.000000 42.340000 29.000000 37.000000 29.000000 37.000000 L 27.000000 40.000000 L 24.000000 35.000000 L 21.000000 40.000000 L 19.000000 37.000000 C 19.000000 37.000000 16.000000 42.340000 16.000000 44.000000 C 16.000000 45.656853 17.343145 47.000000 19.000000 47.000000 Z" stroke="#231F20" stroke-width="2.000000" stroke-linecap="round" stroke-linejoin="round" fill="none"/></g></svg>