<svg version="1.1" viewBox="0.000000 0.000000 48.000000 48.000000" xmlns="http://www.w3.org/2000/svg" xmlns:xlink="http://www.w3.org/1999/xlink" overflow="hidden"><defs></defs><g id="icons"><path d=" M 41.000000 18.000000 C 41.000000 8.611159 33.388840 1.000000 24.000000 1.000000 C 14.611159 1.000000 7.000000 8.611159 7.000000 18.000000 L 7.000000 45.000000 C 7.000000 46.104568 7.895431 47.000000 9.000000 47.000000 L 10.000000 47.000000 C 11.104569 47.000000 12.000000 46.104568 12.000000 45.000000 L 12.000000 45.000000 C 12.000000 43.895432 12.895431 43.000000 14.000000 43.000000 L 14.000000 43.000000 C 15.104569 43.000000 16.000000 43.895432 16.000000 45.000000 L 16.000000 45.000000 C 16.000000 46.104568 16.895430 47.000000 18.000000 47.000000 L 20.000000 47.000000 C 21.104570 47.000000 22.000000 46.104568 22.000000 45.000000 L 22.000000 45.000000 C 22.000000 43.895432 22.895430 43.000000 24.000000 43.000000 L 24.000000 43.000000 C 25.104570 43.000000 26.000000 43.895432 26.000000 45.000000 L 26.000000 45.000000 C 26.000000 46.104568 26.895430 47.000000 28.000000 47.000000 L 30.000000 47.000000 C 31.104570 47.000000 32.000000 46.104568 32.000000 45.000000 L 32.000000 45.000000 C 32.000000 43.895432 32.895432 43.000000 34.000000 43.000000 L 34.000000 43.000000 C 35.104568 43.000000 36.000000 43.895432 36.000000 45.000000 L 36.000000 45.000000 C 36.000000 46.104568 36.895432 47.000000 38.000000 47.000000 L 39.000000 47.000000 C 40.104568 47.000000 41.000000 46.104568 41.000000 45.000000 Z" stroke="#231F20" stroke-width="2.000000" stroke-linecap="round" stroke-linejoin="round" fill="none"/><path d=" M 33.000000 24.000000 C 33.000000 25.656855 31.656855 27.000000 30.000000 27.000000 L 30.000000 27.000000 C 28.343145 27.000000 27.000000 25.656855 27.000000 24.000000 L 27.000000 18.000000 C 27.000000 16.343145 28.343145 15.000000 30.000000 15.000000 L 30.000000 15.000000 C 31.656855 15.000000 33.000000 16.343145 33.000000 18.000000 Z" stroke="#231F20" stroke-width="2.000000" stroke-linecap="round" stroke-linejoin="round" fill="none"/><circle cx="28.000000" cy="22.000000" r="1.000000" stroke="#231F20" stroke-width="2.000000" stroke-linecap="round" stroke-linejoin="round" fill="none"/><path d=" M 21.000000 24.000000 C 21.000000 25.656855 19.656855 27.000000 18.000000 27.000000 L 18.000000 27.000000 C 16.343145 27.000000 15.000000 25.656855 15.000000 24.000000 L 15.000000 18.000000 C 15.000000 16.343145 16.343145 15.000000 18.000000 15.000000 L 18.000000 15.000000 C 19.656855 15.000000 21.000000 16.343145 21.000000 18.000000 Z" stroke="#231F20" stroke-width="2.000000" stroke-linecap="round" stroke-linejoin="round" fill="none"/><circle cx="16.000000" cy="22.000000" r="1.000000" stroke="#231F20" stroke-width="2.000000" stroke-linecap="round" stroke-linejoin="round" fill="none"/></g></svg>