<svg version="1.1" viewBox="0.000000 0.000000 48.000000 48.000000" xmlns="http://www.w3.org/2000/svg" xmlns:xlink="http://www.w3.org/1999/xlink" overflow="hidden"><defs></defs><g id="icons"><path d=" M 13.060000 28.540001 L 34.320000 7.230000 C 36.259998 5.290000 44.000000 4.000000 44.000000 4.000000 C 44.000000 4.000000 42.709999 11.740000 40.770000 13.680000 L 19.480000 35.000000 Z" stroke="#231F20" stroke-width="2.000000" stroke-linecap="round" stroke-linejoin="round" fill="none"/><line x1="15.610000" y1="25.960000" x2="22.070000" y2="32.390000" stroke="#231F20" stroke-width="2.000000" stroke-linecap="round" stroke-linejoin="round" fill="none"/><path d=" M 29.160000 25.290001 C 29.160000 26.580000 29.160000 31.740000 28.520000 33.680000 C 27.906277 35.120617 27.027750 36.433319 25.930000 37.549999 L 19.480000 44.000000 L 20.680000 33.770000" stroke="#231F20" stroke-width="2.000000" stroke-linecap="round" stroke-linejoin="round" fill="none"/><path d=" M 22.709999 18.840000 C 21.420000 18.840000 16.200001 18.780001 14.270000 19.430000 C 12.842008 20.057568 11.545823 20.949966 10.450001 22.059999 L 4.000000 28.520000 L 14.320000 27.250000" stroke="#231F20" stroke-width="2.000000" stroke-linecap="round" stroke-linejoin="round" fill="none"/><path d=" M 15.610000 35.000000 C 16.900000 36.290001 16.360001 38.119999 14.970000 39.509998 C 13.190000 41.290001 4.640000 43.410000 4.640000 43.410000 C 4.640000 43.410000 6.730000 34.810001 8.520000 33.000000 C 9.930000 31.580000 11.740000 31.070000 13.030000 32.360001" stroke="#231F20" stroke-width="2.000000" stroke-linecap="round" stroke-linejoin="round" fill="none"/></g></svg>