<svg version="1.1" viewBox="0.000000 0.000000 48.000000 48.000000" xmlns="http://www.w3.org/2000/svg" xmlns:xlink="http://www.w3.org/1999/xlink" overflow="hidden"><defs></defs><g id="icons"><circle cx="35.000000" cy="35.000000" r="12.000000" stroke="#231F20" stroke-width="2.000000" stroke-miterlimit="10.000000" fill="none"/><path d=" M 41.549999 31.730000 L 33.910000 40.099998 L 28.450001 34.639999" stroke="#231F20" stroke-width="2.000000" stroke-linecap="round" stroke-miterlimit="10.000000" fill="none"/><path d=" M 20.000000 43.000000 L 5.000000 43.000000 C 2.790861 43.000000 1.000000 41.209141 1.000000 39.000000 L 1.000000 7.000000 L 9.000000 7.000000" stroke="#231F20" stroke-width="2.000000" stroke-linecap="round" stroke-linejoin="round" fill="none"/><path d=" M 19.000000 39.000000 L 5.000000 39.000000 L 5.000000 11.000000 L 9.000000 11.000000" stroke="#231F20" stroke-width="2.000000" stroke-linecap="round" stroke-linejoin="round" fill="none"/><path d=" M 33.000000 19.000000 L 33.000000 7.000000 L 25.000000 7.000000" stroke="#231F20" stroke-width="2.000000" stroke-linecap="round" stroke-linejoin="round" fill="none"/><path d=" M 21.000000 5.000000 C 21.101871 2.892733 19.476179 1.101872 17.368912 1.000000 C 17.246014 0.994059 17.122898 0.994059 17.000000 1.000000 C 14.892734 0.898128 13.101872 2.523821 13.000000 4.631088 C 12.994059 4.753987 12.994059 4.877101 13.000000 5.000000 L 9.000000 5.000000 L 9.000000 13.000000 L 25.000000 13.000000 L 25.000000 5.000000 Z" stroke="#231F20" stroke-width="2.000000" stroke-linecap="round" stroke-linejoin="round" fill="none"/><path d=" M 25.000000 11.000000 L 29.000000 11.000000 L 29.000000 19.000000" stroke="#231F20" stroke-width="2.000000" stroke-linecap="round" stroke-linejoin="round" fill="none"/><line x1="11.000000" y1="19.000000" x2="21.000000" y2="19.000000" stroke="#231F20" stroke-width="2.000000" stroke-linecap="round" stroke-linejoin="round" fill="none"/><line x1="11.000000" y1="23.000000" x2="21.000000" y2="23.000000" stroke="#231F20" stroke-width="2.000000" stroke-linecap="round" stroke-linejoin="round" fill="none"/><line x1="11.000000" y1="27.000000" x2="21.000000" y2="27.000000" stroke="#231F20" stroke-width="2.000000" stroke-linecap="round" stroke-linejoin="round" fill="none"/><line x1="11.000000" y1="31.000000" x2="17.000000" y2="31.000000" stroke="#231F20" stroke-width="2.000000" stroke-linecap="round" stroke-linejoin="round" fill="none"/></g></svg>