<svg version="1.1" viewBox="0.000000 0.000000 48.000000 48.000000" xmlns="http://www.w3.org/2000/svg" xmlns:xlink="http://www.w3.org/1999/xlink" overflow="hidden"><defs></defs><g id="icons"><path d=" M 29.000000 3.000000 L 9.000000 3.000000 C 4.581722 3.000000 1.000000 6.581722 1.000000 11.000000 L 1.000000 19.000000 C 1.000000 23.418278 4.581722 27.000000 9.000000 27.000000 L 12.000000 27.000000 L 12.000000 35.000000 L 20.000000 27.000000 L 29.000000 27.000000 C 33.418278 27.000000 37.000000 23.418278 37.000000 19.000000 L 37.000000 11.000000 C 37.000000 6.581722 33.418278 3.000000 29.000000 3.000000 Z" stroke="#231F20" stroke-width="2.000000" stroke-linejoin="round" fill="none"/><path d=" M 23.000000 34.000000 C 23.000000 36.761425 25.238577 39.000000 28.000000 39.000000 L 33.000000 39.000000 L 39.000000 45.000000 L 39.000000 39.000000 L 42.000000 39.000000 C 44.761425 39.000000 47.000000 36.761425 47.000000 34.000000 L 47.000000 30.000000 C 47.000000 27.238577 44.761425 25.000000 42.000000 25.000000" stroke="#231F20" stroke-width="2.000000" stroke-linejoin="round" fill="none"/></g></svg>