<svg version="1.1" viewBox="0.000000 0.000000 48.000000 48.000000" xmlns="http://www.w3.org/2000/svg" xmlns:xlink="http://www.w3.org/1999/xlink" overflow="hidden"><defs></defs><g id="icons"><path d=" M 38.000000 46.930000 C 38.000000 46.930000 47.000000 41.930000 47.000000 33.930000 C 47.000000 27.930000 40.000000 27.930000 38.000000 33.930000 C 36.000000 27.930000 29.000000 27.930000 29.000000 34.410000 C 29.000000 41.930000 38.000000 46.930000 38.000000 46.930000 Z" stroke="#231F20" stroke-width="2.000000" stroke-linejoin="round" fill="none"/><path d=" M 28.930000 26.639999 C 27.241282 26.210390 25.592039 25.638342 24.000000 24.930000 L 24.000000 19.930000 C 24.000000 19.930000 27.000000 18.690001 27.000000 13.930000 C 28.000000 13.930000 28.000000 9.790000 27.000000 9.790000 C 27.000000 9.320000 28.430000 6.570000 27.770000 3.930000 C 26.830000 0.120000 15.830000 0.120000 14.890000 3.930000 C 10.150000 3.000000 13.000000 9.290000 13.000000 9.930000 C 11.000000 9.930000 11.000000 13.930000 13.000000 13.930000 C 13.000000 18.690001 16.000000 19.930000 16.000000 19.930000 L 16.000000 24.930000 C 10.000000 27.040001 3.600000 28.440001 2.770000 30.930000 C 2.022190 33.559288 1.431150 36.230652 1.000000 38.930000 L 23.000000 38.930000" stroke="#231F20" stroke-width="2.000000" stroke-linejoin="round" fill="none"/></g></svg>