<svg version="1.1" viewBox="0.000000 0.000000 48.000000 48.000000" xmlns="http://www.w3.org/2000/svg" xmlns:xlink="http://www.w3.org/1999/xlink" overflow="hidden"><defs></defs><g id="icons"><path d=" M 37.000000 20.500000 C 34.313660 20.500383 31.740438 21.581568 29.860001 23.500000 L 18.129999 23.500000 C 14.264006 19.555899 7.932673 19.492579 3.988571 23.358572 C 0.044469 27.224566 -0.018851 33.555897 3.847142 37.500000 C 7.713135 41.444103 14.044469 41.507423 17.988571 37.641430 C 18.036184 37.594761 18.083330 37.547615 18.129999 37.500000 L 29.860001 37.500000 C 33.725994 41.444103 40.057327 41.507423 44.001431 37.641430 C 47.945534 33.775436 48.008854 27.444103 44.142860 23.500002 C 42.261726 21.580862 39.687336 20.499619 37.000004 20.500002 Z" stroke="#231F20" stroke-width="2.000000" stroke-linecap="round" stroke-linejoin="round" fill="none"/><circle cx="37.000000" cy="26.500000" r="1.000000" stroke="#231F20" stroke-width="2.000000" stroke-linecap="round" stroke-linejoin="round" fill="none"/><circle cx="41.000000" cy="30.500000" r="1.000000" stroke="#231F20" stroke-width="2.000000" stroke-linecap="round" stroke-linejoin="round" fill="none"/><path d=" M 33.709999 31.209999 C 33.317879 31.598919 32.684719 31.596323 32.295799 31.204201 C 31.906879 30.812078 31.909475 30.178919 32.301598 29.789999 C 32.691448 29.403332 33.320152 29.403332 33.709999 29.789999 C 34.102119 30.178919 34.104717 30.812078 33.715797 31.204201 C 33.713871 31.206141 33.711941 31.208075 33.709999 31.209999 Z" stroke="#231F20" stroke-width="2.000000" stroke-linecap="round" stroke-linejoin="round" fill="none"/><circle cx="37.000000" cy="34.500000" r="1.000000" stroke="#231F20" stroke-width="2.000000" stroke-linecap="round" stroke-linejoin="round" fill="none"/><line x1="11.000000" y1="25.500000" x2="11.000000" y2="33.500000" stroke="#231F20" stroke-width="2.000000" stroke-linecap="round" stroke-linejoin="round" fill="none"/><line x1="15.000000" y1="29.500000" x2="7.000000" y2="29.500000" stroke="#231F20" stroke-width="2.000000" stroke-linecap="round" stroke-linejoin="round" fill="none"/><line x1="20.000000" y1="33.500000" x2="22.000000" y2="33.500000" stroke="#231F20" stroke-width="2.000000" stroke-linecap="round" stroke-linejoin="round" fill="none"/><line x1="26.000000" y1="33.500000" x2="28.000000" y2="33.500000" stroke="#231F20" stroke-width="2.000000" stroke-linecap="round" stroke-linejoin="round" fill="none"/><rect x="21.000000" y="19.500000" width="6.000000" height="4.000000" stroke="#231F20" stroke-width="2.000000" stroke-linecap="round" stroke-linejoin="round" fill="none"/><path d=" M 24.000000 19.500000 L 24.000000 13.500000 C 24.000000 10.186292 21.313709 7.500000 18.000000 7.500000 L 12.000000 7.500000" stroke="#231F20" stroke-width="2.000000" stroke-linecap="round" stroke-linejoin="round" fill="none"/></g></svg>