<svg version="1.1" viewBox="0.000000 0.000000 48.000000 48.000000" xmlns="http://www.w3.org/2000/svg" xmlns:xlink="http://www.w3.org/1999/xlink" overflow="hidden"><defs></defs><g id="icons"><path d=" M 11.000000 1.000000 L 17.000000 6.000000 L 17.000000 19.000000 L 11.000000 14.000000 L 11.000000 1.000000 Z" stroke="#231F20" stroke-width="2.000000" stroke-linecap="round" stroke-linejoin="round" fill="none"/><path d=" M 37.000000 1.000000 L 31.000000 6.000000 L 31.000000 19.000000 L 37.000000 14.000000 L 37.000000 1.000000 Z" stroke="#231F20" stroke-width="2.000000" stroke-linecap="round" stroke-linejoin="round" fill="none"/><line x1="24.000000" y1="1.000000" x2="24.000000" y2="20.000000" stroke="#231F20" stroke-width="2.000000" stroke-linecap="round" stroke-linejoin="round" fill="none"/><path d=" M 24.000000 9.000000 C 20.129999 9.000000 17.000000 10.790000 17.000000 13.000000 L 17.000000 38.000000 C 17.000000 41.869999 24.000000 47.000000 24.000000 47.000000 C 24.000000 47.000000 31.000000 41.869999 31.000000 38.000000 L 31.000000 13.000000 C 31.000000 10.790000 27.870001 9.000000 24.000000 9.000000 Z" stroke="#231F20" stroke-width="2.000000" stroke-linecap="round" stroke-linejoin="round" fill="none"/><path d=" M 28.309999 43.099998 C 27.019398 42.279068 25.529140 41.826115 24.000000 41.789997 C 22.470860 41.826111 20.980602 42.279068 19.690001 43.099998" stroke="#231F20" stroke-width="2.000000" stroke-linecap="round" stroke-linejoin="round" fill="none"/></g></svg>