<svg version="1.1" viewBox="0.000000 0.000000 48.000000 48.000000" xmlns="http://www.w3.org/2000/svg" xmlns:xlink="http://www.w3.org/1999/xlink" overflow="hidden"><defs></defs><g id="icons"><path d=" M 12.000000 19.299999 L 12.000000 20.870001 C 10.000000 21.650000 11.000000 25.570000 14.000000 25.570000 C 14.000000 30.260000 21.000000 33.389999 24.000000 33.389999" stroke="#231F20" stroke-width="1.770000" stroke-linecap="round" stroke-miterlimit="10.000000" fill="none"/><path d=" M 36.000000 19.299999 L 36.000000 20.870001 C 38.000000 21.650000 37.000000 25.570000 34.000000 25.570000 C 34.000000 30.260000 27.000000 33.389999 24.000000 33.389999" stroke="#231F20" stroke-width="1.770000" stroke-linecap="round" stroke-miterlimit="10.000000" fill="none"/><path d=" M 36.000000 19.299999 C 36.000000 19.299999 32.000000 17.740000 24.000000 17.740000 C 16.000000 17.740000 12.000000 19.299999 12.000000 19.299999" stroke="#231F20" stroke-width="1.770000" stroke-miterlimit="10.000000" fill="none"/><path d=" M 12.000000 16.170000 L 12.000000 7.570000 L 18.000000 10.700000 L 24.000000 6.000000 L 30.000000 10.700000 L 36.000000 7.570000 L 36.000000 16.170000" stroke="#231F20" stroke-width="1.770000" stroke-linecap="round" stroke-linejoin="round" fill="none"/><line x1="12.000000" y1="15.390000" x2="12.000000" y2="19.300000" stroke="#231F20" stroke-width="1.770000" stroke-linecap="round" stroke-miterlimit="10.000000" fill="none"/><line x1="36.000000" y1="15.390000" x2="36.000000" y2="19.300000" stroke="#231F20" stroke-width="1.770000" stroke-linecap="round" stroke-miterlimit="10.000000" fill="none"/><path d=" M 18.000000 31.430000 L 6.190000 34.169998 C 3.216468 35.256359 1.175507 38.009102 1.000000 41.169998 L 1.000000 42.000000 L 47.000000 42.000000 L 47.000000 41.220001 C 46.824493 38.059105 44.783531 35.306362 41.810001 34.220001 L 30.000000 31.430000" stroke="#231F20" stroke-width="1.770000" stroke-linecap="round" stroke-miterlimit="10.000000" fill="none"/><path d=" M 18.000000 21.650000 C 18.000000 20.790001 18.900000 20.870001 20.000000 20.870001 C 21.100000 20.870001 22.000000 20.790001 22.000000 21.650000" stroke="#231F20" stroke-width="1.770000" stroke-linecap="round" stroke-miterlimit="10.000000" fill="none"/><path d=" M 26.000000 21.650000 C 26.000000 20.790001 26.900000 20.870001 28.000000 20.870001 C 29.100000 20.870001 30.000000 20.790001 30.000000 21.650000" stroke="#231F20" stroke-width="1.770000" stroke-linecap="round" stroke-miterlimit="10.000000" fill="none"/><ellipse cx="24.000000" cy="38.090000" rx="3.000000" ry="2.350000" stroke="#231F20" stroke-width="1.770000" stroke-linecap="round" stroke-miterlimit="10.000000" fill="none"/><line x1="21.100000" y1="37.500000" x2="13.660000" y2="32.440000" stroke="#231F20" stroke-width="1.770000" stroke-linecap="round" stroke-miterlimit="10.000000" fill="none"/><line x1="26.830000" y1="37.300000" x2="34.340000" y2="32.440000" stroke="#231F20" stroke-width="1.770000" stroke-linecap="round" stroke-miterlimit="10.000000" fill="none"/></g></svg>