<svg version="1.1" viewBox="0.000000 0.000000 48.000000 48.000000" xmlns="http://www.w3.org/2000/svg" xmlns:xlink="http://www.w3.org/1999/xlink" overflow="hidden"><defs></defs><g id="icons"><path d=" M 2.620000 3.610000 L 29.180000 10.150000 C 32.519852 11.130091 34.861866 14.132054 35.000000 17.609999 L 35.000000 41.610001 C 35.148598 44.118500 33.235519 46.272499 30.727022 46.421101 C 30.198122 46.452431 29.667812 46.391144 29.160000 46.240002 L 6.840000 41.000000 C 3.495818 40.065140 1.136559 37.079708 1.000000 33.610001 L 1.000000 7.610000 C 1.000000 4.296292 3.686291 1.610000 7.000000 1.610000 L 41.000000 1.610000 C 44.313709 1.610000 47.000000 4.296291 47.000000 7.610000 L 47.000000 29.610001 C 47.000000 32.923710 44.313709 35.610001 41.000000 35.610001 L 35.000000 35.610001" stroke="#231F20" stroke-width="2.000000" stroke-linecap="round" stroke-linejoin="round" fill="none"/><line x1="19.000000" y1="7.610000" x2="39.000000" y2="7.610000" stroke="#231F20" stroke-width="2.000000" stroke-linecap="round" stroke-linejoin="round" fill="none"/><circle cx="26.000000" cy="27.610000" r="4.000000" stroke="#231F20" stroke-width="2.000000" stroke-linecap="round" stroke-linejoin="round" fill="none"/><line x1="35.000000" y1="17.610000" x2="39.000000" y2="17.610000" stroke="#231F20" stroke-width="2.000000" stroke-linecap="round" stroke-linejoin="round" fill="none"/></g></svg>