<svg version="1.1" viewBox="0.000000 0.000000 48.000000 48.000000" xmlns="http://www.w3.org/2000/svg" xmlns:xlink="http://www.w3.org/1999/xlink" overflow="hidden"><defs></defs><g id="icons"><rect x="5.000000" y="10.000000" rx="4.000000" ry="4.000000" width="38.000000" height="28.000000" stroke="#231F20" stroke-width="2.000000" stroke-linecap="round" stroke-linejoin="round" fill="none"/><line x1="5.000000" y1="16.000000" x2="43.000000" y2="16.000000" stroke="#231F20" stroke-width="2.000000" stroke-linecap="round" stroke-linejoin="round" fill="none"/><path d=" M 10.000000 12.000000 C 9.447715 12.000000 9.000000 12.447715 9.000000 13.000000 C 9.000000 13.552285 9.447715 14.000000 10.000000 14.000000 C 10.552285 14.000000 11.000000 13.552285 11.000000 13.000000 C 11.000000 12.447715 10.552285 12.000000 10.000000 12.000000 Z" fill="#231F20"/><path d=" M 14.000000 12.000000 C 13.447715 12.000000 13.000000 12.447715 13.000000 13.000000 C 13.000000 13.552285 13.447715 14.000000 14.000000 14.000000 C 14.552285 14.000000 15.000000 13.552285 15.000000 13.000000 C 15.000000 12.447715 14.552285 12.000000 14.000000 12.000000 Z" fill="#231F20"/><path d=" M 18.000000 12.000000 C 17.447716 12.000000 17.000000 12.447715 17.000000 13.000000 C 17.000000 13.552285 17.447716 14.000000 18.000000 14.000000 C 18.552284 14.000000 19.000000 13.552285 19.000000 13.000000 C 19.000000 12.447715 18.552284 12.000000 18.000000 12.000000 Z" fill="#231F20"/></g></svg>