<svg version="1.1" viewBox="0.000000 0.000000 48.000000 48.000000" xmlns="http://www.w3.org/2000/svg" xmlns:xlink="http://www.w3.org/1999/xlink" overflow="hidden"><defs></defs><g id="icons"><path d=" M 9.860000 20.860001 C 17.669996 13.052361 30.330002 13.052361 38.139999 20.860001" stroke="#231F20" stroke-width="2.000000" stroke-miterlimit="10.000000" fill="none"/><path d=" M 43.799999 13.200000 C 32.865875 2.264762 15.137258 2.263857 4.202020 13.197980 C 4.201346 13.198653 4.200673 13.199327 4.199999 13.200000" stroke="#231F20" stroke-width="2.000000" stroke-miterlimit="10.000000" fill="none"/><path d=" M 15.510000 28.510000 C 20.188148 23.815580 27.786118 23.802389 32.480537 28.480537 C 32.490376 28.490341 32.500195 28.500162 32.510002 28.510000" stroke="#231F20" stroke-width="2.000000" stroke-miterlimit="10.000000" fill="none"/><path d=" M 38.139999 20.860001 C 30.330002 13.052361 17.669996 13.052361 9.860000 20.860001" stroke="#231F20" stroke-width="2.000000" stroke-miterlimit="10.000000" fill="none"/><path d=" M 32.490002 28.510000 C 27.811853 23.815580 20.213884 23.802389 15.519464 28.480537 C 15.509626 28.490341 15.499805 28.500162 15.490002 28.510000" stroke="#231F20" stroke-width="2.000000" stroke-miterlimit="10.000000" fill="none"/><circle cx="24.000000" cy="39.000000" r="4.000000" stroke="#231F20" stroke-width="2.000000" stroke-miterlimit="10.000000" fill="none"/></g></svg>