<svg version="1.1" viewBox="0.000000 0.000000 48.000000 48.000000" xmlns="http://www.w3.org/2000/svg" xmlns:xlink="http://www.w3.org/1999/xlink" overflow="hidden"><defs></defs><g id="icons"><path d=" M 24.000000 41.000000 C 24.000000 37.000000 26.000000 35.000000 30.000000 35.000000 L 42.000000 35.000000 L 42.000000 3.000000 L 30.000000 3.000000 C 26.000000 3.000000 24.000000 5.000000 24.000000 9.000000 C 24.000000 5.000000 22.000000 3.000000 18.000000 3.000000 L 6.000000 3.000000 L 6.000000 35.000000 L 18.000000 35.000000 C 22.000000 35.000000 24.000000 37.000000 24.000000 41.000000 Z" stroke="#231F20" stroke-width="2.000000" stroke-linecap="round" stroke-linejoin="round" fill="none"/><path d=" M 42.000000 7.000000 L 46.000000 7.000000 L 46.000000 39.000000 L 34.000000 39.000000 C 30.000000 39.000000 27.000000 41.000000 27.000000 45.000000 L 21.000000 45.000000 C 21.000000 41.000000 18.000000 39.000000 14.000000 39.000000 L 2.000000 39.000000 L 2.000000 7.000000 L 6.000000 7.000000" stroke="#231F20" stroke-width="2.000000" stroke-linecap="round" stroke-linejoin="round" fill="none"/><line x1="24.000000" y1="9.000000" x2="24.000000" y2="40.000000" stroke="#231F20" stroke-width="2.000000" stroke-linecap="round" stroke-linejoin="round" fill="none"/></g></svg>