<svg version="1.1" viewBox="0.000000 0.000000 48.000000 48.000000" xmlns="http://www.w3.org/2000/svg" xmlns:xlink="http://www.w3.org/1999/xlink" overflow="hidden"><defs></defs><g id="icons"><rect x="1.000000" y="3.000000" rx="2.000000" ry="2.000000" width="46.000000" height="40.000000" stroke="#231F20" stroke-width="2.000000" stroke-linecap="round" stroke-linejoin="round" fill="none"/><path d=" M 37.430000 17.480000 C 37.546078 19.918337 35.663517 21.989100 33.225178 22.105179 C 30.786840 22.221258 28.716078 20.338694 28.599998 17.900358 C 28.593332 17.760319 28.593332 17.620041 28.599998 17.480001 C 28.483919 15.041664 30.366484 12.970901 32.804821 12.854823 C 35.243156 12.738745 37.313923 14.621307 37.430000 17.059645 C 37.436668 17.199684 37.436668 17.339962 37.430000 17.480001 Z" stroke="#231F20" stroke-width="2.000000" stroke-linecap="round" stroke-miterlimit="10.000000" fill="none"/><path d=" M 33.000000 16.000000 C 32.182636 15.994495 31.515572 16.652637 31.510067 17.469999 C 31.504562 18.287363 32.162704 18.954428 32.980068 18.959932 C 33.797432 18.965437 34.464497 18.307295 34.470001 17.489933 C 34.470047 17.483290 34.470047 17.476645 34.470001 17.469999 C 34.470001 16.658140 33.811859 15.999999 33.000000 15.999999 Z" fill="#231F20"/><path d=" M 30.000000 25.000000 L 28.000000 25.000000 L 28.000000 27.000000 L 30.000000 27.000000 L 30.000000 25.000000 L 30.000000 25.000000 Z" fill="#231F20"/><path d=" M 34.000000 25.000000 L 32.000000 25.000000 L 32.000000 27.000000 L 34.000000 27.000000 L 34.000000 25.000000 L 34.000000 25.000000 Z" fill="#231F20"/><path d=" M 38.000000 25.000000 L 36.000000 25.000000 L 36.000000 27.000000 L 38.000000 27.000000 L 38.000000 25.000000 L 38.000000 25.000000 Z" fill="#231F20"/><path d=" M 30.000000 28.000000 L 28.000000 28.000000 L 28.000000 30.000000 L 30.000000 30.000000 L 30.000000 28.000000 L 30.000000 28.000000 Z" fill="#231F20"/><path d=" M 34.000000 28.000000 L 32.000000 28.000000 L 32.000000 30.000000 L 34.000000 30.000000 L 34.000000 28.000000 L 34.000000 28.000000 Z" fill="#231F20"/><path d=" M 38.000000 28.000000 L 36.000000 28.000000 L 36.000000 30.000000 L 38.000000 30.000000 L 38.000000 28.000000 L 38.000000 28.000000 Z" fill="#231F20"/><path d=" M 30.000000 31.000000 L 28.000000 31.000000 L 28.000000 33.000000 L 30.000000 33.000000 L 30.000000 31.000000 L 30.000000 31.000000 Z" fill="#231F20"/><path d=" M 34.000000 31.000000 L 32.000000 31.000000 L 32.000000 33.000000 L 34.000000 33.000000 L 34.000000 31.000000 L 34.000000 31.000000 Z" fill="#231F20"/><path d=" M 38.000000 31.000000 L 36.000000 31.000000 L 36.000000 33.000000 L 38.000000 33.000000 L 38.000000 31.000000 L 38.000000 31.000000 Z" fill="#231F20"/><rect x="6.000000" y="9.000000" rx="2.000000" ry="2.000000" width="37.000000" height="28.000000" stroke="#231F20" stroke-width="2.000000" stroke-linecap="round" stroke-linejoin="round" fill="none"/><rect x="5.000000" y="16.000000" width="2.000000" height="2.000000" stroke="#231F20" stroke-width="2.000000" stroke-linecap="round" stroke-linejoin="round" fill="none"/><rect x="5.000000" y="28.000000" width="2.000000" height="2.000000" stroke="#231F20" stroke-width="2.000000" stroke-linecap="round" stroke-linejoin="round" fill="none"/><path d=" M 6.000000 43.000000 L 6.000000 45.000000 L 9.000000 45.000000 L 9.000000 43.000000" stroke="#231F20" stroke-width="2.000000" stroke-linecap="round" stroke-linejoin="round" fill="none"/><path d=" M 39.000000 43.000000 L 39.000000 45.000000 L 42.000000 45.000000 L 42.000000 43.000000" stroke="#231F20" stroke-width="2.000000" stroke-linecap="round" stroke-linejoin="round" fill="none"/></g></svg>