<svg version="1.1" viewBox="0.000000 0.000000 48.000000 48.000000" xmlns="http://www.w3.org/2000/svg" xmlns:xlink="http://www.w3.org/1999/xlink" overflow="hidden"><defs></defs><g id="icons"><circle cx="17.020000" cy="31.000000" r="6.000000" stroke="#231F20" stroke-width="2.000000" stroke-linejoin="round" fill="none"/><circle cx="38.020000" cy="10.000000" r="3.000000" stroke="#231F20" stroke-width="2.000000" stroke-linejoin="round" fill="none"/><path d=" M 30.000000 31.000000 C 30.000158 30.085609 29.902943 29.173801 29.709999 28.280001 L 32.860001 26.459999 L 28.860001 19.540001 L 25.770000 21.360001 C 24.478485 20.078121 22.886852 19.139643 21.140001 18.630001 L 21.139999 15.000000 L 13.140000 15.000000 L 13.140000 18.629999 C 11.354575 19.145481 9.718825 20.081665 8.370000 21.359999 L 5.200000 19.540001 L 1.200000 26.459999 L 4.340000 28.280001 C 4.130235 29.171991 4.016256 30.083820 4.000000 31.000000 C 4.001515 31.913782 4.095325 32.825073 4.280000 33.720001 L 1.170000 35.540001 L 5.170000 42.459999 L 8.390000 40.639999 C 9.736224 41.921825 11.372880 42.858528 13.160001 43.369999 L 13.160000 47.000000 L 21.160000 47.000000 L 21.160000 43.369999 C 22.906851 42.860355 24.498486 41.921879 25.789999 40.639999 L 28.910000 42.459999 L 32.910000 35.540001 L 29.760000 33.720001 C 29.936228 32.824409 30.016680 31.912613 30.000000 31.000002 Z" stroke="#231F20" stroke-width="2.000000" stroke-linejoin="round" fill="none"/><path d=" M 45.000000 10.000000 C 44.998409 9.454535 44.934662 8.911030 44.810001 8.380000 L 46.810001 7.230000 L 44.810001 3.770000 L 42.900002 4.920000 C 42.120155 4.178467 41.183807 3.621441 40.160000 3.290000 L 40.160000 1.000000 L 36.160000 1.000000 L 36.160000 3.290000 C 35.096634 3.619207 34.117416 4.175348 33.290001 4.920000 L 31.290001 3.770000 L 29.290001 7.230000 L 31.290001 8.380000 C 31.126730 8.905933 31.029320 9.450088 31.000000 10.000000 C 31.001593 10.545465 31.065336 11.088970 31.190001 11.620000 L 29.190001 12.770000 L 31.190001 16.230000 L 33.250000 15.080000 C 34.076092 15.826485 35.055737 16.382868 36.119999 16.709999 L 36.119999 19.000000 L 40.119999 19.000000 L 40.119999 16.709999 C 41.143803 16.378557 42.080154 15.821532 42.860001 15.079999 L 44.860001 16.230000 L 46.860001 12.770000 L 44.860001 11.620000 C 44.967861 11.087044 45.014828 10.543559 45.000000 10.000000 Z" stroke="#231F20" stroke-width="2.000000" stroke-linejoin="round" fill="none"/></g></svg>