<svg version="1.1" viewBox="0.000000 0.000000 48.000000 48.000000" xmlns="http://www.w3.org/2000/svg" xmlns:xlink="http://www.w3.org/1999/xlink" overflow="hidden"><defs></defs><g id="icons"><path d=" M 41.000000 47.000000 L 7.000000 47.000000 L 3.000000 25.000000 L 45.000000 25.000000 L 41.000000 47.000000 Z" stroke="#231F20" stroke-width="2.000000" stroke-linecap="round" stroke-linejoin="round" fill="none"/><path d=" M 17.000000 3.000000 C 11.157936 3.000922 6.099607 7.057561 4.830000 12.760000 L 3.000000 21.000000 L 45.000000 21.000000 L 43.169998 12.760000 C 41.900391 7.057561 36.842064 3.000922 30.999998 3.000000" stroke="#231F20" stroke-width="2.000000" stroke-linecap="round" stroke-linejoin="round" fill="none"/><rect x="1.000000" y="21.000000" width="46.000000" height="4.000000" stroke="#231F20" stroke-width="2.000000" stroke-linecap="round" stroke-linejoin="round" fill="none"/><line x1="29.000000" y1="29.000000" x2="29.000000" y2="41.000000" stroke="#231F20" stroke-width="2.000000" stroke-linecap="round" stroke-linejoin="round" fill="none"/><line x1="37.000000" y1="29.000000" x2="37.000000" y2="41.000000" stroke="#231F20" stroke-width="2.000000" stroke-linecap="round" stroke-linejoin="round" fill="none"/><line x1="19.000000" y1="29.000000" x2="19.000000" y2="41.000000" stroke="#231F20" stroke-width="2.000000" stroke-linecap="round" stroke-linejoin="round" fill="none"/><line x1="11.000000" y1="29.000000" x2="11.000000" y2="41.000000" stroke="#231F20" stroke-width="2.000000" stroke-linecap="round" stroke-linejoin="round" fill="none"/><path d=" M 31.000000 3.000000 C 31.000000 4.104569 30.104570 5.000000 29.000000 5.000000 L 19.000000 5.000000 C 17.895430 5.000000 17.000000 4.104569 17.000000 3.000000 C 17.000000 1.895430 17.895430 1.000000 19.000000 1.000000 L 29.000000 1.000000 C 30.104570 1.000000 31.000000 1.895430 31.000000 3.000000 Z" stroke="#231F20" stroke-width="2.000000" stroke-linecap="round" stroke-linejoin="round" fill="none"/></g></svg>