<svg version="1.1" viewBox="0.000000 0.000000 48.000000 48.000000" xmlns="http://www.w3.org/2000/svg" xmlns:xlink="http://www.w3.org/1999/xlink" overflow="hidden"><defs></defs><g id="icons"><path d=" M 24.010000 14.010000 L 27.000000 21.000000 L 34.000000 21.000000 L 28.000000 26.000000 L 31.000000 34.000000 L 24.010000 28.700001 L 17.000000 34.000000 L 20.000000 26.000000 L 14.000000 21.000000 L 21.000000 21.000000 L 24.010000 14.010000 Z" stroke="#231F20" stroke-width="2.000000" stroke-linejoin="round" fill="none"/><path d=" M 42.570000 27.690001 L 47.000000 24.000000 L 42.570000 20.309999 L 45.250000 15.200000 L 39.740002 13.480000 L 40.259998 7.740000 L 34.520000 8.260000 L 32.799999 2.750000 L 27.690001 5.430000 L 24.000000 1.000000 L 20.309999 5.430000 L 15.200000 2.750000 L 13.480000 8.260000 L 7.740000 7.740000 L 8.260000 13.480000 L 2.750000 15.200000 L 5.430000 20.309999 L 1.000000 24.000000 L 5.430000 27.690001 L 2.750000 32.799999 L 8.260000 34.520000 L 7.740000 40.259998 L 13.480000 39.740002 L 15.200000 45.250000 L 20.309999 42.570000 L 24.000000 47.000000 L 27.690001 42.570000 L 32.799999 45.250000 L 34.520000 39.740002 L 40.259998 40.259998 L 39.740002 34.520000 L 45.250000 32.799999 Z" stroke="#231F20" stroke-width="2.000000" stroke-linejoin="round" fill="none"/></g></svg>