<svg version="1.1" viewBox="0.000000 0.000000 48.000000 48.000000" xmlns="http://www.w3.org/2000/svg" xmlns:xlink="http://www.w3.org/1999/xlink" overflow="hidden"><defs></defs><g id="icons"><path d=" M 28.000000 19.000000 L 32.000000 19.000000 L 32.000000 27.000000 L 39.680000 19.000000 L 47.000000 19.000000 L 47.000000 1.000000 L 17.000000 1.000000 L 17.000000 9.000000" stroke="#231F20" stroke-width="2.000000" stroke-miterlimit="10.000000" fill="none"/><path d=" M 39.000000 10.000000 L 37.000000 10.000000 L 37.000000 12.000000 L 39.000000 12.000000 L 39.000000 10.000000 L 39.000000 10.000000 Z" fill="#231F20"/><path d=" M 34.000000 10.000000 L 32.000000 10.000000 L 32.000000 12.000000 L 34.000000 12.000000 L 34.000000 10.000000 L 34.000000 10.000000 Z" fill="#231F20"/><path d=" M 29.000000 10.000000 L 27.000000 10.000000 L 27.000000 12.000000 L 29.000000 12.000000 L 29.000000 10.000000 L 29.000000 10.000000 Z" fill="#231F20"/><path d=" M 15.520000 47.000000 L 31.000000 47.000000 L 31.000000 42.000000 C 31.000000 41.000000 25.000000 38.000000 20.000000 36.000000 L 20.000000 32.000000 C 20.000000 32.000000 21.840000 31.299999 21.840000 27.000000 C 23.230000 27.000000 23.760000 23.000000 21.840000 23.000000 C 21.840000 22.580000 23.330000 20.379999 22.730000 18.000000 C 21.730000 14.000000 11.870000 14.000000 10.870000 18.000000 C 6.660000 17.139999 10.010000 22.420000 10.010000 23.000000 C 8.010000 23.000000 8.010000 27.000000 10.010000 27.000000 C 10.010000 31.299999 12.010000 32.000000 12.010000 32.000000 L 12.010000 36.000000 C 7.000000 38.000000 1.000000 41.000000 1.000000 42.000000 L 1.000000 47.000000 Z" stroke="#231F20" stroke-width="2.000000" stroke-linejoin="round" fill="none"/></g></svg>