<svg version="1.1" viewBox="0.000000 0.000000 48.000000 48.000000" xmlns="http://www.w3.org/2000/svg" xmlns:xlink="http://www.w3.org/1999/xlink" overflow="hidden"><defs></defs><g id="icons"><line x1="23.000000" y1="27.000000" x2="23.000000" y2="47.000000" stroke="#231F20" stroke-width="2.000000" stroke-linecap="round" stroke-linejoin="round" fill="none"/><path d=" M 39.000000 11.000000 C 38.228268 11.002294 37.460712 11.113387 36.720001 11.330000 C 35.234432 4.305671 28.335794 -0.184380 21.311464 1.301191 C 17.833132 2.036821 14.807848 4.164922 12.940001 7.190000 C 12.300734 7.065895 11.651198 7.002280 11.000001 7.000000 C 5.477153 7.000000 1.000001 11.477153 1.000001 17.000000 C 1.000001 22.522848 5.477153 27.000000 11.000001 27.000000 C 13.164881 27.007294 15.272473 26.304762 17.000000 25.000000 C 21.871365 28.116768 28.219406 27.622805 32.549999 23.790001 C 35.195507 27.328712 40.208805 28.052797 43.747517 25.407291 C 47.286228 22.761786 48.010311 17.748486 45.364807 14.209775 C 43.863457 12.201521 41.507381 11.013352 39.000000 11.000002 Z" stroke="#231F20" stroke-width="2.000000" stroke-linecap="round" stroke-linejoin="round" fill="none"/><line x1="23.000000" y1="40.000000" x2="27.880000" y2="35.120000" stroke="#231F20" stroke-width="2.000000" stroke-linejoin="round" fill="none"/><circle cx="30.000000" cy="33.000000" r="3.000000" stroke="#231F20" stroke-width="2.000000" stroke-linecap="round" stroke-linejoin="round" fill="none"/></g></svg>