<svg version="1.1" viewBox="0.000000 0.000000 48.000000 48.000000" xmlns="http://www.w3.org/2000/svg" xmlns:xlink="http://www.w3.org/1999/xlink" overflow="hidden"><defs></defs><g id="icons"><path d=" M 33.000000 12.000000 C 25.000000 12.000000 25.000000 9.000000 24.000000 8.000000 C 23.000000 9.000000 23.000000 12.000000 15.000000 12.000000" stroke="#231F20" stroke-width="2.000000" stroke-linecap="round" stroke-linejoin="round" fill="none"/><path d=" M 36.000000 15.000000 L 37.000000 11.000000 C 37.000000 11.000000 38.000000 1.000000 24.000000 1.000000 C 10.000000 1.000000 11.000000 11.000000 11.000000 11.000000 L 12.000000 17.000000 C 10.000000 18.000000 11.000000 23.000000 14.000000 23.000000 C 14.000000 29.000000 21.000000 33.000000 24.000000 33.000000 C 25.907282 32.831173 27.730936 32.139084 29.270000 31.000000" stroke="#231F20" stroke-width="2.000000" stroke-linecap="round" stroke-miterlimit="10.000000" fill="none"/><path d=" M 18.799999 31.000000 L 6.190000 34.509998 C 3.068186 35.681160 1.000106 38.665730 1.000000 42.000000 L 1.000000 47.000000 L 47.000000 47.000000 L 47.000000 42.000000 C 46.999893 38.665733 44.931812 35.681160 41.810001 34.509998 L 29.270000 31.000000" stroke="#231F20" stroke-width="2.000000" stroke-linecap="round" stroke-miterlimit="10.000000" fill="none"/><path d=" M 39.000000 20.809999 L 39.000000 23.000000 C 38.567379 24.835590 36.883301 26.098648 35.000000 26.000000 L 27.000000 26.000000" stroke="#231F20" stroke-width="2.000000" stroke-linecap="round" stroke-miterlimit="10.000000" fill="none"/><path d=" M 41.000000 18.000000 C 41.000000 19.656855 39.656853 21.000000 38.000000 21.000000 L 36.000000 21.000000 L 36.000000 15.000000 L 38.000000 15.000000 C 39.656853 15.000000 41.000000 16.343145 41.000000 18.000000 Z" stroke="#231F20" stroke-width="2.000000" stroke-linecap="round" stroke-linejoin="round" fill="none"/><line x1="27.000000" y1="26.000000" x2="23.000000" y2="26.000000" stroke="#231F20" stroke-width="4.000000" stroke-linecap="round" stroke-miterlimit="10.000000" fill="none"/><path d=" M 18.000000 18.000000 C 18.000000 16.900000 18.900000 17.000000 20.000000 17.000000 C 21.100000 17.000000 22.000000 16.900000 22.000000 18.000000" stroke="#231F20" stroke-width="2.000000" stroke-linecap="round" stroke-miterlimit="10.000000" fill="none"/><path d=" M 26.000000 18.000000 C 26.000000 16.900000 26.900000 17.000000 28.000000 17.000000 C 29.100000 17.000000 30.000000 16.900000 30.000000 18.000000" stroke="#231F20" stroke-width="2.000000" stroke-linecap="round" stroke-miterlimit="10.000000" fill="none"/></g></svg>