<svg version="1.1" viewBox="0.000000 0.000000 48.000000 48.000000" xmlns="http://www.w3.org/2000/svg" xmlns:xlink="http://www.w3.org/1999/xlink" overflow="hidden"><defs></defs><g id="icons"><path d=" M 15.000000 20.000000 C 16.562965 18.438772 16.564375 15.906113 15.003146 14.343146 C 15.002098 14.342097 15.001049 14.341048 15.000000 14.340000 L 10.760000 10.100000 C 9.198772 8.537035 6.666113 8.535625 5.103147 10.096854 C 5.102098 10.097902 5.101048 10.098951 5.100000 10.100000 L 2.760000 12.450000 C 0.745380 14.466618 0.427721 17.622316 2.000000 20.000000 C 8.849948 30.310648 17.689352 39.150051 28.000000 46.000000 C 30.375385 47.574875 33.530869 47.261417 35.549999 45.250000 L 37.880001 42.919998 C 39.442966 41.358768 39.444374 38.826111 37.883148 37.263145 C 37.882099 37.262096 37.881050 37.261047 37.880001 37.259998 L 33.630001 33.000000 C 32.071026 31.455721 29.558977 31.455721 28.000002 33.000000 L 26.590000 34.410000 C 21.846231 30.507519 17.492481 26.153769 13.590000 21.410000 Z" stroke="#231F20" stroke-width="2.000000" stroke-linecap="round" stroke-linejoin="round" fill="none"/><circle cx="35.000000" cy="13.000000" r="12.000000" stroke="#231F20" stroke-width="2.000000" stroke-miterlimit="10.000000" fill="none"/><line x1="29.550000" y1="13.000000" x2="40.450000" y2="13.000000" stroke="#231F20" stroke-width="2.000000" stroke-linecap="round" stroke-miterlimit="10.000000" fill="none"/></g></svg>