<svg version="1.1" viewBox="0.000000 0.000000 48.000000 48.000000" xmlns="http://www.w3.org/2000/svg" xmlns:xlink="http://www.w3.org/1999/xlink" overflow="hidden"><defs></defs><g id="icons"><path d=" M 31.000000 24.059999 C 30.966864 27.925850 27.806108 31.032879 23.940258 30.999743 C 20.074408 30.966606 16.967379 27.805851 17.000515 23.940001 C 17.033451 20.097660 20.157518 17.000141 24.000000 17.000000 C 27.865993 16.999859 31.000114 20.133749 31.000257 23.999743 C 31.000257 24.019829 31.000172 24.039915 31.000000 24.059999 Z" stroke="#231F20" stroke-width="2.000000" stroke-linecap="round" stroke-miterlimit="10.000000" fill="none"/><path d=" M 30.790001 36.130001 C 28.626064 37.359768 26.178963 38.004288 23.690001 38.000000 C 15.958014 38.022091 9.672091 31.771986 9.650001 24.040001 C 9.627909 16.308014 15.878014 10.022092 23.610001 10.000001 C 42.610001 10.000000 41.810001 31.000000 33.810001 31.000000 C 30.809999 31.000000 31.000000 29.000000 31.000000 28.000000 L 31.000000 18.000000" stroke="#231F20" stroke-width="2.000000" stroke-linecap="round" stroke-miterlimit="10.000000" fill="none"/><path d=" M 1.000000 9.000000 L 2.000000 9.000000 C 3.656854 9.000000 5.000000 10.343145 5.000000 12.000000 C 5.000000 13.656855 3.656854 15.000000 2.000000 15.000000 L 1.000000 15.000000 L 1.000000 21.000000 L 2.000000 21.000000 C 3.656854 21.000000 5.000000 22.343145 5.000000 24.000000 C 5.000000 25.656855 3.656854 27.000000 2.000000 27.000000 L 1.000000 27.000000 L 1.000000 33.000000 L 2.000000 33.000000 C 3.656854 33.000000 5.000000 34.343147 5.000000 36.000000 C 5.000000 37.656853 3.656854 39.000000 2.000000 39.000000 L 1.000000 39.000000 L 1.000000 45.000000 C 1.000000 46.104568 1.895430 47.000000 3.000000 47.000000 L 9.000000 47.000000 L 9.000000 46.000000 C 9.000000 44.343147 10.343145 43.000000 12.000000 43.000000 C 13.656855 43.000000 15.000000 44.343147 15.000000 46.000000 L 15.000000 47.000000 L 21.000000 47.000000 L 21.000000 46.000000 C 21.000000 44.343147 22.343145 43.000000 24.000000 43.000000 C 25.656855 43.000000 27.000000 44.343147 27.000000 46.000000 L 27.000000 47.000000 L 33.000000 47.000000 L 33.000000 46.000000 C 33.000000 44.343147 34.343147 43.000000 36.000000 43.000000 C 37.656853 43.000000 39.000000 44.343147 39.000000 46.000000 L 39.000000 47.000000 L 45.000000 47.000000 C 46.104568 47.000000 47.000000 46.104568 47.000000 45.000000 L 47.000000 39.000000 L 46.000000 39.000000 C 44.343147 39.000000 43.000000 37.656853 43.000000 36.000000 C 43.000000 34.343147 44.343147 33.000000 46.000000 33.000000 L 47.000000 33.000000 L 47.000000 27.000000 L 46.000000 27.000000 C 44.343147 27.000000 43.000000 25.656855 43.000000 24.000000 C 43.000000 22.343145 44.343147 21.000000 46.000000 21.000000 L 47.000000 21.000000 L 47.000000 15.000000 L 46.000000 15.000000 C 44.343147 15.000000 43.000000 13.656855 43.000000 12.000000 C 43.000000 10.343145 44.343147 9.000000 46.000000 9.000000 L 47.000000 9.000000 L 47.000000 3.000000 C 47.000000 1.895430 46.104568 1.000000 45.000000 1.000000 L 39.000000 1.000000 L 39.000000 2.000000 C 39.000000 3.656854 37.656853 5.000000 36.000000 5.000000 C 34.343147 5.000000 33.000000 3.656854 33.000000 2.000000 L 33.000000 1.000000 L 27.000000 1.000000 L 27.000000 2.000000 C 27.000000 3.656854 25.656855 5.000000 24.000000 5.000000 C 22.343145 5.000000 21.000000 3.656854 21.000000 2.000000 L 21.000000 1.000000 L 15.000000 1.000000 L 15.000000 2.000000 C 15.000000 3.656854 13.656855 5.000000 12.000000 5.000000 C 10.343145 5.000000 9.000000 3.656854 9.000000 2.000000 L 9.000000 1.000000 L 3.000000 1.000000 C 1.895430 1.000000 1.000000 1.895430 1.000000 3.000000 Z" stroke="#231F20" stroke-width="2.000000" stroke-linejoin="round" fill="none"/></g></svg>