<svg version="1.1" viewBox="0.000000 0.000000 48.000000 48.000000" xmlns="http://www.w3.org/2000/svg" xmlns:xlink="http://www.w3.org/1999/xlink" overflow="hidden"><defs></defs><g id="icons"><path d=" M 23.000000 29.000000 L 23.000000 43.000000 C 23.000000 45.209141 21.209139 47.000000 19.000000 47.000000 L 5.000000 47.000000 C 2.790861 47.000000 1.000000 45.209141 1.000000 43.000000 L 1.000000 13.000000 C 1.000000 10.790861 2.790861 9.000000 5.000000 9.000000 L 11.000000 9.000000" stroke="#231F20" stroke-width="2.000000" stroke-linecap="round" stroke-miterlimit="10.000000" fill="none"/><line x1="11.000000" y1="17.000000" x2="1.000000" y2="17.000000" stroke="#231F20" stroke-width="2.000000" stroke-linecap="round" stroke-miterlimit="10.000000" fill="none"/><line x1="23.000000" y1="39.000000" x2="1.000000" y2="39.000000" stroke="#231F20" stroke-width="2.000000" stroke-linecap="round" stroke-miterlimit="10.000000" fill="none"/><path d=" M 12.000000 41.000000 C 10.895431 41.000000 10.000000 41.895432 10.000000 43.000000 C 10.000000 44.104568 10.895431 45.000000 12.000000 45.000000 C 13.104569 45.000000 14.000000 44.104568 14.000000 43.000000 C 14.000000 41.895432 13.104569 41.000000 12.000000 41.000000 Z" fill="#231F20"/><line x1="9.000000" y1="13.000000" x2="11.000000" y2="13.000000" stroke="#231F20" stroke-width="2.000000" stroke-linecap="round" stroke-miterlimit="10.000000" fill="none"/><path d=" M 47.000000 16.000000 C 47.000000 17.656855 45.656853 19.000000 44.000000 19.000000 L 33.000000 19.000000 L 27.000000 25.000000 L 27.000000 19.000000 L 20.000000 19.000000 C 18.343145 19.000000 17.000000 17.656855 17.000000 16.000000 L 17.000000 4.000000 C 17.000000 2.343146 18.343145 1.000000 20.000000 1.000000 L 44.000000 1.000000 C 45.656853 1.000000 47.000000 2.343146 47.000000 4.000000 Z" stroke="#231F20" stroke-width="2.000000" stroke-linecap="round" stroke-linejoin="round" fill="none"/><path d=" M 32.000000 9.000000 C 31.447716 9.000000 31.000000 9.447715 31.000000 10.000000 C 31.000000 10.552285 31.447716 11.000000 32.000000 11.000000 C 32.552284 11.000000 33.000000 10.552285 33.000000 10.000000 C 33.000000 9.447715 32.552284 9.000000 32.000000 9.000000 Z" fill="#231F20"/><path d=" M 37.000000 9.000000 C 36.447716 9.000000 36.000000 9.447715 36.000000 10.000000 C 36.000000 10.552285 36.447716 11.000000 37.000000 11.000000 C 37.552284 11.000000 38.000000 10.552285 38.000000 10.000000 C 38.000000 9.447715 37.552284 9.000000 37.000000 9.000000 Z" fill="#231F20"/><path d=" M 27.000000 9.000000 C 26.447716 9.000000 26.000000 9.447715 26.000000 10.000000 C 26.000000 10.552285 26.447716 11.000000 27.000000 11.000000 C 27.552284 11.000000 28.000000 10.552285 28.000000 10.000000 C 28.000000 9.447715 27.552284 9.000000 27.000000 9.000000 Z" fill="#231F20"/></g></svg>