<svg version="1.1" viewBox="0.000000 0.000000 48.000000 48.000000" xmlns="http://www.w3.org/2000/svg" xmlns:xlink="http://www.w3.org/1999/xlink" overflow="hidden"><defs></defs><g id="icons"><path d=" M 9.000000 15.920000 L 9.000000 15.920000 C 7.343146 15.920000 6.000000 14.576855 6.000000 12.920000 C 6.000000 11.263145 7.343146 9.920000 9.000000 9.920000 L 11.000000 9.920000 C 9.343145 9.920000 8.000000 8.576855 8.000000 6.920000 C 8.000000 5.263146 9.343145 3.920000 11.000000 3.920000 L 24.000000 3.920000 C 32.000000 3.920000 30.000000 7.660000 46.000000 7.660000 L 46.000000 25.920000 L 40.000000 25.920000 C 33.000000 25.920000 25.000000 32.230000 25.000000 41.790001 C 25.000000 44.950001 19.000000 45.419998 19.000000 39.419998 C 19.000000 35.419998 21.000000 27.920000 21.000000 27.920000 L 5.000000 27.920000 C 3.343146 27.920000 2.000000 26.576855 2.000000 24.920000 C 2.000000 23.263145 3.343146 21.920000 5.000000 21.920000 L 7.000000 21.920000 C 5.343146 21.920000 4.000000 20.576855 4.000000 18.920000 C 4.000000 17.263145 5.343146 15.920000 7.000000 15.920000 L 9.000000 15.920000" stroke="#231F20" stroke-width="2.000000" stroke-linecap="round" stroke-linejoin="round" fill="none"/></g></svg>