<svg version="1.1" viewBox="0.000000 0.000000 48.000000 48.000000" xmlns="http://www.w3.org/2000/svg" xmlns:xlink="http://www.w3.org/1999/xlink" overflow="hidden"><defs></defs><g id="icons"><line x1="24.000000" y1="33.000000" x2="24.000000" y2="47.000000" stroke="#231F20" stroke-width="2.000000" stroke-linecap="round" stroke-linejoin="round" fill="none"/><line x1="19.000000" y1="47.000000" x2="29.000000" y2="47.000000" stroke="#231F20" stroke-width="2.000000" stroke-linecap="round" stroke-linejoin="round" fill="none"/><line x1="17.000000" y1="13.000000" x2="31.000000" y2="13.000000" stroke="#231F20" stroke-width="2.000000" stroke-linejoin="round" fill="none"/><path d=" M 20.000000 22.000000 C 19.447716 22.000000 19.000000 22.447716 19.000000 23.000000 C 19.000000 23.552284 19.447716 24.000000 20.000000 24.000000 C 20.552284 24.000000 21.000000 23.552284 21.000000 23.000000 C 21.000000 22.447716 20.552284 22.000000 20.000000 22.000000 Z" fill="#231F20"/><path d=" M 22.000000 16.000000 C 21.447716 16.000000 21.000000 16.447716 21.000000 17.000000 C 21.000000 17.552284 21.447716 18.000000 22.000000 18.000000 C 22.552284 18.000000 23.000000 17.552284 23.000000 17.000000 C 23.000000 16.447716 22.552284 16.000000 22.000000 16.000000 Z" fill="#231F20"/><path d=" M 24.000000 27.000000 C 23.447716 27.000000 23.000000 27.447716 23.000000 28.000000 C 23.000000 28.552284 23.447716 29.000000 24.000000 29.000000 C 24.552284 29.000000 25.000000 28.552284 25.000000 28.000000 C 25.000000 27.447716 24.552284 27.000000 24.000000 27.000000 Z" fill="#231F20"/><path d=" M 26.000000 23.000000 C 25.447716 23.000000 25.000000 23.447716 25.000000 24.000000 C 25.000000 24.552284 25.447716 25.000000 26.000000 25.000000 C 26.552284 25.000000 27.000000 24.552284 27.000000 24.000000 C 27.000000 23.447716 26.552284 23.000000 26.000000 23.000000 Z" fill="#231F20"/><path d=" M 28.000000 18.000000 C 27.447716 18.000000 27.000000 18.447716 27.000000 19.000000 C 27.000000 19.552284 27.447716 20.000000 28.000000 20.000000 C 28.552284 20.000000 29.000000 19.552284 29.000000 19.000000 C 29.000000 18.447716 28.552284 18.000000 28.000000 18.000000 Z" fill="#231F20"/><path d=" M 16.000000 25.000000 L 18.000000 1.000000 L 30.000000 1.000000 L 32.000000 25.000000 C 32.000000 29.418278 28.418278 33.000000 24.000000 33.000000 C 19.581722 33.000000 16.000000 29.418278 16.000000 25.000000 Z" stroke="#231F20" stroke-width="2.000000" stroke-linecap="round" stroke-linejoin="round" fill="none"/></g></svg>