<svg version="1.1" viewBox="0.000000 0.000000 48.000000 48.000000" xmlns="http://www.w3.org/2000/svg" xmlns:xlink="http://www.w3.org/1999/xlink" overflow="hidden"><defs></defs><g id="icons"><line x1="1.000000" y1="9.000000" x2="41.000000" y2="9.000000" stroke="#231F20" stroke-width="2.000000" stroke-linecap="round" stroke-linejoin="round" fill="none"/><path d=" M 7.000000 4.000000 C 6.447715 4.000000 6.000000 4.447715 6.000000 5.000000 C 6.000000 5.552285 6.447715 6.000000 7.000000 6.000000 C 7.552285 6.000000 8.000000 5.552285 8.000000 5.000000 C 8.000000 4.447715 7.552285 4.000000 7.000000 4.000000 Z" fill="#231F20"/><path d=" M 11.000000 4.000000 C 10.447715 4.000000 10.000000 4.447715 10.000000 5.000000 C 10.000000 5.552285 10.447715 6.000000 11.000000 6.000000 C 11.552285 6.000000 12.000000 5.552285 12.000000 5.000000 C 12.000000 4.447715 11.552285 4.000000 11.000000 4.000000 Z" fill="#231F20"/><path d=" M 15.000000 4.000000 C 14.447715 4.000000 14.000000 4.447715 14.000000 5.000000 C 14.000000 5.552285 14.447715 6.000000 15.000000 6.000000 C 15.552285 6.000000 16.000000 5.552285 16.000000 5.000000 C 16.000000 4.447715 15.552285 4.000000 15.000000 4.000000 Z" fill="#231F20"/><path d=" M 17.000000 33.000000 L 5.000000 33.000000 C 2.790861 33.000000 1.000000 31.209139 1.000000 29.000000 L 1.000000 5.000000 C 1.000000 2.790861 2.790861 1.000000 5.000000 1.000000 L 37.000000 1.000000 C 39.209141 1.000000 41.000000 2.790861 41.000000 5.000000 L 41.000000 17.000000" stroke="#231F20" stroke-width="2.000000" stroke-linecap="round" stroke-miterlimit="10.000000" fill="none"/><circle cx="35.000000" cy="35.000000" r="12.000000" stroke="#231F20" stroke-width="2.000000" stroke-miterlimit="10.000000" fill="none"/><line x1="30.050000" y1="39.950000" x2="39.950000" y2="30.050000" stroke="#231F20" stroke-width="2.000000" stroke-linecap="round" stroke-miterlimit="10.000000" fill="none"/><line x1="39.950000" y1="39.950000" x2="30.050000" y2="30.050000" stroke="#231F20" stroke-width="2.000000" stroke-linecap="round" stroke-miterlimit="10.000000" fill="none"/></g></svg>