<svg version="1.1" viewBox="0.000000 0.000000 48.000000 48.000000" xmlns="http://www.w3.org/2000/svg" xmlns:xlink="http://www.w3.org/1999/xlink" overflow="hidden"><defs></defs><g id="icons"><path d=" M 18.000000 19.000000 C 18.000000 17.900000 18.900000 18.000000 20.000000 18.000000 C 21.100000 18.000000 22.000000 17.900000 22.000000 19.000000" stroke="#231F20" stroke-width="2.000000" stroke-linecap="round" stroke-miterlimit="10.000000" fill="none"/><path d=" M 26.000000 19.000000 C 26.000000 17.900000 26.900000 18.000000 28.000000 18.000000 C 29.100000 18.000000 30.000000 17.900000 30.000000 19.000000" stroke="#231F20" stroke-width="2.000000" stroke-linecap="round" stroke-miterlimit="10.000000" fill="none"/><path d=" M 18.770000 31.000000 C 10.180000 32.459999 1.000000 32.160000 1.000000 40.490002 L 1.000000 47.000000 L 47.000000 47.000000 L 47.000000 40.490002 C 47.000000 32.150002 38.000000 32.490002 29.139999 31.000000" stroke="#231F20" stroke-width="2.000000" stroke-linecap="round" stroke-miterlimit="10.000000" fill="none"/><path d=" M 24.000000 33.000000 C 27.000000 33.000000 34.000000 29.000000 34.000000 23.000000 C 37.000000 23.000000 37.000000 17.000000 34.000000 17.000000 L 33.000000 12.000000 C 25.000000 12.000000 25.000000 9.000000 24.000000 8.000000 C 23.000000 9.000000 23.000000 12.000000 15.000000 12.000000 L 14.000000 17.000000 C 11.000000 17.000000 11.000000 23.000000 14.000000 23.000000 C 14.000000 29.000000 21.000000 33.000000 24.000000 33.000000 Z" stroke="#231F20" stroke-width="2.000000" stroke-linecap="round" stroke-linejoin="round" fill="none"/><path d=" M 36.000000 18.520000 L 37.000000 11.000000 C 37.000000 11.000000 38.000000 1.000000 24.000000 1.000000 C 10.000000 1.000000 11.000000 11.000000 11.000000 11.000000 L 12.000000 18.500000" stroke="#231F20" stroke-width="2.000000" stroke-linecap="round" stroke-miterlimit="10.000000" fill="none"/><circle cx="15.000000" cy="40.000000" r="3.000000" stroke="#231F20" stroke-width="2.000000" stroke-linecap="round" stroke-miterlimit="10.000000" fill="none"/><line x1="15.000000" y1="31.500000" x2="15.000000" y2="37.000000" stroke="#231F20" stroke-width="2.000000" stroke-linecap="round" stroke-miterlimit="10.000000" fill="none"/><line x1="34.030000" y1="31.710000" x2="34.000000" y2="35.000000" stroke="#231F20" stroke-width="2.000000" stroke-linecap="round" stroke-miterlimit="10.000000" fill="none"/><path d=" M 32.000000 43.000000 C 30.972919 42.941322 30.132929 42.160130 30.000000 41.139999 L 30.000000 37.939999 C 30.000000 36.000000 30.000000 35.000000 34.000000 35.000000" stroke="#231F20" stroke-width="2.000000" stroke-linecap="round" stroke-miterlimit="10.000000" fill="none"/><path d=" M 36.000000 43.000000 C 37.027081 42.941322 37.867073 42.160130 38.000000 41.139999 L 38.000000 37.939999 C 38.000000 36.000000 38.000000 35.000000 34.000000 35.000000" stroke="#231F20" stroke-width="2.000000" stroke-linecap="round" stroke-miterlimit="10.000000" fill="none"/><line x1="24.000000" y1="33.000000" x2="24.000000" y2="47.000000" stroke="#231F20" stroke-width="2.000000" stroke-linecap="round" stroke-miterlimit="10.000000" fill="none"/></g></svg>