<svg version="1.1" viewBox="0.000000 0.000000 48.000000 48.000000" xmlns="http://www.w3.org/2000/svg" xmlns:xlink="http://www.w3.org/1999/xlink" overflow="hidden"><defs></defs><g id="icons"><line x1="1.000000" y1="9.000000" x2="41.000000" y2="9.000000" stroke="#231F20" stroke-width="2.000000" stroke-linecap="round" stroke-linejoin="round" fill="none"/><path d=" M 7.000000 4.000000 C 6.447715 4.000000 6.000000 4.447715 6.000000 5.000000 C 6.000000 5.552285 6.447715 6.000000 7.000000 6.000000 C 7.552285 6.000000 8.000000 5.552285 8.000000 5.000000 C 8.000000 4.447715 7.552285 4.000000 7.000000 4.000000 Z" fill="#231F20"/><path d=" M 11.000000 4.000000 C 10.447715 4.000000 10.000000 4.447715 10.000000 5.000000 C 10.000000 5.552285 10.447715 6.000000 11.000000 6.000000 C 11.552285 6.000000 12.000000 5.552285 12.000000 5.000000 C 12.000000 4.447715 11.552285 4.000000 11.000000 4.000000 Z" fill="#231F20"/><path d=" M 15.000000 4.000000 C 14.447715 4.000000 14.000000 4.447715 14.000000 5.000000 C 14.000000 5.552285 14.447715 6.000000 15.000000 6.000000 C 15.552285 6.000000 16.000000 5.552285 16.000000 5.000000 C 16.000000 4.447715 15.552285 4.000000 15.000000 4.000000 Z" fill="#231F20"/><path d=" M 19.000000 33.000000 L 5.000000 33.000000 C 2.790861 33.000000 1.000000 31.209139 1.000000 29.000000 L 1.000000 5.000000 C 1.000000 2.790861 2.790861 1.000000 5.000000 1.000000 L 37.000000 1.000000 C 39.209141 1.000000 41.000000 2.790861 41.000000 5.000000 L 41.000000 21.000000" stroke="#231F20" stroke-width="2.000000" stroke-linecap="round" stroke-miterlimit="10.000000" fill="none"/><path d=" M 47.000000 30.000000 L 47.000000 35.000000 L 42.000000 35.000000" stroke="#231F20" stroke-width="2.000000" stroke-linecap="round" stroke-miterlimit="10.000000" fill="none"/><path d=" M 29.000000 45.000000 L 29.000000 41.000000 L 33.000000 41.000000" stroke="#231F20" stroke-width="2.000000" stroke-linecap="round" stroke-miterlimit="10.000000" fill="none"/><path d=" M 29.510000 35.000000 C 31.143681 30.305580 36.273621 27.824360 40.968040 29.458040 C 43.564957 30.361778 45.606262 32.403084 46.510002 35.000000" stroke="#231F20" stroke-width="2.000000" stroke-linecap="round" stroke-miterlimit="10.000000" fill="none"/><path d=" M 46.490002 41.000000 C 44.856323 45.694420 39.726383 48.175640 35.031963 46.541962 C 32.435047 45.638222 30.393742 43.596916 29.490004 41.000000" stroke="#231F20" stroke-width="2.000000" stroke-linecap="round" stroke-miterlimit="10.000000" fill="none"/></g></svg>