<svg version="1.1" viewBox="0.000000 0.000000 48.000000 48.000000" xmlns="http://www.w3.org/2000/svg" xmlns:xlink="http://www.w3.org/1999/xlink" overflow="hidden"><defs></defs><g id="icons"><path d=" M 9.000000 41.000000 C 6.687047 41.000565 4.708450 39.338375 4.310000 37.060001 L 1.000000 18.000000 L 47.000000 18.000000 L 43.680000 37.060001 C 43.289764 39.339001 41.312164 41.003902 39.000000 41.000000" stroke="#231F20" stroke-width="2.000000" stroke-linecap="round" stroke-linejoin="round" fill="none"/><circle cx="14.000000" cy="41.000000" r="5.000000" stroke="#231F20" stroke-width="2.000000" stroke-linecap="round" stroke-linejoin="round" fill="none"/><circle cx="34.000000" cy="41.000000" r="5.000000" stroke="#231F20" stroke-width="2.000000" stroke-linecap="round" stroke-linejoin="round" fill="none"/><line x1="19.000000" y1="41.000000" x2="29.000000" y2="41.000000" stroke="#231F20" stroke-width="2.000000" stroke-linecap="round" stroke-linejoin="round" fill="none"/><path d=" M 45.000000 18.000000 C 45.000000 14.130000 41.869999 10.000000 38.000000 10.000000 C 36.878891 10.001678 35.774586 10.272611 34.779999 10.790000 C 33.571064 4.836370 27.764656 0.990036 21.811026 2.198972 C 17.482180 3.077982 14.099008 6.461154 13.219998 10.790000 C 12.225414 10.272611 11.121108 10.001678 9.999998 10.000000 C 6.130000 10.000000 3.000000 14.090000 3.000000 18.000000" stroke="#231F20" stroke-width="2.000000" stroke-linecap="round" stroke-linejoin="round" fill="none"/></g></svg>