<svg version="1.1" viewBox="0.000000 0.000000 48.000000 48.000000" xmlns="http://www.w3.org/2000/svg" xmlns:xlink="http://www.w3.org/1999/xlink" overflow="hidden"><defs></defs><g id="icons"><rect x="7.000000" y="1.000000" rx="4.000000" ry="4.000000" width="34.000000" height="46.000000" stroke="#231F20" stroke-width="2.000000" stroke-linecap="round" stroke-miterlimit="10.000000" fill="none"/><path d=" M 24.000000 41.000000 C 22.895430 41.000000 22.000000 41.895432 22.000000 43.000000 C 22.000000 44.104568 22.895430 45.000000 24.000000 45.000000 C 25.104570 45.000000 26.000000 44.104568 26.000000 43.000000 C 26.000000 41.895432 25.104570 41.000000 24.000000 41.000000 Z" fill="#231F20"/><rect x="11.000000" y="7.000000" width="26.000000" height="32.000000" stroke="#231F20" stroke-width="2.000000" stroke-linecap="round" stroke-linejoin="round" fill="none"/><path d=" M 24.000000 3.000000 C 23.447716 3.000000 23.000000 3.447715 23.000000 4.000000 C 23.000000 4.552285 23.447716 5.000000 24.000000 5.000000 C 24.552284 5.000000 25.000000 4.552285 25.000000 4.000000 C 25.000000 3.447715 24.552284 3.000000 24.000000 3.000000 Z" fill="#231F20"/><rect x="17.000000" y="13.000000" width="2.000000" height="2.000000" stroke="#231F20" stroke-width="2.000000" stroke-linecap="round" stroke-miterlimit="10.000000" fill="none"/><rect x="23.000000" y="13.000000" width="2.000000" height="2.000000" stroke="#231F20" stroke-width="2.000000" stroke-linecap="round" stroke-miterlimit="10.000000" fill="none"/><rect x="29.000000" y="13.000000" width="2.000000" height="2.000000" stroke="#231F20" stroke-width="2.000000" stroke-linecap="round" stroke-miterlimit="10.000000" fill="none"/><rect x="17.000000" y="19.000000" width="2.000000" height="2.000000" stroke="#231F20" stroke-width="2.000000" stroke-linecap="round" stroke-miterlimit="10.000000" fill="none"/><rect x="23.000000" y="19.000000" width="2.000000" height="2.000000" stroke="#231F20" stroke-width="2.000000" stroke-linecap="round" stroke-miterlimit="10.000000" fill="none"/><rect x="29.000000" y="19.000000" width="2.000000" height="2.000000" stroke="#231F20" stroke-width="2.000000" stroke-linecap="round" stroke-miterlimit="10.000000" fill="none"/><rect x="17.000000" y="25.000000" width="2.000000" height="2.000000" stroke="#231F20" stroke-width="2.000000" stroke-linecap="round" stroke-miterlimit="10.000000" fill="none"/><rect x="23.000000" y="25.000000" width="2.000000" height="2.000000" stroke="#231F20" stroke-width="2.000000" stroke-linecap="round" stroke-miterlimit="10.000000" fill="none"/></g></svg>