<svg version="1.1" viewBox="0.000000 0.000000 48.000000 48.000000" xmlns="http://www.w3.org/2000/svg" xmlns:xlink="http://www.w3.org/1999/xlink" overflow="hidden"><defs></defs><g id="icons"><path d=" M 40.639999 22.500000 L 40.639999 35.500000 C 40.639999 41.022846 36.162846 45.500000 30.639999 45.500000 L 24.000000 45.500000 C 20.574533 45.502678 17.386049 43.751842 15.550000 40.860001 C 12.080000 35.439999 7.800000 26.500000 7.800000 26.500000 C 7.033516 25.418608 7.288800 23.920609 8.370192 23.154125 C 9.268268 22.517574 10.484244 22.573586 11.320000 23.290001 L 16.639999 29.500000 L 16.639999 9.500000 C 16.639999 7.843146 17.983145 6.500000 19.639999 6.500000 C 21.296854 6.500000 22.639999 7.843146 22.639999 9.500000 L 22.639999 21.500000" stroke="#231F20" stroke-width="2.000000" stroke-linecap="round" stroke-linejoin="round" fill="none"/><path d=" M 22.639999 17.500000 L 22.639999 5.500000 C 22.639999 3.843146 23.983145 2.500000 25.639999 2.500000 C 27.296854 2.500000 28.639999 3.843146 28.639999 5.500000 L 28.639999 17.500000" stroke="#231F20" stroke-width="2.000000" stroke-linecap="round" stroke-linejoin="round" fill="none"/><path d=" M 28.639999 21.500000 L 28.639999 9.500000 C 28.639999 7.843146 29.983145 6.500000 31.639999 6.500000 C 33.296852 6.500000 34.639999 7.843146 34.639999 9.500000 L 34.639999 21.500000" stroke="#231F20" stroke-width="2.000000" stroke-linecap="round" stroke-linejoin="round" fill="none"/><path d=" M 34.639999 24.500000 L 34.639999 15.500000 C 34.639999 13.843145 35.983147 12.500000 37.639999 12.500000 C 39.296852 12.500000 40.639999 13.843145 40.639999 15.500000 L 40.639999 27.500000" stroke="#231F20" stroke-width="2.000000" stroke-linecap="round" stroke-linejoin="round" fill="none"/></g></svg>