<svg version="1.1" viewBox="0.000000 0.000000 48.000000 48.000000" xmlns="http://www.w3.org/2000/svg" xmlns:xlink="http://www.w3.org/1999/xlink" overflow="hidden"><defs></defs><g id="icons"><path d=" M 39.000000 46.990002 L 9.000000 46.990002 L 7.000000 14.990000 L 41.000000 14.990000 L 39.000000 46.990002 Z" stroke="#231F20" stroke-width="2.000000" stroke-linejoin="round" fill="none"/><line x1="7.630000" y1="24.990000" x2="40.330000" y2="24.990000" stroke="#231F20" stroke-width="2.000000" stroke-linejoin="round" fill="none"/><line x1="8.130000" y1="32.990000" x2="39.830000" y2="32.990000" stroke="#231F20" stroke-width="2.000000" stroke-linejoin="round" fill="none"/><line x1="15.000000" y1="14.990000" x2="15.000000" y2="24.990000" stroke="#231F20" stroke-width="2.000000" stroke-linejoin="round" fill="none"/><line x1="21.000000" y1="14.990000" x2="21.000000" y2="24.990000" stroke="#231F20" stroke-width="2.000000" stroke-linejoin="round" fill="none"/><line x1="27.000000" y1="14.990000" x2="27.000000" y2="24.990000" stroke="#231F20" stroke-width="2.000000" stroke-linejoin="round" fill="none"/><line x1="33.000000" y1="14.990000" x2="33.000000" y2="24.990000" stroke="#231F20" stroke-width="2.000000" stroke-linejoin="round" fill="none"/><line x1="15.000000" y1="32.990000" x2="15.000000" y2="46.990000" stroke="#231F20" stroke-width="2.000000" stroke-linejoin="round" fill="none"/><line x1="21.000000" y1="32.990000" x2="21.000000" y2="46.990000" stroke="#231F20" stroke-width="2.000000" stroke-linejoin="round" fill="none"/><line x1="27.000000" y1="32.990000" x2="27.000000" y2="46.990000" stroke="#231F20" stroke-width="2.000000" stroke-linejoin="round" fill="none"/><line x1="33.000000" y1="32.990000" x2="33.000000" y2="46.990000" stroke="#231F20" stroke-width="2.000000" stroke-linejoin="round" fill="none"/><path d=" M 41.000000 11.000000 C 41.000000 4.000000 34.209999 3.600000 31.809999 7.280000 C 30.000000 -1.060000 18.000000 -1.100000 16.190001 7.270000 C 13.780000 3.570000 7.000000 4.000000 7.000000 11.000000" stroke="#231F20" stroke-width="2.000000" stroke-linecap="round" stroke-linejoin="round" fill="none"/></g></svg>