<svg version="1.1" viewBox="0.000000 0.000000 48.000000 48.000000" xmlns="http://www.w3.org/2000/svg" xmlns:xlink="http://www.w3.org/1999/xlink" overflow="hidden"><defs></defs><g id="icons"><rect x="1.000000" y="27.000000" rx="4.000000" ry="4.000000" width="46.000000" height="20.000000" stroke="#231F20" stroke-width="2.000000" stroke-linecap="round" stroke-linejoin="round" fill="none"/><path d=" M 22.000000 30.000000 L 20.000000 30.000000 L 20.000000 32.000000 L 22.000000 32.000000 L 22.000000 30.000000 L 22.000000 30.000000 Z" fill="#231F20"/><path d=" M 28.000000 30.000000 L 26.000000 30.000000 L 26.000000 32.000000 L 28.000000 32.000000 L 28.000000 30.000000 L 28.000000 30.000000 Z" fill="#231F20"/><path d=" M 34.000000 30.000000 L 32.000000 30.000000 L 32.000000 32.000000 L 34.000000 32.000000 L 34.000000 30.000000 L 34.000000 30.000000 Z" fill="#231F20"/><path d=" M 40.000000 30.000000 L 38.000000 30.000000 L 38.000000 32.000000 L 40.000000 32.000000 L 40.000000 30.000000 L 40.000000 30.000000 Z" fill="#231F20"/><path d=" M 16.000000 30.000000 L 14.000000 30.000000 L 14.000000 32.000000 L 16.000000 32.000000 L 16.000000 30.000000 L 16.000000 30.000000 Z" fill="#231F20"/><path d=" M 10.000000 30.000000 L 8.000000 30.000000 L 8.000000 32.000000 L 10.000000 32.000000 L 10.000000 30.000000 L 10.000000 30.000000 Z" fill="#231F20"/><path d=" M 22.000000 34.000000 L 20.000000 34.000000 L 20.000000 36.000000 L 22.000000 36.000000 L 22.000000 34.000000 L 22.000000 34.000000 Z" fill="#231F20"/><path d=" M 28.000000 34.000000 L 26.000000 34.000000 L 26.000000 36.000000 L 28.000000 36.000000 L 28.000000 34.000000 L 28.000000 34.000000 Z" fill="#231F20"/><path d=" M 34.000000 34.000000 L 32.000000 34.000000 L 32.000000 36.000000 L 34.000000 36.000000 L 34.000000 34.000000 L 34.000000 34.000000 Z" fill="#231F20"/><path d=" M 40.000000 34.000000 L 38.000000 34.000000 L 38.000000 36.000000 L 40.000000 36.000000 L 40.000000 34.000000 L 40.000000 34.000000 Z" fill="#231F20"/><path d=" M 16.000000 34.000000 L 14.000000 34.000000 L 14.000000 36.000000 L 16.000000 36.000000 L 16.000000 34.000000 L 16.000000 34.000000 Z" fill="#231F20"/><path d=" M 10.000000 34.000000 L 8.000000 34.000000 L 8.000000 36.000000 L 10.000000 36.000000 L 10.000000 34.000000 L 10.000000 34.000000 Z" fill="#231F20"/><path d=" M 22.000000 38.000000 L 20.000000 38.000000 L 20.000000 40.000000 L 22.000000 40.000000 L 22.000000 38.000000 L 22.000000 38.000000 Z" fill="#231F20"/><path d=" M 28.000000 38.000000 L 26.000000 38.000000 L 26.000000 40.000000 L 28.000000 40.000000 L 28.000000 38.000000 L 28.000000 38.000000 Z" fill="#231F20"/><path d=" M 34.000000 38.000000 L 32.000000 38.000000 L 32.000000 40.000000 L 34.000000 40.000000 L 34.000000 38.000000 L 34.000000 38.000000 Z" fill="#231F20"/><path d=" M 40.000000 38.000000 L 38.000000 38.000000 L 38.000000 40.000000 L 40.000000 40.000000 L 40.000000 38.000000 L 40.000000 38.000000 Z" fill="#231F20"/><path d=" M 16.000000 38.000000 L 14.000000 38.000000 L 14.000000 40.000000 L 16.000000 40.000000 L 16.000000 38.000000 L 16.000000 38.000000 Z" fill="#231F20"/><path d=" M 10.000000 38.000000 L 8.000000 38.000000 L 8.000000 40.000000 L 10.000000 40.000000 L 10.000000 38.000000 L 10.000000 38.000000 Z" fill="#231F20"/><path d=" M 7.000000 27.000000 L 7.000000 25.000000 C 7.000000 21.686291 9.686292 19.000000 13.000000 19.000000 L 40.000000 19.000000 C 43.865993 19.000000 47.000000 15.865993 47.000000 12.000000 C 47.000000 8.134007 43.865993 5.000000 40.000000 5.000000 L 27.000000 5.000000 C 25.343145 5.000000 24.000000 3.656854 24.000000 2.000000 L 24.000000 1.000000" stroke="#231F20" stroke-width="2.000000" stroke-linecap="round" stroke-linejoin="round" fill="none"/><line x1="10.000000" y1="43.000000" x2="38.000000" y2="43.000000" stroke="#231F20" stroke-width="2.000000" stroke-miterlimit="10.000000" fill="none"/></g></svg>