<svg version="1.1" viewBox="0.000000 0.000000 48.000000 48.000000" xmlns="http://www.w3.org/2000/svg" xmlns:xlink="http://www.w3.org/1999/xlink" overflow="hidden"><defs></defs><g id="icons"><rect x="3.000000" y="11.000000" width="42.000000" height="28.000000" stroke="#231F20" stroke-width="2.000000" stroke-linecap="round" stroke-linejoin="round" fill="none"/><line x1="3.000000" y1="39.000000" x2="3.000000" y2="43.000000" stroke="#231F20" stroke-width="2.000000" stroke-linecap="round" stroke-linejoin="round" fill="none"/><line x1="45.000000" y1="39.000000" x2="45.000000" y2="43.000000" stroke="#231F20" stroke-width="2.000000" stroke-linecap="round" stroke-linejoin="round" fill="none"/><rect x="1.000000" y="5.000000" width="46.000000" height="6.000000" stroke="#231F20" stroke-width="2.000000" stroke-linecap="round" stroke-linejoin="round" fill="none"/><rect x="7.000000" y="27.000000" width="34.000000" height="8.000000" stroke="#231F20" stroke-width="2.000000" stroke-linecap="round" stroke-linejoin="round" fill="none"/><rect x="27.000000" y="15.000000" width="14.000000" height="8.000000" stroke="#231F20" stroke-width="2.000000" stroke-linecap="round" stroke-linejoin="round" fill="none"/><rect x="7.000000" y="15.000000" width="14.000000" height="8.000000" stroke="#231F20" stroke-width="2.000000" stroke-linecap="round" stroke-linejoin="round" fill="none"/><path d=" M 24.000000 30.000000 C 23.447716 30.000000 23.000000 30.447716 23.000000 31.000000 C 23.000000 31.552284 23.447716 32.000000 24.000000 32.000000 C 24.552284 32.000000 25.000000 31.552284 25.000000 31.000000 C 25.000000 30.447716 24.552284 30.000000 24.000000 30.000000 Z" fill="#231F20"/><path d=" M 14.000000 18.000000 C 13.447715 18.000000 13.000000 18.447716 13.000000 19.000000 C 13.000000 19.552284 13.447715 20.000000 14.000000 20.000000 C 14.552285 20.000000 15.000000 19.552284 15.000000 19.000000 C 15.000000 18.447716 14.552285 18.000000 14.000000 18.000000 Z" fill="#231F20"/><path d=" M 34.000000 18.000000 C 33.447716 18.000000 33.000000 18.447716 33.000000 19.000000 C 33.000000 19.552284 33.447716 20.000000 34.000000 20.000000 C 34.552284 20.000000 35.000000 19.552284 35.000000 19.000000 C 35.000000 18.447716 34.552284 18.000000 34.000000 18.000000 Z" fill="#231F20"/></g></svg>