<svg version="1.1" viewBox="0.000000 0.000000 48.000000 48.000000" xmlns="http://www.w3.org/2000/svg" xmlns:xlink="http://www.w3.org/1999/xlink" overflow="hidden"><defs></defs><g id="icons"><line x1="24.000000" y1="47.000000" x2="24.000000" y2="43.000000" stroke="#000000" stroke-width="2.000000" stroke-linecap="round" stroke-linejoin="round" fill="none"/><path d=" M 28.240000 42.070000 C 30.240025 44.007206 32.659157 45.458000 35.310001 46.310001 C 34.453121 43.661373 33.002956 41.243290 31.070002 39.240002 C 30.058756 38.249798 28.930410 37.386745 27.710001 36.670002 C 30.047319 37.522343 32.512280 37.972054 35.000000 38.000004 C 38.857578 37.919792 42.635826 36.889362 46.000000 35.000004 C 42.635826 33.110645 38.857578 32.080215 35.000000 32.000004 C 32.445374 32.030659 29.915092 32.500858 27.520000 33.390003 C 30.637398 31.765886 33.495438 29.686394 36.000000 27.220003 C 39.369751 23.780552 42.015278 19.700048 43.779999 15.220003 C 39.299953 16.984726 35.219452 19.630253 31.779999 23.000004 C 29.091942 25.744059 26.860388 28.900646 25.169998 32.350002 C 26.983557 27.780161 27.942787 22.916216 27.999998 18.000002 C 27.917568 12.110027 26.552565 6.308767 23.999998 1.000002 C 21.447432 6.308767 20.082428 12.110027 19.999998 18.000002 C 20.063185 22.908159 21.018742 27.763880 22.819998 32.330002 C 21.135145 28.885849 18.906612 25.735514 16.219997 23.000002 C 12.780546 19.630251 8.700043 16.984724 4.219997 15.220002 C 5.984720 19.700047 8.630246 23.780550 11.999997 27.220001 C 14.510664 29.688007 17.375542 31.767572 20.499996 33.389999 C 18.098593 32.498596 15.561351 32.028358 12.999996 32.000000 C 9.142418 32.080212 5.364172 33.110641 1.999996 35.000000 C 5.364172 36.889359 9.142418 37.919788 12.999996 38.000000 C 15.487718 37.972054 17.952679 37.522339 20.289997 36.669998 C 19.069588 37.386742 17.941242 38.249794 16.929996 39.239998 C 14.992789 41.240025 13.541994 43.659153 12.689997 46.309998 C 15.340840 45.458000 17.759972 44.007206 19.759996 42.069996" stroke="#000000" stroke-width="2.000000" stroke-linecap="round" stroke-linejoin="round" fill="none"/></g></svg>