<svg version="1.1" viewBox="0.000000 0.000000 48.000000 48.000000" xmlns="http://www.w3.org/2000/svg" xmlns:xlink="http://www.w3.org/1999/xlink" overflow="hidden"><defs></defs><g id="icons"><path d=" M 17.000000 31.000000 C 17.000000 33.000000 15.000000 33.000000 13.000000 33.000000 C 10.988304 33.197441 9.197443 31.726700 9.000000 29.715004 C 8.976665 29.477242 8.976665 29.237764 9.000000 29.000000 C 8.802557 26.988304 10.273300 25.197443 12.284996 25.000000 C 12.522759 24.976664 12.762237 24.976664 13.000000 25.000000 L 17.000000 25.000000 Z" stroke="#231F20" stroke-width="2.000000" stroke-linecap="round" stroke-linejoin="round" fill="none"/><path d=" M 17.000000 27.000000 L 17.000000 15.000000 L 29.000000 7.000000 L 29.000000 22.000000" stroke="#231F20" stroke-width="2.000000" stroke-linecap="round" stroke-linejoin="round" fill="none"/><rect x="1.000000" y="1.000000" width="40.000000" height="40.000000" stroke="#231F20" stroke-width="2.000000" stroke-linecap="round" stroke-linejoin="round" fill="none"/><path d=" M 45.000000 7.000000 L 47.000000 7.000000 L 47.000000 47.000000 L 7.000000 47.000000 L 7.000000 45.000000" stroke="#231F20" stroke-width="2.000000" stroke-linecap="round" stroke-linejoin="round" fill="none"/><path d=" M 29.000000 27.000000 C 29.000000 29.000000 27.000000 29.000000 25.000000 29.000000 C 22.988304 29.197443 21.197443 27.726700 21.000000 25.715004 C 20.976664 25.477242 20.976664 25.237764 21.000000 25.000000 C 20.802557 22.988304 22.273300 21.197443 24.284996 21.000000 C 24.522758 20.976664 24.762236 20.976664 25.000000 21.000000 L 29.000000 21.000000 Z" stroke="#231F20" stroke-width="2.000000" stroke-linecap="round" stroke-linejoin="round" fill="none"/></g></svg>