<svg version="1.1" viewBox="0.000000 0.000000 48.000000 48.000000" xmlns="http://www.w3.org/2000/svg" xmlns:xlink="http://www.w3.org/1999/xlink" overflow="hidden"><defs></defs><g id="icons"><path d=" M 10.000000 40.000000 L 10.000000 22.000000 C 10.000000 18.134007 13.134007 15.000000 17.000000 15.000000 C 20.865993 15.000000 24.000000 18.134007 24.000000 22.000000 L 24.000000 40.000000" stroke="#231F20" stroke-width="2.000000" stroke-linecap="round" stroke-linejoin="round" fill="none"/><path d=" M 20.000000 22.000000 C 20.000000 20.343145 18.656855 19.000000 17.000000 19.000000 C 15.343145 19.000000 14.000000 20.343145 14.000000 22.000000 L 14.000000 25.000000 L 20.000000 25.000000 Z" stroke="#231F20" stroke-width="2.000000" stroke-linecap="round" stroke-linejoin="round" fill="none"/><path d=" M 24.000000 40.000000 L 24.000000 20.000000 C 24.000000 16.134007 27.134007 13.000000 31.000000 13.000000 C 34.865993 13.000000 38.000000 16.134007 38.000000 20.000000 L 38.000000 40.000000" stroke="#231F20" stroke-width="2.000000" stroke-linecap="round" stroke-linejoin="round" fill="none"/><path d=" M 34.000000 20.000000 C 34.000000 18.343145 32.656853 17.000000 31.000000 17.000000 C 29.343145 17.000000 28.000000 18.343145 28.000000 20.000000 L 28.000000 23.000000 L 34.000000 23.000000 Z" stroke="#231F20" stroke-width="2.000000" stroke-linecap="round" stroke-linejoin="round" fill="none"/><path d=" M 6.050000 21.570000 C 6.050000 21.219999 6.050000 20.860001 6.050000 20.500000 C 6.029591 19.999451 6.046303 19.498079 6.100000 19.000000 C 6.927931 13.254837 12.256477 9.268633 18.001640 10.096564 C 19.040602 10.246288 20.051271 10.550813 21.000000 11.000000" stroke="#231F20" stroke-width="2.000000" stroke-linecap="round" stroke-linejoin="round" fill="none"/><path d=" M 25.000000 9.760000 C 30.081694 6.430792 36.900074 7.851461 40.229282 12.933154 C 41.984184 15.611832 42.484653 18.922277 41.599998 22.000000" stroke="#231F20" stroke-width="2.000000" stroke-linecap="round" stroke-linejoin="round" fill="none"/></g></svg>