<svg version="1.1" viewBox="0.000000 0.000000 48.000000 48.000000" xmlns="http://www.w3.org/2000/svg" xmlns:xlink="http://www.w3.org/1999/xlink" overflow="hidden"><defs></defs><g id="icons"><path d=" M 29.450001 24.090000 C 29.450001 27.099953 27.009953 29.540001 24.000000 29.540001 C 20.990047 29.540001 18.549999 27.099953 18.549999 24.090000 C 18.549999 21.080048 20.990047 18.639999 24.000000 18.639999 C 27.007669 18.645502 29.444496 21.082331 29.450001 24.090000 Z" stroke="#231F20" stroke-width="2.000000" stroke-miterlimit="10.000000" fill="none"/><path d=" M 31.639999 15.360000 L 38.000000 15.360000 C 39.656853 15.360000 41.000000 16.703146 41.000000 18.360001 L 41.000000 32.000000 C 41.000000 33.656853 39.656853 35.000000 38.000000 35.000000 L 10.000000 35.000000 C 8.343145 35.000000 7.000000 33.656853 7.000000 32.000000 L 7.000000 18.360001 C 7.000000 16.703146 8.343145 15.360001 10.000000 15.360001 L 16.360001 15.360000" stroke="#231F20" stroke-width="2.000000" stroke-linecap="round" stroke-linejoin="round" fill="none"/><path d=" M 16.360001 15.360000 L 20.730000 11.000000 L 27.270000 11.000000 L 31.639999 15.360000" stroke="#231F20" stroke-width="2.000000" stroke-linecap="round" stroke-linejoin="round" fill="none"/><path d=" M 36.000000 19.730000 C 35.398010 19.730000 34.910000 20.218010 34.910000 20.820000 C 34.910000 21.421989 35.398010 21.910000 36.000000 21.910000 C 36.601990 21.910000 37.090000 21.421989 37.090000 20.820000 C 37.090000 20.218010 36.601990 19.730000 36.000000 19.730000 Z" fill="#231F20"/><rect x="1.000000" y="1.000000" rx="8.000000" ry="8.000000" width="46.000000" height="46.000000" stroke="#231F20" stroke-width="2.000000" stroke-miterlimit="10.000000" fill="none"/></g></svg>