<svg version="1.1" viewBox="0.000000 0.000000 48.000000 48.000000" xmlns="http://www.w3.org/2000/svg" xmlns:xlink="http://www.w3.org/1999/xlink" overflow="hidden"><defs></defs><g id="icons"><path d=" M 6.000000 1.000000 C 5.447715 1.000000 5.000000 1.447715 5.000000 2.000000 C 5.000000 2.552285 5.447715 3.000000 6.000000 3.000000 C 6.552285 3.000000 7.000000 2.552285 7.000000 2.000000 C 7.000000 1.447715 6.552285 1.000000 6.000000 1.000000 Z" fill="#231F20"/><path d=" M 10.000000 1.000000 C 9.447715 1.000000 9.000000 1.447715 9.000000 2.000000 C 9.000000 2.552285 9.447715 3.000000 10.000000 3.000000 C 10.552285 3.000000 11.000000 2.552285 11.000000 2.000000 C 11.000000 1.447715 10.552285 1.000000 10.000000 1.000000 Z" fill="#231F20"/><path d=" M 14.000000 1.000000 C 13.447715 1.000000 13.000000 1.447715 13.000000 2.000000 C 13.000000 2.552285 13.447715 3.000000 14.000000 3.000000 C 14.552285 3.000000 15.000000 2.552285 15.000000 2.000000 C 15.000000 1.447715 14.552285 1.000000 14.000000 1.000000 Z" fill="#231F20"/><path d=" M 18.000000 1.000000 C 17.447716 1.000000 17.000000 1.447715 17.000000 2.000000 C 17.000000 2.552285 17.447716 3.000000 18.000000 3.000000 C 18.552284 3.000000 19.000000 2.552285 19.000000 2.000000 C 19.000000 1.447715 18.552284 1.000000 18.000000 1.000000 Z" fill="#231F20"/><path d=" M 22.000000 1.000000 C 21.447716 1.000000 21.000000 1.447715 21.000000 2.000000 C 21.000000 2.552285 21.447716 3.000000 22.000000 3.000000 C 22.552284 3.000000 23.000000 2.552285 23.000000 2.000000 C 23.000000 1.447715 22.552284 1.000000 22.000000 1.000000 Z" fill="#231F20"/><path d=" M 26.000000 1.000000 C 25.447716 1.000000 25.000000 1.447715 25.000000 2.000000 C 25.000000 2.552285 25.447716 3.000000 26.000000 3.000000 C 26.552284 3.000000 27.000000 2.552285 27.000000 2.000000 C 27.000000 1.447715 26.552284 1.000000 26.000000 1.000000 Z" fill="#231F20"/><path d=" M 30.000000 1.000000 C 29.447716 1.000000 29.000000 1.447715 29.000000 2.000000 C 29.000000 2.552285 29.447716 3.000000 30.000000 3.000000 C 30.552284 3.000000 31.000000 2.552285 31.000000 2.000000 C 31.000000 1.447715 30.552284 1.000000 30.000000 1.000000 Z" fill="#231F20"/><path d=" M 30.000000 5.000000 C 29.447716 5.000000 29.000000 5.447715 29.000000 6.000000 C 29.000000 6.552285 29.447716 7.000000 30.000000 7.000000 C 30.552284 7.000000 31.000000 6.552285 31.000000 6.000000 C 31.000000 5.447715 30.552284 5.000000 30.000000 5.000000 Z" fill="#231F20"/><path d=" M 30.000000 9.000000 C 29.447716 9.000000 29.000000 9.447715 29.000000 10.000000 C 29.000000 10.552285 29.447716 11.000000 30.000000 11.000000 C 30.552284 11.000000 31.000000 10.552285 31.000000 10.000000 C 31.000000 9.447715 30.552284 9.000000 30.000000 9.000000 Z" fill="#231F20"/><path d=" M 35.000000 5.000000 C 34.447716 5.000000 34.000000 5.447715 34.000000 6.000000 C 34.000000 6.552285 34.447716 7.000000 35.000000 7.000000 C 35.552284 7.000000 36.000000 6.552285 36.000000 6.000000 C 36.000000 5.447715 35.552284 5.000000 35.000000 5.000000 Z" fill="#231F20"/><path d=" M 30.000000 13.000000 C 29.447716 13.000000 29.000000 13.447715 29.000000 14.000000 C 29.000000 14.552285 29.447716 15.000000 30.000000 15.000000 C 30.552284 15.000000 31.000000 14.552285 31.000000 14.000000 C 31.000000 13.447715 30.552284 13.000000 30.000000 13.000000 Z" fill="#231F20"/><path d=" M 38.000000 8.000000 C 37.447716 8.000000 37.000000 8.447715 37.000000 9.000000 C 37.000000 9.552285 37.447716 10.000000 38.000000 10.000000 C 38.552284 10.000000 39.000000 9.552285 39.000000 9.000000 C 39.000000 8.447715 38.552284 8.000000 38.000000 8.000000 Z" fill="#231F20"/><path d=" M 10.000000 45.000000 C 9.447715 45.000000 9.000000 45.447716 9.000000 46.000000 C 9.000000 46.552284 9.447715 47.000000 10.000000 47.000000 C 10.552285 47.000000 11.000000 46.552284 11.000000 46.000000 C 11.000000 45.447716 10.552285 45.000000 10.000000 45.000000 Z" fill="#231F20"/><path d=" M 14.000000 45.000000 C 13.447715 45.000000 13.000000 45.447716 13.000000 46.000000 C 13.000000 46.552284 13.447715 47.000000 14.000000 47.000000 C 14.552285 47.000000 15.000000 46.552284 15.000000 46.000000 C 15.000000 45.447716 14.552285 45.000000 14.000000 45.000000 Z" fill="#231F20"/><path d=" M 18.000000 45.000000 C 17.447716 45.000000 17.000000 45.447716 17.000000 46.000000 C 17.000000 46.552284 17.447716 47.000000 18.000000 47.000000 C 18.552284 47.000000 19.000000 46.552284 19.000000 46.000000 C 19.000000 45.447716 18.552284 45.000000 18.000000 45.000000 Z" fill="#231F20"/><path d=" M 22.000000 45.000000 C 21.447716 45.000000 21.000000 45.447716 21.000000 46.000000 C 21.000000 46.552284 21.447716 47.000000 22.000000 47.000000 C 22.552284 47.000000 23.000000 46.552284 23.000000 46.000000 C 23.000000 45.447716 22.552284 45.000000 22.000000 45.000000 Z" fill="#231F20"/><path d=" M 26.000000 45.000000 C 25.447716 45.000000 25.000000 45.447716 25.000000 46.000000 C 25.000000 46.552284 25.447716 47.000000 26.000000 47.000000 C 26.552284 47.000000 27.000000 46.552284 27.000000 46.000000 C 27.000000 45.447716 26.552284 45.000000 26.000000 45.000000 Z" fill="#231F20"/><path d=" M 30.000000 45.000000 C 29.447716 45.000000 29.000000 45.447716 29.000000 46.000000 C 29.000000 46.552284 29.447716 47.000000 30.000000 47.000000 C 30.552284 47.000000 31.000000 46.552284 31.000000 46.000000 C 31.000000 45.447716 30.552284 45.000000 30.000000 45.000000 Z" fill="#231F20"/><path d=" M 34.000000 45.000000 C 33.447716 45.000000 33.000000 45.447716 33.000000 46.000000 C 33.000000 46.552284 33.447716 47.000000 34.000000 47.000000 C 34.552284 47.000000 35.000000 46.552284 35.000000 46.000000 C 35.000000 45.447716 34.552284 45.000000 34.000000 45.000000 Z" fill="#231F20"/><path d=" M 38.000000 45.000000 C 37.447716 45.000000 37.000000 45.447716 37.000000 46.000000 C 37.000000 46.552284 37.447716 47.000000 38.000000 47.000000 C 38.552284 47.000000 39.000000 46.552284 39.000000 46.000000 C 39.000000 45.447716 38.552284 45.000000 38.000000 45.000000 Z" fill="#231F20"/><path d=" M 6.000000 5.000000 C 5.447715 5.000000 5.000000 5.447715 5.000000 6.000000 C 5.000000 6.552285 5.447715 7.000000 6.000000 7.000000 C 6.552285 7.000000 7.000000 6.552285 7.000000 6.000000 C 7.000000 5.447715 6.552285 5.000000 6.000000 5.000000 Z" fill="#231F20"/><path d=" M 6.000000 9.000000 C 5.447715 9.000000 5.000000 9.447715 5.000000 10.000000 C 5.000000 10.552285 5.447715 11.000000 6.000000 11.000000 C 6.552285 11.000000 7.000000 10.552285 7.000000 10.000000 C 7.000000 9.447715 6.552285 9.000000 6.000000 9.000000 Z" fill="#231F20"/><path d=" M 6.000000 13.000000 C 5.447715 13.000000 5.000000 13.447715 5.000000 14.000000 C 5.000000 14.552285 5.447715 15.000000 6.000000 15.000000 C 6.552285 15.000000 7.000000 14.552285 7.000000 14.000000 C 7.000000 13.447715 6.552285 13.000000 6.000000 13.000000 Z" fill="#231F20"/><path d=" M 42.000000 13.000000 C 41.447716 13.000000 41.000000 13.447715 41.000000 14.000000 C 41.000000 14.552285 41.447716 15.000000 42.000000 15.000000 C 42.552284 15.000000 43.000000 14.552285 43.000000 14.000000 C 43.000000 13.447715 42.552284 13.000000 42.000000 13.000000 Z" fill="#231F20"/><path d=" M 38.000000 13.000000 C 37.447716 13.000000 37.000000 13.447715 37.000000 14.000000 C 37.000000 14.552285 37.447716 15.000000 38.000000 15.000000 C 38.552284 15.000000 39.000000 14.552285 39.000000 14.000000 C 39.000000 13.447715 38.552284 13.000000 38.000000 13.000000 Z" fill="#231F20"/><path d=" M 34.000000 13.000000 C 33.447716 13.000000 33.000000 13.447715 33.000000 14.000000 C 33.000000 14.552285 33.447716 15.000000 34.000000 15.000000 C 34.552284 15.000000 35.000000 14.552285 35.000000 14.000000 C 35.000000 13.447715 34.552284 13.000000 34.000000 13.000000 Z" fill="#231F20"/><path d=" M 6.000000 17.000000 C 5.447715 17.000000 5.000000 17.447716 5.000000 18.000000 C 5.000000 18.552284 5.447715 19.000000 6.000000 19.000000 C 6.552285 19.000000 7.000000 18.552284 7.000000 18.000000 C 7.000000 17.447716 6.552285 17.000000 6.000000 17.000000 Z" fill="#231F20"/><path d=" M 42.000000 17.000000 C 41.447716 17.000000 41.000000 17.447716 41.000000 18.000000 C 41.000000 18.552284 41.447716 19.000000 42.000000 19.000000 C 42.552284 19.000000 43.000000 18.552284 43.000000 18.000000 C 43.000000 17.447716 42.552284 17.000000 42.000000 17.000000 Z" fill="#231F20"/><path d=" M 6.000000 21.000000 C 5.447715 21.000000 5.000000 21.447716 5.000000 22.000000 C 5.000000 22.552284 5.447715 23.000000 6.000000 23.000000 C 6.552285 23.000000 7.000000 22.552284 7.000000 22.000000 C 7.000000 21.447716 6.552285 21.000000 6.000000 21.000000 Z" fill="#231F20"/><path d=" M 42.000000 21.000000 C 41.447716 21.000000 41.000000 21.447716 41.000000 22.000000 C 41.000000 22.552284 41.447716 23.000000 42.000000 23.000000 C 42.552284 23.000000 43.000000 22.552284 43.000000 22.000000 C 43.000000 21.447716 42.552284 21.000000 42.000000 21.000000 Z" fill="#231F20"/><path d=" M 6.000000 25.000000 C 5.447715 25.000000 5.000000 25.447716 5.000000 26.000000 C 5.000000 26.552284 5.447715 27.000000 6.000000 27.000000 C 6.552285 27.000000 7.000000 26.552284 7.000000 26.000000 C 7.000000 25.447716 6.552285 25.000000 6.000000 25.000000 Z" fill="#231F20"/><path d=" M 42.000000 25.000000 C 41.447716 25.000000 41.000000 25.447716 41.000000 26.000000 C 41.000000 26.552284 41.447716 27.000000 42.000000 27.000000 C 42.552284 27.000000 43.000000 26.552284 43.000000 26.000000 C 43.000000 25.447716 42.552284 25.000000 42.000000 25.000000 Z" fill="#231F20"/><path d=" M 6.000000 29.000000 C 5.447715 29.000000 5.000000 29.447716 5.000000 30.000000 C 5.000000 30.552284 5.447715 31.000000 6.000000 31.000000 C 6.552285 31.000000 7.000000 30.552284 7.000000 30.000000 C 7.000000 29.447716 6.552285 29.000000 6.000000 29.000000 Z" fill="#231F20"/><path d=" M 42.000000 29.000000 C 41.447716 29.000000 41.000000 29.447716 41.000000 30.000000 C 41.000000 30.552284 41.447716 31.000000 42.000000 31.000000 C 42.552284 31.000000 43.000000 30.552284 43.000000 30.000000 C 43.000000 29.447716 42.552284 29.000000 42.000000 29.000000 Z" fill="#231F20"/><path d=" M 6.000000 33.000000 C 5.447715 33.000000 5.000000 33.447716 5.000000 34.000000 C 5.000000 34.552284 5.447715 35.000000 6.000000 35.000000 C 6.552285 35.000000 7.000000 34.552284 7.000000 34.000000 C 7.000000 33.447716 6.552285 33.000000 6.000000 33.000000 Z" fill="#231F20"/><path d=" M 42.000000 33.000000 C 41.447716 33.000000 41.000000 33.447716 41.000000 34.000000 C 41.000000 34.552284 41.447716 35.000000 42.000000 35.000000 C 42.552284 35.000000 43.000000 34.552284 43.000000 34.000000 C 43.000000 33.447716 42.552284 33.000000 42.000000 33.000000 Z" fill="#231F20"/><path d=" M 6.000000 37.000000 C 5.447715 37.000000 5.000000 37.447716 5.000000 38.000000 C 5.000000 38.552284 5.447715 39.000000 6.000000 39.000000 C 6.552285 39.000000 7.000000 38.552284 7.000000 38.000000 C 7.000000 37.447716 6.552285 37.000000 6.000000 37.000000 Z" fill="#231F20"/><path d=" M 42.000000 37.000000 C 41.447716 37.000000 41.000000 37.447716 41.000000 38.000000 C 41.000000 38.552284 41.447716 39.000000 42.000000 39.000000 C 42.552284 39.000000 43.000000 38.552284 43.000000 38.000000 C 43.000000 37.447716 42.552284 37.000000 42.000000 37.000000 Z" fill="#231F20"/><path d=" M 6.000000 41.000000 C 5.447715 41.000000 5.000000 41.447716 5.000000 42.000000 C 5.000000 42.552284 5.447715 43.000000 6.000000 43.000000 C 6.552285 43.000000 7.000000 42.552284 7.000000 42.000000 C 7.000000 41.447716 6.552285 41.000000 6.000000 41.000000 Z" fill="#231F20"/><path d=" M 42.000000 41.000000 C 41.447716 41.000000 41.000000 41.447716 41.000000 42.000000 C 41.000000 42.552284 41.447716 43.000000 42.000000 43.000000 C 42.552284 43.000000 43.000000 42.552284 43.000000 42.000000 C 43.000000 41.447716 42.552284 41.000000 42.000000 41.000000 Z" fill="#231F20"/><path d=" M 6.000000 45.000000 C 5.447715 45.000000 5.000000 45.447716 5.000000 46.000000 C 5.000000 46.552284 5.447715 47.000000 6.000000 47.000000 C 6.552285 47.000000 7.000000 46.552284 7.000000 46.000000 C 7.000000 45.447716 6.552285 45.000000 6.000000 45.000000 Z" fill="#231F20"/><path d=" M 42.000000 45.000000 C 41.447716 45.000000 41.000000 45.447716 41.000000 46.000000 C 41.000000 46.552284 41.447716 47.000000 42.000000 47.000000 C 42.552284 47.000000 43.000000 46.552284 43.000000 46.000000 C 43.000000 45.447716 42.552284 45.000000 42.000000 45.000000 Z" fill="#231F20"/></g></svg>