<svg version="1.1" viewBox="0.000000 0.000000 48.000000 48.000000" xmlns="http://www.w3.org/2000/svg" xmlns:xlink="http://www.w3.org/1999/xlink" overflow="hidden"><defs></defs><g id="icons"><line x1="44.070000" y1="29.860000" x2="29.930000" y2="44.000000" stroke="#231F20" stroke-width="2.000000" stroke-linejoin="round" fill="none"/><path d=" M 44.070000 29.860001 C 47.975834 33.764652 47.976788 40.096302 44.072136 44.002136 C 40.167484 47.907970 33.835835 47.908924 29.930000 44.004272 C 26.024168 40.099621 26.023212 33.767971 29.927864 29.862137 C 29.928576 29.861425 29.929287 29.860714 29.930000 29.860001 C 33.834999 25.956181 40.165001 25.956181 44.070000 29.860001 Z" stroke="#231F20" stroke-width="2.000000" stroke-miterlimit="10.000000" fill="none"/><path d=" M 28.070000 26.639999 C 26.510000 26.120001 25.000000 25.570000 23.000000 24.930000 L 23.000000 19.930000 C 23.000000 19.930000 26.000000 18.690001 26.000000 13.930000 C 28.000000 13.930000 28.000000 9.790000 26.000000 9.790000 C 26.000000 9.320000 27.790001 6.570000 27.139999 3.930000 C 26.190001 0.120000 15.000000 0.120000 14.070000 3.930000 C 9.330000 3.000000 12.000000 9.290000 12.000000 9.930000 C 11.000000 9.930000 11.000000 13.930000 12.000000 13.930000 C 12.000000 18.690001 15.000000 19.930000 15.000000 19.930000 L 15.000000 24.930000 C 10.000000 27.040001 3.000000 28.440001 2.140000 30.930000 C 1.473565 33.547943 1.091356 36.230110 1.000000 38.930000 L 22.000000 38.930000" stroke="#231F20" stroke-width="2.000000" stroke-linejoin="round" fill="none"/></g></svg>