<svg version="1.1" viewBox="0.000000 0.000000 48.000000 48.000000" xmlns="http://www.w3.org/2000/svg" xmlns:xlink="http://www.w3.org/1999/xlink" overflow="hidden"><defs></defs><g id="icons"><path d=" M 39.560001 8.450000 C 38.819759 7.630172 37.555077 7.565655 36.735249 8.305896 C 35.915421 9.046137 35.850903 10.310822 36.591145 11.130650 C 36.635117 11.179349 36.681458 11.225856 36.730003 11.270000 C 37.511486 12.051482 37.511486 13.318517 36.730003 14.099999 C 35.948521 14.881482 34.681488 14.881482 33.900002 14.099999 C 33.118519 13.318517 31.851484 13.318517 31.070002 14.099999 C 30.288519 14.881482 30.288519 16.148516 31.070002 16.930000 C 31.851484 17.711483 31.851484 18.978518 31.070002 19.760000 C 30.288519 20.541483 29.021484 20.541483 28.240002 19.760000 C 27.458519 18.978518 26.191484 18.978518 25.410002 19.760000 C 24.628519 20.541483 24.628519 21.808517 25.410002 22.590000 C 26.128475 23.428968 26.030796 24.691526 25.191828 25.410000 C 24.443073 26.051216 23.338757 26.051216 22.590002 25.410000 C 21.808519 24.628517 20.541485 24.628517 19.760002 25.410000 C 18.978519 26.191483 18.978519 27.458517 19.760002 28.240000 C 20.541485 29.021482 20.541485 30.288517 19.760002 31.070000 C 18.978519 31.851482 17.711485 31.851482 16.930002 31.070000 C 16.148520 30.288517 14.881485 30.288517 14.100002 31.070000 C 13.318520 31.851482 13.318520 33.118515 14.100002 33.900002 C 14.881485 34.681484 14.881485 35.948517 14.100002 36.730003 C 13.318520 37.511486 12.051485 37.511486 11.270002 36.730003 C 10.488520 35.948521 9.221485 35.948521 8.440002 36.730003 C 7.658520 37.511486 7.658520 38.778519 8.440002 39.560005" stroke="#231F20" stroke-width="2.000000" stroke-linecap="round" stroke-linejoin="round" fill="none"/><path d=" M 5.620000 33.900002 C 3.294572 36.260731 3.323190 40.059612 5.683920 42.385040 C 8.017578 44.683800 11.763634 44.686008 14.099999 42.389999 L 42.389999 14.100000 C 44.712643 11.736531 44.679550 7.937685 42.316078 5.615041 C 39.979713 3.319032 36.233658 3.321239 33.899998 5.620000 Z" stroke="#231F20" stroke-width="2.000000" stroke-linecap="round" stroke-linejoin="round" fill="none"/><path d=" M 43.939999 11.390000 C 48.090000 15.700000 47.349998 20.450001 44.509998 23.290001 L 23.299999 44.509998 C 20.420000 47.380001 15.450000 48.070000 11.420000 43.939999" stroke="#231F20" stroke-width="2.000000" stroke-linejoin="round" fill="none"/><path d=" M 4.060000 36.599998 C -0.090000 32.349998 0.650000 27.540001 3.490000 24.709999 L 24.709999 3.490000 C 27.530001 0.670000 31.860001 -0.120000 36.660000 4.000000" stroke="#231F20" stroke-width="2.000000" stroke-linecap="round" stroke-linejoin="round" fill="none"/></g></svg>