<svg version="1.1" viewBox="0.000000 0.000000 48.000000 48.000000" xmlns="http://www.w3.org/2000/svg" xmlns:xlink="http://www.w3.org/1999/xlink" overflow="hidden"><defs></defs><g id="icons"><path d=" M 38.000000 34.700001 C 38.003040 32.925293 38.438976 31.178120 39.270000 29.610001 L 43.560001 21.610001 C 44.427090 20.196152 43.983849 18.347088 42.570000 17.480001 C 41.156151 16.612915 39.307087 17.056152 38.439999 18.470001 L 33.000000 27.000000 L 36.230000 9.360000 C 36.650780 7.757468 35.692783 6.117248 34.090252 5.696466 C 32.487720 5.275684 30.847500 6.233682 30.426718 7.836214 C 30.403866 7.923247 30.384939 8.011265 30.369999 8.099999 L 27.000000 23.000000 L 27.000000 4.000000 C 27.000000 2.343146 25.656855 1.000000 24.000000 1.000000 C 22.343145 1.000000 21.000000 2.343146 21.000000 4.000000 L 21.000000 23.000000 L 17.629999 7.370000 C 17.354902 5.736143 15.807389 4.634651 14.173532 4.909748 C 12.539676 5.184844 11.438184 6.732357 11.713281 8.366214 C 11.728221 8.454948 11.747147 8.542966 11.770000 8.630000 L 15.000000 31.000000 L 9.000000 25.790001 C 7.905612 24.546022 6.009993 24.424755 4.766014 25.519142 C 3.522036 26.613529 3.400768 28.509150 4.495156 29.753128 C 4.645554 29.924084 4.814926 30.077362 5.000000 30.210001 L 15.520000 44.209999 C 17.210279 45.983135 19.550312 46.990650 22.000000 47.000000 L 29.000000 47.000000 C 36.110001 47.000000 38.000000 41.450001 38.000000 34.700001 Z" stroke="#231F20" stroke-width="2.000000" stroke-linecap="round" stroke-linejoin="round" fill="none"/></g></svg>