<svg version="1.1" viewBox="0.000000 0.000000 48.000000 48.000000" xmlns="http://www.w3.org/2000/svg" xmlns:xlink="http://www.w3.org/1999/xlink" overflow="hidden"><defs></defs><g id="icons"><path d=" M 19.000000 43.930000 L 37.000000 43.930000 C 37.000000 43.930000 37.000000 37.259998 36.000000 34.400002 C 35.180000 31.920000 29.209999 30.290001 23.000000 27.930000 L 23.000000 22.930000 C 23.000000 22.930000 26.000000 21.690001 26.000000 16.930000 C 27.559999 16.930000 27.559999 12.930000 26.000000 12.930000 C 26.000000 12.460000 27.660000 9.570000 27.000000 6.930000 C 26.049999 3.120000 15.000000 3.120000 14.000000 6.930000 C 9.260000 5.980000 12.000000 12.290000 12.000000 12.930000 C 10.430000 12.930000 10.430000 16.930000 12.000000 16.930000 C 12.000000 21.690001 15.000000 22.930000 15.000000 22.930000 L 15.000000 27.930000 C 9.440000 30.000000 2.770000 31.920000 2.000000 34.400002 C 1.000000 37.259998 1.000000 43.930000 1.000000 43.930000 Z" stroke="#231F20" stroke-width="2.000000" stroke-linejoin="round" fill="none"/><path d=" M 43.000000 43.930000 L 47.000000 43.930000 C 47.000000 43.930000 47.000000 37.259998 46.000000 34.400002 C 45.180000 31.920000 39.209999 29.290001 33.000000 26.930000 L 33.000000 23.930000 C 33.000000 23.930000 36.000000 22.690001 36.000000 17.930000 C 37.560001 17.930000 37.560001 13.930000 36.000000 13.930000 C 36.000000 13.460000 37.660000 10.210000 37.000000 7.560000 C 36.560001 5.780000 33.000000 2.930000 30.000000 4.930000" stroke="#231F20" stroke-width="2.000000" stroke-linecap="round" stroke-linejoin="round" fill="none"/></g></svg>