<svg version="1.1" viewBox="0.000000 0.000000 48.000000 48.000000" xmlns="http://www.w3.org/2000/svg" xmlns:xlink="http://www.w3.org/1999/xlink" overflow="hidden"><defs></defs><g id="icons"><path d=" M 38.000000 32.169998 C 40.000000 31.730000 46.000000 29.799999 46.000000 22.719999 C 46.003750 17.445681 41.731110 13.166963 36.456791 13.163214 C 36.334496 13.163127 36.212208 13.165389 36.090000 13.169999 C 32.940609 6.491266 24.973339 3.630169 18.294605 6.779561 C 13.868604 8.866665 10.936387 13.204972 10.650001 18.089998 C 6.775399 17.272608 2.971788 19.750967 2.154397 23.625568 C 2.052809 24.107119 2.001070 24.597851 2.000001 25.089998 C 2.000000 32.380001 9.650000 32.259998 9.650000 32.259998" stroke="#231F20" stroke-width="2.000000" stroke-linecap="round" stroke-miterlimit="10.000000" fill="none"/><circle cx="24.000000" cy="32.500000" r="10.000000" stroke="#231F20" stroke-width="2.000000" stroke-linecap="round" stroke-miterlimit="10.000000" fill="none"/><line x1="24.000000" y1="28.500000" x2="24.000000" y2="36.500000" stroke="#231F20" stroke-width="2.000000" stroke-linecap="round" stroke-miterlimit="10.000000" fill="none"/><line x1="28.000000" y1="32.500000" x2="20.000000" y2="32.500000" stroke="#231F20" stroke-width="2.000000" stroke-linecap="round" stroke-miterlimit="10.000000" fill="none"/></g></svg>