<svg version="1.1" viewBox="0.000000 0.000000 48.000000 48.000000" xmlns="http://www.w3.org/2000/svg" xmlns:xlink="http://www.w3.org/1999/xlink" overflow="hidden"><defs></defs><g id="icons"><path d=" M 15.000000 28.500000 L 15.000000 10.500000 C 15.000000 8.843145 16.343145 7.500000 18.000000 7.500000 C 19.656855 7.500000 21.000000 8.843145 21.000000 10.500000 L 21.000000 20.500000" stroke="#231F20" stroke-width="2.000000" stroke-linecap="round" stroke-linejoin="round" fill="none"/><path d=" M 39.000000 21.500000 L 39.000000 32.500000 C 39.000000 38.022846 34.522846 42.500000 29.000000 42.500000 L 22.330000 42.500000 C 15.000000 42.500000 9.000000 34.500000 9.000000 30.500000 L 9.000000 22.500000 C 9.000000 20.843145 10.343145 19.500000 12.000000 19.500000 L 15.000000 19.500000" stroke="#231F20" stroke-width="2.000000" stroke-linecap="round" stroke-linejoin="round" fill="none"/><path d=" M 21.000000 16.500000 L 21.000000 8.500000 C 21.000000 6.843146 22.343145 5.500000 24.000000 5.500000 C 25.656855 5.500000 27.000000 6.843146 27.000000 8.500000 L 27.000000 16.500000" stroke="#231F20" stroke-width="2.000000" stroke-linecap="round" stroke-linejoin="round" fill="none"/><path d=" M 27.000000 20.500000 L 27.000000 10.500000 C 27.000000 8.843145 28.343145 7.500000 30.000000 7.500000 C 31.656855 7.500000 33.000000 8.843145 33.000000 10.500000 L 33.000000 20.500000" stroke="#231F20" stroke-width="2.000000" stroke-linecap="round" stroke-linejoin="round" fill="none"/><path d=" M 33.000000 22.500000 L 33.000000 14.500000 C 33.000000 12.843145 34.343147 11.500000 36.000000 11.500000 C 37.656853 11.500000 39.000000 12.843145 39.000000 14.500000 L 39.000000 26.500000" stroke="#231F20" stroke-width="2.000000" stroke-linecap="round" stroke-linejoin="round" fill="none"/></g></svg>