<svg version="1.1" viewBox="0.000000 0.000000 48.000000 48.000000" xmlns="http://www.w3.org/2000/svg" xmlns:xlink="http://www.w3.org/1999/xlink" overflow="hidden"><defs></defs><g id="icons"><path d=" M 28.980000 6.990000 L 44.980000 6.970000 L 45.000000 30.969999 L 3.000000 31.010000 L 2.980000 7.010000 L 18.980000 7.000000" stroke="#202020" stroke-width="2.000000" stroke-linecap="round" stroke-linejoin="round" fill="none"/><rect x="18.980000" y="4.990000" width="10.000000" height="4.000000" stroke="#202020" stroke-width="2.000000" stroke-linecap="round" stroke-linejoin="round" fill="none"/><path d=" M 45.000000 31.000000 L 3.000000 31.000000 C 1.895430 31.000000 1.000000 31.895430 1.000000 33.000000 C 1.000000 34.104568 1.895430 35.000000 3.000000 35.000000 L 45.000000 35.000000 C 46.104568 35.000000 47.000000 34.104568 47.000000 33.000000 C 47.000000 31.895430 46.104568 31.000000 45.000000 31.000000 Z" stroke="#202020" stroke-width="2.000000" stroke-linecap="round" stroke-linejoin="round" fill="none"/><line x1="24.000000" y1="34.990000" x2="24.010000" y2="46.990000" stroke="#202020" stroke-width="2.000000" stroke-linecap="round" stroke-linejoin="round" fill="none"/><line x1="8.010000" y1="47.010000" x2="14.000000" y2="35.000000" stroke="#202020" stroke-width="2.000000" stroke-linecap="round" stroke-linejoin="round" fill="none"/><line x1="40.010000" y1="46.980000" x2="34.000000" y2="34.980000" stroke="#202020" stroke-width="2.000000" stroke-linecap="round" stroke-linejoin="round" fill="none"/><line x1="23.970000" y1="0.990000" x2="23.970000" y2="4.990000" stroke="#202020" stroke-width="2.000000" stroke-linecap="round" stroke-linejoin="round" fill="none"/></g></svg>