<svg version="1.1" viewBox="0.000000 0.000000 48.000000 48.000000" xmlns="http://www.w3.org/2000/svg" xmlns:xlink="http://www.w3.org/1999/xlink" overflow="hidden"><defs></defs><g id="icons"><path d=" M 10.750000 31.850000 L 22.900000 31.850000 L 22.900000 42.849998 L 11.900000 42.849998 C 10.607995 42.604607 9.451295 41.892792 8.650000 40.849998 L 8.090000 39.650002" stroke="#231F20" stroke-width="2.000000" stroke-linejoin="round" fill="none"/><path d=" M 8.750000 40.930000 C 8.750000 40.930000 5.000000 37.840000 13.900000 27.850000 L 17.900000 27.850000 L 11.900000 19.850000 L 0.900000 19.850000 L 3.900000 21.850000 C 2.609494 22.767660 1.859825 24.266998 1.900000 25.850000 C 1.900000 28.209999 5.700000 36.500000 8.750000 40.930000 Z" stroke="#231F20" stroke-width="2.000000" stroke-linejoin="round" fill="none"/><path d=" M 38.520000 31.100000 L 31.629999 21.160000 L 40.299999 15.160000 L 46.669998 24.370001 C 47.188755 25.344679 47.243793 26.500441 46.820000 27.520000 L 46.230000 28.600000" stroke="#231F20" stroke-width="2.000000" stroke-linejoin="round" fill="none"/><path d=" M 46.820000 27.520000 C 46.820000 27.520000 46.169998 32.470001 32.900002 30.850000 L 32.900002 27.850000 L 26.900000 36.849998 L 32.529999 46.849998 L 32.900002 42.160000 C 34.253265 43.074707 36.026737 43.074707 37.380001 42.160000 C 39.310001 40.810001 44.110001 32.450001 46.820000 27.520000 Z" stroke="#231F20" stroke-width="2.000000" stroke-linejoin="round" fill="none"/><path d=" M 22.920000 7.050000 L 17.920000 17.600000 L 8.410000 13.100000 L 13.190000 3.000000 C 13.786148 2.033843 14.777390 1.379111 15.900000 1.210000 L 17.139999 1.210000" stroke="#231F20" stroke-width="2.000000" stroke-linejoin="round" fill="none"/><path d=" M 15.900000 1.210000 C 15.900000 1.210000 20.530001 0.210000 25.780001 12.550000 C 23.900000 14.060000 23.900000 13.850000 23.900000 13.850000 L 34.900002 13.850000 L 39.900002 4.060000 L 35.840000 5.560000 C 35.658875 4.010389 34.663548 2.675662 33.230000 2.060000 C 31.100000 1.060000 21.530001 1.090000 15.900000 1.210000 Z" stroke="#231F20" stroke-width="2.000000" stroke-linejoin="round" fill="none"/></g></svg>