<svg version="1.1" viewBox="0.000000 0.000000 48.000000 48.000000" xmlns="http://www.w3.org/2000/svg" xmlns:xlink="http://www.w3.org/1999/xlink" overflow="hidden"><defs></defs><g id="icons"><line x1="22.000000" y1="1.000000" x2="26.000000" y2="1.000000" stroke="#231F20" stroke-width="2.000000" stroke-linecap="round" stroke-linejoin="round" fill="none"/><line x1="24.000000" y1="1.000000" x2="24.000000" y2="7.000000" stroke="#231F20" stroke-width="2.000000" stroke-linecap="round" stroke-linejoin="round" fill="none"/><line x1="40.000000" y1="7.000000" x2="43.000000" y2="10.000000" stroke="#231F20" stroke-width="2.000000" stroke-linecap="round" stroke-linejoin="round" fill="none"/><line x1="41.500000" y1="8.500000" x2="37.630000" y2="12.370000" stroke="#231F20" stroke-width="2.000000" stroke-linecap="round" stroke-linejoin="round" fill="none"/><line x1="14.000000" y1="17.000000" x2="17.000000" y2="20.000000" stroke="#231F20" stroke-width="2.000000" stroke-linecap="round" stroke-linejoin="round" fill="none"/><line x1="24.000000" y1="41.000000" x2="24.000000" y2="37.000000" stroke="#231F20" stroke-width="2.000000" stroke-linecap="round" stroke-linejoin="round" fill="none"/><line x1="14.000000" y1="37.000000" x2="17.000000" y2="34.000000" stroke="#231F20" stroke-width="2.000000" stroke-linecap="round" stroke-linejoin="round" fill="none"/><line x1="38.000000" y1="27.000000" x2="34.000000" y2="27.000000" stroke="#231F20" stroke-width="2.000000" stroke-linecap="round" stroke-linejoin="round" fill="none"/><line x1="34.000000" y1="37.000000" x2="31.000000" y2="34.000000" stroke="#231F20" stroke-width="2.000000" stroke-linecap="round" stroke-linejoin="round" fill="none"/><line x1="34.000000" y1="17.000000" x2="31.000000" y2="20.000000" stroke="#231F20" stroke-width="2.000000" stroke-linecap="round" stroke-linejoin="round" fill="none"/><path d=" M 24.000000 7.000000 L 24.000000 27.000000 L 4.000000 27.000000 C 4.000000 38.045696 12.954305 47.000000 24.000000 47.000000 C 35.045696 47.000000 44.000000 38.045696 44.000000 27.000000 C 44.000000 15.954305 35.045696 7.000000 24.000000 7.000000 Z" stroke="#231F20" stroke-width="2.000000" stroke-linecap="round" stroke-linejoin="round" fill="none"/></g></svg>