<svg version="1.1" viewBox="0.000000 0.000000 48.000000 48.000000" xmlns="http://www.w3.org/2000/svg" xmlns:xlink="http://www.w3.org/1999/xlink" overflow="hidden"><defs></defs><g id="icons"><path d=" M 8.000000 25.000000 C 10.209139 25.000000 12.000000 23.209139 12.000000 21.000000 C 12.000000 18.790861 10.209139 17.000000 8.000000 17.000000 C 5.790861 17.000000 4.000000 18.790861 4.000000 21.000000 C 4.000000 23.209139 5.790861 25.000000 8.000000 25.000000 Z" stroke="#231F20" stroke-width="2.000000" stroke-miterlimit="10.000000" fill="none"/><path d=" M 8.000000 29.000000 L 15.000000 29.000000 C 15.000000 34.330002 14.500000 38.000000 11.000000 38.900002 L 11.000000 47.000000 L 5.000000 47.000000 L 5.000000 38.900002 C 1.500000 38.000000 1.000000 34.330002 1.000000 29.000000 Z" stroke="#231F20" stroke-width="2.000000" stroke-miterlimit="10.000000" fill="none"/><path d=" M 40.000000 25.000000 C 42.209141 25.000000 44.000000 23.209139 44.000000 21.000000 C 44.000000 18.790861 42.209141 17.000000 40.000000 17.000000 C 37.790859 17.000000 36.000000 18.790861 36.000000 21.000000 C 36.000000 23.209139 37.790859 25.000000 40.000000 25.000000 Z" stroke="#231F20" stroke-width="2.000000" stroke-miterlimit="10.000000" fill="none"/><path d=" M 40.000000 29.000000 L 47.000000 29.000000 C 47.000000 34.330002 46.500000 38.000000 43.000000 38.900002 L 43.000000 47.000000 L 37.000000 47.000000 L 37.000000 38.900002 C 33.500000 38.000000 33.000000 34.330002 33.000000 29.000000 Z" stroke="#231F20" stroke-width="2.000000" stroke-miterlimit="10.000000" fill="none"/><path d=" M 24.000000 9.000000 C 26.209139 9.000000 28.000000 7.209139 28.000000 5.000000 C 28.000000 2.790861 26.209139 1.000000 24.000000 1.000000 C 21.790861 1.000000 20.000000 2.790861 20.000000 5.000000 C 20.000000 7.209139 21.790861 9.000000 24.000000 9.000000 Z" stroke="#231F20" stroke-width="2.000000" stroke-miterlimit="10.000000" fill="none"/><path d=" M 24.000000 13.000000 L 31.000000 13.000000 C 31.000000 18.330000 30.500000 22.000000 27.000000 22.900000 L 27.000000 31.000000 L 21.000000 31.000000 L 21.000000 22.900000 C 17.500000 22.000000 17.000000 18.330000 17.000000 13.000000 Z" stroke="#231F20" stroke-width="2.000000" stroke-miterlimit="10.000000" fill="none"/></g></svg>