<svg version="1.1" viewBox="0.000000 0.000000 48.000000 48.000000" xmlns="http://www.w3.org/2000/svg" xmlns:xlink="http://www.w3.org/1999/xlink" overflow="hidden"><defs></defs><g id="icons"><line x1="40.400000" y1="33.390000" x2="33.330000" y2="40.460000" stroke="#231F20" stroke-width="2.000000" stroke-linecap="round" stroke-linejoin="round" fill="none"/><line x1="40.400000" y1="40.460000" x2="33.330000" y2="33.390000" stroke="#231F20" stroke-width="2.000000" stroke-linecap="round" stroke-linejoin="round" fill="none"/><circle cx="37.000000" cy="36.930000" r="10.000000" stroke="#231F20" stroke-width="2.000000" stroke-miterlimit="10.000000" fill="none"/><path d=" M 27.930000 26.639999 C 26.379999 26.120001 24.700001 25.570000 23.000000 24.930000 L 23.000000 19.930000 C 23.000000 19.930000 26.000000 18.690001 26.000000 13.930000 C 27.570000 13.930000 27.570000 9.790000 26.000000 9.790000 C 26.000000 9.320000 27.660000 6.570000 27.000000 3.930000 C 26.049999 0.120000 15.000000 0.120000 14.000000 3.930000 C 9.260000 2.930000 12.000000 9.290000 12.000000 9.930000 C 10.430000 9.930000 10.430000 13.930000 12.000000 13.930000 C 12.000000 18.690001 15.000000 19.930000 15.000000 19.930000 L 15.000000 24.930000 C 9.440000 27.000000 2.830000 28.440001 2.000000 30.930000 C 1.352323 33.547897 1.016657 36.233227 1.000000 38.930000 L 22.000000 38.930000" stroke="#231F20" stroke-width="2.000000" stroke-linejoin="round" fill="none"/></g></svg>