<svg version="1.1" viewBox="0.000000 0.000000 48.000000 48.000000" xmlns="http://www.w3.org/2000/svg" xmlns:xlink="http://www.w3.org/1999/xlink" overflow="hidden"><defs></defs><g id="icons"><path d=" M 1.000000 4.000000 C 0.447715 4.000000 0.000000 4.447715 0.000000 5.000000 C 0.000000 5.552285 0.447715 6.000000 1.000000 6.000000 C 1.552285 6.000000 2.000000 5.552285 2.000000 5.000000 C 2.000000 4.447715 1.552285 4.000000 1.000000 4.000000 Z" fill="#231F20"/><path d=" M 1.000000 8.000000 C 0.447715 8.000000 0.000000 8.447715 0.000000 9.000000 C 0.000000 9.552285 0.447715 10.000000 1.000000 10.000000 C 1.552285 10.000000 2.000000 9.552285 2.000000 9.000000 C 2.000000 8.447715 1.552285 8.000000 1.000000 8.000000 Z" fill="#231F20"/><path d=" M 1.000000 12.000000 C 0.447715 12.000000 0.000000 12.447715 0.000000 13.000000 C 0.000000 13.552285 0.447715 14.000000 1.000000 14.000000 C 1.552285 14.000000 2.000000 13.552285 2.000000 13.000000 C 2.000000 12.447715 1.552285 12.000000 1.000000 12.000000 Z" fill="#231F20"/><path d=" M 1.000000 16.000000 C 0.447715 16.000000 0.000000 16.447716 0.000000 17.000000 C 0.000000 17.552284 0.447715 18.000000 1.000000 18.000000 C 1.552285 18.000000 2.000000 17.552284 2.000000 17.000000 C 2.000000 16.447716 1.552285 16.000000 1.000000 16.000000 Z" fill="#231F20"/><path d=" M 1.000000 20.000000 C 0.447715 20.000000 0.000000 20.447716 0.000000 21.000000 C 0.000000 21.552284 0.447715 22.000000 1.000000 22.000000 C 1.552285 22.000000 2.000000 21.552284 2.000000 21.000000 C 2.000000 20.447716 1.552285 20.000000 1.000000 20.000000 Z" fill="#231F20"/><path d=" M 1.000000 24.000000 C 0.447715 24.000000 0.000000 24.447716 0.000000 25.000000 C 0.000000 25.552284 0.447715 26.000000 1.000000 26.000000 C 1.552285 26.000000 2.000000 25.552284 2.000000 25.000000 C 2.000000 24.447716 1.552285 24.000000 1.000000 24.000000 Z" fill="#231F20"/><path d=" M 1.000000 28.000000 C 0.447715 28.000000 0.000000 28.447716 0.000000 29.000000 C 0.000000 29.552284 0.447715 30.000000 1.000000 30.000000 C 1.552285 30.000000 2.000000 29.552284 2.000000 29.000000 C 2.000000 28.447716 1.552285 28.000000 1.000000 28.000000 Z" fill="#231F20"/><path d=" M 1.000000 32.000000 C 0.447715 32.000000 0.000000 32.447716 0.000000 33.000000 C 0.000000 33.552284 0.447715 34.000000 1.000000 34.000000 C 1.552285 34.000000 2.000000 33.552284 2.000000 33.000000 C 2.000000 32.447716 1.552285 32.000000 1.000000 32.000000 Z" fill="#231F20"/><path d=" M 1.000000 36.000000 C 0.447715 36.000000 0.000000 36.447716 0.000000 37.000000 C 0.000000 37.552284 0.447715 38.000000 1.000000 38.000000 C 1.552285 38.000000 2.000000 37.552284 2.000000 37.000000 C 2.000000 36.447716 1.552285 36.000000 1.000000 36.000000 Z" fill="#231F20"/><path d=" M 3.000000 40.000000 C 2.447715 40.000000 2.000000 40.447716 2.000000 41.000000 C 2.000000 41.552284 2.447715 42.000000 3.000000 42.000000 C 3.552285 42.000000 4.000000 41.552284 4.000000 41.000000 C 4.000000 40.447716 3.552285 40.000000 3.000000 40.000000 Z" fill="#231F20"/><path d=" M 19.000000 42.000000 C 18.447716 42.000000 18.000000 42.447716 18.000000 43.000000 C 18.000000 43.552284 18.447716 44.000000 19.000000 44.000000 C 19.552284 44.000000 20.000000 43.552284 20.000000 43.000000 C 20.000000 42.447716 19.552284 42.000000 19.000000 42.000000 Z" fill="#231F20"/><path d=" M 15.000000 42.000000 C 14.447715 42.000000 14.000000 42.447716 14.000000 43.000000 C 14.000000 43.552284 14.447715 44.000000 15.000000 44.000000 C 15.552285 44.000000 16.000000 43.552284 16.000000 43.000000 C 16.000000 42.447716 15.552285 42.000000 15.000000 42.000000 Z" fill="#231F20"/><path d=" M 23.000000 42.000000 C 22.447716 42.000000 22.000000 42.447716 22.000000 43.000000 C 22.000000 43.552284 22.447716 44.000000 23.000000 44.000000 C 23.552284 44.000000 24.000000 43.552284 24.000000 43.000000 C 24.000000 42.447716 23.552284 42.000000 23.000000 42.000000 Z" fill="#231F20"/><path d=" M 27.000000 42.000000 C 26.447716 42.000000 26.000000 42.447716 26.000000 43.000000 C 26.000000 43.552284 26.447716 44.000000 27.000000 44.000000 C 27.552284 44.000000 28.000000 43.552284 28.000000 43.000000 C 28.000000 42.447716 27.552284 42.000000 27.000000 42.000000 Z" fill="#231F20"/><path d=" M 31.000000 42.000000 C 30.447716 42.000000 30.000000 42.447716 30.000000 43.000000 C 30.000000 43.552284 30.447716 44.000000 31.000000 44.000000 C 31.552284 44.000000 32.000000 43.552284 32.000000 43.000000 C 32.000000 42.447716 31.552284 42.000000 31.000000 42.000000 Z" fill="#231F20"/><path d=" M 35.000000 42.000000 C 34.447716 42.000000 34.000000 42.447716 34.000000 43.000000 C 34.000000 43.552284 34.447716 44.000000 35.000000 44.000000 C 35.552284 44.000000 36.000000 43.552284 36.000000 43.000000 C 36.000000 42.447716 35.552284 42.000000 35.000000 42.000000 Z" fill="#231F20"/><path d=" M 39.000000 42.000000 C 38.447716 42.000000 38.000000 42.447716 38.000000 43.000000 C 38.000000 43.552284 38.447716 44.000000 39.000000 44.000000 C 39.552284 44.000000 40.000000 43.552284 40.000000 43.000000 C 40.000000 42.447716 39.552284 42.000000 39.000000 42.000000 Z" fill="#231F20"/><path d=" M 43.000000 42.000000 C 42.447716 42.000000 42.000000 42.447716 42.000000 43.000000 C 42.000000 43.552284 42.447716 44.000000 43.000000 44.000000 C 43.552284 44.000000 44.000000 43.552284 44.000000 43.000000 C 44.000000 42.447716 43.552284 42.000000 43.000000 42.000000 Z" fill="#231F20"/><path d=" M 47.000000 40.000000 C 46.447716 40.000000 46.000000 40.447716 46.000000 41.000000 C 46.000000 41.552284 46.447716 42.000000 47.000000 42.000000 C 47.552284 42.000000 48.000000 41.552284 48.000000 41.000000 C 48.000000 40.447716 47.552284 40.000000 47.000000 40.000000 Z" fill="#231F20"/><path d=" M 47.000000 36.000000 C 46.447716 36.000000 46.000000 36.447716 46.000000 37.000000 C 46.000000 37.552284 46.447716 38.000000 47.000000 38.000000 C 47.552284 38.000000 48.000000 37.552284 48.000000 37.000000 C 48.000000 36.447716 47.552284 36.000000 47.000000 36.000000 Z" fill="#231F20"/><path d=" M 47.000000 32.000000 C 46.447716 32.000000 46.000000 32.447716 46.000000 33.000000 C 46.000000 33.552284 46.447716 34.000000 47.000000 34.000000 C 47.552284 34.000000 48.000000 33.552284 48.000000 33.000000 C 48.000000 32.447716 47.552284 32.000000 47.000000 32.000000 Z" fill="#231F20"/><path d=" M 47.000000 28.000000 C 46.447716 28.000000 46.000000 28.447716 46.000000 29.000000 C 46.000000 29.552284 46.447716 30.000000 47.000000 30.000000 C 47.552284 30.000000 48.000000 29.552284 48.000000 29.000000 C 48.000000 28.447716 47.552284 28.000000 47.000000 28.000000 Z" fill="#231F20"/><path d=" M 47.000000 24.000000 C 46.447716 24.000000 46.000000 24.447716 46.000000 25.000000 C 46.000000 25.552284 46.447716 26.000000 47.000000 26.000000 C 47.552284 26.000000 48.000000 25.552284 48.000000 25.000000 C 48.000000 24.447716 47.552284 24.000000 47.000000 24.000000 Z" fill="#231F20"/><path d=" M 47.000000 20.000000 C 46.447716 20.000000 46.000000 20.447716 46.000000 21.000000 C 46.000000 21.552284 46.447716 22.000000 47.000000 22.000000 C 47.552284 22.000000 48.000000 21.552284 48.000000 21.000000 C 48.000000 20.447716 47.552284 20.000000 47.000000 20.000000 Z" fill="#231F20"/><path d=" M 47.000000 16.000000 C 46.447716 16.000000 46.000000 16.447716 46.000000 17.000000 C 46.000000 17.552284 46.447716 18.000000 47.000000 18.000000 C 47.552284 18.000000 48.000000 17.552284 48.000000 17.000000 C 48.000000 16.447716 47.552284 16.000000 47.000000 16.000000 Z" fill="#231F20"/><path d=" M 47.000000 12.000000 C 46.447716 12.000000 46.000000 12.447715 46.000000 13.000000 C 46.000000 13.552285 46.447716 14.000000 47.000000 14.000000 C 47.552284 14.000000 48.000000 13.552285 48.000000 13.000000 C 48.000000 12.447715 47.552284 12.000000 47.000000 12.000000 Z" fill="#231F20"/><path d=" M 43.000000 12.000000 C 42.447716 12.000000 42.000000 12.447715 42.000000 13.000000 C 42.000000 13.552285 42.447716 14.000000 43.000000 14.000000 C 43.552284 14.000000 44.000000 13.552285 44.000000 13.000000 C 44.000000 12.447715 43.552284 12.000000 43.000000 12.000000 Z" fill="#231F20"/><path d=" M 39.000000 12.000000 C 38.447716 12.000000 38.000000 12.447715 38.000000 13.000000 C 38.000000 13.552285 38.447716 14.000000 39.000000 14.000000 C 39.552284 14.000000 40.000000 13.552285 40.000000 13.000000 C 40.000000 12.447715 39.552284 12.000000 39.000000 12.000000 Z" fill="#231F20"/><path d=" M 35.000000 12.000000 C 34.447716 12.000000 34.000000 12.447715 34.000000 13.000000 C 34.000000 13.552285 34.447716 14.000000 35.000000 14.000000 C 35.552284 14.000000 36.000000 13.552285 36.000000 13.000000 C 36.000000 12.447715 35.552284 12.000000 35.000000 12.000000 Z" fill="#231F20"/><path d=" M 31.000000 12.000000 C 30.447716 12.000000 30.000000 12.447715 30.000000 13.000000 C 30.000000 13.552285 30.447716 14.000000 31.000000 14.000000 C 31.552284 14.000000 32.000000 13.552285 32.000000 13.000000 C 32.000000 12.447715 31.552284 12.000000 31.000000 12.000000 Z" fill="#231F20"/><path d=" M 27.000000 12.000000 C 26.447716 12.000000 26.000000 12.447715 26.000000 13.000000 C 26.000000 13.552285 26.447716 14.000000 27.000000 14.000000 C 27.552284 14.000000 28.000000 13.552285 28.000000 13.000000 C 28.000000 12.447715 27.552284 12.000000 27.000000 12.000000 Z" fill="#231F20"/><path d=" M 23.000000 12.000000 C 22.447716 12.000000 22.000000 12.447715 22.000000 13.000000 C 22.000000 13.552285 22.447716 14.000000 23.000000 14.000000 C 23.552284 14.000000 24.000000 13.552285 24.000000 13.000000 C 24.000000 12.447715 23.552284 12.000000 23.000000 12.000000 Z" fill="#231F20"/><path d=" M 19.000000 12.000000 C 18.447716 12.000000 18.000000 12.447715 18.000000 13.000000 C 18.000000 13.552285 18.447716 14.000000 19.000000 14.000000 C 19.552284 14.000000 20.000000 13.552285 20.000000 13.000000 C 20.000000 12.447715 19.552284 12.000000 19.000000 12.000000 Z" fill="#231F20"/><path d=" M 15.000000 12.000000 C 14.447715 12.000000 14.000000 12.447715 14.000000 13.000000 C 14.000000 13.552285 14.447715 14.000000 15.000000 14.000000 C 15.552285 14.000000 16.000000 13.552285 16.000000 13.000000 C 16.000000 12.447715 15.552285 12.000000 15.000000 12.000000 Z" fill="#231F20"/><path d=" M 11.000000 12.000000 C 10.447715 12.000000 10.000000 12.447715 10.000000 13.000000 C 10.000000 13.552285 10.447715 14.000000 11.000000 14.000000 C 11.552285 14.000000 12.000000 13.552285 12.000000 13.000000 C 12.000000 12.447715 11.552285 12.000000 11.000000 12.000000 Z" fill="#231F20"/><path d=" M 11.000000 16.000000 C 10.447715 16.000000 10.000000 16.447716 10.000000 17.000000 C 10.000000 17.552284 10.447715 18.000000 11.000000 18.000000 C 11.552285 18.000000 12.000000 17.552284 12.000000 17.000000 C 12.000000 16.447716 11.552285 16.000000 11.000000 16.000000 Z" fill="#231F20"/><path d=" M 11.000000 20.000000 C 10.447715 20.000000 10.000000 20.447716 10.000000 21.000000 C 10.000000 21.552284 10.447715 22.000000 11.000000 22.000000 C 11.552285 22.000000 12.000000 21.552284 12.000000 21.000000 C 12.000000 20.447716 11.552285 20.000000 11.000000 20.000000 Z" fill="#231F20"/><path d=" M 11.000000 24.000000 C 10.447715 24.000000 10.000000 24.447716 10.000000 25.000000 C 10.000000 25.552284 10.447715 26.000000 11.000000 26.000000 C 11.552285 26.000000 12.000000 25.552284 12.000000 25.000000 C 12.000000 24.447716 11.552285 24.000000 11.000000 24.000000 Z" fill="#231F20"/><path d=" M 11.000000 28.000000 C 10.447715 28.000000 10.000000 28.447716 10.000000 29.000000 C 10.000000 29.552284 10.447715 30.000000 11.000000 30.000000 C 11.552285 30.000000 12.000000 29.552284 12.000000 29.000000 C 12.000000 28.447716 11.552285 28.000000 11.000000 28.000000 Z" fill="#231F20"/><path d=" M 11.000000 32.000000 C 10.447715 32.000000 10.000000 32.447716 10.000000 33.000000 C 10.000000 33.552284 10.447715 34.000000 11.000000 34.000000 C 11.552285 34.000000 12.000000 33.552284 12.000000 33.000000 C 12.000000 32.447716 11.552285 32.000000 11.000000 32.000000 Z" fill="#231F20"/><path d=" M 11.000000 36.000000 C 10.447715 36.000000 10.000000 36.447716 10.000000 37.000000 C 10.000000 37.552284 10.447715 38.000000 11.000000 38.000000 C 11.552285 38.000000 12.000000 37.552284 12.000000 37.000000 C 12.000000 36.447716 11.552285 36.000000 11.000000 36.000000 Z" fill="#231F20"/><path d=" M 9.000000 40.000000 C 8.447715 40.000000 8.000000 40.447716 8.000000 41.000000 C 8.000000 41.552284 8.447715 42.000000 9.000000 42.000000 C 9.552285 42.000000 10.000000 41.552284 10.000000 41.000000 C 10.000000 40.447716 9.552285 40.000000 9.000000 40.000000 Z" fill="#231F20"/><path d=" M 5.000000 4.000000 C 4.447715 4.000000 4.000000 4.447715 4.000000 5.000000 C 4.000000 5.552285 4.447715 6.000000 5.000000 6.000000 C 5.552285 6.000000 6.000000 5.552285 6.000000 5.000000 C 6.000000 4.447715 5.552285 4.000000 5.000000 4.000000 Z" fill="#231F20"/><path d=" M 9.000000 4.000000 C 8.447715 4.000000 8.000000 4.447715 8.000000 5.000000 C 8.000000 5.552285 8.447715 6.000000 9.000000 6.000000 C 9.552285 6.000000 10.000000 5.552285 10.000000 5.000000 C 10.000000 4.447715 9.552285 4.000000 9.000000 4.000000 Z" fill="#231F20"/><path d=" M 13.000000 4.000000 C 12.447715 4.000000 12.000000 4.447715 12.000000 5.000000 C 12.000000 5.552285 12.447715 6.000000 13.000000 6.000000 C 13.552285 6.000000 14.000000 5.552285 14.000000 5.000000 C 14.000000 4.447715 13.552285 4.000000 13.000000 4.000000 Z" fill="#231F20"/><path d=" M 17.000000 4.000000 C 16.447716 4.000000 16.000000 4.447715 16.000000 5.000000 C 16.000000 5.552285 16.447716 6.000000 17.000000 6.000000 C 17.552284 6.000000 18.000000 5.552285 18.000000 5.000000 C 18.000000 4.447715 17.552284 4.000000 17.000000 4.000000 Z" fill="#231F20"/><path d=" M 17.000000 8.000000 C 16.447716 8.000000 16.000000 8.447715 16.000000 9.000000 C 16.000000 9.552285 16.447716 10.000000 17.000000 10.000000 C 17.552284 10.000000 18.000000 9.552285 18.000000 9.000000 C 18.000000 8.447715 17.552284 8.000000 17.000000 8.000000 Z" fill="#231F20"/><path d=" M 21.000000 8.000000 C 20.447716 8.000000 20.000000 8.447715 20.000000 9.000000 C 20.000000 9.552285 20.447716 10.000000 21.000000 10.000000 C 21.552284 10.000000 22.000000 9.552285 22.000000 9.000000 C 22.000000 8.447715 21.552284 8.000000 21.000000 8.000000 Z" fill="#231F20"/><path d=" M 25.000000 8.000000 C 24.447716 8.000000 24.000000 8.447715 24.000000 9.000000 C 24.000000 9.552285 24.447716 10.000000 25.000000 10.000000 C 25.552284 10.000000 26.000000 9.552285 26.000000 9.000000 C 26.000000 8.447715 25.552284 8.000000 25.000000 8.000000 Z" fill="#231F20"/><path d=" M 29.000000 8.000000 C 28.447716 8.000000 28.000000 8.447715 28.000000 9.000000 C 28.000000 9.552285 28.447716 10.000000 29.000000 10.000000 C 29.552284 10.000000 30.000000 9.552285 30.000000 9.000000 C 30.000000 8.447715 29.552284 8.000000 29.000000 8.000000 Z" fill="#231F20"/><path d=" M 33.000000 8.000000 C 32.447716 8.000000 32.000000 8.447715 32.000000 9.000000 C 32.000000 9.552285 32.447716 10.000000 33.000000 10.000000 C 33.552284 10.000000 34.000000 9.552285 34.000000 9.000000 C 34.000000 8.447715 33.552284 8.000000 33.000000 8.000000 Z" fill="#231F20"/><path d=" M 37.000000 8.000000 C 36.447716 8.000000 36.000000 8.447715 36.000000 9.000000 C 36.000000 9.552285 36.447716 10.000000 37.000000 10.000000 C 37.552284 10.000000 38.000000 9.552285 38.000000 9.000000 C 38.000000 8.447715 37.552284 8.000000 37.000000 8.000000 Z" fill="#231F20"/><path d=" M 41.000000 8.000000 C 40.447716 8.000000 40.000000 8.447715 40.000000 9.000000 C 40.000000 9.552285 40.447716 10.000000 41.000000 10.000000 C 41.552284 10.000000 42.000000 9.552285 42.000000 9.000000 C 42.000000 8.447715 41.552284 8.000000 41.000000 8.000000 Z" fill="#231F20"/></g></svg>