<svg version="1.1" viewBox="0.000000 0.000000 48.000000 48.000000" xmlns="http://www.w3.org/2000/svg" xmlns:xlink="http://www.w3.org/1999/xlink" overflow="hidden"><defs></defs><g id="icons"><path d=" M 39.000000 47.000000 L 35.000000 19.000000 L 13.000000 19.000000 L 9.000000 47.000000 L 21.000000 47.000000 L 21.000000 39.000000 C 21.000000 37.343147 22.343145 36.000000 24.000000 36.000000 C 25.656855 36.000000 27.000000 37.343147 27.000000 39.000000 L 27.000000 47.000000 Z" stroke="#231F20" stroke-width="2.000000" stroke-linecap="round" stroke-linejoin="round" fill="none"/><line x1="22.000000" y1="27.000000" x2="26.000000" y2="27.000000" stroke="#231F20" stroke-width="2.000000" stroke-linecap="round" stroke-linejoin="round" fill="none"/><line x1="24.000000" y1="25.000000" x2="24.000000" y2="29.000000" stroke="#231F20" stroke-width="2.000000" stroke-linecap="round" stroke-linejoin="round" fill="none"/><path d=" M 37.000000 10.000000 C 37.000000 11.656855 35.656853 13.000000 34.000000 13.000000 C 32.343147 13.000000 31.000000 11.656855 31.000000 10.000000 L 31.000000 9.000000 L 27.000000 9.000000 L 27.000000 10.000000 C 27.000000 11.656855 25.656855 13.000000 24.000000 13.000000 C 22.343145 13.000000 21.000000 11.656855 21.000000 10.000000 L 21.000000 9.000000 L 17.000000 9.000000 L 17.000000 10.000000 C 17.000000 11.656855 15.656855 13.000000 14.000000 13.000000 C 12.343145 13.000000 11.000000 11.656855 11.000000 10.000000 L 11.000000 9.000000 L 7.000000 9.000000 L 7.000000 16.000000 C 7.000000 17.656855 8.343145 19.000000 10.000000 19.000000 L 38.000000 19.000000 C 39.656853 19.000000 41.000000 17.656855 41.000000 16.000000 L 41.000000 9.000000 L 37.000000 9.000000 Z" stroke="#231F20" stroke-width="2.000000" stroke-linecap="round" stroke-linejoin="round" fill="none"/><line x1="24.000000" y1="1.000000" x2="24.000000" y2="13.000000" stroke="#231F20" stroke-width="2.000000" stroke-linecap="round" stroke-linejoin="round" fill="none"/><path d=" M 25.000000 3.000000 L 24.000000 3.000000 L 24.000000 1.000000 L 25.000000 1.000000 L 29.000000 2.000000 L 25.000000 3.000000 Z" stroke="#231F20" stroke-width="2.000000" stroke-linecap="round" stroke-linejoin="round" fill="none"/><path d=" M 39.000000 47.000000 L 47.000000 47.000000 L 47.000000 27.000000 L 41.000000 27.000000 L 41.000000 31.000000 L 36.720001 31.000000" stroke="#231F20" stroke-width="2.000000" stroke-linecap="round" stroke-linejoin="round" fill="none"/><path d=" M 11.280000 31.000000 L 7.000000 31.000000 L 7.000000 27.000000 L 1.000000 27.000000 L 1.000000 47.000000 L 9.000000 47.000000" stroke="#231F20" stroke-width="2.000000" stroke-linecap="round" stroke-linejoin="round" fill="none"/></g></svg>