<svg version="1.1" viewBox="0.000000 0.000000 48.000000 48.000000" xmlns="http://www.w3.org/2000/svg" xmlns:xlink="http://www.w3.org/1999/xlink" overflow="hidden"><defs></defs><g id="icons"><path d=" M 43.259998 23.100000 L 46.259998 17.900000 L 43.259998 16.170000 C 43.580006 14.741030 43.580006 13.258970 43.259998 11.830000 L 46.259998 10.100000 L 43.259998 4.900000 L 40.369999 6.640000 C 39.278706 5.731830 38.054440 4.996598 36.739998 4.460000 L 36.740002 1.000000 L 30.740000 1.000000 L 30.740000 4.460000 C 29.251764 4.758700 27.896721 5.522007 26.869999 6.640000 L 23.799999 4.900000 L 20.799999 10.100000 L 23.799999 11.830000 C 23.474619 13.258370 23.474619 14.741630 23.799999 16.170000 L 20.799999 17.900000 L 23.799999 23.100000 L 26.930000 21.360001 C 27.956722 22.477995 29.311764 23.241301 30.800001 23.540001 L 30.799999 27.000000 L 36.799999 27.000000 L 36.799999 23.540001 C 38.114441 23.003403 39.338703 22.268171 40.430000 21.360001 Z" stroke="#231F20" stroke-width="2.000000" stroke-linejoin="round" fill="none"/><circle cx="33.500000" cy="14.000000" r="4.000000" stroke="#231F20" stroke-width="2.000000" stroke-linejoin="round" fill="none"/><path d=" M 24.260000 43.099998 L 27.260000 37.900002 L 24.260000 36.169998 C 24.580008 34.741028 24.580008 33.258968 24.260000 31.829998 L 27.260000 30.100000 L 24.260000 24.900000 L 21.370001 26.639999 C 20.278706 25.731831 19.054443 24.996597 17.740002 24.459999 L 17.740000 21.000000 L 11.740000 21.000000 L 11.740000 24.459999 C 10.251764 24.758699 8.896722 25.522005 7.870000 26.639999 L 4.800000 24.900000 L 1.800000 30.100000 L 4.800000 31.830000 C 4.474619 33.258369 4.474619 34.741631 4.800000 36.169998 L 1.800000 37.900002 L 4.800000 43.099998 L 7.930000 41.360001 C 8.956721 42.477993 10.311764 43.241299 11.800000 43.540001 L 11.800000 47.000000 L 17.799999 47.000000 L 17.799999 43.540001 C 19.114441 43.003403 20.338705 42.268169 21.429998 41.360001 Z" stroke="#231F20" stroke-width="2.000000" stroke-linejoin="round" fill="none"/><circle cx="14.500000" cy="34.000000" r="4.000000" stroke="#231F20" stroke-width="2.000000" stroke-linejoin="round" fill="none"/></g></svg>