<svg version="1.1" viewBox="0.000000 0.000000 48.000000 48.000000" xmlns="http://www.w3.org/2000/svg" xmlns:xlink="http://www.w3.org/1999/xlink" overflow="hidden"><defs></defs><g id="icons"><path d=" M 44.000000 47.000000 C 41.821598 46.927498 40.072502 45.178402 40.000000 43.000000 C 40.000000 45.209141 38.209141 47.000000 36.000000 47.000000 C 33.790859 47.000000 32.000000 45.209141 32.000000 43.000000 C 32.000000 45.209141 30.209139 47.000000 28.000000 47.000000 C 25.790861 47.000000 24.000000 45.209141 24.000000 43.000000 C 23.927500 45.178402 22.178402 46.927498 20.000000 47.000000 C 17.821598 46.927498 16.072500 45.178402 16.000000 43.000000 C 15.927500 45.178402 14.178402 46.927498 12.000000 47.000000 C 9.821598 46.927498 8.072500 45.178402 8.000000 43.000000 C 7.927500 45.178402 6.178402 46.927498 4.000000 47.000000" stroke="#231F20" stroke-width="2.000000" stroke-linecap="round" stroke-linejoin="round" fill="none"/><path d=" M 44.000000 39.000000 C 41.821598 38.927498 40.072502 37.178402 40.000000 35.000000 C 40.000000 37.209141 38.209141 39.000000 36.000000 39.000000 C 33.790859 39.000000 32.000000 37.209141 32.000000 35.000000 C 32.000000 37.209141 30.209139 39.000000 28.000000 39.000000 C 25.790861 39.000000 24.000000 37.209141 24.000000 35.000000 C 23.927500 37.178402 22.178402 38.927498 20.000000 39.000000 C 17.821598 38.927498 16.072500 37.178402 16.000000 35.000000 C 15.927500 37.178402 14.178402 38.927498 12.000000 39.000000 C 9.821598 38.927498 8.072500 37.178402 8.000000 35.000000 C 7.927500 37.178402 6.178402 38.927498 4.000000 39.000000" stroke="#231F20" stroke-width="2.000000" stroke-linecap="round" stroke-linejoin="round" fill="none"/><path d=" M 35.000000 31.000000 C 37.000000 30.000000 38.000000 27.000000 38.000000 25.000000 L 6.000000 25.000000 C 6.000000 27.150000 7.000000 30.000000 9.370000 31.000000" stroke="#231F20" stroke-width="2.000000" stroke-linecap="round" stroke-linejoin="round" fill="none"/><line x1="21.000000" y1="25.000000" x2="21.000000" y2="1.000000" stroke="#231F20" stroke-width="2.000000" stroke-linecap="round" stroke-linejoin="round" fill="none"/><path d=" M 35.000000 19.000000 L 21.000000 19.000000 L 21.000000 2.000000 L 35.000000 19.000000 Z" stroke="#231F20" stroke-width="2.000000" stroke-linecap="round" stroke-linejoin="round" fill="none"/><line x1="21.000000" y1="19.000000" x2="37.000000" y2="19.000000" stroke="#231F20" stroke-width="2.000000" stroke-linecap="round" stroke-linejoin="round" fill="none"/></g></svg>