<svg version="1.1" viewBox="0.000000 0.000000 48.000000 48.000000" xmlns="http://www.w3.org/2000/svg" xmlns:xlink="http://www.w3.org/1999/xlink" overflow="hidden"><defs></defs><g id="icons"><path d=" M 33.000000 40.000000 L 33.000000 32.000000 L 25.000000 32.000000 L 25.000000 40.000000 L 17.000000 40.000000 L 17.000000 48.000000 L 41.000000 48.000000 L 41.000000 40.000000 L 33.000000 40.000000 Z" stroke="#231F20" stroke-width="2.000000" stroke-linecap="round" stroke-linejoin="round" fill="none"/><path d=" M 39.000000 10.000000 L 39.000000 2.000000 L 31.000000 2.000000 L 31.000000 18.000000 L 39.000000 18.000000 L 39.000000 26.000000 L 47.000000 26.000000 L 47.000000 10.000000 L 39.000000 10.000000 Z" stroke="#231F20" stroke-width="2.000000" stroke-linecap="round" stroke-linejoin="round" fill="none"/><path d=" M 9.000000 16.000000 L 9.000000 8.000000 L 1.000000 8.000000 L 1.000000 24.000000 L 25.000000 24.000000 L 25.000000 16.000000 L 9.000000 16.000000 Z" stroke="#231F20" stroke-width="2.000000" stroke-linecap="round" stroke-linejoin="round" fill="none"/><path d=" M 1.000000 24.000000 L 1.000000 32.000000 L 17.000000 32.000000 L 17.000000 40.000000 L 25.000000 40.000000 L 25.000000 24.000000 L 1.000000 24.000000 Z" stroke="#231F20" stroke-width="2.000000" stroke-linecap="round" stroke-linejoin="round" fill="none"/><rect x="1.000000" y="32.000000" width="16.000000" height="16.000000" stroke="#231F20" stroke-width="2.000000" stroke-linecap="round" stroke-linejoin="round" fill="none"/></g></svg>