<svg version="1.1" viewBox="0.000000 0.000000 48.000000 48.000000" xmlns="http://www.w3.org/2000/svg" xmlns:xlink="http://www.w3.org/1999/xlink" overflow="hidden"><defs></defs><g id="icons"><line x1="1.000000" y1="34.660000" x2="19.000000" y2="34.660000" stroke="#000000" stroke-width="2.000000" stroke-linecap="round" stroke-linejoin="round" fill="none"/><path d=" M 3.000000 46.660000 L 35.000000 46.660000 C 40.522846 46.660000 45.000000 42.182846 45.000000 36.660000 L 45.000000 24.660000 C 45.000000 19.137152 40.522846 14.660000 35.000000 14.660000 L 21.360001 14.660000" stroke="#000000" stroke-width="2.000000" stroke-linecap="round" stroke-linejoin="round" fill="none"/><rect x="6.950000" y="9.930000" width="18.000000" height="10.000000" stroke="#000000" stroke-width="2.000000" stroke-linecap="round" stroke-linejoin="round" fill="none" transform="matrix(0.330000,-0.940000,0.940000,0.330000,-3.440000,25.000000)"/><rect x="17.620000" y="2.560000" width="4.000000" height="4.000000" stroke="#000000" stroke-width="2.000000" stroke-linecap="round" stroke-linejoin="round" fill="none" transform="matrix(0.333478,-0.942758,0.942758,0.333478,8.780000,21.540000)"/><line x1="16.510000" y1="1.340000" x2="24.060000" y2="4.010000" stroke="#000000" stroke-width="2.000000" stroke-linecap="round" stroke-linejoin="round" fill="none"/><path d=" M 13.000000 34.660000 L 17.000000 40.660000 L 31.000000 40.660000 C 35.419998 40.660000 37.000000 38.080002 37.000000 33.660000 L 37.000000 30.660000 C 37.000000 26.240000 35.419998 23.660000 31.000000 22.660000 L 28.000000 22.660000 L 20.730000 16.430000" stroke="#000000" stroke-width="2.000000" stroke-linecap="round" stroke-linejoin="round" fill="none"/><line x1="7.000000" y1="34.660000" x2="7.000000" y2="46.660000" stroke="#000000" stroke-width="2.000000" stroke-linecap="round" stroke-linejoin="round" fill="none"/><rect x="8.010000" y="23.920000" width="6.000000" height="4.000000" stroke="#000000" stroke-width="2.000000" stroke-linecap="round" stroke-linejoin="round" fill="none" transform="matrix(0.333807,-0.942641,0.942641,0.333807,-17.090000,27.640000)"/><line x1="1.000000" y1="46.660000" x2="47.000000" y2="46.660000" stroke="#000000" stroke-width="2.000000" stroke-linecap="round" stroke-linejoin="round" fill="none"/></g></svg>