<svg version="1.1" viewBox="0.000000 0.000000 48.000000 48.000000" xmlns="http://www.w3.org/2000/svg" xmlns:xlink="http://www.w3.org/1999/xlink" overflow="hidden"><defs></defs><g id="icons"><path d=" M 24.000000 29.629999 C 22.445318 31.199476 19.912687 31.211472 18.343208 29.656790 C 16.773731 28.102108 16.761736 25.569477 18.316418 23.999998 C 19.871099 22.430521 22.403730 22.418526 23.973209 23.973207 C 23.982182 23.982096 23.991112 23.991026 24.000000 23.999998 C 25.544279 25.558973 25.544279 28.071022 24.000000 29.629997 Z" stroke="#231F20" stroke-width="2.000000" stroke-linecap="round" stroke-linejoin="round" fill="none"/><line x1="7.050000" y1="35.290000" x2="12.710000" y2="40.950000" stroke="#231F20" stroke-width="2.000000" stroke-linecap="round" stroke-linejoin="round" fill="none"/><path d=" M 41.639999 1.360000 L 33.639999 9.360000 L 34.639999 10.360000 L 26.639999 18.360001 C 20.969999 14.420000 14.320000 17.260000 13.640000 23.360001 C 1.310000 20.709999 -2.440000 34.279999 5.640000 42.360001 C 13.720000 50.439999 27.270000 46.619999 24.639999 34.360001 C 30.709999 33.680000 33.639999 27.059999 29.639999 21.360001 L 37.639999 13.360000 L 38.639999 14.360000 L 46.639999 6.360000 Z" stroke="#231F20" stroke-width="2.000000" stroke-linecap="round" stroke-linejoin="round" fill="none"/><line x1="37.640000" y1="1.360000" x2="39.640000" y2="3.360000" stroke="#231F20" stroke-width="2.000000" stroke-linecap="round" stroke-linejoin="round" fill="none"/><line x1="34.640000" y1="4.360000" x2="36.640000" y2="6.360000" stroke="#231F20" stroke-width="2.000000" stroke-linecap="round" stroke-linejoin="round" fill="none"/><line x1="46.640000" y1="10.360000" x2="44.640000" y2="8.360000" stroke="#231F20" stroke-width="2.000000" stroke-linecap="round" stroke-linejoin="round" fill="none"/><line x1="43.640000" y1="13.360000" x2="41.640000" y2="11.360000" stroke="#231F20" stroke-width="2.000000" stroke-linecap="round" stroke-linejoin="round" fill="none"/></g></svg>