<svg version="1.1" viewBox="0.000000 0.000000 48.000000 48.000000" xmlns="http://www.w3.org/2000/svg" xmlns:xlink="http://www.w3.org/1999/xlink" overflow="hidden"><defs></defs><g id="icons"><line x1="28.000000" y1="1.000000" x2="28.000000" y2="7.000000" stroke="#231F20" stroke-width="2.000000" stroke-linecap="round" stroke-linejoin="round" fill="none"/><path d=" M 23.000000 5.000000 L 28.000000 1.000000 L 33.000000 5.000000" stroke="#231F20" stroke-width="2.000000" stroke-linecap="round" stroke-linejoin="round" fill="none"/><line x1="28.000000" y1="47.000000" x2="28.000000" y2="41.000000" stroke="#231F20" stroke-width="2.000000" stroke-linecap="round" stroke-linejoin="round" fill="none"/><path d=" M 23.000000 43.000000 L 28.000000 47.000000 L 33.000000 43.000000" stroke="#231F20" stroke-width="2.000000" stroke-linecap="round" stroke-linejoin="round" fill="none"/><path d=" M 20.110001 13.000000 C 26.185133 9.173659 34.211864 10.996664 38.038204 17.071796 C 41.864544 23.146929 40.041538 31.173658 33.966408 35.000000 C 29.732506 37.666668 24.343903 37.666668 20.110001 35.000000" stroke="#231F20" stroke-width="2.000000" stroke-linecap="round" stroke-linejoin="round" fill="none"/><path d=" M 8.000000 17.000000 L 27.000000 17.000000 C 30.865993 17.000000 34.000000 20.134007 34.000000 24.000000 C 34.000000 27.865993 30.865993 31.000000 27.000000 31.000000 L 8.000000 31.000000" stroke="#231F20" stroke-width="2.000000" stroke-linecap="round" stroke-linejoin="round" fill="none"/><path d=" M 27.000000 27.000000 C 28.656855 27.000000 30.000000 25.656855 30.000000 24.000000 C 30.000000 22.343145 28.656855 21.000000 27.000000 21.000000 L 24.000000 21.000000 L 24.000000 27.000000 Z" stroke="#231F20" stroke-width="2.000000" stroke-linecap="round" stroke-linejoin="round" fill="none"/></g></svg>