<svg version="1.1" viewBox="0.000000 0.000000 48.000000 48.000000" xmlns="http://www.w3.org/2000/svg" xmlns:xlink="http://www.w3.org/1999/xlink" overflow="hidden"><defs></defs><g id="icons"><path d=" M 15.840000 42.000000 L 31.000000 42.000000 L 31.000000 33.000000 C 31.000000 32.000000 25.000000 29.000000 20.000000 27.000000 L 20.000000 23.000000 C 20.000000 23.000000 22.000000 22.299999 22.000000 18.000000 C 23.389999 18.000000 24.000000 14.000000 22.059999 14.000000 C 22.059999 13.580000 23.600000 11.380000 23.000000 9.000000 C 22.000000 5.000000 12.000000 5.000000 11.000000 9.000000 C 6.790000 8.140000 10.000000 13.420000 10.000000 14.000000 C 8.000000 14.000000 8.610000 18.000000 10.000000 18.000000 C 10.000000 22.299999 12.000000 23.000000 12.000000 23.000000 L 12.000000 27.000000 C 7.000000 29.000000 1.000000 32.000000 1.000000 33.000000 L 1.000000 42.000000 Z" stroke="#231F20" stroke-width="2.000000" stroke-linejoin="round" fill="none"/><path d=" M 36.000000 42.000000 L 47.000000 42.000000 L 47.000000 33.000000 C 47.000000 32.000000 42.000000 30.600000 38.000000 29.000000 L 38.000000 26.000000 C 38.000000 26.000000 40.000000 25.440001 40.000000 22.000000 C 41.110001 22.000000 41.549999 18.000000 40.000000 18.000000 C 40.000000 17.660000 41.619999 15.860000 41.000000 14.000000 C 40.000000 11.000000 32.000000 11.000000 31.000000 14.000000 C 27.629999 13.310000 30.000000 17.540001 30.000000 18.000000 C 28.400000 18.000000 28.889999 22.000000 30.000000 22.000000 C 30.000000 25.440001 32.000000 26.000000 32.000000 26.000000 L 32.000000 28.000000" stroke="#231F20" stroke-width="2.000000" stroke-linecap="round" stroke-linejoin="round" fill="none"/></g></svg>