<svg version="1.1" viewBox="0.000000 0.000000 48.000000 48.000000" xmlns="http://www.w3.org/2000/svg" xmlns:xlink="http://www.w3.org/1999/xlink" overflow="hidden"><defs></defs><g id="icons"><path d=" M 18.870001 31.000000 L 6.190000 34.509998 C 3.068186 35.681160 1.000106 38.665730 1.000000 42.000000 L 1.000000 47.000000 L 47.000000 47.000000 L 47.000000 42.000000 C 46.999893 38.665733 44.931812 35.681160 41.810001 34.509998 L 29.090000 31.000000" stroke="#231F20" stroke-width="2.000000" stroke-linecap="round" stroke-miterlimit="10.000000" fill="none"/><path d=" M 18.000000 19.000000 C 18.000000 17.900000 18.900000 18.000000 20.000000 18.000000 C 21.100000 18.000000 22.000000 17.900000 22.000000 19.000000" stroke="#231F20" stroke-width="2.000000" stroke-linecap="round" stroke-miterlimit="10.000000" fill="none"/><path d=" M 26.000000 19.000000 C 26.000000 17.900000 26.900000 18.000000 28.000000 18.000000 C 29.100000 18.000000 30.000000 17.900000 30.000000 19.000000" stroke="#231F20" stroke-width="2.000000" stroke-linecap="round" stroke-miterlimit="10.000000" fill="none"/><path d=" M 14.000000 12.000000 L 14.000000 17.000000 C 11.000000 17.000000 11.000000 23.000000 14.000000 23.000000 C 14.000000 29.000000 21.000000 33.000000 24.000000 33.000000" stroke="#231F20" stroke-width="2.000000" stroke-linecap="round" stroke-linejoin="round" fill="none"/><path d=" M 34.000000 12.000000 L 34.000000 17.000000 C 37.000000 17.000000 37.000000 23.000000 34.000000 23.000000 C 34.000000 29.000000 27.000000 33.000000 24.000000 33.000000" stroke="#231F20" stroke-width="2.000000" stroke-linecap="round" stroke-linejoin="round" fill="none"/><path d=" M 24.000000 9.000000 L 47.000000 5.000000 L 24.000000 1.000000 L 1.000000 5.000000 L 24.000000 9.000000 Z" stroke="#231F20" stroke-width="2.000000" stroke-linecap="round" stroke-linejoin="round" fill="none"/><path d=" M 14.000000 7.290000 L 14.000000 12.000000 C 14.000000 12.000000 17.000000 15.000000 24.000000 15.000000 C 31.000000 15.000000 34.000000 12.000000 34.000000 12.000000 L 34.000000 7.290000" stroke="#231F20" stroke-width="2.000000" stroke-linecap="round" stroke-linejoin="round" fill="none"/><line x1="6.000000" y1="6.000000" x2="6.000000" y2="13.000000" stroke="#231F20" stroke-width="2.000000" stroke-linecap="round" stroke-linejoin="round" fill="none"/><path d=" M 6.000000 13.000000 L 3.000000 27.000000 L 9.000000 27.000000 L 6.000000 13.000000" stroke="#231F20" stroke-width="2.000000" stroke-linecap="round" stroke-linejoin="round" fill="none"/><path d=" M 13.500000 32.500000 L 24.000000 43.000000 L 34.520000 32.480000" stroke="#231F20" stroke-width="2.000000" stroke-linecap="round" stroke-miterlimit="10.000000" fill="none"/></g></svg>