<svg version="1.1" viewBox="0.000000 0.000000 48.000000 48.000000" xmlns="http://www.w3.org/2000/svg" xmlns:xlink="http://www.w3.org/1999/xlink" overflow="hidden"><defs></defs><g id="icons"><path d=" M 34.000000 44.930000 L 27.000000 46.930000 L 29.000000 39.930000 L 42.000000 26.930000 L 47.000000 31.930000 L 34.000000 44.930000 Z" stroke="#231F20" stroke-width="2.000000" stroke-linecap="round" stroke-linejoin="round" fill="none"/><line x1="38.000000" y1="30.930000" x2="43.000000" y2="35.930000" stroke="#231F20" stroke-width="2.000000" stroke-linejoin="round" fill="none"/><line x1="29.000000" y1="39.930000" x2="34.000000" y2="44.930000" stroke="#231F20" stroke-width="2.000000" stroke-linecap="round" stroke-linejoin="round" fill="none"/><path d=" M 32.860001 28.930000 C 31.309999 28.410000 25.000000 25.570000 23.000000 24.930000 L 23.000000 19.930000 C 23.000000 19.930000 26.000000 18.690001 26.000000 13.930000 C 28.000000 13.930000 28.000000 9.790000 26.000000 9.790000 C 26.000000 9.320000 27.790001 6.570000 27.139999 3.930000 C 26.190001 0.120000 15.000000 0.120000 14.070000 3.930000 C 9.330000 3.000000 12.000000 9.290000 12.000000 9.930000 C 11.000000 9.930000 11.000000 13.930000 12.000000 13.930000 C 12.000000 18.690001 15.000000 19.930000 15.000000 19.930000 L 15.000000 24.930000 C 10.000000 27.040001 3.000000 28.440001 2.140000 30.930000 C 1.473565 33.547943 1.091356 36.230110 1.000000 38.930000 L 22.000000 38.930000" stroke="#231F20" stroke-width="2.000000" stroke-linejoin="round" fill="none"/></g></svg>