<svg version="1.1" viewBox="0.000000 0.000000 48.000000 48.000000" xmlns="http://www.w3.org/2000/svg" xmlns:xlink="http://www.w3.org/1999/xlink" overflow="hidden"><defs></defs><g id="icons"><path d=" M 29.000000 18.000000 L 29.000000 12.000000 L 13.000000 6.000000 L 13.000000 17.000000" stroke="#231F20" stroke-width="2.000000" stroke-linejoin="round" fill="none"/><path d=" M 19.000000 26.000000 L 3.000000 20.000000 L 3.000000 40.000000 L 19.000000 47.000000 L 19.000000 26.000000 Z" stroke="#231F20" stroke-width="2.000000" stroke-linecap="round" stroke-linejoin="round" fill="none"/><path d=" M 19.000000 26.000000 L 35.000000 20.000000 L 35.000000 40.000000 L 19.000000 47.000000 L 19.000000 26.000000 Z" stroke="#231F20" stroke-width="2.000000" stroke-linecap="round" stroke-linejoin="round" fill="none"/><path d=" M 35.000000 20.000000 L 19.000000 15.000000 L 3.000000 20.000000" stroke="#231F20" stroke-width="2.000000" stroke-linecap="round" stroke-linejoin="round" fill="none"/><path d=" M 19.000000 18.000000 C 17.895430 18.000000 17.000000 18.895430 17.000000 20.000000 C 17.000000 21.104570 17.895430 22.000000 19.000000 22.000000 C 20.104570 22.000000 21.000000 21.104570 21.000000 20.000000 C 21.000000 18.895430 20.104570 18.000000 19.000000 18.000000 Z" fill="#231F20"/><path d=" M 27.000000 32.000000 C 25.895430 32.000000 25.000000 32.895432 25.000000 34.000000 C 25.000000 35.104568 25.895430 36.000000 27.000000 36.000000 C 28.104570 36.000000 29.000000 35.104568 29.000000 34.000000 C 29.000000 32.895432 28.104570 32.000000 27.000000 32.000000 Z" fill="#231F20"/><path d=" M 14.000000 37.000000 C 12.895431 37.000000 12.000000 37.895432 12.000000 39.000000 C 12.000000 40.104568 12.895431 41.000000 14.000000 41.000000 C 15.104569 41.000000 16.000000 40.104568 16.000000 39.000000 C 16.000000 37.895432 15.104569 37.000000 14.000000 37.000000 Z" fill="#231F20"/><path d=" M 8.000000 27.000000 C 6.895431 27.000000 6.000000 27.895430 6.000000 29.000000 C 6.000000 30.104570 6.895431 31.000000 8.000000 31.000000 C 9.104569 31.000000 10.000000 30.104570 10.000000 29.000000 C 10.000000 27.895430 9.104569 27.000000 8.000000 27.000000 Z" fill="#231F20"/><path d=" M 24.000000 37.000000 C 22.895430 37.000000 22.000000 37.895432 22.000000 39.000000 C 22.000000 40.104568 22.895430 41.000000 24.000000 41.000000 C 25.104570 41.000000 26.000000 40.104568 26.000000 39.000000 C 26.000000 37.895432 25.104570 37.000000 24.000000 37.000000 Z" fill="#231F20"/><path d=" M 30.000000 27.000000 C 28.895430 27.000000 28.000000 27.895430 28.000000 29.000000 C 28.000000 30.104570 28.895430 31.000000 30.000000 31.000000 C 31.104570 31.000000 32.000000 30.104570 32.000000 29.000000 C 32.000000 27.895430 31.104570 27.000000 30.000000 27.000000 Z" fill="#231F20"/><path d=" M 40.000000 11.000000 C 38.895432 11.000000 38.000000 11.895431 38.000000 13.000000 C 38.000000 14.104569 38.895432 15.000000 40.000000 15.000000 C 41.104568 15.000000 42.000000 14.104569 42.000000 13.000000 C 42.000000 11.895431 41.104568 11.000000 40.000000 11.000000 Z" fill="#231F20"/><path d=" M 40.000000 21.000000 C 38.895432 21.000000 38.000000 21.895430 38.000000 23.000000 C 38.000000 24.104570 38.895432 25.000000 40.000000 25.000000 C 41.104568 25.000000 42.000000 24.104570 42.000000 23.000000 C 42.000000 21.895430 41.104568 21.000000 40.000000 21.000000 Z" fill="#231F20"/><path d=" M 29.000000 12.000000 L 45.000000 6.000000 L 45.000000 26.000000 L 35.000000 30.000000" stroke="#231F20" stroke-width="2.000000" stroke-linejoin="round" fill="none"/><path d=" M 45.000000 6.000000 L 29.000000 1.000000 L 13.000000 6.000000" stroke="#231F20" stroke-width="2.000000" stroke-linecap="round" stroke-linejoin="round" fill="none"/><path d=" M 29.000000 4.000000 C 27.895430 4.000000 27.000000 4.895431 27.000000 6.000000 C 27.000000 7.104569 27.895430 8.000000 29.000000 8.000000 C 30.104570 8.000000 31.000000 7.104569 31.000000 6.000000 C 31.000000 4.895431 30.104570 4.000000 29.000000 4.000000 Z" fill="#231F20"/></g></svg>