<svg version="1.1" viewBox="0.000000 0.000000 48.000000 48.000000" xmlns="http://www.w3.org/2000/svg" xmlns:xlink="http://www.w3.org/1999/xlink" overflow="hidden"><defs></defs><g id="icons"><path d=" M 47.000000 42.200001 C 46.978065 43.768337 45.688900 45.021942 44.120564 45.000008 C 44.120377 45.000004 44.120190 45.000004 44.119999 45.000000 L 3.880000 45.000000 C 2.311669 45.022243 1.022253 43.768894 1.000008 42.200562 C 1.000005 42.200375 1.000003 42.200188 1.000000 42.199997 L 1.000000 17.000000 L 47.000000 17.000000 Z" stroke="#231F20" stroke-width="2.000000" stroke-miterlimit="10.000000" fill="none"/><path d=" M 17.000000 39.000000 L 17.000000 23.000000 L 33.000000 31.000000 L 17.000000 39.000000 Z" stroke="#231F20" stroke-width="2.000000" stroke-linejoin="round" fill="none"/><path d=" M 47.000000 13.000000 L 1.000000 13.000000 L 1.000000 5.000000 C 1.000000 3.895431 1.895430 3.000000 3.000000 3.000000 L 45.000000 3.000000 C 46.104568 3.000000 47.000000 3.895431 47.000000 5.000000 Z" stroke="#231F20" stroke-width="2.000000" stroke-miterlimit="10.000000" fill="none"/><line x1="1.000000" y1="12.000000" x2="9.000000" y2="4.000000" stroke="#231F20" stroke-width="2.000000" stroke-miterlimit="10.000000" fill="none"/><line x1="6.990000" y1="13.010000" x2="17.000000" y2="3.000000" stroke="#231F20" stroke-width="2.000000" stroke-miterlimit="10.000000" fill="none"/><line x1="14.990000" y1="13.010000" x2="25.000000" y2="3.000000" stroke="#231F20" stroke-width="2.000000" stroke-miterlimit="10.000000" fill="none"/><line x1="22.990000" y1="13.010000" x2="33.000000" y2="3.000000" stroke="#231F20" stroke-width="2.000000" stroke-miterlimit="10.000000" fill="none"/><line x1="31.020000" y1="12.990000" x2="41.000000" y2="3.000000" stroke="#231F20" stroke-width="2.000000" stroke-miterlimit="10.000000" fill="none"/><line x1="39.000000" y1="13.000000" x2="47.000000" y2="5.000000" stroke="#231F20" stroke-width="2.000000" stroke-miterlimit="10.000000" fill="none"/></g></svg>