<svg version="1.1" viewBox="0.000000 0.000000 48.000000 48.000000" xmlns="http://www.w3.org/2000/svg" xmlns:xlink="http://www.w3.org/1999/xlink" overflow="hidden"><defs></defs><g id="icons"><rect x="7.000000" y="1.000000" width="34.000000" height="46.000000" stroke="#231F20" stroke-width="2.000000" stroke-linecap="round" stroke-linejoin="round" fill="none"/><path d=" M 7.000000 1.000000 L 3.000000 1.000000 C 1.895430 1.000000 1.000000 1.895430 1.000000 3.000000 L 1.000000 45.000000 C 1.000000 46.104568 1.895430 47.000000 3.000000 47.000000 L 7.000000 47.000000" stroke="#231F20" stroke-width="2.000000" stroke-linecap="round" stroke-linejoin="round" fill="none"/><path d=" M 26.000000 24.219999 L 26.000000 27.000000 L 31.080000 28.450001 C 32.185772 28.821135 32.948944 29.834728 33.000000 31.000000 L 33.000000 37.000000 L 13.000000 37.000000 L 13.000000 31.000000 C 13.051055 29.834726 13.814230 28.821135 14.920000 28.450001 L 20.000000 27.000000 L 20.000000 24.250000" stroke="#231F20" stroke-width="2.000000" stroke-miterlimit="10.000000" fill="none"/><path d=" M 29.000000 18.540001 C 29.146767 22.001968 26.461769 24.928617 23.000000 25.080002 C 19.538231 24.928617 16.853233 22.001970 17.000000 18.540001 C 16.858818 15.080074 19.540745 12.156775 23.000000 12.000001 C 26.459255 12.156775 29.141182 15.080074 29.000000 18.540001 Z" stroke="#231F20" stroke-width="2.000000" stroke-miterlimit="10.000000" fill="none"/><path d=" M 28.940001 17.350000 C 27.412342 18.460800 25.273449 18.122869 24.162649 16.595211 C 24.104940 16.515846 24.050674 16.434032 24.000002 16.350000 C 22.158562 18.137751 19.355303 18.488667 17.130001 17.210001" stroke="#231F20" stroke-width="2.000000" stroke-linejoin="round" fill="none"/><path d=" M 41.000000 4.000000 L 43.000000 4.000000 C 45.209141 4.000000 47.000000 5.790861 47.000000 8.000000 L 47.000000 14.000000 L 41.000000 14.000000" stroke="#231F20" stroke-width="2.000000" stroke-linejoin="round" fill="none"/><path d=" M 41.000000 14.000000 L 47.000000 14.000000 L 47.000000 24.000000 L 41.000000 24.000000" stroke="#231F20" stroke-width="2.000000" stroke-linejoin="round" fill="none"/><path d=" M 41.000000 24.000000 L 47.000000 24.000000 L 47.000000 34.000000 L 41.000000 34.000000" stroke="#231F20" stroke-width="2.000000" stroke-linejoin="round" fill="none"/><path d=" M 41.000000 34.000000 L 47.000000 34.000000 L 47.000000 40.000000 C 47.000000 42.209141 45.209141 44.000000 43.000000 44.000000 L 41.000000 44.000000" stroke="#231F20" stroke-width="2.000000" stroke-linejoin="round" fill="none"/></g></svg>