<svg version="1.1" viewBox="0.000000 0.000000 48.000000 48.000000" xmlns="http://www.w3.org/2000/svg" xmlns:xlink="http://www.w3.org/1999/xlink" overflow="hidden"><defs></defs><g id="icons"><path d=" M 23.000000 12.000000 C 26.585028 11.770277 30.133448 12.834803 33.000000 15.000000" stroke="#231F20" stroke-width="2.000000" stroke-linecap="round" stroke-linejoin="round" fill="none"/><path d=" M 47.000000 19.000000 C 47.000000 21.209139 45.209141 23.000000 43.000000 23.000000" stroke="#231F20" stroke-width="2.000000" stroke-linecap="round" stroke-miterlimit="10.000000" fill="none"/><path d=" M 24.000000 7.000000 C 22.347746 7.005981 20.701168 7.193778 19.090000 7.560000 C 17.187689 4.194422 12.917221 3.008209 9.551643 4.910520 C 9.534388 4.920274 9.517173 4.930100 9.500000 4.940000 C 11.358306 6.011952 12.622452 7.876843 12.930000 10.000000 C 8.820085 12.316402 5.964982 16.353180 5.150000 21.000000 L 1.000000 21.000000 L 1.000000 29.000000 L 6.390000 29.000000 C 9.210000 34.860001 16.000000 39.000000 24.000000 39.000000 C 34.490002 39.000000 43.000000 31.840000 43.000000 23.000000 C 43.000000 14.160000 34.490002 7.000000 24.000000 7.000000 Z" stroke="#231F20" stroke-width="2.000000" stroke-linecap="round" stroke-linejoin="round" fill="none"/><circle cx="12.000000" cy="20.000000" r="1.000000" stroke="#231F20" stroke-width="2.000000" stroke-linecap="round" stroke-linejoin="round" fill="none"/><line x1="16.000000" y1="37.530000" x2="16.000000" y2="44.000000" stroke="#231F20" stroke-width="2.000000" stroke-linecap="round" stroke-linejoin="round" fill="none"/><line x1="32.000000" y1="37.500000" x2="32.000000" y2="44.000000" stroke="#231F20" stroke-width="2.000000" stroke-linecap="round" stroke-linejoin="round" fill="none"/></g></svg>