<svg version="1.1" viewBox="0.000000 0.000000 48.000000 48.000000" xmlns="http://www.w3.org/2000/svg" xmlns:xlink="http://www.w3.org/1999/xlink" overflow="hidden"><defs></defs><g id="icons"><path d=" M 37.000000 9.000000 L 37.000000 5.000000 L 11.000000 5.000000 L 11.000000 1.000000 L 1.000000 1.000000 L 1.000000 32.000000 C 1.000000 33.656853 2.343146 35.000000 4.000000 35.000000 C 5.656854 35.000000 7.000000 33.656853 7.000000 32.000000 L 7.000000 9.000000 L 41.000000 9.000000 L 41.000000 18.000000" stroke="#231F20" stroke-width="2.000000" stroke-linecap="round" stroke-linejoin="round" fill="none"/><line x1="4.000000" y1="35.030000" x2="19.000000" y2="35.030000" stroke="#231F20" stroke-width="2.000000" stroke-linecap="round" stroke-linejoin="round" fill="none"/><path d=" M 31.760000 25.780001 C 30.629000 26.190752 29.577017 26.792850 28.650000 27.560001 L 26.270000 26.190001 L 23.000000 31.840000 L 25.379999 33.209999 C 25.153360 34.392570 25.153360 35.607426 25.379999 36.790001 L 23.000000 38.160000 L 26.260000 43.810001 L 28.650000 42.439999 C 29.577017 43.207150 30.629000 43.809250 31.760000 44.219997 L 31.760000 47.000000 L 38.290001 47.000000 L 38.290001 44.220001 C 39.412743 43.811096 40.455166 43.208656 41.370003 42.440002 L 43.740002 43.810001 L 47.000000 38.160000 L 44.619999 36.790001 C 44.846638 35.607430 44.846638 34.392574 44.619999 33.209999 L 47.000000 31.840000 L 43.730000 26.190001 L 41.369999 27.559999 C 40.455166 26.791344 39.412743 26.188904 38.289997 25.779999 L 38.290001 23.000000 L 31.760000 23.000000 Z" stroke="#231F20" stroke-width="2.000000" stroke-linejoin="round" fill="none"/><circle cx="35.000000" cy="35.000000" r="4.350000" stroke="#231F20" stroke-width="2.000000" stroke-linejoin="round" fill="none"/></g></svg>