<svg version="1.1" viewBox="0.000000 0.000000 48.000000 48.000000" xmlns="http://www.w3.org/2000/svg" xmlns:xlink="http://www.w3.org/1999/xlink" overflow="hidden"><defs></defs><g id="icons"><path d=" M 19.000000 43.000000 C 19.000000 45.209141 17.209139 47.000000 15.000000 47.000000 C 12.790861 47.000000 11.000000 45.209141 11.000000 43.000000 L 11.000000 16.000000 L 15.000000 7.000000 L 19.000000 16.000000 Z" stroke="#202020" stroke-width="2.000000" stroke-linecap="round" stroke-linejoin="round" fill="none"/><line x1="11.010000" y1="41.010000" x2="19.010000" y2="41.010000" stroke="#202020" stroke-width="2.000000" stroke-linecap="round" stroke-linejoin="round" fill="none"/><line x1="11.010000" y1="37.010000" x2="19.010000" y2="37.010000" stroke="#202020" stroke-width="2.000000" stroke-linecap="round" stroke-linejoin="round" fill="none"/><rect x="24.990000" y="1.000000" width="12.000000" height="46.000000" stroke="#202020" stroke-width="2.000000" stroke-linecap="round" stroke-linejoin="round" fill="none"/><line x1="24.980000" y1="7.000000" x2="28.980000" y2="7.000000" stroke="#202020" stroke-width="2.000000" stroke-linecap="round" stroke-linejoin="round" fill="none"/><line x1="24.980000" y1="15.000000" x2="28.980000" y2="15.000000" stroke="#202020" stroke-width="2.000000" stroke-linecap="round" stroke-linejoin="round" fill="none"/><line x1="24.990000" y1="23.000000" x2="28.990000" y2="23.000000" stroke="#202020" stroke-width="2.000000" stroke-linecap="round" stroke-linejoin="round" fill="none"/><line x1="25.000000" y1="31.000000" x2="29.000000" y2="31.000000" stroke="#202020" stroke-width="2.000000" stroke-linecap="round" stroke-linejoin="round" fill="none"/><line x1="25.010000" y1="39.000000" x2="29.010000" y2="39.000000" stroke="#202020" stroke-width="2.000000" stroke-linecap="round" stroke-linejoin="round" fill="none"/><line x1="10.990000" y1="16.010000" x2="18.990000" y2="16.010000" stroke="#202020" stroke-width="2.000000" stroke-linecap="round" stroke-linejoin="round" fill="none"/><line x1="14.990000" y1="16.010000" x2="15.010000" y2="37.010000" stroke="#202020" stroke-width="2.000000" stroke-linecap="round" stroke-linejoin="round" fill="none"/></g></svg>