<svg version="1.1" viewBox="0.000000 0.000000 48.000000 48.000000" xmlns="http://www.w3.org/2000/svg" xmlns:xlink="http://www.w3.org/1999/xlink" overflow="hidden"><defs></defs><g id="icons"><ellipse cx="9.730000" cy="36.960000" rx="2.850000" ry="2.680000" stroke="#231F20" stroke-width="1.840000" stroke-linejoin="round" fill="none"/><path d=" M 3.080000 41.430000 C 2.094172 41.356163 1.235142 42.095474 1.161302 43.081303 C 1.087463 44.067131 1.826777 44.926163 2.812605 45.000000 C 2.901612 45.006668 2.990993 45.006668 3.080000 45.000000 C 4.065828 45.073837 4.924858 44.334526 4.998697 43.348698 C 5.072536 42.362869 4.333223 41.503838 3.347395 41.430000 C 3.258388 41.423332 3.169007 41.423332 3.080000 41.430000 Z" stroke="#231F20" stroke-width="1.840000" stroke-linejoin="round" fill="none"/><path d=" M 32.240002 3.000000 C 26.922592 2.950809 21.976585 5.720572 19.240002 10.280000 C 17.398159 9.031739 15.224980 8.363070 13.000002 8.360000 C 7.119450 8.237268 2.252827 12.904904 2.130096 18.785456 C 2.130064 18.786970 2.130033 18.788485 2.130002 18.789999 C 2.255701 24.668440 7.121500 29.332804 13.000002 29.209999 L 13.390000 29.209999 C 15.473497 32.047863 18.789471 33.716999 22.309999 33.700001 C 24.819380 33.711685 27.258673 32.872738 29.230000 31.320002 C 30.218060 31.516010 31.222691 31.616474 32.230000 31.620001 C 40.127670 31.620001 46.529999 25.217672 46.529999 17.320002 C 46.529999 9.422330 40.127670 3.020002 32.230000 3.020002 Z" stroke="#231F20" stroke-width="1.840000" stroke-linejoin="round" fill="none"/><ellipse cx="14.490000" cy="19.980000" rx="0.950000" ry="0.890000" stroke="#231F20" stroke-width="1.840000" stroke-linejoin="round" fill="none"/><ellipse cx="24.000000" cy="19.980000" rx="0.950000" ry="0.890000" stroke="#231F20" stroke-width="1.840000" stroke-linejoin="round" fill="none"/><ellipse cx="33.510000" cy="19.980000" rx="0.950000" ry="0.890000" stroke="#231F20" stroke-width="1.840000" stroke-linejoin="round" fill="none"/></g></svg>