<svg version="1.1" viewBox="0.000000 0.000000 48.000000 48.000000" xmlns="http://www.w3.org/2000/svg" xmlns:xlink="http://www.w3.org/1999/xlink" overflow="hidden"><defs></defs><g id="icons"><path d=" M 34.000000 17.000000 C 33.448406 11.504766 28.546484 7.497155 23.051250 8.048749 C 18.318327 8.523825 14.575075 12.267076 14.099999 17.000000 Z" stroke="#000000" stroke-width="2.000000" stroke-linecap="round" stroke-linejoin="round" fill="none"/><path d=" M 16.000000 1.000000 C 16.000000 1.000000 16.000000 1.900000 16.000000 3.000000 C 16.155821 4.488522 16.708384 5.907919 17.600000 7.110000 L 19.200001 9.230000" stroke="#000000" stroke-width="2.000000" stroke-linecap="round" stroke-linejoin="round" fill="none"/><path d=" M 32.000000 1.000000 C 32.000000 1.000000 32.000000 1.900000 32.000000 3.000000 C 31.844179 4.488522 31.291616 5.907919 30.400000 7.110000 L 28.799999 9.230000" stroke="#000000" stroke-width="2.000000" stroke-linecap="round" stroke-linejoin="round" fill="none"/><path d=" M 14.000000 21.000000 L 14.000000 33.000000 C 14.000000 38.520000 24.000000 47.000000 24.000000 47.000000 C 24.000000 47.000000 34.000000 38.520000 34.000000 33.000000 L 34.000000 21.000000 Z" stroke="#000000" stroke-width="2.000000" stroke-linecap="round" stroke-linejoin="round" fill="none"/><path d=" M 14.000000 21.000000 L 11.500000 21.000000 C 9.816262 21.135750 8.229040 21.841181 7.000000 23.000000 L 5.000000 25.000000" stroke="#000000" stroke-width="2.000000" stroke-linecap="round" stroke-linejoin="round" fill="none"/><path d=" M 14.000000 27.000000 L 11.500000 27.000000 C 9.816262 27.135750 8.229040 27.841181 7.000000 29.000000 L 5.000000 31.000000" stroke="#000000" stroke-width="2.000000" stroke-linecap="round" stroke-linejoin="round" fill="none"/><path d=" M 14.000000 33.000000 L 11.500000 33.000000 C 9.816262 33.135750 8.229040 33.841183 7.000000 35.000000 L 5.000000 37.000000" stroke="#000000" stroke-width="2.000000" stroke-linecap="round" stroke-linejoin="round" fill="none"/><path d=" M 34.000000 21.000000 L 36.500000 21.000000 C 38.183739 21.135750 39.770962 21.841181 41.000000 23.000000 L 43.000000 25.000000" stroke="#000000" stroke-width="2.000000" stroke-linecap="round" stroke-linejoin="round" fill="none"/><path d=" M 34.000000 27.000000 L 36.500000 27.000000 C 38.183739 27.135750 39.770962 27.841181 41.000000 29.000000 L 43.000000 31.000000" stroke="#000000" stroke-width="2.000000" stroke-linecap="round" stroke-linejoin="round" fill="none"/><path d=" M 34.000000 33.000000 L 36.500000 33.000000 C 38.183739 33.135750 39.770962 33.841183 41.000000 35.000000 L 43.000000 37.000000" stroke="#000000" stroke-width="2.000000" stroke-linecap="round" stroke-linejoin="round" fill="none"/></g></svg>