<svg version="1.1" viewBox="0.000000 0.000000 48.000000 48.000000" xmlns="http://www.w3.org/2000/svg" xmlns:xlink="http://www.w3.org/1999/xlink" overflow="hidden"><defs></defs><g id="icons"><path d=" M 47.000000 18.469999 L 21.000000 18.500000 L 1.020000 44.520000 L 27.020000 44.490002 L 47.000000 18.469999 Z" stroke="#202020" stroke-width="2.000000" stroke-linecap="round" stroke-linejoin="round" fill="none"/><line x1="10.990000" y1="8.510000" x2="36.990000" y2="8.480000" stroke="#202020" stroke-width="2.000000" stroke-linecap="round" stroke-linejoin="round" fill="none"/><path d=" M 31.990000 3.480000 L 36.990002 8.480000 L 32.000000 13.480000" stroke="#202020" stroke-width="2.000000" stroke-linecap="round" stroke-linejoin="round" fill="none"/><path d=" M 3.000000 18.510000 L 1.000000 18.520000 L 1.000000 20.520000" stroke="#202020" stroke-width="2.000000" stroke-linecap="round" stroke-linejoin="round" fill="none"/><path d=" M 3.020000 44.509998 L 1.020000 44.520000 L 1.020000 42.520000" stroke="#202020" stroke-width="2.000000" stroke-linecap="round" stroke-linejoin="round" fill="none"/><line x1="1.010000" y1="24.510000" x2="1.010000" y2="26.510000" stroke="#202020" stroke-width="2.000000" stroke-linecap="round" stroke-linejoin="round" fill="none"/><line x1="1.010000" y1="30.510000" x2="1.010000" y2="32.510000" stroke="#202020" stroke-width="2.000000" stroke-linecap="round" stroke-linejoin="round" fill="none"/><line x1="1.020000" y1="36.510000" x2="1.020000" y2="38.510000" stroke="#202020" stroke-width="2.000000" stroke-linecap="round" stroke-linejoin="round" fill="none"/><path d=" M 25.000000 18.490000 L 27.000000 18.490000 L 27.000000 20.490000" stroke="#202020" stroke-width="2.000000" stroke-linecap="round" stroke-linejoin="round" fill="none"/><path d=" M 25.020000 44.490002 L 27.020000 44.490002 L 27.020000 42.490002" stroke="#202020" stroke-width="2.000000" stroke-linecap="round" stroke-linejoin="round" fill="none"/><line x1="27.010000" y1="24.490000" x2="27.010000" y2="26.490000" stroke="#202020" stroke-width="2.000000" stroke-linecap="round" stroke-linejoin="round" fill="none"/><line x1="27.010000" y1="30.490000" x2="27.010000" y2="32.490000" stroke="#202020" stroke-width="2.000000" stroke-linecap="round" stroke-linejoin="round" fill="none"/><line x1="27.020000" y1="36.490000" x2="27.020000" y2="38.490000" stroke="#202020" stroke-width="2.000000" stroke-linecap="round" stroke-linejoin="round" fill="none"/><line x1="7.000000" y1="18.510000" x2="9.000000" y2="18.510000" stroke="#202020" stroke-width="2.000000" stroke-linecap="round" stroke-linejoin="round" fill="none"/><line x1="13.000000" y1="18.500000" x2="15.000000" y2="18.500000" stroke="#202020" stroke-width="2.000000" stroke-linecap="round" stroke-linejoin="round" fill="none"/><line x1="19.000000" y1="18.500000" x2="21.000000" y2="18.500000" stroke="#202020" stroke-width="2.000000" stroke-linecap="round" stroke-linejoin="round" fill="none"/></g></svg>