<svg version="1.1" viewBox="0.000000 0.000000 48.000000 48.000000" xmlns="http://www.w3.org/2000/svg" xmlns:xlink="http://www.w3.org/1999/xlink" overflow="hidden"><defs></defs><g id="icons"><path d=" M 28.930000 26.639999 C 27.241282 26.210390 25.592039 25.638342 24.000000 24.930000 L 24.000000 19.930000 C 24.000000 19.930000 27.000000 18.690001 27.000000 13.930000 C 28.000000 13.930000 28.000000 9.790000 27.000000 9.790000 C 27.000000 9.320000 28.469999 6.570000 27.809999 3.930000 C 26.860001 0.120000 15.810000 0.120000 14.900000 3.930000 C 10.170000 2.930000 13.000000 9.290000 13.000000 9.930000 C 11.000000 9.930000 11.000000 13.930000 13.000000 13.930000 C 13.000000 18.690001 16.000000 19.930000 16.000000 19.930000 L 16.000000 24.930000 C 10.000000 27.040001 3.630000 28.440001 2.810000 30.930000 C 2.051394 33.559143 1.447031 36.230362 1.000000 38.930000 L 23.000000 38.930000" stroke="#231F20" stroke-width="2.000000" stroke-linejoin="round" fill="none"/><circle cx="36.000000" cy="35.930000" r="7.000000" stroke="#231F20" stroke-width="2.000000" stroke-miterlimit="10.000000" fill="none"/><line x1="47.000000" y1="46.930000" x2="40.930000" y2="40.860000" stroke="#231F20" stroke-width="2.000000" stroke-linecap="round" stroke-miterlimit="10.000000" fill="none"/></g></svg>