<svg version="1.1" viewBox="0.000000 0.000000 48.000000 48.000000" xmlns="http://www.w3.org/2000/svg" xmlns:xlink="http://www.w3.org/1999/xlink" overflow="hidden"><defs></defs><g id="icons"><path d=" M 39.000000 9.000000 C 39.000000 7.895431 38.104568 7.000000 37.000000 7.000000 C 34.790859 7.000000 33.000000 8.790861 33.000000 11.000000 C 33.000000 14.313708 35.686291 17.000000 39.000000 17.000000 C 43.418278 17.000000 47.000000 13.418278 47.000000 9.000000 C 47.000000 4.581722 43.418278 1.000000 39.000000 1.000000 L 9.000000 1.000000 C 4.581722 1.000000 1.000000 4.581722 1.000000 9.000000 C 1.000000 13.418278 4.581722 17.000000 9.000000 17.000000 C 12.313708 17.000000 15.000000 14.313708 15.000000 11.000000 C 15.000000 8.790861 13.209139 7.000000 11.000000 7.000000 C 9.895431 7.000000 9.000000 7.895431 9.000000 9.000000" stroke="#231F20" stroke-width="2.000000" stroke-linecap="round" stroke-linejoin="round" fill="none"/><line x1="15.000000" y1="15.000000" x2="15.000000" y2="47.000000" stroke="#231F20" stroke-width="2.000000" stroke-linecap="round" stroke-linejoin="round" fill="none"/><line x1="33.000000" y1="15.000000" x2="33.000000" y2="47.000000" stroke="#231F20" stroke-width="2.000000" stroke-linecap="round" stroke-linejoin="round" fill="none"/><line x1="21.000000" y1="15.000000" x2="21.000000" y2="47.000000" stroke="#231F20" stroke-width="2.000000" stroke-linecap="round" stroke-linejoin="round" fill="none"/><line x1="27.000000" y1="15.000000" x2="27.000000" y2="47.000000" stroke="#231F20" stroke-width="2.000000" stroke-linecap="round" stroke-linejoin="round" fill="none"/><line x1="13.500000" y1="15.000000" x2="34.560000" y2="15.000000" stroke="#231F20" stroke-width="2.000000" stroke-linejoin="round" fill="none"/><line x1="15.000000" y1="11.000000" x2="33.000000" y2="11.000000" stroke="#231F20" stroke-width="2.000000" stroke-linejoin="round" fill="none"/></g></svg>