<svg version="1.1" viewBox="0.000000 0.000000 48.000000 48.000000" xmlns="http://www.w3.org/2000/svg" xmlns:xlink="http://www.w3.org/1999/xlink" overflow="hidden"><defs></defs><g id="icons"><path d=" M 45.000000 24.000000 C 45.000000 33.000000 39.000000 47.000000 39.000000 47.000000 L 9.000000 47.000000 C 9.000000 47.000000 3.000000 33.000000 3.000000 24.000000 C 3.000000 -6.670000 45.000000 -6.660000 45.000000 24.000000 Z" stroke="#231F20" stroke-width="2.000000" stroke-linecap="round" stroke-linejoin="round" fill="none"/><circle cx="24.000000" cy="22.000000" r="9.000000" stroke="#231F20" stroke-width="2.000000" stroke-linecap="round" stroke-linejoin="round" fill="none"/><line x1="24.160000" y1="7.000000" x2="24.160000" y2="9.000000" stroke="#231F20" stroke-width="2.000000" stroke-linecap="round" stroke-linejoin="round" fill="none"/><line x1="13.390000" y1="11.390000" x2="14.810000" y2="12.810000" stroke="#231F20" stroke-width="2.000000" stroke-linecap="round" stroke-linejoin="round" fill="none"/><line x1="9.160000" y1="22.000000" x2="11.160000" y2="22.000000" stroke="#231F20" stroke-width="2.000000" stroke-linecap="round" stroke-linejoin="round" fill="none"/><line x1="13.390000" y1="32.610000" x2="14.810000" y2="31.190000" stroke="#231F20" stroke-width="2.000000" stroke-linecap="round" stroke-linejoin="round" fill="none"/><line x1="24.160000" y1="37.000000" x2="24.160000" y2="35.000000" stroke="#231F20" stroke-width="2.000000" stroke-linecap="round" stroke-linejoin="round" fill="none"/><line x1="34.610000" y1="32.610000" x2="33.190000" y2="31.190000" stroke="#231F20" stroke-width="2.000000" stroke-linecap="round" stroke-linejoin="round" fill="none"/><line x1="39.160000" y1="22.000000" x2="37.160000" y2="22.000000" stroke="#231F20" stroke-width="2.000000" stroke-linecap="round" stroke-linejoin="round" fill="none"/><line x1="34.610000" y1="11.390000" x2="33.190000" y2="12.810000" stroke="#231F20" stroke-width="2.000000" stroke-linecap="round" stroke-linejoin="round" fill="none"/><line x1="15.160000" y1="43.000000" x2="33.160000" y2="43.000000" stroke="#231F20" stroke-width="2.000000" stroke-linecap="round" stroke-linejoin="round" fill="none"/><line x1="24.160000" y1="18.000000" x2="24.160000" y2="13.000000" stroke="#231F20" stroke-width="2.000000" stroke-linecap="round" stroke-linejoin="round" fill="none"/></g></svg>