<svg version="1.1" viewBox="0.000000 0.000000 48.000000 48.000000" xmlns="http://www.w3.org/2000/svg" xmlns:xlink="http://www.w3.org/1999/xlink" overflow="hidden"><defs></defs><g id="icons"><path d=" M 37.389999 32.700001 C 37.389999 32.700001 46.000000 31.570000 46.000000 23.129999 C 46.003750 17.855680 41.731110 13.576962 36.456791 13.573214 C 36.334496 13.573127 36.212208 13.575389 36.090000 13.579999 C 32.940609 6.901266 24.973339 4.040169 18.294605 7.189560 C 13.868604 9.276665 10.936387 13.614972 10.650001 18.499998 C 6.768600 17.688110 2.963938 20.176441 2.152049 24.057840 C 2.052826 24.532196 2.001884 25.015379 2.000000 25.499998 C 2.000000 31.549999 7.270000 32.500000 9.060000 32.650002" stroke="#231F20" stroke-width="2.000000" stroke-linecap="round" stroke-miterlimit="10.000000" fill="none"/><circle cx="23.000000" cy="32.090000" r="10.000000" stroke="#231F20" stroke-width="2.000000" stroke-linecap="round" stroke-miterlimit="10.000000" fill="none"/><line x1="26.530000" y1="28.550000" x2="19.460000" y2="35.620000" stroke="#231F20" stroke-width="2.000000" stroke-linecap="round" stroke-miterlimit="10.000000" fill="none"/><line x1="26.530000" y1="35.620000" x2="19.460000" y2="28.550000" stroke="#231F20" stroke-width="2.000000" stroke-linecap="round" stroke-miterlimit="10.000000" fill="none"/></g></svg>