<svg version="1.1" viewBox="0.000000 0.000000 48.000000 48.000000" xmlns="http://www.w3.org/2000/svg" xmlns:xlink="http://www.w3.org/1999/xlink" overflow="hidden"><defs></defs><g id="icons"><rect x="1.000000" y="1.000000" width="46.000000" height="46.000000" stroke="#231F20" stroke-width="2.000000" stroke-linecap="round" stroke-linejoin="round" fill="none"/><circle cx="24.000000" cy="24.000000" r="19.000000" stroke="#231F20" stroke-width="2.000000" stroke-linecap="round" stroke-linejoin="round" fill="none"/><circle cx="24.000000" cy="24.000000" r="5.000000" stroke="#231F20" stroke-width="2.000000" stroke-linecap="round" stroke-linejoin="round" fill="none"/><path d=" M 24.000000 22.000000 C 22.895430 22.000000 22.000000 22.895430 22.000000 24.000000 C 22.000000 25.104570 22.895430 26.000000 24.000000 26.000000 C 25.104570 26.000000 26.000000 25.104570 26.000000 24.000000 C 26.000000 22.895430 25.104570 22.000000 24.000000 22.000000 Z" fill="#231F20"/><path d=" M 24.000000 13.000000 C 30.075132 13.000000 35.000000 17.924868 35.000000 24.000000" stroke="#231F20" stroke-width="2.000000" stroke-linecap="round" stroke-linejoin="round" fill="none"/><path d=" M 24.000000 35.000000 C 17.924868 35.000000 13.000000 30.075132 13.000000 24.000000" stroke="#231F20" stroke-width="2.000000" stroke-linecap="round" stroke-linejoin="round" fill="none"/><path d=" M 24.000000 9.000000 C 32.284271 9.000000 39.000000 15.715729 39.000000 24.000000" stroke="#231F20" stroke-width="2.000000" stroke-linecap="round" stroke-linejoin="round" fill="none"/><path d=" M 24.000000 39.000000 C 15.715729 39.000000 9.000000 32.284271 9.000000 24.000000" stroke="#231F20" stroke-width="2.000000" stroke-linecap="round" stroke-linejoin="round" fill="none"/></g></svg>