<svg version="1.1" viewBox="0.000000 0.000000 48.000000 48.000000" xmlns="http://www.w3.org/2000/svg" xmlns:xlink="http://www.w3.org/1999/xlink" overflow="hidden"><defs></defs><g id="icons"><path d=" M 23.000000 47.000000 L 1.000000 47.000000 C 1.000000 39.820000 4.000000 27.000000 12.000000 27.000000 C 20.000000 27.000000 23.000000 39.820000 23.000000 47.000000 Z" stroke="#231F20" stroke-width="2.000000" stroke-linecap="round" stroke-linejoin="round" fill="none"/><path d=" M 10.000000 30.000000 C 9.447715 30.000000 9.000000 30.447716 9.000000 31.000000 C 9.000000 31.552284 9.447715 32.000000 10.000000 32.000000 C 10.552285 32.000000 11.000000 31.552284 11.000000 31.000000 C 11.000000 30.447716 10.552285 30.000000 10.000000 30.000000 Z" fill="#231F20"/><path d=" M 14.000000 30.000000 C 13.447715 30.000000 13.000000 30.447716 13.000000 31.000000 C 13.000000 31.552284 13.447715 32.000000 14.000000 32.000000 C 14.552285 32.000000 15.000000 31.552284 15.000000 31.000000 C 15.000000 30.447716 14.552285 30.000000 14.000000 30.000000 Z" fill="#231F20"/><path d=" M 45.000000 30.000000 C 45.000000 28.343145 43.656853 27.000000 42.000000 27.000000 L 30.000000 27.000000 C 28.343145 27.000000 27.000000 28.343145 27.000000 30.000000 L 27.000000 47.000000 L 45.000000 47.000000 Z" stroke="#231F20" stroke-width="2.000000" stroke-linecap="round" stroke-linejoin="round" fill="none"/><rect x="30.000000" y="17.000000" width="12.000000" height="10.000000" stroke="#231F20" stroke-width="2.000000" stroke-linecap="round" stroke-linejoin="round" fill="none"/><path d=" M 45.000000 11.000000 L 27.000000 11.000000 L 27.000000 14.000000 C 27.000000 15.656855 28.343145 17.000000 30.000000 17.000000 L 42.000000 17.000000 C 43.656853 17.000000 45.000000 15.656855 45.000000 14.000000 Z" stroke="#231F20" stroke-width="2.000000" stroke-linecap="round" stroke-linejoin="round" fill="none"/><path d=" M 47.000000 8.000000 C 47.000000 6.343146 45.656853 5.000000 44.000000 5.000000 L 28.000000 5.000000 C 26.343145 5.000000 25.000000 6.343146 25.000000 8.000000 L 25.000000 8.000000 C 25.000000 9.656855 26.343145 11.000000 28.000000 11.000000 L 44.000000 11.000000 C 45.656853 11.000000 47.000000 9.656855 47.000000 8.000000 Z" stroke="#231F20" stroke-width="2.000000" stroke-linecap="round" stroke-linejoin="round" fill="none"/><line x1="36.000000" y1="5.000000" x2="36.000000" y2="1.000000" stroke="#231F20" stroke-width="2.000000" stroke-linecap="round" stroke-linejoin="round" fill="none"/><path d=" M 38.000000 1.000000 L 34.000000 1.000000 L 34.000000 1.000000 L 38.000000 1.000000 L 38.000000 1.000000 Z" stroke="#231F20" stroke-width="2.000000" stroke-linecap="round" stroke-linejoin="round" fill="none"/></g></svg>