<svg version="1.1" viewBox="0.000000 0.000000 48.000000 48.000000" xmlns="http://www.w3.org/2000/svg" xmlns:xlink="http://www.w3.org/1999/xlink" overflow="hidden"><defs></defs><g id="icons"><rect x="6.020000" y="21.010000" width="14.000000" height="26.000000" stroke="#202020" stroke-width="2.000000" stroke-linecap="round" stroke-linejoin="round" fill="none"/><rect x="11.000000" y="9.010000" width="4.000000" height="4.000000" stroke="#202020" stroke-width="2.000000" stroke-linecap="round" stroke-linejoin="round" fill="none"/><path d=" M 18.000000 21.000000 L 8.010000 21.010000 L 10.000000 17.010000 L 16.000000 17.000000 L 18.000000 21.000000 Z" stroke="#202020" stroke-width="2.000000" stroke-linecap="round" stroke-linejoin="round" fill="none"/><line x1="13.000000" y1="13.010000" x2="13.000000" y2="17.010000" stroke="#202020" stroke-width="2.000000" stroke-linecap="round" stroke-linejoin="round" fill="none"/><line x1="24.000000" y1="11.000000" x2="30.000000" y2="10.990000" stroke="#202020" stroke-width="2.000000" stroke-linecap="round" stroke-linejoin="round" fill="none"/><line x1="23.000000" y1="15.000000" x2="29.000000" y2="16.990000" stroke="#202020" stroke-width="2.000000" stroke-linecap="round" stroke-linejoin="round" fill="none"/><line x1="22.990000" y1="7.000000" x2="28.990000" y2="4.990000" stroke="#202020" stroke-width="2.000000" stroke-linecap="round" stroke-linejoin="round" fill="none"/><path d=" M 34.000000 21.000000 C 36.889999 21.000000 39.259998 18.680000 38.000000 16.000000 C 40.425133 15.617517 42.159191 13.449944 42.000000 11.000000 C 42.048679 8.586196 40.365616 6.482368 38.000000 6.000000 C 38.553410 3.861301 37.268276 1.678917 35.129578 1.125508 C 34.760944 1.030121 34.380581 0.987859 34.000000 1.000000" stroke="#202020" stroke-width="2.000000" stroke-linecap="round" stroke-linejoin="round" fill="none"/></g></svg>