<svg version="1.1" viewBox="0.000000 0.000000 48.000000 48.000000" xmlns="http://www.w3.org/2000/svg" xmlns:xlink="http://www.w3.org/1999/xlink" overflow="hidden"><defs></defs><g id="icons"><circle cx="37.200000" cy="37.860000" r="3.000000" stroke="#231F20" stroke-width="2.000000" stroke-linejoin="round" fill="none"/><path d=" M 44.200001 37.860001 C 44.195133 37.314152 44.128033 36.770641 44.000000 36.240002 L 46.000000 35.090000 L 44.000000 31.620001 L 41.910000 32.779999 C 41.067963 32.034485 40.075562 31.478607 39.000000 31.150000 L 39.000000 29.000000 L 35.000000 29.000000 L 35.000000 31.150000 C 33.987724 31.480869 33.064289 32.038353 32.299999 32.779999 L 30.360001 31.620001 L 28.360001 35.090000 L 30.360001 36.240002 C 30.100128 37.304367 30.100128 38.415634 30.360001 39.480003 L 28.360001 40.619999 L 30.360001 44.090000 L 32.250000 42.939999 C 33.029686 43.684563 33.970814 44.238972 35.000000 44.559998 L 35.000000 47.000000 L 39.000000 47.000000 L 39.000000 44.560001 C 40.074951 44.234936 41.067398 43.682438 41.910000 42.940002 L 43.910000 44.090000 L 45.910000 40.619999 L 43.910000 39.480000 C 44.068439 38.952900 44.165745 38.409328 44.200001 37.860001 Z" stroke="#231F20" stroke-width="2.000000" stroke-linejoin="round" fill="none"/><path d=" M 29.110001 26.559999 C 27.549999 26.049999 26.000000 25.500000 24.000000 24.860001 L 24.000000 19.860001 C 24.000000 19.860001 27.000000 18.620001 27.000000 13.860000 C 29.000000 13.860000 29.000000 9.710000 27.000000 9.710000 C 27.000000 9.250000 28.830000 6.500000 28.170000 3.860000 C 27.230000 0.050000 16.000000 0.050000 15.090000 3.860000 C 10.350000 2.860000 13.000000 9.220000 13.000000 9.860000 C 12.000000 9.860000 12.000000 13.860000 13.000000 13.860000 C 13.000000 18.620001 16.000000 19.860001 16.000000 19.860001 L 16.000000 24.860001 C 11.000000 26.969999 4.000000 28.370001 3.170000 30.860001 C 2.500957 33.525848 2.108879 36.253639 2.000000 39.000000 L 23.000000 39.000000" stroke="#231F20" stroke-width="2.000000" stroke-linejoin="round" fill="none"/></g></svg>