<svg version="1.1" viewBox="0.000000 0.000000 48.000000 48.000000" xmlns="http://www.w3.org/2000/svg" xmlns:xlink="http://www.w3.org/1999/xlink" overflow="hidden"><defs></defs><g id="icons"><rect x="1.000000" y="14.500000" width="46.000000" height="8.000000" stroke="#231F20" stroke-width="2.000000" stroke-linecap="round" stroke-linejoin="round" fill="none"/><rect x="3.000000" y="22.500000" width="42.000000" height="24.000000" stroke="#231F20" stroke-width="2.000000" stroke-linecap="round" stroke-linejoin="round" fill="none"/><line x1="17.000000" y1="14.500000" x2="17.000000" y2="46.500000" stroke="#231F20" stroke-width="2.000000" stroke-linecap="round" stroke-linejoin="round" fill="none"/><line x1="31.000000" y1="46.500000" x2="31.000000" y2="14.500000" stroke="#231F20" stroke-width="2.000000" stroke-linecap="round" stroke-linejoin="round" fill="none"/><path d=" M 35.310001 10.000000 C 33.360001 12.000000 24.000000 14.500000 24.000000 14.500000 C 24.000000 14.500000 26.290001 4.920000 28.240000 3.000000 C 30.370703 1.243423 33.521969 1.546713 35.278545 3.677417 C 36.789341 5.509989 36.802486 8.152486 35.310001 10.000000 Z" stroke="#231F20" stroke-width="2.000000" stroke-linecap="round" stroke-linejoin="round" fill="none"/><path d=" M 12.690000 10.000000 C 14.640000 12.000000 24.000000 14.500000 24.000000 14.500000 C 24.000000 14.500000 21.709999 4.920000 19.760000 3.000000 C 17.629297 1.243423 14.478033 1.546713 12.721456 3.677417 C 11.210661 5.509989 11.197515 8.152486 12.690000 10.000000 Z" stroke="#231F20" stroke-width="2.000000" stroke-linecap="round" stroke-linejoin="round" fill="none"/></g></svg>