<svg version="1.1" viewBox="0.000000 0.000000 48.000000 48.000000" xmlns="http://www.w3.org/2000/svg" xmlns:xlink="http://www.w3.org/1999/xlink" overflow="hidden"><defs></defs><g id="icons"><path d=" M 42.000000 5.910000 C 44.841091 6.533828 46.898727 9.002991 47.000000 11.910000 L 47.000000 14.910000 C 47.000000 17.119139 45.209141 18.910000 43.000000 18.910000 L 37.000000 18.910000 C 34.790859 18.910000 33.000000 17.119139 33.000000 14.910000 L 33.000000 12.910000 C 27.014503 12.320022 20.985497 12.320022 15.000000 12.910000 L 15.000000 14.910000 C 15.000000 17.119139 13.209139 18.910000 11.000000 18.910000 L 5.000000 18.910000 C 2.790861 18.910000 1.000000 17.119139 1.000000 14.910000 L 1.000000 11.910000 C 1.101274 9.002991 3.158909 6.533828 6.000000 5.910000 C 17.877539 3.485507 30.122461 3.485507 42.000000 5.910000 Z" stroke="#231F20" stroke-width="2.000000" stroke-linecap="round" stroke-linejoin="round" fill="none"/><path d=" M 43.000000 43.910000 L 5.000000 43.910000 L 5.000000 37.910000 C 5.000000 29.073444 12.163444 21.910000 21.000000 21.910000 L 27.000000 21.910000 C 35.836555 21.910000 43.000000 29.073444 43.000000 37.910000 Z" stroke="#231F20" stroke-width="2.000000" stroke-linecap="round" stroke-linejoin="round" fill="none"/><line x1="21.000000" y1="17.910000" x2="21.000000" y2="21.910000" stroke="#231F20" stroke-width="2.000000" stroke-linecap="round" stroke-linejoin="round" fill="none"/><line x1="28.000000" y1="17.910000" x2="28.000000" y2="21.910000" stroke="#231F20" stroke-width="2.000000" stroke-linecap="round" stroke-linejoin="round" fill="none"/><circle cx="24.000000" cy="32.910000" r="7.000000" stroke="#231F20" stroke-width="2.000000" stroke-linecap="round" stroke-linejoin="round" fill="none"/></g></svg>