<svg version="1.1" viewBox="0.000000 0.000000 48.000000 48.000000" xmlns="http://www.w3.org/2000/svg" xmlns:xlink="http://www.w3.org/1999/xlink" overflow="hidden"><defs></defs><g id="icons"><path d=" M 38.580002 25.000000 L 20.580000 7.000000 L 3.580000 24.000000 C 2.017034 25.561228 2.015625 28.093887 3.576853 29.656853 C 3.577902 29.657902 3.578950 29.658951 3.580000 29.660000 L 12.930000 39.000000 C 14.491228 40.562965 17.023888 40.564373 18.586853 39.003147 C 18.587902 39.002098 18.588951 39.001049 18.590000 39.000000 L 32.590000 25.000000 Z" stroke="#202020" stroke-width="2.000000" stroke-linecap="round" stroke-linejoin="round" fill="none"/><path d=" M 19.570000 21.000000 L 19.570000 5.000000 C 19.570000 2.790861 17.779139 1.000000 15.570000 1.000000 L 15.570000 1.000000 C 13.360861 1.000000 11.570000 2.790861 11.570000 5.000000 L 11.570000 16.000000" stroke="#202020" stroke-width="2.000000" stroke-linecap="round" stroke-linejoin="round" fill="none"/><path d=" M 45.590000 42.000000 C 45.590000 44.761425 43.351425 47.000000 40.590000 47.000000 C 37.828575 47.000000 35.590000 44.761425 35.590000 42.000000 C 35.590000 39.240002 40.590000 31.000000 40.590000 31.000000 C 40.590000 31.000000 45.590000 39.220001 45.590000 42.000000 Z" stroke="#202020" stroke-width="2.000000" stroke-linecap="round" stroke-linejoin="round" fill="none"/></g></svg>