<svg version="1.1" viewBox="0.000000 0.000000 48.000000 48.000000" xmlns="http://www.w3.org/2000/svg" xmlns:xlink="http://www.w3.org/1999/xlink" overflow="hidden"><defs></defs><g id="icons"><path d=" M 19.000000 32.529999 L 4.000000 32.529999 C 2.362705 32.502708 1.049773 31.167522 1.050000 29.529999 L 1.050000 7.530000 C 1.050000 5.873146 2.393146 4.530000 4.050000 4.530000 L 40.000000 4.530000 C 41.656853 4.530000 43.000000 5.873146 43.000000 7.530000 L 43.000000 16.530001" stroke="#231F20" stroke-width="2.000000" stroke-linecap="round" stroke-linejoin="round" fill="none"/><path d=" M 42.099998 5.410000 L 21.950001 21.530001 L 1.830000 5.440000" stroke="#231F20" stroke-width="2.000000" stroke-linecap="round" stroke-linejoin="round" fill="none"/><path d=" M 31.760000 22.280001 C 30.629000 22.690752 29.577017 23.292850 28.650000 24.060001 L 26.270000 22.690001 L 23.000000 28.340000 L 25.379999 29.709999 C 25.153360 30.892572 25.153360 32.107426 25.379999 33.290001 L 23.000000 34.660000 L 26.260000 40.310001 L 28.650000 38.939999 C 29.577017 39.707150 30.629000 40.309250 31.760000 40.719997 L 31.760000 43.470001 L 38.290001 43.470001 L 38.290001 40.720001 C 39.412743 40.311096 40.455166 39.708656 41.370003 38.940002 L 43.740002 40.310001 L 47.000000 34.660000 L 44.619999 33.290001 C 44.846638 32.107430 44.846638 30.892574 44.619999 29.710001 L 47.000000 28.340000 L 43.730000 22.690001 L 41.369999 24.059999 C 40.455166 23.291344 39.412743 22.688904 38.289997 22.279999 L 38.290001 19.530001 L 31.760000 19.530001 Z" stroke="#231F20" stroke-width="2.000000" stroke-linejoin="round" fill="none"/><path d=" M 39.349998 31.500000 C 39.349998 33.902439 37.402435 35.849998 35.000000 35.849998 C 32.597561 35.849998 30.650000 33.902435 30.650000 31.499998 C 30.650000 29.097559 32.597561 27.149998 35.000000 27.149998 C 37.402439 27.149998 39.349998 29.097559 39.349998 31.499998 Z" stroke="#231F20" stroke-width="2.000000" stroke-linejoin="round" fill="none"/></g></svg>