<svg version="1.1" viewBox="0.000000 0.000000 48.000000 48.000000" xmlns="http://www.w3.org/2000/svg" xmlns:xlink="http://www.w3.org/1999/xlink" overflow="hidden"><defs></defs><g id="icons"><path d=" M 23.799999 32.200001 C 27.010576 35.038776 30.419195 37.645367 34.000000 40.000000 C 36.377682 41.572281 39.533382 41.254620 41.549999 39.240002 L 43.869999 36.910000 C 45.432964 35.348770 45.434372 32.816113 43.873146 31.253147 C 43.872097 31.252098 43.871048 31.251049 43.869999 31.250000 L 39.610001 27.000000 C 38.053413 25.468882 35.556587 25.468882 34.000000 27.000000 L 32.590000 28.420000 C 31.680000 27.680000 30.780001 26.910000 29.889999 26.120001" stroke="#231F20" stroke-width="2.000000" stroke-linecap="round" stroke-linejoin="round" fill="none"/><path d=" M 21.840000 18.160000 C 21.049999 17.270000 20.290001 16.370001 19.549999 15.460000 L 21.000000 14.050000 C 22.562965 12.488772 22.564375 9.956113 21.003147 8.393147 C 21.002098 8.392097 21.001049 8.391048 21.000000 8.390000 L 16.719999 4.150000 C 15.158772 2.587034 12.626112 2.585625 11.063146 4.146853 C 11.062097 4.147902 11.061048 4.148951 11.059999 4.150000 L 8.730000 6.480000 C 6.740842 8.499515 6.436408 11.635604 8.000000 14.000000 C 10.356578 17.579424 12.963065 20.987907 15.799999 24.200001" stroke="#231F20" stroke-width="2.000000" stroke-linecap="round" stroke-linejoin="round" fill="none"/><line x1="47.000000" y1="1.000000" x2="1.000000" y2="47.000000" stroke="#231F20" stroke-width="2.000000" stroke-linecap="round" stroke-linejoin="round" fill="none"/></g></svg>