<svg version="1.1" viewBox="0.000000 0.000000 48.000000 48.000000" xmlns="http://www.w3.org/2000/svg" xmlns:xlink="http://www.w3.org/1999/xlink" overflow="hidden"><defs></defs><g id="icons"><path d=" M 10.000000 4.000000 L 6.000000 4.000000 L 6.000000 8.000000 L 10.000000 8.000000 L 10.000000 4.000000 L 10.000000 4.000000 Z" fill="#231F20"/><path d=" M 18.000000 4.000000 L 14.000000 4.000000 L 14.000000 8.000000 L 18.000000 8.000000 L 18.000000 4.000000 L 18.000000 4.000000 Z" fill="#231F20"/><path d=" M 34.000000 4.000000 L 30.000000 4.000000 L 30.000000 8.000000 L 34.000000 8.000000 L 34.000000 4.000000 L 34.000000 4.000000 Z" fill="#231F20"/><path d=" M 26.000000 4.000000 L 22.000000 4.000000 L 22.000000 8.000000 L 26.000000 8.000000 L 26.000000 4.000000 L 26.000000 4.000000 Z" fill="#231F20"/><line x1="32.000000" y1="4.000000" x2="32.000000" y2="1.000000" stroke="#231F20" stroke-width="2.000000" stroke-linecap="round" stroke-miterlimit="10.000000" fill="none"/><line x1="24.000000" y1="4.000000" x2="24.000000" y2="1.000000" stroke="#231F20" stroke-width="2.000000" stroke-linecap="round" stroke-miterlimit="10.000000" fill="none"/><line x1="16.000000" y1="4.000000" x2="16.000000" y2="1.000000" stroke="#231F20" stroke-width="2.000000" stroke-linecap="round" stroke-miterlimit="10.000000" fill="none"/><line x1="8.000000" y1="4.000000" x2="8.000000" y2="1.000000" stroke="#231F20" stroke-width="2.000000" stroke-linecap="round" stroke-miterlimit="10.000000" fill="none"/><path d=" M 19.000000 41.000000 L 1.000000 41.000000 L 1.000000 1.000000 L 39.000000 1.000000 L 39.000000 19.000000" stroke="#231F20" stroke-width="2.000000" stroke-linecap="round" stroke-linejoin="round" fill="none"/><circle cx="35.000000" cy="35.000000" r="12.000000" stroke="#231F20" stroke-width="2.000000" stroke-miterlimit="10.000000" fill="none"/><path d=" M 41.549999 31.730000 L 33.910000 40.099998 L 28.450001 34.639999" stroke="#231F20" stroke-width="2.000000" stroke-linecap="round" stroke-miterlimit="10.000000" fill="none"/></g></svg>