<svg version="1.1" viewBox="0.000000 0.000000 48.000000 48.000000" xmlns="http://www.w3.org/2000/svg" xmlns:xlink="http://www.w3.org/1999/xlink" overflow="hidden"><defs></defs><g id="icons"><path d=" M 36.000000 17.000000 L 36.000000 20.000000 C 38.000000 21.000000 37.000000 26.000000 34.000000 26.000000 C 34.000000 32.000000 27.000000 36.000000 24.000000 36.000000 C 21.000000 36.000000 14.000000 32.000000 14.000000 26.000000 C 11.000000 26.000000 10.000000 21.000000 12.000000 20.000000 L 12.000000 17.000000" stroke="#231F20" stroke-width="2.000000" stroke-miterlimit="10.000000" fill="none"/><line x1="23.000000" y1="31.000000" x2="25.000000" y2="31.000000" stroke="#231F20" stroke-width="2.000000" stroke-linecap="round" stroke-linejoin="round" fill="none"/><path d=" M 24.000000 18.000000 C 17.284008 17.988241 10.585331 17.318375 4.000000 16.000000 L 13.000000 11.000000 L 18.000000 1.000000 L 24.000000 5.000000" stroke="#231F20" stroke-width="2.000000" stroke-linecap="round" stroke-linejoin="round" fill="none"/><path d=" M 24.000000 18.000000 C 30.715992 17.988241 37.414669 17.318375 44.000000 16.000000 L 35.000000 11.000000 L 30.000000 1.000000 L 24.000000 5.000000" stroke="#231F20" stroke-width="2.000000" stroke-linecap="round" stroke-linejoin="round" fill="none"/><path d=" M 22.000000 20.000000 C 22.000000 21.104570 21.104570 22.000000 20.000000 22.000000 L 18.000000 22.000000 C 16.895430 22.000000 16.000000 21.104570 16.000000 20.000000 L 16.000000 18.000000 L 22.000000 18.000000 Z" stroke="#231F20" stroke-width="2.000000" stroke-linecap="round" stroke-linejoin="round" fill="none"/><path d=" M 32.000000 20.000000 C 32.000000 21.104570 31.104570 22.000000 30.000000 22.000000 L 28.000000 22.000000 C 26.895430 22.000000 26.000000 21.104570 26.000000 20.000000 L 26.000000 18.000000 L 32.000000 18.000000 Z" stroke="#231F20" stroke-width="2.000000" stroke-linecap="round" stroke-linejoin="round" fill="none"/><path d=" M 9.000000 47.000000 L 12.000000 41.000000 L 6.000000 42.000000 C 6.000000 42.000000 7.000000 32.000000 7.000000 27.000000 L 10.000000 27.000000 C 10.000000 38.000000 28.770000 47.000000 32.000000 47.000000 Z" stroke="#231F20" stroke-width="2.000000" stroke-linecap="round" stroke-linejoin="round" fill="none"/><path d=" M 6.800000 33.200001 C 4.800000 34.200001 1.000000 35.810001 1.000000 40.490002 L 1.000000 47.000000 L 24.000000 47.000000" stroke="#231F20" stroke-width="2.000000" stroke-miterlimit="10.000000" fill="none"/><path d=" M 41.259998 33.200001 C 43.259998 34.200001 47.000000 35.810001 47.000000 40.490002 L 47.000000 47.000000 L 24.000000 47.000000" stroke="#231F20" stroke-width="2.000000" stroke-miterlimit="10.000000" fill="none"/><path d=" M 39.000000 47.000000 L 36.000000 41.000000 L 42.000000 42.000000 C 42.000000 42.000000 41.000000 32.000000 41.000000 27.000000 L 38.000000 27.000000 C 37.000000 35.000000 27.900000 44.160000 24.680000 44.160000" stroke="#231F20" stroke-width="2.000000" stroke-linejoin="round" fill="none"/><path d=" M 13.000000 11.000000 C 16.526222 12.287465 20.246267 12.963837 24.000000 13.000000 C 27.753733 12.963837 31.473778 12.287465 35.000000 11.000000" stroke="#231F20" stroke-width="2.000000" stroke-linejoin="round" fill="none"/></g></svg>