<svg version="1.1" viewBox="0.000000 0.000000 48.000000 48.000000" xmlns="http://www.w3.org/2000/svg" xmlns:xlink="http://www.w3.org/1999/xlink" overflow="hidden"><defs></defs><g id="icons"><path d=" M 40.000000 31.320000 L 40.000000 31.320000 C 41.656853 31.320000 43.000000 32.663147 43.000000 34.320000 C 43.000000 35.976852 41.656853 37.320000 40.000000 37.320000 L 38.000000 37.320000 C 39.656853 37.320000 41.000000 38.663147 41.000000 40.320000 C 41.000000 41.970001 39.660000 42.320000 38.000000 42.320000 L 25.000000 42.320000 C 19.299999 42.320000 18.000000 41.320000 11.000000 40.320000 L 11.000000 23.320000 C 15.900000 23.320000 24.000000 14.320000 24.000000 6.320000 C 24.000000 3.150000 28.379999 2.000000 30.000000 7.750000 C 31.000000 11.320000 28.000000 18.320000 28.000000 18.320000 L 44.000000 18.320000 C 45.656853 18.320000 47.000000 19.663145 47.000000 21.320000 C 47.000000 22.969999 45.660000 25.320000 44.000000 25.320000 L 42.000000 25.320000 C 43.656853 25.320000 45.000000 26.663145 45.000000 28.320000 C 45.000000 29.976854 43.656853 31.320000 42.000000 31.320000 L 40.000000 31.320000" stroke="#231F20" stroke-width="2.000000" stroke-linecap="round" stroke-linejoin="round" fill="none"/><rect x="1.000000" y="20.320000" width="10.000000" height="24.000000" stroke="#231F20" stroke-width="2.000000" stroke-linecap="round" stroke-linejoin="round" fill="none"/><path d=" M 7.000000 39.320000 C 6.447715 39.320000 6.000000 39.767715 6.000000 40.320000 C 6.000000 40.872284 6.447715 41.320000 7.000000 41.320000 C 7.552285 41.320000 8.000000 40.872284 8.000000 40.320000 C 8.000000 39.767715 7.552285 39.320000 7.000000 39.320000 Z" fill="#231F20"/></g></svg>