<svg version="1.1" viewBox="0.000000 0.000000 48.000000 48.000000" xmlns="http://www.w3.org/2000/svg" xmlns:xlink="http://www.w3.org/1999/xlink" overflow="hidden"><defs></defs><g id="icons"><path d=" M 29.549999 33.400002 L 27.820000 26.400000 L 33.610001 22.110001 L 35.340000 29.100000 L 29.549999 33.400002 Z" stroke="#231F20" stroke-width="2.000000" stroke-linecap="round" stroke-linejoin="round" fill="none"/><rect x="16.580000" y="16.750000" width="30.000000" height="22.000000" stroke="#231F20" stroke-width="2.000000" stroke-linecap="round" stroke-linejoin="round" fill="none" transform="matrix(0.337917,-0.941176,0.941176,0.337917,-5.210000,48.100000)"/><path d=" M 29.040001 14.090000 L 27.770000 14.700000 L 28.370001 15.980000 L 29.650000 15.370000 L 29.040001 14.090000 L 29.040001 14.090000 Z" fill="#231F20"/><path d=" M 34.790001 39.529999 L 33.509998 40.130001 L 34.110001 41.410000 L 35.389999 40.810001 L 34.790001 39.529999 L 34.790001 39.529999 Z" fill="#231F20"/><path d=" M 5.800000 9.350000 C 5.723642 9.340273 5.646358 9.340273 5.570000 9.350000 C 5.017715 9.410751 4.619249 9.907716 4.680000 10.460000 C 4.740752 11.012285 5.237716 11.410751 5.790000 11.350000 L 6.020000 11.350000 C 6.572285 11.289249 6.970751 10.792285 6.910000 10.240001 C 6.849248 9.687716 6.352284 9.289249 5.800000 9.350000 Z" fill="#231F20"/><path d=" M 19.000000 18.600000 C 19.450001 20.549999 17.730000 21.969999 15.780000 22.420000 C 13.830000 22.870001 11.660000 22.340000 11.210000 20.420000 C 10.760000 18.500000 14.000000 14.630000 14.000000 14.630000 C 14.000000 14.630000 18.540001 16.650000 19.000000 18.600000 Z" stroke="#231F20" stroke-width="2.000000" stroke-linecap="round" stroke-linejoin="round" fill="none"/><line x1="15.760000" y1="22.420000" x2="16.210000" y2="24.370000" stroke="#231F20" stroke-width="2.000000" stroke-linecap="round" stroke-linejoin="round" fill="none"/><path d=" M 17.530001 34.330002 L 7.740000 36.590000 L 1.000000 7.350000 L 22.440001 2.410000 L 25.000000 13.530000" stroke="#231F20" stroke-width="2.000000" stroke-linecap="round" stroke-linejoin="round" fill="none"/></g></svg>