<svg version="1.1" viewBox="0.000000 0.000000 48.000000 48.000000" xmlns="http://www.w3.org/2000/svg" xmlns:xlink="http://www.w3.org/1999/xlink" overflow="hidden"><defs></defs><g id="icons"><path d=" M 48.000000 23.000000 C 48.000000 18.581722 44.418278 15.000000 40.000000 15.000000 L 10.000000 15.000000 C 5.581722 15.000000 2.000000 18.581722 2.000000 23.000000 L 2.000000 43.000000 C 2.000000 45.209141 3.790861 47.000000 6.000000 47.000000 C 9.000000 47.000000 7.710000 46.820000 16.000000 33.000000 L 34.000000 33.000000 C 42.160000 46.610001 40.919998 47.000000 44.000000 47.000000 C 46.209141 47.000000 48.000000 45.209141 48.000000 43.000000 Z" stroke="#231F20" stroke-width="2.000000" stroke-linecap="round" stroke-linejoin="round" fill="none"/><circle cx="38.000000" cy="21.000000" r="1.000000" stroke="#231F20" stroke-width="2.000000" stroke-linecap="round" stroke-linejoin="round" fill="none"/><circle cx="42.000000" cy="25.000000" r="1.000000" stroke="#231F20" stroke-width="2.000000" stroke-linecap="round" stroke-linejoin="round" fill="none"/><path d=" M 34.709999 25.709999 C 34.317879 26.098919 33.684719 26.096323 33.295799 25.704201 C 32.906879 25.312078 32.909477 24.678919 33.301598 24.289999 C 33.691448 23.903332 34.320152 23.903332 34.709999 24.289999 C 35.102119 24.678919 35.104717 25.312078 34.715797 25.704201 C 34.713871 25.706141 34.711941 25.708075 34.709999 25.709999 Z" stroke="#231F20" stroke-width="2.000000" stroke-linecap="round" stroke-linejoin="round" fill="none"/><circle cx="38.000000" cy="29.000000" r="1.000000" stroke="#231F20" stroke-width="2.000000" stroke-linecap="round" stroke-linejoin="round" fill="none"/><line x1="12.000000" y1="21.000000" x2="12.000000" y2="29.000000" stroke="#231F20" stroke-width="2.000000" stroke-linecap="round" stroke-linejoin="round" fill="none"/><line x1="16.000000" y1="25.000000" x2="8.000000" y2="25.000000" stroke="#231F20" stroke-width="2.000000" stroke-linecap="round" stroke-linejoin="round" fill="none"/><line x1="21.000000" y1="29.000000" x2="23.000000" y2="29.000000" stroke="#231F20" stroke-width="2.000000" stroke-linecap="round" stroke-linejoin="round" fill="none"/><line x1="27.000000" y1="29.000000" x2="29.000000" y2="29.000000" stroke="#231F20" stroke-width="2.000000" stroke-linecap="round" stroke-linejoin="round" fill="none"/><rect x="22.000000" y="11.000000" width="6.000000" height="4.000000" stroke="#231F20" stroke-width="2.000000" stroke-linecap="round" stroke-linejoin="round" fill="none"/><path d=" M 25.000000 11.000000 L 25.000000 6.000000 C 25.000000 3.238576 22.761423 1.000000 20.000000 1.000000 L 11.000000 1.000000" stroke="#231F20" stroke-width="2.000000" stroke-linecap="round" stroke-linejoin="round" fill="none"/></g></svg>