<svg version="1.1" viewBox="0.000000 0.000000 48.000000 48.000000" xmlns="http://www.w3.org/2000/svg" xmlns:xlink="http://www.w3.org/1999/xlink" overflow="hidden"><defs></defs><g id="icons"><rect x="14.000000" y="36.000000" width="8.000000" height="4.000000" stroke="#231F20" stroke-width="2.000000" stroke-linecap="round" stroke-linejoin="round" fill="none"/><rect x="26.000000" y="36.000000" width="8.000000" height="4.000000" stroke="#231F20" stroke-width="2.000000" stroke-linecap="round" stroke-linejoin="round" fill="none"/><path d=" M 42.000000 24.000000 L 42.000000 20.000000 L 38.000000 20.000000 L 38.000000 16.000000 L 34.000000 16.000000 L 34.000000 12.000000 L 30.000000 12.000000 L 30.000000 16.000000 L 18.000000 16.000000 L 18.000000 12.000000 L 14.000000 12.000000 L 14.000000 16.000000 L 10.000000 16.000000 L 10.000000 20.000000 L 6.000000 20.000000 L 6.000000 24.000000 L 2.000000 24.000000 L 2.000000 36.000000 L 6.000000 36.000000 L 6.000000 28.000000 L 10.000000 28.000000 L 10.000000 32.000000 L 10.000000 36.000000 L 14.000000 36.000000 L 14.000000 32.000000 L 34.000000 32.000000 L 34.000000 36.000000 L 38.000000 36.000000 L 38.000000 32.000000 L 38.000000 28.000000 L 42.000000 28.000000 L 42.000000 36.000000 L 46.000000 36.000000 L 46.000000 24.000000 L 42.000000 24.000000 Z" stroke="#231F20" stroke-width="2.000000" stroke-linecap="round" stroke-linejoin="round" fill="none"/><rect x="10.000000" y="8.000000" width="4.000000" height="4.000000" stroke="#231F20" stroke-width="2.000000" stroke-linecap="round" stroke-linejoin="round" fill="none"/><rect x="34.000000" y="8.000000" width="4.000000" height="4.000000" stroke="#231F20" stroke-width="2.000000" stroke-linecap="round" stroke-linejoin="round" fill="none"/><rect x="14.000000" y="20.000000" width="4.000000" height="4.000000" stroke="#231F20" stroke-width="2.000000" stroke-linecap="round" stroke-linejoin="round" fill="none"/><rect x="30.000000" y="20.000000" width="4.000000" height="4.000000" stroke="#231F20" stroke-width="2.000000" stroke-linecap="round" stroke-linejoin="round" fill="none"/></g></svg>