<svg version="1.1" viewBox="0.000000 0.000000 48.000000 48.000000" xmlns="http://www.w3.org/2000/svg" xmlns:xlink="http://www.w3.org/1999/xlink" overflow="hidden"><defs></defs><g id="icons"><path d=" M 18.170000 14.800000 C 19.975971 12.997529 19.978807 10.072308 18.176336 8.266336 C 18.174227 8.264222 18.172113 8.262110 18.170000 8.260000 L 13.260000 3.360000 C 11.457529 1.554029 8.532308 1.551192 6.726336 3.353663 C 6.724222 3.355773 6.722110 3.357886 6.720000 3.360000 L 4.000000 6.050000 C 1.667235 8.380122 1.299201 12.031192 3.120000 14.780000 C 11.052300 26.706516 21.285580 36.929596 33.220001 44.849998 C 35.979507 46.678280 39.642448 46.323666 42.000000 44.000000 L 44.700001 41.310001 C 46.497448 39.500507 46.497448 36.579494 44.700001 34.770000 L 39.790001 29.860001 C 37.987530 28.054029 35.062309 28.051193 33.256336 29.853664 C 33.254223 29.855774 33.252110 29.857887 33.250000 29.860001 L 31.610001 31.500000 C 26.135941 26.997665 21.112335 21.974060 16.610001 16.500000 Z" stroke="#231F20" stroke-width="2.000000" stroke-linecap="round" stroke-linejoin="round" fill="none"/></g></svg>