<svg version="1.1" viewBox="0.000000 0.000000 48.000000 48.000000" xmlns="http://www.w3.org/2000/svg" xmlns:xlink="http://www.w3.org/1999/xlink" overflow="hidden"><defs></defs><g id="icons"><line x1="15.730000" y1="27.760000" x2="14.700000" y2="29.010000" stroke="#231F20" stroke-width="2.000000" stroke-linecap="round" stroke-linejoin="round" fill="none"/><line x1="22.970000" y1="18.990000" x2="21.940000" y2="20.250000" stroke="#231F20" stroke-width="2.000000" stroke-linecap="round" stroke-linejoin="round" fill="none"/><path d=" M 15.180000 25.850000 C 14.320000 26.850000 14.570000 27.740000 15.730000 27.760000 C 17.145805 27.648609 18.460737 26.983957 19.389999 25.910000 C 20.250000 24.910000 20.000000 24.020000 18.840000 24.000000 C 17.680000 23.980000 17.430000 23.129999 18.280001 22.090000 C 19.207571 21.015383 20.524202 20.353470 21.940001 20.250000 C 23.100000 20.250000 23.350000 21.120001 22.490000 22.160000" stroke="#231F20" stroke-width="2.000000" stroke-linecap="round" stroke-linejoin="round" fill="none"/><path d=" M 39.000000 15.000000 L 21.000000 33.000000 L 1.000000 33.000000 L 19.000000 15.000000 L 39.000000 15.000000 Z" stroke="#231F20" stroke-width="2.000000" stroke-linecap="round" stroke-linejoin="round" fill="none"/><path d=" M 39.000000 20.000000 L 22.000000 37.000000 L 1.000000 37.000000" stroke="#231F20" stroke-width="2.000000" stroke-linecap="round" stroke-miterlimit="10.000000" fill="none"/><path d=" M 36.000000 23.000000 L 47.000000 23.000000 L 47.000000 11.000000 L 1.000000 11.000000 L 1.000000 23.000000 L 11.000000 23.000000" stroke="#231F20" stroke-width="2.000000" stroke-linejoin="round" fill="none"/></g></svg>