<svg version="1.1" viewBox="0.000000 0.000000 48.000000 48.000000" xmlns="http://www.w3.org/2000/svg" xmlns:xlink="http://www.w3.org/1999/xlink" overflow="hidden"><defs></defs><g id="icons"><path d=" M 36.000000 47.000000 L 18.000000 47.000000 L 14.000000 13.000000 L 40.000000 13.000000 L 36.000000 47.000000 Z" stroke="#231F20" stroke-width="2.000000" stroke-linecap="round" stroke-linejoin="round" fill="none"/><path d=" M 21.000000 43.000000 L 17.500000 6.230000 C 17.216654 3.265802 14.727709 1.001944 11.750000 1.000000 L 8.000000 1.000000" stroke="#231F20" stroke-width="2.000000" stroke-linecap="round" stroke-linejoin="round" fill="none"/><line x1="15.000000" y1="21.000000" x2="39.000000" y2="21.000000" stroke="#231F20" stroke-width="2.000000" stroke-linecap="round" stroke-linejoin="round" fill="none"/><path d=" M 25.000000 5.000000 C 24.447716 5.000000 24.000000 5.447715 24.000000 6.000000 C 24.000000 6.552285 24.447716 7.000000 25.000000 7.000000 C 25.552284 7.000000 26.000000 6.552285 26.000000 6.000000 C 26.000000 5.447715 25.552284 5.000000 25.000000 5.000000 Z" fill="#231F20"/><path d=" M 31.000000 8.000000 C 30.447716 8.000000 30.000000 8.447715 30.000000 9.000000 C 30.000000 9.552285 30.447716 10.000000 31.000000 10.000000 C 31.552284 10.000000 32.000000 9.552285 32.000000 9.000000 C 32.000000 8.447715 31.552284 8.000000 31.000000 8.000000 Z" fill="#231F20"/><path d=" M 33.000000 26.000000 C 32.447716 26.000000 32.000000 26.447716 32.000000 27.000000 C 32.000000 27.552284 32.447716 28.000000 33.000000 28.000000 C 33.552284 28.000000 34.000000 27.552284 34.000000 27.000000 C 34.000000 26.447716 33.552284 26.000000 33.000000 26.000000 Z" fill="#231F20"/><path d=" M 27.000000 30.000000 C 26.447716 30.000000 26.000000 30.447716 26.000000 31.000000 C 26.000000 31.552284 26.447716 32.000000 27.000000 32.000000 C 27.552284 32.000000 28.000000 31.552284 28.000000 31.000000 C 28.000000 30.447716 27.552284 30.000000 27.000000 30.000000 Z" fill="#231F20"/><path d=" M 31.000000 35.000000 C 30.447716 35.000000 30.000000 35.447716 30.000000 36.000000 C 30.000000 36.552284 30.447716 37.000000 31.000000 37.000000 C 31.552284 37.000000 32.000000 36.552284 32.000000 36.000000 C 32.000000 35.447716 31.552284 35.000000 31.000000 35.000000 Z" fill="#231F20"/><path d=" M 26.000000 40.000000 C 25.447716 40.000000 25.000000 40.447716 25.000000 41.000000 C 25.000000 41.552284 25.447716 42.000000 26.000000 42.000000 C 26.552284 42.000000 27.000000 41.552284 27.000000 41.000000 C 27.000000 40.447716 26.552284 40.000000 26.000000 40.000000 Z" fill="#231F20"/><path d=" M 24.000000 24.000000 C 23.447716 24.000000 23.000000 24.447716 23.000000 25.000000 C 23.000000 25.552284 23.447716 26.000000 24.000000 26.000000 C 24.552284 26.000000 25.000000 25.552284 25.000000 25.000000 C 25.000000 24.447716 24.552284 24.000000 24.000000 24.000000 Z" fill="#231F20"/><path d=" M 34.000000 3.000000 C 33.447716 3.000000 33.000000 3.447715 33.000000 4.000000 C 33.000000 4.552285 33.447716 5.000000 34.000000 5.000000 C 34.552284 5.000000 35.000000 4.552285 35.000000 4.000000 C 35.000000 3.447715 34.552284 3.000000 34.000000 3.000000 Z" fill="#231F20"/></g></svg>