<svg version="1.1" viewBox="0.000000 0.000000 48.000000 48.000000" xmlns="http://www.w3.org/2000/svg" xmlns:xlink="http://www.w3.org/1999/xlink" overflow="hidden"><defs></defs><g id="icons"><path d=" M 6.000000 43.000000 L 41.000000 43.000000 C 44.313709 43.000000 47.000000 40.313709 47.000000 37.000000 L 47.000000 13.000000 L 11.000000 13.000000 L 11.000000 38.000000 C 11.000000 40.761425 8.761424 43.000000 6.000000 43.000000 C 3.238576 43.000000 1.000000 40.761425 1.000000 38.000000 L 1.000000 5.000000 L 15.000000 5.000000 L 15.000000 9.000000 L 41.000000 9.000000 L 41.000000 13.000000" stroke="#231F20" stroke-width="2.000000" stroke-linecap="round" stroke-linejoin="round" fill="none"/><path d=" M 29.000000 30.000000 C 29.350000 31.629999 27.650000 33.369999 25.200001 33.889999 C 22.750000 34.410000 20.500000 33.500000 20.200001 31.889999 C 19.900000 30.280001 21.559999 28.520000 24.000000 28.010000 C 26.440001 27.500000 28.610001 28.350000 29.000000 30.000000 Z" stroke="#231F20" stroke-width="2.000000" stroke-linecap="round" stroke-linejoin="round" fill="none"/><path d=" M 29.000000 30.000000 L 30.490000 19.510000 C 30.490000 19.510000 36.000000 20.000000 35.000000 24.000000" stroke="#231F20" stroke-width="2.000000" stroke-linecap="round" stroke-linejoin="round" fill="none"/></g></svg>