<svg version="1.1" viewBox="0.000000 0.000000 48.000000 48.000000" xmlns="http://www.w3.org/2000/svg" xmlns:xlink="http://www.w3.org/1999/xlink" overflow="hidden"><defs></defs><g id="icons"><path d=" M 18.000000 43.000000 L 1.000000 43.000000 L 1.000000 1.000000 L 23.000000 1.000000 L 33.000000 11.000000 L 33.000000 18.000000" stroke="#231F20" stroke-width="2.000000" stroke-linejoin="round" fill="none"/><path d=" M 23.000000 1.000000 L 23.000000 11.000000 L 33.000000 11.000000" stroke="#231F20" stroke-width="2.000000" stroke-linecap="round" stroke-linejoin="round" fill="none"/><path d=" M 33.000000 27.520000 C 31.959398 27.898020 30.991859 28.452833 30.139999 29.160000 L 28.000000 27.900000 L 25.000000 33.099998 L 27.180000 34.360001 C 26.966795 35.442940 26.966795 36.557060 27.180000 37.639999 L 25.000000 38.900002 L 28.000000 44.099998 L 30.190001 42.840000 C 31.029175 43.538807 31.978821 44.093048 33.000000 44.480000 L 33.000000 47.000000 L 39.000000 47.000000 L 39.000000 44.480000 C 40.029449 44.097645 40.986412 43.543079 41.830002 42.840000 L 44.000000 44.099998 L 47.000000 38.900002 L 44.820000 37.639999 C 45.020912 36.555897 45.020912 35.444103 44.820000 34.360001 L 47.000000 33.099998 L 44.000000 27.900000 L 41.830002 29.160000 C 40.988930 28.453329 40.031315 27.898386 39.000000 27.520000 L 39.000000 25.000000 L 33.000000 25.000000 Z" stroke="#231F20" stroke-width="2.000000" stroke-linejoin="round" fill="none"/><circle cx="35.970000" cy="36.000000" r="4.000000" stroke="#231F20" stroke-width="2.000000" stroke-linejoin="round" fill="none"/></g></svg>