<svg version="1.1" viewBox="0.000000 0.000000 48.000000 48.000000" xmlns="http://www.w3.org/2000/svg" xmlns:xlink="http://www.w3.org/1999/xlink" overflow="hidden"><defs></defs><g id="icons"><path d=" M 33.000000 46.000000 L 33.000000 36.000000 C 38.522846 36.000000 43.000000 31.522848 43.000000 26.000000 L 43.000000 21.000000 C 43.000000 10.506590 34.493412 2.000000 24.000000 2.000000 C 13.506590 2.000000 5.000000 10.506590 5.000000 21.000000 L 5.000000 26.000000 C 5.000000 31.522848 9.477153 36.000000 15.000000 36.000000 L 15.000000 46.000000" stroke="#231F20" stroke-width="2.000000" stroke-linecap="round" stroke-miterlimit="10.000000" fill="none"/><line x1="21.000000" y1="36.000000" x2="21.000000" y2="46.000000" stroke="#231F20" stroke-width="2.000000" stroke-linecap="round" stroke-miterlimit="10.000000" fill="none"/><line x1="27.000000" y1="36.000000" x2="27.000000" y2="46.000000" stroke="#231F20" stroke-width="2.000000" stroke-linecap="round" stroke-miterlimit="10.000000" fill="none"/><circle cx="33.000000" cy="26.000000" r="6.000000" stroke="#231F20" stroke-width="2.000000" stroke-linecap="round" stroke-miterlimit="10.000000" fill="none"/><circle cx="15.000000" cy="26.000000" r="6.000000" stroke="#231F20" stroke-width="2.000000" stroke-linecap="round" stroke-miterlimit="10.000000" fill="none"/><path d=" M 12.880000 10.000000 C 12.880000 15.470000 9.610000 18.000000 6.000000 18.000000 L 5.220000 18.000000" stroke="#231F20" stroke-width="2.000000" stroke-linecap="round" stroke-miterlimit="10.000000" fill="none"/><path d=" M 35.119999 10.000000 C 35.119999 15.470000 38.389999 18.000000 42.000000 18.000000 L 42.750000 18.000000" stroke="#231F20" stroke-width="2.000000" stroke-linecap="round" stroke-miterlimit="10.000000" fill="none"/><path d=" M 23.000000 32.000000 L 24.000000 30.000000 L 25.000000 32.000000 L 23.000000 32.000000 Z" stroke="#231F20" stroke-width="2.000000" stroke-linecap="round" stroke-linejoin="round" fill="none"/></g></svg>