<svg version="1.1" viewBox="0.000000 0.000000 48.000000 48.000000" xmlns="http://www.w3.org/2000/svg" xmlns:xlink="http://www.w3.org/1999/xlink" overflow="hidden"><defs></defs><g id="icons"><line x1="7.000000" y1="47.060000" x2="9.000000" y2="23.060000" stroke="#231F20" stroke-width="2.000000" stroke-linecap="round" stroke-linejoin="round" fill="none"/><line x1="19.000000" y1="47.060000" x2="17.000000" y2="23.060000" stroke="#231F20" stroke-width="2.000000" stroke-linecap="round" stroke-linejoin="round" fill="none"/><path d=" M 23.000000 46.939999 L 3.000000 46.939999 L 6.480000 7.000000 C 6.926122 3.410149 10.197924 0.861653 13.787775 1.307775 C 16.764843 1.677744 19.110031 4.022932 19.480000 7.000000 Z" stroke="#231F20" stroke-width="2.000000" stroke-linecap="round" stroke-linejoin="round" fill="none"/><path d=" M 16.000000 8.060000 C 16.000000 6.403146 14.656855 5.060000 13.000000 5.060000 C 11.343145 5.060000 10.000000 6.403146 10.000000 8.060000 L 10.000000 12.060000 C 10.000000 13.716855 11.343145 15.060000 13.000000 15.060000 C 14.656855 15.060000 16.000000 13.716855 16.000000 12.060000 Z" stroke="#231F20" stroke-width="2.000000" stroke-linecap="round" stroke-linejoin="round" fill="none"/><line x1="29.000000" y1="1.060000" x2="31.000000" y2="25.060000" stroke="#231F20" stroke-width="2.000000" stroke-linecap="round" stroke-linejoin="round" fill="none"/><line x1="41.000000" y1="1.060000" x2="39.000000" y2="25.060000" stroke="#231F20" stroke-width="2.000000" stroke-linecap="round" stroke-linejoin="round" fill="none"/><path d=" M 45.000000 0.940000 L 25.000000 0.940000 L 28.480000 41.000000 C 28.878870 44.589851 32.112366 47.176651 35.702217 46.777782 C 38.742321 46.439995 41.142212 44.040108 41.480000 41.000000 Z" stroke="#231F20" stroke-width="2.000000" stroke-linecap="round" stroke-linejoin="round" fill="none"/><path d=" M 38.000000 40.060001 C 38.000000 41.716854 36.656853 43.060001 35.000000 43.060001 C 33.343147 43.060001 32.000000 41.716854 32.000000 40.060001 L 32.000000 36.060001 C 32.000000 34.403149 33.343147 33.060001 35.000000 33.060001 C 36.656853 33.060001 38.000000 34.403149 38.000000 36.060001 Z" stroke="#231F20" stroke-width="2.000000" stroke-linecap="round" stroke-linejoin="round" fill="none"/></g></svg>