<svg version="1.1" viewBox="0.000000 0.000000 48.000000 48.000000" xmlns="http://www.w3.org/2000/svg" xmlns:xlink="http://www.w3.org/1999/xlink" overflow="hidden"><defs></defs><g id="icons"><rect x="1.000000" y="6.000000" rx="4.000000" ry="4.000000" width="46.000000" height="36.000000" stroke="#231F20" stroke-width="2.000000" stroke-linecap="round" stroke-linejoin="round" fill="none"/><line x1="1.000000" y1="16.000000" x2="47.000000" y2="16.000000" stroke="#231F20" stroke-width="2.000000" stroke-linecap="round" stroke-linejoin="round" fill="none"/><circle cx="8.000000" cy="11.000000" r="1.000000" stroke="#231F20" stroke-width="2.000000" stroke-linecap="round" stroke-linejoin="round" fill="none"/><circle cx="14.000000" cy="11.000000" r="1.000000" stroke="#231F20" stroke-width="2.000000" stroke-linecap="round" stroke-linejoin="round" fill="none"/><circle cx="20.000000" cy="11.000000" r="1.000000" stroke="#231F20" stroke-width="2.000000" stroke-linecap="round" stroke-linejoin="round" fill="none"/><path d=" M 10.000000 21.000000 L 6.000000 21.000000 L 6.000000 25.000000 L 10.000000 25.000000 L 10.000000 21.000000 L 10.000000 21.000000 Z" fill="#231F20"/><path d=" M 10.000000 27.000000 L 6.000000 27.000000 L 6.000000 31.000000 L 10.000000 31.000000 L 10.000000 27.000000 L 10.000000 27.000000 Z" fill="#231F20"/><path d=" M 10.000000 33.000000 L 6.000000 33.000000 L 6.000000 37.000000 L 10.000000 37.000000 L 10.000000 33.000000 L 10.000000 33.000000 Z" fill="#231F20"/><path d=" M 18.000000 21.000000 L 14.000000 21.000000 L 14.000000 25.000000 L 18.000000 25.000000 L 18.000000 21.000000 L 18.000000 21.000000 Z" fill="#231F20"/><path d=" M 18.000000 27.000000 L 14.000000 27.000000 L 14.000000 31.000000 L 18.000000 31.000000 L 18.000000 27.000000 L 18.000000 27.000000 Z" fill="#231F20"/><path d=" M 18.000000 33.000000 L 14.000000 33.000000 L 14.000000 37.000000 L 18.000000 37.000000 L 18.000000 33.000000 L 18.000000 33.000000 Z" fill="#231F20"/><path d=" M 26.000000 21.000000 L 22.000000 21.000000 L 22.000000 25.000000 L 26.000000 25.000000 L 26.000000 21.000000 L 26.000000 21.000000 Z" fill="#231F20"/><path d=" M 26.000000 27.000000 L 22.000000 27.000000 L 22.000000 31.000000 L 26.000000 31.000000 L 26.000000 27.000000 L 26.000000 27.000000 Z" fill="#231F20"/><path d=" M 26.000000 33.000000 L 22.000000 33.000000 L 22.000000 37.000000 L 26.000000 37.000000 L 26.000000 33.000000 L 26.000000 33.000000 Z" fill="#231F20"/><path d=" M 34.000000 21.000000 L 30.000000 21.000000 L 30.000000 25.000000 L 34.000000 25.000000 L 34.000000 21.000000 L 34.000000 21.000000 Z" fill="#231F20"/><path d=" M 34.000000 27.000000 L 30.000000 27.000000 L 30.000000 31.000000 L 34.000000 31.000000 L 34.000000 27.000000 L 34.000000 27.000000 Z" fill="#231F20"/><path d=" M 34.000000 33.000000 L 30.000000 33.000000 L 30.000000 37.000000 L 34.000000 37.000000 L 34.000000 33.000000 L 34.000000 33.000000 Z" fill="#231F20"/><path d=" M 42.000000 21.000000 L 38.000000 21.000000 L 38.000000 25.000000 L 42.000000 25.000000 L 42.000000 21.000000 L 42.000000 21.000000 Z" fill="#231F20"/><path d=" M 42.000000 27.000000 L 38.000000 27.000000 L 38.000000 31.000000 L 42.000000 31.000000 L 42.000000 27.000000 L 42.000000 27.000000 Z" fill="#231F20"/><path d=" M 42.000000 33.000000 L 38.000000 33.000000 L 38.000000 37.000000 L 42.000000 37.000000 L 42.000000 33.000000 L 42.000000 33.000000 Z" fill="#231F20"/></g></svg>