<svg version="1.1" viewBox="0.000000 0.000000 48.000000 48.000000" xmlns="http://www.w3.org/2000/svg" xmlns:xlink="http://www.w3.org/1999/xlink" overflow="hidden"><defs></defs><g id="icons"><path d=" M 22.000000 9.290000 L 22.000000 5.000000 L 18.000000 5.000000 L 18.000000 9.290000 C 15.032734 10.174667 12.999206 12.903663 13.000000 16.000000 L 13.000000 47.000000 L 27.000000 47.000000 L 27.000000 16.000000 C 27.000795 12.903663 24.967266 10.174668 22.000000 9.290000 Z" stroke="#231F20" stroke-width="2.000000" stroke-linecap="round" stroke-linejoin="round" fill="none"/><path d=" M 9.000000 1.000000 L 18.000000 5.000000 L 18.000000 5.000000 C 11.924868 5.000000 7.000000 9.924868 7.000000 16.000000 L 7.000000 41.000000" stroke="#231F20" stroke-width="2.000000" stroke-linecap="round" stroke-linejoin="round" fill="none"/><path d=" M 41.000000 1.000000 L 41.000000 9.000000 L 26.000000 7.000000 L 26.000000 3.000000 L 41.000000 1.000000 Z" stroke="#231F20" stroke-width="2.000000" stroke-linecap="round" stroke-linejoin="round" fill="none"/><line x1="22.000000" y1="5.000000" x2="26.000000" y2="5.000000" stroke="#231F20" stroke-width="2.000000" stroke-linecap="round" stroke-linejoin="round" fill="none"/><path d=" M 27.000000 41.000000 L 21.000000 41.000000 L 21.000000 19.000000 L 27.000000 19.000000" stroke="#231F20" stroke-width="2.000000" stroke-linecap="round" stroke-linejoin="round" fill="none"/></g></svg>