<svg version="1.1" viewBox="0.000000 0.000000 48.000000 48.000000" xmlns="http://www.w3.org/2000/svg" xmlns:xlink="http://www.w3.org/1999/xlink" overflow="hidden"><defs></defs><g id="icons"><line x1="3.000000" y1="9.000000" x2="45.000000" y2="9.000000" stroke="#231F20" stroke-width="2.000000" stroke-linecap="round" stroke-linejoin="round" fill="none"/><path d=" M 9.050000 4.000000 C 8.497715 4.000000 8.050000 4.447715 8.050000 5.000000 C 8.050000 5.552285 8.497715 6.000000 9.050000 6.000000 C 9.602285 6.000000 10.050000 5.552285 10.050000 5.000000 C 10.050000 4.447715 9.602285 4.000000 9.050000 4.000000 Z" fill="#231F20"/><path d=" M 13.050000 4.000000 C 12.497715 4.000000 12.050000 4.447715 12.050000 5.000000 C 12.050000 5.552285 12.497715 6.000000 13.050000 6.000000 C 13.602285 6.000000 14.050000 5.552285 14.050000 5.000000 C 14.050000 4.447715 13.602285 4.000000 13.050000 4.000000 Z" fill="#231F20"/><path d=" M 17.049999 4.000000 C 16.497715 4.000000 16.049999 4.447715 16.049999 5.000000 C 16.049999 5.552285 16.497715 6.000000 17.049999 6.000000 C 17.602283 6.000000 18.049999 5.552285 18.049999 5.000000 C 18.049999 4.447715 17.602283 4.000000 17.049999 4.000000 Z" fill="#231F20"/><path d=" M 19.000000 31.000000 L 7.050000 31.000000 C 4.840861 31.000000 3.050000 29.209139 3.050000 27.000000 L 3.050000 5.000000 C 3.050000 2.790861 4.840861 1.000000 7.050000 1.000000 L 41.049999 1.000000 C 43.259140 1.000000 45.049999 2.790861 45.049999 5.000000 L 45.049999 27.000000 C 45.049999 29.209139 43.259140 31.000000 41.049999 31.000000 L 31.000000 31.000000" stroke="#231F20" stroke-width="2.000000" stroke-linecap="round" stroke-miterlimit="10.000000" fill="none"/><line x1="25.000000" y1="47.000000" x2="25.000000" y2="24.000000" stroke="#231F20" stroke-width="2.000000" stroke-linecap="round" stroke-linejoin="round" fill="none"/><path d=" M 33.049999 39.000000 L 25.049999 47.000000 L 17.049999 39.000000" stroke="#231F20" stroke-width="2.000000" stroke-linecap="round" stroke-linejoin="round" fill="none"/></g></svg>