<svg version="1.1" viewBox="0.000000 0.000000 48.000000 48.000000" xmlns="http://www.w3.org/2000/svg" xmlns:xlink="http://www.w3.org/1999/xlink" overflow="hidden"><defs></defs><g id="icons"><path d=" M 41.000000 47.000000 L 7.000000 47.000000 L 7.000000 1.000000 L 33.000000 1.000000 L 41.000000 9.000000 L 41.000000 47.000000 Z" stroke="#231F20" stroke-width="2.000000" stroke-linecap="round" stroke-linejoin="round" fill="none"/><path d=" M 23.000000 1.000000 L 23.000000 5.000000 L 25.000000 5.000000 L 25.000000 15.000000 L 19.000000 15.000000 L 19.000000 5.000000" stroke="#231F20" stroke-width="2.000000" stroke-linecap="round" stroke-linejoin="round" fill="none"/><path d=" M 23.000000 11.000000 L 21.000000 11.000000 L 21.000000 13.000000 L 23.000000 13.000000 L 23.000000 11.000000 L 23.000000 11.000000 Z" fill="#231F20"/><line x1="21.000000" y1="19.000000" x2="23.000000" y2="19.000000" stroke="#231F20" stroke-width="2.000000" stroke-linecap="round" stroke-linejoin="round" fill="none"/><line x1="21.000000" y1="23.000000" x2="23.000000" y2="23.000000" stroke="#231F20" stroke-width="2.000000" stroke-linecap="round" stroke-linejoin="round" fill="none"/><line x1="21.000000" y1="27.000000" x2="23.000000" y2="27.000000" stroke="#231F20" stroke-width="2.000000" stroke-linecap="round" stroke-linejoin="round" fill="none"/><line x1="21.000000" y1="31.000000" x2="23.000000" y2="31.000000" stroke="#231F20" stroke-width="2.000000" stroke-linecap="round" stroke-linejoin="round" fill="none"/><line x1="21.000000" y1="35.000000" x2="23.000000" y2="35.000000" stroke="#231F20" stroke-width="2.000000" stroke-linecap="round" stroke-linejoin="round" fill="none"/><line x1="21.000000" y1="39.000000" x2="23.000000" y2="39.000000" stroke="#231F20" stroke-width="2.000000" stroke-linecap="round" stroke-linejoin="round" fill="none"/><line x1="21.000000" y1="43.000000" x2="23.000000" y2="43.000000" stroke="#231F20" stroke-width="2.000000" stroke-linecap="round" stroke-linejoin="round" fill="none"/><line x1="23.000000" y1="21.000000" x2="25.000000" y2="21.000000" stroke="#231F20" stroke-width="2.000000" stroke-linecap="round" stroke-linejoin="round" fill="none"/><line x1="23.000000" y1="25.000000" x2="25.000000" y2="25.000000" stroke="#231F20" stroke-width="2.000000" stroke-linecap="round" stroke-linejoin="round" fill="none"/><line x1="23.000000" y1="29.000000" x2="25.000000" y2="29.000000" stroke="#231F20" stroke-width="2.000000" stroke-linecap="round" stroke-linejoin="round" fill="none"/><line x1="23.000000" y1="33.000000" x2="25.000000" y2="33.000000" stroke="#231F20" stroke-width="2.000000" stroke-linecap="round" stroke-linejoin="round" fill="none"/><line x1="23.000000" y1="37.000000" x2="25.000000" y2="37.000000" stroke="#231F20" stroke-width="2.000000" stroke-linecap="round" stroke-linejoin="round" fill="none"/><line x1="23.000000" y1="41.000000" x2="25.000000" y2="41.000000" stroke="#231F20" stroke-width="2.000000" stroke-linecap="round" stroke-linejoin="round" fill="none"/></g></svg>