<svg version="1.1" viewBox="0.000000 0.000000 48.000000 48.000000" xmlns="http://www.w3.org/2000/svg" xmlns:xlink="http://www.w3.org/1999/xlink" overflow="hidden"><defs></defs><g id="icons"><path d=" M 37.009998 28.000000 L 40.000000 35.000000 L 47.000000 35.000000 L 41.000000 39.990002 L 44.000000 48.000000 L 37.000000 43.009998 L 30.000000 48.000000 L 33.000000 39.990002 L 27.000000 35.000000 L 34.000000 35.000000 L 37.009998 28.000000 Z" stroke="#231F20" stroke-width="2.000000" stroke-linejoin="round" fill="none"/><path d=" M 27.930000 27.709999 C 26.379999 27.190001 25.000000 26.639999 23.000000 26.000000 L 23.000000 21.000000 C 23.000000 21.000000 26.000000 19.760000 26.000000 15.000000 C 28.000000 15.000000 28.000000 10.860000 26.000000 10.860000 C 26.000000 10.390000 27.860001 7.640000 27.200001 5.000000 C 26.260000 1.190000 15.050000 1.190000 14.100000 5.000000 C 9.370000 4.000000 12.000000 10.360000 12.000000 11.000000 C 11.000000 11.000000 11.000000 15.000000 12.000000 15.000000 C 12.000000 19.760000 15.000000 21.000000 15.000000 21.000000 L 15.000000 26.000000 C 10.000000 28.110001 3.000000 29.510000 2.200000 32.000000 C 1.530685 34.619263 1.128629 37.299633 1.000000 40.000000 L 22.000000 40.000000" stroke="#231F20" stroke-width="2.000000" stroke-linejoin="round" fill="none"/></g></svg>