<svg version="1.1" viewBox="0.000000 0.000000 48.000000 48.000000" xmlns="http://www.w3.org/2000/svg" xmlns:xlink="http://www.w3.org/1999/xlink" overflow="hidden"><defs></defs><g id="icons"><path d=" M 29.000000 19.049999 C 25.878277 15.926229 25.878277 10.863769 29.000000 7.739999 L 22.590000 1.370000 L 17.450001 6.510000 C 17.111397 5.925399 16.697901 5.387518 16.220001 4.910000 C 13.016845 1.866816 7.953186 1.996499 4.910001 5.199655 C 1.976438 8.287428 1.976438 13.132227 4.910001 16.219999 C 5.390179 16.694860 5.927652 17.108044 6.510001 17.449999 L 1.370000 22.590000 L 7.740000 29.000000 C 11.072171 26.098652 16.125437 26.447905 19.026783 29.780075 C 21.640036 32.781372 21.649927 37.247154 19.049999 40.259998 L 25.410000 46.630001 L 30.549999 41.490002 C 30.891954 42.072350 31.305138 42.609825 31.779999 43.090000 C 34.983154 46.133183 40.046814 46.003502 43.090000 42.800346 C 46.023563 39.712574 46.023563 34.867775 43.090000 31.780001 C 42.609821 31.305140 42.072350 30.891956 41.490002 30.550001 L 46.630001 25.410000 L 40.259998 19.049999 C 37.142048 22.138557 32.117950 22.138557 28.999998 19.049999 Z" stroke="#000000" stroke-width="2.000000" stroke-linecap="round" stroke-linejoin="round" fill="none"/></g></svg>