<svg version="1.1" viewBox="0.000000 0.000000 48.000000 48.000000" xmlns="http://www.w3.org/2000/svg" xmlns:xlink="http://www.w3.org/1999/xlink" overflow="hidden"><defs></defs><g id="icons"><rect x="9.000000" y="14.000000" rx="4.000000" ry="4.000000" width="30.000000" height="20.000000" stroke="#231F20" stroke-width="2.000000" stroke-linecap="round" stroke-linejoin="round" fill="none"/><line x1="9.000000" y1="20.000000" x2="39.000000" y2="20.000000" stroke="#231F20" stroke-width="2.000000" stroke-linecap="round" stroke-linejoin="round" fill="none"/><path d=" M 14.000000 16.000000 C 13.447715 16.000000 13.000000 16.447716 13.000000 17.000000 C 13.000000 17.552284 13.447715 18.000000 14.000000 18.000000 C 14.552285 18.000000 15.000000 17.552284 15.000000 17.000000 C 15.000000 16.447716 14.552285 16.000000 14.000000 16.000000 Z" fill="#231F20"/><path d=" M 18.000000 16.000000 C 17.447716 16.000000 17.000000 16.447716 17.000000 17.000000 C 17.000000 17.552284 17.447716 18.000000 18.000000 18.000000 C 18.552284 18.000000 19.000000 17.552284 19.000000 17.000000 C 19.000000 16.447716 18.552284 16.000000 18.000000 16.000000 Z" fill="#231F20"/><path d=" M 22.000000 16.000000 C 21.447716 16.000000 21.000000 16.447716 21.000000 17.000000 C 21.000000 17.552284 21.447716 18.000000 22.000000 18.000000 C 22.552284 18.000000 23.000000 17.552284 23.000000 17.000000 C 23.000000 16.447716 22.552284 16.000000 22.000000 16.000000 Z" fill="#231F20"/></g></svg>