<svg version="1.1" viewBox="0.000000 0.000000 48.000000 48.000000" xmlns="http://www.w3.org/2000/svg" xmlns:xlink="http://www.w3.org/1999/xlink" overflow="hidden"><defs></defs><g id="icons"><path d=" M 45.000000 25.000000 L 3.000000 25.000000 L 3.000000 22.000000 C 3.000000 14.820298 8.820298 9.000000 16.000000 9.000000 L 32.000000 9.000000 C 39.179703 9.000000 45.000000 14.820298 45.000000 22.000000 Z" stroke="#231F20" stroke-width="2.000000" stroke-linejoin="round" fill="none"/><rect x="1.000000" y="25.000000" rx="3.000000" ry="3.000000" width="46.000000" height="8.000000" stroke="#231F20" stroke-width="2.000000" stroke-linejoin="round" fill="none"/><path d=" M 45.000000 35.000000 C 45.000000 37.209141 43.209141 39.000000 41.000000 39.000000 L 7.000000 39.000000 C 4.790861 39.000000 3.000000 37.209141 3.000000 35.000000 L 3.000000 33.000000 L 45.000000 33.000000 Z" stroke="#231F20" stroke-width="2.000000" stroke-linejoin="round" fill="none"/><path d=" M 14.000000 14.000000 C 13.447715 14.000000 13.000000 14.447715 13.000000 15.000000 C 13.000000 15.552285 13.447715 16.000000 14.000000 16.000000 C 14.552285 16.000000 15.000000 15.552285 15.000000 15.000000 C 15.000000 14.447715 14.552285 14.000000 14.000000 14.000000 Z" fill="#231F20"/><path d=" M 19.000000 12.000000 C 18.447716 12.000000 18.000000 12.447715 18.000000 13.000000 C 18.000000 13.552285 18.447716 14.000000 19.000000 14.000000 C 19.552284 14.000000 20.000000 13.552285 20.000000 13.000000 C 20.000000 12.447715 19.552284 12.000000 19.000000 12.000000 Z" fill="#231F20"/><path d=" M 29.000000 12.000000 C 28.447716 12.000000 28.000000 12.447715 28.000000 13.000000 C 28.000000 13.552285 28.447716 14.000000 29.000000 14.000000 C 29.552284 14.000000 30.000000 13.552285 30.000000 13.000000 C 30.000000 12.447715 29.552284 12.000000 29.000000 12.000000 Z" fill="#231F20"/><path d=" M 24.000000 14.000000 C 23.447716 14.000000 23.000000 14.447715 23.000000 15.000000 C 23.000000 15.552285 23.447716 16.000000 24.000000 16.000000 C 24.552284 16.000000 25.000000 15.552285 25.000000 15.000000 C 25.000000 14.447715 24.552284 14.000000 24.000000 14.000000 Z" fill="#231F20"/><path d=" M 34.000000 14.000000 C 33.447716 14.000000 33.000000 14.447715 33.000000 15.000000 C 33.000000 15.552285 33.447716 16.000000 34.000000 16.000000 C 34.552284 16.000000 35.000000 15.552285 35.000000 15.000000 C 35.000000 14.447715 34.552284 14.000000 34.000000 14.000000 Z" fill="#231F20"/></g></svg>